<svg xmlns="http://www.w3.org/2000/svg" xmlns:xlink="http://www.w3.org/1999/xlink" width="58" zoomAndPan="magnify" viewBox="0 0 50.879997 37.5" height="50" preserveAspectRatio="xMidYMid meet" version="1.0"><defs><clipPath id="cf9b1e8041"><path d="M 14 11 L 37.550781 11 L 37.550781 32.863281 L 14 32.863281 Z M 14 11 " clip-rule="nonzero"/></clipPath></defs><path fill="#ffffff" d="M 30.46875 8.648438 C 31.46875 7.40625 32.144531 5.730469 31.96875 4.019531 C 30.503906 4.09375 28.722656 4.980469 27.691406 6.230469 C 26.765625 7.296875 25.949219 9.042969 26.15625 10.679688 C 27.796875 10.824219 29.433594 9.859375 30.464844 8.648438 Z M 30.46875 8.648438 " fill-opacity="1" fill-rule="nonzero"/><g clip-path="url(#cf9b1e8041)"><path fill="#ffffff" d="M 31.949219 11.011719 C 29.566406 10.871094 27.539062 12.359375 26.410156 12.359375 C 25.277344 12.359375 23.527344 11.085938 21.648438 11.113281 C 21.035156 11.128906 20.4375 11.226562 19.851562 11.398438 C 19.261719 11.570312 18.707031 11.816406 18.183594 12.132812 C 17.664062 12.449219 17.1875 12.828125 16.765625 13.269531 C 16.34375 13.710938 15.980469 14.203125 15.6875 14.738281 C 13.128906 19.144531 15.011719 25.675781 17.496094 29.261719 C 18.703125 31.035156 20.160156 32.988281 22.074219 32.921875 C 23.886719 32.847656 24.597656 31.746094 26.796875 31.746094 C 28.996094 31.746094 29.632812 32.921875 31.554688 32.886719 C 33.542969 32.847656 34.785156 31.109375 35.992188 29.335938 C 36.539062 28.53125 37.007812 27.683594 37.394531 26.796875 C 37.480469 26.601562 37.53125 26.398438 37.546875 26.1875 C 37.5625 25.976562 37.542969 25.765625 37.488281 25.5625 C 37.429688 25.359375 37.34375 25.167969 37.21875 24.996094 C 37.097656 24.820312 36.953125 24.671875 36.78125 24.546875 C 35.9375 23.960938 35.277344 23.210938 34.804688 22.296875 C 34.335938 21.382812 34.101562 20.414062 34.113281 19.386719 C 34.101562 18.566406 34.25 17.777344 34.558594 17.015625 C 34.863281 16.257812 35.304688 15.585938 35.878906 15 C 36.0625 14.808594 36.199219 14.585938 36.289062 14.332031 C 36.375 14.082031 36.40625 13.820312 36.382812 13.554688 C 36.355469 13.289062 36.277344 13.039062 36.144531 12.808594 C 36.007812 12.578125 35.832031 12.386719 35.617188 12.230469 C 34.503906 11.492188 33.28125 11.085938 31.949219 11.011719 M 31.949219 11.011719 Z M 31.949219 11.011719 " fill-opacity="1" fill-rule="nonzero"/></g></svg>