<svg xmlns="http://www.w3.org/2000/svg" xmlns:xlink="http://www.w3.org/1999/xlink" width="68" zoomAndPan="magnify" viewBox="0 0 50.879997 37.5" height="50" preserveAspectRatio="xMidYMid meet" version="1.0"><defs><clipPath id="79e3d5f2b9"><path d="M 10.859375 3.921875 L 39.722656 3.921875 L 39.722656 32.785156 L 10.859375 32.785156 Z M 10.859375 3.921875 " clip-rule="nonzero"/></clipPath></defs><g clip-path="url(#79e3d5f2b9)"><path fill="#ffffff" d="M 21.207031 3.984375 C 18.382812 4.007812 16.539062 5.296875 16.421875 5.382812 C 16.292969 5.476562 16.199219 5.613281 16.164062 5.769531 L 14.023438 14.875 C 13.972656 15.097656 14.039062 15.332031 14.203125 15.496094 C 14.367188 15.65625 14.601562 15.722656 14.824219 15.667969 C 17.078125 14.957031 20.5 14.855469 24.007812 16.816406 C 24.105469 16.875 24.21875 16.902344 24.328125 16.902344 C 24.417969 16.902344 24.507812 16.882812 24.589844 16.847656 C 24.777344 16.765625 24.917969 16.601562 24.96875 16.402344 L 27.480469 6.5625 C 27.550781 6.289062 27.4375 5.996094 27.195312 5.84375 C 24.949219 4.410156 22.902344 3.96875 21.207031 3.984375 Z M 29.214844 7.390625 C 29.109375 7.382812 29.007812 7.394531 28.90625 7.433594 C 28.707031 7.511719 28.558594 7.679688 28.507812 7.886719 L 26.011719 17.664062 C 25.945312 17.929688 26.046875 18.207031 26.265625 18.367188 C 28.535156 19.996094 30.828125 20.480469 32.765625 20.480469 C 34.644531 20.480469 36.1875 20.027344 37.050781 19.695312 C 37.257812 19.617188 37.410156 19.441406 37.460938 19.230469 L 39.929688 8.734375 C 39.992188 8.464844 39.882812 8.1875 39.652344 8.035156 C 39.425781 7.878906 39.125 7.882812 38.898438 8.046875 C 38.734375 8.164062 34.804688 10.996094 29.507812 7.496094 C 29.417969 7.4375 29.316406 7.402344 29.214844 7.390625 Z M 17.867188 16.53125 C 16.046875 16.578125 14.554688 17.074219 13.730469 17.386719 C 13.527344 17.464844 13.375 17.640625 13.324219 17.855469 L 10.875 28.265625 C 10.863281 28.3125 10.859375 28.394531 10.859375 28.445312 C 10.859375 28.691406 10.996094 28.917969 11.21875 29.03125 C 11.433594 29.144531 11.902344 28.980469 11.902344 28.980469 C 11.902344 28.980469 15.785156 26.101562 20.820312 29.253906 C 20.921875 29.3125 21.039062 29.34375 21.152344 29.34375 C 21.238281 29.34375 21.328125 29.328125 21.410156 29.292969 C 21.601562 29.214844 21.746094 29.050781 21.796875 28.847656 L 24.285156 19.082031 C 24.355469 18.804688 24.242188 18.515625 24.003906 18.359375 C 21.847656 16.886719 19.691406 16.484375 17.867188 16.53125 Z M 26.019531 19.875 C 25.917969 19.867188 25.8125 19.882812 25.714844 19.921875 C 25.519531 20.003906 25.375 20.167969 25.320312 20.371094 L 22.828125 30.144531 C 22.761719 30.410156 22.867188 30.691406 23.089844 30.851562 C 25.535156 32.558594 27.773438 33.042969 29.519531 33.042969 C 30.089844 33.042969 30.609375 32.988281 31.0625 32.910156 C 33.085938 32.570312 34.332031 31.679688 34.386719 31.640625 C 34.523438 31.539062 34.617188 31.359375 34.648438 31.179688 L 36.757812 22.210938 C 36.8125 21.984375 36.742188 21.75 36.578125 21.589844 C 36.414062 21.425781 36.179688 21.359375 35.957031 21.414062 C 32.578125 22.25 29.226562 21.773438 26.308594 19.972656 C 26.21875 19.917969 26.121094 19.886719 26.019531 19.875 Z M 26.019531 19.875 " fill-opacity="1" fill-rule="nonzero"/></g></svg>