<svg xmlns="http://www.w3.org/2000/svg" xmlns:xlink="http://www.w3.org/1999/xlink" width="132" zoomAndPan="magnify" viewBox="0 0 98.88 70.499998" height="94" preserveAspectRatio="xMidYMid meet" version="1.0"><defs><clipPath id="285eaa068a"><path d="M 9 10.148438 L 46 10.148438 L 46 51.109375 L 9 51.109375 Z M 9 10.148438 " clip-rule="nonzero"/></clipPath><clipPath id="ef72d97f70"><path d="M 57.683594 10.148438 L 90.449219 10.148438 L 90.449219 51.109375 L 57.683594 51.109375 Z M 57.683594 10.148438 " clip-rule="nonzero"/></clipPath><clipPath id="bb0d1136a7"><path d="M 81.226562 10.195312 L 81.296875 10.207031 L 81.324219 10.214844 L 81.34375 10.226562 L 81.367188 10.234375 L 81.390625 10.246094 L 81.414062 10.261719 L 81.472656 10.308594 L 81.507812 10.34375 L 81.519531 10.363281 L 81.535156 10.382812 L 81.546875 10.40625 L 81.558594 10.425781 L 81.589844 10.519531 L 81.59375 10.542969 L 81.59375 10.566406 L 81.597656 10.589844 L 81.597656 10.613281 L 81.59375 10.640625 L 81.59375 10.664062 L 81.589844 10.6875 L 81.566406 10.757812 L 81.542969 10.804688 L 81.542969 10.808594 L 81.539062 10.808594 L 81.539062 10.8125 L 81.535156 10.816406 L 81.535156 10.820312 L 81.53125 10.820312 L 81.53125 10.824219 L 81.527344 10.828125 L 81.527344 10.832031 L 81.519531 10.839844 L 81.519531 10.84375 L 81.515625 10.84375 L 81.515625 10.847656 L 81.507812 10.855469 L 79.261719 14.171875 L 79.59375 14.351562 L 79.964844 14.570312 L 80.324219 14.804688 L 80.675781 15.054688 L 81.015625 15.3125 L 81.347656 15.585938 L 81.667969 15.871094 L 81.976562 16.167969 L 82.273438 16.476562 L 82.558594 16.796875 L 82.832031 17.128906 L 83.09375 17.46875 L 83.339844 17.820312 L 83.574219 18.183594 L 83.792969 18.550781 L 84 18.929688 L 84.191406 19.320312 L 84.367188 19.714844 L 84.53125 20.121094 L 84.675781 20.535156 L 84.804688 20.953125 L 84.921875 21.378906 L 85.019531 21.8125 L 85.097656 22.25 L 85.164062 22.695312 L 85.207031 23.144531 L 85.234375 23.601562 L 85.242188 23.953125 L 85.28125 23.914062 L 85.363281 23.835938 L 85.449219 23.757812 L 85.539062 23.683594 L 85.628906 23.617188 L 85.722656 23.550781 L 85.917969 23.425781 L 86.019531 23.371094 L 86.121094 23.320312 L 86.226562 23.273438 L 86.335938 23.230469 L 86.445312 23.191406 L 86.558594 23.15625 L 86.671875 23.125 L 86.785156 23.097656 L 86.902344 23.078125 L 87.019531 23.0625 L 87.140625 23.046875 L 87.261719 23.039062 L 87.382812 23.035156 L 87.507812 23.039062 L 87.621094 23.046875 L 87.738281 23.054688 L 87.851562 23.070312 L 87.964844 23.089844 L 88.074219 23.113281 L 88.292969 23.175781 L 88.398438 23.210938 L 88.503906 23.25 L 88.605469 23.292969 L 88.707031 23.339844 L 88.804688 23.390625 L 88.902344 23.445312 L 88.996094 23.5 L 89.175781 23.625 L 89.261719 23.691406 L 89.347656 23.761719 L 89.429688 23.835938 L 89.507812 23.910156 L 89.582031 23.988281 L 89.65625 24.070312 L 89.726562 24.15625 L 89.792969 24.242188 L 89.917969 24.421875 L 89.976562 24.519531 L 90.027344 24.613281 L 90.078125 24.710938 L 90.125 24.8125 L 90.167969 24.914062 L 90.246094 25.125 L 90.277344 25.234375 L 90.304688 25.34375 L 90.328125 25.453125 L 90.347656 25.566406 L 90.363281 25.679688 L 90.378906 25.914062 L 90.378906 35.460938 L 90.375 35.585938 L 90.371094 35.707031 L 90.355469 35.828125 L 90.339844 35.945312 L 90.292969 36.179688 L 90.261719 36.292969 L 90.226562 36.40625 L 90.1875 36.515625 L 90.144531 36.621094 L 90.097656 36.726562 L 90.046875 36.832031 L 89.992188 36.933594 L 89.933594 37.03125 L 89.867188 37.128906 L 89.800781 37.222656 L 89.734375 37.3125 L 89.660156 37.402344 L 89.585938 37.488281 L 89.503906 37.570312 L 89.421875 37.648438 L 89.335938 37.726562 L 89.25 37.796875 L 89.15625 37.867188 L 89.0625 37.933594 L 88.96875 37.996094 L 88.867188 38.054688 L 88.765625 38.109375 L 88.664062 38.160156 L 88.558594 38.210938 L 88.449219 38.253906 L 88.339844 38.292969 L 88.226562 38.328125 L 88 38.382812 L 87.882812 38.40625 L 87.761719 38.421875 L 87.640625 38.433594 L 87.519531 38.441406 L 87.398438 38.445312 L 87.273438 38.441406 L 87.152344 38.433594 L 87.03125 38.421875 L 86.914062 38.40625 L 86.679688 38.359375 L 86.566406 38.328125 L 86.453125 38.292969 L 86.34375 38.253906 L 86.238281 38.210938 L 86.128906 38.164062 L 86.027344 38.113281 L 85.925781 38.054688 L 85.828125 37.996094 L 85.730469 37.933594 L 85.636719 37.871094 L 85.542969 37.800781 L 85.457031 37.726562 L 85.371094 37.648438 L 85.289062 37.570312 L 85.246094 37.527344 L 85.246094 41.21875 L 85.234375 41.417969 L 85.222656 41.484375 L 85.199219 41.609375 L 85.179688 41.671875 L 85.164062 41.734375 L 85.140625 41.792969 L 85.117188 41.855469 L 85.089844 41.910156 L 85.0625 41.96875 L 85 42.078125 L 84.964844 42.132812 L 84.929688 42.183594 L 84.890625 42.234375 L 84.8125 42.328125 L 84.765625 42.371094 L 84.722656 42.417969 L 84.675781 42.457031 L 84.625 42.496094 L 84.578125 42.535156 L 84.523438 42.574219 L 84.472656 42.605469 L 84.417969 42.640625 L 84.363281 42.667969 L 84.304688 42.699219 L 84.128906 42.769531 L 84.066406 42.789062 L 84.003906 42.804688 L 83.941406 42.816406 L 83.878906 42.832031 L 83.746094 42.847656 L 83.679688 42.851562 L 82 42.851562 L 82 48.085938 L 81.996094 48.207031 L 81.988281 48.328125 L 81.976562 48.449219 L 81.9375 48.683594 L 81.910156 48.800781 L 81.878906 48.914062 L 81.84375 49.027344 L 81.804688 49.136719 L 81.761719 49.242188 L 81.714844 49.351562 L 81.664062 49.453125 L 81.609375 49.554688 L 81.550781 49.652344 L 81.488281 49.75 L 81.421875 49.84375 L 81.351562 49.933594 L 81.277344 50.023438 L 81.203125 50.109375 L 81.125 50.191406 L 81.042969 50.269531 L 80.957031 50.347656 L 80.777344 50.488281 L 80.683594 50.554688 L 80.585938 50.617188 L 80.488281 50.675781 L 80.386719 50.730469 L 80.28125 50.785156 L 80.175781 50.828125 L 80.070312 50.875 L 79.957031 50.914062 L 79.847656 50.949219 L 79.734375 50.980469 L 79.5 51.027344 L 79.382812 51.042969 L 79.261719 51.054688 L 79.140625 51.0625 L 79.015625 51.066406 L 78.894531 51.0625 L 78.773438 51.054688 L 78.652344 51.042969 L 78.535156 51.027344 L 78.300781 50.980469 L 78.1875 50.949219 L 78.074219 50.914062 L 77.964844 50.875 L 77.855469 50.828125 L 77.75 50.785156 L 77.546875 50.675781 L 77.445312 50.617188 L 77.351562 50.554688 L 77.257812 50.488281 L 77.164062 50.417969 L 77.078125 50.347656 L 76.992188 50.269531 L 76.910156 50.191406 L 76.828125 50.109375 L 76.753906 50.023438 L 76.679688 49.933594 L 76.613281 49.84375 L 76.546875 49.75 L 76.484375 49.652344 L 76.425781 49.554688 L 76.367188 49.453125 L 76.316406 49.351562 L 76.269531 49.242188 L 76.226562 49.136719 L 76.1875 49.027344 L 76.152344 48.914062 L 76.121094 48.800781 L 76.074219 48.566406 L 76.058594 48.449219 L 76.046875 48.328125 L 76.039062 48.207031 L 76.035156 48.085938 L 76.035156 42.851562 L 72.097656 42.851562 L 72.097656 48.085938 L 72.09375 48.207031 L 72.085938 48.328125 L 72.074219 48.449219 L 72.058594 48.566406 L 72.011719 48.800781 L 71.980469 48.914062 L 71.945312 49.027344 L 71.90625 49.136719 L 71.863281 49.242188 L 71.816406 49.351562 L 71.765625 49.453125 L 71.707031 49.554688 L 71.648438 49.652344 L 71.585938 49.75 L 71.519531 49.84375 L 71.453125 49.933594 L 71.378906 50.023438 L 71.304688 50.109375 L 71.222656 50.191406 L 71.140625 50.269531 L 71.054688 50.347656 L 70.96875 50.417969 L 70.875 50.488281 L 70.78125 50.554688 L 70.6875 50.617188 L 70.585938 50.675781 L 70.382812 50.785156 L 70.277344 50.828125 L 70.167969 50.875 L 70.058594 50.914062 L 69.945312 50.949219 L 69.832031 50.980469 L 69.597656 51.027344 L 69.480469 51.042969 L 69.359375 51.054688 L 69.238281 51.0625 L 69.117188 51.066406 L 68.992188 51.0625 L 68.871094 51.054688 L 68.75 51.042969 L 68.632812 51.027344 L 68.398438 50.980469 L 68.285156 50.949219 L 68.175781 50.914062 L 68.0625 50.875 L 67.957031 50.828125 L 67.851562 50.785156 L 67.746094 50.730469 L 67.644531 50.675781 L 67.546875 50.617188 L 67.449219 50.554688 L 67.355469 50.488281 L 67.175781 50.347656 L 67.089844 50.269531 L 67.007812 50.191406 L 66.929688 50.109375 L 66.855469 50.023438 L 66.78125 49.933594 L 66.710938 49.84375 L 66.644531 49.75 L 66.582031 49.652344 L 66.523438 49.554688 L 66.46875 49.453125 L 66.417969 49.351562 L 66.371094 49.242188 L 66.328125 49.136719 L 66.289062 49.027344 L 66.253906 48.914062 L 66.222656 48.800781 L 66.195312 48.683594 L 66.15625 48.449219 L 66.144531 48.328125 L 66.136719 48.207031 L 66.132812 48.085938 L 66.132812 42.851562 L 64.488281 42.851562 L 64.417969 42.847656 L 64.355469 42.839844 L 64.289062 42.832031 L 64.222656 42.816406 L 64.160156 42.804688 L 64.097656 42.789062 L 64.039062 42.769531 L 63.976562 42.746094 L 63.859375 42.699219 L 63.804688 42.667969 L 63.746094 42.640625 L 63.695312 42.605469 L 63.640625 42.574219 L 63.539062 42.496094 L 63.445312 42.417969 L 63.355469 42.328125 L 63.3125 42.28125 L 63.273438 42.234375 L 63.234375 42.183594 L 63.199219 42.132812 L 63.164062 42.078125 L 63.101562 41.96875 L 63.074219 41.910156 L 63.046875 41.855469 L 63.023438 41.792969 L 63.003906 41.734375 L 62.984375 41.671875 L 62.953125 41.546875 L 62.941406 41.484375 L 62.925781 41.351562 L 62.921875 41.285156 L 62.921875 37.492188 L 62.84375 37.570312 L 62.761719 37.648438 L 62.675781 37.726562 L 62.589844 37.800781 L 62.496094 37.871094 L 62.402344 37.933594 L 62.304688 37.996094 L 62.207031 38.054688 L 62.105469 38.113281 L 62.003906 38.164062 L 61.894531 38.210938 L 61.789062 38.253906 L 61.679688 38.292969 L 61.566406 38.328125 L 61.453125 38.359375 L 61.21875 38.40625 L 61.101562 38.421875 L 60.980469 38.433594 L 60.859375 38.441406 L 60.734375 38.445312 L 60.613281 38.441406 L 60.492188 38.433594 L 60.371094 38.421875 L 60.25 38.40625 L 60.132812 38.382812 L 59.90625 38.328125 L 59.792969 38.292969 L 59.683594 38.253906 L 59.574219 38.210938 L 59.46875 38.160156 L 59.367188 38.109375 L 59.265625 38.054688 L 59.164062 37.996094 L 59.070312 37.933594 L 58.976562 37.867188 L 58.882812 37.796875 L 58.796875 37.726562 L 58.710938 37.648438 L 58.628906 37.570312 L 58.546875 37.488281 L 58.472656 37.402344 L 58.398438 37.3125 L 58.332031 37.222656 L 58.265625 37.128906 L 58.199219 37.03125 L 58.140625 36.933594 L 58.085938 36.832031 L 58.035156 36.726562 L 57.988281 36.621094 L 57.945312 36.515625 L 57.90625 36.40625 L 57.871094 36.292969 L 57.839844 36.179688 L 57.792969 35.945312 L 57.777344 35.828125 L 57.761719 35.707031 L 57.757812 35.585938 L 57.753906 35.460938 L 57.753906 25.914062 L 57.761719 25.789062 L 57.773438 25.667969 L 57.789062 25.546875 L 57.808594 25.429688 L 57.835938 25.3125 L 57.867188 25.199219 L 57.902344 25.085938 L 57.941406 24.976562 L 57.984375 24.867188 L 58.03125 24.761719 L 58.082031 24.65625 L 58.136719 24.554688 L 58.195312 24.453125 L 58.257812 24.355469 L 58.324219 24.261719 L 58.394531 24.171875 L 58.46875 24.082031 L 58.542969 23.996094 L 58.625 23.914062 L 58.789062 23.757812 L 58.878906 23.683594 L 58.96875 23.617188 L 59.0625 23.550781 L 59.257812 23.425781 L 59.359375 23.371094 L 59.464844 23.320312 L 59.570312 23.273438 L 59.675781 23.230469 L 59.789062 23.191406 L 59.898438 23.15625 L 60.011719 23.125 L 60.128906 23.097656 L 60.246094 23.078125 L 60.480469 23.046875 L 60.601562 23.039062 L 60.722656 23.035156 L 60.847656 23.039062 L 60.964844 23.046875 L 61.078125 23.054688 L 61.191406 23.070312 L 61.304688 23.089844 L 61.417969 23.113281 L 61.527344 23.144531 L 61.632812 23.175781 L 61.742188 23.210938 L 61.84375 23.25 L 61.949219 23.292969 L 62.046875 23.339844 L 62.144531 23.390625 L 62.242188 23.445312 L 62.335938 23.5 L 62.515625 23.625 L 62.601562 23.691406 L 62.6875 23.761719 L 62.769531 23.835938 L 62.847656 23.910156 L 62.921875 23.988281 L 62.929688 23.601562 L 62.957031 23.144531 L 63.003906 22.695312 L 63.066406 22.25 L 63.148438 21.8125 L 63.175781 21.691406 L 63.171875 21.683594 L 63.171875 21.664062 L 63.167969 21.648438 L 63.167969 21.613281 L 63.171875 21.597656 L 63.171875 21.582031 L 63.179688 21.550781 L 63.179688 21.535156 L 63.183594 21.519531 L 63.191406 21.503906 L 63.195312 21.488281 L 63.203125 21.472656 L 63.207031 21.457031 L 63.214844 21.445312 L 63.222656 21.429688 L 63.230469 21.417969 L 63.238281 21.402344 L 63.246094 21.378906 L 63.359375 20.953125 L 63.488281 20.535156 L 63.636719 20.121094 L 63.796875 19.714844 L 63.976562 19.320312 L 64.164062 18.929688 L 64.371094 18.550781 L 64.59375 18.183594 L 64.828125 17.820312 L 65.074219 17.46875 L 65.332031 17.128906 L 65.609375 16.796875 L 65.890625 16.476562 L 66.1875 16.167969 L 66.5 15.871094 L 66.816406 15.585938 L 67.148438 15.3125 L 67.488281 15.054688 L 67.839844 14.804688 L 68.203125 14.570312 L 68.574219 14.351562 L 68.878906 14.183594 L 66.625 10.855469 L 66.609375 10.835938 L 66.585938 10.789062 L 66.574219 10.769531 L 66.566406 10.746094 L 66.5625 10.722656 L 66.554688 10.699219 L 66.550781 10.675781 L 66.546875 10.648438 L 66.546875 10.601562 L 66.5625 10.507812 L 66.578125 10.460938 L 66.589844 10.441406 L 66.601562 10.417969 L 66.613281 10.398438 L 66.625 10.375 L 66.640625 10.359375 L 66.65625 10.339844 L 66.675781 10.320312 L 66.714844 10.289062 L 66.738281 10.273438 L 66.757812 10.261719 L 66.78125 10.253906 L 66.804688 10.242188 L 66.828125 10.234375 L 66.921875 10.21875 L 66.945312 10.21875 L 66.972656 10.222656 L 66.996094 10.222656 L 67.019531 10.226562 L 67.042969 10.234375 L 67.066406 10.238281 L 67.089844 10.246094 L 67.109375 10.257812 L 67.132812 10.269531 L 67.171875 10.292969 L 67.230469 10.339844 L 67.277344 10.398438 L 69.605469 13.835938 L 69.738281 13.777344 L 70.140625 13.613281 L 70.554688 13.46875 L 70.972656 13.335938 L 71.402344 13.222656 L 71.832031 13.125 L 72.273438 13.042969 L 72.71875 12.980469 L 73.167969 12.9375 L 73.621094 12.90625 L 74.082031 12.898438 L 74.542969 12.90625 L 75 12.9375 L 75.449219 12.980469 L 75.894531 13.042969 L 76.332031 13.125 L 76.765625 13.222656 L 77.191406 13.335938 L 77.609375 13.46875 L 78.023438 13.613281 L 78.429688 13.777344 L 78.519531 13.816406 L 80.832031 10.398438 L 80.847656 10.375 L 80.894531 10.316406 L 80.914062 10.300781 L 80.929688 10.285156 L 80.949219 10.269531 L 80.972656 10.257812 L 80.992188 10.246094 L 81.015625 10.234375 L 81.035156 10.222656 L 81.082031 10.207031 L 81.175781 10.191406 L 81.199219 10.191406 Z M 76.851562 48.085938 L 76.855469 48.171875 L 76.859375 48.261719 L 76.867188 48.347656 L 76.878906 48.433594 L 76.894531 48.519531 L 76.914062 48.605469 L 76.960938 48.769531 L 77.054688 49.003906 L 77.132812 49.152344 L 77.175781 49.222656 L 77.269531 49.363281 L 77.320312 49.429688 L 77.371094 49.492188 L 77.429688 49.554688 L 77.484375 49.613281 L 77.546875 49.671875 L 77.671875 49.78125 L 77.738281 49.832031 L 77.804688 49.878906 L 77.875 49.925781 L 77.949219 49.96875 L 78.023438 50.007812 L 78.097656 50.042969 L 78.175781 50.078125 L 78.253906 50.109375 L 78.332031 50.136719 L 78.414062 50.164062 L 78.496094 50.1875 L 78.578125 50.203125 L 78.664062 50.222656 L 78.75 50.234375 L 78.839844 50.242188 L 78.925781 50.246094 L 79.015625 50.25 L 79.195312 50.242188 L 79.28125 50.234375 L 79.367188 50.222656 L 79.453125 50.203125 L 79.535156 50.1875 L 79.621094 50.164062 L 79.699219 50.136719 L 79.78125 50.109375 L 79.859375 50.078125 L 79.9375 50.042969 L 80.011719 50.007812 L 80.085938 49.96875 L 80.15625 49.925781 L 80.296875 49.832031 L 80.363281 49.78125 L 80.488281 49.671875 L 80.605469 49.554688 L 80.714844 49.429688 L 80.761719 49.363281 L 80.8125 49.292969 L 80.898438 49.152344 L 80.941406 49.078125 L 80.976562 49.003906 L 81.011719 48.925781 L 81.042969 48.847656 L 81.070312 48.769531 L 81.097656 48.6875 L 81.117188 48.605469 L 81.136719 48.519531 L 81.152344 48.433594 L 81.175781 48.261719 L 81.179688 48.171875 L 81.179688 42.851562 L 76.851562 42.851562 Z M 66.953125 48.085938 L 66.953125 48.171875 L 66.957031 48.261719 L 66.980469 48.433594 L 66.996094 48.519531 L 67.015625 48.605469 L 67.035156 48.6875 L 67.0625 48.769531 L 67.089844 48.847656 L 67.121094 48.925781 L 67.15625 49.003906 L 67.191406 49.078125 L 67.234375 49.152344 L 67.320312 49.292969 L 67.371094 49.363281 L 67.417969 49.429688 L 67.527344 49.554688 L 67.644531 49.671875 L 67.769531 49.78125 L 67.835938 49.832031 L 67.976562 49.925781 L 68.046875 49.96875 L 68.121094 50.007812 L 68.195312 50.042969 L 68.273438 50.078125 L 68.351562 50.109375 L 68.433594 50.136719 L 68.511719 50.164062 L 68.597656 50.1875 L 68.679688 50.203125 L 68.765625 50.222656 L 68.851562 50.234375 L 68.9375 50.242188 L 69.117188 50.25 L 69.207031 50.246094 L 69.292969 50.242188 L 69.382812 50.234375 L 69.46875 50.222656 L 69.554688 50.203125 L 69.636719 50.1875 L 69.71875 50.164062 L 69.800781 50.136719 L 69.878906 50.109375 L 69.957031 50.078125 L 70.035156 50.042969 L 70.109375 50.007812 L 70.183594 49.96875 L 70.257812 49.925781 L 70.328125 49.878906 L 70.394531 49.832031 L 70.460938 49.78125 L 70.585938 49.671875 L 70.648438 49.613281 L 70.703125 49.554688 L 70.761719 49.492188 L 70.8125 49.429688 L 70.863281 49.363281 L 70.957031 49.222656 L 71 49.152344 L 71.078125 49.003906 L 71.171875 48.769531 L 71.21875 48.605469 L 71.238281 48.519531 L 71.253906 48.433594 L 71.265625 48.347656 L 71.273438 48.261719 L 71.277344 48.171875 L 71.28125 48.085938 L 71.28125 42.851562 L 66.953125 42.851562 Z M 63.855469 22.351562 L 63.796875 22.765625 L 63.753906 23.179688 L 63.730469 23.601562 L 63.71875 24.027344 L 63.71875 41.183594 L 63.722656 41.21875 L 63.722656 41.253906 L 63.730469 41.316406 L 63.738281 41.347656 L 63.746094 41.382812 L 63.761719 41.445312 L 63.773438 41.472656 L 63.785156 41.503906 L 63.796875 41.53125 L 63.8125 41.5625 L 63.828125 41.589844 L 63.84375 41.613281 L 63.859375 41.640625 L 63.878906 41.667969 L 63.9375 41.738281 L 63.960938 41.761719 L 63.980469 41.785156 L 64.007812 41.804688 L 64.054688 41.84375 L 64.082031 41.863281 L 64.105469 41.878906 L 64.132812 41.894531 L 64.164062 41.910156 L 64.191406 41.925781 L 64.21875 41.9375 L 64.28125 41.960938 L 64.308594 41.96875 L 64.339844 41.976562 L 64.375 41.984375 L 64.40625 41.992188 L 64.4375 41.996094 L 64.472656 42 L 83.644531 42 L 83.679688 41.996094 L 83.710938 41.992188 L 83.835938 41.960938 L 83.898438 41.9375 L 83.925781 41.925781 L 84.035156 41.863281 L 84.0625 41.84375 L 84.132812 41.785156 L 84.179688 41.738281 L 84.238281 41.667969 L 84.257812 41.640625 L 84.273438 41.613281 L 84.289062 41.589844 L 84.304688 41.5625 L 84.320312 41.53125 L 84.332031 41.503906 L 84.34375 41.472656 L 84.355469 41.445312 L 84.371094 41.382812 L 84.378906 41.347656 L 84.386719 41.316406 L 84.394531 41.253906 L 84.394531 24.027344 L 84.386719 23.605469 L 84.359375 23.183594 L 84.320312 22.765625 L 84.257812 22.355469 L 84.203125 22.039062 L 63.914062 22.039062 Z M 60.558594 23.753906 L 60.46875 23.761719 L 60.382812 23.773438 L 60.300781 23.789062 L 60.214844 23.808594 L 60.050781 23.855469 L 59.972656 23.882812 L 59.894531 23.914062 L 59.816406 23.949219 L 59.742188 23.984375 L 59.667969 24.023438 L 59.597656 24.066406 L 59.457031 24.160156 L 59.390625 24.210938 L 59.328125 24.261719 L 59.265625 24.316406 L 59.148438 24.433594 L 59.09375 24.496094 L 59.039062 24.5625 L 58.988281 24.628906 L 58.941406 24.695312 L 58.894531 24.765625 L 58.855469 24.835938 L 58.8125 24.910156 L 58.777344 24.984375 L 58.742188 25.0625 L 58.710938 25.140625 L 58.683594 25.21875 L 58.65625 25.300781 L 58.632812 25.382812 L 58.613281 25.46875 L 58.597656 25.554688 L 58.585938 25.640625 L 58.578125 25.726562 L 58.574219 25.816406 L 58.570312 25.902344 L 58.570312 35.460938 L 58.574219 35.550781 L 58.585938 35.640625 L 58.597656 35.726562 L 58.613281 35.8125 L 58.632812 35.898438 L 58.65625 35.980469 L 58.710938 36.144531 L 58.742188 36.222656 L 58.777344 36.296875 L 58.816406 36.375 L 58.855469 36.449219 L 58.898438 36.519531 L 58.945312 36.589844 L 58.992188 36.65625 L 59.042969 36.722656 L 59.097656 36.789062 L 59.152344 36.851562 L 59.210938 36.910156 L 59.273438 36.96875 L 59.332031 37.023438 L 59.464844 37.125 L 59.605469 37.21875 L 59.675781 37.261719 L 59.75 37.300781 L 59.824219 37.335938 L 59.902344 37.371094 L 59.980469 37.402344 L 60.058594 37.429688 L 60.222656 37.476562 L 60.308594 37.496094 L 60.394531 37.511719 L 60.480469 37.523438 L 60.566406 37.53125 L 60.652344 37.535156 L 60.832031 37.535156 L 60.914062 37.53125 L 60.996094 37.523438 L 61.082031 37.511719 L 61.160156 37.496094 L 61.242188 37.476562 L 61.320312 37.457031 L 61.398438 37.433594 L 61.472656 37.410156 L 61.695312 37.316406 L 61.835938 37.238281 L 61.902344 37.199219 L 61.96875 37.152344 L 62.03125 37.109375 L 62.15625 37.007812 L 62.214844 36.957031 L 62.269531 36.902344 L 62.378906 36.785156 L 62.429688 36.726562 L 62.476562 36.664062 L 62.523438 36.597656 L 62.566406 36.535156 L 62.609375 36.464844 L 62.648438 36.398438 L 62.683594 36.324219 L 62.71875 36.253906 L 62.75 36.179688 L 62.777344 36.105469 L 62.804688 36.027344 L 62.828125 35.949219 L 62.847656 35.871094 L 62.863281 35.792969 L 62.878906 35.710938 L 62.890625 35.628906 L 62.898438 35.546875 L 62.902344 35.460938 L 62.902344 25.824219 L 62.898438 25.734375 L 62.875 25.5625 L 62.859375 25.476562 L 62.839844 25.390625 L 62.792969 25.226562 L 62.765625 25.148438 L 62.734375 25.070312 L 62.699219 24.992188 L 62.621094 24.84375 L 62.578125 24.773438 L 62.484375 24.632812 L 62.433594 24.566406 L 62.324219 24.441406 L 62.207031 24.324219 L 62.082031 24.214844 L 62.015625 24.164062 L 61.875 24.070312 L 61.804688 24.027344 L 61.730469 23.988281 L 61.65625 23.953125 L 61.578125 23.917969 L 61.5 23.886719 L 61.421875 23.859375 L 61.339844 23.832031 L 61.253906 23.8125 L 61.171875 23.792969 L 61 23.761719 L 60.914062 23.753906 L 60.734375 23.746094 L 60.644531 23.75 Z M 87.21875 23.753906 L 87.132812 23.761719 L 87.046875 23.773438 L 86.960938 23.789062 L 86.878906 23.808594 L 86.792969 23.828125 L 86.710938 23.855469 L 86.632812 23.882812 L 86.476562 23.945312 L 86.328125 24.023438 L 86.1875 24.109375 L 86.117188 24.160156 L 86.050781 24.210938 L 85.988281 24.261719 L 85.925781 24.316406 L 85.808594 24.433594 L 85.699219 24.558594 L 85.648438 24.625 L 85.554688 24.765625 L 85.511719 24.835938 L 85.433594 24.984375 L 85.398438 25.0625 L 85.367188 25.140625 L 85.339844 25.21875 L 85.292969 25.382812 L 85.273438 25.46875 L 85.257812 25.554688 L 85.246094 25.640625 L 85.246094 35.648438 L 85.257812 35.726562 L 85.273438 35.8125 L 85.292969 35.898438 L 85.3125 35.980469 L 85.367188 36.144531 L 85.402344 36.222656 L 85.4375 36.296875 L 85.472656 36.375 L 85.515625 36.449219 L 85.601562 36.589844 L 85.703125 36.722656 L 85.757812 36.789062 L 85.8125 36.851562 L 85.929688 36.96875 L 85.992188 37.023438 L 86.125 37.125 L 86.191406 37.171875 L 86.261719 37.21875 L 86.335938 37.261719 L 86.40625 37.300781 L 86.5625 37.371094 L 86.640625 37.402344 L 86.71875 37.429688 L 86.882812 37.476562 L 86.964844 37.496094 L 87.050781 37.511719 L 87.136719 37.523438 L 87.222656 37.53125 L 87.3125 37.535156 L 87.488281 37.535156 L 87.574219 37.53125 L 87.65625 37.523438 L 87.738281 37.511719 L 87.820312 37.496094 L 87.898438 37.476562 L 87.980469 37.457031 L 88.054688 37.433594 L 88.132812 37.410156 L 88.28125 37.347656 L 88.351562 37.316406 L 88.492188 37.238281 L 88.558594 37.199219 L 88.625 37.152344 L 88.691406 37.109375 L 88.753906 37.058594 L 88.871094 36.957031 L 88.929688 36.902344 L 88.984375 36.84375 L 89.085938 36.726562 L 89.136719 36.664062 L 89.179688 36.597656 L 89.226562 36.535156 L 89.265625 36.464844 L 89.304688 36.398438 L 89.34375 36.324219 L 89.375 36.253906 L 89.4375 36.105469 L 89.484375 35.949219 L 89.523438 35.792969 L 89.539062 35.710938 L 89.546875 35.628906 L 89.558594 35.546875 L 89.5625 35.460938 L 89.5625 25.914062 L 89.554688 25.734375 L 89.546875 25.648438 L 89.535156 25.5625 L 89.519531 25.476562 L 89.5 25.394531 L 89.476562 25.308594 L 89.449219 25.230469 L 89.421875 25.148438 L 89.390625 25.070312 L 89.355469 24.992188 L 89.320312 24.917969 L 89.277344 24.84375 L 89.238281 24.773438 L 89.191406 24.703125 L 89.144531 24.636719 L 89.09375 24.570312 L 89.039062 24.503906 L 88.984375 24.441406 L 88.867188 24.324219 L 88.804688 24.269531 L 88.742188 24.21875 L 88.675781 24.167969 L 88.605469 24.117188 L 88.464844 24.03125 L 88.390625 23.988281 L 88.316406 23.953125 L 88.238281 23.917969 L 88.160156 23.886719 L 88.082031 23.859375 L 88 23.832031 L 87.917969 23.8125 L 87.832031 23.792969 L 87.75 23.777344 L 87.664062 23.765625 L 87.574219 23.753906 L 87.488281 23.75 L 87.398438 23.746094 Z M 73.21875 13.714844 L 72.800781 13.757812 L 72.386719 13.816406 L 71.980469 13.890625 L 71.582031 13.984375 L 71.1875 14.089844 L 70.796875 14.210938 L 70.414062 14.34375 L 70.039062 14.496094 L 69.671875 14.660156 L 69.3125 14.839844 L 68.960938 15.03125 L 68.617188 15.234375 L 68.285156 15.449219 L 67.957031 15.679688 L 67.640625 15.921875 L 67.335938 16.175781 L 67.039062 16.4375 L 66.753906 16.714844 L 66.476562 17 L 66.214844 17.296875 L 65.960938 17.605469 L 65.71875 17.917969 L 65.492188 18.246094 L 65.273438 18.582031 L 65.070312 18.925781 L 64.878906 19.277344 L 64.699219 19.636719 L 64.535156 20.003906 L 64.386719 20.378906 L 64.25 20.761719 L 64.128906 21.148438 L 64.109375 21.222656 L 84.007812 21.222656 L 83.988281 21.152344 L 83.867188 20.761719 L 83.730469 20.382812 L 83.582031 20.007812 L 83.417969 19.640625 L 83.242188 19.28125 L 83.050781 18.929688 L 82.847656 18.585938 L 82.628906 18.25 L 82.402344 17.925781 L 82.160156 17.609375 L 81.90625 17.304688 L 81.644531 17.007812 L 81.367188 16.71875 L 81.082031 16.445312 L 80.789062 16.179688 L 80.480469 15.925781 L 80.167969 15.6875 L 79.839844 15.457031 L 79.507812 15.238281 L 79.164062 15.035156 L 78.8125 14.84375 L 78.453125 14.664062 L 78.085938 14.5 L 77.710938 14.351562 L 77.332031 14.214844 L 76.941406 14.09375 L 76.546875 13.984375 L 76.148438 13.894531 L 75.742188 13.820312 L 75.332031 13.757812 L 74.914062 13.714844 L 74.492188 13.6875 L 74.066406 13.679688 L 73.640625 13.6875 Z M 78.015625 17.558594 L 78.066406 17.558594 L 78.078125 17.5625 L 78.101562 17.5625 L 78.113281 17.566406 L 78.125 17.566406 L 78.136719 17.570312 L 78.152344 17.570312 L 78.164062 17.578125 L 78.179688 17.582031 L 78.203125 17.597656 L 78.21875 17.601562 L 78.242188 17.617188 L 78.257812 17.625 L 78.328125 17.671875 L 78.339844 17.683594 L 78.375 17.707031 L 78.382812 17.71875 L 78.394531 17.726562 L 78.40625 17.738281 L 78.417969 17.746094 L 78.457031 17.789062 L 78.527344 17.882812 L 78.558594 17.933594 L 78.582031 17.988281 L 78.605469 18.039062 L 78.625 18.09375 L 78.648438 18.210938 L 78.65625 18.269531 L 78.65625 18.386719 L 78.648438 18.445312 L 78.636719 18.5 L 78.625 18.558594 L 78.605469 18.613281 L 78.582031 18.664062 L 78.554688 18.71875 L 78.527344 18.765625 L 78.492188 18.816406 L 78.457031 18.859375 L 78.417969 18.902344 L 78.375 18.945312 L 78.351562 18.964844 L 78.328125 18.980469 L 78.304688 19 L 78.28125 19.015625 L 78.253906 19.03125 L 78.230469 19.046875 L 78.175781 19.070312 L 78.152344 19.082031 L 78.125 19.09375 L 78.101562 19.105469 L 78.074219 19.113281 L 78.046875 19.125 L 77.992188 19.140625 L 77.964844 19.144531 L 77.941406 19.152344 L 77.914062 19.15625 L 77.882812 19.160156 L 77.84375 19.160156 L 77.828125 19.164062 L 77.726562 19.164062 L 77.710938 19.160156 L 77.699219 19.160156 L 77.667969 19.152344 L 77.652344 19.152344 L 77.640625 19.148438 L 77.625 19.144531 L 77.613281 19.140625 L 77.597656 19.132812 L 77.582031 19.128906 L 77.570312 19.125 L 77.554688 19.121094 L 77.542969 19.117188 L 77.527344 19.109375 L 77.515625 19.101562 L 77.503906 19.097656 L 77.488281 19.089844 L 77.464844 19.074219 L 77.453125 19.070312 L 77.441406 19.0625 L 77.425781 19.054688 L 77.402344 19.039062 L 77.390625 19.027344 L 77.34375 18.996094 L 77.332031 18.984375 L 77.320312 18.976562 L 77.308594 18.964844 L 77.296875 18.957031 L 77.289062 18.945312 L 77.277344 18.9375 L 77.238281 18.890625 L 77.21875 18.871094 L 77.203125 18.847656 L 77.183594 18.824219 L 77.167969 18.800781 L 77.152344 18.773438 L 77.140625 18.75 L 77.125 18.722656 L 77.113281 18.695312 L 77.101562 18.671875 L 77.089844 18.644531 L 77.082031 18.617188 L 77.070312 18.589844 L 77.066406 18.558594 L 77.050781 18.503906 L 77.046875 18.476562 L 77.042969 18.445312 L 77.042969 18.417969 L 77.039062 18.386719 L 77.039062 18.359375 L 77.046875 18.242188 L 77.058594 18.183594 L 77.070312 18.128906 L 77.089844 18.074219 L 77.113281 18.019531 L 77.136719 17.96875 L 77.167969 17.917969 L 77.199219 17.871094 L 77.238281 17.824219 L 77.277344 17.78125 L 77.332031 17.730469 L 77.390625 17.6875 L 77.453125 17.648438 L 77.515625 17.613281 L 77.585938 17.589844 L 77.652344 17.566406 L 77.722656 17.550781 L 77.871094 17.542969 L 77.941406 17.546875 Z M 70.429688 17.558594 L 70.445312 17.5625 L 70.457031 17.566406 L 70.472656 17.566406 L 70.496094 17.574219 L 70.511719 17.578125 L 70.546875 17.589844 L 70.5625 17.59375 L 70.574219 17.597656 L 70.585938 17.605469 L 70.609375 17.613281 L 70.625 17.621094 L 70.636719 17.625 L 70.648438 17.632812 L 70.65625 17.640625 L 70.667969 17.644531 L 70.726562 17.683594 L 70.738281 17.6875 L 70.75 17.695312 L 70.757812 17.703125 L 70.792969 17.726562 L 70.820312 17.753906 L 70.84375 17.769531 L 70.851562 17.78125 L 70.890625 17.820312 L 70.921875 17.859375 L 70.953125 17.90625 L 70.980469 17.949219 L 71.007812 17.996094 L 71.046875 18.097656 L 71.0625 18.148438 L 71.074219 18.199219 L 71.082031 18.253906 L 71.085938 18.304688 L 71.089844 18.359375 L 71.085938 18.441406 L 71.074219 18.523438 L 71.054688 18.597656 L 71.027344 18.675781 L 70.992188 18.746094 L 70.953125 18.8125 L 70.90625 18.878906 L 70.851562 18.9375 L 70.792969 18.988281 L 70.730469 19.039062 L 70.660156 19.082031 L 70.585938 19.117188 L 70.5625 19.125 L 70.535156 19.132812 L 70.511719 19.136719 L 70.484375 19.144531 L 70.429688 19.152344 L 70.40625 19.15625 L 70.378906 19.160156 L 70.257812 19.160156 L 70.246094 19.164062 L 70.140625 19.164062 L 70.125 19.160156 L 70.113281 19.160156 L 70.101562 19.15625 L 70.085938 19.15625 L 70.050781 19.144531 L 70.035156 19.140625 L 70 19.128906 L 69.984375 19.125 L 69.960938 19.117188 L 69.949219 19.109375 L 69.9375 19.105469 L 69.925781 19.097656 L 69.914062 19.09375 L 69.898438 19.085938 L 69.886719 19.082031 L 69.851562 19.058594 L 69.839844 19.054688 L 69.828125 19.046875 L 69.820312 19.039062 L 69.773438 19.007812 L 69.746094 18.980469 L 69.722656 18.964844 L 69.714844 18.953125 L 69.707031 18.945312 L 69.695312 18.9375 L 69.675781 18.917969 L 69.660156 18.898438 L 69.640625 18.875 L 69.625 18.855469 L 69.609375 18.832031 L 69.59375 18.8125 L 69.578125 18.789062 L 69.566406 18.765625 L 69.550781 18.742188 L 69.515625 18.671875 L 69.507812 18.644531 L 69.496094 18.621094 L 69.488281 18.59375 L 69.480469 18.570312 L 69.476562 18.542969 L 69.46875 18.519531 L 69.460938 18.464844 L 69.460938 18.441406 L 69.457031 18.414062 L 69.457031 18.386719 L 69.453125 18.359375 L 69.460938 18.25 L 69.484375 18.148438 L 69.5 18.09375 L 69.519531 18.046875 L 69.539062 17.996094 L 69.566406 17.949219 L 69.59375 17.90625 L 69.625 17.859375 L 69.695312 17.78125 L 69.746094 17.734375 L 69.855469 17.65625 L 69.914062 17.625 L 69.972656 17.597656 L 70.035156 17.578125 L 70.101562 17.5625 L 70.164062 17.550781 L 70.230469 17.542969 L 70.296875 17.542969 Z M 70.429688 17.558594 " clip-rule="nonzero"/></clipPath><linearGradient x1="250" gradientTransform="matrix(0.0849546, 0, 0, 0.0849606, 52.827754, 9.402356)" y1="9.310031" x2="250" gradientUnits="userSpaceOnUse" y2="490.380015" id="86eb47b2c5"><stop stop-opacity="1" stop-color="rgb(17.298889%, 92.498779%, 100%)" offset="0"/><stop stop-opacity="1" stop-color="rgb(17.611694%, 92.3172%, 100%)" offset="0.00390625"/><stop stop-opacity="1" stop-color="rgb(17.926025%, 92.13562%, 100%)" offset="0.0078125"/><stop stop-opacity="1" stop-color="rgb(18.240356%, 91.952515%, 100%)" offset="0.0117188"/><stop stop-opacity="1" stop-color="rgb(18.554688%, 91.770935%, 100%)" offset="0.015625"/><stop stop-opacity="1" stop-color="rgb(18.867493%, 91.589355%, 100%)" offset="0.0195313"/><stop stop-opacity="1" stop-color="rgb(19.181824%, 91.407776%, 100%)" offset="0.0234375"/><stop stop-opacity="1" stop-color="rgb(19.494629%, 91.22467%, 100%)" offset="0.0273438"/><stop stop-opacity="1" stop-color="rgb(19.80896%, 91.043091%, 100%)" offset="0.03125"/><stop stop-opacity="1" stop-color="rgb(20.121765%, 90.859985%, 100%)" offset="0.0351562"/><stop stop-opacity="1" stop-color="rgb(20.436096%, 90.678406%, 100%)" offset="0.0390625"/><stop stop-opacity="1" stop-color="rgb(20.748901%, 90.496826%, 100%)" offset="0.0429688"/><stop stop-opacity="1" stop-color="rgb(21.063232%, 90.315247%, 100%)" offset="0.046875"/><stop stop-opacity="1" stop-color="rgb(21.376038%, 90.132141%, 100%)" offset="0.0507813"/><stop stop-opacity="1" stop-color="rgb(21.690369%, 89.950562%, 100%)" offset="0.0546875"/><stop stop-opacity="1" stop-color="rgb(22.003174%, 89.768982%, 100%)" offset="0.0585938"/><stop stop-opacity="1" stop-color="rgb(22.317505%, 89.587402%, 100%)" offset="0.0625"/><stop stop-opacity="1" stop-color="rgb(22.63031%, 89.404297%, 100%)" offset="0.0664062"/><stop stop-opacity="1" stop-color="rgb(22.944641%, 89.222717%, 100%)" offset="0.0703125"/><stop stop-opacity="1" stop-color="rgb(23.258972%, 89.039612%, 100%)" offset="0.0742188"/><stop stop-opacity="1" stop-color="rgb(23.573303%, 88.858032%, 100%)" offset="0.078125"/><stop stop-opacity="1" stop-color="rgb(23.886108%, 88.676453%, 100%)" offset="0.0820313"/><stop stop-opacity="1" stop-color="rgb(24.200439%, 88.494873%, 100%)" offset="0.0859375"/><stop stop-opacity="1" stop-color="rgb(24.513245%, 88.311768%, 100%)" offset="0.0898438"/><stop stop-opacity="1" stop-color="rgb(24.827576%, 88.130188%, 100%)" offset="0.09375"/><stop stop-opacity="1" stop-color="rgb(25.140381%, 87.948608%, 100%)" offset="0.0976562"/><stop stop-opacity="1" stop-color="rgb(25.454712%, 87.767029%, 100%)" offset="0.101562"/><stop stop-opacity="1" stop-color="rgb(25.767517%, 87.583923%, 100%)" offset="0.105469"/><stop stop-opacity="1" stop-color="rgb(26.081848%, 87.402344%, 100%)" offset="0.109375"/><stop stop-opacity="1" stop-color="rgb(26.394653%, 87.219238%, 100%)" offset="0.113281"/><stop stop-opacity="1" stop-color="rgb(26.708984%, 87.037659%, 100%)" offset="0.117188"/><stop stop-opacity="1" stop-color="rgb(27.02179%, 86.856079%, 100%)" offset="0.121094"/><stop stop-opacity="1" stop-color="rgb(27.336121%, 86.6745%, 100%)" offset="0.125"/><stop stop-opacity="1" stop-color="rgb(27.650452%, 86.491394%, 100%)" offset="0.128906"/><stop stop-opacity="1" stop-color="rgb(27.964783%, 86.309814%, 100%)" offset="0.132813"/><stop stop-opacity="1" stop-color="rgb(28.277588%, 86.128235%, 100%)" offset="0.136719"/><stop stop-opacity="1" stop-color="rgb(28.591919%, 85.946655%, 100%)" offset="0.140625"/><stop stop-opacity="1" stop-color="rgb(28.904724%, 85.76355%, 100%)" offset="0.144531"/><stop stop-opacity="1" stop-color="rgb(29.219055%, 85.58197%, 100%)" offset="0.148438"/><stop stop-opacity="1" stop-color="rgb(29.53186%, 85.398865%, 100%)" offset="0.152344"/><stop stop-opacity="1" stop-color="rgb(29.846191%, 85.217285%, 100%)" offset="0.15625"/><stop stop-opacity="1" stop-color="rgb(30.158997%, 85.035706%, 100%)" offset="0.160156"/><stop stop-opacity="1" stop-color="rgb(30.473328%, 84.854126%, 100%)" offset="0.164063"/><stop stop-opacity="1" stop-color="rgb(30.786133%, 84.671021%, 100%)" offset="0.167969"/><stop stop-opacity="1" stop-color="rgb(31.100464%, 84.489441%, 100%)" offset="0.171875"/><stop stop-opacity="1" stop-color="rgb(31.413269%, 84.307861%, 100%)" offset="0.175781"/><stop stop-opacity="1" stop-color="rgb(31.7276%, 84.126282%, 100%)" offset="0.179688"/><stop stop-opacity="1" stop-color="rgb(32.040405%, 83.943176%, 100%)" offset="0.183594"/><stop stop-opacity="1" stop-color="rgb(32.354736%, 83.761597%, 100%)" offset="0.1875"/><stop stop-opacity="1" stop-color="rgb(32.669067%, 83.578491%, 100%)" offset="0.191406"/><stop stop-opacity="1" stop-color="rgb(32.983398%, 83.396912%, 100%)" offset="0.195313"/><stop stop-opacity="1" stop-color="rgb(33.296204%, 83.215332%, 100%)" offset="0.199219"/><stop stop-opacity="1" stop-color="rgb(33.610535%, 83.033752%, 100%)" offset="0.203125"/><stop stop-opacity="1" stop-color="rgb(33.92334%, 82.850647%, 100%)" offset="0.207031"/><stop stop-opacity="1" stop-color="rgb(34.237671%, 82.669067%, 100%)" offset="0.210938"/><stop stop-opacity="1" stop-color="rgb(34.550476%, 82.487488%, 100%)" offset="0.214844"/><stop stop-opacity="1" stop-color="rgb(34.864807%, 82.305908%, 100%)" offset="0.21875"/><stop stop-opacity="1" stop-color="rgb(35.177612%, 82.122803%, 100%)" offset="0.222656"/><stop stop-opacity="1" stop-color="rgb(35.491943%, 81.941223%, 100%)" offset="0.226563"/><stop stop-opacity="1" stop-color="rgb(35.804749%, 81.759644%, 100%)" offset="0.230469"/><stop stop-opacity="1" stop-color="rgb(36.11908%, 81.578064%, 100%)" offset="0.234375"/><stop stop-opacity="1" stop-color="rgb(36.431885%, 81.394958%, 100%)" offset="0.238281"/><stop stop-opacity="1" stop-color="rgb(36.746216%, 81.213379%, 100%)" offset="0.242188"/><stop stop-opacity="1" stop-color="rgb(37.060547%, 81.030273%, 100%)" offset="0.246094"/><stop stop-opacity="1" stop-color="rgb(37.374878%, 80.848694%, 100%)" offset="0.25"/><stop stop-opacity="1" stop-color="rgb(37.687683%, 80.667114%, 100%)" offset="0.253906"/><stop stop-opacity="1" stop-color="rgb(38.002014%, 80.485535%, 100%)" offset="0.257812"/><stop stop-opacity="1" stop-color="rgb(38.314819%, 80.302429%, 100%)" offset="0.261719"/><stop stop-opacity="1" stop-color="rgb(38.62915%, 80.12085%, 100%)" offset="0.265625"/><stop stop-opacity="1" stop-color="rgb(38.941956%, 79.93927%, 100%)" offset="0.269531"/><stop stop-opacity="1" stop-color="rgb(39.256287%, 79.75769%, 100%)" offset="0.273438"/><stop stop-opacity="1" stop-color="rgb(39.569092%, 79.574585%, 100%)" offset="0.277344"/><stop stop-opacity="1" stop-color="rgb(39.883423%, 79.393005%, 100%)" offset="0.28125"/><stop stop-opacity="1" stop-color="rgb(40.196228%, 79.2099%, 100%)" offset="0.285156"/><stop stop-opacity="1" stop-color="rgb(40.510559%, 79.02832%, 100%)" offset="0.289062"/><stop stop-opacity="1" stop-color="rgb(40.823364%, 78.846741%, 100%)" offset="0.292969"/><stop stop-opacity="1" stop-color="rgb(41.137695%, 78.665161%, 100%)" offset="0.296875"/><stop stop-opacity="1" stop-color="rgb(41.452026%, 78.482056%, 100%)" offset="0.300781"/><stop stop-opacity="1" stop-color="rgb(41.766357%, 78.300476%, 100%)" offset="0.304688"/><stop stop-opacity="1" stop-color="rgb(42.079163%, 78.118896%, 100%)" offset="0.308594"/><stop stop-opacity="1" stop-color="rgb(42.393494%, 77.937317%, 100%)" offset="0.3125"/><stop stop-opacity="1" stop-color="rgb(42.706299%, 77.754211%, 100%)" offset="0.316406"/><stop stop-opacity="1" stop-color="rgb(43.02063%, 77.572632%, 100%)" offset="0.320313"/><stop stop-opacity="1" stop-color="rgb(43.333435%, 77.389526%, 100%)" offset="0.324219"/><stop stop-opacity="1" stop-color="rgb(43.647766%, 77.207947%, 100%)" offset="0.328125"/><stop stop-opacity="1" stop-color="rgb(43.960571%, 77.026367%, 100%)" offset="0.332031"/><stop stop-opacity="1" stop-color="rgb(44.274902%, 76.844788%, 100%)" offset="0.335938"/><stop stop-opacity="1" stop-color="rgb(44.587708%, 76.661682%, 100%)" offset="0.339844"/><stop stop-opacity="1" stop-color="rgb(44.902039%, 76.480103%, 100%)" offset="0.34375"/><stop stop-opacity="1" stop-color="rgb(45.214844%, 76.298523%, 100%)" offset="0.347656"/><stop stop-opacity="1" stop-color="rgb(45.529175%, 76.116943%, 100%)" offset="0.351563"/><stop stop-opacity="1" stop-color="rgb(45.84198%, 75.933838%, 100%)" offset="0.355469"/><stop stop-opacity="1" stop-color="rgb(46.156311%, 75.752258%, 100%)" offset="0.359375"/><stop stop-opacity="1" stop-color="rgb(46.470642%, 75.569153%, 100%)" offset="0.363281"/><stop stop-opacity="1" stop-color="rgb(46.784973%, 75.387573%, 100%)" offset="0.367188"/><stop stop-opacity="1" stop-color="rgb(47.097778%, 75.205994%, 100%)" offset="0.371094"/><stop stop-opacity="1" stop-color="rgb(47.412109%, 75.024414%, 100%)" offset="0.375"/><stop stop-opacity="1" stop-color="rgb(47.724915%, 74.841309%, 100%)" offset="0.378906"/><stop stop-opacity="1" stop-color="rgb(48.039246%, 74.659729%, 100%)" offset="0.382813"/><stop stop-opacity="1" stop-color="rgb(48.352051%, 74.478149%, 100%)" offset="0.386719"/><stop stop-opacity="1" stop-color="rgb(48.666382%, 74.29657%, 100%)" offset="0.390625"/><stop stop-opacity="1" stop-color="rgb(48.979187%, 74.113464%, 100%)" offset="0.394531"/><stop stop-opacity="1" stop-color="rgb(49.293518%, 73.931885%, 100%)" offset="0.398438"/><stop stop-opacity="1" stop-color="rgb(49.606323%, 73.750305%, 100%)" offset="0.402344"/><stop stop-opacity="1" stop-color="rgb(49.920654%, 73.568726%, 100%)" offset="0.40625"/><stop stop-opacity="1" stop-color="rgb(50.233459%, 73.38562%, 100%)" offset="0.410156"/><stop stop-opacity="1" stop-color="rgb(50.547791%, 73.204041%, 100%)" offset="0.414063"/><stop stop-opacity="1" stop-color="rgb(50.862122%, 73.020935%, 100%)" offset="0.417969"/><stop stop-opacity="1" stop-color="rgb(51.176453%, 72.839355%, 100%)" offset="0.421875"/><stop stop-opacity="1" stop-color="rgb(51.489258%, 72.657776%, 100%)" offset="0.425781"/><stop stop-opacity="1" stop-color="rgb(51.803589%, 72.476196%, 100%)" offset="0.429688"/><stop stop-opacity="1" stop-color="rgb(52.116394%, 72.293091%, 100%)" offset="0.433594"/><stop stop-opacity="1" stop-color="rgb(52.430725%, 72.111511%, 100%)" offset="0.4375"/><stop stop-opacity="1" stop-color="rgb(52.74353%, 71.929932%, 100%)" offset="0.441406"/><stop stop-opacity="1" stop-color="rgb(53.057861%, 71.748352%, 100%)" offset="0.445312"/><stop stop-opacity="1" stop-color="rgb(53.370667%, 71.565247%, 100%)" offset="0.449219"/><stop stop-opacity="1" stop-color="rgb(53.684998%, 71.383667%, 100%)" offset="0.453125"/><stop stop-opacity="1" stop-color="rgb(53.997803%, 71.200562%, 100%)" offset="0.457031"/><stop stop-opacity="1" stop-color="rgb(54.312134%, 71.018982%, 100%)" offset="0.460938"/><stop stop-opacity="1" stop-color="rgb(54.624939%, 70.837402%, 100%)" offset="0.464844"/><stop stop-opacity="1" stop-color="rgb(54.93927%, 70.655823%, 100%)" offset="0.46875"/><stop stop-opacity="1" stop-color="rgb(55.253601%, 70.472717%, 100%)" offset="0.472656"/><stop stop-opacity="1" stop-color="rgb(55.567932%, 70.291138%, 100%)" offset="0.476563"/><stop stop-opacity="1" stop-color="rgb(55.880737%, 70.109558%, 100%)" offset="0.480469"/><stop stop-opacity="1" stop-color="rgb(56.195068%, 69.927979%, 100%)" offset="0.484375"/><stop stop-opacity="1" stop-color="rgb(56.507874%, 69.744873%, 100%)" offset="0.488281"/><stop stop-opacity="1" stop-color="rgb(56.822205%, 69.563293%, 100%)" offset="0.492188"/><stop stop-opacity="1" stop-color="rgb(57.13501%, 69.380188%, 100%)" offset="0.496094"/><stop stop-opacity="1" stop-color="rgb(57.449341%, 69.198608%, 100%)" offset="0.5"/><stop stop-opacity="1" stop-color="rgb(57.762146%, 69.017029%, 100%)" offset="0.503906"/><stop stop-opacity="1" stop-color="rgb(58.076477%, 68.835449%, 100%)" offset="0.507812"/><stop stop-opacity="1" stop-color="rgb(58.389282%, 68.652344%, 100%)" offset="0.511719"/><stop stop-opacity="1" stop-color="rgb(58.703613%, 68.470764%, 100%)" offset="0.515625"/><stop stop-opacity="1" stop-color="rgb(59.016418%, 68.289185%, 100%)" offset="0.519531"/><stop stop-opacity="1" stop-color="rgb(59.33075%, 68.107605%, 100%)" offset="0.523437"/><stop stop-opacity="1" stop-color="rgb(59.643555%, 67.9245%, 100%)" offset="0.527344"/><stop stop-opacity="1" stop-color="rgb(59.957886%, 67.74292%, 100%)" offset="0.53125"/><stop stop-opacity="1" stop-color="rgb(60.272217%, 67.559814%, 100%)" offset="0.535156"/><stop stop-opacity="1" stop-color="rgb(60.586548%, 67.378235%, 100%)" offset="0.539062"/><stop stop-opacity="1" stop-color="rgb(60.899353%, 67.196655%, 100%)" offset="0.542969"/><stop stop-opacity="1" stop-color="rgb(61.213684%, 67.015076%, 100%)" offset="0.546875"/><stop stop-opacity="1" stop-color="rgb(61.526489%, 66.83197%, 100%)" offset="0.550781"/><stop stop-opacity="1" stop-color="rgb(61.84082%, 66.650391%, 100%)" offset="0.554687"/><stop stop-opacity="1" stop-color="rgb(62.153625%, 66.468811%, 100%)" offset="0.558594"/><stop stop-opacity="1" stop-color="rgb(62.467957%, 66.287231%, 100%)" offset="0.5625"/><stop stop-opacity="1" stop-color="rgb(62.780762%, 66.104126%, 100%)" offset="0.566406"/><stop stop-opacity="1" stop-color="rgb(63.095093%, 65.922546%, 100%)" offset="0.570312"/><stop stop-opacity="1" stop-color="rgb(63.407898%, 65.739441%, 100%)" offset="0.574219"/><stop stop-opacity="1" stop-color="rgb(63.722229%, 65.557861%, 100%)" offset="0.578125"/><stop stop-opacity="1" stop-color="rgb(64.035034%, 65.376282%, 100%)" offset="0.582031"/><stop stop-opacity="1" stop-color="rgb(64.349365%, 65.194702%, 100%)" offset="0.585938"/><stop stop-opacity="1" stop-color="rgb(64.663696%, 65.011597%, 100%)" offset="0.589844"/><stop stop-opacity="1" stop-color="rgb(64.978027%, 64.830017%, 100%)" offset="0.59375"/><stop stop-opacity="1" stop-color="rgb(65.290833%, 64.648438%, 100%)" offset="0.597656"/><stop stop-opacity="1" stop-color="rgb(65.605164%, 64.466858%, 100%)" offset="0.601562"/><stop stop-opacity="1" stop-color="rgb(65.917969%, 64.283752%, 100%)" offset="0.605469"/><stop stop-opacity="1" stop-color="rgb(66.2323%, 64.102173%, 100%)" offset="0.609375"/><stop stop-opacity="1" stop-color="rgb(66.545105%, 63.920593%, 100%)" offset="0.613281"/><stop stop-opacity="1" stop-color="rgb(66.859436%, 63.739014%, 100%)" offset="0.617188"/><stop stop-opacity="1" stop-color="rgb(67.172241%, 63.555908%, 100%)" offset="0.621094"/><stop stop-opacity="1" stop-color="rgb(67.486572%, 63.374329%, 100%)" offset="0.625"/><stop stop-opacity="1" stop-color="rgb(67.799377%, 63.191223%, 100%)" offset="0.628906"/><stop stop-opacity="1" stop-color="rgb(68.113708%, 63.009644%, 100%)" offset="0.632812"/><stop stop-opacity="1" stop-color="rgb(68.426514%, 62.828064%, 100%)" offset="0.636719"/><stop stop-opacity="1" stop-color="rgb(68.740845%, 62.646484%, 100%)" offset="0.640625"/><stop stop-opacity="1" stop-color="rgb(69.055176%, 62.463379%, 100%)" offset="0.644531"/><stop stop-opacity="1" stop-color="rgb(69.369507%, 62.281799%, 100%)" offset="0.648438"/><stop stop-opacity="1" stop-color="rgb(69.682312%, 62.10022%, 100%)" offset="0.652344"/><stop stop-opacity="1" stop-color="rgb(69.996643%, 61.91864%, 100%)" offset="0.65625"/><stop stop-opacity="1" stop-color="rgb(70.309448%, 61.735535%, 100%)" offset="0.660156"/><stop stop-opacity="1" stop-color="rgb(70.623779%, 61.553955%, 100%)" offset="0.664062"/><stop stop-opacity="1" stop-color="rgb(70.936584%, 61.37085%, 100%)" offset="0.667969"/><stop stop-opacity="1" stop-color="rgb(71.250916%, 61.18927%, 100%)" offset="0.671875"/><stop stop-opacity="1" stop-color="rgb(71.563721%, 61.00769%, 100%)" offset="0.675781"/><stop stop-opacity="1" stop-color="rgb(71.878052%, 60.826111%, 100%)" offset="0.679688"/><stop stop-opacity="1" stop-color="rgb(72.190857%, 60.643005%, 100%)" offset="0.683594"/><stop stop-opacity="1" stop-color="rgb(72.505188%, 60.461426%, 100%)" offset="0.6875"/><stop stop-opacity="1" stop-color="rgb(72.817993%, 60.279846%, 100%)" offset="0.691406"/><stop stop-opacity="1" stop-color="rgb(73.132324%, 60.098267%, 100%)" offset="0.695312"/><stop stop-opacity="1" stop-color="rgb(73.445129%, 59.915161%, 100%)" offset="0.699219"/><stop stop-opacity="1" stop-color="rgb(73.75946%, 59.733582%, 100%)" offset="0.703125"/><stop stop-opacity="1" stop-color="rgb(74.073792%, 59.550476%, 100%)" offset="0.707031"/><stop stop-opacity="1" stop-color="rgb(74.388123%, 59.368896%, 100%)" offset="0.710938"/><stop stop-opacity="1" stop-color="rgb(74.700928%, 59.187317%, 100%)" offset="0.714844"/><stop stop-opacity="1" stop-color="rgb(75.015259%, 59.005737%, 100%)" offset="0.71875"/><stop stop-opacity="1" stop-color="rgb(75.328064%, 58.822632%, 100%)" offset="0.722656"/><stop stop-opacity="1" stop-color="rgb(75.642395%, 58.641052%, 100%)" offset="0.726562"/><stop stop-opacity="1" stop-color="rgb(75.9552%, 58.459473%, 100%)" offset="0.730469"/><stop stop-opacity="1" stop-color="rgb(76.269531%, 58.277893%, 100%)" offset="0.734375"/><stop stop-opacity="1" stop-color="rgb(76.582336%, 58.094788%, 100%)" offset="0.738281"/><stop stop-opacity="1" stop-color="rgb(76.896667%, 57.913208%, 100%)" offset="0.742188"/><stop stop-opacity="1" stop-color="rgb(77.209473%, 57.730103%, 100%)" offset="0.746094"/><stop stop-opacity="1" stop-color="rgb(77.523804%, 57.548523%, 100%)" offset="0.75"/><stop stop-opacity="1" stop-color="rgb(77.836609%, 57.366943%, 100%)" offset="0.753906"/><stop stop-opacity="1" stop-color="rgb(78.15094%, 57.185364%, 100%)" offset="0.757813"/><stop stop-opacity="1" stop-color="rgb(78.465271%, 57.002258%, 100%)" offset="0.761719"/><stop stop-opacity="1" stop-color="rgb(78.779602%, 56.820679%, 100%)" offset="0.765625"/><stop stop-opacity="1" stop-color="rgb(79.092407%, 56.639099%, 100%)" offset="0.769531"/><stop stop-opacity="1" stop-color="rgb(79.406738%, 56.45752%, 100%)" offset="0.773438"/><stop stop-opacity="1" stop-color="rgb(79.719543%, 56.274414%, 100%)" offset="0.777344"/><stop stop-opacity="1" stop-color="rgb(80.033875%, 56.092834%, 100%)" offset="0.78125"/><stop stop-opacity="1" stop-color="rgb(80.34668%, 55.911255%, 100%)" offset="0.785156"/><stop stop-opacity="1" stop-color="rgb(80.661011%, 55.729675%, 100%)" offset="0.789063"/><stop stop-opacity="1" stop-color="rgb(80.973816%, 55.54657%, 100%)" offset="0.792969"/><stop stop-opacity="1" stop-color="rgb(81.288147%, 55.36499%, 100%)" offset="0.796875"/><stop stop-opacity="1" stop-color="rgb(81.600952%, 55.181885%, 100%)" offset="0.800781"/><stop stop-opacity="1" stop-color="rgb(81.915283%, 55.000305%, 100%)" offset="0.804688"/><stop stop-opacity="1" stop-color="rgb(82.228088%, 54.818726%, 100%)" offset="0.808594"/><stop stop-opacity="1" stop-color="rgb(82.542419%, 54.637146%, 100%)" offset="0.8125"/><stop stop-opacity="1" stop-color="rgb(82.85675%, 54.454041%, 100%)" offset="0.816406"/><stop stop-opacity="1" stop-color="rgb(83.171082%, 54.272461%, 100%)" offset="0.820313"/><stop stop-opacity="1" stop-color="rgb(83.483887%, 54.090881%, 100%)" offset="0.824219"/><stop stop-opacity="1" stop-color="rgb(83.798218%, 53.909302%, 100%)" offset="0.828125"/><stop stop-opacity="1" stop-color="rgb(84.111023%, 53.726196%, 100%)" offset="0.832031"/><stop stop-opacity="1" stop-color="rgb(84.425354%, 53.544617%, 100%)" offset="0.835938"/><stop stop-opacity="1" stop-color="rgb(84.738159%, 53.361511%, 100%)" offset="0.839844"/><stop stop-opacity="1" stop-color="rgb(85.05249%, 53.179932%, 100%)" offset="0.84375"/><stop stop-opacity="1" stop-color="rgb(85.365295%, 52.998352%, 100%)" offset="0.847656"/><stop stop-opacity="1" stop-color="rgb(85.679626%, 52.816772%, 100%)" offset="0.851563"/><stop stop-opacity="1" stop-color="rgb(85.992432%, 52.633667%, 100%)" offset="0.855469"/><stop stop-opacity="1" stop-color="rgb(86.306763%, 52.452087%, 100%)" offset="0.859375"/><stop stop-opacity="1" stop-color="rgb(86.619568%, 52.270508%, 100%)" offset="0.863281"/><stop stop-opacity="1" stop-color="rgb(86.933899%, 52.088928%, 100%)" offset="0.867188"/><stop stop-opacity="1" stop-color="rgb(87.246704%, 51.905823%, 100%)" offset="0.871094"/><stop stop-opacity="1" stop-color="rgb(87.561035%, 51.724243%, 100%)" offset="0.875"/><stop stop-opacity="1" stop-color="rgb(87.875366%, 51.541138%, 100%)" offset="0.878906"/><stop stop-opacity="1" stop-color="rgb(88.189697%, 51.359558%, 100%)" offset="0.882812"/><stop stop-opacity="1" stop-color="rgb(88.502502%, 51.177979%, 100%)" offset="0.886719"/><stop stop-opacity="1" stop-color="rgb(88.816833%, 50.996399%, 100%)" offset="0.890625"/><stop stop-opacity="1" stop-color="rgb(89.129639%, 50.813293%, 100%)" offset="0.894531"/><stop stop-opacity="1" stop-color="rgb(89.44397%, 50.631714%, 100%)" offset="0.898437"/><stop stop-opacity="1" stop-color="rgb(89.756775%, 50.450134%, 100%)" offset="0.902344"/><stop stop-opacity="1" stop-color="rgb(90.071106%, 50.268555%, 100%)" offset="0.90625"/><stop stop-opacity="1" stop-color="rgb(90.383911%, 50.085449%, 100%)" offset="0.910156"/><stop stop-opacity="1" stop-color="rgb(90.698242%, 49.90387%, 100%)" offset="0.914062"/><stop stop-opacity="1" stop-color="rgb(91.011047%, 49.720764%, 100%)" offset="0.917969"/><stop stop-opacity="1" stop-color="rgb(91.325378%, 49.539185%, 100%)" offset="0.921875"/><stop stop-opacity="1" stop-color="rgb(91.638184%, 49.357605%, 100%)" offset="0.925781"/><stop stop-opacity="1" stop-color="rgb(91.952515%, 49.176025%, 100%)" offset="0.929688"/><stop stop-opacity="1" stop-color="rgb(92.266846%, 48.99292%, 100%)" offset="0.933594"/><stop stop-opacity="1" stop-color="rgb(92.581177%, 48.81134%, 100%)" offset="0.9375"/><stop stop-opacity="1" stop-color="rgb(92.893982%, 48.629761%, 100%)" offset="0.941406"/><stop stop-opacity="1" stop-color="rgb(93.208313%, 48.448181%, 100%)" offset="0.945312"/><stop stop-opacity="1" stop-color="rgb(93.521118%, 48.265076%, 100%)" offset="0.949219"/><stop stop-opacity="1" stop-color="rgb(93.835449%, 48.083496%, 100%)" offset="0.953125"/><stop stop-opacity="1" stop-color="rgb(94.148254%, 47.900391%, 100%)" offset="0.957031"/><stop stop-opacity="1" stop-color="rgb(94.462585%, 47.718811%, 100%)" offset="0.960938"/><stop stop-opacity="1" stop-color="rgb(94.775391%, 47.537231%, 100%)" offset="0.964844"/><stop stop-opacity="1" stop-color="rgb(95.089722%, 47.355652%, 100%)" offset="0.96875"/><stop stop-opacity="1" stop-color="rgb(95.402527%, 47.172546%, 100%)" offset="0.972656"/><stop stop-opacity="1" stop-color="rgb(95.716858%, 46.990967%, 100%)" offset="0.976562"/><stop stop-opacity="1" stop-color="rgb(96.029663%, 46.809387%, 100%)" offset="0.980469"/><stop stop-opacity="1" stop-color="rgb(96.343994%, 46.627808%, 100%)" offset="0.984375"/><stop stop-opacity="1" stop-color="rgb(96.658325%, 46.444702%, 100%)" offset="0.988281"/><stop stop-opacity="1" stop-color="rgb(96.972656%, 46.263123%, 100%)" offset="0.992188"/><stop stop-opacity="1" stop-color="rgb(97.285461%, 46.081543%, 100%)" offset="0.996094"/><stop stop-opacity="1" stop-color="rgb(97.599792%, 45.899963%, 100%)" offset="1"/></linearGradient></defs><g clip-path="url(#285eaa068a)"><path fill="#ffffff" d="M 45.148438 25.628906 L 45.148438 35.597656 C 45.148438 37.003906 44.023438 38.148438 42.636719 38.148438 C 41.25 38.148438 40.132812 37.003906 40.132812 35.597656 L 40.132812 25.628906 C 40.132812 24.222656 41.25 23.082031 42.636719 23.082031 C 44.023438 23.082031 45.148438 24.222656 45.148438 25.628906 Z M 12.351562 23.078125 C 10.964844 23.078125 9.84375 24.222656 9.84375 25.625 L 9.84375 35.59375 C 9.84375 37 10.964844 38.144531 12.351562 38.144531 C 13.742188 38.144531 14.863281 37 14.863281 35.59375 L 14.863281 25.628906 C 14.863281 24.222656 13.742188 23.078125 12.351562 23.078125 Z M 16.375 41.359375 C 16.375 42.445312 17.253906 43.316406 18.335938 43.316406 L 20.574219 43.316406 L 20.574219 48.863281 C 20.574219 50.269531 21.699219 51.410156 23.085938 51.410156 C 24.46875 51.410156 25.59375 50.269531 25.59375 48.863281 L 25.59375 43.316406 L 29.496094 43.316406 L 29.496094 48.863281 C 29.496094 50.269531 30.628906 51.410156 32.011719 51.410156 C 33.398438 51.410156 34.523438 50.269531 34.523438 48.863281 L 34.523438 43.316406 L 36.753906 43.316406 C 37.839844 43.316406 38.71875 42.445312 38.71875 41.363281 L 38.71875 23.15625 L 16.375 23.15625 Z M 38.664062 21.535156 L 16.324219 21.535156 C 16.617188 18.148438 18.917969 15.25 22.203125 13.726562 L 20.136719 10.726562 C 20.015625 10.550781 20.042969 10.316406 20.203125 10.207031 C 20.363281 10.097656 20.59375 10.152344 20.71875 10.328125 L 22.859375 13.441406 C 24.273438 12.886719 25.839844 12.570312 27.496094 12.570312 C 29.152344 12.570312 30.714844 12.886719 32.132812 13.441406 L 34.273438 10.328125 C 34.398438 10.152344 34.628906 10.097656 34.789062 10.207031 C 34.949219 10.316406 34.976562 10.550781 34.855469 10.726562 L 32.792969 13.726562 C 36.074219 15.25 38.375 18.148438 38.664062 21.535156 Z M 24.023438 17.207031 C 24.023438 16.523438 23.46875 15.972656 22.785156 15.972656 C 22.101562 15.972656 21.546875 16.527344 21.546875 17.207031 C 21.546875 17.894531 22.101562 18.445312 22.785156 18.445312 C 23.46875 18.445312 24.023438 17.894531 24.023438 17.207031 Z M 33.597656 17.207031 C 33.597656 16.523438 33.046875 15.972656 32.359375 15.972656 C 31.679688 15.972656 31.128906 16.527344 31.128906 17.207031 C 31.128906 17.894531 31.679688 18.445312 32.359375 18.445312 C 33.046875 18.445312 33.597656 17.894531 33.597656 17.207031 Z M 33.597656 17.207031 " fill-opacity="1" fill-rule="evenodd"/></g><g clip-path="url(#ef72d97f70)"><g clip-path="url(#bb0d1136a7)"><path fill="url(#86eb47b2c5)" d="M 57.753906 10.191406 L 57.753906 51.066406 L 90.378906 51.066406 L 90.378906 10.191406 Z M 57.753906 10.191406 " fill-rule="nonzero"/></g></g></svg>