<svg xmlns="http://www.w3.org/2000/svg" xmlns:xlink="http://www.w3.org/1999/xlink" width="132" zoomAndPan="magnify" viewBox="0 0 98.88 70.499998" height="94" preserveAspectRatio="xMidYMid meet" version="1.0"><defs><clipPath id="63a7e9e2c7"><path d="M 32 7 L 73.800781 7 L 73.800781 62.855469 L 32 62.855469 Z M 32 7 " clip-rule="nonzero"/></clipPath><clipPath id="0cb9b69c51"><path d="M 59 7 L 73.800781 7 L 73.800781 22 L 59 22 Z M 59 7 " clip-rule="nonzero"/></clipPath><clipPath id="33aa8eee3e"><path d="M 25.394531 22 L 52 22 L 52 48 L 25.394531 48 Z M 25.394531 22 " clip-rule="nonzero"/></clipPath><clipPath id="847e6e18c3"><path d="M 25.394531 13 L 61 13 L 61 57 L 25.394531 57 Z M 25.394531 13 " clip-rule="nonzero"/></clipPath></defs><g clip-path="url(#63a7e9e2c7)"><path fill="#ffffff" d="M 59.683594 7.042969 L 36.675781 7.042969 C 34.597656 7.042969 32.894531 8.730469 32.894531 10.789062 L 32.894531 59.0625 C 32.894531 61.125 34.597656 62.8125 36.675781 62.8125 L 70.019531 62.8125 C 72.097656 62.8125 73.800781 61.125 73.800781 59.0625 L 73.800781 21.09375 Z M 59.683594 7.042969 " fill-opacity="1" fill-rule="nonzero"/></g><g clip-path="url(#0cb9b69c51)"><path stroke-linecap="butt" transform="matrix(0.630295, 0, 0, 0.624492, 25.393789, 7.043727)" fill="none" stroke-linejoin="miter" d="M 54.402758 -0.00121475 L 54.402758 22.498332 L 76.800493 22.498332 " stroke="#185abd" stroke-width="1" stroke-opacity="1" stroke-miterlimit="10"/></g><path fill="#41a5ee" d="M 54.828125 28.652344 L 69.011719 28.652344 L 69.011719 30.085938 L 54.828125 30.085938 Z M 54.828125 28.652344 " fill-opacity="1" fill-rule="nonzero"/><path fill="#2b7cd3" d="M 54.828125 32.710938 L 69.011719 32.710938 L 69.011719 34.148438 L 54.828125 34.148438 Z M 54.828125 32.710938 " fill-opacity="1" fill-rule="nonzero"/><path fill="#185abd" d="M 54.828125 36.769531 L 69.011719 36.769531 L 69.011719 38.207031 L 54.828125 38.207031 Z M 54.828125 36.769531 " fill-opacity="1" fill-rule="nonzero"/><path fill="#103f91" d="M 54.828125 40.828125 L 69.011719 40.828125 L 69.011719 42.265625 L 54.828125 42.265625 Z M 54.828125 40.828125 " fill-opacity="1" fill-rule="nonzero"/><g clip-path="url(#33aa8eee3e)"><path fill="#ffffff" d="M 51.804688 24.15625 L 51.804688 45.699219 C 51.804688 45.824219 51.804688 45.949219 51.804688 46.011719 C 51.613281 47.011719 50.730469 47.824219 49.660156 47.824219 L 27.851562 47.824219 C 27.472656 47.824219 27.03125 47.699219 26.71875 47.511719 C 26.589844 47.449219 26.527344 47.386719 26.464844 47.324219 C 26.023438 46.949219 25.707031 46.324219 25.707031 45.699219 L 25.707031 24.15625 C 25.707031 22.96875 26.65625 22.03125 27.851562 22.03125 L 49.597656 22.03125 C 50.730469 22.03125 51.613281 22.84375 51.738281 23.84375 L 51.738281 23.90625 C 51.804688 23.96875 51.804688 24.09375 51.804688 24.15625 Z M 51.804688 24.15625 " fill-opacity="1" fill-rule="nonzero"/></g><g clip-path="url(#847e6e18c3)"><path stroke-linecap="butt" transform="matrix(0.630295, 0, 0, 0.624492, 25.393789, 7.043727)" fill="none" stroke-linejoin="miter" d="M 41.902418 27.40232 L 41.902418 61.899122 C 41.902418 62.099285 41.902418 62.299448 41.902418 62.399529 C 41.598741 64.000831 40.198108 65.301889 38.499995 65.301889 L 3.8994 65.301889 C 3.298243 65.301889 2.597927 65.101727 2.102127 64.801483 C 1.89761 64.701401 1.79845 64.60132 1.69929 64.501238 C 0.998974 63.90075 0.496977 62.899936 0.496977 61.899122 L 0.496977 27.40232 C 0.496977 25.500773 2.002967 23.999553 3.8994 23.999553 L 38.400835 23.999553 C 40.198108 23.999553 41.598741 25.300611 41.797061 26.901913 L 41.797061 27.001994 C 41.902418 27.102076 41.902418 27.302238 41.902418 27.40232 Z M 41.902418 27.40232 " stroke="#185abd" stroke-width="1" stroke-opacity="1" stroke-miterlimit="10"/></g><path fill="#185abd" d="M 33.019531 41.953125 L 29.617188 27.964844 L 32.453125 27.964844 C 32.453125 27.964844 34.40625 37.832031 34.660156 39.203125 L 34.722656 39.203125 C 34.972656 37.769531 35.351562 36.082031 35.792969 34.273438 L 37.304688 27.964844 L 40.269531 27.964844 C 40.269531 27.964844 42.726562 37.644531 42.914062 39.144531 C 43.167969 37.582031 45.058594 27.964844 45.058594 27.964844 L 47.769531 27.964844 L 44.429688 42.015625 L 41.277344 42.015625 C 41.277344 42.015625 38.820312 32.460938 38.628906 30.960938 C 38.378906 32.460938 36.234375 42.015625 36.234375 42.015625 L 33.019531 42.015625 Z M 33.019531 41.953125 " fill-opacity="1" fill-rule="nonzero"/></svg>