<svg xmlns="http://www.w3.org/2000/svg" xmlns:xlink="http://www.w3.org/1999/xlink" width="132" zoomAndPan="magnify" viewBox="0 0 98.88 70.499998" height="94" preserveAspectRatio="xMidYMid meet" version="1.0"><defs><clipPath id="148efcaf84"><path d="M 32 7 L 73.730469 7 L 73.730469 62.855469 L 32 62.855469 Z M 32 7 " clip-rule="nonzero"/></clipPath><clipPath id="42ef1ed15e"><path d="M 59 7 L 73.730469 7 L 73.730469 22 L 59 22 Z M 59 7 " clip-rule="nonzero"/></clipPath><clipPath id="9be23533e9"><path d="M 25.324219 22 L 52 22 L 52 48 L 25.324219 48 Z M 25.324219 22 " clip-rule="nonzero"/></clipPath><clipPath id="a74a34ae94"><path d="M 25.324219 13 L 61 13 L 61 57 L 25.324219 57 Z M 25.324219 13 " clip-rule="nonzero"/></clipPath></defs><g clip-path="url(#148efcaf84)"><path fill="#ffffff" d="M 59.648438 7.027344 L 36.703125 7.027344 C 34.628906 7.027344 32.929688 8.714844 32.929688 10.777344 L 32.929688 59.078125 C 32.929688 61.140625 34.628906 62.824219 36.703125 62.824219 L 69.957031 62.824219 C 72.03125 62.824219 73.730469 61.140625 73.730469 59.078125 L 73.730469 21.085938 Z M 59.648438 7.027344 " fill-opacity="1" fill-rule="nonzero"/></g><g clip-path="url(#42ef1ed15e)"><path stroke-linecap="butt" transform="matrix(0.628658, 0, 0, 0.624829, 25.386653, 7.028652)" fill="none" stroke-linejoin="miter" d="M 54.499854 -0.00209394 L 54.499854 22.497799 L 76.89999 22.497799 " stroke="#16864c" stroke-width="1" stroke-opacity="1" stroke-miterlimit="10"/></g><path fill="#21a365" d="M 53.929688 28.523438 L 61.15625 28.523438 L 61.15625 31.273438 L 53.929688 31.273438 Z M 53.929688 28.523438 " fill-opacity="1" fill-rule="nonzero"/><path fill="#33c481" d="M 62.980469 28.523438 L 70.210938 28.523438 L 70.210938 31.273438 L 62.980469 31.273438 Z M 62.980469 28.523438 " fill-opacity="1" fill-rule="nonzero"/><path fill="#107c42" d="M 53.929688 33.519531 L 61.15625 33.519531 L 61.15625 36.269531 L 53.929688 36.269531 Z M 53.929688 33.519531 " fill-opacity="1" fill-rule="nonzero"/><path fill="#21a365" d="M 62.980469 33.519531 L 70.210938 33.519531 L 70.210938 36.269531 L 62.980469 36.269531 Z M 62.980469 33.519531 " fill-opacity="1" fill-rule="nonzero"/><path fill="#195d38" d="M 53.929688 38.519531 L 61.15625 38.519531 L 61.15625 41.269531 L 53.929688 41.269531 Z M 53.929688 38.519531 " fill-opacity="1" fill-rule="nonzero"/><path fill="#195d38" d="M 62.980469 38.519531 L 70.210938 38.519531 L 70.210938 41.269531 L 62.980469 41.269531 Z M 62.980469 38.519531 " fill-opacity="1" fill-rule="nonzero"/><g clip-path="url(#9be23533e9)"><path fill="#ffffff" d="M 51.851562 24.148438 L 51.851562 45.832031 C 51.851562 45.957031 51.851562 46.082031 51.851562 46.144531 C 51.664062 47.144531 50.785156 47.953125 49.714844 47.953125 L 27.839844 47.953125 C 27.460938 47.953125 27.019531 47.828125 26.707031 47.640625 C 26.582031 47.582031 26.519531 47.519531 26.390625 47.457031 C 25.953125 47.082031 25.636719 46.457031 25.636719 45.832031 L 25.636719 24.148438 C 25.636719 22.960938 26.582031 22.023438 27.777344 22.023438 L 49.527344 22.023438 C 50.660156 22.023438 51.539062 22.835938 51.664062 23.898438 C 51.851562 23.960938 51.851562 24.085938 51.851562 24.148438 Z M 51.851562 24.148438 " fill-opacity="1" fill-rule="nonzero"/></g><g clip-path="url(#a74a34ae94)"><path stroke-linecap="butt" transform="matrix(0.628658, 0, 0, 0.624829, 25.386653, 7.028652)" fill="none" stroke-linejoin="miter" d="M 42.097448 27.399137 L 42.097448 62.102361 C 42.097448 62.302416 42.097448 62.502471 42.097448 62.602498 C 41.799194 64.202935 40.401127 65.497038 38.698593 65.497038 L 3.902265 65.497038 C 3.299543 65.497038 2.597402 65.296984 2.100312 64.996902 C 1.901476 64.903126 1.802058 64.803099 1.597008 64.703071 C 0.901081 64.102908 0.397777 63.102635 0.397777 62.102361 L 0.397777 27.399137 C 0.397777 25.498618 1.901476 23.998208 3.802847 23.998208 L 38.400338 23.998208 C 40.202291 23.998208 41.600358 25.298564 41.799194 26.999028 C 42.097448 27.099055 42.097448 27.29911 42.097448 27.399137 Z M 42.097448 27.399137 " stroke="#16864c" stroke-width="1" stroke-opacity="1" stroke-miterlimit="10"/></g><path fill="#16864c" d="M 41.792969 42.144531 C 41.792969 42.144531 39.28125 37.457031 38.777344 36.644531 L 38.714844 36.644531 C 38.335938 37.457031 37.898438 38.207031 37.269531 39.332031 L 35.695312 42.144531 L 32.363281 42.144531 L 36.953125 35.082031 L 32.742188 27.898438 L 36.199219 27.898438 C 36.199219 27.898438 38.527344 32.585938 38.902344 33.332031 L 38.964844 33.332031 C 39.40625 32.460938 41.921875 27.898438 41.921875 27.898438 L 45.0625 27.898438 L 40.726562 34.957031 L 45.125 42.144531 Z M 41.792969 42.144531 " fill-opacity="1" fill-rule="nonzero"/></svg>