<svg xmlns="http://www.w3.org/2000/svg" xmlns:xlink="http://www.w3.org/1999/xlink" width="132" zoomAndPan="magnify" viewBox="0 0 98.88 70.499998" height="94" preserveAspectRatio="xMidYMid meet" version="1.0"><defs><clipPath id="d1200db49f"><path d="M 38 42 L 74 42 L 74 62.855469 L 38 62.855469 Z M 38 42 " clip-rule="nonzero"/></clipPath><clipPath id="9a35b77d54"><path d="M 24.589844 7 L 74.484375 7 L 74.484375 62.855469 L 24.589844 62.855469 Z M 24.589844 7 " clip-rule="nonzero"/></clipPath></defs><path fill="#e9353f" d="M 67.820312 38.894531 C 69.085938 38.742188 70.367188 38.722656 71.53125 39.183594 C 72.796875 39.679688 73.832031 40.972656 73.824219 42.257812 L 73.824219 43.929688 L 69.082031 48.335938 L 64.304688 45.703125 Z M 67.820312 38.894531 " fill-opacity="1" fill-rule="nonzero"/><path fill="#c6d1e2" d="M 62.449219 10.015625 L 62.375 7.5 C 50.085938 7.371094 37.484375 7.894531 25.191406 7.765625 C 25.140625 23.257812 25.289062 39.1875 25.238281 54.679688 C 26.472656 54.660156 27.695312 54.617188 28.925781 54.59375 Z M 62.449219 10.015625 " fill-opacity="1" fill-rule="nonzero"/><path fill="#e1e9f7" d="M 67.785156 45.117188 C 67.847656 33.433594 67.90625 21.695312 67.96875 10.015625 C 58.3125 9.988281 48.71875 10.167969 39.066406 10.136719 L 29.4375 19.710938 C 29.183594 32.652344 29.105469 45.789062 28.851562 58.734375 C 32.105469 58.660156 35.484375 58.703125 38.824219 58.710938 Z M 67.785156 45.117188 " fill-opacity="1" fill-rule="nonzero"/><g clip-path="url(#d1200db49f)"><path fill="#ff4b50" d="M 73.597656 59.128906 C 73.480469 60.964844 71.960938 62.394531 70.105469 62.375 C 60.652344 62.257812 51.027344 62.113281 41.578125 61.996094 C 40.039062 61.976562 38.804688 60.730469 38.820312 59.195312 L 38.9375 47.617188 C 38.957031 46.035156 40.304688 44.789062 41.894531 44.867188 C 50.992188 45.339844 59.761719 45.238281 68.957031 45.105469 C 69.859375 45.085938 70.769531 45.066406 71.613281 44.796875 C 72.46875 44.535156 73.277344 43.984375 73.632812 43.167969 C 73.769531 42.871094 73.824219 42.5625 73.824219 42.257812 C 73.933594 47.878906 73.953125 53.519531 73.597656 59.128906 Z M 73.597656 59.128906 " fill-opacity="1" fill-rule="nonzero"/></g><path fill="#ffffff" d="M 48.878906 48.703125 C 47.925781 48.644531 47.183594 48.878906 46.378906 49.167969 C 46.207031 49.230469 46.089844 49.390625 46.082031 49.570312 L 45.6875 58.550781 L 46.597656 58.589844 L 46.757812 54.882812 C 47.625 54.925781 48.464844 54.835938 49.113281 54.632812 C 50.09375 54.324219 50.886719 53.726562 51.34375 52.945312 C 51.875 52.042969 51.894531 50.917969 51.390625 50.089844 C 50.910156 49.289062 49.96875 48.769531 48.875 48.703125 Z M 50.558594 52.492188 C 50.222656 53.066406 49.59375 53.53125 48.839844 53.769531 C 48.289062 53.941406 47.566406 54.019531 46.800781 53.980469 L 46.976562 49.914062 C 47.585938 49.703125 48.148438 49.558594 48.820312 49.605469 C 49.601562 49.652344 50.289062 50.019531 50.613281 50.554688 C 50.941406 51.097656 50.917969 51.875 50.558594 52.492188 Z M 50.558594 52.492188 " fill-opacity="1" fill-rule="nonzero"/><path fill="#ffffff" d="M 56.675781 48.523438 C 55.488281 48.234375 54.261719 48.464844 53.207031 48.699219 C 53 48.746094 52.855469 48.925781 52.851562 49.132812 L 52.652344 58.867188 L 53.558594 58.886719 L 53.640625 54.980469 C 54.929688 55.40625 56.195312 55.363281 57.332031 54.855469 C 58.90625 54.152344 59.828125 52.367188 59.386719 50.878906 C 59.054688 49.75 58.015625 48.847656 56.675781 48.523438 Z M 56.957031 54.03125 C 55.945312 54.484375 54.839844 54.480469 53.660156 54.023438 L 53.753906 49.507812 C 54.621094 49.324219 55.582031 49.1875 56.460938 49.398438 C 57.472656 49.644531 58.277344 50.324219 58.515625 51.132812 C 58.832031 52.203125 58.136719 53.503906 56.957031 54.03125 Z M 56.957031 54.03125 " fill-opacity="1" fill-rule="nonzero"/><path fill="#ffffff" d="M 67.523438 49.921875 L 67.554688 49.019531 L 60.753906 48.769531 L 60.71875 49.671875 L 63.691406 49.78125 C 63.644531 52.820312 63.695312 55.753906 63.847656 58.714844 L 64.757812 58.667969 C 64.601562 55.734375 64.558594 52.828125 64.601562 49.816406 L 67.523438 49.925781 Z M 67.523438 49.921875 " fill-opacity="1" fill-rule="nonzero"/><path fill="#e9353f" d="M 59.199219 24.550781 C 58.953125 27.550781 57.1875 30.410156 54.582031 31.96875 C 51.832031 33.601562 48.226562 33.71875 45.371094 32.265625 C 43.59375 31.351562 42.113281 29.855469 41.226562 28.070312 C 39.480469 24.535156 40.324219 19.867188 43.300781 17.269531 C 44.71875 16.03125 46.574219 15.339844 48.457031 15.21875 C 49.980469 15.117188 52.320312 15.246094 54.136719 15.777344 C 52.527344 18.511719 50.9375 21.253906 49.34375 23.988281 C 52.597656 24.117188 55.914062 24.371094 59.199219 24.550781 Z M 59.199219 24.550781 " fill-opacity="1" fill-rule="nonzero"/><path fill="#fbcf2f" d="M 61.921875 22.648438 C 61.914062 22.8125 61.90625 22.976562 61.890625 23.136719 C 58.605469 22.957031 55.285156 22.703125 52.035156 22.574219 C 53.625 19.839844 55.214844 17.097656 56.824219 14.363281 C 57.375 14.523438 57.882812 14.722656 58.304688 14.960938 C 60.761719 16.371094 61.992188 19.992188 61.921875 22.652344 Z M 61.921875 22.648438 " fill-opacity="1" fill-rule="nonzero"/><path fill="#ffffff" d="M 35.703125 35.355469 C 35.234375 35.4375 34.769531 35.738281 34.644531 36.195312 C 34.546875 36.546875 34.667969 36.941406 34.910156 37.21875 C 35.234375 37.59375 35.765625 37.78125 36.253906 37.6875 C 36.742188 37.59375 37.164062 37.226562 37.328125 36.761719 C 37.445312 36.417969 37.457031 35.730469 37.113281 35.488281 C 36.796875 35.261719 36.0625 35.292969 35.703125 35.355469 Z M 35.703125 35.355469 " fill-opacity="1" fill-rule="nonzero"/><path fill="#ffffff" d="M 40.128906 36.253906 L 62.128906 36.253906 L 62.128906 37.15625 L 40.128906 37.15625 Z M 40.128906 36.253906 " fill-opacity="1" fill-rule="nonzero"/><path fill="#ffffff" d="M 34.824219 40.308594 C 34.613281 40.695312 34.527344 41.25 34.714844 41.65625 C 34.859375 41.96875 35.132812 42.132812 35.398438 42.210938 C 35.789062 42.332031 36.214844 42.304688 36.574219 42.0625 C 37.195312 41.640625 37.625 40.101562 36.816406 39.589844 C 36.253906 39.234375 35.171875 39.664062 34.824219 40.308594 Z M 34.824219 40.308594 " fill-opacity="1" fill-rule="nonzero"/><path fill="#ffffff" d="M 62.175781 41.386719 C 55.03125 40.886719 47.78125 40.832031 40.628906 41.226562 L 40.578125 40.324219 C 47.765625 39.929688 55.054688 39.980469 62.238281 40.484375 Z M 62.175781 41.386719 " fill-opacity="1" fill-rule="nonzero"/><path fill="#d6dfef" d="M 39.804688 19.851562 C 39.890625 16.625 39.484375 13.339844 39.066406 10.140625 L 29.4375 19.710938 C 32.882812 20.027344 36.34375 19.988281 39.804688 19.851562 Z M 39.804688 19.851562 " fill-opacity="1" fill-rule="nonzero"/><g clip-path="url(#9a35b77d54)"><path fill="#000000" d="M 71.703125 38.742188 C 70.546875 38.285156 69.3125 38.28125 68.277344 38.371094 L 68.421875 10 C 68.421875 9.878906 68.375 9.765625 68.289062 9.679688 C 68.203125 9.59375 68.089844 9.546875 67.96875 9.546875 C 66.28125 9.539062 64.585938 9.542969 62.890625 9.550781 L 62.828125 7.46875 C 62.820312 7.226562 62.621094 7.03125 62.378906 7.03125 C 56.226562 6.964844 49.898438 7.066406 43.773438 7.164062 C 37.660156 7.257812 31.335938 7.359375 25.195312 7.292969 C 25.078125 7.304688 24.957031 7.339844 24.871094 7.425781 C 24.785156 7.507812 24.738281 7.625 24.734375 7.746094 C 24.710938 15.492188 24.734375 23.480469 24.757812 31.203125 C 24.78125 38.925781 24.808594 46.914062 24.78125 54.65625 C 24.78125 54.777344 24.828125 54.894531 24.917969 54.980469 C 25 55.0625 25.117188 55.109375 25.238281 55.109375 L 25.242188 55.109375 C 25.972656 55.097656 26.695312 55.078125 27.414062 55.0625 L 28.460938 55.035156 C 28.4375 56.261719 28.417969 57.488281 28.394531 58.703125 C 28.390625 58.828125 28.4375 58.945312 28.527344 59.03125 C 28.613281 59.117188 28.730469 59.164062 28.847656 59.164062 L 28.859375 59.164062 C 31.398438 59.109375 34.0625 59.121094 36.636719 59.132812 L 38.363281 59.140625 L 38.363281 59.167969 C 38.34375 60.945312 39.785156 62.410156 41.570312 62.429688 C 46.324219 62.488281 51.121094 62.554688 55.921875 62.621094 C 60.660156 62.683594 65.398438 62.75 70.097656 62.804688 L 70.144531 62.804688 C 72.207031 62.804688 73.917969 61.203125 74.046875 59.136719 C 74.417969 53.246094 74.371094 47.285156 74.28125 42.242188 C 74.285156 40.808594 73.203125 39.335938 71.703125 38.742188 Z M 28.980469 19.679688 C 28.855469 26.152344 28.769531 32.785156 28.6875 39.195312 C 28.625 44.101562 28.5625 49.136719 28.476562 54.132812 L 27.394531 54.15625 C 26.828125 54.171875 26.261719 54.1875 25.695312 54.199219 C 25.71875 46.59375 25.695312 38.773438 25.667969 31.199219 C 25.644531 23.628906 25.621094 15.804688 25.644531 8.203125 C 31.652344 8.257812 37.820312 8.160156 43.789062 8.066406 C 49.761719 7.96875 55.933594 7.875 61.933594 7.929688 L 61.980469 9.550781 C 59.140625 9.5625 56.304688 9.585938 53.527344 9.605469 C 48.792969 9.644531 43.894531 9.679688 39.066406 9.667969 C 38.953125 9.703125 38.828125 9.714844 38.742188 9.796875 L 29.113281 19.371094 C 29.03125 19.453125 28.984375 19.5625 28.980469 19.679688 Z M 38.730469 11.089844 C 39.09375 13.925781 39.390625 16.699219 39.355469 19.398438 C 36.691406 19.496094 33.621094 19.539062 30.464844 19.304688 Z M 36.640625 58.230469 C 34.21875 58.21875 31.722656 58.207031 29.3125 58.25 C 29.433594 51.925781 29.519531 45.460938 29.597656 39.207031 C 29.675781 32.953125 29.761719 26.492188 29.882812 20.171875 C 31.710938 20.320312 33.519531 20.386719 35.238281 20.386719 C 36.855469 20.386719 38.398438 20.339844 39.820312 20.28125 C 40.058594 20.273438 40.25 20.082031 40.257812 19.84375 C 40.335938 16.824219 39.988281 13.730469 39.578125 10.570312 C 44.246094 10.582031 48.964844 10.546875 53.535156 10.507812 C 58.109375 10.472656 62.839844 10.4375 67.507812 10.445312 L 67.332031 44.652344 C 58.472656 44.78125 50.347656 44.828125 41.917969 44.402344 C 41.019531 44.359375 40.15625 44.667969 39.503906 45.277344 C 38.855469 45.886719 38.492188 46.707031 38.480469 47.59375 L 38.375 58.238281 Z M 73.140625 59.078125 C 73.042969 60.679688 71.695312 61.949219 70.109375 61.902344 C 65.414062 61.84375 60.671875 61.78125 55.933594 61.714844 C 51.136719 61.648438 46.335938 61.585938 41.582031 61.527344 C 40.296875 61.511719 39.261719 60.457031 39.273438 59.175781 L 39.390625 47.601562 C 39.398438 46.964844 39.65625 46.375 40.125 45.9375 C 40.566406 45.523438 41.136719 45.300781 41.742188 45.300781 C 41.785156 45.300781 41.828125 45.300781 41.871094 45.304688 C 50.84375 45.761719 59.449219 45.679688 68.96875 45.53125 C 69.835938 45.519531 70.820312 45.503906 71.753906 45.210938 C 72.410156 45.007812 72.976562 44.671875 73.402344 44.25 C 73.46875 48.824219 73.460938 53.980469 73.140625 59.078125 Z M 73.21875 42.964844 C 72.945312 43.585938 72.3125 44.089844 71.480469 44.347656 C 70.675781 44.601562 69.761719 44.613281 68.953125 44.628906 C 68.714844 44.632812 68.480469 44.632812 68.242188 44.636719 L 68.269531 39.28125 C 69.21875 39.191406 70.34375 39.179688 71.367188 39.582031 C 72.511719 40.035156 73.371094 41.171875 73.371094 42.238281 C 73.371094 42.492188 73.320312 42.738281 73.21875 42.964844 Z M 73.21875 42.964844 " fill-opacity="1" fill-rule="nonzero"/></g><path fill="#000000" d="M 48.875 48.683594 C 47.917969 48.625 47.179688 48.855469 46.378906 49.148438 C 46.207031 49.210938 46.085938 49.371094 46.078125 49.550781 L 45.6875 58.53125 L 46.597656 58.570312 L 46.757812 54.863281 C 47.625 54.90625 48.460938 54.816406 49.109375 54.613281 C 50.09375 54.304688 50.886719 53.707031 51.34375 52.925781 C 51.875 52.019531 51.894531 50.898438 51.390625 50.070312 C 50.910156 49.269531 49.96875 48.75 48.875 48.683594 Z M 50.554688 52.472656 C 50.21875 53.046875 49.59375 53.511719 48.835938 53.75 C 48.285156 53.921875 47.5625 53.996094 46.796875 53.960938 L 46.972656 49.894531 C 47.585938 49.683594 48.140625 49.539062 48.816406 49.582031 C 49.601562 49.632812 50.289062 49.996094 50.613281 50.535156 C 50.941406 51.078125 50.917969 51.855469 50.554688 52.472656 Z M 50.554688 52.472656 " fill-opacity="1" fill-rule="nonzero"/><path fill="#000000" d="M 56.675781 48.503906 C 55.484375 48.214844 54.257812 48.445312 53.203125 48.679688 C 53 48.726562 52.855469 48.90625 52.851562 49.113281 L 52.648438 58.847656 L 53.558594 58.863281 L 53.640625 54.960938 C 54.929688 55.382812 56.199219 55.34375 57.332031 54.835938 C 58.90625 54.132812 59.828125 52.347656 59.386719 50.859375 C 59.050781 49.730469 58.015625 48.828125 56.675781 48.503906 Z M 56.957031 54.011719 C 55.945312 54.464844 54.839844 54.460938 53.660156 54.003906 L 53.753906 49.488281 C 54.621094 49.304688 55.582031 49.164062 56.460938 49.378906 C 57.46875 49.625 58.277344 50.304688 58.515625 51.113281 C 58.832031 52.183594 58.132812 53.484375 56.957031 54.011719 Z M 56.957031 54.011719 " fill-opacity="1" fill-rule="nonzero"/><path fill="#000000" d="M 60.71875 49.652344 L 63.691406 49.761719 C 63.644531 52.800781 63.691406 55.730469 63.847656 58.691406 L 64.757812 58.644531 C 64.601562 55.710938 64.554688 52.804688 64.601562 49.796875 L 67.523438 49.902344 L 67.554688 49 L 60.75 48.75 Z M 60.71875 49.652344 " fill-opacity="1" fill-rule="nonzero"/><path fill="#000000" d="M 45.164062 32.648438 C 46.554688 33.355469 48.121094 33.707031 49.6875 33.707031 C 51.480469 33.707031 53.277344 33.246094 54.816406 32.335938 C 57.535156 30.710938 59.390625 27.734375 59.652344 24.566406 C 59.664062 24.445312 59.621094 24.324219 59.542969 24.234375 C 59.460938 24.140625 59.347656 24.085938 59.222656 24.078125 C 57.992188 24.011719 56.753906 23.933594 55.519531 23.855469 C 53.742188 23.742188 51.910156 23.628906 50.113281 23.546875 L 50.644531 22.632812 C 51.933594 20.417969 53.222656 18.195312 54.527344 15.984375 C 54.597656 15.863281 54.609375 15.71875 54.554688 15.589844 C 54.503906 15.460938 54.394531 15.359375 54.261719 15.324219 C 52.402344 14.777344 49.988281 14.644531 48.429688 14.75 C 46.371094 14.878906 44.445312 15.648438 42.996094 16.914062 C 39.898438 19.617188 38.960938 24.492188 40.816406 28.25 C 41.746094 30.125 43.289062 31.6875 45.160156 32.648438 Z M 43.597656 17.589844 C 44.894531 16.457031 46.632812 15.769531 48.488281 15.652344 C 48.792969 15.628906 49.132812 15.621094 49.496094 15.621094 C 50.707031 15.621094 52.167969 15.742188 53.4375 16.039062 C 52.238281 18.085938 51.046875 20.132812 49.859375 22.179688 L 48.949219 23.742188 C 48.871094 23.878906 48.867188 24.046875 48.945312 24.183594 C 49.019531 24.324219 49.164062 24.410156 49.324219 24.417969 C 51.351562 24.496094 53.4375 24.628906 55.460938 24.757812 C 56.539062 24.824219 57.617188 24.894531 58.695312 24.953125 C 58.324219 27.664062 56.6875 30.164062 54.347656 31.558594 C 51.730469 33.113281 48.285156 33.222656 45.578125 31.84375 C 43.878906 30.96875 42.476562 29.550781 41.632812 27.851562 C 39.953125 24.445312 40.796875 20.035156 43.597656 17.589844 Z M 43.597656 17.589844 " fill-opacity="1" fill-rule="nonzero"/><path fill="#000000" d="M 51.640625 22.328125 C 51.558594 22.464844 51.558594 22.632812 51.632812 22.769531 C 51.710938 22.910156 51.855469 23 52.015625 23.003906 C 54.039062 23.085938 56.125 23.214844 58.144531 23.34375 C 59.386719 23.421875 60.628906 23.5 61.863281 23.566406 L 61.890625 23.566406 C 62.121094 23.566406 62.316406 23.394531 62.339844 23.164062 C 62.359375 22.992188 62.367188 22.824219 62.378906 22.652344 L 62.378906 22.640625 C 62.449219 19.828125 61.125 16.039062 58.527344 14.546875 C 58.101562 14.304688 57.574219 14.089844 56.953125 13.910156 C 56.753906 13.851562 56.535156 13.933594 56.429688 14.113281 C 55.109375 16.359375 53.800781 18.613281 52.492188 20.863281 Z M 53.277344 21.316406 C 54.523438 19.171875 55.773438 17.023438 57.03125 14.882812 C 57.4375 15.019531 57.789062 15.167969 58.074219 15.332031 C 60.367188 16.644531 61.53125 20.0625 61.46875 22.613281 L 61.464844 22.640625 C 60.378906 22.578125 59.289062 22.511719 58.203125 22.441406 C 56.425781 22.328125 54.597656 22.214844 52.800781 22.132812 Z M 53.277344 21.316406 " fill-opacity="1" fill-rule="nonzero"/><path fill="#000000" d="M 35.625 34.890625 C 34.925781 35.011719 34.371094 35.46875 34.207031 36.050781 C 34.074219 36.53125 34.210938 37.082031 34.5625 37.492188 C 34.917969 37.90625 35.457031 38.144531 36 38.144531 C 36.113281 38.144531 36.226562 38.132812 36.335938 38.109375 C 36.984375 37.988281 37.542969 37.507812 37.757812 36.886719 C 37.929688 36.378906 37.929688 35.492188 37.378906 35.101562 C 36.804688 34.691406 35.675781 34.882812 35.625 34.890625 Z M 36.894531 36.59375 C 36.789062 36.910156 36.496094 37.160156 36.164062 37.222656 C 35.835938 37.289062 35.472656 37.160156 35.253906 36.90625 C 35.097656 36.722656 35.03125 36.484375 35.082031 36.292969 C 35.160156 36.011719 35.5 35.828125 35.78125 35.78125 C 35.933594 35.753906 36.105469 35.742188 36.265625 35.742188 C 36.527344 35.742188 36.765625 35.777344 36.847656 35.835938 C 36.933594 35.898438 36.992188 36.3125 36.894531 36.59375 Z M 36.894531 36.59375 " fill-opacity="1" fill-rule="nonzero"/><path fill="#000000" d="M 40.128906 36.230469 L 62.128906 36.230469 L 62.128906 37.136719 L 40.128906 37.136719 Z M 40.128906 36.230469 " fill-opacity="1" fill-rule="nonzero"/><path fill="#000000" d="M 37.0625 39.1875 C 36.730469 38.980469 36.289062 38.933594 35.816406 39.058594 C 35.210938 39.210938 34.679688 39.601562 34.421875 40.074219 C 34.1875 40.5 34.019531 41.214844 34.300781 41.824219 C 34.476562 42.210938 34.8125 42.488281 35.261719 42.625 C 35.460938 42.683594 35.65625 42.714844 35.847656 42.714844 C 36.203125 42.714844 36.539062 42.613281 36.832031 42.414062 C 37.347656 42.0625 37.726562 41.226562 37.714844 40.472656 C 37.703125 39.90625 37.472656 39.449219 37.0625 39.1875 Z M 36.316406 41.667969 C 36.039062 41.855469 35.734375 41.820312 35.527344 41.761719 C 35.230469 41.667969 35.152344 41.503906 35.128906 41.449219 C 35.015625 41.207031 35.054688 40.808594 35.222656 40.503906 C 35.355469 40.257812 35.695312 40.023438 36.042969 39.929688 C 36.140625 39.90625 36.234375 39.894531 36.320312 39.894531 C 36.421875 39.894531 36.511719 39.914062 36.574219 39.953125 C 36.757812 40.070312 36.800781 40.308594 36.804688 40.488281 C 36.8125 40.96875 36.554688 41.507812 36.316406 41.667969 Z M 36.316406 41.667969 " fill-opacity="1" fill-rule="nonzero"/><path fill="#000000" d="M 40.578125 40.304688 L 40.628906 41.207031 C 47.785156 40.8125 55.03125 40.867188 62.175781 41.367188 L 62.238281 40.464844 C 55.058594 39.960938 47.769531 39.90625 40.578125 40.304688 Z M 40.578125 40.304688 " fill-opacity="1" fill-rule="nonzero"/></svg>