<svg xmlns="http://www.w3.org/2000/svg" xmlns:xlink="http://www.w3.org/1999/xlink" width="132" zoomAndPan="magnify" viewBox="0 0 98.88 70.499998" height="94" preserveAspectRatio="xMidYMid meet" version="1.0"><defs><clipPath id="8950e48390"><path d="M 21.4375 7 L 77.292969 7 L 77.292969 62.855469 L 21.4375 62.855469 Z M 21.4375 7 " clip-rule="nonzero"/></clipPath></defs><g clip-path="url(#8950e48390)"><path fill="#ffffff" d="M 40.4375 7 C 37.679688 7 35.4375 9.246094 35.4375 12 L 35.4375 26.996094 L 25.285156 26.996094 C 23.167969 26.996094 21.4375 28.742188 21.4375 30.867188 L 21.4375 47.125 C 21.4375 49.25 23.167969 50.996094 25.285156 50.996094 L 35.4375 50.996094 L 35.4375 57.996094 C 35.4375 60.75 37.679688 62.992188 40.4375 62.992188 L 72.433594 62.992188 C 75.1875 62.992188 77.433594 60.75 77.433594 57.996094 L 77.433594 23 C 77.433594 22.085938 77.0625 21.226562 76.4375 20.59375 L 64.148438 8.003906 C 63.507812 7.347656 62.625 7 61.726562 7 Z M 40.4375 9 L 61.433594 9 L 61.433594 19 C 61.433594 21.195312 63.234375 23 65.433594 23 L 75.433594 23 L 75.433594 57.996094 C 75.433594 59.671875 74.109375 60.992188 72.433594 60.992188 L 40.4375 60.992188 C 38.757812 60.992188 37.4375 59.671875 37.4375 57.996094 L 37.4375 50.996094 L 57.585938 50.996094 C 59.703125 50.996094 61.433594 49.25 61.433594 47.125 L 61.433594 30.867188 C 61.433594 28.742188 59.703125 26.996094 57.585938 26.996094 L 37.4375 26.996094 L 37.4375 12 C 37.4375 10.324219 38.757812 9 40.4375 9 Z M 63.433594 10.140625 L 74.042969 21 L 65.433594 21 C 64.308594 21 63.433594 20.125 63.433594 19 Z M 25.285156 28.996094 L 57.585938 28.996094 C 58.621094 28.996094 59.433594 29.808594 59.433594 30.867188 L 59.433594 47.125 C 59.433594 48.183594 58.621094 48.996094 57.585938 48.996094 L 25.285156 48.996094 C 24.25 48.996094 23.4375 48.183594 23.4375 47.125 L 23.4375 30.867188 C 23.4375 29.808594 24.25 28.996094 25.285156 28.996094 Z M 25.285156 28.996094 " fill-opacity="1" fill-rule="nonzero"/></g><path fill="#ffffff" d="M 28.4375 32.996094 C 27.886719 32.996094 27.4375 33.445312 27.4375 33.996094 C 27.4375 37.332031 27.4375 40.664062 27.4375 43.996094 C 27.4375 44.546875 27.886719 44.996094 28.4375 44.996094 C 28.988281 44.996094 29.4375 44.546875 29.4375 43.996094 L 29.4375 40.996094 L 31.4375 40.996094 C 33.636719 40.996094 35.4375 39.195312 35.4375 36.996094 C 35.4375 34.800781 33.636719 32.996094 31.4375 32.996094 Z M 29.4375 34.996094 L 31.4375 34.996094 C 32.5625 34.996094 33.4375 35.871094 33.4375 36.996094 C 33.4375 38.121094 32.5625 38.996094 31.4375 38.996094 L 29.4375 38.996094 Z M 29.4375 34.996094 " fill-opacity="1" fill-rule="nonzero"/><path fill="#ffffff" d="M 38.4375 32.996094 C 37.882812 32.996094 37.4375 33.445312 37.4375 33.996094 L 37.4375 43.996094 C 37.4375 44.546875 37.882812 44.996094 38.4375 44.996094 L 39.296875 44.996094 C 42.664062 44.996094 45.4375 42.320312 45.4375 38.996094 C 45.4375 35.675781 42.664062 32.996094 39.296875 32.996094 Z M 39.4375 35.023438 C 41.691406 35.101562 43.4375 36.824219 43.4375 38.996094 C 43.4375 41.167969 41.691406 42.890625 39.4375 42.96875 Z M 39.4375 35.023438 " fill-opacity="1" fill-rule="nonzero"/><path fill="#ffffff" d="M 48.433594 32.996094 C 47.882812 32.996094 47.4375 33.445312 47.4375 33.996094 C 47.4375 37.332031 47.4375 40.664062 47.4375 43.996094 C 47.4375 44.546875 47.882812 44.996094 48.433594 44.996094 C 48.988281 44.996094 49.433594 44.546875 49.433594 43.996094 L 49.433594 39.867188 L 54.433594 39.867188 C 54.988281 39.867188 55.433594 39.417969 55.433594 38.867188 C 55.433594 38.3125 54.988281 37.867188 54.433594 37.867188 L 49.433594 37.867188 L 49.433594 34.996094 L 54.433594 34.996094 C 54.988281 34.996094 55.433594 34.550781 55.433594 33.996094 C 55.433594 33.445312 54.988281 32.996094 54.433594 32.996094 Z M 48.433594 32.996094 " fill-opacity="1" fill-rule="nonzero"/></svg>