<svg xmlns="http://www.w3.org/2000/svg" xmlns:xlink="http://www.w3.org/1999/xlink" width="132" zoomAndPan="magnify" viewBox="0 0 98.88 70.499998" height="94" preserveAspectRatio="xMidYMid meet" version="1.0"><defs><clipPath id="971852dfb8"><path d="M 17.800781 7 L 81 7 L 81 62.855469 L 17.800781 62.855469 Z M 17.800781 7 " clip-rule="nonzero"/></clipPath></defs><path fill="#ffffff" d="M 51.015625 50.972656 C 53.796875 50.101562 56.554688 49.089844 59.242188 47.957031 C 60.03125 47.632812 60.824219 47.289062 61.601562 46.933594 C 61.835938 46.824219 61.914062 46.472656 61.78125 46.265625 C 61.628906 46.019531 61.355469 45.980469 61.109375 46.089844 C 60.769531 46.238281 60.441406 46.390625 60.101562 46.539062 C 59.9375 46.609375 59.773438 46.691406 59.609375 46.757812 C 59.542969 46.785156 59.460938 46.824219 59.390625 46.851562 C 59.351562 46.867188 59.308594 46.894531 59.253906 46.90625 C 59.226562 46.921875 59.199219 46.933594 59.171875 46.933594 C 58.503906 47.222656 57.824219 47.496094 57.140625 47.765625 C 55.789062 48.300781 54.4375 48.804688 53.074219 49.269531 C 52.296875 49.527344 51.519531 49.785156 50.742188 50.03125 C 50.496094 50.113281 50.320312 50.375 50.402344 50.632812 C 50.496094 50.878906 50.753906 51.054688 51.015625 50.972656 Z M 51.015625 50.972656 " fill-opacity="1" fill-rule="nonzero"/><path fill="#ffffff" d="M 64.578125 48.96875 C 64.699219 48.914062 64.792969 48.859375 64.863281 48.75 C 64.917969 48.640625 64.945312 48.492188 64.917969 48.367188 C 64.847656 48.136719 64.5625 47.917969 64.316406 48.027344 C 61.480469 49.214844 58.65625 50.414062 55.816406 51.601562 C 55.027344 51.929688 54.222656 52.269531 53.429688 52.597656 C 53.308594 52.652344 53.210938 52.707031 53.144531 52.816406 C 53.089844 52.925781 53.0625 53.074219 53.089844 53.199219 C 53.15625 53.429688 53.441406 53.648438 53.6875 53.539062 C 56.527344 52.351562 59.351562 51.152344 62.1875 49.964844 C 62.980469 49.636719 63.773438 49.296875 64.578125 48.96875 Z M 64.578125 48.96875 " fill-opacity="1" fill-rule="nonzero"/><path fill="#ffffff" d="M 68.246094 50.917969 C 68.492188 50.835938 68.667969 50.578125 68.585938 50.320312 C 68.507812 50.085938 68.246094 49.882812 67.988281 49.976562 C 64.972656 51.082031 61.957031 52.1875 58.941406 53.292969 C 58.082031 53.605469 57.222656 53.921875 56.375 54.234375 C 56.132812 54.316406 55.953125 54.574219 56.035156 54.835938 C 56.117188 55.066406 56.375 55.273438 56.636719 55.175781 C 59.652344 54.070312 62.667969 52.964844 65.679688 51.859375 C 66.542969 51.546875 67.402344 51.234375 68.246094 50.917969 Z M 68.246094 50.917969 " fill-opacity="1" fill-rule="nonzero"/><path fill="#ffffff" d="M 60.140625 56.308594 C 59.910156 56.417969 59.828125 56.773438 59.964844 56.976562 C 60.113281 57.222656 60.386719 57.261719 60.632812 57.15625 C 63.117188 55.980469 65.601562 54.820312 68.082031 53.648438 C 68.777344 53.320312 69.488281 52.992188 70.183594 52.664062 C 70.414062 52.554688 70.496094 52.203125 70.363281 51.996094 C 70.210938 51.75 69.9375 51.710938 69.691406 51.820312 C 67.210938 52.992188 64.726562 54.152344 62.242188 55.324219 C 61.546875 55.652344 60.851562 55.980469 60.140625 56.308594 Z M 60.140625 56.308594 " fill-opacity="1" fill-rule="nonzero"/><path fill="#ffffff" d="M 41.503906 37.277344 C 41.355469 37.277344 41.421875 37.289062 41.503906 37.277344 Z M 41.503906 37.277344 " fill-opacity="1" fill-rule="nonzero"/><path fill="#ffffff" d="M 39.800781 37.332031 C 39.839844 37.34375 39.882812 37.34375 39.921875 37.359375 C 39.921875 37.359375 39.921875 37.359375 39.9375 37.359375 C 39.828125 37.316406 39.800781 37.316406 39.800781 37.332031 Z M 39.800781 37.332031 " fill-opacity="1" fill-rule="nonzero"/><g clip-path="url(#971852dfb8)"><path fill="#ffffff" d="M 80.511719 50.878906 C 78.164062 49.730469 75.820312 48.601562 73.472656 47.453125 C 72.3125 46.894531 71.167969 46.335938 70.007812 45.761719 C 70.960938 45.148438 71.820312 44.410156 72.488281 43.484375 C 73.292969 42.363281 73.773438 41 74.085938 39.664062 C 74.414062 38.273438 74.578125 36.839844 74.714844 35.40625 C 74.863281 33.671875 74.988281 31.941406 75.015625 30.195312 C 75.027344 29.363281 75 28.53125 74.933594 27.699219 C 74.890625 27.246094 74.878906 26.769531 74.714844 26.332031 C 74.453125 25.664062 73.992188 25.09375 73.472656 24.601562 C 72.109375 23.332031 70.402344 22.429688 68.722656 21.652344 C 66.71875 20.710938 64.632812 19.933594 62.503906 19.265625 C 60.769531 18.71875 58.984375 18.242188 57.183594 17.996094 C 56.691406 17.929688 56.1875 17.875 55.679688 17.902344 C 55.300781 17.929688 54.929688 17.96875 54.5625 18.023438 C 54.167969 18.078125 53.785156 18.132812 53.390625 18.1875 C 52.691406 16.878906 52.066406 15.527344 51.464844 14.164062 C 51.289062 13.753906 51.109375 13.34375 50.933594 12.921875 C 50.402344 11.667969 49.894531 10.382812 49.433594 9.101562 C 49.363281 8.925781 49.269531 8.746094 49.089844 8.664062 C 48.898438 8.570312 48.734375 8.554688 48.53125 8.597656 C 47.902344 8.691406 47.289062 8.789062 46.664062 8.882812 C 46.484375 8.445312 46.292969 7.996094 46.117188 7.558594 C 46.046875 7.382812 45.953125 7.21875 45.777344 7.125 C 45.597656 7.027344 45.40625 7 45.214844 7.054688 C 42.226562 7.832031 39.214844 8.515625 36.183594 9.085938 C 34.667969 9.375 33.15625 9.632812 31.628906 9.878906 C 30.863281 10 30.097656 10.109375 29.320312 10.21875 C 29.128906 10.246094 28.9375 10.273438 28.75 10.300781 C 28.707031 10.300781 28.667969 10.316406 28.613281 10.316406 C 28.503906 10.328125 28.394531 10.34375 28.285156 10.355469 C 27.902344 10.410156 27.519531 10.453125 27.136719 10.507812 C 25.417969 10.710938 23.699219 10.890625 21.96875 11.039062 C 21.707031 11.066406 21.476562 11.160156 21.339844 11.40625 C 21.203125 11.652344 21.230469 11.898438 21.339844 12.144531 C 21.488281 12.472656 21.640625 12.785156 21.789062 13.113281 C 20.984375 13.25 20.195312 13.398438 19.390625 13.535156 C 19.171875 13.578125 18.992188 13.769531 18.910156 13.957031 C 18.816406 14.175781 18.828125 14.410156 18.953125 14.613281 C 19.6875 15.964844 20.371094 17.328125 21.054688 18.691406 C 21.75 20.085938 22.445312 21.488281 23.15625 22.882812 C 23.398438 23.359375 23.644531 23.824219 23.890625 24.300781 C 23.15625 24.492188 22.417969 24.710938 21.707031 25.011719 C 20.945312 25.324219 20.222656 25.691406 19.59375 26.222656 C 19.441406 26.347656 19.308594 26.496094 19.171875 26.632812 C 19.144531 26.660156 19.117188 26.6875 19.089844 26.730469 C 18.800781 27.082031 18.570312 27.480469 18.394531 27.917969 C 18.105469 28.613281 18.011719 29.363281 17.957031 30.113281 C 17.875 31.109375 17.902344 32.117188 17.929688 33.113281 C 17.96875 34.519531 18.039062 35.925781 18.050781 37.34375 C 18.078125 38.84375 17.96875 40.34375 18.132812 41.832031 C 18.296875 43.414062 18.773438 44.890625 19.8125 46.128906 C 20.820312 47.34375 22.214844 48.175781 23.535156 48.996094 C 26.675781 50.945312 29.800781 52.882812 32.9375 54.835938 C 34.34375 55.707031 35.789062 56.582031 37.382812 57.058594 C 39.089844 57.5625 40.824219 57.441406 42.515625 56.949219 C 44.070312 56.5 45.585938 55.832031 47.085938 55.230469 C 48.4375 56.089844 49.800781 56.9375 51.179688 57.769531 C 52.953125 58.859375 54.726562 59.953125 56.484375 61.042969 C 57.441406 61.644531 58.410156 62.242188 59.351562 62.84375 C 59.582031 62.992188 59.871094 62.964844 60.085938 62.84375 C 62.75 61.453125 65.410156 60.058594 68.054688 58.667969 C 70.714844 57.277344 73.375 55.886719 76.023438 54.492188 C 77.511719 53.714844 79.011719 52.925781 80.5 52.148438 C 80.976562 51.902344 81.003906 51.109375 80.511719 50.878906 Z M 39.664062 55.914062 C 39.609375 55.914062 39.566406 55.914062 39.511719 55.914062 C 39.566406 54.546875 39.636719 53.199219 39.703125 51.832031 C 39.785156 50.140625 39.867188 48.449219 39.949219 46.746094 C 39.976562 46.265625 39.992188 45.789062 40.019531 45.324219 C 40.03125 45.324219 40.046875 45.324219 40.074219 45.324219 C 42.050781 45.394531 44.015625 44.847656 45.871094 44.234375 C 47.792969 43.59375 49.691406 42.871094 51.585938 42.171875 C 55.246094 40.835938 58.902344 39.457031 62.503906 37.984375 C 66.132812 36.496094 69.71875 34.886719 73.238281 33.15625 C 73.308594 33.128906 73.375 33.085938 73.429688 33.058594 C 73.390625 33.769531 73.335938 34.480469 73.265625 35.1875 C 73.144531 36.550781 73.023438 37.738281 72.722656 39.078125 C 72.433594 40.386719 72.054688 41.574219 71.304688 42.664062 C 70.988281 43.113281 70.429688 43.6875 69.898438 44.082031 C 69.707031 44.234375 69.488281 44.371094 69.285156 44.507812 C 69.351562 43.019531 69.421875 41.519531 69.488281 40.03125 C 69.5 39.582031 68.996094 39.160156 68.558594 39.320312 C 67.238281 39.8125 65.914062 40.316406 64.589844 40.808594 C 63.253906 41.3125 61.914062 41.804688 60.566406 42.308594 C 59.160156 42.828125 57.769531 43.359375 56.363281 43.878906 C 54.847656 44.4375 53.347656 45.011719 51.832031 45.570312 C 50.183594 46.183594 48.53125 46.800781 46.878906 47.425781 C 46.664062 47.507812 46.457031 47.589844 46.238281 47.660156 C 45.925781 47.78125 45.707031 48.027344 45.695312 48.367188 C 45.652344 50.15625 45.613281 51.941406 45.613281 53.730469 C 45.613281 53.894531 45.613281 54.058594 45.613281 54.207031 C 44.425781 54.699219 43.222656 55.175781 41.984375 55.53125 C 41.246094 55.761719 40.46875 55.914062 39.664062 55.914062 Z M 28.652344 50.441406 C 27.125 49.488281 25.597656 48.546875 24.070312 47.589844 C 22.855469 46.839844 21.585938 46.0625 20.710938 44.929688 C 19.867188 43.8125 19.59375 42.445312 19.523438 41.097656 C 19.441406 39.609375 19.523438 38.109375 19.484375 36.621094 C 19.457031 35.761719 19.429688 34.902344 19.402344 34.042969 C 22.730469 36.171875 26.007812 38.394531 29.347656 40.496094 C 31.027344 41.558594 32.71875 42.625 34.492188 43.539062 C 35.773438 44.207031 37.140625 44.835938 38.558594 45.121094 C 38.53125 45.910156 38.488281 46.691406 38.449219 47.480469 C 38.109375 47.097656 37.78125 46.730469 37.4375 46.347656 C 37.261719 46.15625 36.921875 46.15625 36.742188 46.347656 C 36.550781 46.554688 36.566406 46.839844 36.742188 47.042969 C 37.25 47.605469 37.738281 48.164062 38.246094 48.722656 C 38.285156 48.761719 38.324219 48.789062 38.367188 48.816406 C 38.367188 48.832031 38.367188 48.84375 38.367188 48.859375 C 38.351562 49.269531 38.324219 49.664062 38.3125 50.074219 C 37.753906 49.472656 37.179688 48.859375 36.621094 48.257812 C 36.441406 48.066406 36.101562 48.066406 35.925781 48.257812 C 35.734375 48.464844 35.734375 48.75 35.925781 48.953125 C 36.703125 49.785156 37.464844 50.617188 38.246094 51.453125 C 38.21875 51.957031 38.191406 52.472656 38.175781 52.980469 C 38.148438 52.964844 38.121094 52.9375 38.09375 52.925781 C 37.808594 52.691406 37.519531 52.449219 37.234375 52.203125 C 36.675781 51.710938 36.15625 51.179688 35.664062 50.632812 C 35.378906 50.320312 35.105469 49.992188 34.847656 49.664062 C 34.683594 49.460938 34.316406 49.488281 34.152344 49.664062 C 33.960938 49.882812 33.972656 50.140625 34.152344 50.359375 C 35.09375 51.546875 36.15625 52.625 37.34375 53.578125 C 37.601562 53.785156 37.863281 53.988281 38.121094 54.179688 C 38.09375 54.683594 38.082031 55.203125 38.054688 55.707031 C 37.835938 55.652344 37.617188 55.585938 37.382812 55.515625 C 35.898438 55.011719 34.558594 54.125 33.238281 53.308594 C 31.707031 52.339844 30.179688 51.398438 28.652344 50.441406 Z M 22.417969 14.476562 C 23.480469 16.769531 24.585938 19.046875 25.652344 21.328125 C 26.007812 22.078125 26.359375 22.839844 26.703125 23.589844 C 26.25 23.699219 25.800781 23.808594 25.351562 23.917969 C 24.710938 22.730469 24.109375 21.53125 23.496094 20.316406 C 22.800781 18.925781 22.105469 17.519531 21.394531 16.128906 C 21.164062 15.675781 20.929688 15.226562 20.699219 14.777344 C 21.246094 14.683594 21.804688 14.585938 22.347656 14.476562 C 22.375 14.492188 22.390625 14.492188 22.417969 14.476562 Z M 48.230469 10.125 C 48.628906 11.175781 49.035156 12.199219 49.460938 13.234375 C 50.03125 14.601562 50.617188 15.949219 51.261719 17.273438 C 51.453125 17.667969 51.640625 18.066406 51.847656 18.449219 C 51.453125 18.515625 51.054688 18.582031 50.660156 18.652344 C 50.644531 18.652344 50.632812 18.652344 50.617188 18.652344 C 49.460938 15.867188 48.339844 13.058594 47.207031 10.273438 C 47.550781 10.234375 47.890625 10.179688 48.230469 10.125 Z M 48.367188 16.988281 C 48.628906 17.628906 48.898438 18.285156 49.171875 18.925781 C 47.957031 19.144531 46.746094 19.375 45.53125 19.621094 C 43.566406 20.003906 41.601562 20.398438 39.636719 20.792969 C 37.644531 21.203125 35.664062 21.613281 33.6875 22.050781 C 31.914062 22.429688 30.140625 22.828125 28.367188 23.222656 C 28.296875 23.234375 28.242188 23.25 28.175781 23.261719 C 28.160156 23.234375 28.160156 23.222656 28.148438 23.195312 C 26.730469 20.125 25.253906 17.082031 23.808594 14.011719 C 23.5625 13.480469 23.304688 12.949219 23.058594 12.402344 C 25.828125 12.144531 28.585938 11.804688 31.339844 11.394531 C 34.398438 10.929688 37.453125 10.355469 40.480469 9.703125 C 41.984375 9.375 43.46875 9.019531 44.957031 8.636719 C 46.117188 11.40625 47.222656 14.203125 48.367188 16.988281 Z M 25.078125 25.5 C 25.132812 25.5 25.171875 25.488281 25.226562 25.460938 C 25.761719 25.324219 26.304688 25.199219 26.839844 25.078125 C 30.277344 24.273438 33.714844 23.523438 37.167969 22.800781 C 40.960938 22.007812 44.753906 21.230469 48.558594 20.519531 C 50.03125 20.25 51.519531 19.976562 53.007812 19.730469 C 53.550781 19.648438 54.085938 19.566406 54.628906 19.484375 C 54.628906 19.484375 54.644531 19.484375 54.644531 19.484375 C 54.699219 19.46875 54.753906 19.46875 54.808594 19.46875 C 54.917969 19.457031 55.027344 19.441406 55.121094 19.429688 C 55.285156 19.417969 55.460938 19.390625 55.625 19.390625 C 56.0625 19.363281 56.5 19.402344 56.921875 19.441406 C 56.9375 19.441406 56.964844 19.441406 56.976562 19.441406 C 56.992188 19.441406 57.003906 19.441406 57.003906 19.441406 C 57.085938 19.457031 57.167969 19.46875 57.261719 19.484375 C 57.441406 19.511719 57.617188 19.539062 57.808594 19.578125 C 58.21875 19.660156 58.640625 19.742188 59.050781 19.839844 C 61 20.289062 62.925781 20.902344 64.808594 21.597656 C 65.328125 21.789062 65.832031 21.980469 66.335938 22.199219 C 66.445312 22.242188 66.554688 22.28125 66.664062 22.335938 C 66.691406 22.347656 66.757812 22.375 66.773438 22.375 C 66.828125 22.402344 66.894531 22.429688 66.949219 22.457031 C 67.183594 22.554688 67.414062 22.664062 67.660156 22.773438 C 68.558594 23.183594 69.449219 23.617188 70.292969 24.125 C 70.675781 24.355469 71.058594 24.585938 71.425781 24.847656 C 71.574219 24.941406 71.710938 25.050781 71.847656 25.160156 C 71.808594 25.132812 71.984375 25.269531 72.011719 25.296875 C 72.09375 25.363281 72.175781 25.433594 72.257812 25.5 C 72.460938 25.679688 72.667969 25.871094 72.84375 26.074219 C 71.355469 26.730469 69.871094 27.382812 68.382812 28.011719 C 68.382812 28.011719 68.273438 28.050781 68.261719 28.066406 C 68.234375 28.078125 68.207031 28.09375 68.179688 28.105469 C 68.070312 28.148438 67.960938 28.203125 67.851562 28.242188 C 67.617188 28.339844 67.375 28.449219 67.140625 28.542969 C 66.675781 28.734375 66.214844 28.925781 65.75 29.117188 C 64.792969 29.511719 63.839844 29.894531 62.871094 30.289062 C 59.023438 31.832031 55.148438 33.304688 51.21875 34.640625 C 49.515625 35.214844 47.808594 35.773438 46.074219 36.265625 C 44.726562 36.648438 43.359375 37.003906 41.984375 37.234375 C 41.847656 37.261719 41.722656 37.277344 41.585938 37.304688 C 41.574219 37.304688 41.546875 37.304688 41.519531 37.304688 C 41.53125 37.304688 41.546875 37.304688 41.546875 37.304688 C 41.476562 37.304688 41.394531 37.316406 41.328125 37.332031 C 41.097656 37.359375 40.863281 37.371094 40.617188 37.382812 C 40.414062 37.398438 40.222656 37.398438 40.019531 37.382812 C 39.992188 37.382812 39.964844 37.382812 39.921875 37.371094 C 39.921875 37.371094 39.9375 37.371094 39.9375 37.371094 C 39.921875 37.371094 39.921875 37.371094 39.910156 37.359375 C 39.894531 37.359375 39.894531 37.359375 39.882812 37.359375 C 39.882812 37.359375 39.867188 37.359375 39.867188 37.359375 C 39.855469 37.359375 39.828125 37.34375 39.8125 37.34375 C 39.800781 37.34375 39.800781 37.332031 39.800781 37.332031 C 39.675781 37.304688 39.527344 37.289062 39.402344 37.277344 C 38.503906 37.085938 37.628906 36.785156 36.769531 36.441406 C 36.730469 36.429688 36.6875 36.402344 36.632812 36.390625 C 36.632812 36.390625 36.539062 36.347656 36.511719 36.335938 C 36.417969 36.292969 36.308594 36.253906 36.210938 36.199219 C 35.964844 36.089844 35.707031 35.964844 35.460938 35.855469 C 34.96875 35.625 34.492188 35.378906 34.015625 35.132812 C 29.691406 32.867188 25.679688 30.03125 21.542969 27.4375 C 21.339844 27.300781 21.121094 27.179688 20.917969 27.042969 C 21.148438 26.894531 21.394531 26.757812 21.640625 26.632812 C 21.789062 26.566406 21.941406 26.496094 22.089844 26.429688 C 22.078125 26.429688 22.253906 26.359375 22.292969 26.347656 C 22.402344 26.304688 22.511719 26.265625 22.621094 26.222656 C 22.949219 26.101562 23.289062 25.992188 23.632812 25.898438 C 24.125 25.746094 24.601562 25.625 25.078125 25.5 Z M 19.363281 32.28125 C 19.347656 31.476562 19.347656 30.6875 19.429688 29.878906 C 19.441406 29.785156 19.441406 29.703125 19.457031 29.609375 C 19.457031 29.566406 19.46875 29.527344 19.46875 29.484375 C 19.496094 29.308594 19.539062 29.128906 19.578125 28.953125 C 19.605469 28.816406 19.648438 28.679688 19.703125 28.542969 C 19.730469 28.476562 19.757812 28.421875 19.769531 28.351562 C 19.785156 28.3125 19.796875 28.285156 19.824219 28.242188 C 19.851562 28.203125 19.867188 28.148438 19.894531 28.105469 C 23.933594 30.589844 27.808594 33.320312 31.941406 35.652344 C 33.808594 36.703125 35.746094 37.699219 37.792969 38.339844 C 38.148438 38.449219 38.53125 38.558594 38.898438 38.652344 C 38.804688 40.316406 38.695312 41.984375 38.597656 43.648438 C 37.820312 43.457031 37.070312 43.167969 36.347656 42.84375 C 34.574219 42.023438 32.894531 40.988281 31.230469 39.949219 C 27.5625 37.683594 24 35.257812 20.371094 32.921875 C 20.03125 32.703125 19.703125 32.488281 19.363281 32.28125 Z M 40.359375 38.84375 C 40.671875 38.84375 41 38.816406 41.3125 38.777344 C 42.652344 38.625 43.960938 38.324219 45.257812 37.984375 C 46.921875 37.546875 48.558594 37.042969 50.195312 36.496094 C 54.125 35.203125 57.988281 33.753906 61.835938 32.226562 C 65.546875 30.765625 69.214844 29.238281 72.871094 27.628906 C 73.0625 27.546875 73.238281 27.464844 73.429688 27.382812 C 73.429688 27.4375 73.445312 27.492188 73.445312 27.546875 C 73.511719 28.351562 73.539062 29.171875 73.539062 29.988281 C 73.539062 30.453125 73.527344 30.902344 73.511719 31.367188 C 70.199219 33.03125 66.800781 34.613281 63.390625 36.035156 C 59.871094 37.507812 56.292969 38.871094 52.707031 40.195312 C 50.808594 40.90625 48.898438 41.601562 47.003906 42.28125 C 45.242188 42.925781 43.375 43.578125 41.53125 43.785156 C 41.042969 43.839844 40.550781 43.867188 40.058594 43.839844 C 40.15625 42.1875 40.261719 40.507812 40.359375 38.84375 Z M 78.34375 51.453125 C 78.070312 51.453125 77.796875 51.4375 77.539062 51.410156 C 77.304688 51.398438 77.085938 51.371094 76.855469 51.34375 C 76.84375 51.34375 76.746094 51.328125 76.734375 51.328125 C 76.679688 51.316406 76.636719 51.316406 76.582031 51.300781 C 76.472656 51.289062 76.351562 51.261719 76.242188 51.246094 C 75.328125 51.082031 74.441406 50.851562 73.566406 50.523438 C 73.320312 50.429688 73.023438 50.617188 72.96875 50.863281 C 72.898438 51.136719 73.050781 51.371094 73.308594 51.464844 C 74.480469 51.902344 75.722656 52.1875 76.964844 52.324219 C 76.5 52.570312 76.023438 52.816406 75.558594 53.0625 C 74.617188 52.855469 73.691406 52.652344 72.75 52.449219 C 72.503906 52.394531 72.203125 52.515625 72.148438 52.789062 C 72.09375 53.035156 72.21875 53.335938 72.488281 53.390625 C 73.0625 53.511719 73.636719 53.632812 74.207031 53.757812 C 73.402344 54.179688 72.597656 54.601562 71.792969 55.027344 C 69.132812 56.417969 66.472656 57.808594 63.824219 59.199219 C 62.460938 59.910156 61.109375 60.621094 59.746094 61.328125 C 58.148438 60.304688 56.527344 59.308594 54.917969 58.3125 C 53.144531 57.222656 51.371094 56.132812 49.609375 55.039062 C 48.777344 54.519531 47.929688 53.988281 47.097656 53.46875 C 47.097656 52.367188 47.113281 51.246094 47.140625 50.140625 C 47.152344 49.71875 47.152344 49.296875 47.167969 48.871094 C 48.65625 48.3125 50.15625 47.753906 51.640625 47.195312 C 53.15625 46.621094 54.671875 46.0625 56.1875 45.488281 C 57.589844 44.957031 59.011719 44.4375 60.414062 43.90625 C 60.878906 43.730469 61.34375 43.566406 61.808594 43.386719 C 64.140625 44.519531 66.460938 45.652344 68.792969 46.785156 C 71.125 47.917969 73.457031 49.0625 75.792969 50.195312 C 76.652344 50.617188 77.496094 51.042969 78.34375 51.453125 Z M 67.796875 44.683594 C 67.359375 44.464844 66.910156 44.261719 66.472656 44.042969 C 65.546875 43.59375 64.632812 43.140625 63.703125 42.691406 C 63.960938 42.597656 64.222656 42.5 64.46875 42.40625 C 65.628906 41.96875 66.785156 41.53125 67.945312 41.109375 C 67.90625 42.296875 67.851562 43.496094 67.796875 44.683594 Z M 67.796875 44.683594 " fill-opacity="1" fill-rule="nonzero"/></g><path fill="#ffffff" d="M 44.246094 42.160156 C 44.835938 42.5 45.515625 42.5 46.128906 42.214844 C 46.675781 41.957031 47.097656 41.421875 47.261719 40.851562 C 47.34375 40.507812 47.386719 40.128906 47.277344 39.785156 C 47.152344 39.429688 46.933594 39.144531 46.621094 38.941406 C 46.128906 38.597656 45.460938 38.585938 44.902344 38.707031 C 44.34375 38.832031 43.769531 39.1875 43.484375 39.703125 C 43.007812 40.589844 43.402344 41.667969 44.246094 42.160156 Z M 44.820312 40.753906 C 44.792969 40.714844 44.78125 40.6875 44.765625 40.644531 C 44.753906 40.617188 44.753906 40.578125 44.738281 40.550781 C 44.738281 40.523438 44.738281 40.507812 44.738281 40.480469 C 44.738281 40.46875 44.753906 40.453125 44.753906 40.441406 C 44.765625 40.414062 44.78125 40.398438 44.792969 40.371094 C 44.820312 40.34375 44.847656 40.316406 44.863281 40.304688 C 44.890625 40.289062 44.902344 40.277344 44.929688 40.261719 C 44.96875 40.234375 45.011719 40.207031 45.050781 40.195312 C 45.148438 40.15625 45.257812 40.128906 45.351562 40.113281 C 45.449219 40.101562 45.53125 40.101562 45.625 40.113281 C 45.679688 40.128906 45.722656 40.140625 45.777344 40.15625 C 45.789062 40.167969 45.816406 40.167969 45.832031 40.183594 C 45.832031 40.183594 45.84375 40.195312 45.84375 40.195312 C 45.84375 40.195312 45.859375 40.207031 45.859375 40.207031 C 45.859375 40.222656 45.859375 40.234375 45.871094 40.234375 C 45.871094 40.277344 45.871094 40.316406 45.871094 40.34375 C 45.859375 40.386719 45.859375 40.414062 45.84375 40.453125 C 45.832031 40.480469 45.816406 40.523438 45.816406 40.550781 C 45.789062 40.589844 45.777344 40.632812 45.75 40.671875 C 45.761719 40.660156 45.761719 40.660156 45.777344 40.644531 C 45.761719 40.660156 45.761719 40.660156 45.75 40.671875 C 45.75 40.671875 45.75 40.671875 45.75 40.6875 C 45.734375 40.714844 45.707031 40.742188 45.695312 40.742188 C 45.695312 40.742188 45.679688 40.753906 45.679688 40.753906 C 45.652344 40.78125 45.625 40.796875 45.597656 40.824219 C 45.542969 40.851562 45.503906 40.878906 45.449219 40.90625 C 45.394531 40.917969 45.351562 40.933594 45.296875 40.945312 C 45.257812 40.945312 45.230469 40.945312 45.1875 40.945312 C 45.148438 40.933594 45.09375 40.917969 45.050781 40.90625 C 45.023438 40.890625 44.984375 40.863281 44.957031 40.851562 C 44.96875 40.863281 44.984375 40.863281 44.996094 40.878906 C 44.984375 40.863281 44.96875 40.851562 44.957031 40.835938 C 44.929688 40.824219 44.914062 40.796875 44.914062 40.796875 C 44.863281 40.796875 44.847656 40.78125 44.820312 40.753906 Z M 44.820312 40.753906 " fill-opacity="1" fill-rule="nonzero"/><path fill="#ffffff" d="M 44.890625 40.824219 C 44.902344 40.835938 44.914062 40.851562 44.929688 40.863281 C 44.929688 40.863281 44.929688 40.863281 44.941406 40.878906 C 44.902344 40.824219 44.890625 40.808594 44.890625 40.824219 Z M 44.890625 40.824219 " fill-opacity="1" fill-rule="nonzero"/><path fill="#ffffff" d="M 45.679688 40.753906 C 45.695312 40.742188 45.722656 40.714844 45.734375 40.699219 C 45.734375 40.699219 45.734375 40.699219 45.734375 40.6875 C 45.679688 40.742188 45.667969 40.753906 45.679688 40.753906 Z M 45.679688 40.753906 " fill-opacity="1" fill-rule="nonzero"/><path fill="#ffffff" d="M 68.015625 24.929688 C 68.480469 25.226562 68.941406 25.527344 69.40625 25.816406 C 69.625 25.953125 69.953125 25.871094 70.074219 25.636719 C 70.199219 25.390625 70.128906 25.117188 69.898438 24.96875 C 69.433594 24.667969 68.96875 24.367188 68.507812 24.082031 C 68.289062 23.945312 67.960938 24.027344 67.835938 24.257812 C 67.714844 24.503906 67.78125 24.777344 68.015625 24.929688 Z M 68.015625 24.929688 " fill-opacity="1" fill-rule="nonzero"/><path fill="#ffffff" d="M 26.550781 14.710938 C 26.414062 14.492188 26.101562 14.394531 25.882812 14.53125 C 25.664062 14.683594 25.570312 14.96875 25.707031 15.199219 C 26.035156 15.757812 26.375 16.332031 26.703125 16.890625 C 26.839844 17.109375 27.152344 17.207031 27.371094 17.070312 C 27.589844 16.917969 27.683594 16.632812 27.546875 16.402344 C 27.21875 15.839844 26.878906 15.28125 26.550781 14.710938 Z M 26.550781 14.710938 " fill-opacity="1" fill-rule="nonzero"/></svg>