<svg xmlns="http://www.w3.org/2000/svg" xmlns:xlink="http://www.w3.org/1999/xlink" width="132" zoomAndPan="magnify" viewBox="0 0 98.88 70.499998" height="94" preserveAspectRatio="xMidYMid meet" version="1.0"><defs><g/><clipPath id="565172b9f2"><path d="M 26 17 L 65 17 L 65 48.636719 L 26 48.636719 Z M 26 17 " clip-rule="nonzero"/></clipPath><clipPath id="a0cda649ba"><path d="M 19.089844 6.933594 L 71.964844 6.933594 L 71.964844 22 L 19.089844 22 Z M 19.089844 6.933594 " clip-rule="nonzero"/></clipPath><clipPath id="4f5f15e685"><path d="M 41 40 L 50 40 L 50 48.636719 L 41 48.636719 Z M 41 40 " clip-rule="nonzero"/></clipPath></defs><g clip-path="url(#565172b9f2)"><path fill="#ffffff" d="M 30.273438 29.042969 C 34.507812 24.9375 39.589844 22.738281 45.535156 22.738281 C 51.484375 22.738281 56.5625 24.945312 60.769531 29.027344 C 62.015625 27.789062 63.25 26.5625 64.480469 25.332031 C 53.871094 14.605469 36.574219 15.078125 26.566406 25.355469 C 27.792969 26.578125 29.023438 27.800781 30.273438 29.042969 Z M 37.679688 36.511719 C 39.875 34.386719 42.476562 33.238281 45.53125 33.238281 C 48.585938 33.238281 51.195312 34.390625 53.324219 36.457031 C 54.582031 35.207031 55.816406 33.980469 57.046875 32.75 C 50.335938 26.03125 39.820312 26.71875 33.976562 32.808594 C 34 32.832031 34.019531 32.859375 34.042969 32.886719 C 35.246094 34.085938 36.449219 35.285156 37.679688 36.511719 Z M 49.789062 44.378906 C 49.789062 42.039062 47.898438 40.148438 45.558594 40.148438 C 43.234375 40.152344 41.335938 42.039062 41.324219 44.359375 C 41.316406 46.691406 43.214844 48.597656 45.550781 48.601562 C 47.898438 48.605469 49.789062 46.722656 49.789062 44.378906 Z M 49.789062 44.378906 " fill-opacity="1" fill-rule="nonzero"/></g><g clip-path="url(#a0cda649ba)"><path fill="#ffffff" d="M 71.96875 18.003906 C 71.894531 18.058594 71.8125 18.109375 71.746094 18.175781 C 70.65625 19.261719 69.5625 20.355469 68.476562 21.445312 C 68.40625 21.515625 68.359375 21.601562 68.300781 21.683594 C 61.921875 15.515625 54.375 12.242188 45.53125 12.242188 C 36.691406 12.242188 29.152344 15.511719 22.796875 21.648438 C 22.738281 21.589844 22.671875 21.527344 22.605469 21.460938 C 21.507812 20.367188 20.410156 19.269531 19.3125 18.175781 C 19.246094 18.109375 19.164062 18.058594 19.089844 18.003906 C 19.089844 17.96875 19.089844 17.933594 19.089844 17.898438 C 19.160156 17.84375 19.234375 17.796875 19.292969 17.738281 C 20.621094 16.445312 22.023438 15.238281 23.519531 14.148438 C 27.476562 11.261719 31.832031 9.21875 36.589844 8.042969 C 38.667969 7.53125 40.777344 7.1875 42.917969 7.058594 C 43.339844 7.035156 43.757812 6.992188 44.179688 6.960938 C 45.078125 6.960938 45.980469 6.960938 46.878906 6.960938 C 46.9375 6.972656 47 6.988281 47.058594 6.996094 C 48.148438 7.089844 49.238281 7.160156 50.324219 7.28125 C 52.539062 7.53125 54.707031 8.027344 56.832031 8.707031 C 62.382812 10.488281 67.257812 13.40625 71.457031 17.449219 C 71.621094 17.605469 71.796875 17.75 71.96875 17.898438 C 71.96875 17.933594 71.96875 17.96875 71.96875 18.003906 Z M 71.96875 18.003906 " fill-opacity="1" fill-rule="nonzero"/></g><path fill="#ffffff" d="M 30.273438 29.042969 C 29.023438 27.800781 27.792969 26.578125 26.566406 25.355469 C 36.574219 15.078125 53.871094 14.605469 64.480469 25.332031 C 63.25 26.5625 62.015625 27.789062 60.769531 29.027344 C 56.5625 24.945312 51.484375 22.738281 45.535156 22.738281 C 39.589844 22.738281 34.507812 24.9375 30.273438 29.042969 Z M 30.273438 29.042969 " fill-opacity="1" fill-rule="nonzero"/><path fill="#ffffff" d="M 37.679688 36.511719 C 36.449219 35.285156 35.246094 34.085938 34.042969 32.886719 C 34.019531 32.859375 34 32.832031 33.976562 32.808594 C 39.820312 26.71875 50.335938 26.03125 57.046875 32.75 C 55.816406 33.980469 54.582031 35.207031 53.324219 36.457031 C 51.195312 34.390625 48.585938 33.238281 45.53125 33.238281 C 42.476562 33.238281 39.875 34.386719 37.679688 36.511719 Z M 37.679688 36.511719 " fill-opacity="1" fill-rule="nonzero"/><g clip-path="url(#4f5f15e685)"><path fill="#ffffff" d="M 49.789062 44.378906 C 49.789062 46.722656 47.898438 48.605469 45.550781 48.601562 C 43.214844 48.597656 41.316406 46.691406 41.324219 44.359375 C 41.335938 42.039062 43.234375 40.152344 45.558594 40.148438 C 47.898438 40.148438 49.789062 42.039062 49.789062 44.378906 Z M 49.789062 44.378906 " fill-opacity="1" fill-rule="nonzero"/></g><g fill="#ffffff" fill-opacity="1"><g transform="translate(6.313755, 60.826128)"><g><path d="M 0.078125 -5.703125 L 1.171875 -5.703125 L 2.3125 -1.65625 L 3.578125 -5.703125 L 4.3125 -5.703125 L 5.625 -1.765625 L 6.71875 -5.703125 L 7.8125 -5.703125 L 6.140625 0 L 5.21875 0 L 3.9375 -3.8125 L 2.671875 0 L 1.6875 0 Z M 0.078125 -5.703125 "/></g></g></g><g fill="#ffffff" fill-opacity="1"><g transform="translate(14.173976, 60.826128)"><g><path d="M 0.46875 -5.703125 L 1.484375 -5.703125 L 1.484375 -4.703125 L 0.46875 -4.703125 Z M 0.46875 -4.078125 L 1.484375 -4.078125 L 1.484375 0 L 0.46875 0 Z M 0.46875 -4.078125 "/></g></g></g><g fill="#ffffff" fill-opacity="1"><g transform="translate(16.132916, 60.826128)"><g><path d="M 0.71875 -3.25 L 0.140625 -3.25 L 0.234375 -4.078125 L 0.71875 -4.078125 L 0.71875 -4.9375 C 0.71875 -5.300781 0.820312 -5.585938 1.03125 -5.796875 C 1.25 -6.015625 1.554688 -6.125 1.953125 -6.125 C 2.179688 -6.125 2.40625 -6.097656 2.625 -6.046875 L 2.53125 -5.234375 C 2.4375 -5.253906 2.328125 -5.265625 2.203125 -5.265625 C 1.890625 -5.265625 1.734375 -5.097656 1.734375 -4.765625 L 1.734375 -4.078125 L 2.625 -4.078125 L 2.625 -3.25 L 1.734375 -3.25 L 1.734375 0 L 0.71875 0 Z M 0.71875 -3.25 "/></g></g></g><g fill="#ffffff" fill-opacity="1"><g transform="translate(18.90807, 60.826128)"><g><path d="M 0.46875 -5.703125 L 1.484375 -5.703125 L 1.484375 -4.703125 L 0.46875 -4.703125 Z M 0.46875 -4.078125 L 1.484375 -4.078125 L 1.484375 0 L 0.46875 0 Z M 0.46875 -4.078125 "/></g></g></g><g fill="#ffffff" fill-opacity="1"><g transform="translate(20.867009, 60.826128)"><g/></g></g><g fill="#ffffff" fill-opacity="1"><g transform="translate(22.703506, 60.826128)"><g><path d="M 0.625 -5.703125 L 1.671875 -5.703125 L 1.671875 -3.453125 L 4.28125 -3.453125 L 4.28125 -5.703125 L 5.328125 -5.703125 L 5.328125 0 L 4.28125 0 L 4.28125 -2.46875 L 1.671875 -2.46875 L 1.671875 0 L 0.625 0 Z M 0.625 -5.703125 "/></g></g></g><g fill="#ffffff" fill-opacity="1"><g transform="translate(28.661931, 60.826128)"><g><path d="M 2.328125 0.078125 C 1.898438 0.078125 1.523438 -0.015625 1.203125 -0.203125 C 0.890625 -0.390625 0.648438 -0.644531 0.484375 -0.96875 C 0.316406 -1.289062 0.234375 -1.644531 0.234375 -2.03125 C 0.234375 -2.414062 0.316406 -2.769531 0.484375 -3.09375 C 0.648438 -3.425781 0.890625 -3.6875 1.203125 -3.875 C 1.523438 -4.0625 1.898438 -4.15625 2.328125 -4.15625 C 2.753906 -4.15625 3.125 -4.0625 3.4375 -3.875 C 3.757812 -3.6875 4.003906 -3.425781 4.171875 -3.09375 C 4.335938 -2.769531 4.421875 -2.414062 4.421875 -2.03125 C 4.421875 -1.644531 4.335938 -1.289062 4.171875 -0.96875 C 4.003906 -0.644531 3.757812 -0.390625 3.4375 -0.203125 C 3.125 -0.015625 2.753906 0.078125 2.328125 0.078125 Z M 2.328125 -0.75 C 2.660156 -0.75 2.921875 -0.863281 3.109375 -1.09375 C 3.296875 -1.332031 3.390625 -1.644531 3.390625 -2.03125 C 3.390625 -2.425781 3.296875 -2.738281 3.109375 -2.96875 C 2.921875 -3.207031 2.660156 -3.328125 2.328125 -3.328125 C 1.992188 -3.328125 1.734375 -3.207031 1.546875 -2.96875 C 1.359375 -2.738281 1.265625 -2.425781 1.265625 -2.03125 C 1.265625 -1.644531 1.359375 -1.332031 1.546875 -1.09375 C 1.734375 -0.863281 1.992188 -0.75 2.328125 -0.75 Z M 1.90625 0.65625 L 2.75 0.65625 L 2.75 1.453125 L 1.90625 1.453125 Z M 1.90625 0.65625 "/></g></g></g><g fill="#ffffff" fill-opacity="1"><g transform="translate(33.314399, 60.826128)"><g><path d="M 2.359375 0.078125 C 1.910156 0.078125 1.523438 -0.015625 1.203125 -0.203125 C 0.878906 -0.390625 0.632812 -0.640625 0.46875 -0.953125 C 0.3125 -1.273438 0.234375 -1.632812 0.234375 -2.03125 C 0.234375 -2.425781 0.3125 -2.785156 0.46875 -3.109375 C 0.632812 -3.429688 0.878906 -3.6875 1.203125 -3.875 C 1.535156 -4.0625 1.929688 -4.15625 2.390625 -4.15625 C 2.816406 -4.15625 3.179688 -4.070312 3.484375 -3.90625 L 3.40625 -3.078125 C 3.113281 -3.234375 2.8125 -3.3125 2.5 -3.3125 C 2.113281 -3.3125 1.8125 -3.191406 1.59375 -2.953125 C 1.375 -2.722656 1.265625 -2.414062 1.265625 -2.03125 C 1.265625 -1.65625 1.375 -1.347656 1.59375 -1.109375 C 1.820312 -0.867188 2.117188 -0.75 2.484375 -0.75 C 2.796875 -0.75 3.109375 -0.835938 3.421875 -1.015625 L 3.5 -0.15625 C 3.351562 -0.0820312 3.179688 -0.0234375 2.984375 0.015625 C 2.785156 0.0546875 2.578125 0.078125 2.359375 0.078125 Z M 2.359375 0.078125 "/></g></g></g><g fill="#ffffff" fill-opacity="1"><g transform="translate(37.02821, 60.826128)"><g/></g></g><g fill="#ffffff" fill-opacity="1"><g transform="translate(38.864707, 60.826128)"><g><path d="M 0.03125 -4.078125 L 1.015625 -4.078125 L 2.015625 -1.25 L 3.03125 -4.078125 L 4.015625 -4.078125 L 2.453125 0 L 1.59375 0 Z M 0.03125 -4.078125 "/></g></g></g><g fill="#ffffff" fill-opacity="1"><g transform="translate(42.913177, 60.826128)"><g><path d="M 0.46875 -5.703125 L 1.484375 -5.703125 L 1.484375 -4.703125 L 0.46875 -4.703125 Z M 0.46875 -4.078125 L 1.484375 -4.078125 L 1.484375 0 L 0.46875 0 Z M 0.46875 -4.078125 "/></g></g></g><g fill="#ffffff" fill-opacity="1"><g transform="translate(44.872117, 60.826128)"><g><path d="M 2.4375 0.078125 C 1.96875 0.078125 1.5625 -0.015625 1.21875 -0.203125 C 0.882812 -0.398438 0.632812 -0.660156 0.46875 -0.984375 C 0.3125 -1.304688 0.234375 -1.664062 0.234375 -2.0625 C 0.234375 -2.445312 0.3125 -2.796875 0.46875 -3.109375 C 0.625 -3.421875 0.847656 -3.671875 1.140625 -3.859375 C 1.441406 -4.046875 1.800781 -4.140625 2.21875 -4.140625 C 2.601562 -4.140625 2.925781 -4.0625 3.1875 -3.90625 C 3.445312 -3.75 3.644531 -3.535156 3.78125 -3.265625 C 3.914062 -3.003906 3.984375 -2.707031 3.984375 -2.375 C 3.984375 -2.207031 3.960938 -2.019531 3.921875 -1.8125 L 1.28125 -1.8125 C 1.332031 -1.457031 1.472656 -1.191406 1.703125 -1.015625 C 1.929688 -0.835938 2.207031 -0.75 2.53125 -0.75 C 2.96875 -0.75 3.375 -0.859375 3.75 -1.078125 L 3.796875 -0.234375 C 3.628906 -0.140625 3.425781 -0.0625 3.1875 0 C 2.957031 0.0507812 2.707031 0.078125 2.4375 0.078125 Z M 2.953125 -2.5 C 2.953125 -2.71875 2.890625 -2.90625 2.765625 -3.0625 C 2.648438 -3.226562 2.46875 -3.3125 2.21875 -3.3125 C 1.96875 -3.3125 1.765625 -3.238281 1.609375 -3.09375 C 1.460938 -2.945312 1.363281 -2.75 1.3125 -2.5 Z M 1.21875 -5.15625 L 2.296875 -6.078125 L 3.375 -5.15625 L 3.375 -4.515625 L 2.296875 -5.203125 L 1.21875 -4.515625 Z M 1.6875 0.65625 L 2.53125 0.65625 L 2.53125 1.453125 L 1.6875 1.453125 Z M 1.6875 0.65625 "/></g></g></g><g fill="#ffffff" fill-opacity="1"><g transform="translate(49.07566, 60.826128)"><g><path d="M 2.53125 -4.140625 C 3.03125 -4.140625 3.410156 -3.96875 3.671875 -3.625 C 3.929688 -3.289062 4.0625 -2.84375 4.0625 -2.28125 L 4.0625 0 L 3.0625 0 L 3.0625 -2.1875 C 3.0625 -2.570312 2.992188 -2.851562 2.859375 -3.03125 C 2.734375 -3.21875 2.53125 -3.3125 2.25 -3.3125 C 1.9375 -3.3125 1.679688 -3.191406 1.484375 -2.953125 L 1.484375 0 L 0.46875 0 L 0.46875 -4.078125 L 1.421875 -4.078125 L 1.4375 -3.796875 C 1.78125 -4.023438 2.144531 -4.140625 2.53125 -4.140625 Z M 2.53125 -4.140625 "/></g></g></g><g fill="#ffffff" fill-opacity="1"><g transform="translate(53.581212, 60.826128)"><g/></g></g><g fill="#ffffff" fill-opacity="1"><g transform="translate(55.417709, 60.826128)"><g><path d="M 0.625 -5.703125 L 1.65625 -5.703125 L 4.09375 -2.015625 L 4.09375 -5.703125 L 5.140625 -5.703125 L 5.140625 0 L 4.28125 0 L 1.671875 -3.921875 L 1.671875 0 L 0.625 0 Z M 0.625 -5.703125 "/></g></g></g><g fill="#ffffff" fill-opacity="1"><g transform="translate(61.188401, 60.826128)"><g><path d="M 2.09375 2.0625 C 1.507812 2.0625 1.046875 1.953125 0.703125 1.734375 C 0.367188 1.523438 0.203125 1.242188 0.203125 0.890625 C 0.203125 0.492188 0.421875 0.171875 0.859375 -0.078125 C 0.617188 -0.222656 0.5 -0.414062 0.5 -0.65625 C 0.5 -0.78125 0.535156 -0.890625 0.609375 -0.984375 C 0.679688 -1.085938 0.78125 -1.164062 0.90625 -1.21875 C 0.695312 -1.363281 0.539062 -1.550781 0.4375 -1.78125 C 0.332031 -2.007812 0.28125 -2.257812 0.28125 -2.53125 C 0.28125 -2.832031 0.34375 -3.109375 0.46875 -3.359375 C 0.601562 -3.609375 0.796875 -3.800781 1.046875 -3.9375 C 1.296875 -4.082031 1.59375 -4.15625 1.9375 -4.15625 C 2.289062 -4.15625 2.597656 -4.070312 2.859375 -3.90625 C 2.953125 -3.945312 3.078125 -3.984375 3.234375 -4.015625 C 3.390625 -4.054688 3.554688 -4.078125 3.734375 -4.078125 L 4 -4.078125 L 3.9375 -3.4375 L 3.5625 -3.4375 C 3.46875 -3.4375 3.390625 -3.4375 3.328125 -3.4375 C 3.492188 -3.1875 3.578125 -2.882812 3.578125 -2.53125 C 3.578125 -2.238281 3.515625 -1.96875 3.390625 -1.71875 C 3.265625 -1.46875 3.078125 -1.269531 2.828125 -1.125 C 2.578125 -0.976562 2.28125 -0.90625 1.9375 -0.90625 C 1.8125 -0.90625 1.664062 -0.925781 1.5 -0.96875 C 1.4375 -0.945312 1.40625 -0.90625 1.40625 -0.84375 C 1.40625 -0.769531 1.445312 -0.710938 1.53125 -0.671875 C 1.613281 -0.628906 1.757812 -0.597656 1.96875 -0.578125 L 2.671875 -0.484375 C 3.597656 -0.359375 4.0625 0.0351562 4.0625 0.703125 C 4.0625 1.117188 3.882812 1.445312 3.53125 1.6875 C 3.1875 1.9375 2.707031 2.0625 2.09375 2.0625 Z M 1.9375 -1.65625 C 2.164062 -1.65625 2.34375 -1.734375 2.46875 -1.890625 C 2.601562 -2.046875 2.671875 -2.257812 2.671875 -2.53125 C 2.671875 -2.800781 2.601562 -3.015625 2.46875 -3.171875 C 2.34375 -3.328125 2.164062 -3.40625 1.9375 -3.40625 C 1.695312 -3.40625 1.507812 -3.328125 1.375 -3.171875 C 1.25 -3.015625 1.1875 -2.800781 1.1875 -2.53125 C 1.1875 -2.257812 1.25 -2.046875 1.375 -1.890625 C 1.507812 -1.734375 1.695312 -1.65625 1.9375 -1.65625 Z M 2.125 1.28125 C 2.820312 1.28125 3.171875 1.113281 3.171875 0.78125 C 3.171875 0.625 3.109375 0.507812 2.984375 0.4375 C 2.867188 0.363281 2.671875 0.304688 2.390625 0.265625 L 1.5 0.125 C 1.1875 0.25 1.03125 0.441406 1.03125 0.703125 C 1.03125 0.898438 1.125 1.046875 1.3125 1.140625 C 1.507812 1.234375 1.78125 1.28125 2.125 1.28125 Z M 2.125 1.28125 "/></g></g></g><g fill="#ffffff" fill-opacity="1"><g transform="translate(65.277679, 60.826128)"><g><path d="M 2.328125 0.078125 C 1.898438 0.078125 1.523438 -0.015625 1.203125 -0.203125 C 0.890625 -0.390625 0.648438 -0.644531 0.484375 -0.96875 C 0.316406 -1.289062 0.234375 -1.644531 0.234375 -2.03125 C 0.234375 -2.414062 0.316406 -2.769531 0.484375 -3.09375 C 0.648438 -3.425781 0.890625 -3.6875 1.203125 -3.875 C 1.523438 -4.0625 1.898438 -4.15625 2.328125 -4.15625 C 2.753906 -4.15625 3.125 -4.0625 3.4375 -3.875 C 3.757812 -3.6875 4.003906 -3.425781 4.171875 -3.09375 C 4.335938 -2.769531 4.421875 -2.414062 4.421875 -2.03125 C 4.421875 -1.644531 4.335938 -1.289062 4.171875 -0.96875 C 4.003906 -0.644531 3.757812 -0.390625 3.4375 -0.203125 C 3.125 -0.015625 2.753906 0.078125 2.328125 0.078125 Z M 2.328125 -0.75 C 2.660156 -0.75 2.921875 -0.863281 3.109375 -1.09375 C 3.296875 -1.332031 3.390625 -1.644531 3.390625 -2.03125 C 3.390625 -2.425781 3.296875 -2.738281 3.109375 -2.96875 C 2.921875 -3.207031 2.660156 -3.328125 2.328125 -3.328125 C 1.992188 -3.328125 1.734375 -3.207031 1.546875 -2.96875 C 1.359375 -2.738281 1.265625 -2.425781 1.265625 -2.03125 C 1.265625 -1.644531 1.359375 -1.332031 1.546875 -1.09375 C 1.734375 -0.863281 1.992188 -0.75 2.328125 -0.75 Z M 2.328125 -0.75 "/></g></g></g><g fill="#ffffff" fill-opacity="1"><g transform="translate(69.930147, 60.826128)"><g><path d="M 1.359375 0.078125 C 1.015625 0.078125 0.726562 -0.03125 0.5 -0.25 C 0.28125 -0.46875 0.171875 -0.765625 0.171875 -1.140625 C 0.171875 -1.492188 0.296875 -1.773438 0.546875 -1.984375 C 0.804688 -2.203125 1.109375 -2.351562 1.453125 -2.4375 C 1.804688 -2.53125 2.144531 -2.585938 2.46875 -2.609375 C 2.457031 -2.835938 2.394531 -3.003906 2.28125 -3.109375 C 2.164062 -3.210938 1.984375 -3.265625 1.734375 -3.265625 C 1.546875 -3.265625 1.367188 -3.238281 1.203125 -3.1875 C 1.035156 -3.144531 0.835938 -3.066406 0.609375 -2.953125 L 0.515625 -3.78125 C 1.015625 -4.019531 1.507812 -4.140625 2 -4.140625 C 2.476562 -4.140625 2.84375 -4.007812 3.09375 -3.75 C 3.351562 -3.488281 3.484375 -3.070312 3.484375 -2.5 L 3.484375 -1.40625 C 3.484375 -1.195312 3.492188 -1.046875 3.515625 -0.953125 C 3.535156 -0.867188 3.566406 -0.8125 3.609375 -0.78125 C 3.648438 -0.757812 3.726562 -0.75 3.84375 -0.75 L 3.96875 -0.75 L 3.875 0.078125 L 3.515625 0.078125 C 3.296875 0.078125 3.109375 0.0351562 2.953125 -0.046875 C 2.796875 -0.128906 2.679688 -0.242188 2.609375 -0.390625 C 2.472656 -0.242188 2.289062 -0.128906 2.0625 -0.046875 C 1.84375 0.0351562 1.609375 0.078125 1.359375 0.078125 Z M 1.78125 -0.6875 C 1.882812 -0.6875 2 -0.710938 2.125 -0.765625 C 2.257812 -0.816406 2.375 -0.890625 2.46875 -0.984375 L 2.46875 -1.921875 C 2.144531 -1.898438 1.859375 -1.828125 1.609375 -1.703125 C 1.359375 -1.578125 1.234375 -1.40625 1.234375 -1.1875 C 1.234375 -1.019531 1.273438 -0.894531 1.359375 -0.8125 C 1.453125 -0.726562 1.59375 -0.6875 1.78125 -0.6875 Z M 1.609375 0.65625 L 2.453125 0.65625 L 2.453125 1.453125 L 1.609375 1.453125 Z M 1.609375 0.65625 "/></g></g></g><g fill="#ffffff" fill-opacity="1"><g transform="translate(73.994932, 60.826128)"><g><path d="M 0.46875 -5.703125 L 1.484375 -5.703125 L 1.484375 -4.703125 L 0.46875 -4.703125 Z M 0.46875 -4.078125 L 1.484375 -4.078125 L 1.484375 0 L 0.46875 0 Z M 0.46875 -4.078125 "/></g></g></g><g fill="#ffffff" fill-opacity="1"><g transform="translate(75.953872, 60.826128)"><g/></g></g><g fill="#ffffff" fill-opacity="1"><g transform="translate(77.790369, 60.826128)"><g><path d="M 2.09375 2.0625 C 1.507812 2.0625 1.046875 1.953125 0.703125 1.734375 C 0.367188 1.523438 0.203125 1.242188 0.203125 0.890625 C 0.203125 0.492188 0.421875 0.171875 0.859375 -0.078125 C 0.617188 -0.222656 0.5 -0.414062 0.5 -0.65625 C 0.5 -0.78125 0.535156 -0.890625 0.609375 -0.984375 C 0.679688 -1.085938 0.78125 -1.164062 0.90625 -1.21875 C 0.695312 -1.363281 0.539062 -1.550781 0.4375 -1.78125 C 0.332031 -2.007812 0.28125 -2.257812 0.28125 -2.53125 C 0.28125 -2.832031 0.34375 -3.109375 0.46875 -3.359375 C 0.601562 -3.609375 0.796875 -3.800781 1.046875 -3.9375 C 1.296875 -4.082031 1.59375 -4.15625 1.9375 -4.15625 C 2.289062 -4.15625 2.597656 -4.070312 2.859375 -3.90625 C 2.953125 -3.945312 3.078125 -3.984375 3.234375 -4.015625 C 3.390625 -4.054688 3.554688 -4.078125 3.734375 -4.078125 L 4 -4.078125 L 3.9375 -3.4375 L 3.5625 -3.4375 C 3.46875 -3.4375 3.390625 -3.4375 3.328125 -3.4375 C 3.492188 -3.1875 3.578125 -2.882812 3.578125 -2.53125 C 3.578125 -2.238281 3.515625 -1.96875 3.390625 -1.71875 C 3.265625 -1.46875 3.078125 -1.269531 2.828125 -1.125 C 2.578125 -0.976562 2.28125 -0.90625 1.9375 -0.90625 C 1.8125 -0.90625 1.664062 -0.925781 1.5 -0.96875 C 1.4375 -0.945312 1.40625 -0.90625 1.40625 -0.84375 C 1.40625 -0.769531 1.445312 -0.710938 1.53125 -0.671875 C 1.613281 -0.628906 1.757812 -0.597656 1.96875 -0.578125 L 2.671875 -0.484375 C 3.597656 -0.359375 4.0625 0.0351562 4.0625 0.703125 C 4.0625 1.117188 3.882812 1.445312 3.53125 1.6875 C 3.1875 1.9375 2.707031 2.0625 2.09375 2.0625 Z M 1.9375 -1.65625 C 2.164062 -1.65625 2.34375 -1.734375 2.46875 -1.890625 C 2.601562 -2.046875 2.671875 -2.257812 2.671875 -2.53125 C 2.671875 -2.800781 2.601562 -3.015625 2.46875 -3.171875 C 2.34375 -3.328125 2.164062 -3.40625 1.9375 -3.40625 C 1.695312 -3.40625 1.507812 -3.328125 1.375 -3.171875 C 1.25 -3.015625 1.1875 -2.800781 1.1875 -2.53125 C 1.1875 -2.257812 1.25 -2.046875 1.375 -1.890625 C 1.507812 -1.734375 1.695312 -1.65625 1.9375 -1.65625 Z M 2.125 1.28125 C 2.820312 1.28125 3.171875 1.113281 3.171875 0.78125 C 3.171875 0.625 3.109375 0.507812 2.984375 0.4375 C 2.867188 0.363281 2.671875 0.304688 2.390625 0.265625 L 1.5 0.125 C 1.1875 0.25 1.03125 0.441406 1.03125 0.703125 C 1.03125 0.898438 1.125 1.046875 1.3125 1.140625 C 1.507812 1.234375 1.78125 1.28125 2.125 1.28125 Z M 2.125 1.28125 "/></g></g></g><g fill="#ffffff" fill-opacity="1"><g transform="translate(81.879647, 60.826128)"><g><path d="M 0.46875 -5.703125 L 1.484375 -5.703125 L 1.484375 -4.703125 L 0.46875 -4.703125 Z M 0.46875 -4.078125 L 1.484375 -4.078125 L 1.484375 0 L 0.46875 0 Z M 0.46875 -4.078125 "/></g></g></g><g fill="#ffffff" fill-opacity="1"><g transform="translate(83.838586, 60.826128)"><g><path d="M 1.359375 0.078125 C 1.015625 0.078125 0.726562 -0.03125 0.5 -0.25 C 0.28125 -0.46875 0.171875 -0.765625 0.171875 -1.140625 C 0.171875 -1.492188 0.296875 -1.773438 0.546875 -1.984375 C 0.804688 -2.203125 1.109375 -2.351562 1.453125 -2.4375 C 1.804688 -2.53125 2.144531 -2.585938 2.46875 -2.609375 C 2.457031 -2.835938 2.394531 -3.003906 2.28125 -3.109375 C 2.164062 -3.210938 1.984375 -3.265625 1.734375 -3.265625 C 1.546875 -3.265625 1.367188 -3.238281 1.203125 -3.1875 C 1.035156 -3.144531 0.835938 -3.066406 0.609375 -2.953125 L 0.515625 -3.78125 C 1.015625 -4.019531 1.507812 -4.140625 2 -4.140625 C 2.476562 -4.140625 2.84375 -4.007812 3.09375 -3.75 C 3.351562 -3.488281 3.484375 -3.070312 3.484375 -2.5 L 3.484375 -1.40625 C 3.484375 -1.195312 3.492188 -1.046875 3.515625 -0.953125 C 3.535156 -0.867188 3.566406 -0.8125 3.609375 -0.78125 C 3.648438 -0.757812 3.726562 -0.75 3.84375 -0.75 L 3.96875 -0.75 L 3.875 0.078125 L 3.515625 0.078125 C 3.296875 0.078125 3.109375 0.0351562 2.953125 -0.046875 C 2.796875 -0.128906 2.679688 -0.242188 2.609375 -0.390625 C 2.472656 -0.242188 2.289062 -0.128906 2.0625 -0.046875 C 1.84375 0.0351562 1.609375 0.078125 1.359375 0.078125 Z M 1.78125 -0.6875 C 1.882812 -0.6875 2 -0.710938 2.125 -0.765625 C 2.257812 -0.816406 2.375 -0.890625 2.46875 -0.984375 L 2.46875 -1.921875 C 2.144531 -1.898438 1.859375 -1.828125 1.609375 -1.703125 C 1.359375 -1.578125 1.234375 -1.40625 1.234375 -1.1875 C 1.234375 -1.019531 1.273438 -0.894531 1.359375 -0.8125 C 1.453125 -0.726562 1.59375 -0.6875 1.78125 -0.6875 Z M 1.78125 -0.6875 "/></g></g></g><g fill="#ffffff" fill-opacity="1"><g transform="translate(87.903371, 60.826128)"><g><path d="M 2.328125 0.078125 C 1.898438 0.078125 1.523438 -0.015625 1.203125 -0.203125 C 0.890625 -0.390625 0.648438 -0.644531 0.484375 -0.96875 C 0.316406 -1.289062 0.234375 -1.644531 0.234375 -2.03125 C 0.234375 -2.414062 0.316406 -2.769531 0.484375 -3.09375 C 0.648438 -3.425781 0.890625 -3.6875 1.203125 -3.875 C 1.523438 -4.0625 1.898438 -4.15625 2.328125 -4.15625 C 2.753906 -4.15625 3.125 -4.0625 3.4375 -3.875 C 3.757812 -3.6875 4.003906 -3.425781 4.171875 -3.09375 C 4.335938 -2.769531 4.421875 -2.414062 4.421875 -2.03125 C 4.421875 -1.644531 4.335938 -1.289062 4.171875 -0.96875 C 4.003906 -0.644531 3.757812 -0.390625 3.4375 -0.203125 C 3.125 -0.015625 2.753906 0.078125 2.328125 0.078125 Z M 2.328125 -0.75 C 2.660156 -0.75 2.921875 -0.863281 3.109375 -1.09375 C 3.296875 -1.332031 3.390625 -1.644531 3.390625 -2.03125 C 3.390625 -2.425781 3.296875 -2.738281 3.109375 -2.96875 C 2.921875 -3.207031 2.660156 -3.328125 2.328125 -3.328125 C 1.992188 -3.328125 1.734375 -3.207031 1.546875 -2.96875 C 1.359375 -2.738281 1.265625 -2.425781 1.265625 -2.03125 C 1.265625 -1.644531 1.359375 -1.332031 1.546875 -1.09375 C 1.734375 -0.863281 1.992188 -0.75 2.328125 -0.75 Z M 2.328125 -0.75 "/></g></g></g></svg>