<svg xmlns="http://www.w3.org/2000/svg" xmlns:xlink="http://www.w3.org/1999/xlink" width="132" zoomAndPan="magnify" viewBox="0 0 98.88 70.499998" height="94" preserveAspectRatio="xMidYMid meet" version="1.0"><defs><g/><clipPath id="650e5f5196"><path d="M 28.796875 7 L 69.753906 7 L 69.753906 47 L 28.796875 47 Z M 28.796875 7 " clip-rule="nonzero"/></clipPath></defs><g clip-path="url(#650e5f5196)"><path fill="#ffffff" d="M 66.28125 7.136719 L 32.585938 7.136719 C 30.503906 7.136719 28.808594 8.910156 28.808594 11.089844 L 28.808594 14.933594 C 28.808594 15.113281 28.953125 15.261719 29.132812 15.261719 C 29.3125 15.261719 29.457031 15.113281 29.457031 14.933594 L 29.457031 11.089844 C 29.457031 9.269531 30.863281 7.789062 32.585938 7.789062 L 66.28125 7.789062 C 68.007812 7.789062 69.417969 9.269531 69.417969 11.089844 L 69.417969 33.40625 L 29.457031 33.40625 L 29.457031 17.90625 C 29.457031 17.726562 29.3125 17.582031 29.132812 17.582031 C 28.953125 17.582031 28.808594 17.726562 28.808594 17.90625 L 28.808594 35.722656 C 28.808594 37.902344 30.503906 39.675781 32.585938 39.675781 L 43.929688 39.675781 L 41.59375 46.136719 L 38.78125 46.136719 C 38.601562 46.136719 38.457031 46.28125 38.457031 46.460938 C 38.457031 46.640625 38.601562 46.789062 38.78125 46.789062 L 41.796875 46.789062 C 41.804688 46.789062 41.808594 46.792969 41.816406 46.792969 L 57.0625 46.792969 C 57.070312 46.792969 57.078125 46.789062 57.085938 46.789062 L 60.09375 46.789062 C 60.273438 46.789062 60.421875 46.640625 60.421875 46.460938 C 60.421875 46.28125 60.273438 46.136719 60.09375 46.136719 L 57.289062 46.136719 L 54.949219 39.675781 L 66.28125 39.675781 C 68.367188 39.675781 70.066406 37.902344 70.066406 35.722656 L 70.066406 11.089844 C 70.066406 8.910156 68.367188 7.136719 66.28125 7.136719 M 56.597656 46.136719 L 42.285156 46.136719 L 44.621094 39.675781 L 54.257812 39.675781 Z M 69.417969 35.722656 C 69.417969 37.542969 68.007812 39.023438 66.28125 39.023438 L 44.394531 39.023438 C 44.394531 39.023438 44.390625 39.023438 44.390625 39.023438 L 32.585938 39.023438 C 30.863281 39.023438 29.457031 37.542969 29.457031 35.722656 L 29.457031 34.058594 L 69.417969 34.058594 Z M 69.417969 35.722656 " fill-opacity="1" fill-rule="nonzero"/></g><path fill="#ffffff" d="M 49.4375 36.746094 C 49.617188 36.746094 49.808594 36.554688 49.808594 36.375 C 49.808594 36.195312 49.617188 36 49.4375 36 C 49.257812 36 49.066406 36.195312 49.066406 36.375 C 49.066406 36.554688 49.257812 36.746094 49.4375 36.746094 " fill-opacity="1" fill-rule="nonzero"/><path fill="#ffffff" d="M 50.957031 12.089844 L 52.457031 15 C 52.542969 15.15625 52.738281 15.21875 52.898438 15.136719 C 53.058594 15.054688 53.121094 14.859375 53.035156 14.699219 L 51.535156 11.789062 C 51.101562 10.949219 50.300781 10.449219 49.386719 10.449219 L 49.382812 10.449219 C 48.46875 10.449219 47.664062 10.957031 47.230469 11.800781 L 39.640625 26.535156 C 39.21875 27.359375 39.257812 28.324219 39.742188 29.117188 C 40.195312 29.859375 40.964844 30.300781 41.804688 30.300781 L 56.984375 30.300781 C 57.824219 30.300781 58.597656 29.855469 59.046875 29.113281 C 59.53125 28.320312 59.5625 27.355469 59.136719 26.535156 L 53.910156 16.394531 C 53.828125 16.234375 53.628906 16.171875 53.46875 16.253906 C 53.3125 16.335938 53.25 16.53125 53.332031 16.691406 L 58.558594 26.835938 C 58.878906 27.453125 58.855469 28.179688 58.492188 28.777344 C 58.15625 29.332031 57.605469 29.648438 56.984375 29.648438 L 41.804688 29.648438 C 41.1875 29.648438 40.636719 29.332031 40.296875 28.777344 C 39.933594 28.179688 39.902344 27.453125 40.222656 26.832031 L 47.8125 12.101562 C 48.128906 11.476562 48.71875 11.101562 49.382812 11.101562 C 50.03125 11.105469 50.636719 11.46875 50.957031 12.089844 " fill-opacity="1" fill-rule="nonzero"/><path fill="#ffffff" d="M 49.390625 23.609375 C 49.570312 23.609375 49.71875 23.464844 49.71875 23.285156 L 49.71875 17.050781 C 49.71875 16.871094 49.570312 16.722656 49.390625 16.722656 C 49.210938 16.722656 49.066406 16.871094 49.066406 17.050781 L 49.066406 23.285156 C 49.066406 23.464844 49.210938 23.609375 49.390625 23.609375 " fill-opacity="1" fill-rule="nonzero"/><path fill="#ffffff" d="M 49.390625 26.710938 C 49.410156 26.714844 49.429688 26.714844 49.449219 26.714844 C 49.628906 26.714844 49.773438 26.570312 49.773438 26.390625 C 49.773438 26.179688 49.601562 26.007812 49.390625 26.007812 C 49.179688 26.007812 49.007812 26.179688 49.007812 26.390625 C 49.007812 26.589844 49.199219 26.746094 49.390625 26.710938 " fill-opacity="1" fill-rule="nonzero"/><g fill="#ffffff" fill-opacity="1"><g transform="translate(15.401717, 62.080005)"><g><path d="M 4.609375 -3.28125 C 4.972656 -3.175781 5.253906 -2.988281 5.453125 -2.71875 C 5.648438 -2.457031 5.75 -2.128906 5.75 -1.734375 C 5.75 -1.191406 5.554688 -0.765625 5.171875 -0.453125 C 4.796875 -0.148438 4.265625 0 3.578125 0 L 0.6875 0 L 0.6875 -6.359375 L 3.484375 -6.359375 C 4.140625 -6.359375 4.65625 -6.210938 5.03125 -5.921875 C 5.40625 -5.628906 5.59375 -5.222656 5.59375 -4.703125 C 5.59375 -4.367188 5.503906 -4.078125 5.328125 -3.828125 C 5.148438 -3.578125 4.910156 -3.394531 4.609375 -3.28125 Z M 1.8125 -3.6875 L 3.296875 -3.6875 C 4.097656 -3.6875 4.5 -3.984375 4.5 -4.578125 C 4.5 -4.867188 4.398438 -5.085938 4.203125 -5.234375 C 4.003906 -5.390625 3.703125 -5.46875 3.296875 -5.46875 L 1.8125 -5.46875 Z M 3.453125 -0.890625 C 3.867188 -0.890625 4.171875 -0.960938 4.359375 -1.109375 C 4.554688 -1.265625 4.65625 -1.503906 4.65625 -1.828125 C 4.65625 -2.148438 4.554688 -2.390625 4.359375 -2.546875 C 4.171875 -2.703125 3.867188 -2.78125 3.453125 -2.78125 L 1.8125 -2.78125 L 1.8125 -0.890625 Z M 3.453125 -0.890625 "/></g></g></g><g fill="#ffffff" fill-opacity="1"><g transform="translate(21.568029, 62.080005)"><g><path d="M 4.921875 -4.515625 L 4.921875 0 L 3.828125 0 L 3.828125 -0.71875 C 3.691406 -0.46875 3.492188 -0.269531 3.234375 -0.125 C 2.972656 0.0078125 2.679688 0.078125 2.359375 0.078125 C 1.960938 0.078125 1.613281 -0.015625 1.3125 -0.203125 C 1.007812 -0.398438 0.773438 -0.675781 0.609375 -1.03125 C 0.441406 -1.382812 0.359375 -1.789062 0.359375 -2.25 C 0.359375 -2.71875 0.441406 -3.128906 0.609375 -3.484375 C 0.773438 -3.847656 1.007812 -4.128906 1.3125 -4.328125 C 1.625 -4.523438 1.972656 -4.625 2.359375 -4.625 C 2.679688 -4.625 2.972656 -4.550781 3.234375 -4.40625 C 3.492188 -4.269531 3.691406 -4.078125 3.828125 -3.828125 L 3.828125 -4.515625 Z M 2.65625 -0.796875 C 3.03125 -0.796875 3.316406 -0.925781 3.515625 -1.1875 C 3.722656 -1.445312 3.828125 -1.804688 3.828125 -2.265625 C 3.828125 -2.742188 3.722656 -3.109375 3.515625 -3.359375 C 3.316406 -3.617188 3.03125 -3.75 2.65625 -3.75 C 2.28125 -3.75 1.988281 -3.613281 1.78125 -3.34375 C 1.582031 -3.082031 1.484375 -2.71875 1.484375 -2.25 C 1.484375 -1.789062 1.582031 -1.429688 1.78125 -1.171875 C 1.988281 -0.921875 2.28125 -0.796875 2.65625 -0.796875 Z M 3.109375 -5.09375 L 2.390625 -5.09375 L 3.28125 -6.9375 L 4.421875 -6.9375 Z M 3.109375 -5.09375 "/></g></g></g><g fill="#ffffff" fill-opacity="1"><g transform="translate(27.099837, 62.080005)"><g><path d="M 2.65625 0.078125 C 2.195312 0.078125 1.789062 -0.015625 1.4375 -0.203125 C 1.09375 -0.398438 0.828125 -0.675781 0.640625 -1.03125 C 0.453125 -1.382812 0.359375 -1.800781 0.359375 -2.28125 C 0.359375 -2.757812 0.453125 -3.175781 0.640625 -3.53125 C 0.828125 -3.882812 1.09375 -4.15625 1.4375 -4.34375 C 1.789062 -4.53125 2.195312 -4.625 2.65625 -4.625 C 3.101562 -4.625 3.5 -4.53125 3.84375 -4.34375 C 4.195312 -4.15625 4.46875 -3.882812 4.65625 -3.53125 C 4.84375 -3.175781 4.9375 -2.757812 4.9375 -2.28125 C 4.9375 -1.800781 4.84375 -1.382812 4.65625 -1.03125 C 4.46875 -0.675781 4.195312 -0.398438 3.84375 -0.203125 C 3.5 -0.015625 3.101562 0.078125 2.65625 0.078125 Z M 2.640625 -0.796875 C 3.023438 -0.796875 3.316406 -0.921875 3.515625 -1.171875 C 3.710938 -1.421875 3.8125 -1.789062 3.8125 -2.28125 C 3.8125 -2.757812 3.707031 -3.125 3.5 -3.375 C 3.300781 -3.632812 3.019531 -3.765625 2.65625 -3.765625 C 2.28125 -3.765625 1.988281 -3.632812 1.78125 -3.375 C 1.582031 -3.125 1.484375 -2.757812 1.484375 -2.28125 C 1.484375 -1.789062 1.582031 -1.421875 1.78125 -1.171875 C 1.976562 -0.921875 2.265625 -0.796875 2.640625 -0.796875 Z M 2.640625 -0.796875 "/></g></g></g><g fill="#ffffff" fill-opacity="1"><g transform="translate(32.390352, 62.080005)"><g/></g></g><g fill="#ffffff" fill-opacity="1"><g transform="translate(34.839005, 62.080005)"><g><path d="M 2.265625 0.078125 C 1.441406 0.078125 0.789062 -0.113281 0.3125 -0.5 L 0.625 -1.28125 C 1.101562 -0.925781 1.65625 -0.75 2.28125 -0.75 C 2.550781 -0.75 2.757812 -0.789062 2.90625 -0.875 C 3.050781 -0.96875 3.125 -1.097656 3.125 -1.265625 C 3.125 -1.398438 3.070312 -1.503906 2.96875 -1.578125 C 2.863281 -1.660156 2.691406 -1.734375 2.453125 -1.796875 L 1.703125 -1.96875 C 0.878906 -2.144531 0.46875 -2.5625 0.46875 -3.21875 C 0.46875 -3.5 0.539062 -3.742188 0.6875 -3.953125 C 0.84375 -4.160156 1.0625 -4.320312 1.34375 -4.4375 C 1.625 -4.5625 1.953125 -4.625 2.328125 -4.625 C 2.648438 -4.625 2.957031 -4.570312 3.25 -4.46875 C 3.550781 -4.375 3.816406 -4.238281 4.046875 -4.0625 L 3.703125 -3.296875 C 3.253906 -3.628906 2.789062 -3.796875 2.3125 -3.796875 C 2.0625 -3.796875 1.863281 -3.75 1.71875 -3.65625 C 1.570312 -3.5625 1.5 -3.429688 1.5 -3.265625 C 1.5 -3.128906 1.539062 -3.019531 1.625 -2.9375 C 1.71875 -2.863281 1.867188 -2.800781 2.078125 -2.75 L 2.84375 -2.578125 C 3.289062 -2.484375 3.613281 -2.328125 3.8125 -2.109375 C 4.019531 -1.898438 4.125 -1.625 4.125 -1.28125 C 4.125 -0.863281 3.957031 -0.53125 3.625 -0.28125 C 3.289062 -0.0390625 2.835938 0.078125 2.265625 0.078125 Z M 2.265625 0.078125 "/></g></g></g><g fill="#ffffff" fill-opacity="1"><g transform="translate(39.31628, 62.080005)"><g><path d="M 5.78125 -5.6875 L 5.78125 -5.375 C 5.78125 -5.007812 5.679688 -4.703125 5.484375 -4.453125 C 5.296875 -4.210938 5.039062 -4.0625 4.71875 -4 L 4.71875 0 L 3.625 0 L 3.625 -0.703125 C 3.488281 -0.453125 3.300781 -0.257812 3.0625 -0.125 C 2.820312 0.0078125 2.546875 0.078125 2.234375 0.078125 C 1.128906 0.078125 0.578125 -0.539062 0.578125 -1.78125 L 0.578125 -4.515625 L 1.6875 -4.515625 L 1.6875 -1.78125 C 1.6875 -1.445312 1.753906 -1.203125 1.890625 -1.046875 C 2.023438 -0.898438 2.234375 -0.828125 2.515625 -0.828125 C 2.835938 -0.828125 3.097656 -0.929688 3.296875 -1.140625 C 3.492188 -1.359375 3.59375 -1.644531 3.59375 -2 L 3.59375 -4.515625 L 3.921875 -4.515625 C 4.234375 -4.515625 4.457031 -4.59375 4.59375 -4.75 C 4.726562 -4.90625 4.796875 -5.160156 4.796875 -5.515625 L 4.796875 -5.6875 Z M 2.109375 0.703125 L 3.203125 0.703125 L 3.203125 1.75 L 2.109375 1.75 Z M 2.109375 0.703125 "/></g></g></g><g fill="#ffffff" fill-opacity="1"><g transform="translate(44.821282, 62.080005)"><g/></g></g><g fill="#ffffff" fill-opacity="1"><g transform="translate(47.269934, 62.080005)"><g><path d="M 2.65625 0.078125 C 2.1875 0.078125 1.773438 -0.015625 1.421875 -0.203125 C 1.078125 -0.398438 0.8125 -0.671875 0.625 -1.015625 C 0.445312 -1.367188 0.359375 -1.78125 0.359375 -2.25 C 0.359375 -2.71875 0.453125 -3.128906 0.640625 -3.484375 C 0.835938 -3.847656 1.113281 -4.128906 1.46875 -4.328125 C 1.820312 -4.523438 2.234375 -4.625 2.703125 -4.625 C 3.023438 -4.625 3.332031 -4.570312 3.625 -4.46875 C 3.925781 -4.375 4.171875 -4.238281 4.359375 -4.0625 L 4.046875 -3.265625 C 3.847656 -3.421875 3.640625 -3.539062 3.421875 -3.625 C 3.210938 -3.707031 3.003906 -3.75 2.796875 -3.75 C 2.390625 -3.75 2.070312 -3.617188 1.84375 -3.359375 C 1.625 -3.109375 1.515625 -2.742188 1.515625 -2.265625 C 1.515625 -1.796875 1.625 -1.429688 1.84375 -1.171875 C 2.070312 -0.921875 2.390625 -0.796875 2.796875 -0.796875 C 3.003906 -0.796875 3.210938 -0.835938 3.421875 -0.921875 C 3.640625 -1.003906 3.847656 -1.125 4.046875 -1.28125 L 4.359375 -0.5 C 4.160156 -0.320312 3.910156 -0.179688 3.609375 -0.078125 C 3.304688 0.0234375 2.988281 0.078125 2.65625 0.078125 Z M 2.65625 0.078125 "/></g></g></g><g fill="#ffffff" fill-opacity="1"><g transform="translate(51.765084, 62.080005)"><g><path d="M 2.65625 0.078125 C 2.195312 0.078125 1.789062 -0.015625 1.4375 -0.203125 C 1.09375 -0.398438 0.828125 -0.675781 0.640625 -1.03125 C 0.453125 -1.382812 0.359375 -1.800781 0.359375 -2.28125 C 0.359375 -2.757812 0.453125 -3.175781 0.640625 -3.53125 C 0.828125 -3.882812 1.09375 -4.15625 1.4375 -4.34375 C 1.789062 -4.53125 2.195312 -4.625 2.65625 -4.625 C 3.101562 -4.625 3.5 -4.53125 3.84375 -4.34375 C 4.195312 -4.15625 4.46875 -3.882812 4.65625 -3.53125 C 4.84375 -3.175781 4.9375 -2.757812 4.9375 -2.28125 C 4.9375 -1.800781 4.84375 -1.382812 4.65625 -1.03125 C 4.46875 -0.675781 4.195312 -0.398438 3.84375 -0.203125 C 3.5 -0.015625 3.101562 0.078125 2.65625 0.078125 Z M 2.640625 -0.796875 C 3.023438 -0.796875 3.316406 -0.921875 3.515625 -1.171875 C 3.710938 -1.421875 3.8125 -1.789062 3.8125 -2.28125 C 3.8125 -2.757812 3.707031 -3.125 3.5 -3.375 C 3.300781 -3.632812 3.019531 -3.765625 2.65625 -3.765625 C 2.28125 -3.765625 1.988281 -3.632812 1.78125 -3.375 C 1.582031 -3.125 1.484375 -2.757812 1.484375 -2.28125 C 1.484375 -1.789062 1.582031 -1.421875 1.78125 -1.171875 C 1.976562 -0.921875 2.265625 -0.796875 2.640625 -0.796875 Z M 4.0625 -6.046875 L 3.46875 -6.046875 L 4.1875 -7.3125 L 5.171875 -7.3125 Z M 2.046875 -5.09375 L 1.171875 -5.09375 L 2.328125 -6.375 L 3 -6.375 L 4.140625 -5.09375 L 3.265625 -5.09375 L 2.65625 -5.828125 Z M 2.046875 -5.09375 "/></g></g></g><g fill="#ffffff" fill-opacity="1"><g transform="translate(57.055599, 62.080005)"><g/></g></g><g fill="#ffffff" fill-opacity="1"><g transform="translate(59.504252, 62.080005)"><g><path d="M 3.578125 0.078125 C 2.953125 0.078125 2.40625 -0.0507812 1.9375 -0.3125 C 1.46875 -0.582031 1.109375 -0.960938 0.859375 -1.453125 C 0.609375 -1.953125 0.484375 -2.53125 0.484375 -3.1875 C 0.484375 -3.84375 0.609375 -4.414062 0.859375 -4.90625 C 1.109375 -5.40625 1.46875 -5.785156 1.9375 -6.046875 C 2.40625 -6.304688 2.953125 -6.4375 3.578125 -6.4375 C 4.003906 -6.4375 4.40625 -6.367188 4.78125 -6.234375 C 5.164062 -6.109375 5.484375 -5.925781 5.734375 -5.6875 L 5.359375 -4.84375 C 5.066406 -5.070312 4.78125 -5.238281 4.5 -5.34375 C 4.21875 -5.445312 3.914062 -5.5 3.59375 -5.5 C 2.976562 -5.5 2.5 -5.300781 2.15625 -4.90625 C 1.820312 -4.507812 1.65625 -3.9375 1.65625 -3.1875 C 1.65625 -2.4375 1.820312 -1.859375 2.15625 -1.453125 C 2.488281 -1.054688 2.96875 -0.859375 3.59375 -0.859375 C 3.914062 -0.859375 4.21875 -0.910156 4.5 -1.015625 C 4.78125 -1.117188 5.066406 -1.285156 5.359375 -1.515625 L 5.734375 -0.671875 C 5.484375 -0.441406 5.164062 -0.257812 4.78125 -0.125 C 4.40625 0.0078125 4.003906 0.078125 3.578125 0.078125 Z M 3.578125 0.078125 "/></g></g></g><g fill="#ffffff" fill-opacity="1"><g transform="translate(65.625882, 62.080005)"><g><path d="M 4.96875 -6.359375 L 6.046875 -6.359375 L 6.046875 0 L 5.1875 0 L 1.765625 -4.453125 L 1.765625 0 L 0.6875 0 L 0.6875 -6.359375 L 1.546875 -6.359375 L 4.96875 -1.90625 Z M 4.96875 -6.359375 "/></g></g></g><g fill="#ffffff" fill-opacity="1"><g transform="translate(72.373073, 62.080005)"><g><path d="M 2.1875 0 L 2.1875 -5.421875 L 0.109375 -5.421875 L 0.109375 -6.359375 L 5.421875 -6.359375 L 5.421875 -5.421875 L 3.34375 -5.421875 L 3.34375 0 Z M 2.1875 0 "/></g></g></g><g fill="#ffffff" fill-opacity="1"><g transform="translate(77.904881, 62.080005)"><g><path d="M 2.1875 0 L 2.1875 -5.421875 L 0.109375 -5.421875 L 0.109375 -6.359375 L 5.421875 -6.359375 L 5.421875 -5.421875 L 3.34375 -5.421875 L 3.34375 0 Z M 2.1875 0 "/></g></g></g></svg>