<svg xmlns="http://www.w3.org/2000/svg" xmlns:xlink="http://www.w3.org/1999/xlink" width="132" zoomAndPan="magnify" viewBox="0 0 98.88 70.499998" height="94" preserveAspectRatio="xMidYMid meet" version="1.0"><defs><clipPath id="e462807c92"><path d="M 21.4375 7 L 77.292969 7 L 77.292969 62.855469 L 21.4375 62.855469 Z M 21.4375 7 " clip-rule="nonzero"/></clipPath></defs><g clip-path="url(#e462807c92)"><path fill="#a4c639" d="M 29.816406 7 L 68.914062 7 C 69.464844 7 70.007812 7.054688 70.550781 7.160156 C 71.089844 7.269531 71.613281 7.425781 72.121094 7.636719 C 72.628906 7.847656 73.113281 8.105469 73.570312 8.414062 C 74.027344 8.71875 74.449219 9.066406 74.839844 9.453125 C 75.226562 9.84375 75.574219 10.265625 75.878906 10.722656 C 76.1875 11.179688 76.445312 11.664062 76.65625 12.171875 C 76.863281 12.679688 77.023438 13.203125 77.132812 13.742188 C 77.238281 14.285156 77.292969 14.828125 77.292969 15.378906 L 77.292969 54.476562 C 77.292969 55.027344 77.238281 55.570312 77.132812 56.109375 C 77.023438 56.648438 76.863281 57.175781 76.65625 57.683594 C 76.445312 58.191406 76.1875 58.671875 75.878906 59.128906 C 75.574219 59.589844 75.226562 60.011719 74.839844 60.398438 C 74.449219 60.789062 74.027344 61.136719 73.570312 61.441406 C 73.113281 61.746094 72.628906 62.007812 72.121094 62.214844 C 71.613281 62.425781 71.089844 62.585938 70.550781 62.691406 C 70.007812 62.800781 69.464844 62.855469 68.914062 62.855469 L 29.816406 62.855469 C 29.265625 62.855469 28.722656 62.800781 28.183594 62.691406 C 27.644531 62.585938 27.117188 62.425781 26.609375 62.214844 C 26.101562 62.007812 25.621094 61.746094 25.160156 61.441406 C 24.703125 61.136719 24.28125 60.789062 23.890625 60.398438 C 23.503906 60.011719 23.15625 59.589844 22.851562 59.128906 C 22.546875 58.671875 22.285156 58.191406 22.078125 57.683594 C 21.867188 57.175781 21.707031 56.648438 21.597656 56.109375 C 21.492188 55.570312 21.4375 55.027344 21.4375 54.476562 L 21.4375 15.378906 C 21.4375 14.828125 21.492188 14.285156 21.597656 13.742188 C 21.707031 13.203125 21.867188 12.679688 22.078125 12.171875 C 22.285156 11.664062 22.546875 11.179688 22.851562 10.722656 C 23.15625 10.265625 23.503906 9.84375 23.890625 9.453125 C 24.28125 9.066406 24.703125 8.71875 25.160156 8.414062 C 25.621094 8.105469 26.101562 7.847656 26.609375 7.636719 C 27.117188 7.425781 27.644531 7.269531 28.183594 7.160156 C 28.722656 7.054688 29.265625 7 29.816406 7 Z M 29.816406 7 " fill-opacity="1" fill-rule="nonzero"/></g><path stroke-linecap="round" transform="matrix(0.10909, 0, 0, 0.10909, 21.438591, 7.000352)" fill-opacity="1" fill="#000000" fill-rule="nonzero" stroke-linejoin="miter" d="M 106.983478 212.014318 L 106.983478 318.005185 M 406.013792 212.014318 L 406.013792 318.005185 M 298.984501 383.998823 L 298.984501 440.002105 M 214.012769 383.998823 L 214.012769 440.002105 " stroke="#ffffff" stroke-width="58" stroke-opacity="1" stroke-miterlimit="4"/><path stroke-linecap="round" transform="matrix(0.10909, 0, 0, 0.10909, 21.438591, 7.000352)" fill-opacity="1" fill="#000000" fill-rule="nonzero" stroke-linejoin="miter" d="M 202.983989 88.012165 L 186.011128 56.000059 M 309.010664 88.012165 L 326.986142 56.000059 " stroke="#ffffff" stroke-width="8" stroke-opacity="1" stroke-miterlimit="4"/><path fill="#ffffff" d="M 49.476562 15.292969 C 41.183594 15.292969 36.929688 21.835938 36.929688 26.746094 L 61.910156 26.746094 C 61.910156 21.617188 57.328125 15.398438 49.476562 15.292969 Z M 36.929688 27.835938 L 36.929688 45.726562 C 36.929688 47.472656 38.347656 48.890625 39.984375 48.890625 L 58.746094 48.890625 C 60.492188 48.890625 61.910156 47.472656 61.910156 45.726562 L 61.910156 27.835938 Z M 36.929688 27.835938 " fill-opacity="1" fill-rule="nonzero"/><path fill="#a4c639" d="M 44.675781 21.183594 C 44.675781 21.453125 44.578125 21.683594 44.386719 21.875 C 44.195312 22.066406 43.964844 22.164062 43.691406 22.164062 C 43.421875 22.164062 43.191406 22.066406 43 21.875 C 42.808594 21.683594 42.710938 21.453125 42.710938 21.183594 C 42.710938 20.910156 42.808594 20.679688 43 20.488281 C 43.191406 20.296875 43.421875 20.199219 43.691406 20.199219 C 43.964844 20.199219 44.195312 20.296875 44.386719 20.488281 C 44.578125 20.679688 44.675781 20.910156 44.675781 21.183594 Z M 44.675781 21.183594 " fill-opacity="1" fill-rule="nonzero"/><path fill="#a4c639" d="M 56.128906 21.183594 C 56.128906 21.453125 56.035156 21.683594 55.839844 21.875 C 55.648438 22.066406 55.417969 22.164062 55.148438 22.164062 C 54.875 22.164062 54.644531 22.066406 54.453125 21.875 C 54.261719 21.683594 54.164062 21.453125 54.164062 21.183594 C 54.164062 20.910156 54.261719 20.679688 54.453125 20.488281 C 54.644531 20.296875 54.875 20.199219 55.148438 20.199219 C 55.417969 20.199219 55.648438 20.296875 55.839844 20.488281 C 56.035156 20.679688 56.128906 20.910156 56.128906 21.183594 Z M 56.128906 21.183594 " fill-opacity="1" fill-rule="nonzero"/></svg>