<svg xmlns="http://www.w3.org/2000/svg" xmlns:xlink="http://www.w3.org/1999/xlink" width="132" zoomAndPan="magnify" viewBox="0 0 98.88 70.499998" height="94" preserveAspectRatio="xMidYMid meet" version="1.0"><defs><g/><clipPath id="866aab921c"><path d="M 28.082031 13 L 70.53125 13 L 70.53125 40 L 28.082031 40 Z M 28.082031 13 " clip-rule="nonzero"/></clipPath><clipPath id="1067f14dcb"><path d="M 41 44 L 58 44 L 58 49.449219 L 41 49.449219 Z M 41 44 " clip-rule="nonzero"/></clipPath></defs><g clip-path="url(#866aab921c)"><path fill="#ffffff" d="M 70.304688 39.617188 L 28.539062 39.617188 C 28.28125 39.617188 28.070312 39.410156 28.070312 39.152344 L 28.070312 13.535156 C 28.070312 13.277344 28.28125 13.070312 28.535156 13.070312 L 36.859375 13.070312 C 37.117188 13.070312 37.328125 13.277344 37.328125 13.535156 C 37.328125 13.792969 37.117188 14 36.859375 14 L 29.003906 14 L 29.003906 38.6875 L 69.835938 38.6875 L 69.835938 14 L 61.980469 14 C 61.722656 14 61.515625 13.792969 61.515625 13.535156 C 61.515625 13.277344 61.722656 13.070312 61.980469 13.070312 L 70.304688 13.070312 C 70.5625 13.070312 70.769531 13.277344 70.769531 13.535156 L 70.769531 39.152344 C 70.769531 39.410156 70.5625 39.617188 70.304688 39.617188 Z M 70.304688 39.617188 " fill-opacity="1" fill-rule="evenodd"/></g><path fill="#ffffff" d="M 67.335938 36.652344 L 31.503906 36.652344 C 31.246094 36.652344 31.039062 36.441406 31.039062 36.183594 L 31.039062 16.503906 C 31.039062 16.246094 31.246094 16.039062 31.503906 16.039062 L 36.859375 16.039062 C 37.117188 16.039062 37.328125 16.246094 37.328125 16.503906 C 37.328125 16.761719 37.117188 16.96875 36.859375 16.96875 L 31.972656 16.96875 L 31.972656 35.71875 L 66.867188 35.71875 L 66.867188 16.96875 L 61.980469 16.96875 C 61.722656 16.96875 61.515625 16.761719 61.515625 16.503906 C 61.515625 16.246094 61.722656 16.039062 61.980469 16.039062 L 67.335938 16.039062 C 67.59375 16.039062 67.800781 16.246094 67.800781 16.503906 L 67.800781 36.183594 C 67.800781 36.441406 67.59375 36.652344 67.335938 36.652344 Z M 67.335938 36.652344 " fill-opacity="1" fill-rule="evenodd"/><g clip-path="url(#1067f14dcb)"><path fill="#ffffff" d="M 42.644531 48.707031 L 56.195312 48.707031 L 56.195312 47.078125 C 56.195312 46.179688 55.464844 45.449219 54.566406 45.449219 L 44.273438 45.449219 C 43.375 45.449219 42.644531 46.179688 42.644531 47.078125 Z M 56.660156 49.640625 L 42.179688 49.640625 C 41.921875 49.640625 41.710938 49.433594 41.710938 49.175781 L 41.710938 47.078125 C 41.710938 45.667969 42.863281 44.515625 44.273438 44.515625 L 54.566406 44.515625 C 55.980469 44.515625 57.128906 45.667969 57.128906 47.078125 L 57.128906 49.175781 C 57.128906 49.433594 56.917969 49.640625 56.660156 49.640625 Z M 56.660156 49.640625 " fill-opacity="1" fill-rule="evenodd"/></g><path fill="#ffffff" d="M 53.097656 45.449219 C 52.898438 45.449219 52.714844 45.324219 52.652344 45.125 C 52.003906 43.082031 52.113281 41.007812 52.984375 38.96875 C 53.085938 38.734375 53.359375 38.621094 53.597656 38.722656 C 53.832031 38.824219 53.941406 39.097656 53.84375 39.335938 C 53.0625 41.164062 52.960938 43.015625 53.539062 44.839844 C 53.617188 45.085938 53.484375 45.347656 53.238281 45.425781 C 53.191406 45.441406 53.144531 45.449219 53.097656 45.449219 Z M 53.097656 45.449219 " fill-opacity="1" fill-rule="evenodd"/><path fill="#ffffff" d="M 45.746094 45.449219 C 45.699219 45.449219 45.648438 45.441406 45.601562 45.425781 C 45.359375 45.347656 45.222656 45.085938 45.300781 44.839844 C 45.878906 43.015625 45.777344 41.164062 45 39.335938 C 44.898438 39.097656 45.007812 38.824219 45.246094 38.722656 C 45.480469 38.621094 45.753906 38.734375 45.855469 38.96875 C 46.726562 41.007812 46.839844 43.082031 46.1875 45.125 C 46.125 45.324219 45.941406 45.449219 45.746094 45.449219 Z M 45.746094 45.449219 " fill-opacity="1" fill-rule="evenodd"/><path fill="#ffffff" d="M 37.328125 29.511719 L 61.515625 29.511719 L 61.515625 7.996094 L 37.328125 7.996094 Z M 61.980469 30.445312 L 36.859375 30.445312 C 36.601562 30.445312 36.394531 30.234375 36.394531 29.976562 L 36.394531 7.53125 C 36.394531 7.273438 36.601562 7.0625 36.859375 7.0625 L 61.980469 7.0625 C 62.238281 7.0625 62.445312 7.273438 62.445312 7.53125 L 62.445312 29.976562 C 62.445312 30.234375 62.238281 30.445312 61.980469 30.445312 Z M 61.980469 30.445312 " fill-opacity="1" fill-rule="evenodd"/><path fill="#ffffff" d="M 61.980469 12.914062 L 36.859375 12.914062 C 36.601562 12.914062 36.394531 12.703125 36.394531 12.445312 C 36.394531 12.1875 36.601562 11.980469 36.859375 11.980469 L 61.980469 11.980469 C 62.238281 11.980469 62.445312 12.1875 62.445312 12.445312 C 62.445312 12.703125 62.238281 12.914062 61.980469 12.914062 Z M 61.980469 12.914062 " fill-opacity="1" fill-rule="evenodd"/><path fill="#ffffff" d="M 59.476562 10.453125 L 57.371094 10.453125 C 57.117188 10.453125 56.90625 10.246094 56.90625 9.988281 C 56.90625 9.730469 57.117188 9.523438 57.371094 9.523438 L 59.476562 9.523438 C 59.734375 9.523438 59.941406 9.730469 59.941406 9.988281 C 59.941406 10.246094 59.730469 10.453125 59.476562 10.453125 Z M 59.476562 10.453125 " fill-opacity="1" fill-rule="evenodd"/><path fill="#ffffff" d="M 54.867188 10.453125 L 52.765625 10.453125 C 52.507812 10.453125 52.296875 10.246094 52.296875 9.988281 C 52.300781 9.730469 52.507812 9.523438 52.765625 9.523438 L 54.867188 9.523438 C 55.125 9.523438 55.332031 9.730469 55.332031 9.988281 C 55.332031 10.246094 55.125 10.453125 54.867188 10.453125 Z M 54.867188 10.453125 " fill-opacity="1" fill-rule="evenodd"/><path fill="#ffffff" d="M 50.261719 10.453125 L 48.160156 10.453125 C 47.902344 10.453125 47.691406 10.246094 47.691406 9.988281 C 47.691406 9.730469 47.902344 9.523438 48.15625 9.523438 L 50.261719 9.523438 C 50.519531 9.523438 50.726562 9.730469 50.726562 9.988281 C 50.726562 10.246094 50.519531 10.453125 50.261719 10.453125 Z M 50.261719 10.453125 " fill-opacity="1" fill-rule="evenodd"/><path fill="#ffffff" d="M 58.496094 30.445312 C 58.46875 30.445312 58.4375 30.441406 58.40625 30.4375 C 58.15625 30.386719 57.988281 30.144531 58.039062 29.890625 C 58.078125 29.671875 58.101562 29.449219 58.101562 29.222656 C 58.101562 28.835938 58.039062 28.457031 57.914062 28.09375 C 57.84375 27.882812 57.929688 27.652344 58.121094 27.539062 L 58.664062 27.226562 L 58.363281 26.707031 L 57.820312 27.019531 C 57.628906 27.128906 57.382812 27.089844 57.238281 26.921875 C 56.726562 26.339844 56.03125 25.9375 55.28125 25.789062 C 55.0625 25.75 54.902344 25.554688 54.902344 25.332031 L 54.902344 24.707031 L 54.300781 24.707031 L 54.300781 25.332031 C 54.300781 25.554688 54.144531 25.75 53.925781 25.789062 C 53.171875 25.9375 52.476562 26.339844 51.96875 26.921875 C 51.820312 27.089844 51.578125 27.128906 51.382812 27.019531 L 50.84375 26.707031 L 50.542969 27.226562 L 51.082031 27.539062 C 51.273438 27.652344 51.363281 27.882812 51.289062 28.09375 C 51.167969 28.457031 51.101562 28.835938 51.101562 29.222656 C 51.105469 29.449219 51.125 29.671875 51.167969 29.890625 C 51.214844 30.144531 51.050781 30.386719 50.796875 30.4375 C 50.546875 30.484375 50.300781 30.320312 50.25 30.066406 C 50.199219 29.789062 50.171875 29.507812 50.171875 29.222656 C 50.171875 28.863281 50.214844 28.507812 50.300781 28.164062 L 49.671875 27.800781 C 49.5625 27.738281 49.488281 27.636719 49.453125 27.519531 C 49.421875 27.398438 49.4375 27.269531 49.5 27.164062 L 50.269531 25.835938 C 50.398438 25.613281 50.683594 25.535156 50.902344 25.664062 L 51.535156 26.027344 C 52.050781 25.53125 52.683594 25.167969 53.367188 24.96875 L 53.367188 24.242188 C 53.367188 23.984375 53.578125 23.777344 53.835938 23.777344 L 55.371094 23.777344 C 55.625 23.777344 55.835938 23.984375 55.835938 24.242188 L 55.835938 24.96875 C 56.519531 25.167969 57.152344 25.53125 57.671875 26.027344 L 58.300781 25.664062 C 58.523438 25.535156 58.808594 25.613281 58.9375 25.835938 L 59.703125 27.164062 C 59.765625 27.269531 59.78125 27.398438 59.75 27.519531 C 59.71875 27.636719 59.640625 27.738281 59.535156 27.800781 L 58.90625 28.164062 C 58.992188 28.507812 59.035156 28.863281 59.035156 29.222656 C 59.035156 29.507812 59.007812 29.789062 58.953125 30.066406 C 58.910156 30.289062 58.714844 30.445312 58.496094 30.445312 Z M 58.496094 30.445312 " fill-opacity="1" fill-rule="evenodd"/><path fill="#ffffff" d="M 56.601562 30.445312 C 56.546875 30.445312 56.492188 30.433594 56.4375 30.414062 C 56.199219 30.324219 56.078125 30.054688 56.167969 29.8125 C 56.238281 29.625 56.273438 29.425781 56.273438 29.222656 C 56.273438 28.300781 55.523438 27.550781 54.601562 27.550781 C 53.679688 27.550781 52.929688 28.300781 52.929688 29.222656 C 52.929688 29.425781 52.96875 29.625 53.039062 29.8125 C 53.128906 30.054688 53.007812 30.324219 52.765625 30.414062 C 52.523438 30.503906 52.257812 30.382812 52.164062 30.144531 C 52.054688 29.847656 52 29.539062 52 29.222656 C 52 27.789062 53.167969 26.621094 54.601562 26.621094 C 56.039062 26.621094 57.207031 27.789062 57.207031 29.222656 C 57.207031 29.539062 57.148438 29.847656 57.039062 30.144531 C 56.96875 30.328125 56.789062 30.445312 56.601562 30.445312 Z M 56.601562 30.445312 " fill-opacity="1" fill-rule="evenodd"/><path fill="#ffffff" d="M 53.335938 16.851562 C 52.214844 17.066406 51.367188 18.054688 51.367188 19.238281 C 51.367188 20.578125 52.460938 21.671875 53.800781 21.671875 C 54.984375 21.667969 55.96875 20.824219 56.1875 19.703125 L 53.800781 19.703125 C 53.542969 19.703125 53.335938 19.496094 53.335938 19.238281 Z M 53.800781 22.601562 C 51.945312 22.601562 50.4375 21.09375 50.4375 19.238281 C 50.4375 17.382812 51.945312 15.875 53.800781 15.875 C 54.058594 15.871094 54.265625 16.082031 54.265625 16.339844 L 54.265625 18.769531 L 56.699219 18.769531 C 56.957031 18.769531 57.164062 18.980469 57.164062 19.238281 C 57.164062 21.09375 55.65625 22.601562 53.800781 22.601562 Z M 53.800781 22.601562 " fill-opacity="1" fill-rule="evenodd"/><path fill="#ffffff" d="M 55.871094 17.167969 L 57.792969 17.167969 C 57.601562 16.199219 56.835938 15.4375 55.871094 15.246094 Z M 58.300781 18.101562 L 55.402344 18.101562 C 55.144531 18.101562 54.9375 17.890625 54.9375 17.636719 L 54.9375 14.738281 C 54.9375 14.480469 55.144531 14.269531 55.402344 14.269531 C 57.257812 14.269531 58.769531 15.78125 58.769531 17.636719 C 58.769531 17.890625 58.558594 18.101562 58.300781 18.101562 Z M 58.300781 18.101562 " fill-opacity="1" fill-rule="evenodd"/><path fill="#ffffff" d="M 40.886719 18.550781 C 40.777344 18.550781 40.671875 18.515625 40.582031 18.4375 L 39.234375 17.277344 C 39.132812 17.191406 39.074219 17.0625 39.074219 16.925781 C 39.074219 16.789062 39.132812 16.660156 39.234375 16.574219 L 40.582031 15.410156 C 40.777344 15.242188 41.070312 15.265625 41.238281 15.460938 C 41.40625 15.65625 41.386719 15.949219 41.191406 16.117188 L 40.253906 16.925781 L 41.191406 17.734375 C 41.386719 17.902344 41.40625 18.195312 41.238281 18.390625 C 41.148438 18.496094 41.015625 18.550781 40.886719 18.550781 Z M 40.886719 18.550781 " fill-opacity="1" fill-rule="evenodd"/><path fill="#ffffff" d="M 43.324219 18.550781 C 43.191406 18.550781 43.0625 18.496094 42.96875 18.390625 C 42.800781 18.195312 42.824219 17.902344 43.019531 17.734375 L 43.957031 16.925781 L 43.019531 16.117188 C 42.824219 15.949219 42.800781 15.65625 42.96875 15.460938 C 43.136719 15.265625 43.433594 15.242188 43.628906 15.410156 L 44.972656 16.570312 C 45.078125 16.660156 45.136719 16.789062 45.136719 16.925781 C 45.136719 17.0625 45.078125 17.191406 44.972656 17.277344 L 43.628906 18.4375 C 43.539062 18.515625 43.433594 18.550781 43.324219 18.550781 Z M 43.324219 18.550781 " fill-opacity="1" fill-rule="evenodd"/><path fill="#ffffff" d="M 44.902344 21.53125 L 39.539062 21.53125 C 39.28125 21.53125 39.074219 21.324219 39.074219 21.066406 C 39.074219 20.808594 39.28125 20.601562 39.539062 20.601562 L 44.902344 20.597656 C 45.160156 20.597656 45.367188 20.808594 45.367188 21.066406 C 45.367188 21.324219 45.160156 21.53125 44.902344 21.53125 Z M 44.902344 21.53125 " fill-opacity="1" fill-rule="evenodd"/><path fill="#ffffff" d="M 47.40625 24.328125 L 39.539062 24.328125 C 39.28125 24.328125 39.074219 24.121094 39.074219 23.863281 C 39.074219 23.605469 39.28125 23.398438 39.539062 23.398438 L 47.40625 23.394531 C 47.664062 23.394531 47.871094 23.605469 47.871094 23.863281 C 47.871094 24.121094 47.664062 24.328125 47.40625 24.328125 Z M 47.40625 24.328125 " fill-opacity="1" fill-rule="evenodd"/><path fill="#ffffff" d="M 43.472656 27.125 L 39.539062 27.125 C 39.28125 27.125 39.074219 26.917969 39.074219 26.660156 C 39.074219 26.402344 39.28125 26.195312 39.539062 26.195312 L 43.472656 26.195312 C 43.730469 26.195312 43.941406 26.402344 43.941406 26.660156 C 43.941406 26.917969 43.730469 27.125 43.472656 27.125 Z M 43.472656 27.125 " fill-opacity="1" fill-rule="evenodd"/><g fill="#ffffff" fill-opacity="1"><g transform="translate(14.841033, 60.790415)"><g><path d="M 6.140625 -6.234375 C 6.140625 -5.953125 6.050781 -5.707031 5.875 -5.5 C 5.707031 -5.300781 5.488281 -5.15625 5.21875 -5.0625 L 5.21875 -2.40625 C 5.21875 -1.625 5.019531 -1.007812 4.625 -0.5625 C 4.238281 -0.113281 3.660156 0.109375 2.890625 0.109375 C 2.117188 0.109375 1.535156 -0.113281 1.140625 -0.5625 C 0.753906 -1.007812 0.5625 -1.625 0.5625 -2.40625 L 0.5625 -5.625 L 1.578125 -5.625 L 1.578125 -2.671875 C 1.578125 -2.285156 1.613281 -1.960938 1.6875 -1.703125 C 1.757812 -1.441406 1.890625 -1.238281 2.078125 -1.09375 C 2.265625 -0.945312 2.535156 -0.875 2.890625 -0.875 C 3.234375 -0.875 3.5 -0.945312 3.6875 -1.09375 C 3.882812 -1.238281 4.015625 -1.441406 4.078125 -1.703125 C 4.148438 -1.960938 4.1875 -2.285156 4.1875 -2.671875 L 4.1875 -5.625 L 4.640625 -5.625 C 5.066406 -5.625 5.28125 -5.828125 5.28125 -6.234375 Z M 2.109375 -6.65625 L 3.6875 -7.421875 L 3.6875 -6.578125 L 2.109375 -6.109375 Z M 2.109375 -6.65625 "/></g></g></g><g fill="#ffffff" fill-opacity="1"><g transform="translate(20.616061, 60.790415)"><g><path d="M 2.5 -4.09375 C 3 -4.09375 3.375 -3.925781 3.625 -3.59375 C 3.882812 -3.257812 4.015625 -2.8125 4.015625 -2.25 L 4.015625 0 L 3.015625 0 L 3.015625 -2.171875 C 3.015625 -2.546875 2.953125 -2.820312 2.828125 -3 C 2.703125 -3.175781 2.5 -3.265625 2.21875 -3.265625 C 1.914062 -3.265625 1.664062 -3.148438 1.46875 -2.921875 L 1.46875 0 L 0.46875 0 L 0.46875 -4.015625 L 1.40625 -4.015625 L 1.421875 -3.734375 C 1.753906 -3.972656 2.113281 -4.09375 2.5 -4.09375 Z M 2.5 -4.09375 "/></g></g></g><g fill="#ffffff" fill-opacity="1"><g transform="translate(25.055914, 60.790415)"><g><path d="M 2.0625 2.03125 C 1.488281 2.03125 1.03125 1.925781 0.6875 1.71875 C 0.351562 1.507812 0.1875 1.226562 0.1875 0.875 C 0.1875 0.488281 0.40625 0.171875 0.84375 -0.078125 C 0.601562 -0.222656 0.484375 -0.410156 0.484375 -0.640625 C 0.484375 -0.765625 0.519531 -0.875 0.59375 -0.96875 C 0.664062 -1.070312 0.765625 -1.148438 0.890625 -1.203125 C 0.691406 -1.347656 0.539062 -1.53125 0.4375 -1.75 C 0.332031 -1.976562 0.28125 -2.226562 0.28125 -2.5 C 0.28125 -2.789062 0.34375 -3.054688 0.46875 -3.296875 C 0.59375 -3.546875 0.78125 -3.742188 1.03125 -3.890625 C 1.28125 -4.035156 1.570312 -4.109375 1.90625 -4.109375 C 2.257812 -4.109375 2.566406 -4.019531 2.828125 -3.84375 C 2.921875 -3.894531 3.039062 -3.9375 3.1875 -3.96875 C 3.34375 -4 3.507812 -4.015625 3.6875 -4.015625 L 3.9375 -4.015625 L 3.875 -3.390625 L 3.515625 -3.390625 C 3.421875 -3.390625 3.347656 -3.390625 3.296875 -3.390625 C 3.453125 -3.140625 3.53125 -2.84375 3.53125 -2.5 C 3.53125 -2.207031 3.46875 -1.9375 3.34375 -1.6875 C 3.21875 -1.445312 3.03125 -1.253906 2.78125 -1.109375 C 2.53125 -0.972656 2.238281 -0.90625 1.90625 -0.90625 C 1.78125 -0.90625 1.640625 -0.921875 1.484375 -0.953125 C 1.421875 -0.929688 1.390625 -0.890625 1.390625 -0.828125 C 1.390625 -0.753906 1.429688 -0.695312 1.515625 -0.65625 C 1.597656 -0.625 1.738281 -0.59375 1.9375 -0.5625 L 2.625 -0.46875 C 3.550781 -0.351562 4.015625 0.03125 4.015625 0.6875 C 4.015625 1.09375 3.84375 1.414062 3.5 1.65625 C 3.15625 1.90625 2.675781 2.03125 2.0625 2.03125 Z M 1.90625 -1.640625 C 2.132812 -1.640625 2.3125 -1.710938 2.4375 -1.859375 C 2.5625 -2.015625 2.625 -2.226562 2.625 -2.5 C 2.625 -2.769531 2.5625 -2.976562 2.4375 -3.125 C 2.3125 -3.28125 2.132812 -3.359375 1.90625 -3.359375 C 1.664062 -3.359375 1.484375 -3.28125 1.359375 -3.125 C 1.234375 -2.976562 1.171875 -2.769531 1.171875 -2.5 C 1.171875 -2.226562 1.234375 -2.015625 1.359375 -1.859375 C 1.484375 -1.710938 1.664062 -1.640625 1.90625 -1.640625 Z M 2.09375 1.265625 C 2.78125 1.265625 3.125 1.097656 3.125 0.765625 C 3.125 0.617188 3.066406 0.507812 2.953125 0.4375 C 2.835938 0.363281 2.640625 0.300781 2.359375 0.25 L 1.484375 0.125 C 1.171875 0.25 1.015625 0.4375 1.015625 0.6875 C 1.015625 0.882812 1.109375 1.03125 1.296875 1.125 C 1.484375 1.21875 1.75 1.265625 2.09375 1.265625 Z M 2.09375 1.265625 "/></g></g></g><g fill="#ffffff" fill-opacity="1"><g transform="translate(29.085563, 60.790415)"><g/></g></g><g fill="#ffffff" fill-opacity="1"><g transform="translate(30.895281, 60.790415)"><g><path d="M 4.140625 -6.03125 L 4.140625 0 L 3.1875 0 L 3.171875 -0.25 C 3.015625 -0.144531 2.851562 -0.0625 2.6875 0 C 2.519531 0.0507812 2.320312 0.078125 2.09375 0.078125 C 1.695312 0.078125 1.359375 -0.015625 1.078125 -0.203125 C 0.796875 -0.390625 0.582031 -0.640625 0.4375 -0.953125 C 0.289062 -1.273438 0.21875 -1.625 0.21875 -2 C 0.21875 -2.382812 0.289062 -2.734375 0.4375 -3.046875 C 0.582031 -3.367188 0.796875 -3.625 1.078125 -3.8125 C 1.359375 -4 1.695312 -4.09375 2.09375 -4.09375 C 2.476562 -4.09375 2.828125 -3.984375 3.140625 -3.765625 L 3.140625 -6.03125 Z M 2.234375 -0.734375 C 2.554688 -0.734375 2.796875 -0.847656 2.953125 -1.078125 C 3.109375 -1.304688 3.1875 -1.613281 3.1875 -2 C 3.1875 -2.394531 3.109375 -2.703125 2.953125 -2.921875 C 2.796875 -3.148438 2.554688 -3.265625 2.234375 -3.265625 C 1.921875 -3.265625 1.675781 -3.148438 1.5 -2.921875 C 1.332031 -2.691406 1.25 -2.382812 1.25 -2 C 1.25 -1.625 1.332031 -1.316406 1.5 -1.078125 C 1.675781 -0.847656 1.921875 -0.734375 2.234375 -0.734375 Z M 2.234375 -0.734375 "/></g></g></g><g fill="#ffffff" fill-opacity="1"><g transform="translate(35.487956, 60.790415)"><g><path d="M 3.96875 -4.015625 L 3.96875 0 L 3.046875 0 L 3.03125 -0.234375 C 2.90625 -0.148438 2.757812 -0.078125 2.59375 -0.015625 C 2.4375 0.046875 2.28125 0.078125 2.125 0.078125 C 1.53125 0.078125 1.097656 -0.09375 0.828125 -0.4375 C 0.554688 -0.78125 0.421875 -1.253906 0.421875 -1.859375 L 0.421875 -4.015625 L 1.421875 -4.015625 L 1.421875 -1.859375 C 1.421875 -1.484375 1.484375 -1.203125 1.609375 -1.015625 C 1.734375 -0.835938 1.9375 -0.75 2.21875 -0.75 C 2.53125 -0.75 2.785156 -0.863281 2.984375 -1.09375 L 2.984375 -4.015625 Z M 1.796875 0.65625 L 2.640625 0.65625 L 2.640625 1.4375 L 1.796875 1.4375 Z M 1.796875 0.65625 "/></g></g></g><g fill="#ffffff" fill-opacity="1"><g transform="translate(39.927809, 60.790415)"><g><path d="M 2.5 -4.09375 C 3 -4.09375 3.375 -3.925781 3.625 -3.59375 C 3.882812 -3.257812 4.015625 -2.8125 4.015625 -2.25 L 4.015625 0 L 3.015625 0 L 3.015625 -2.171875 C 3.015625 -2.546875 2.953125 -2.820312 2.828125 -3 C 2.703125 -3.175781 2.5 -3.265625 2.21875 -3.265625 C 1.914062 -3.265625 1.664062 -3.148438 1.46875 -2.921875 L 1.46875 0 L 0.46875 0 L 0.46875 -4.015625 L 1.40625 -4.015625 L 1.421875 -3.734375 C 1.753906 -3.972656 2.113281 -4.09375 2.5 -4.09375 Z M 2.5 -4.09375 "/></g></g></g><g fill="#ffffff" fill-opacity="1"><g transform="translate(44.367663, 60.790415)"><g><path d="M 2.0625 2.03125 C 1.488281 2.03125 1.03125 1.925781 0.6875 1.71875 C 0.351562 1.507812 0.1875 1.226562 0.1875 0.875 C 0.1875 0.488281 0.40625 0.171875 0.84375 -0.078125 C 0.601562 -0.222656 0.484375 -0.410156 0.484375 -0.640625 C 0.484375 -0.765625 0.519531 -0.875 0.59375 -0.96875 C 0.664062 -1.070312 0.765625 -1.148438 0.890625 -1.203125 C 0.691406 -1.347656 0.539062 -1.53125 0.4375 -1.75 C 0.332031 -1.976562 0.28125 -2.226562 0.28125 -2.5 C 0.28125 -2.789062 0.34375 -3.054688 0.46875 -3.296875 C 0.59375 -3.546875 0.78125 -3.742188 1.03125 -3.890625 C 1.28125 -4.035156 1.570312 -4.109375 1.90625 -4.109375 C 2.257812 -4.109375 2.566406 -4.019531 2.828125 -3.84375 C 2.921875 -3.894531 3.039062 -3.9375 3.1875 -3.96875 C 3.34375 -4 3.507812 -4.015625 3.6875 -4.015625 L 3.9375 -4.015625 L 3.875 -3.390625 L 3.515625 -3.390625 C 3.421875 -3.390625 3.347656 -3.390625 3.296875 -3.390625 C 3.453125 -3.140625 3.53125 -2.84375 3.53125 -2.5 C 3.53125 -2.207031 3.46875 -1.9375 3.34375 -1.6875 C 3.21875 -1.445312 3.03125 -1.253906 2.78125 -1.109375 C 2.53125 -0.972656 2.238281 -0.90625 1.90625 -0.90625 C 1.78125 -0.90625 1.640625 -0.921875 1.484375 -0.953125 C 1.421875 -0.929688 1.390625 -0.890625 1.390625 -0.828125 C 1.390625 -0.753906 1.429688 -0.695312 1.515625 -0.65625 C 1.597656 -0.625 1.738281 -0.59375 1.9375 -0.5625 L 2.625 -0.46875 C 3.550781 -0.351562 4.015625 0.03125 4.015625 0.6875 C 4.015625 1.09375 3.84375 1.414062 3.5 1.65625 C 3.15625 1.90625 2.675781 2.03125 2.0625 2.03125 Z M 1.90625 -1.640625 C 2.132812 -1.640625 2.3125 -1.710938 2.4375 -1.859375 C 2.5625 -2.015625 2.625 -2.226562 2.625 -2.5 C 2.625 -2.769531 2.5625 -2.976562 2.4375 -3.125 C 2.3125 -3.28125 2.132812 -3.359375 1.90625 -3.359375 C 1.664062 -3.359375 1.484375 -3.28125 1.359375 -3.125 C 1.234375 -2.976562 1.171875 -2.769531 1.171875 -2.5 C 1.171875 -2.226562 1.234375 -2.015625 1.359375 -1.859375 C 1.484375 -1.710938 1.664062 -1.640625 1.90625 -1.640625 Z M 2.09375 1.265625 C 2.78125 1.265625 3.125 1.097656 3.125 0.765625 C 3.125 0.617188 3.066406 0.507812 2.953125 0.4375 C 2.835938 0.363281 2.640625 0.300781 2.359375 0.25 L 1.484375 0.125 C 1.171875 0.25 1.015625 0.4375 1.015625 0.6875 C 1.015625 0.882812 1.109375 1.03125 1.296875 1.125 C 1.484375 1.21875 1.75 1.265625 2.09375 1.265625 Z M 2.09375 1.265625 "/></g></g></g><g fill="#ffffff" fill-opacity="1"><g transform="translate(48.397311, 60.790415)"><g/></g></g><g fill="#ffffff" fill-opacity="1"><g transform="translate(50.207029, 60.790415)"><g><path d="M 2.5 -4.09375 C 3 -4.09375 3.375 -3.925781 3.625 -3.59375 C 3.882812 -3.257812 4.015625 -2.8125 4.015625 -2.25 L 4.015625 0 L 3.015625 0 L 3.015625 -2.171875 C 3.015625 -2.546875 2.953125 -2.820312 2.828125 -3 C 2.703125 -3.175781 2.5 -3.265625 2.21875 -3.265625 C 1.914062 -3.265625 1.664062 -3.148438 1.46875 -2.921875 L 1.46875 0 L 0.46875 0 L 0.46875 -4.015625 L 1.40625 -4.015625 L 1.421875 -3.734375 C 1.753906 -3.972656 2.113281 -4.09375 2.5 -4.09375 Z M 2.5 -4.09375 "/></g></g></g><g fill="#ffffff" fill-opacity="1"><g transform="translate(54.646882, 60.790415)"><g><path d="M 2.0625 2.03125 C 1.488281 2.03125 1.03125 1.925781 0.6875 1.71875 C 0.351562 1.507812 0.1875 1.226562 0.1875 0.875 C 0.1875 0.488281 0.40625 0.171875 0.84375 -0.078125 C 0.601562 -0.222656 0.484375 -0.410156 0.484375 -0.640625 C 0.484375 -0.765625 0.519531 -0.875 0.59375 -0.96875 C 0.664062 -1.070312 0.765625 -1.148438 0.890625 -1.203125 C 0.691406 -1.347656 0.539062 -1.53125 0.4375 -1.75 C 0.332031 -1.976562 0.28125 -2.226562 0.28125 -2.5 C 0.28125 -2.789062 0.34375 -3.054688 0.46875 -3.296875 C 0.59375 -3.546875 0.78125 -3.742188 1.03125 -3.890625 C 1.28125 -4.035156 1.570312 -4.109375 1.90625 -4.109375 C 2.257812 -4.109375 2.566406 -4.019531 2.828125 -3.84375 C 2.921875 -3.894531 3.039062 -3.9375 3.1875 -3.96875 C 3.34375 -4 3.507812 -4.015625 3.6875 -4.015625 L 3.9375 -4.015625 L 3.875 -3.390625 L 3.515625 -3.390625 C 3.421875 -3.390625 3.347656 -3.390625 3.296875 -3.390625 C 3.453125 -3.140625 3.53125 -2.84375 3.53125 -2.5 C 3.53125 -2.207031 3.46875 -1.9375 3.34375 -1.6875 C 3.21875 -1.445312 3.03125 -1.253906 2.78125 -1.109375 C 2.53125 -0.972656 2.238281 -0.90625 1.90625 -0.90625 C 1.78125 -0.90625 1.640625 -0.921875 1.484375 -0.953125 C 1.421875 -0.929688 1.390625 -0.890625 1.390625 -0.828125 C 1.390625 -0.753906 1.429688 -0.695312 1.515625 -0.65625 C 1.597656 -0.625 1.738281 -0.59375 1.9375 -0.5625 L 2.625 -0.46875 C 3.550781 -0.351562 4.015625 0.03125 4.015625 0.6875 C 4.015625 1.09375 3.84375 1.414062 3.5 1.65625 C 3.15625 1.90625 2.675781 2.03125 2.0625 2.03125 Z M 1.90625 -1.640625 C 2.132812 -1.640625 2.3125 -1.710938 2.4375 -1.859375 C 2.5625 -2.015625 2.625 -2.226562 2.625 -2.5 C 2.625 -2.769531 2.5625 -2.976562 2.4375 -3.125 C 2.3125 -3.28125 2.132812 -3.359375 1.90625 -3.359375 C 1.664062 -3.359375 1.484375 -3.28125 1.359375 -3.125 C 1.234375 -2.976562 1.171875 -2.769531 1.171875 -2.5 C 1.171875 -2.226562 1.234375 -2.015625 1.359375 -1.859375 C 1.484375 -1.710938 1.664062 -1.640625 1.90625 -1.640625 Z M 2.09375 1.265625 C 2.78125 1.265625 3.125 1.097656 3.125 0.765625 C 3.125 0.617188 3.066406 0.507812 2.953125 0.4375 C 2.835938 0.363281 2.640625 0.300781 2.359375 0.25 L 1.484375 0.125 C 1.171875 0.25 1.015625 0.4375 1.015625 0.6875 C 1.015625 0.882812 1.109375 1.03125 1.296875 1.125 C 1.484375 1.21875 1.75 1.265625 2.09375 1.265625 Z M 2.09375 1.265625 "/></g></g></g><g fill="#ffffff" fill-opacity="1"><g transform="translate(58.676531, 60.790415)"><g><path d="M 2.5 -4.09375 C 3.007812 -4.09375 3.382812 -3.925781 3.625 -3.59375 C 3.875 -3.257812 4 -2.804688 4 -2.234375 L 4 0 L 3.015625 0 L 3.015625 -2.171875 C 3.015625 -2.546875 2.953125 -2.820312 2.828125 -3 C 2.703125 -3.175781 2.503906 -3.265625 2.234375 -3.265625 C 1.921875 -3.265625 1.660156 -3.148438 1.453125 -2.921875 L 1.453125 0 L 0.453125 0 L 0.453125 -6.03125 L 1.453125 -6.03125 L 1.453125 -3.765625 C 1.617188 -3.867188 1.785156 -3.945312 1.953125 -4 C 2.117188 -4.0625 2.300781 -4.09375 2.5 -4.09375 Z M 2.5 -4.09375 "/></g></g></g><g fill="#ffffff" fill-opacity="1"><g transform="translate(63.108337, 60.790415)"><g><path d="M 0.46875 -5.625 L 1.46875 -5.625 L 1.46875 -4.640625 L 0.46875 -4.640625 Z M 0.46875 -4.015625 L 1.46875 -4.015625 L 1.46875 0 L 0.46875 0 Z M 0.46875 -4.015625 "/></g></g></g><g fill="#ffffff" fill-opacity="1"><g transform="translate(65.038711, 60.790415)"><g><path d="M 2.40625 0.078125 C 1.9375 0.078125 1.535156 -0.015625 1.203125 -0.203125 C 0.878906 -0.390625 0.632812 -0.644531 0.46875 -0.96875 C 0.300781 -1.289062 0.21875 -1.644531 0.21875 -2.03125 C 0.21875 -2.40625 0.296875 -2.75 0.453125 -3.0625 C 0.609375 -3.375 0.832031 -3.625 1.125 -3.8125 C 1.425781 -4 1.78125 -4.09375 2.1875 -4.09375 C 2.5625 -4.09375 2.878906 -4.015625 3.140625 -3.859375 C 3.398438 -3.703125 3.59375 -3.488281 3.71875 -3.21875 C 3.851562 -2.957031 3.921875 -2.664062 3.921875 -2.34375 C 3.921875 -2.175781 3.898438 -1.992188 3.859375 -1.796875 L 1.265625 -1.796875 C 1.316406 -1.441406 1.453125 -1.175781 1.671875 -1 C 1.898438 -0.820312 2.175781 -0.734375 2.5 -0.734375 C 2.925781 -0.734375 3.328125 -0.84375 3.703125 -1.0625 L 3.75 -0.21875 C 3.582031 -0.132812 3.382812 -0.0625 3.15625 0 C 2.925781 0.0507812 2.675781 0.078125 2.40625 0.078125 Z M 2.90625 -2.46875 C 2.90625 -2.675781 2.847656 -2.859375 2.734375 -3.015625 C 2.617188 -3.179688 2.4375 -3.265625 2.1875 -3.265625 C 1.9375 -3.265625 1.738281 -3.191406 1.59375 -3.046875 C 1.445312 -2.898438 1.34375 -2.707031 1.28125 -2.46875 Z M 1.203125 -5.09375 L 2.265625 -6 L 3.328125 -5.09375 L 3.328125 -4.453125 L 2.265625 -5.125 L 1.203125 -4.453125 Z M 1.65625 0.65625 L 2.5 0.65625 L 2.5 1.4375 L 1.65625 1.4375 Z M 1.65625 0.65625 "/></g></g></g><g fill="#ffffff" fill-opacity="1"><g transform="translate(69.18096, 60.790415)"><g><path d="M 2.5625 -4.09375 C 2.945312 -4.09375 3.273438 -4 3.546875 -3.8125 C 3.816406 -3.625 4.019531 -3.367188 4.15625 -3.046875 C 4.300781 -2.734375 4.375 -2.382812 4.375 -2 C 4.375 -1.625 4.300781 -1.273438 4.15625 -0.953125 C 4.019531 -0.640625 3.816406 -0.390625 3.546875 -0.203125 C 3.273438 -0.015625 2.945312 0.078125 2.5625 0.078125 C 2.320312 0.078125 2.117188 0.0507812 1.953125 0 C 1.785156 -0.0507812 1.625 -0.128906 1.46875 -0.234375 L 1.46875 1.953125 L 0.46875 1.953125 L 0.46875 -4.015625 L 1.265625 -4.015625 L 1.375 -3.65625 C 1.550781 -3.800781 1.734375 -3.910156 1.921875 -3.984375 C 2.109375 -4.054688 2.320312 -4.09375 2.5625 -4.09375 Z M 2.40625 -0.734375 C 2.707031 -0.734375 2.941406 -0.847656 3.109375 -1.078125 C 3.273438 -1.316406 3.359375 -1.625 3.359375 -2 C 3.359375 -2.382812 3.273438 -2.691406 3.109375 -2.921875 C 2.941406 -3.148438 2.707031 -3.265625 2.40625 -3.265625 C 2.082031 -3.265625 1.835938 -3.148438 1.671875 -2.921875 C 1.503906 -2.703125 1.421875 -2.394531 1.421875 -2 C 1.421875 -1.613281 1.503906 -1.304688 1.671875 -1.078125 C 1.835938 -0.847656 2.082031 -0.734375 2.40625 -0.734375 Z M 2.40625 -0.734375 "/></g></g></g><g fill="#ffffff" fill-opacity="1"><g transform="translate(73.781674, 60.790415)"><g/></g></g><g fill="#ffffff" fill-opacity="1"><g transform="translate(75.591392, 60.790415)"><g><path d="M 0.03125 -4.015625 L 1 -4.015625 L 2 -1.234375 L 2.984375 -4.015625 L 3.96875 -4.015625 L 2.421875 0 L 1.5625 0 Z M 0.03125 -4.015625 "/></g></g></g><g fill="#ffffff" fill-opacity="1"><g transform="translate(79.580828, 60.790415)"><g><path d="M 3.96875 -4.015625 L 3.96875 0 L 3.046875 0 L 3.03125 -0.234375 C 2.90625 -0.148438 2.757812 -0.078125 2.59375 -0.015625 C 2.4375 0.046875 2.28125 0.078125 2.125 0.078125 C 1.53125 0.078125 1.097656 -0.09375 0.828125 -0.4375 C 0.554688 -0.78125 0.421875 -1.253906 0.421875 -1.859375 L 0.421875 -4.015625 L 1.421875 -4.015625 L 1.421875 -1.859375 C 1.421875 -1.484375 1.484375 -1.203125 1.609375 -1.015625 C 1.734375 -0.835938 1.9375 -0.75 2.21875 -0.75 C 2.53125 -0.75 2.785156 -0.863281 2.984375 -1.09375 L 2.984375 -4.015625 Z M 1.796875 0.65625 L 2.640625 0.65625 L 2.640625 1.4375 L 1.796875 1.4375 Z M 1.796875 0.65625 "/></g></g></g></svg>