<svg xmlns="http://www.w3.org/2000/svg" xmlns:xlink="http://www.w3.org/1999/xlink" width="132" zoomAndPan="magnify" viewBox="0 0 98.88 70.499998" height="94" preserveAspectRatio="xMidYMid meet" version="1.0"><defs><g/><clipPath id="760c80e82d"><path d="M 47 47 L 52 47 L 52 47.960938 L 47 47.960938 Z M 47 47 " clip-rule="nonzero"/></clipPath><clipPath id="2bff0e93e1"><path d="M 31.320312 25 L 37 25 L 37 27 L 31.320312 27 Z M 31.320312 25 " clip-rule="nonzero"/></clipPath><clipPath id="315f4a97b2"><path d="M 62 25 L 67.8125 25 L 67.8125 27 L 62 27 Z M 62 25 " clip-rule="nonzero"/></clipPath></defs><path fill="#ffffff" d="M 56.179688 17.617188 C 54.25 15.730469 51.699219 14.726562 49 14.792969 C 43.597656 14.921875 39.25 19.421875 39.308594 24.828125 C 39.335938 27.457031 40.382812 29.925781 42.257812 31.777344 C 43.480469 32.984375 44.179688 34.683594 44.179688 36.4375 L 44.179688 38.730469 C 44.179688 38.953125 44.359375 39.132812 44.578125 39.132812 C 44.800781 39.132812 44.980469 38.953125 44.980469 38.730469 L 44.980469 36.4375 C 44.980469 34.46875 44.191406 32.5625 42.820312 31.207031 C 41.097656 29.507812 40.132812 27.238281 40.105469 24.820312 C 40.054688 19.847656 44.050781 15.710938 49.019531 15.59375 C 51.5 15.535156 53.847656 16.457031 55.621094 18.191406 C 57.394531 19.921875 58.371094 22.242188 58.371094 24.71875 C 58.371094 27.167969 57.414062 29.46875 55.671875 31.195312 C 54.289062 32.5625 53.5 34.476562 53.5 36.4375 L 53.5 38.730469 C 53.5 38.953125 53.679688 39.132812 53.898438 39.132812 C 54.121094 39.132812 54.300781 38.953125 54.300781 38.730469 L 54.300781 36.4375 C 54.300781 34.6875 55.003906 32.984375 56.234375 31.761719 C 58.128906 29.886719 59.171875 27.382812 59.171875 24.71875 C 59.171875 22.023438 58.109375 19.5 56.179688 17.617188 Z M 56.179688 17.617188 " fill-opacity="1" fill-rule="nonzero"/><path fill="#ffffff" d="M 53.929688 40.097656 L 44.613281 40.097656 C 44.394531 40.097656 44.214844 40.273438 44.210938 40.492188 L 44.179688 42.183594 C 44.179688 43.429688 45.191406 44.441406 46.4375 44.441406 L 52.042969 44.441406 C 53.285156 44.441406 54.300781 43.429688 54.300781 42.191406 L 54.332031 40.507812 C 54.332031 40.402344 54.292969 40.296875 54.214844 40.21875 C 54.140625 40.144531 54.039062 40.097656 53.929688 40.097656 Z M 53.5 42.183594 C 53.5 42.988281 52.84375 43.640625 52.042969 43.640625 L 46.4375 43.640625 C 45.636719 43.640625 44.980469 42.988281 44.980469 42.191406 L 45.003906 40.898438 L 53.523438 40.898438 Z M 53.5 42.183594 " fill-opacity="1" fill-rule="nonzero"/><path fill="#ffffff" d="M 52.179688 45.019531 L 46.488281 45.019531 C 46.269531 45.019531 46.089844 45.195312 46.089844 45.417969 C 46.089844 45.640625 46.269531 45.816406 46.488281 45.816406 L 52.179688 45.816406 C 52.402344 45.816406 52.582031 45.640625 52.582031 45.417969 C 52.582031 45.195312 52.402344 45.019531 52.179688 45.019531 Z M 52.179688 45.019531 " fill-opacity="1" fill-rule="nonzero"/><g clip-path="url(#760c80e82d)"><path fill="#ffffff" d="M 51 47.019531 L 47.605469 47.019531 C 47.386719 47.019531 47.207031 47.199219 47.207031 47.421875 C 47.207031 47.640625 47.386719 47.820312 47.605469 47.820312 L 51 47.820312 C 51.222656 47.820312 51.402344 47.640625 51.402344 47.421875 C 51.402344 47.199219 51.222656 47.019531 51 47.019531 Z M 51 47.019531 " fill-opacity="1" fill-rule="nonzero"/></g><path fill="#ffffff" d="M 47.605469 30.085938 C 47.890625 30.085938 48.164062 29.964844 48.355469 29.75 L 54.648438 22.664062 C 55.015625 22.25 54.976562 21.617188 54.5625 21.25 C 54.148438 20.882812 53.519531 20.921875 53.152344 21.335938 L 47.691406 27.480469 L 45.113281 23.851562 C 44.792969 23.398438 44.167969 23.296875 43.714844 23.617188 C 43.265625 23.9375 43.160156 24.558594 43.480469 25.011719 L 46.792969 29.664062 C 46.96875 29.914062 47.25 30.066406 47.554688 30.082031 C 47.570312 30.085938 47.589844 30.085938 47.605469 30.085938 Z M 47.605469 30.085938 " fill-opacity="1" fill-rule="nonzero"/><path fill="#ffffff" d="M 49.441406 13.351562 C 49.660156 13.351562 49.839844 13.171875 49.839844 12.949219 L 49.839844 7.402344 C 49.839844 7.179688 49.660156 7 49.441406 7 C 49.21875 7 49.039062 7.179688 49.039062 7.402344 L 49.039062 12.949219 C 49.039062 13.171875 49.21875 13.351562 49.441406 13.351562 Z M 49.441406 13.351562 " fill-opacity="1" fill-rule="nonzero"/><g clip-path="url(#2bff0e93e1)"><path fill="#ffffff" d="M 36.417969 25.5625 L 31.730469 25.5625 C 31.507812 25.5625 31.332031 25.742188 31.332031 25.964844 C 31.332031 26.183594 31.507812 26.363281 31.730469 26.363281 L 36.417969 26.363281 C 36.640625 26.363281 36.820312 26.183594 36.820312 25.964844 C 36.820312 25.742188 36.640625 25.5625 36.417969 25.5625 Z M 36.417969 25.5625 " fill-opacity="1" fill-rule="nonzero"/></g><g clip-path="url(#315f4a97b2)"><path fill="#ffffff" d="M 67.148438 25.5625 L 62.460938 25.5625 C 62.238281 25.5625 62.058594 25.742188 62.058594 25.964844 C 62.058594 26.183594 62.238281 26.363281 62.460938 26.363281 L 67.148438 26.363281 C 67.367188 26.363281 67.546875 26.183594 67.546875 25.964844 C 67.546875 25.742188 67.367188 25.5625 67.148438 25.5625 Z M 67.148438 25.5625 " fill-opacity="1" fill-rule="nonzero"/></g><path fill="#ffffff" d="M 39.949219 34.882812 L 37.050781 37.78125 C 36.894531 37.9375 36.894531 38.191406 37.050781 38.347656 C 37.128906 38.425781 37.230469 38.464844 37.332031 38.464844 C 37.433594 38.464844 37.539062 38.425781 37.613281 38.347656 L 40.515625 35.449219 C 40.671875 35.292969 40.671875 35.039062 40.515625 34.882812 C 40.359375 34.726562 40.105469 34.726562 39.949219 34.882812 Z M 39.949219 34.882812 " fill-opacity="1" fill-rule="nonzero"/><path fill="#ffffff" d="M 58.644531 17.160156 C 58.746094 17.160156 58.851562 17.121094 58.929688 17.042969 L 62.671875 13.300781 C 62.828125 13.144531 62.828125 12.890625 62.671875 12.734375 C 62.515625 12.578125 62.265625 12.578125 62.105469 12.734375 L 58.363281 16.476562 C 58.207031 16.632812 58.207031 16.886719 58.363281 17.042969 C 58.441406 17.121094 58.542969 17.160156 58.644531 17.160156 Z M 58.644531 17.160156 " fill-opacity="1" fill-rule="nonzero"/><path fill="#ffffff" d="M 58.929688 34.882812 C 58.773438 34.726562 58.519531 34.726562 58.363281 34.882812 C 58.207031 35.039062 58.207031 35.292969 58.363281 35.449219 L 61.261719 38.347656 C 61.339844 38.425781 61.441406 38.464844 61.546875 38.464844 C 61.648438 38.464844 61.75 38.425781 61.828125 38.347656 C 61.984375 38.191406 61.984375 37.9375 61.828125 37.78125 Z M 58.929688 34.882812 " fill-opacity="1" fill-rule="nonzero"/><path fill="#ffffff" d="M 39.949219 17.042969 C 40.027344 17.121094 40.128906 17.160156 40.234375 17.160156 C 40.335938 17.160156 40.4375 17.121094 40.515625 17.042969 C 40.671875 16.886719 40.671875 16.632812 40.515625 16.476562 L 36.769531 12.734375 C 36.613281 12.578125 36.363281 12.578125 36.203125 12.734375 C 36.046875 12.890625 36.046875 13.144531 36.203125 13.300781 Z M 39.949219 17.042969 " fill-opacity="1" fill-rule="nonzero"/><g fill="#ffffff" fill-opacity="1"><g transform="translate(16.413245, 60.790408)"><g><path d="M 1.71875 -4.640625 L 0.125 -4.640625 L 0.125 -5.625 L 4.34375 -5.625 L 4.34375 -4.640625 L 2.75 -4.640625 L 2.75 0 L 1.71875 0 Z M 1.71875 -4.640625 "/></g></g></g><g fill="#ffffff" fill-opacity="1"><g transform="translate(20.869186, 60.790408)"><g><path d="M 2.5 -4.09375 C 3.007812 -4.09375 3.382812 -3.925781 3.625 -3.59375 C 3.875 -3.257812 4 -2.804688 4 -2.234375 L 4 0 L 3.015625 0 L 3.015625 -2.171875 C 3.015625 -2.546875 2.953125 -2.820312 2.828125 -3 C 2.703125 -3.175781 2.503906 -3.265625 2.234375 -3.265625 C 1.921875 -3.265625 1.660156 -3.148438 1.453125 -2.921875 L 1.453125 0 L 0.453125 0 L 0.453125 -6.03125 L 1.453125 -6.03125 L 1.453125 -3.765625 C 1.617188 -3.867188 1.785156 -3.945312 1.953125 -4 C 2.117188 -4.0625 2.300781 -4.09375 2.5 -4.09375 Z M 2.5 -4.09375 "/></g></g></g><g fill="#ffffff" fill-opacity="1"><g transform="translate(25.300991, 60.790408)"><g><path d="M 3.96875 -4.015625 L 3.96875 0 L 3.046875 0 L 3.03125 -0.234375 C 2.90625 -0.148438 2.757812 -0.078125 2.59375 -0.015625 C 2.4375 0.046875 2.28125 0.078125 2.125 0.078125 C 1.53125 0.078125 1.097656 -0.09375 0.828125 -0.4375 C 0.554688 -0.78125 0.421875 -1.253906 0.421875 -1.859375 L 0.421875 -4.015625 L 1.421875 -4.015625 L 1.421875 -1.859375 C 1.421875 -1.484375 1.484375 -1.203125 1.609375 -1.015625 C 1.734375 -0.835938 1.9375 -0.75 2.21875 -0.75 C 2.53125 -0.75 2.785156 -0.863281 2.984375 -1.09375 L 2.984375 -4.015625 Z M 2.046875 -4.59375 C 2.171875 -4.695312 2.257812 -4.785156 2.3125 -4.859375 C 2.363281 -4.929688 2.390625 -5.015625 2.390625 -5.109375 C 2.390625 -5.191406 2.363281 -5.253906 2.3125 -5.296875 C 2.257812 -5.335938 2.1875 -5.359375 2.09375 -5.359375 C 1.945312 -5.359375 1.78125 -5.304688 1.59375 -5.203125 L 1.46875 -5.703125 C 1.664062 -5.796875 1.878906 -5.84375 2.109375 -5.84375 C 2.335938 -5.84375 2.523438 -5.78125 2.671875 -5.65625 C 2.828125 -5.53125 2.90625 -5.359375 2.90625 -5.140625 C 2.90625 -4.972656 2.859375 -4.820312 2.765625 -4.6875 C 2.679688 -4.5625 2.539062 -4.429688 2.34375 -4.296875 Z M 2.046875 -4.59375 "/></g></g></g><g fill="#ffffff" fill-opacity="1"><g transform="translate(29.740844, 60.790408)"><g/></g></g><g fill="#ffffff" fill-opacity="1"><g transform="translate(31.550562, 60.790408)"><g><path d="M 1.78125 0.078125 C 1.425781 0.078125 1.15625 -0.0234375 0.96875 -0.234375 C 0.789062 -0.441406 0.703125 -0.6875 0.703125 -0.96875 L 0.703125 -3.203125 L 0.125 -3.203125 L 0.21875 -4.015625 L 0.703125 -4.015625 L 0.703125 -4.90625 L 1.703125 -5.015625 L 1.703125 -4.015625 L 2.578125 -4.015625 L 2.578125 -3.203125 L 1.703125 -3.203125 L 1.703125 -1.390625 C 1.703125 -1.171875 1.710938 -1.019531 1.734375 -0.9375 C 1.753906 -0.851562 1.800781 -0.796875 1.875 -0.765625 C 1.957031 -0.742188 2.101562 -0.734375 2.3125 -0.734375 L 2.578125 -0.734375 L 2.5 0.078125 Z M 1.78125 0.078125 "/></g></g></g><g fill="#ffffff" fill-opacity="1"><g transform="translate(34.317423, 60.790408)"><g><path d="M 2.5 -4.09375 C 3.007812 -4.09375 3.382812 -3.925781 3.625 -3.59375 C 3.875 -3.257812 4 -2.804688 4 -2.234375 L 4 0 L 3.015625 0 L 3.015625 -2.171875 C 3.015625 -2.546875 2.953125 -2.820312 2.828125 -3 C 2.703125 -3.175781 2.503906 -3.265625 2.234375 -3.265625 C 1.921875 -3.265625 1.660156 -3.148438 1.453125 -2.921875 L 1.453125 0 L 0.453125 0 L 0.453125 -6.03125 L 1.453125 -6.03125 L 1.453125 -3.765625 C 1.617188 -3.867188 1.785156 -3.945312 1.953125 -4 C 2.117188 -4.0625 2.300781 -4.09375 2.5 -4.09375 Z M 2.5 -4.09375 "/></g></g></g><g fill="#ffffff" fill-opacity="1"><g transform="translate(38.749229, 60.790408)"><g><path d="M 3.96875 -4.015625 L 3.96875 0 L 3.046875 0 L 3.03125 -0.234375 C 2.90625 -0.148438 2.757812 -0.078125 2.59375 -0.015625 C 2.4375 0.046875 2.28125 0.078125 2.125 0.078125 C 1.53125 0.078125 1.097656 -0.09375 0.828125 -0.4375 C 0.554688 -0.78125 0.421875 -1.253906 0.421875 -1.859375 L 0.421875 -4.015625 L 1.421875 -4.015625 L 1.421875 -1.859375 C 1.421875 -1.484375 1.484375 -1.203125 1.609375 -1.015625 C 1.734375 -0.835938 1.9375 -0.75 2.21875 -0.75 C 2.53125 -0.75 2.785156 -0.863281 2.984375 -1.09375 L 2.984375 -4.015625 Z M 3.96875 -4.015625 "/></g></g></g><g fill="#ffffff" fill-opacity="1"><g transform="translate(43.189082, 60.790408)"><g><path d="M 1.328125 0.078125 C 1.003906 0.078125 0.726562 -0.03125 0.5 -0.25 C 0.28125 -0.46875 0.171875 -0.757812 0.171875 -1.125 C 0.171875 -1.476562 0.296875 -1.757812 0.546875 -1.96875 C 0.796875 -2.175781 1.09375 -2.320312 1.4375 -2.40625 C 1.78125 -2.5 2.113281 -2.550781 2.4375 -2.5625 C 2.414062 -2.800781 2.347656 -2.972656 2.234375 -3.078125 C 2.128906 -3.179688 1.953125 -3.234375 1.703125 -3.234375 C 1.523438 -3.234375 1.351562 -3.207031 1.1875 -3.15625 C 1.019531 -3.101562 0.828125 -3.023438 0.609375 -2.921875 L 0.515625 -3.734375 C 1.003906 -3.972656 1.492188 -4.09375 1.984375 -4.09375 C 2.453125 -4.09375 2.8125 -3.960938 3.0625 -3.703125 C 3.3125 -3.441406 3.4375 -3.03125 3.4375 -2.46875 L 3.4375 -1.390625 C 3.4375 -1.179688 3.445312 -1.03125 3.46875 -0.9375 C 3.488281 -0.851562 3.519531 -0.796875 3.5625 -0.765625 C 3.601562 -0.742188 3.679688 -0.734375 3.796875 -0.734375 L 3.921875 -0.734375 L 3.828125 0.078125 L 3.46875 0.078125 C 3.25 0.078125 3.0625 0.0351562 2.90625 -0.046875 C 2.757812 -0.128906 2.644531 -0.242188 2.5625 -0.390625 C 2.4375 -0.242188 2.257812 -0.128906 2.03125 -0.046875 C 1.8125 0.0351562 1.578125 0.078125 1.328125 0.078125 Z M 1.75 -0.6875 C 1.851562 -0.6875 1.96875 -0.710938 2.09375 -0.765625 C 2.226562 -0.816406 2.34375 -0.882812 2.4375 -0.96875 L 2.4375 -1.890625 C 2.113281 -1.867188 1.828125 -1.796875 1.578125 -1.671875 C 1.335938 -1.554688 1.21875 -1.390625 1.21875 -1.171875 C 1.21875 -1.003906 1.257812 -0.878906 1.34375 -0.796875 C 1.425781 -0.722656 1.5625 -0.6875 1.75 -0.6875 Z M 0.921875 -5.09375 L 1.984375 -6 L 3.046875 -5.09375 L 3.046875 -4.453125 L 1.984375 -5.125 L 0.921875 -4.453125 Z M 1.578125 0.65625 L 2.421875 0.65625 L 2.421875 1.4375 L 1.578125 1.4375 Z M 1.578125 0.65625 "/></g></g></g><g fill="#ffffff" fill-opacity="1"><g transform="translate(47.194596, 60.790408)"><g><path d="M 1.78125 0.078125 C 1.425781 0.078125 1.15625 -0.0234375 0.96875 -0.234375 C 0.789062 -0.441406 0.703125 -0.6875 0.703125 -0.96875 L 0.703125 -3.203125 L 0.125 -3.203125 L 0.21875 -4.015625 L 0.703125 -4.015625 L 0.703125 -4.90625 L 1.703125 -5.015625 L 1.703125 -4.015625 L 2.578125 -4.015625 L 2.578125 -3.203125 L 1.703125 -3.203125 L 1.703125 -1.390625 C 1.703125 -1.171875 1.710938 -1.019531 1.734375 -0.9375 C 1.753906 -0.851562 1.800781 -0.796875 1.875 -0.765625 C 1.957031 -0.742188 2.101562 -0.734375 2.3125 -0.734375 L 2.578125 -0.734375 L 2.5 0.078125 Z M 1.78125 0.078125 "/></g></g></g><g fill="#ffffff" fill-opacity="1"><g transform="translate(49.961457, 60.790408)"><g/></g></g><g fill="#ffffff" fill-opacity="1"><g transform="translate(51.771175, 60.790408)"><g><path d="M 4.984375 -4.09375 C 5.515625 -4.09375 5.910156 -3.925781 6.171875 -3.59375 C 6.429688 -3.269531 6.5625 -2.816406 6.5625 -2.234375 L 6.5625 0 L 5.5625 0 L 5.5625 -2.171875 C 5.5625 -2.546875 5.503906 -2.820312 5.390625 -3 C 5.273438 -3.175781 5.082031 -3.265625 4.8125 -3.265625 C 4.550781 -3.265625 4.351562 -3.175781 4.21875 -3 C 4.082031 -2.820312 4.015625 -2.566406 4.015625 -2.234375 L 4.015625 0 L 3.015625 0 L 3.015625 -2.171875 C 3.015625 -2.546875 2.953125 -2.820312 2.828125 -3 C 2.703125 -3.175781 2.507812 -3.265625 2.25 -3.265625 C 1.925781 -3.265625 1.664062 -3.148438 1.46875 -2.921875 L 1.46875 0 L 0.46875 0 L 0.46875 -4.015625 L 1.3125 -4.015625 L 1.359375 -3.703125 C 1.722656 -3.960938 2.113281 -4.09375 2.53125 -4.09375 C 3.050781 -4.09375 3.4375 -3.90625 3.6875 -3.53125 C 3.820312 -3.707031 4.003906 -3.84375 4.234375 -3.9375 C 4.460938 -4.039062 4.710938 -4.09375 4.984375 -4.09375 Z M 4.984375 -4.09375 "/></g></g></g><g fill="#ffffff" fill-opacity="1"><g transform="translate(58.76072, 60.790408)"><g><path d="M 1.328125 0.078125 C 1.003906 0.078125 0.726562 -0.03125 0.5 -0.25 C 0.28125 -0.46875 0.171875 -0.757812 0.171875 -1.125 C 0.171875 -1.476562 0.296875 -1.757812 0.546875 -1.96875 C 0.796875 -2.175781 1.09375 -2.320312 1.4375 -2.40625 C 1.78125 -2.5 2.113281 -2.550781 2.4375 -2.5625 C 2.414062 -2.800781 2.347656 -2.972656 2.234375 -3.078125 C 2.128906 -3.179688 1.953125 -3.234375 1.703125 -3.234375 C 1.523438 -3.234375 1.351562 -3.207031 1.1875 -3.15625 C 1.019531 -3.101562 0.828125 -3.023438 0.609375 -2.921875 L 0.515625 -3.734375 C 1.003906 -3.972656 1.492188 -4.09375 1.984375 -4.09375 C 2.453125 -4.09375 2.8125 -3.960938 3.0625 -3.703125 C 3.3125 -3.441406 3.4375 -3.03125 3.4375 -2.46875 L 3.4375 -1.390625 C 3.4375 -1.179688 3.445312 -1.03125 3.46875 -0.9375 C 3.488281 -0.851562 3.519531 -0.796875 3.5625 -0.765625 C 3.601562 -0.742188 3.679688 -0.734375 3.796875 -0.734375 L 3.921875 -0.734375 L 3.828125 0.078125 L 3.46875 0.078125 C 3.25 0.078125 3.0625 0.0351562 2.90625 -0.046875 C 2.757812 -0.128906 2.644531 -0.242188 2.5625 -0.390625 C 2.4375 -0.242188 2.257812 -0.128906 2.03125 -0.046875 C 1.8125 0.0351562 1.578125 0.078125 1.328125 0.078125 Z M 1.75 -0.6875 C 1.851562 -0.6875 1.96875 -0.710938 2.09375 -0.765625 C 2.226562 -0.816406 2.34375 -0.882812 2.4375 -0.96875 L 2.4375 -1.890625 C 2.113281 -1.867188 1.828125 -1.796875 1.578125 -1.671875 C 1.335938 -1.554688 1.21875 -1.390625 1.21875 -1.171875 C 1.21875 -1.003906 1.257812 -0.878906 1.34375 -0.796875 C 1.425781 -0.722656 1.5625 -0.6875 1.75 -0.6875 Z M 1.203125 -5.21875 L 2.78125 -6.125 L 2.78125 -5.203125 L 1.203125 -4.59375 Z M 1.203125 -5.21875 "/></g></g></g><g fill="#ffffff" fill-opacity="1"><g transform="translate(62.766234, 60.790408)"><g><path d="M 1.6875 -0.265625 L 0.015625 -4.015625 L 1.125 -4.015625 L 2.15625 -1.4375 L 3.1875 -4.015625 L 4.3125 -4.015625 L 1.78125 1.953125 L 0.78125 1.953125 Z M 1.6875 -0.265625 "/></g></g></g><g fill="#ffffff" fill-opacity="1"><g transform="translate(67.085439, 60.790408)"><g/></g></g><g fill="#ffffff" fill-opacity="1"><g transform="translate(68.895157, 60.790408)"><g><path d="M 1.78125 0.078125 C 1.425781 0.078125 1.15625 -0.0234375 0.96875 -0.234375 C 0.789062 -0.441406 0.703125 -0.6875 0.703125 -0.96875 L 0.703125 -3.203125 L 0.125 -3.203125 L 0.21875 -4.015625 L 0.703125 -4.015625 L 0.703125 -4.90625 L 1.703125 -5.015625 L 1.703125 -4.015625 L 2.578125 -4.015625 L 2.578125 -3.203125 L 1.703125 -3.203125 L 1.703125 -1.390625 C 1.703125 -1.171875 1.710938 -1.019531 1.734375 -0.9375 C 1.753906 -0.851562 1.800781 -0.796875 1.875 -0.765625 C 1.957031 -0.742188 2.101562 -0.734375 2.3125 -0.734375 L 2.578125 -0.734375 L 2.5 0.078125 Z M 1.78125 0.078125 "/></g></g></g><g fill="#ffffff" fill-opacity="1"><g transform="translate(71.662018, 60.790408)"><g><path d="M 0.46875 -4.015625 L 1.46875 -4.015625 L 1.46875 0 L 0.46875 0 Z M 0.1875 -5.21875 L 1.765625 -6.125 L 1.765625 -5.203125 L 0.1875 -4.59375 Z M 0.1875 -5.21875 "/></g></g></g><g fill="#ffffff" fill-opacity="1"><g transform="translate(73.592393, 60.790408)"><g><path d="M 2.5 -4.09375 C 3 -4.09375 3.375 -3.925781 3.625 -3.59375 C 3.882812 -3.257812 4.015625 -2.8125 4.015625 -2.25 L 4.015625 0 L 3.015625 0 L 3.015625 -2.171875 C 3.015625 -2.546875 2.953125 -2.820312 2.828125 -3 C 2.703125 -3.175781 2.5 -3.265625 2.21875 -3.265625 C 1.914062 -3.265625 1.664062 -3.148438 1.46875 -2.921875 L 1.46875 0 L 0.46875 0 L 0.46875 -4.015625 L 1.40625 -4.015625 L 1.421875 -3.734375 C 1.753906 -3.972656 2.113281 -4.09375 2.5 -4.09375 Z M 2.5 -4.09375 "/></g></g></g><g fill="#ffffff" fill-opacity="1"><g transform="translate(78.032246, 60.790408)"><g><path d="M 2.5 -4.09375 C 3.007812 -4.09375 3.382812 -3.925781 3.625 -3.59375 C 3.875 -3.257812 4 -2.804688 4 -2.234375 L 4 0 L 3.015625 0 L 3.015625 -2.171875 C 3.015625 -2.546875 2.953125 -2.820312 2.828125 -3 C 2.703125 -3.175781 2.503906 -3.265625 2.234375 -3.265625 C 1.921875 -3.265625 1.660156 -3.148438 1.453125 -2.921875 L 1.453125 0 L 0.453125 0 L 0.453125 -6.03125 L 1.453125 -6.03125 L 1.453125 -3.765625 C 1.617188 -3.867188 1.785156 -3.945312 1.953125 -4 C 2.117188 -4.0625 2.300781 -4.09375 2.5 -4.09375 Z M 2.5 -4.09375 "/></g></g></g></svg>