<svg xmlns="http://www.w3.org/2000/svg" xmlns:xlink="http://www.w3.org/1999/xlink" width="132" zoomAndPan="magnify" viewBox="0 0 98.88 70.499998" height="94" preserveAspectRatio="xMidYMid meet" version="1.0"><defs><clipPath id="4a62346d7c"><path d="M 10.550781 34.160156 L 90.632812 34.160156 L 90.632812 51.003906 L 10.550781 51.003906 Z M 10.550781 34.160156 " clip-rule="nonzero"/></clipPath><clipPath id="68884b22d0"><path d="M 8.148438 32 L 15 32 L 15 35 L 8.148438 35 Z M 8.148438 32 " clip-rule="nonzero"/></clipPath></defs><path fill="#ffffff" d="M 49 39.949219 C 47.980469 39.949219 47.121094 41.152344 47.121094 42.574219 C 47.121094 44 47.980469 45.203125 49 45.203125 C 50.015625 45.203125 50.875 44 50.875 42.574219 C 50.875 41.152344 50.015625 39.949219 49 39.949219 Z M 49 46.703125 C 47.136719 46.703125 45.621094 44.851562 45.621094 42.574219 C 45.621094 40.300781 47.136719 38.449219 49 38.449219 C 50.859375 38.449219 52.375 40.300781 52.375 42.574219 C 52.375 44.851562 50.859375 46.703125 49 46.703125 " fill-opacity="1" fill-rule="nonzero"/><path fill="#ffffff" d="M 54.625 41.730469 C 55.320312 41.839844 56.503906 41.894531 57.007812 41.492188 C 57.125 41.398438 57.257812 41.242188 57.257812 40.871094 C 57.257812 40.535156 57.132812 40.390625 57.023438 40.300781 C 56.535156 39.910156 55.425781 39.921875 54.625 40.019531 Z M 53.875 46.769531 C 53.460938 46.769531 53.125 46.433594 53.125 46.019531 L 53.125 38.78125 L 53.710938 38.652344 C 54.003906 38.585938 56.609375 38.046875 57.960938 39.132812 C 58.484375 39.550781 58.757812 40.152344 58.757812 40.871094 C 58.757812 41.617188 58.476562 42.238281 57.945312 42.664062 C 56.992188 43.425781 55.46875 43.359375 54.625 43.246094 L 54.625 46.019531 C 54.625 46.433594 54.289062 46.769531 53.875 46.769531 " fill-opacity="1" fill-rule="nonzero"/><path fill="#ffffff" d="M 42.316406 46.769531 C 41.902344 46.769531 41.566406 46.433594 41.566406 46.019531 L 41.566406 39.414062 C 41.566406 39 41.902344 38.664062 42.316406 38.664062 C 42.730469 38.664062 43.066406 39 43.066406 39.414062 L 43.066406 46.019531 C 43.066406 46.433594 42.730469 46.769531 42.316406 46.769531 " fill-opacity="1" fill-rule="nonzero"/><path fill="#ffffff" d="M 45.019531 40.164062 L 39.613281 40.164062 C 39.199219 40.164062 38.863281 39.828125 38.863281 39.414062 C 38.863281 39 39.199219 38.664062 39.613281 38.664062 L 45.019531 38.664062 C 45.433594 38.664062 45.769531 39 45.769531 39.414062 C 45.769531 39.828125 45.433594 40.164062 45.019531 40.164062 " fill-opacity="1" fill-rule="nonzero"/><path fill="#ffffff" d="M 73.085938 41.730469 C 73.78125 41.839844 74.964844 41.894531 75.46875 41.492188 C 75.585938 41.398438 75.722656 41.242188 75.722656 40.871094 C 75.722656 40.535156 75.59375 40.390625 75.484375 40.300781 C 75 39.910156 73.886719 39.921875 73.085938 40.019531 Z M 72.335938 46.769531 C 71.921875 46.769531 71.585938 46.433594 71.585938 46.019531 L 71.585938 38.78125 L 72.171875 38.652344 C 72.464844 38.585938 75.074219 38.046875 76.425781 39.132812 C 76.945312 39.550781 77.222656 40.152344 77.222656 40.871094 C 77.222656 41.617188 76.941406 42.238281 76.40625 42.664062 C 75.453125 43.425781 73.929688 43.359375 73.085938 43.246094 L 73.085938 46.019531 C 73.085938 46.433594 72.75 46.769531 72.335938 46.769531 " fill-opacity="1" fill-rule="nonzero"/><path fill="#ffffff" d="M 65.28125 46.769531 C 64.867188 46.769531 64.53125 46.433594 64.53125 46.019531 L 64.53125 39.414062 C 64.53125 39 64.867188 38.664062 65.28125 38.664062 C 65.695312 38.664062 66.03125 39 66.03125 39.414062 L 66.03125 46.019531 C 66.03125 46.433594 65.695312 46.769531 65.28125 46.769531 " fill-opacity="1" fill-rule="nonzero"/><path fill="#ffffff" d="M 67.984375 40.164062 L 62.578125 40.164062 C 62.164062 40.164062 61.828125 39.828125 61.828125 39.414062 C 61.828125 39 62.164062 38.664062 62.578125 38.664062 L 67.984375 38.664062 C 68.398438 38.664062 68.734375 39 68.734375 39.414062 C 68.734375 39.828125 68.398438 40.164062 67.984375 40.164062 " fill-opacity="1" fill-rule="nonzero"/><path fill="#ffffff" d="M 70.085938 46.769531 C 69.671875 46.769531 69.335938 46.433594 69.335938 46.019531 L 69.335938 39.265625 C 69.335938 38.851562 69.671875 38.515625 70.085938 38.515625 C 70.5 38.515625 70.835938 38.851562 70.835938 39.265625 L 70.835938 46.019531 C 70.835938 46.433594 70.5 46.769531 70.085938 46.769531 " fill-opacity="1" fill-rule="nonzero"/><path fill="#ffffff" d="M 79.800781 46.707031 C 78.882812 46.707031 78.0625 46.503906 77.910156 46.464844 C 77.507812 46.359375 77.269531 45.949219 77.375 45.546875 C 77.480469 45.144531 77.886719 44.90625 78.289062 45.011719 C 79.113281 45.222656 80.496094 45.34375 80.984375 44.941406 C 81.042969 44.894531 81.179688 44.78125 81.160156 44.394531 C 81.117188 43.710938 80.757812 43.511719 79.816406 43.152344 C 78.976562 42.835938 77.707031 42.351562 77.722656 40.753906 C 77.710938 39.761719 78.15625 39.214844 78.535156 38.929688 C 79.738281 38.023438 81.773438 38.605469 82.003906 38.671875 C 82.398438 38.792969 82.625 39.210938 82.503906 39.609375 C 82.382812 40.003906 81.964844 40.230469 81.566406 40.109375 C 81.074219 39.964844 79.90625 39.773438 79.4375 40.128906 C 79.378906 40.175781 79.214844 40.296875 79.222656 40.742188 L 79.222656 40.761719 C 79.214844 41.265625 79.445312 41.40625 80.347656 41.75 C 81.226562 42.085938 82.554688 42.589844 82.65625 44.304688 C 82.710938 45.253906 82.296875 45.808594 81.933594 46.101562 C 81.363281 46.570312 80.550781 46.707031 79.800781 46.707031 " fill-opacity="1" fill-rule="nonzero"/><g clip-path="url(#4a62346d7c)"><path fill="#ffffff" d="M 41.117188 35.0625 C 50.070312 34.789062 59.027344 34.613281 67.984375 34.507812 C 72.738281 34.453125 77.550781 34.183594 82.300781 34.375 C 85.335938 34.5 88.125 35.867188 89.640625 38.617188 C 91.722656 42.398438 90.421875 47.320312 86.746094 49.582031 C 83.238281 51.738281 78.203125 50.804688 74.316406 50.800781 C 63.457031 50.785156 52.59375 50.714844 41.730469 50.59375 C 31.367188 50.476562 21.007812 50.3125 10.644531 50.070312 C 30.128906 49.617188 49.617188 49.421875 69.105469 49.351562 C 73.652344 49.335938 78.589844 49.890625 83.097656 49.289062 C 86.386719 48.847656 89.011719 46.246094 89.179688 42.867188 C 89.636719 33.648438 77.230469 35.722656 71.714844 35.65625 C 61.515625 35.535156 51.3125 35.371094 41.117188 35.0625 " fill-opacity="1" fill-rule="nonzero"/></g><path fill="#ffffff" d="M 22.496094 27.953125 C 21.007812 27.953125 19.683594 28.464844 18.726562 29.421875 C 17.652344 30.496094 17.128906 32.023438 17.257812 33.722656 C 17.386719 35.421875 18.179688 37.113281 19.429688 38.367188 C 20.25 39.183594 21.046875 39.46875 21.96875 39.800781 C 22.519531 39.996094 23.09375 40.199219 23.699219 40.53125 C 24.394531 40.910156 25.160156 41.25 25.835938 41.550781 C 26.398438 41.800781 26.886719 42.019531 27.242188 42.214844 C 27.734375 42.488281 28.414062 42.527344 28.640625 42.300781 L 31.609375 39.335938 C 31.835938 39.105469 31.796875 38.425781 31.523438 37.9375 C 31.324219 37.574219 31.125 37.105469 30.898438 36.566406 C 30.625 35.921875 30.320312 35.1875 29.941406 34.496094 C 29.617188 33.898438 29.410156 33.328125 29.207031 32.777344 C 28.855469 31.824219 28.554688 31.003906 27.726562 30.175781 C 26.46875 28.917969 24.765625 28.117188 23.050781 27.976562 C 22.867188 27.960938 22.679688 27.953125 22.496094 27.953125 Z M 28.132812 43.953125 C 27.570312 43.953125 26.992188 43.792969 26.515625 43.53125 C 26.214844 43.363281 25.757812 43.160156 25.222656 42.921875 C 24.523438 42.609375 23.730469 42.257812 22.984375 41.851562 C 22.476562 41.574219 21.984375 41.398438 21.464844 41.210938 C 20.460938 40.855469 19.425781 40.484375 18.371094 39.425781 C 16.84375 37.902344 15.917969 35.917969 15.761719 33.835938 C 15.597656 31.695312 16.273438 29.75 17.664062 28.359375 C 19.054688 26.96875 21.011719 26.300781 23.175781 26.480469 C 25.238281 26.648438 27.28125 27.609375 28.785156 29.113281 C 29.847656 30.175781 30.238281 31.234375 30.613281 32.257812 C 30.808594 32.78125 30.988281 33.277344 31.261719 33.78125 C 31.671875 34.539062 31.996094 35.304688 32.28125 35.980469 C 32.492188 36.484375 32.675781 36.917969 32.835938 37.210938 C 33.371094 38.175781 33.484375 39.582031 32.671875 40.394531 L 29.703125 43.363281 C 29.289062 43.777344 28.71875 43.953125 28.132812 43.953125 " fill-opacity="1" fill-rule="nonzero"/><path fill="#ffffff" d="M 30.019531 45.285156 C 29.828125 45.285156 29.636719 45.210938 29.488281 45.0625 C 29.195312 44.769531 29.195312 44.296875 29.488281 44.003906 L 33.308594 40.179688 C 33.601562 39.886719 34.078125 39.886719 34.371094 40.179688 C 34.664062 40.472656 34.664062 40.949219 34.371094 41.242188 L 30.550781 45.0625 C 30.402344 45.210938 30.210938 45.285156 30.019531 45.285156 " fill-opacity="1" fill-rule="nonzero"/><path fill="#ffffff" d="M 31.71875 45.921875 C 31.523438 45.921875 31.332031 45.847656 31.1875 45.699219 C 30.894531 45.40625 30.894531 44.933594 31.1875 44.640625 L 33.945312 41.878906 C 34.238281 41.585938 34.714844 41.585938 35.007812 41.878906 C 35.300781 42.171875 35.300781 42.648438 35.007812 42.941406 L 32.25 45.699219 C 32.101562 45.847656 31.910156 45.921875 31.71875 45.921875 " fill-opacity="1" fill-rule="nonzero"/><path fill="#ffffff" d="M 33.414062 46.769531 C 33.222656 46.769531 33.03125 46.695312 32.886719 46.550781 C 32.589844 46.257812 32.589844 45.78125 32.886719 45.488281 L 34.796875 43.578125 C 35.089844 43.285156 35.5625 43.285156 35.855469 43.578125 C 36.148438 43.871094 36.148438 44.347656 35.855469 44.640625 L 33.945312 46.550781 C 33.800781 46.695312 33.609375 46.769531 33.414062 46.769531 " fill-opacity="1" fill-rule="nonzero"/><path fill="#ffffff" d="M 28.746094 28.089844 C 28.554688 28.089844 28.363281 28.015625 28.214844 27.871094 C 27.921875 27.578125 27.921875 27.101562 28.214844 26.808594 L 31.929688 23.09375 C 32.222656 22.800781 32.699219 22.800781 32.992188 23.09375 C 33.285156 23.386719 33.285156 23.863281 32.992188 24.15625 L 29.277344 27.871094 C 29.128906 28.015625 28.9375 28.089844 28.746094 28.089844 " fill-opacity="1" fill-rule="nonzero"/><path fill="#ffffff" d="M 12.929688 43.902344 C 12.738281 43.902344 12.546875 43.832031 12.402344 43.683594 C 12.109375 43.390625 12.109375 42.914062 12.402344 42.621094 L 16.117188 38.90625 C 16.410156 38.613281 16.882812 38.613281 17.175781 38.90625 C 17.46875 39.199219 17.46875 39.675781 17.175781 39.96875 L 13.460938 43.683594 C 13.316406 43.832031 13.125 43.902344 12.929688 43.902344 " fill-opacity="1" fill-rule="nonzero"/><g clip-path="url(#68884b22d0)"><path fill="#ffffff" d="M 14.25 34.3125 L 8.996094 34.3125 C 8.582031 34.3125 8.242188 33.976562 8.242188 33.558594 C 8.242188 33.144531 8.582031 32.808594 8.996094 32.808594 L 14.25 32.808594 C 14.664062 32.808594 15 33.144531 15 33.558594 C 15 33.976562 14.664062 34.3125 14.25 34.3125 " fill-opacity="1" fill-rule="nonzero"/></g><path fill="#ffffff" d="M 22.804688 25.753906 C 22.390625 25.753906 22.054688 25.417969 22.054688 25.003906 L 22.054688 19.75 C 22.054688 19.335938 22.390625 19 22.804688 19 C 23.21875 19 23.554688 19.335938 23.554688 19.75 L 23.554688 25.003906 C 23.554688 25.417969 23.21875 25.753906 22.804688 25.753906 " fill-opacity="1" fill-rule="nonzero"/><path fill="#ffffff" d="M 16.859375 28.300781 C 16.667969 28.300781 16.472656 28.226562 16.328125 28.082031 L 12.507812 24.261719 C 12.214844 23.96875 12.214844 23.492188 12.507812 23.199219 C 12.800781 22.90625 13.273438 22.90625 13.570312 23.199219 L 17.390625 27.019531 C 17.683594 27.3125 17.683594 27.789062 17.390625 28.082031 C 17.242188 28.226562 17.050781 28.300781 16.859375 28.300781 " fill-opacity="1" fill-rule="nonzero"/></svg>