<svg xmlns="http://www.w3.org/2000/svg" xmlns:xlink="http://www.w3.org/1999/xlink" width="132" zoomAndPan="magnify" viewBox="0 0 98.88 70.499998" height="94" preserveAspectRatio="xMidYMid meet" version="1.0"><defs><clipPath id="d57e9d862d"><path d="M 37 16.988281 L 90.929688 16.988281 L 90.929688 49 L 37 49 Z M 37 16.988281 " clip-rule="nonzero"/></clipPath><clipPath id="4641a090b9"><path d="M 12 37 L 23 37 L 23 52.734375 L 12 52.734375 Z M 12 37 " clip-rule="nonzero"/></clipPath><clipPath id="d30ee2e452"><path d="M 8.265625 27 L 13 27 L 13 38 L 8.265625 38 Z M 8.265625 27 " clip-rule="nonzero"/></clipPath></defs><g clip-path="url(#d57e9d862d)"><path fill="#ffffff" d="M 85.234375 48.066406 L 48.648438 48.066406 C 45.691406 48.066406 43.28125 45.636719 43.28125 42.648438 L 43.28125 38.070312 L 38.019531 33.835938 C 37.304688 33.226562 37.191406 32.195312 37.75 31.480469 C 37.871094 31.351562 37.96875 31.253906 38.089844 31.171875 L 43.28125 26.972656 L 43.28125 22.394531 C 43.28125 19.40625 45.691406 16.980469 48.648438 16.980469 L 85.234375 16.980469 C 88.195312 16.980469 90.601562 19.40625 90.601562 22.394531 L 90.601562 42.648438 C 90.601562 45.636719 88.195312 48.066406 85.234375 48.066406 Z M 48.648438 18.476562 C 46.515625 18.476562 44.777344 20.234375 44.777344 22.394531 L 44.777344 27.332031 C 44.777344 27.558594 44.675781 27.769531 44.5 27.914062 L 38.988281 32.371094 C 38.949219 32.40625 38.902344 32.433594 38.855469 32.457031 C 38.851562 32.5 38.898438 32.621094 38.976562 32.683594 L 44.5 37.128906 C 44.675781 37.273438 44.777344 37.488281 44.777344 37.714844 L 44.777344 42.648438 C 44.777344 44.8125 46.515625 46.570312 48.648438 46.570312 L 85.234375 46.570312 C 87.367188 46.570312 89.105469 44.8125 89.105469 42.648438 L 89.105469 22.394531 C 89.105469 20.234375 87.367188 18.476562 85.234375 18.476562 Z M 44.03125 27.332031 L 44.039062 27.332031 Z M 44.03125 27.332031 " fill-opacity="1" fill-rule="nonzero"/></g><g clip-path="url(#4641a090b9)"><path fill="#ffffff" d="M 19.167969 53.003906 C 18.910156 53.003906 18.652344 52.921875 18.441406 52.769531 C 18.433594 52.765625 18.425781 52.757812 18.421875 52.753906 C 13.695312 49.074219 12.761719 39.949219 12.625 38.160156 C 12.609375 37.953125 12.679688 37.746094 12.820312 37.59375 C 12.964844 37.441406 13.164062 37.355469 13.371094 37.355469 L 18.464844 37.355469 C 18.855469 37.355469 19.179688 37.652344 19.210938 38.039062 C 19.582031 42.601562 21.082031 44.371094 22.53125 46.085938 C 22.558594 46.117188 22.582031 46.148438 22.601562 46.183594 L 22.640625 46.222656 C 22.996094 46.660156 23.050781 47.1875 22.839844 47.617188 L 20.214844 52.375 C 20.214844 52.375 20.214844 52.378906 20.214844 52.378906 C 20.195312 52.421875 20.171875 52.464844 20.140625 52.503906 C 19.960938 52.765625 19.683594 52.9375 19.367188 52.988281 C 19.300781 53 19.234375 53.003906 19.167969 53.003906 Z M 14.191406 38.851562 C 14.476562 41.507812 15.53125 48.308594 19.070312 51.351562 L 21.414062 47.109375 C 21.367188 47.054688 21.328125 47 21.296875 46.941406 C 19.863281 45.246094 18.28125 43.292969 17.785156 38.851562 Z M 14.191406 38.851562 " fill-opacity="1" fill-rule="nonzero"/></g><path fill="#ffffff" d="M 34.847656 45.613281 C 33.632812 45.613281 32.648438 44.617188 32.648438 43.398438 L 32.648438 21.644531 C 32.648438 20.425781 33.632812 19.433594 34.847656 19.433594 C 36.074219 19.433594 37.074219 20.425781 37.074219 21.644531 L 37.074219 43.398438 C 37.074219 44.617188 36.074219 45.613281 34.847656 45.613281 Z M 34.847656 20.929688 C 34.457031 20.929688 34.144531 21.25 34.144531 21.644531 L 34.144531 43.398438 C 34.144531 43.792969 34.457031 44.117188 34.847656 44.117188 C 35.242188 44.117188 35.578125 43.789062 35.578125 43.398438 L 35.578125 21.644531 C 35.578125 21.257812 35.242188 20.929688 34.847656 20.929688 Z M 34.847656 20.929688 " fill-opacity="1" fill-rule="nonzero"/><path fill="#ffffff" d="M 33.394531 44.144531 C 33.222656 44.144531 33.050781 44.085938 32.914062 43.972656 C 29.800781 41.375 24.621094 38.800781 19.714844 37.414062 C 19.390625 37.324219 19.167969 37.03125 19.167969 36.695312 L 19.167969 28.347656 C 19.167969 28.011719 19.390625 27.71875 19.714844 27.628906 C 24.671875 26.226562 29.851562 23.65625 32.914062 21.074219 C 33.136719 20.886719 33.445312 20.84375 33.710938 20.96875 C 33.972656 21.089844 34.144531 21.355469 34.144531 21.644531 L 34.144531 43.398438 C 34.144531 43.6875 33.976562 43.953125 33.710938 44.074219 C 33.609375 44.121094 33.503906 44.144531 33.394531 44.144531 Z M 20.664062 36.132812 C 24.996094 37.429688 29.488281 39.585938 32.648438 41.871094 L 32.648438 23.179688 C 29.507812 25.472656 25.097656 27.589844 20.664062 28.910156 Z M 20.664062 36.132812 " fill-opacity="1" fill-rule="nonzero"/><path fill="#ffffff" d="M 18.523438 38.851562 L 13.164062 38.851562 C 12 38.851562 11.050781 37.882812 11.050781 36.695312 L 11.050781 28.347656 C 11.050781 27.179688 12.019531 26.195312 13.164062 26.195312 L 18.523438 26.195312 C 19.683594 26.195312 20.664062 27.179688 20.664062 28.347656 L 20.664062 36.695312 C 20.664062 37.882812 19.703125 38.851562 18.523438 38.851562 Z M 13.164062 27.691406 C 12.839844 27.691406 12.546875 28.003906 12.546875 28.347656 L 12.546875 36.695312 C 12.546875 37.054688 12.828125 37.355469 13.164062 37.355469 L 18.523438 37.355469 C 18.878906 37.355469 19.167969 37.058594 19.167969 36.695312 L 19.167969 28.347656 C 19.167969 27.996094 18.867188 27.691406 18.523438 27.691406 Z M 13.164062 27.691406 " fill-opacity="1" fill-rule="nonzero"/><g clip-path="url(#d30ee2e452)"><path fill="#ffffff" d="M 11.800781 37.113281 C 11.691406 37.113281 11.582031 37.089844 11.484375 37.042969 C 9.46875 36.101562 8.269531 34.414062 8.269531 32.535156 C 8.269531 30.667969 9.5 28.929688 11.484375 28 C 11.714844 27.890625 11.984375 27.910156 12.203125 28.046875 C 12.417969 28.183594 12.546875 28.421875 12.546875 28.675781 L 12.546875 36.367188 C 12.546875 36.621094 12.417969 36.859375 12.203125 36.996094 C 12.078125 37.074219 11.941406 37.113281 11.800781 37.113281 Z M 11.050781 30.027344 C 10.238281 30.710938 9.765625 31.605469 9.765625 32.535156 C 9.765625 33.46875 10.230469 34.347656 11.050781 35.023438 Z M 11.050781 30.027344 " fill-opacity="1" fill-rule="nonzero"/></g><path fill="#ffffff" d="M 53.566406 21.527344 C 54.191406 21.527344 54.8125 21.648438 55.375 21.914062 C 55.9375 22.15625 56.441406 22.484375 56.855469 22.902344 C 57.269531 23.320312 57.597656 23.832031 57.863281 24.398438 C 58.097656 24.96875 58.21875 25.566406 58.21875 26.222656 C 58.21875 26.734375 58.128906 27.242188 57.953125 27.71875 C 57.773438 28.199219 57.566406 28.648438 57.269531 29.035156 L 58.128906 29.90625 C 58.21875 29.992188 58.277344 30.082031 58.308594 30.171875 C 58.335938 30.261719 58.367188 30.351562 58.367188 30.441406 C 58.367188 30.621094 58.277344 30.800781 58.160156 30.953125 C 58.011719 31.070312 57.863281 31.160156 57.683594 31.160156 C 57.597656 31.160156 57.507812 31.132812 57.449219 31.101562 C 57.359375 31.070312 57.300781 31.042969 57.210938 30.953125 L 56.292969 29.992188 C 55.90625 30.324219 55.492188 30.53125 55.046875 30.683594 C 54.574219 30.800781 54.101562 30.890625 53.566406 30.890625 C 52.945312 30.890625 52.324219 30.742188 51.789062 30.503906 C 51.226562 30.261719 50.722656 29.933594 50.308594 29.515625 C 49.894531 29.097656 49.570312 28.617188 49.300781 28.050781 C 49.066406 27.480469 48.945312 26.882812 48.945312 26.222656 C 48.945312 25.566406 49.066406 24.96875 49.300781 24.398438 C 49.570312 23.832031 49.894531 23.320312 50.308594 22.902344 C 50.722656 22.484375 51.226562 22.15625 51.789062 21.914062 C 52.324219 21.648438 52.945312 21.527344 53.566406 21.527344 Z M 53.566406 22.933594 C 53.125 22.933594 52.707031 23.023438 52.324219 23.203125 C 51.9375 23.382812 51.582031 23.621094 51.285156 23.921875 C 50.992188 24.21875 50.78125 24.546875 50.605469 24.9375 C 50.425781 25.355469 50.339844 25.773438 50.339844 26.222656 C 50.339844 26.671875 50.425781 27.089844 50.605469 27.480469 C 50.78125 27.871094 50.992188 28.226562 51.285156 28.496094 C 51.582031 28.796875 51.9375 29.035156 52.324219 29.214844 C 52.707031 29.394531 53.125 29.457031 53.566406 29.457031 C 54.011719 29.457031 54.457031 29.394531 54.839844 29.214844 C 55.226562 29.035156 55.582031 28.796875 55.878906 28.496094 C 56.175781 28.226562 56.410156 27.871094 56.558594 27.480469 C 56.738281 27.089844 56.824219 26.671875 56.824219 26.222656 C 56.824219 25.773438 56.738281 25.355469 56.558594 24.9375 C 56.410156 24.546875 56.175781 24.21875 55.878906 23.921875 C 55.582031 23.621094 55.226562 23.382812 54.839844 23.203125 C 54.457031 23.023438 54.011719 22.933594 53.566406 22.933594 Z M 60.558594 27.691406 C 60.558594 27.929688 60.585938 28.140625 60.675781 28.347656 C 60.734375 28.558594 60.855469 28.738281 60.972656 28.917969 C 61.121094 29.066406 61.269531 29.1875 61.445312 29.277344 C 61.652344 29.335938 61.863281 29.394531 62.097656 29.394531 C 62.367188 29.394531 62.574219 29.335938 62.75 29.277344 C 62.957031 29.1875 63.105469 29.066406 63.253906 28.917969 C 63.371094 28.738281 63.492188 28.558594 63.550781 28.347656 C 63.609375 28.140625 63.640625 27.929688 63.640625 27.691406 L 63.640625 22.394531 C 63.640625 22.183594 63.726562 22.003906 63.847656 21.886719 C 63.964844 21.765625 64.140625 21.707031 64.351562 21.707031 C 64.558594 21.707031 64.734375 21.765625 64.851562 21.886719 C 64.972656 22.003906 65.058594 22.183594 65.058594 22.394531 L 65.058594 27.691406 C 65.058594 28.109375 64.972656 28.527344 64.851562 28.917969 C 64.707031 29.277344 64.527344 29.605469 64.261719 29.902344 C 63.996094 30.171875 63.699219 30.382812 63.34375 30.5625 C 62.957031 30.710938 62.574219 30.800781 62.097656 30.800781 C 61.652344 30.800781 61.238281 30.710938 60.882812 30.5625 C 60.527344 30.382812 60.203125 30.171875 59.964844 29.902344 C 59.699219 29.605469 59.492188 29.277344 59.375 28.917969 C 59.226562 28.527344 59.164062 28.109375 59.164062 27.691406 L 59.164062 22.394531 C 59.164062 22.183594 59.226562 22.003906 59.375 21.886719 C 59.492188 21.765625 59.667969 21.707031 59.847656 21.707031 C 60.085938 21.707031 60.234375 21.765625 60.378906 21.886719 C 60.5 22.003906 60.558594 22.183594 60.558594 22.394531 Z M 66.898438 21.707031 C 67.132812 21.707031 67.28125 21.765625 67.429688 21.886719 C 67.550781 22.003906 67.609375 22.183594 67.609375 22.394531 L 67.609375 30.023438 C 67.609375 30.261719 67.546875 30.414062 67.429688 30.5625 C 67.28125 30.683594 67.132812 30.742188 66.898438 30.742188 C 66.71875 30.742188 66.542969 30.683594 66.421875 30.5625 C 66.273438 30.414062 66.214844 30.261719 66.214844 30.023438 L 66.214844 22.394531 C 66.214844 22.183594 66.273438 22.003906 66.421875 21.886719 C 66.542969 21.765625 66.71875 21.707031 66.898438 21.707031 Z M 73.175781 21.527344 C 73.859375 21.527344 74.511719 21.675781 75.101562 21.945312 C 75.695312 22.246094 76.199219 22.605469 76.613281 23.082031 C 76.671875 23.140625 76.730469 23.230469 76.761719 23.292969 C 76.789062 23.351562 76.820312 23.441406 76.820312 23.5625 C 76.820312 23.769531 76.761719 23.949219 76.613281 24.070312 C 76.496094 24.21875 76.316406 24.28125 76.109375 24.28125 C 75.960938 24.28125 75.84375 24.25 75.785156 24.191406 C 75.695312 24.128906 75.636719 24.070312 75.605469 24.039062 C 75.308594 23.679688 74.953125 23.410156 74.539062 23.234375 C 74.125 23.054688 73.679688 22.933594 73.175781 22.933594 C 72.734375 22.933594 72.316406 23.023438 71.933594 23.203125 C 71.519531 23.382812 71.191406 23.621094 70.894531 23.921875 C 70.601562 24.21875 70.363281 24.550781 70.214844 24.9375 C 70.039062 25.355469 69.949219 25.777344 69.949219 26.222656 C 69.949219 26.671875 70.039062 27.09375 70.214844 27.480469 C 70.363281 27.871094 70.601562 28.230469 70.894531 28.5 C 71.191406 28.796875 71.519531 29.035156 71.933594 29.214844 C 72.316406 29.394531 72.734375 29.457031 73.175781 29.457031 C 73.679688 29.457031 74.125 29.367188 74.511719 29.214844 C 74.925781 29.035156 75.28125 28.765625 75.578125 28.4375 C 75.636719 28.347656 75.726562 28.289062 75.8125 28.230469 C 75.902344 28.167969 75.992188 28.140625 76.109375 28.140625 C 76.316406 28.140625 76.496094 28.199219 76.613281 28.320312 C 76.761719 28.4375 76.820312 28.617188 76.820312 28.796875 C 76.820312 29.035156 76.761719 29.214844 76.613281 29.394531 C 76.167969 29.84375 75.664062 30.203125 75.101562 30.472656 C 74.511719 30.742188 73.886719 30.890625 73.175781 30.890625 C 72.554688 30.890625 71.960938 30.742188 71.398438 30.503906 C 70.835938 30.261719 70.332031 29.933594 69.917969 29.515625 C 69.503906 29.097656 69.179688 28.617188 68.941406 28.050781 C 68.675781 27.480469 68.554688 26.882812 68.554688 26.222656 C 68.554688 25.566406 68.675781 24.96875 68.941406 24.398438 C 69.179688 23.832031 69.503906 23.320312 69.917969 22.902344 C 70.332031 22.484375 70.835938 22.15625 71.398438 21.914062 C 71.960938 21.648438 72.554688 21.527344 73.175781 21.527344 Z M 79.722656 25.238281 L 81.472656 22.066406 C 81.558594 21.914062 81.648438 21.824219 81.765625 21.765625 C 81.855469 21.707031 81.976562 21.707031 82.09375 21.707031 C 82.269531 21.707031 82.449219 21.765625 82.597656 21.886719 C 82.746094 22.035156 82.804688 22.183594 82.804688 22.394531 C 82.804688 22.515625 82.773438 22.632812 82.6875 22.785156 L 80.910156 25.953125 L 82.714844 29.695312 C 82.773438 29.84375 82.804688 29.964844 82.804688 30.054688 C 82.804688 30.292969 82.746094 30.441406 82.597656 30.5625 C 82.449219 30.683594 82.300781 30.742188 82.09375 30.742188 C 81.976562 30.742188 81.855469 30.710938 81.738281 30.652344 C 81.621094 30.5625 81.53125 30.472656 81.472656 30.324219 L 79.695312 26.613281 L 79.160156 26.613281 L 79.160156 30.023438 C 79.160156 30.261719 79.101562 30.414062 78.984375 30.5625 C 78.835938 30.683594 78.6875 30.742188 78.449219 30.742188 C 78.273438 30.742188 78.09375 30.683594 77.976562 30.5625 C 77.828125 30.414062 77.769531 30.261719 77.769531 30.023438 L 77.769531 22.394531 C 77.769531 22.183594 77.828125 22.007812 77.976562 21.886719 C 78.09375 21.765625 78.273438 21.707031 78.449219 21.707031 C 78.6875 21.707031 78.835938 21.765625 78.984375 21.886719 C 79.101562 22.007812 79.160156 22.183594 79.160156 22.394531 L 79.160156 25.238281 Z M 60.914062 34.542969 C 61.121094 34.542969 61.296875 34.601562 61.417969 34.722656 C 61.535156 34.839844 61.625 35.019531 61.625 35.230469 C 61.625 35.4375 61.535156 35.617188 61.417969 35.738281 C 61.296875 35.886719 61.121094 35.949219 60.914062 35.949219 L 59.492188 35.949219 L 59.492188 42.800781 C 59.492188 43.039062 59.433594 43.1875 59.285156 43.335938 C 59.164062 43.457031 58.988281 43.515625 58.78125 43.515625 C 58.574219 43.515625 58.425781 43.457031 58.277344 43.335938 C 58.160156 43.1875 58.101562 43.039062 58.101562 42.800781 L 58.101562 35.949219 L 56.648438 35.949219 C 56.441406 35.949219 56.292969 35.886719 56.144531 35.738281 C 56.027344 35.617188 55.96875 35.4375 55.96875 35.230469 C 55.96875 35.019531 56.027344 34.839844 56.144531 34.722656 C 56.292969 34.601562 56.441406 34.542969 56.648438 34.542969 Z M 62.988281 34.480469 C 63.222656 34.480469 63.371094 34.542969 63.519531 34.660156 C 63.640625 34.78125 63.699219 34.960938 63.699219 35.167969 L 63.699219 42.800781 C 63.699219 43.039062 63.640625 43.1875 63.519531 43.335938 C 63.371094 43.457031 63.222656 43.515625 62.988281 43.515625 C 62.808594 43.515625 62.632812 43.457031 62.511719 43.335938 C 62.363281 43.1875 62.304688 43.039062 62.304688 42.800781 L 62.304688 35.167969 C 62.304688 34.960938 62.363281 34.78125 62.511719 34.660156 C 62.632812 34.542969 62.808594 34.480469 62.988281 34.480469 Z M 67.3125 34.542969 C 67.726562 34.542969 68.140625 34.601562 68.496094 34.75 C 68.882812 34.871094 69.207031 35.078125 69.472656 35.347656 C 69.769531 35.589844 69.976562 35.917969 70.15625 36.277344 C 70.304688 36.636719 70.394531 37.054688 70.394531 37.503906 C 70.394531 37.980469 70.304688 38.371094 70.15625 38.730469 C 69.976562 39.117188 69.769531 39.417969 69.472656 39.6875 C 69.207031 39.925781 68.882812 40.136719 68.496094 40.253906 C 68.140625 40.40625 67.726562 40.464844 67.3125 40.464844 L 66.273438 40.464844 L 66.273438 42.796875 C 66.273438 43.039062 66.214844 43.1875 66.097656 43.335938 C 65.980469 43.457031 65.800781 43.515625 65.59375 43.515625 C 65.386719 43.515625 65.207031 43.457031 65.089844 43.335938 C 64.941406 43.1875 64.882812 43.039062 64.882812 42.796875 L 64.882812 35.230469 C 64.882812 35.019531 64.941406 34.839844 65.089844 34.722656 C 65.210938 34.601562 65.386719 34.542969 65.59375 34.542969 Z M 66.273438 39.058594 L 67.3125 39.058594 C 67.550781 39.058594 67.757812 39.027344 67.964844 38.96875 C 68.171875 38.878906 68.347656 38.789062 68.496094 38.671875 C 68.644531 38.519531 68.761719 38.371094 68.851562 38.160156 C 68.941406 37.980469 69 37.742188 69 37.503906 C 69 37.265625 68.941406 37.054688 68.851562 36.84375 C 68.761719 36.664062 68.644531 36.484375 68.496094 36.367188 C 68.347656 36.21875 68.171875 36.128906 67.964844 36.039062 C 67.757812 35.976562 67.550781 35.949219 67.3125 35.949219 L 66.273438 35.949219 Z M 73.382812 34.332031 C 73.679688 34.332031 74.007812 34.390625 74.332031 34.542969 C 74.660156 34.691406 74.925781 34.839844 75.132812 35.050781 C 75.25 35.167969 75.339844 35.257812 75.367188 35.347656 C 75.398438 35.4375 75.429688 35.558594 75.429688 35.648438 C 75.429688 35.859375 75.367188 36.039062 75.25 36.1875 C 75.132812 36.304688 74.984375 36.367188 74.804688 36.367188 C 74.660156 36.367188 74.539062 36.335938 74.449219 36.304688 C 74.363281 36.246094 74.273438 36.1875 74.183594 36.128906 C 74.066406 35.976562 73.917969 35.886719 73.769531 35.828125 C 73.621094 35.769531 73.472656 35.738281 73.296875 35.738281 C 73.058594 35.738281 72.820312 35.828125 72.613281 36.039062 C 72.4375 36.21875 72.316406 36.484375 72.316406 36.816406 C 72.316406 37.054688 72.40625 37.265625 72.527344 37.382812 C 72.644531 37.535156 72.851562 37.683594 73.117188 37.800781 C 73.414062 37.953125 73.710938 38.070312 74.007812 38.191406 C 74.332031 38.28125 74.570312 38.429688 74.804688 38.582031 C 75.101562 38.820312 75.367188 39.117188 75.546875 39.507812 C 75.726562 39.867188 75.8125 40.257812 75.8125 40.675781 C 75.8125 41.0625 75.726562 41.421875 75.605469 41.75 C 75.488281 42.109375 75.308594 42.410156 75.042969 42.648438 C 74.804688 42.917969 74.511719 43.128906 74.15625 43.277344 C 73.769531 43.425781 73.382812 43.515625 72.910156 43.515625 C 72.496094 43.515625 72.109375 43.425781 71.785156 43.246094 C 71.429688 43.097656 71.164062 42.890625 70.957031 42.679688 C 70.867188 42.589844 70.808594 42.5 70.75 42.378906 C 70.71875 42.289062 70.6875 42.199219 70.6875 42.109375 C 70.6875 41.871094 70.75 41.722656 70.867188 41.601562 C 70.984375 41.484375 71.164062 41.421875 71.371094 41.421875 C 71.460938 41.421875 71.546875 41.421875 71.636719 41.453125 C 71.726562 41.511719 71.816406 41.574219 71.902344 41.664062 C 72.050781 41.8125 72.230469 41.933594 72.40625 41.992188 C 72.585938 42.082031 72.792969 42.113281 73.058594 42.113281 C 73.472656 42.113281 73.828125 41.960938 74.066406 41.722656 C 74.273438 41.453125 74.390625 41.09375 74.390625 40.675781 C 74.390625 40.4375 74.363281 40.195312 74.242188 40.015625 C 74.15625 39.867188 73.949219 39.6875 73.679688 39.566406 C 73.445312 39.449219 73.175781 39.328125 72.851562 39.210938 C 72.554688 39.089844 72.257812 38.96875 71.960938 38.789062 C 71.695312 38.609375 71.429688 38.371094 71.222656 38.011719 C 71.042969 37.683594 70.925781 37.265625 70.925781 36.816406 C 70.925781 36.457031 70.984375 36.128906 71.105469 35.828125 C 71.222656 35.527344 71.398438 35.257812 71.636719 35.050781 C 71.84375 34.839844 72.109375 34.660156 72.40625 34.511719 C 72.703125 34.390625 73.027344 34.332031 73.382812 34.332031 Z M 73.382812 34.332031 " fill-opacity="1" fill-rule="evenodd"/></svg>