<svg xmlns="http://www.w3.org/2000/svg" xmlns:xlink="http://www.w3.org/1999/xlink" width="132" zoomAndPan="magnify" viewBox="0 0 98.88 70.499998" height="94" preserveAspectRatio="xMidYMid meet" version="1.0"><defs><g/><clipPath id="94b7d02682"><path d="M 25.183594 7 L 73.589844 7 L 73.589844 42 L 25.183594 42 Z M 25.183594 7 " clip-rule="nonzero"/></clipPath><clipPath id="b170ae2508"><path d="M 25.183594 42 L 73.589844 42 L 73.589844 47.214844 L 25.183594 47.214844 Z M 25.183594 42 " clip-rule="nonzero"/></clipPath></defs><g clip-path="url(#94b7d02682)"><path fill="#ffffff" d="M 71.375 7 L 27.503906 7 C 26.230469 7 25.199219 8.035156 25.199219 9.304688 L 25.199219 39.238281 C 25.199219 40.507812 26.230469 41.542969 27.503906 41.542969 L 71.375 41.542969 C 72.644531 41.542969 73.679688 40.507812 73.679688 39.238281 L 73.679688 9.304688 C 73.679688 8.035156 72.644531 7 71.375 7 Z M 72.910156 39.238281 C 72.910156 40.082031 72.222656 40.773438 71.375 40.773438 L 27.503906 40.773438 C 26.65625 40.773438 25.96875 40.082031 25.96875 39.238281 L 25.96875 9.304688 C 25.96875 8.457031 26.65625 7.769531 27.503906 7.769531 L 71.375 7.769531 C 72.222656 7.769531 72.910156 8.457031 72.910156 9.304688 Z M 72.910156 39.238281 " fill-opacity="1" fill-rule="nonzero"/></g><path fill="#ffffff" d="M 68.625 9.738281 L 30.253906 9.738281 C 28.984375 9.738281 27.949219 10.773438 27.949219 12.042969 L 27.949219 36.496094 C 27.949219 37.769531 28.984375 38.800781 30.253906 38.800781 L 68.625 38.800781 C 69.894531 38.800781 70.929688 37.769531 70.929688 36.496094 L 70.929688 12.042969 C 70.929688 10.773438 69.894531 9.738281 68.625 9.738281 Z M 41.878906 28.0625 C 41.570312 28.273438 40.964844 28.171875 40.546875 27.660156 C 40.273438 27.367188 39.527344 26.675781 38.441406 26.625 C 37.859375 26.605469 37.355469 26.730469 36.953125 27.003906 C 36.585938 27.253906 36.304688 27.617188 36.167969 28.027344 C 36.011719 28.503906 35.621094 28.847656 35.164062 28.910156 C 34.777344 28.964844 34.257812 28.496094 33.796875 28.085938 C 32.945312 27.316406 32.609375 27.15625 32.101562 27.085938 C 32.089844 27.082031 32.078125 27.085938 32.070312 27.082031 C 33.015625 26.1875 33.636719 25.507812 34.113281 24.984375 C 34.863281 24.15625 35.144531 23.847656 35.746094 23.734375 C 36.59375 23.578125 37.242188 23.9375 38.757812 25.097656 L 38.761719 25.101562 L 39.28125 25.503906 C 40.03125 26.082031 40.957031 26.800781 42.132812 27.636719 C 42.089844 27.789062 42.019531 27.964844 41.878906 28.0625 Z M 51.660156 25.207031 C 51.667969 25.023438 51.550781 24.859375 51.371094 24.8125 C 51.195312 24.765625 51.007812 24.851562 50.929688 25.019531 C 50.46875 25.972656 49.871094 26.863281 49.152344 27.664062 C 48.730469 28.136719 48.273438 28.566406 47.757812 28.980469 C 47.441406 29.234375 47.101562 29.472656 46.730469 29.707031 C 45.371094 28.898438 44.042969 28.042969 42.78125 27.152344 C 41.519531 26.265625 40.539062 25.503906 39.753906 24.894531 L 39.441406 24.652344 C 40.128906 22.558594 42.980469 21.007812 46.226562 21.007812 C 49.191406 21.007812 51.796875 22.246094 52.78125 24.105469 C 52.269531 25.335938 52.253906 26.441406 52.296875 27.003906 C 52.3125 27.195312 52.484375 27.347656 52.675781 27.359375 C 52.675781 27.359375 52.679688 27.359375 52.679688 27.359375 C 52.4375 27.757812 52.113281 28.132812 51.714844 28.476562 C 51.59375 27.6875 51.574219 26.59375 51.660156 25.207031 Z M 70.160156 35.035156 C 69.109375 34.464844 68.082031 33.8125 67.101562 33.085938 C 65.878906 32.183594 65.207031 31.519531 64.714844 31.039062 C 64.074219 30.410156 63.691406 30.03125 62.832031 29.828125 C 61.378906 29.488281 60.121094 30.015625 59.007812 30.480469 C 57.875 30.953125 57.148438 31.222656 56.539062 30.796875 C 56.308594 30.640625 56.191406 30.449219 56.054688 30.234375 C 55.855469 29.914062 55.625 29.546875 55.054688 29.378906 C 54.296875 29.15625 53.664062 29.425781 53.152344 29.640625 C 52.816406 29.785156 52.523438 29.910156 52.316406 29.839844 C 52.136719 29.777344 52.003906 29.546875 51.914062 29.304688 C 52.648438 28.746094 53.207031 28.078125 53.550781 27.355469 C 54.414062 27.296875 55.605469 27.039062 56.808594 26.210938 C 58.664062 24.921875 59.316406 23.117188 59.503906 22.449219 L 60.691406 21.269531 C 62.839844 19.277344 64.769531 17.164062 66.445312 14.960938 C 68.003906 12.898438 68.449219 12.140625 68.023438 11.714844 C 67.625 11.316406 66.949219 11.644531 64.742188 13.300781 C 62.550781 14.953125 60.421875 16.871094 58.421875 19.007812 L 57.234375 20.1875 C 56.566406 20.375 54.75 21.023438 53.457031 22.871094 C 53.359375 23.007812 53.273438 23.152344 53.1875 23.292969 C 51.917969 21.441406 49.234375 20.238281 46.226562 20.238281 C 42.726562 20.238281 39.71875 21.859375 38.796875 24.160156 C 37.609375 23.273438 36.738281 22.769531 35.605469 22.980469 C 34.75 23.140625 34.347656 23.582031 33.542969 24.46875 C 32.96875 25.101562 32.179688 25.964844 30.835938 27.179688 L 30.355469 27.601562 C 29.820312 28.070312 29.273438 28.515625 28.71875 28.953125 L 28.71875 12.042969 C 28.71875 11.199219 29.40625 10.507812 30.253906 10.507812 L 68.625 10.507812 C 69.472656 10.507812 70.160156 11.199219 70.160156 12.042969 Z M 56.253906 23.425781 C 56.328125 23.5 56.429688 23.539062 56.527344 23.539062 C 56.625 23.539062 56.722656 23.5 56.796875 23.425781 L 58.296875 21.933594 L 58.726562 22.363281 C 58.523438 23.023438 57.921875 24.5 56.367188 25.578125 C 55.207031 26.382812 54.050781 26.578125 53.28125 26.601562 C 53.199219 26.605469 53.125 26.605469 53.050781 26.605469 C 53.046875 26.035156 53.132812 25.175781 53.558594 24.238281 C 53.699219 23.921875 53.878906 23.609375 54.085938 23.3125 C 55.171875 21.765625 56.65625 21.164062 57.324219 20.964844 L 57.75 21.390625 L 56.253906 22.878906 C 56.105469 23.03125 56.105469 23.273438 56.253906 23.425781 Z M 57.980469 20.53125 L 58.695312 19.820312 L 59.875 20.996094 L 59.160156 21.707031 L 58.570312 21.121094 Z M 57.980469 20.53125 " fill-opacity="1" fill-rule="nonzero"/><g clip-path="url(#b170ae2508)"><path fill="#ffffff" d="M 71.757812 42.597656 L 27.121094 42.597656 C 26.0625 42.597656 25.199219 43.460938 25.199219 44.519531 L 25.199219 45.09375 C 25.199219 46.152344 26.0625 47.015625 27.121094 47.015625 L 71.757812 47.015625 C 72.816406 47.015625 73.679688 46.152344 73.679688 45.09375 L 73.679688 44.519531 C 73.679688 43.460938 72.816406 42.597656 71.757812 42.597656 Z M 72.910156 45.09375 C 72.910156 45.730469 72.394531 46.246094 71.757812 46.246094 L 27.121094 46.246094 C 26.484375 46.246094 25.96875 45.730469 25.96875 45.09375 L 25.96875 44.519531 C 25.96875 43.882812 26.484375 43.367188 27.121094 43.367188 L 44.925781 43.367188 L 44.925781 44.808594 C 44.925781 45.019531 45.097656 45.195312 45.308594 45.195312 L 53.566406 45.195312 C 53.78125 45.195312 53.953125 45.019531 53.953125 44.808594 L 53.953125 43.367188 L 71.757812 43.367188 C 72.394531 43.367188 72.910156 43.882812 72.910156 44.519531 Z M 72.910156 45.09375 " fill-opacity="1" fill-rule="nonzero"/></g><g fill="#ffffff" fill-opacity="1"><g transform="translate(18.662589, 60.790415)"><g><path d="M 0.703125 -2.484375 L 0.1875 -2.484375 L 0.1875 -3.25 L 0.703125 -3.25 L 0.703125 -5.625 L 2.8125 -5.625 C 3.351562 -5.625 3.832031 -5.507812 4.25 -5.28125 C 4.675781 -5.0625 5.003906 -4.738281 5.234375 -4.3125 C 5.472656 -3.894531 5.59375 -3.394531 5.59375 -2.8125 C 5.59375 -2.238281 5.472656 -1.738281 5.234375 -1.3125 C 5.003906 -0.882812 4.675781 -0.554688 4.25 -0.328125 C 3.832031 -0.109375 3.351562 0 2.8125 0 L 0.703125 0 Z M 2.8125 -0.984375 C 3.351562 -0.984375 3.765625 -1.144531 4.046875 -1.46875 C 4.328125 -1.789062 4.46875 -2.238281 4.46875 -2.8125 C 4.46875 -3.382812 4.328125 -3.832031 4.046875 -4.15625 C 3.765625 -4.476562 3.351562 -4.640625 2.8125 -4.640625 L 1.734375 -4.640625 L 1.734375 -3.25 L 2.71875 -3.25 L 2.71875 -2.484375 L 1.734375 -2.484375 L 1.734375 -0.984375 Z M 2.8125 -0.984375 "/></g></g></g><g fill="#ffffff" fill-opacity="1"><g transform="translate(24.542177, 60.790415)"><g><path d="M 2.296875 0.078125 C 1.867188 0.078125 1.5 -0.015625 1.1875 -0.203125 C 0.875 -0.390625 0.632812 -0.640625 0.46875 -0.953125 C 0.300781 -1.273438 0.21875 -1.625 0.21875 -2 C 0.21875 -2.382812 0.300781 -2.738281 0.46875 -3.0625 C 0.632812 -3.382812 0.875 -3.640625 1.1875 -3.828125 C 1.5 -4.015625 1.867188 -4.109375 2.296875 -4.109375 C 2.710938 -4.109375 3.078125 -4.015625 3.390625 -3.828125 C 3.703125 -3.640625 3.941406 -3.382812 4.109375 -3.0625 C 4.273438 -2.738281 4.359375 -2.382812 4.359375 -2 C 4.359375 -1.625 4.273438 -1.273438 4.109375 -0.953125 C 3.941406 -0.640625 3.703125 -0.390625 3.390625 -0.203125 C 3.078125 -0.015625 2.710938 0.078125 2.296875 0.078125 Z M 2.296875 -0.734375 C 2.617188 -0.734375 2.875 -0.847656 3.0625 -1.078125 C 3.25 -1.316406 3.34375 -1.625 3.34375 -2 C 3.34375 -2.382812 3.25 -2.691406 3.0625 -2.921875 C 2.875 -3.160156 2.617188 -3.28125 2.296875 -3.28125 C 1.960938 -3.28125 1.703125 -3.160156 1.515625 -2.921875 C 1.335938 -2.691406 1.25 -2.382812 1.25 -2 C 1.25 -1.625 1.335938 -1.316406 1.515625 -1.078125 C 1.703125 -0.847656 1.960938 -0.734375 2.296875 -0.734375 Z M 2.421875 -6.625 L 3.28125 -6.625 L 3.703125 -5.59375 L 3.078125 -5.59375 Z M 1.234375 -4.984375 L 2.296875 -5.71875 L 3.359375 -4.984375 L 3.359375 -4.390625 L 2.296875 -4.96875 L 1.234375 -4.390625 Z M 1.234375 -4.984375 "/></g></g></g><g fill="#ffffff" fill-opacity="1"><g transform="translate(29.126804, 60.790415)"><g/></g></g><g fill="#ffffff" fill-opacity="1"><g transform="translate(30.936522, 60.790415)"><g><path d="M 2.5 -4.09375 C 3.007812 -4.09375 3.382812 -3.925781 3.625 -3.59375 C 3.875 -3.257812 4 -2.804688 4 -2.234375 L 4 0 L 3.015625 0 L 3.015625 -2.171875 C 3.015625 -2.546875 2.953125 -2.820312 2.828125 -3 C 2.703125 -3.175781 2.503906 -3.265625 2.234375 -3.265625 C 1.921875 -3.265625 1.660156 -3.148438 1.453125 -2.921875 L 1.453125 0 L 0.453125 0 L 0.453125 -6.03125 L 1.453125 -6.03125 L 1.453125 -3.765625 C 1.617188 -3.867188 1.785156 -3.945312 1.953125 -4 C 2.117188 -4.0625 2.300781 -4.09375 2.5 -4.09375 Z M 2.5 -4.09375 "/></g></g></g><g fill="#ffffff" fill-opacity="1"><g transform="translate(35.368327, 60.790415)"><g><path d="M 2.296875 0.078125 C 1.867188 0.078125 1.5 -0.015625 1.1875 -0.203125 C 0.875 -0.390625 0.632812 -0.640625 0.46875 -0.953125 C 0.300781 -1.273438 0.21875 -1.625 0.21875 -2 C 0.21875 -2.382812 0.300781 -2.738281 0.46875 -3.0625 C 0.632812 -3.382812 0.875 -3.640625 1.1875 -3.828125 C 1.5 -4.015625 1.867188 -4.109375 2.296875 -4.109375 C 2.710938 -4.109375 3.078125 -4.015625 3.390625 -3.828125 C 3.703125 -3.640625 3.941406 -3.382812 4.109375 -3.0625 C 4.273438 -2.738281 4.359375 -2.382812 4.359375 -2 C 4.359375 -1.625 4.273438 -1.273438 4.109375 -0.953125 C 3.941406 -0.640625 3.703125 -0.390625 3.390625 -0.203125 C 3.078125 -0.015625 2.710938 0.078125 2.296875 0.078125 Z M 2.296875 -0.734375 C 2.617188 -0.734375 2.875 -0.847656 3.0625 -1.078125 C 3.25 -1.316406 3.34375 -1.625 3.34375 -2 C 3.34375 -2.382812 3.25 -2.691406 3.0625 -2.921875 C 2.875 -3.160156 2.617188 -3.28125 2.296875 -3.28125 C 1.960938 -3.28125 1.703125 -3.160156 1.515625 -2.921875 C 1.335938 -2.691406 1.25 -2.382812 1.25 -2 C 1.25 -1.625 1.335938 -1.316406 1.515625 -1.078125 C 1.703125 -0.847656 1.960938 -0.734375 2.296875 -0.734375 Z M 1.875 0.65625 L 2.71875 0.65625 L 2.71875 1.4375 L 1.875 1.4375 Z M 1.875 0.65625 "/></g></g></g><g fill="#ffffff" fill-opacity="1"><g transform="translate(39.952954, 60.790415)"><g><path d="M 1.328125 0.078125 C 1.003906 0.078125 0.726562 -0.03125 0.5 -0.25 C 0.28125 -0.46875 0.171875 -0.757812 0.171875 -1.125 C 0.171875 -1.476562 0.296875 -1.757812 0.546875 -1.96875 C 0.796875 -2.175781 1.09375 -2.320312 1.4375 -2.40625 C 1.78125 -2.5 2.113281 -2.550781 2.4375 -2.5625 C 2.414062 -2.800781 2.347656 -2.972656 2.234375 -3.078125 C 2.128906 -3.179688 1.953125 -3.234375 1.703125 -3.234375 C 1.523438 -3.234375 1.351562 -3.207031 1.1875 -3.15625 C 1.019531 -3.101562 0.828125 -3.023438 0.609375 -2.921875 L 0.515625 -3.734375 C 1.003906 -3.972656 1.492188 -4.09375 1.984375 -4.09375 C 2.453125 -4.09375 2.8125 -3.960938 3.0625 -3.703125 C 3.3125 -3.441406 3.4375 -3.03125 3.4375 -2.46875 L 3.4375 -1.390625 C 3.4375 -1.179688 3.445312 -1.03125 3.46875 -0.9375 C 3.488281 -0.851562 3.519531 -0.796875 3.5625 -0.765625 C 3.601562 -0.742188 3.679688 -0.734375 3.796875 -0.734375 L 3.921875 -0.734375 L 3.828125 0.078125 L 3.46875 0.078125 C 3.25 0.078125 3.0625 0.0351562 2.90625 -0.046875 C 2.757812 -0.128906 2.644531 -0.242188 2.5625 -0.390625 C 2.4375 -0.242188 2.257812 -0.128906 2.03125 -0.046875 C 1.8125 0.0351562 1.578125 0.078125 1.328125 0.078125 Z M 1.75 -0.6875 C 1.851562 -0.6875 1.96875 -0.710938 2.09375 -0.765625 C 2.226562 -0.816406 2.34375 -0.882812 2.4375 -0.96875 L 2.4375 -1.890625 C 2.113281 -1.867188 1.828125 -1.796875 1.578125 -1.671875 C 1.335938 -1.554688 1.21875 -1.390625 1.21875 -1.171875 C 1.21875 -1.003906 1.257812 -0.878906 1.34375 -0.796875 C 1.425781 -0.722656 1.5625 -0.6875 1.75 -0.6875 Z M 1.75 -0.6875 "/></g></g></g><g fill="#ffffff" fill-opacity="1"><g transform="translate(43.958468, 60.790415)"><g/></g></g><g fill="#ffffff" fill-opacity="1"><g transform="translate(45.768186, 60.790415)"><g><path d="M 2.125 0.1875 C 1.707031 0.1875 1.359375 0.117188 1.078125 -0.015625 C 0.804688 -0.160156 0.597656 -0.347656 0.453125 -0.578125 C 0.316406 -0.816406 0.25 -1.078125 0.25 -1.359375 C 0.25 -1.691406 0.335938 -1.984375 0.515625 -2.234375 C 0.691406 -2.484375 0.929688 -2.722656 1.234375 -2.953125 C 0.835938 -3.453125 0.640625 -3.910156 0.640625 -4.328125 C 0.640625 -4.597656 0.707031 -4.832031 0.84375 -5.03125 C 0.988281 -5.226562 1.179688 -5.378906 1.421875 -5.484375 C 1.660156 -5.597656 1.921875 -5.65625 2.203125 -5.65625 C 2.617188 -5.65625 2.945312 -5.546875 3.1875 -5.328125 C 3.425781 -5.117188 3.546875 -4.84375 3.546875 -4.5 C 3.546875 -4.28125 3.492188 -4.082031 3.390625 -3.90625 C 3.296875 -3.726562 3.171875 -3.578125 3.015625 -3.453125 C 2.867188 -3.328125 2.664062 -3.171875 2.40625 -2.984375 L 3.53125 -1.703125 C 3.570312 -1.921875 3.59375 -2.15625 3.59375 -2.40625 C 3.601562 -2.65625 3.609375 -2.796875 3.609375 -2.828125 L 4.578125 -2.828125 C 4.578125 -2.085938 4.441406 -1.46875 4.171875 -0.96875 L 5.015625 0 L 3.859375 0 L 3.609375 -0.28125 C 3.222656 0.03125 2.726562 0.1875 2.125 0.1875 Z M 1.984375 -3.46875 C 2.203125 -3.625 2.367188 -3.773438 2.484375 -3.921875 C 2.609375 -4.066406 2.671875 -4.222656 2.671875 -4.390625 C 2.671875 -4.546875 2.625 -4.660156 2.53125 -4.734375 C 2.445312 -4.816406 2.332031 -4.859375 2.1875 -4.859375 C 2.019531 -4.859375 1.882812 -4.804688 1.78125 -4.703125 C 1.675781 -4.609375 1.625 -4.46875 1.625 -4.28125 C 1.625 -4.15625 1.648438 -4.03125 1.703125 -3.90625 C 1.765625 -3.78125 1.859375 -3.632812 1.984375 -3.46875 Z M 2.265625 -0.578125 C 2.617188 -0.578125 2.898438 -0.664062 3.109375 -0.84375 L 1.71875 -2.40625 C 1.4375 -2.113281 1.296875 -1.789062 1.296875 -1.4375 C 1.296875 -1.1875 1.367188 -0.976562 1.515625 -0.8125 C 1.660156 -0.65625 1.910156 -0.578125 2.265625 -0.578125 Z M 2.265625 -0.578125 "/></g></g></g><g fill="#ffffff" fill-opacity="1"><g transform="translate(50.811278, 60.790415)"><g/></g></g><g fill="#ffffff" fill-opacity="1"><g transform="translate(52.620996, 60.790415)"><g><path d="M 1.71875 -4.640625 L 0.125 -4.640625 L 0.125 -5.625 L 4.34375 -5.625 L 4.34375 -4.640625 L 2.75 -4.640625 L 2.75 0 L 1.71875 0 Z M 1.71875 -4.640625 "/></g></g></g><g fill="#ffffff" fill-opacity="1"><g transform="translate(57.076936, 60.790415)"><g><path d="M 2.5 -4.09375 C 3.007812 -4.09375 3.382812 -3.925781 3.625 -3.59375 C 3.875 -3.257812 4 -2.804688 4 -2.234375 L 4 0 L 3.015625 0 L 3.015625 -2.171875 C 3.015625 -2.546875 2.953125 -2.820312 2.828125 -3 C 2.703125 -3.175781 2.503906 -3.265625 2.234375 -3.265625 C 1.921875 -3.265625 1.660156 -3.148438 1.453125 -2.921875 L 1.453125 0 L 0.453125 0 L 0.453125 -6.03125 L 1.453125 -6.03125 L 1.453125 -3.765625 C 1.617188 -3.867188 1.785156 -3.945312 1.953125 -4 C 2.117188 -4.0625 2.300781 -4.09375 2.5 -4.09375 Z M 2.5 -4.09375 "/></g></g></g><g fill="#ffffff" fill-opacity="1"><g transform="translate(61.508742, 60.790415)"><g><path d="M 0.46875 -5.625 L 1.46875 -5.625 L 1.46875 -4.640625 L 0.46875 -4.640625 Z M 0.46875 -4.015625 L 1.46875 -4.015625 L 1.46875 0 L 0.46875 0 Z M 0.46875 -4.015625 "/></g></g></g><g fill="#ffffff" fill-opacity="1"><g transform="translate(63.439116, 60.790415)"><g><path d="M 2.40625 0.078125 C 1.9375 0.078125 1.535156 -0.015625 1.203125 -0.203125 C 0.878906 -0.390625 0.632812 -0.644531 0.46875 -0.96875 C 0.300781 -1.289062 0.21875 -1.644531 0.21875 -2.03125 C 0.21875 -2.40625 0.296875 -2.75 0.453125 -3.0625 C 0.609375 -3.375 0.832031 -3.625 1.125 -3.8125 C 1.425781 -4 1.78125 -4.09375 2.1875 -4.09375 C 2.5625 -4.09375 2.878906 -4.015625 3.140625 -3.859375 C 3.398438 -3.703125 3.59375 -3.488281 3.71875 -3.21875 C 3.851562 -2.957031 3.921875 -2.664062 3.921875 -2.34375 C 3.921875 -2.175781 3.898438 -1.992188 3.859375 -1.796875 L 1.265625 -1.796875 C 1.316406 -1.441406 1.453125 -1.175781 1.671875 -1 C 1.898438 -0.820312 2.175781 -0.734375 2.5 -0.734375 C 2.925781 -0.734375 3.328125 -0.84375 3.703125 -1.0625 L 3.75 -0.21875 C 3.582031 -0.132812 3.382812 -0.0625 3.15625 0 C 2.925781 0.0507812 2.675781 0.078125 2.40625 0.078125 Z M 2.90625 -2.46875 C 2.90625 -2.675781 2.847656 -2.859375 2.734375 -3.015625 C 2.617188 -3.179688 2.4375 -3.265625 2.1875 -3.265625 C 1.9375 -3.265625 1.738281 -3.191406 1.59375 -3.046875 C 1.445312 -2.898438 1.34375 -2.707031 1.28125 -2.46875 Z M 3.40625 -6.625 L 4.328125 -6.625 L 3.515625 -5.59375 L 2.875 -5.59375 Z M 1.203125 -4.984375 L 2.265625 -5.71875 L 3.328125 -4.984375 L 3.328125 -4.390625 L 2.265625 -4.96875 L 1.203125 -4.390625 Z M 1.203125 -4.984375 "/></g></g></g><g fill="#ffffff" fill-opacity="1"><g transform="translate(67.581365, 60.790415)"><g><path d="M 1.78125 0.078125 C 1.425781 0.078125 1.15625 -0.0234375 0.96875 -0.234375 C 0.789062 -0.441406 0.703125 -0.6875 0.703125 -0.96875 L 0.703125 -3.203125 L 0.125 -3.203125 L 0.21875 -4.015625 L 0.703125 -4.015625 L 0.703125 -4.90625 L 1.703125 -5.015625 L 1.703125 -4.015625 L 2.578125 -4.015625 L 2.578125 -3.203125 L 1.703125 -3.203125 L 1.703125 -1.390625 C 1.703125 -1.171875 1.710938 -1.019531 1.734375 -0.9375 C 1.753906 -0.851562 1.800781 -0.796875 1.875 -0.765625 C 1.957031 -0.742188 2.101562 -0.734375 2.3125 -0.734375 L 2.578125 -0.734375 L 2.5 0.078125 Z M 1.78125 0.078125 "/></g></g></g><g fill="#ffffff" fill-opacity="1"><g transform="translate(70.348226, 60.790415)"><g/></g></g><g fill="#ffffff" fill-opacity="1"><g transform="translate(72.157944, 60.790415)"><g><path d="M 0.453125 -6.03125 L 1.453125 -6.03125 L 1.453125 -2.375 L 2.703125 -4.015625 L 3.828125 -4.015625 L 2.359375 -2.09375 L 3.859375 0 L 2.734375 0 L 1.453125 -1.78125 L 1.453125 0 L 0.453125 0 Z M 0.453125 -6.03125 "/></g></g></g><g fill="#ffffff" fill-opacity="1"><g transform="translate(76.058897, 60.790415)"><g><path d="M 2.40625 0.078125 C 1.9375 0.078125 1.535156 -0.015625 1.203125 -0.203125 C 0.878906 -0.390625 0.632812 -0.644531 0.46875 -0.96875 C 0.300781 -1.289062 0.21875 -1.644531 0.21875 -2.03125 C 0.21875 -2.40625 0.296875 -2.75 0.453125 -3.0625 C 0.609375 -3.375 0.832031 -3.625 1.125 -3.8125 C 1.425781 -4 1.78125 -4.09375 2.1875 -4.09375 C 2.5625 -4.09375 2.878906 -4.015625 3.140625 -3.859375 C 3.398438 -3.703125 3.59375 -3.488281 3.71875 -3.21875 C 3.851562 -2.957031 3.921875 -2.664062 3.921875 -2.34375 C 3.921875 -2.175781 3.898438 -1.992188 3.859375 -1.796875 L 1.265625 -1.796875 C 1.316406 -1.441406 1.453125 -1.175781 1.671875 -1 C 1.898438 -0.820312 2.175781 -0.734375 2.5 -0.734375 C 2.925781 -0.734375 3.328125 -0.84375 3.703125 -1.0625 L 3.75 -0.21875 C 3.582031 -0.132812 3.382812 -0.0625 3.15625 0 C 2.925781 0.0507812 2.675781 0.078125 2.40625 0.078125 Z M 2.90625 -2.46875 C 2.90625 -2.675781 2.847656 -2.859375 2.734375 -3.015625 C 2.617188 -3.179688 2.4375 -3.265625 2.1875 -3.265625 C 1.9375 -3.265625 1.738281 -3.191406 1.59375 -3.046875 C 1.445312 -2.898438 1.34375 -2.707031 1.28125 -2.46875 Z M 3.40625 -6.625 L 4.328125 -6.625 L 3.515625 -5.59375 L 2.875 -5.59375 Z M 1.203125 -4.984375 L 2.265625 -5.71875 L 3.328125 -4.984375 L 3.328125 -4.390625 L 2.265625 -4.96875 L 1.203125 -4.390625 Z M 1.203125 -4.984375 "/></g></g></g></svg>