<svg xmlns="http://www.w3.org/2000/svg" xmlns:xlink="http://www.w3.org/1999/xlink" width="132" zoomAndPan="magnify" viewBox="0 0 98.88 70.499998" height="94" preserveAspectRatio="xMidYMid meet" version="1.0"><defs><g/><clipPath id="b03472aa5e"><path d="M 24.960938 7 L 74 7 L 74 47.214844 L 24.960938 47.214844 Z M 24.960938 7 " clip-rule="nonzero"/></clipPath><clipPath id="1cd42d6562"><path d="M 71.585938 7 L 27.292969 7 C 26.007812 7 24.964844 8.042969 24.964844 9.328125 L 24.964844 39.546875 C 24.964844 40.828125 26.007812 41.871094 27.292969 41.871094 L 71.585938 41.871094 C 72.867188 41.871094 73.914062 40.828125 73.914062 39.546875 L 73.914062 9.328125 C 73.914062 8.042969 72.867188 7 71.585938 7 Z M 73.136719 39.546875 C 73.136719 40.398438 72.441406 41.09375 71.585938 41.09375 L 27.292969 41.09375 C 26.4375 41.09375 25.742188 40.398438 25.742188 39.546875 L 25.742188 9.328125 C 25.742188 8.472656 26.4375 7.777344 27.292969 7.777344 L 71.585938 7.777344 C 72.441406 7.777344 73.136719 8.472656 73.136719 9.328125 Z M 68.808594 9.765625 L 30.070312 9.765625 C 28.789062 9.765625 27.746094 10.808594 27.746094 12.089844 L 27.746094 36.78125 C 27.746094 38.0625 28.789062 39.109375 30.070312 39.109375 L 68.808594 39.109375 C 70.089844 39.109375 71.132812 38.0625 71.132812 36.78125 L 71.132812 12.089844 C 71.132812 10.808594 70.089844 9.765625 68.808594 9.765625 Z M 30.070312 10.542969 L 68.808594 10.542969 C 69.660156 10.542969 70.355469 11.238281 70.355469 12.089844 L 70.355469 35.304688 C 69.289062 34.71875 68.25 34.0625 67.269531 33.339844 C 66.035156 32.425781 65.355469 31.757812 64.859375 31.269531 C 64.214844 30.632812 63.828125 30.25 62.960938 30.046875 C 61.496094 29.703125 60.222656 30.234375 59.097656 30.703125 C 57.957031 31.183594 57.222656 31.453125 56.609375 31.027344 C 56.375 30.867188 56.25 30.667969 56.117188 30.453125 C 55.914062 30.128906 55.683594 29.761719 55.105469 29.59375 C 54.34375 29.367188 53.703125 29.640625 53.191406 29.859375 C 52.847656 30.003906 52.554688 30.132812 52.347656 30.058594 C 52.257812 30.027344 52.089844 29.910156 51.941406 29.515625 C 52.683594 28.949219 53.246094 28.277344 53.59375 27.550781 C 54.453125 27.488281 55.664062 27.230469 56.875 26.394531 C 58.757812 25.089844 59.414062 23.269531 59.601562 22.59375 L 60.792969 21.410156 C 62.972656 19.390625 64.921875 17.257812 66.589844 15.0625 C 68.277344 12.839844 68.609375 12.164062 68.203125 11.757812 C 67.796875 11.355469 67.117188 11.683594 64.886719 13.359375 C 62.683594 15.019531 60.535156 16.957031 58.511719 19.121094 L 57.3125 20.3125 C 56.636719 20.5 54.804688 21.152344 53.496094 23.023438 C 53.398438 23.167969 53.308594 23.308594 53.226562 23.449219 C 51.945312 21.578125 49.230469 20.363281 46.195312 20.363281 C 42.664062 20.363281 39.625 22 38.691406 24.328125 C 37.40625 23.371094 36.570312 22.925781 35.472656 23.132812 C 34.609375 23.292969 34.199219 23.742188 33.386719 24.636719 C 32.804688 25.273438 32.011719 26.148438 30.652344 27.371094 C 29.960938 27.992188 29.246094 28.585938 28.523438 29.160156 L 28.523438 12.089844 C 28.523438 11.238281 29.214844 10.542969 30.070312 10.542969 Z M 39.21875 25.710938 C 39.96875 26.289062 40.894531 27.003906 42.0625 27.835938 C 42.023438 27.984375 41.949219 28.167969 41.808594 28.261719 C 41.496094 28.476562 40.886719 28.375 40.460938 27.859375 C 40.191406 27.5625 39.4375 26.859375 38.339844 26.8125 C 37.753906 26.785156 37.246094 26.914062 36.832031 27.195312 C 36.457031 27.449219 36.179688 27.816406 36.042969 28.230469 C 35.886719 28.707031 35.488281 29.054688 35.027344 29.117188 C 34.640625 29.167969 34.132812 28.722656 33.648438 28.285156 C 32.785156 27.511719 32.449219 27.347656 31.933594 27.277344 C 31.921875 27.273438 31.914062 27.277344 31.902344 27.273438 C 32.855469 26.371094 33.484375 25.683594 33.960938 25.160156 C 34.722656 24.324219 35.007812 24.011719 35.617188 23.898438 C 36.632812 23.703125 37.441406 24.332031 39.21875 25.710938 Z M 42.714844 27.34375 C 41.460938 26.460938 40.480469 25.703125 39.695312 25.09375 C 39.574219 25 39.457031 24.910156 39.34375 24.824219 C 40.042969 22.707031 42.921875 21.140625 46.195312 21.140625 C 49.191406 21.140625 51.816406 22.390625 52.8125 24.265625 C 52.277344 25.546875 52.285156 26.6875 52.328125 27.199219 C 52.34375 27.386719 52.496094 27.539062 52.683594 27.554688 C 52.691406 27.554688 52.703125 27.554688 52.710938 27.554688 C 52.46875 27.957031 52.140625 28.335938 51.738281 28.679688 C 51.632812 27.984375 51.585938 26.945312 51.679688 25.382812 C 51.691406 25.195312 51.570312 25.027344 51.390625 24.980469 C 51.210938 24.933594 51.023438 25.023438 50.941406 25.1875 C 50.472656 26.160156 49.871094 27.058594 49.152344 27.863281 C 48.433594 28.660156 47.613281 29.355469 46.703125 29.925781 C 45.347656 29.121094 44.007812 28.253906 42.714844 27.34375 Z M 57.398438 21.097656 L 57.832031 21.527344 L 56.320312 23.035156 C 56.167969 23.183594 56.167969 23.429688 56.316406 23.582031 C 56.394531 23.660156 56.492188 23.699219 56.59375 23.699219 C 56.691406 23.699219 56.792969 23.660156 56.867188 23.585938 L 58.382812 22.078125 L 58.816406 22.507812 C 58.613281 23.175781 58.007812 24.664062 56.433594 25.753906 C 55.125 26.660156 53.808594 26.800781 53.085938 26.792969 C 53.082031 26.066406 53.222656 24.769531 54.132812 23.46875 C 55.230469 21.902344 56.730469 21.300781 57.398438 21.097656 Z M 60.535156 20.585938 L 59.328125 19.390625 C 61.25 17.367188 63.273438 15.546875 65.355469 13.980469 C 66.289062 13.277344 66.972656 12.804688 67.394531 12.566406 C 67.152344 12.984375 66.679688 13.664062 65.972656 14.589844 C 64.402344 16.660156 62.570312 18.675781 60.535156 20.585938 Z M 58.785156 19.945312 L 59.382812 20.539062 L 59.976562 21.128906 L 59.253906 21.847656 L 58.0625 20.664062 Z M 68.808594 38.332031 L 30.070312 38.332031 C 29.214844 38.332031 28.523438 37.636719 28.523438 36.78125 L 28.523438 30.152344 C 29.207031 29.628906 29.875 29.074219 30.535156 28.5 C 30.585938 28.488281 30.636719 28.46875 30.679688 28.433594 C 31.09375 28.128906 31.480469 28 31.828125 28.046875 C 32.105469 28.085938 32.289062 28.109375 33.128906 28.863281 C 33.699219 29.375 34.285156 29.902344 34.957031 29.902344 C 35.015625 29.902344 35.074219 29.898438 35.132812 29.890625 C 35.882812 29.789062 36.53125 29.230469 36.78125 28.472656 C 36.863281 28.222656 37.035156 27.996094 37.269531 27.839844 C 37.542969 27.65625 37.890625 27.570312 38.304688 27.589844 C 39.113281 27.625 39.679688 28.15625 39.875 28.371094 C 40.515625 29.144531 41.558594 29.378906 42.25 28.902344 C 42.484375 28.742188 42.632812 28.515625 42.726562 28.296875 C 43.957031 29.144531 45.226562 29.960938 46.511719 30.714844 C 46.632812 30.785156 46.785156 30.785156 46.90625 30.710938 C 47.960938 30.078125 48.910156 29.292969 49.726562 28.382812 C 50.140625 27.925781 50.515625 27.4375 50.851562 26.925781 C 50.847656 27.984375 50.925781 28.808594 51.089844 29.425781 C 51.09375 29.460938 51.105469 29.488281 51.117188 29.519531 C 51.320312 30.222656 51.640625 30.636719 52.089844 30.792969 C 52.582031 30.964844 53.046875 30.765625 53.496094 30.574219 C 53.957031 30.378906 54.390625 30.191406 54.886719 30.339844 C 55.183594 30.425781 55.285156 30.59375 55.460938 30.867188 C 55.613281 31.113281 55.800781 31.414062 56.164062 31.667969 C 57.164062 32.359375 58.25 31.902344 59.398438 31.421875 C 60.460938 30.976562 61.5625 30.519531 62.78125 30.804688 C 63.4375 30.957031 63.710938 31.230469 64.316406 31.824219 C 64.828125 32.328125 65.527344 33.019531 66.808594 33.964844 C 67.929688 34.792969 69.125 35.539062 70.355469 36.1875 L 70.355469 36.78125 C 70.355469 37.636719 69.660156 38.332031 68.808594 38.332031 Z M 71.96875 42.9375 L 26.90625 42.9375 C 25.835938 42.9375 24.964844 43.808594 24.964844 44.882812 L 24.964844 45.457031 C 24.964844 46.53125 25.835938 47.402344 26.90625 47.402344 L 71.96875 47.402344 C 73.042969 47.402344 73.914062 46.53125 73.914062 45.457031 L 73.914062 44.882812 C 73.914062 43.808594 73.042969 42.9375 71.96875 42.9375 Z M 45.660156 43.714844 L 53.21875 43.714844 L 53.21875 44.78125 L 45.660156 44.78125 Z M 73.136719 45.457031 C 73.136719 46.101562 72.613281 46.625 71.96875 46.625 L 26.90625 46.625 C 26.265625 46.625 25.742188 46.101562 25.742188 45.457031 L 25.742188 44.882812 C 25.742188 44.238281 26.265625 43.714844 26.90625 43.714844 L 44.882812 43.714844 L 44.882812 45.171875 C 44.882812 45.382812 45.054688 45.558594 45.269531 45.558594 L 53.609375 45.558594 C 53.820312 45.558594 53.996094 45.382812 53.996094 45.171875 L 53.996094 43.714844 L 71.96875 43.714844 C 72.613281 43.714844 73.136719 44.238281 73.136719 44.882812 Z M 73.136719 45.457031 " clip-rule="nonzero"/></clipPath><linearGradient x1="63" gradientTransform="matrix(0.388471, 0, 0, 0.388471, 24.965428, 7.000355)" y1="-0.00000841905" x2="63" gradientUnits="userSpaceOnUse" y2="103.520725" id="3e6a93661f"><stop stop-opacity="1" stop-color="rgb(93.699646%, 79.598999%, 34.498596%)" offset="0"/><stop stop-opacity="1" stop-color="rgb(93.72406%, 79.678345%, 34.753418%)" offset="0.00390625"/><stop stop-opacity="1" stop-color="rgb(93.748474%, 79.75769%, 35.00824%)" offset="0.0078125"/><stop stop-opacity="1" stop-color="rgb(93.772888%, 79.837036%, 35.263062%)" offset="0.0117187"/><stop stop-opacity="1" stop-color="rgb(93.797302%, 79.916382%, 35.517883%)" offset="0.015625"/><stop stop-opacity="1" stop-color="rgb(93.821716%, 79.995728%, 35.772705%)" offset="0.0195312"/><stop stop-opacity="1" stop-color="rgb(93.84613%, 80.075073%, 36.027527%)" offset="0.0234375"/><stop stop-opacity="1" stop-color="rgb(93.870544%, 80.154419%, 36.282349%)" offset="0.0273437"/><stop stop-opacity="1" stop-color="rgb(93.894958%, 80.233765%, 36.53717%)" offset="0.03125"/><stop stop-opacity="1" stop-color="rgb(93.919373%, 80.31311%, 36.790466%)" offset="0.0351563"/><stop stop-opacity="1" stop-color="rgb(93.943787%, 80.392456%, 37.045288%)" offset="0.0390625"/><stop stop-opacity="1" stop-color="rgb(93.968201%, 80.471802%, 37.30011%)" offset="0.0429687"/><stop stop-opacity="1" stop-color="rgb(93.992615%, 80.551147%, 37.554932%)" offset="0.046875"/><stop stop-opacity="1" stop-color="rgb(94.017029%, 80.630493%, 37.809753%)" offset="0.0507813"/><stop stop-opacity="1" stop-color="rgb(94.041443%, 80.709839%, 38.064575%)" offset="0.0546875"/><stop stop-opacity="1" stop-color="rgb(94.065857%, 80.789185%, 38.319397%)" offset="0.0585937"/><stop stop-opacity="1" stop-color="rgb(94.091797%, 80.86853%, 38.574219%)" offset="0.0625"/><stop stop-opacity="1" stop-color="rgb(94.116211%, 80.947876%, 38.829041%)" offset="0.0664062"/><stop stop-opacity="1" stop-color="rgb(94.140625%, 81.027222%, 39.083862%)" offset="0.0703125"/><stop stop-opacity="1" stop-color="rgb(94.165039%, 81.106567%, 39.338684%)" offset="0.0742187"/><stop stop-opacity="1" stop-color="rgb(94.189453%, 81.185913%, 39.593506%)" offset="0.078125"/><stop stop-opacity="1" stop-color="rgb(94.213867%, 81.265259%, 39.846802%)" offset="0.0820312"/><stop stop-opacity="1" stop-color="rgb(94.238281%, 81.344604%, 40.101624%)" offset="0.0859375"/><stop stop-opacity="1" stop-color="rgb(94.262695%, 81.42395%, 40.356445%)" offset="0.0898437"/><stop stop-opacity="1" stop-color="rgb(94.287109%, 81.503296%, 40.611267%)" offset="0.09375"/><stop stop-opacity="1" stop-color="rgb(94.311523%, 81.582642%, 40.866089%)" offset="0.0976562"/><stop stop-opacity="1" stop-color="rgb(94.335938%, 81.661987%, 41.120911%)" offset="0.101562"/><stop stop-opacity="1" stop-color="rgb(94.360352%, 81.741333%, 41.375732%)" offset="0.105469"/><stop stop-opacity="1" stop-color="rgb(94.384766%, 81.820679%, 41.630554%)" offset="0.109375"/><stop stop-opacity="1" stop-color="rgb(94.40918%, 81.900024%, 41.885376%)" offset="0.113281"/><stop stop-opacity="1" stop-color="rgb(94.433594%, 81.97937%, 42.140198%)" offset="0.117187"/><stop stop-opacity="1" stop-color="rgb(94.458008%, 82.058716%, 42.393494%)" offset="0.121094"/><stop stop-opacity="1" stop-color="rgb(94.482422%, 82.138062%, 42.648315%)" offset="0.125"/><stop stop-opacity="1" stop-color="rgb(94.506836%, 82.217407%, 42.903137%)" offset="0.128906"/><stop stop-opacity="1" stop-color="rgb(94.532776%, 82.296753%, 43.157959%)" offset="0.132812"/><stop stop-opacity="1" stop-color="rgb(94.55719%, 82.376099%, 43.412781%)" offset="0.136719"/><stop stop-opacity="1" stop-color="rgb(94.581604%, 82.455444%, 43.667603%)" offset="0.140625"/><stop stop-opacity="1" stop-color="rgb(94.606018%, 82.53479%, 43.922424%)" offset="0.144531"/><stop stop-opacity="1" stop-color="rgb(94.630432%, 82.614136%, 44.177246%)" offset="0.148437"/><stop stop-opacity="1" stop-color="rgb(94.654846%, 82.691956%, 44.432068%)" offset="0.152344"/><stop stop-opacity="1" stop-color="rgb(94.67926%, 82.771301%, 44.68689%)" offset="0.15625"/><stop stop-opacity="1" stop-color="rgb(94.703674%, 82.850647%, 44.941711%)" offset="0.160156"/><stop stop-opacity="1" stop-color="rgb(94.728088%, 82.929993%, 45.196533%)" offset="0.164062"/><stop stop-opacity="1" stop-color="rgb(94.752502%, 83.009338%, 45.449829%)" offset="0.167969"/><stop stop-opacity="1" stop-color="rgb(94.776917%, 83.088684%, 45.704651%)" offset="0.171875"/><stop stop-opacity="1" stop-color="rgb(94.801331%, 83.16803%, 45.959473%)" offset="0.175781"/><stop stop-opacity="1" stop-color="rgb(94.825745%, 83.247375%, 46.214294%)" offset="0.179687"/><stop stop-opacity="1" stop-color="rgb(94.850159%, 83.326721%, 46.469116%)" offset="0.183594"/><stop stop-opacity="1" stop-color="rgb(94.874573%, 83.406067%, 46.723938%)" offset="0.1875"/><stop stop-opacity="1" stop-color="rgb(94.898987%, 83.485413%, 46.97876%)" offset="0.191406"/><stop stop-opacity="1" stop-color="rgb(94.923401%, 83.564758%, 47.233582%)" offset="0.195312"/><stop stop-opacity="1" stop-color="rgb(94.947815%, 83.644104%, 47.488403%)" offset="0.199219"/><stop stop-opacity="1" stop-color="rgb(94.973755%, 83.72345%, 47.743225%)" offset="0.203125"/><stop stop-opacity="1" stop-color="rgb(94.998169%, 83.802795%, 47.996521%)" offset="0.207031"/><stop stop-opacity="1" stop-color="rgb(95.022583%, 83.882141%, 48.251343%)" offset="0.210937"/><stop stop-opacity="1" stop-color="rgb(95.046997%, 83.961487%, 48.506165%)" offset="0.214844"/><stop stop-opacity="1" stop-color="rgb(95.071411%, 84.040833%, 48.760986%)" offset="0.21875"/><stop stop-opacity="1" stop-color="rgb(95.095825%, 84.120178%, 49.015808%)" offset="0.222656"/><stop stop-opacity="1" stop-color="rgb(95.120239%, 84.199524%, 49.27063%)" offset="0.226562"/><stop stop-opacity="1" stop-color="rgb(95.144653%, 84.27887%, 49.525452%)" offset="0.230469"/><stop stop-opacity="1" stop-color="rgb(95.169067%, 84.358215%, 49.780273%)" offset="0.234375"/><stop stop-opacity="1" stop-color="rgb(95.193481%, 84.437561%, 50.035095%)" offset="0.238281"/><stop stop-opacity="1" stop-color="rgb(95.217896%, 84.516907%, 50.289917%)" offset="0.242187"/><stop stop-opacity="1" stop-color="rgb(95.24231%, 84.596252%, 50.543213%)" offset="0.246094"/><stop stop-opacity="1" stop-color="rgb(95.266724%, 84.675598%, 50.798035%)" offset="0.25"/><stop stop-opacity="1" stop-color="rgb(95.291138%, 84.754944%, 51.052856%)" offset="0.253906"/><stop stop-opacity="1" stop-color="rgb(95.315552%, 84.83429%, 51.307678%)" offset="0.257812"/><stop stop-opacity="1" stop-color="rgb(95.339966%, 84.913635%, 51.5625%)" offset="0.261719"/><stop stop-opacity="1" stop-color="rgb(95.36438%, 84.992981%, 51.817322%)" offset="0.265625"/><stop stop-opacity="1" stop-color="rgb(95.388794%, 85.072327%, 52.072144%)" offset="0.269531"/><stop stop-opacity="1" stop-color="rgb(95.413208%, 85.151672%, 52.326965%)" offset="0.273437"/><stop stop-opacity="1" stop-color="rgb(95.437622%, 85.231018%, 52.581787%)" offset="0.277344"/><stop stop-opacity="1" stop-color="rgb(95.463562%, 85.310364%, 52.836609%)" offset="0.28125"/><stop stop-opacity="1" stop-color="rgb(95.487976%, 85.389709%, 53.091431%)" offset="0.285156"/><stop stop-opacity="1" stop-color="rgb(95.51239%, 85.469055%, 53.346252%)" offset="0.289062"/><stop stop-opacity="1" stop-color="rgb(95.536804%, 85.548401%, 53.599548%)" offset="0.292969"/><stop stop-opacity="1" stop-color="rgb(95.561218%, 85.627747%, 53.85437%)" offset="0.296875"/><stop stop-opacity="1" stop-color="rgb(95.585632%, 85.707092%, 54.109192%)" offset="0.300781"/><stop stop-opacity="1" stop-color="rgb(95.610046%, 85.786438%, 54.364014%)" offset="0.304687"/><stop stop-opacity="1" stop-color="rgb(95.63446%, 85.865784%, 54.618835%)" offset="0.308594"/><stop stop-opacity="1" stop-color="rgb(95.658875%, 85.945129%, 54.873657%)" offset="0.3125"/><stop stop-opacity="1" stop-color="rgb(95.683289%, 86.024475%, 55.128479%)" offset="0.316406"/><stop stop-opacity="1" stop-color="rgb(95.707703%, 86.103821%, 55.383301%)" offset="0.320312"/><stop stop-opacity="1" stop-color="rgb(95.732117%, 86.183167%, 55.638123%)" offset="0.324219"/><stop stop-opacity="1" stop-color="rgb(95.756531%, 86.262512%, 55.892944%)" offset="0.328125"/><stop stop-opacity="1" stop-color="rgb(95.780945%, 86.341858%, 56.14624%)" offset="0.332031"/><stop stop-opacity="1" stop-color="rgb(95.805359%, 86.421204%, 56.401062%)" offset="0.335937"/><stop stop-opacity="1" stop-color="rgb(95.829773%, 86.500549%, 56.655884%)" offset="0.339844"/><stop stop-opacity="1" stop-color="rgb(95.854187%, 86.579895%, 56.910706%)" offset="0.34375"/><stop stop-opacity="1" stop-color="rgb(95.878601%, 86.659241%, 57.165527%)" offset="0.347656"/><stop stop-opacity="1" stop-color="rgb(95.904541%, 86.738586%, 57.420349%)" offset="0.351562"/><stop stop-opacity="1" stop-color="rgb(95.928955%, 86.817932%, 57.675171%)" offset="0.355469"/><stop stop-opacity="1" stop-color="rgb(95.953369%, 86.897278%, 57.929993%)" offset="0.359375"/><stop stop-opacity="1" stop-color="rgb(95.977783%, 86.976624%, 58.184814%)" offset="0.363281"/><stop stop-opacity="1" stop-color="rgb(96.002197%, 87.055969%, 58.439636%)" offset="0.367188"/><stop stop-opacity="1" stop-color="rgb(96.026611%, 87.135315%, 58.694458%)" offset="0.371094"/><stop stop-opacity="1" stop-color="rgb(96.051025%, 87.214661%, 58.94928%)" offset="0.375"/><stop stop-opacity="1" stop-color="rgb(96.075439%, 87.294006%, 59.202576%)" offset="0.378906"/><stop stop-opacity="1" stop-color="rgb(96.099854%, 87.373352%, 59.457397%)" offset="0.382812"/><stop stop-opacity="1" stop-color="rgb(96.124268%, 87.451172%, 59.712219%)" offset="0.386719"/><stop stop-opacity="1" stop-color="rgb(96.148682%, 87.530518%, 59.967041%)" offset="0.390625"/><stop stop-opacity="1" stop-color="rgb(96.173096%, 87.609863%, 60.221863%)" offset="0.394531"/><stop stop-opacity="1" stop-color="rgb(96.19751%, 87.689209%, 60.476685%)" offset="0.398437"/><stop stop-opacity="1" stop-color="rgb(96.221924%, 87.768555%, 60.731506%)" offset="0.402344"/><stop stop-opacity="1" stop-color="rgb(96.246338%, 87.8479%, 60.986328%)" offset="0.40625"/><stop stop-opacity="1" stop-color="rgb(96.270752%, 87.927246%, 61.24115%)" offset="0.410156"/><stop stop-opacity="1" stop-color="rgb(96.295166%, 88.006592%, 61.495972%)" offset="0.414062"/><stop stop-opacity="1" stop-color="rgb(96.31958%, 88.085938%, 61.749268%)" offset="0.417969"/><stop stop-opacity="1" stop-color="rgb(96.34552%, 88.165283%, 62.004089%)" offset="0.421875"/><stop stop-opacity="1" stop-color="rgb(96.369934%, 88.244629%, 62.258911%)" offset="0.425781"/><stop stop-opacity="1" stop-color="rgb(96.394348%, 88.323975%, 62.513733%)" offset="0.429687"/><stop stop-opacity="1" stop-color="rgb(96.418762%, 88.40332%, 62.768555%)" offset="0.433594"/><stop stop-opacity="1" stop-color="rgb(96.443176%, 88.482666%, 63.023376%)" offset="0.4375"/><stop stop-opacity="1" stop-color="rgb(96.46759%, 88.562012%, 63.278198%)" offset="0.441406"/><stop stop-opacity="1" stop-color="rgb(96.492004%, 88.641357%, 63.53302%)" offset="0.445312"/><stop stop-opacity="1" stop-color="rgb(96.516418%, 88.720703%, 63.787842%)" offset="0.449219"/><stop stop-opacity="1" stop-color="rgb(96.540833%, 88.800049%, 64.042664%)" offset="0.453125"/><stop stop-opacity="1" stop-color="rgb(96.565247%, 88.879395%, 64.295959%)" offset="0.457031"/><stop stop-opacity="1" stop-color="rgb(96.589661%, 88.95874%, 64.550781%)" offset="0.460937"/><stop stop-opacity="1" stop-color="rgb(96.614075%, 89.038086%, 64.805603%)" offset="0.464844"/><stop stop-opacity="1" stop-color="rgb(96.638489%, 89.117432%, 65.060425%)" offset="0.46875"/><stop stop-opacity="1" stop-color="rgb(96.662903%, 89.196777%, 65.315247%)" offset="0.472656"/><stop stop-opacity="1" stop-color="rgb(96.687317%, 89.276123%, 65.570068%)" offset="0.476562"/><stop stop-opacity="1" stop-color="rgb(96.711731%, 89.355469%, 65.82489%)" offset="0.480469"/><stop stop-opacity="1" stop-color="rgb(96.736145%, 89.434814%, 66.079712%)" offset="0.484375"/><stop stop-opacity="1" stop-color="rgb(96.760559%, 89.51416%, 66.334534%)" offset="0.488281"/><stop stop-opacity="1" stop-color="rgb(96.784973%, 89.593506%, 66.589355%)" offset="0.492188"/><stop stop-opacity="1" stop-color="rgb(96.809387%, 89.672852%, 66.844177%)" offset="0.496094"/><stop stop-opacity="1" stop-color="rgb(96.835327%, 89.752197%, 67.098999%)" offset="0.5"/><stop stop-opacity="1" stop-color="rgb(96.859741%, 89.831543%, 67.352295%)" offset="0.503906"/><stop stop-opacity="1" stop-color="rgb(96.884155%, 89.910889%, 67.607117%)" offset="0.507812"/><stop stop-opacity="1" stop-color="rgb(96.908569%, 89.990234%, 67.861938%)" offset="0.511719"/><stop stop-opacity="1" stop-color="rgb(96.932983%, 90.06958%, 68.11676%)" offset="0.515625"/><stop stop-opacity="1" stop-color="rgb(96.957397%, 90.148926%, 68.371582%)" offset="0.519531"/><stop stop-opacity="1" stop-color="rgb(96.981812%, 90.228271%, 68.626404%)" offset="0.523437"/><stop stop-opacity="1" stop-color="rgb(97.006226%, 90.307617%, 68.881226%)" offset="0.527344"/><stop stop-opacity="1" stop-color="rgb(97.03064%, 90.386963%, 69.136047%)" offset="0.53125"/><stop stop-opacity="1" stop-color="rgb(97.055054%, 90.466309%, 69.390869%)" offset="0.535156"/><stop stop-opacity="1" stop-color="rgb(97.079468%, 90.545654%, 69.645691%)" offset="0.539062"/><stop stop-opacity="1" stop-color="rgb(97.103882%, 90.625%, 69.898987%)" offset="0.542969"/><stop stop-opacity="1" stop-color="rgb(97.128296%, 90.704346%, 70.153809%)" offset="0.546875"/><stop stop-opacity="1" stop-color="rgb(97.15271%, 90.783691%, 70.40863%)" offset="0.550781"/><stop stop-opacity="1" stop-color="rgb(97.177124%, 90.863037%, 70.663452%)" offset="0.554688"/><stop stop-opacity="1" stop-color="rgb(97.201538%, 90.942383%, 70.918274%)" offset="0.558594"/><stop stop-opacity="1" stop-color="rgb(97.225952%, 91.021729%, 71.173096%)" offset="0.5625"/><stop stop-opacity="1" stop-color="rgb(97.250366%, 91.101074%, 71.427917%)" offset="0.566406"/><stop stop-opacity="1" stop-color="rgb(97.276306%, 91.18042%, 71.682739%)" offset="0.570312"/><stop stop-opacity="1" stop-color="rgb(97.30072%, 91.259766%, 71.937561%)" offset="0.574219"/><stop stop-opacity="1" stop-color="rgb(97.325134%, 91.339111%, 72.192383%)" offset="0.578125"/><stop stop-opacity="1" stop-color="rgb(97.349548%, 91.418457%, 72.447205%)" offset="0.582031"/><stop stop-opacity="1" stop-color="rgb(97.373962%, 91.497803%, 72.702026%)" offset="0.585938"/><stop stop-opacity="1" stop-color="rgb(97.398376%, 91.577148%, 72.955322%)" offset="0.589844"/><stop stop-opacity="1" stop-color="rgb(97.422791%, 91.656494%, 73.210144%)" offset="0.59375"/><stop stop-opacity="1" stop-color="rgb(97.447205%, 91.73584%, 73.464966%)" offset="0.597656"/><stop stop-opacity="1" stop-color="rgb(97.471619%, 91.815186%, 73.719788%)" offset="0.601562"/><stop stop-opacity="1" stop-color="rgb(97.496033%, 91.894531%, 73.974609%)" offset="0.605469"/><stop stop-opacity="1" stop-color="rgb(97.520447%, 91.973877%, 74.229431%)" offset="0.609375"/><stop stop-opacity="1" stop-color="rgb(97.544861%, 92.053223%, 74.484253%)" offset="0.613281"/><stop stop-opacity="1" stop-color="rgb(97.569275%, 92.132568%, 74.739075%)" offset="0.617187"/><stop stop-opacity="1" stop-color="rgb(97.593689%, 92.210388%, 74.993896%)" offset="0.621094"/><stop stop-opacity="1" stop-color="rgb(97.618103%, 92.289734%, 75.248718%)" offset="0.625"/><stop stop-opacity="1" stop-color="rgb(97.642517%, 92.36908%, 75.502014%)" offset="0.628906"/><stop stop-opacity="1" stop-color="rgb(97.666931%, 92.448425%, 75.756836%)" offset="0.632813"/><stop stop-opacity="1" stop-color="rgb(97.691345%, 92.527771%, 76.011658%)" offset="0.636719"/><stop stop-opacity="1" stop-color="rgb(97.717285%, 92.607117%, 76.266479%)" offset="0.640625"/><stop stop-opacity="1" stop-color="rgb(97.741699%, 92.686462%, 76.521301%)" offset="0.644531"/><stop stop-opacity="1" stop-color="rgb(97.766113%, 92.765808%, 76.776123%)" offset="0.648438"/><stop stop-opacity="1" stop-color="rgb(97.790527%, 92.845154%, 77.030945%)" offset="0.652344"/><stop stop-opacity="1" stop-color="rgb(97.814941%, 92.9245%, 77.285767%)" offset="0.65625"/><stop stop-opacity="1" stop-color="rgb(97.839355%, 93.003845%, 77.540588%)" offset="0.660156"/><stop stop-opacity="1" stop-color="rgb(97.86377%, 93.083191%, 77.79541%)" offset="0.664062"/><stop stop-opacity="1" stop-color="rgb(97.888184%, 93.162537%, 78.048706%)" offset="0.667969"/><stop stop-opacity="1" stop-color="rgb(97.912598%, 93.241882%, 78.303528%)" offset="0.671875"/><stop stop-opacity="1" stop-color="rgb(97.937012%, 93.321228%, 78.55835%)" offset="0.675781"/><stop stop-opacity="1" stop-color="rgb(97.961426%, 93.400574%, 78.813171%)" offset="0.679688"/><stop stop-opacity="1" stop-color="rgb(97.98584%, 93.479919%, 79.067993%)" offset="0.683594"/><stop stop-opacity="1" stop-color="rgb(98.010254%, 93.559265%, 79.322815%)" offset="0.6875"/><stop stop-opacity="1" stop-color="rgb(98.034668%, 93.638611%, 79.577637%)" offset="0.691406"/><stop stop-opacity="1" stop-color="rgb(98.059082%, 93.717957%, 79.832458%)" offset="0.695312"/><stop stop-opacity="1" stop-color="rgb(98.083496%, 93.797302%, 80.08728%)" offset="0.699219"/><stop stop-opacity="1" stop-color="rgb(98.10791%, 93.876648%, 80.342102%)" offset="0.703125"/><stop stop-opacity="1" stop-color="rgb(98.132324%, 93.955994%, 80.596924%)" offset="0.707031"/><stop stop-opacity="1" stop-color="rgb(98.158264%, 94.035339%, 80.851746%)" offset="0.710938"/><stop stop-opacity="1" stop-color="rgb(98.182678%, 94.114685%, 81.105042%)" offset="0.714844"/><stop stop-opacity="1" stop-color="rgb(98.207092%, 94.194031%, 81.359863%)" offset="0.71875"/><stop stop-opacity="1" stop-color="rgb(98.231506%, 94.273376%, 81.614685%)" offset="0.722656"/><stop stop-opacity="1" stop-color="rgb(98.25592%, 94.352722%, 81.869507%)" offset="0.726563"/><stop stop-opacity="1" stop-color="rgb(98.280334%, 94.432068%, 82.124329%)" offset="0.730469"/><stop stop-opacity="1" stop-color="rgb(98.304749%, 94.511414%, 82.37915%)" offset="0.734375"/><stop stop-opacity="1" stop-color="rgb(98.329163%, 94.590759%, 82.633972%)" offset="0.738281"/><stop stop-opacity="1" stop-color="rgb(98.353577%, 94.670105%, 82.888794%)" offset="0.742188"/><stop stop-opacity="1" stop-color="rgb(98.377991%, 94.749451%, 83.143616%)" offset="0.746094"/><stop stop-opacity="1" stop-color="rgb(98.402405%, 94.828796%, 83.398438%)" offset="0.75"/><stop stop-opacity="1" stop-color="rgb(98.426819%, 94.908142%, 83.651733%)" offset="0.753906"/><stop stop-opacity="1" stop-color="rgb(98.451233%, 94.987488%, 83.906555%)" offset="0.757812"/><stop stop-opacity="1" stop-color="rgb(98.475647%, 95.066833%, 84.161377%)" offset="0.761719"/><stop stop-opacity="1" stop-color="rgb(98.500061%, 95.146179%, 84.416199%)" offset="0.765625"/><stop stop-opacity="1" stop-color="rgb(98.524475%, 95.225525%, 84.671021%)" offset="0.769531"/><stop stop-opacity="1" stop-color="rgb(98.548889%, 95.304871%, 84.925842%)" offset="0.773437"/><stop stop-opacity="1" stop-color="rgb(98.573303%, 95.384216%, 85.180664%)" offset="0.777344"/><stop stop-opacity="1" stop-color="rgb(98.597717%, 95.463562%, 85.435486%)" offset="0.78125"/><stop stop-opacity="1" stop-color="rgb(98.622131%, 95.542908%, 85.690308%)" offset="0.785156"/><stop stop-opacity="1" stop-color="rgb(98.648071%, 95.622253%, 85.945129%)" offset="0.789062"/><stop stop-opacity="1" stop-color="rgb(98.672485%, 95.701599%, 86.199951%)" offset="0.792969"/><stop stop-opacity="1" stop-color="rgb(98.696899%, 95.780945%, 86.454773%)" offset="0.796875"/><stop stop-opacity="1" stop-color="rgb(98.721313%, 95.860291%, 86.708069%)" offset="0.800781"/><stop stop-opacity="1" stop-color="rgb(98.745728%, 95.939636%, 86.962891%)" offset="0.804688"/><stop stop-opacity="1" stop-color="rgb(98.770142%, 96.018982%, 87.217712%)" offset="0.808594"/><stop stop-opacity="1" stop-color="rgb(98.794556%, 96.098328%, 87.472534%)" offset="0.8125"/><stop stop-opacity="1" stop-color="rgb(98.81897%, 96.177673%, 87.727356%)" offset="0.816406"/><stop stop-opacity="1" stop-color="rgb(98.843384%, 96.257019%, 87.982178%)" offset="0.820312"/><stop stop-opacity="1" stop-color="rgb(98.867798%, 96.336365%, 88.237%)" offset="0.824219"/><stop stop-opacity="1" stop-color="rgb(98.892212%, 96.41571%, 88.491821%)" offset="0.828125"/><stop stop-opacity="1" stop-color="rgb(98.916626%, 96.495056%, 88.746643%)" offset="0.832031"/><stop stop-opacity="1" stop-color="rgb(98.94104%, 96.574402%, 89.001465%)" offset="0.835938"/><stop stop-opacity="1" stop-color="rgb(98.965454%, 96.653748%, 89.254761%)" offset="0.839844"/><stop stop-opacity="1" stop-color="rgb(98.989868%, 96.733093%, 89.509583%)" offset="0.84375"/><stop stop-opacity="1" stop-color="rgb(99.014282%, 96.812439%, 89.764404%)" offset="0.847656"/><stop stop-opacity="1" stop-color="rgb(99.038696%, 96.891785%, 90.019226%)" offset="0.851562"/><stop stop-opacity="1" stop-color="rgb(99.06311%, 96.969604%, 90.274048%)" offset="0.855469"/><stop stop-opacity="1" stop-color="rgb(99.08905%, 97.04895%, 90.52887%)" offset="0.859375"/><stop stop-opacity="1" stop-color="rgb(99.113464%, 97.128296%, 90.783691%)" offset="0.863281"/><stop stop-opacity="1" stop-color="rgb(99.137878%, 97.207642%, 91.038513%)" offset="0.867187"/><stop stop-opacity="1" stop-color="rgb(99.162292%, 97.286987%, 91.293335%)" offset="0.871094"/><stop stop-opacity="1" stop-color="rgb(99.186707%, 97.366333%, 91.548157%)" offset="0.875"/><stop stop-opacity="1" stop-color="rgb(99.211121%, 97.445679%, 91.801453%)" offset="0.878906"/><stop stop-opacity="1" stop-color="rgb(99.235535%, 97.525024%, 92.056274%)" offset="0.882813"/><stop stop-opacity="1" stop-color="rgb(99.259949%, 97.60437%, 92.311096%)" offset="0.886719"/><stop stop-opacity="1" stop-color="rgb(99.284363%, 97.683716%, 92.565918%)" offset="0.890625"/><stop stop-opacity="1" stop-color="rgb(99.308777%, 97.763062%, 92.82074%)" offset="0.894531"/><stop stop-opacity="1" stop-color="rgb(99.333191%, 97.842407%, 93.075562%)" offset="0.898438"/><stop stop-opacity="1" stop-color="rgb(99.357605%, 97.921753%, 93.330383%)" offset="0.902344"/><stop stop-opacity="1" stop-color="rgb(99.382019%, 98.001099%, 93.585205%)" offset="0.90625"/><stop stop-opacity="1" stop-color="rgb(99.406433%, 98.080444%, 93.840027%)" offset="0.910156"/><stop stop-opacity="1" stop-color="rgb(99.430847%, 98.15979%, 94.094849%)" offset="0.914062"/><stop stop-opacity="1" stop-color="rgb(99.455261%, 98.239136%, 94.34967%)" offset="0.917969"/><stop stop-opacity="1" stop-color="rgb(99.479675%, 98.318481%, 94.604492%)" offset="0.921875"/><stop stop-opacity="1" stop-color="rgb(99.504089%, 98.397827%, 94.857788%)" offset="0.925781"/><stop stop-opacity="1" stop-color="rgb(99.530029%, 98.477173%, 95.11261%)" offset="0.929688"/><stop stop-opacity="1" stop-color="rgb(99.554443%, 98.556519%, 95.367432%)" offset="0.933594"/><stop stop-opacity="1" stop-color="rgb(99.578857%, 98.635864%, 95.622253%)" offset="0.9375"/><stop stop-opacity="1" stop-color="rgb(99.603271%, 98.71521%, 95.877075%)" offset="0.941406"/><stop stop-opacity="1" stop-color="rgb(99.627686%, 98.794556%, 96.131897%)" offset="0.945312"/><stop stop-opacity="1" stop-color="rgb(99.6521%, 98.873901%, 96.386719%)" offset="0.949219"/><stop stop-opacity="1" stop-color="rgb(99.676514%, 98.953247%, 96.641541%)" offset="0.953125"/><stop stop-opacity="1" stop-color="rgb(99.700928%, 99.032593%, 96.896362%)" offset="0.957031"/><stop stop-opacity="1" stop-color="rgb(99.725342%, 99.111938%, 97.151184%)" offset="0.960938"/><stop stop-opacity="1" stop-color="rgb(99.749756%, 99.191284%, 97.40448%)" offset="0.964844"/><stop stop-opacity="1" stop-color="rgb(99.77417%, 99.27063%, 97.659302%)" offset="0.96875"/><stop stop-opacity="1" stop-color="rgb(99.798584%, 99.349976%, 97.914124%)" offset="0.972656"/><stop stop-opacity="1" stop-color="rgb(99.822998%, 99.429321%, 98.168945%)" offset="0.976563"/><stop stop-opacity="1" stop-color="rgb(99.847412%, 99.508667%, 98.423767%)" offset="0.980469"/><stop stop-opacity="1" stop-color="rgb(99.871826%, 99.588013%, 98.678589%)" offset="0.984375"/><stop stop-opacity="1" stop-color="rgb(99.89624%, 99.667358%, 98.933411%)" offset="0.988281"/><stop stop-opacity="1" stop-color="rgb(99.920654%, 99.746704%, 99.188232%)" offset="0.992188"/><stop stop-opacity="1" stop-color="rgb(99.945068%, 99.82605%, 99.443054%)" offset="0.996094"/><stop stop-opacity="1" stop-color="rgb(99.969482%, 99.905396%, 99.697876%)" offset="1"/></linearGradient></defs><g clip-path="url(#b03472aa5e)"><g clip-path="url(#1cd42d6562)"><path fill="url(#3e6a93661f)" d="M 24.964844 7 L 24.964844 47.214844 L 73.914062 47.214844 L 73.914062 7 Z M 24.964844 7 " fill-rule="nonzero"/></g></g><g fill="#ffffff" fill-opacity="1"><g transform="translate(18.662589, 60.790415)"><g><path d="M 0.703125 -2.484375 L 0.1875 -2.484375 L 0.1875 -3.25 L 0.703125 -3.25 L 0.703125 -5.625 L 2.8125 -5.625 C 3.351562 -5.625 3.832031 -5.507812 4.25 -5.28125 C 4.675781 -5.0625 5.003906 -4.738281 5.234375 -4.3125 C 5.472656 -3.894531 5.59375 -3.394531 5.59375 -2.8125 C 5.59375 -2.238281 5.472656 -1.738281 5.234375 -1.3125 C 5.003906 -0.882812 4.675781 -0.554688 4.25 -0.328125 C 3.832031 -0.109375 3.351562 0 2.8125 0 L 0.703125 0 Z M 2.8125 -0.984375 C 3.351562 -0.984375 3.765625 -1.144531 4.046875 -1.46875 C 4.328125 -1.789062 4.46875 -2.238281 4.46875 -2.8125 C 4.46875 -3.382812 4.328125 -3.832031 4.046875 -4.15625 C 3.765625 -4.476562 3.351562 -4.640625 2.8125 -4.640625 L 1.734375 -4.640625 L 1.734375 -3.25 L 2.71875 -3.25 L 2.71875 -2.484375 L 1.734375 -2.484375 L 1.734375 -0.984375 Z M 2.8125 -0.984375 "/></g></g></g><g fill="#ffffff" fill-opacity="1"><g transform="translate(24.542177, 60.790415)"><g><path d="M 2.296875 0.078125 C 1.867188 0.078125 1.5 -0.015625 1.1875 -0.203125 C 0.875 -0.390625 0.632812 -0.640625 0.46875 -0.953125 C 0.300781 -1.273438 0.21875 -1.625 0.21875 -2 C 0.21875 -2.382812 0.300781 -2.738281 0.46875 -3.0625 C 0.632812 -3.382812 0.875 -3.640625 1.1875 -3.828125 C 1.5 -4.015625 1.867188 -4.109375 2.296875 -4.109375 C 2.710938 -4.109375 3.078125 -4.015625 3.390625 -3.828125 C 3.703125 -3.640625 3.941406 -3.382812 4.109375 -3.0625 C 4.273438 -2.738281 4.359375 -2.382812 4.359375 -2 C 4.359375 -1.625 4.273438 -1.273438 4.109375 -0.953125 C 3.941406 -0.640625 3.703125 -0.390625 3.390625 -0.203125 C 3.078125 -0.015625 2.710938 0.078125 2.296875 0.078125 Z M 2.296875 -0.734375 C 2.617188 -0.734375 2.875 -0.847656 3.0625 -1.078125 C 3.25 -1.316406 3.34375 -1.625 3.34375 -2 C 3.34375 -2.382812 3.25 -2.691406 3.0625 -2.921875 C 2.875 -3.160156 2.617188 -3.28125 2.296875 -3.28125 C 1.960938 -3.28125 1.703125 -3.160156 1.515625 -2.921875 C 1.335938 -2.691406 1.25 -2.382812 1.25 -2 C 1.25 -1.625 1.335938 -1.316406 1.515625 -1.078125 C 1.703125 -0.847656 1.960938 -0.734375 2.296875 -0.734375 Z M 2.421875 -6.625 L 3.28125 -6.625 L 3.703125 -5.59375 L 3.078125 -5.59375 Z M 1.234375 -4.984375 L 2.296875 -5.71875 L 3.359375 -4.984375 L 3.359375 -4.390625 L 2.296875 -4.96875 L 1.234375 -4.390625 Z M 1.234375 -4.984375 "/></g></g></g><g fill="#ffffff" fill-opacity="1"><g transform="translate(29.126804, 60.790415)"><g/></g></g><g fill="#ffffff" fill-opacity="1"><g transform="translate(30.936522, 60.790415)"><g><path d="M 2.5 -4.09375 C 3.007812 -4.09375 3.382812 -3.925781 3.625 -3.59375 C 3.875 -3.257812 4 -2.804688 4 -2.234375 L 4 0 L 3.015625 0 L 3.015625 -2.171875 C 3.015625 -2.546875 2.953125 -2.820312 2.828125 -3 C 2.703125 -3.175781 2.503906 -3.265625 2.234375 -3.265625 C 1.921875 -3.265625 1.660156 -3.148438 1.453125 -2.921875 L 1.453125 0 L 0.453125 0 L 0.453125 -6.03125 L 1.453125 -6.03125 L 1.453125 -3.765625 C 1.617188 -3.867188 1.785156 -3.945312 1.953125 -4 C 2.117188 -4.0625 2.300781 -4.09375 2.5 -4.09375 Z M 2.5 -4.09375 "/></g></g></g><g fill="#ffffff" fill-opacity="1"><g transform="translate(35.368327, 60.790415)"><g><path d="M 2.296875 0.078125 C 1.867188 0.078125 1.5 -0.015625 1.1875 -0.203125 C 0.875 -0.390625 0.632812 -0.640625 0.46875 -0.953125 C 0.300781 -1.273438 0.21875 -1.625 0.21875 -2 C 0.21875 -2.382812 0.300781 -2.738281 0.46875 -3.0625 C 0.632812 -3.382812 0.875 -3.640625 1.1875 -3.828125 C 1.5 -4.015625 1.867188 -4.109375 2.296875 -4.109375 C 2.710938 -4.109375 3.078125 -4.015625 3.390625 -3.828125 C 3.703125 -3.640625 3.941406 -3.382812 4.109375 -3.0625 C 4.273438 -2.738281 4.359375 -2.382812 4.359375 -2 C 4.359375 -1.625 4.273438 -1.273438 4.109375 -0.953125 C 3.941406 -0.640625 3.703125 -0.390625 3.390625 -0.203125 C 3.078125 -0.015625 2.710938 0.078125 2.296875 0.078125 Z M 2.296875 -0.734375 C 2.617188 -0.734375 2.875 -0.847656 3.0625 -1.078125 C 3.25 -1.316406 3.34375 -1.625 3.34375 -2 C 3.34375 -2.382812 3.25 -2.691406 3.0625 -2.921875 C 2.875 -3.160156 2.617188 -3.28125 2.296875 -3.28125 C 1.960938 -3.28125 1.703125 -3.160156 1.515625 -2.921875 C 1.335938 -2.691406 1.25 -2.382812 1.25 -2 C 1.25 -1.625 1.335938 -1.316406 1.515625 -1.078125 C 1.703125 -0.847656 1.960938 -0.734375 2.296875 -0.734375 Z M 1.875 0.65625 L 2.71875 0.65625 L 2.71875 1.4375 L 1.875 1.4375 Z M 1.875 0.65625 "/></g></g></g><g fill="#ffffff" fill-opacity="1"><g transform="translate(39.952954, 60.790415)"><g><path d="M 1.328125 0.078125 C 1.003906 0.078125 0.726562 -0.03125 0.5 -0.25 C 0.28125 -0.46875 0.171875 -0.757812 0.171875 -1.125 C 0.171875 -1.476562 0.296875 -1.757812 0.546875 -1.96875 C 0.796875 -2.175781 1.09375 -2.320312 1.4375 -2.40625 C 1.78125 -2.5 2.113281 -2.550781 2.4375 -2.5625 C 2.414062 -2.800781 2.347656 -2.972656 2.234375 -3.078125 C 2.128906 -3.179688 1.953125 -3.234375 1.703125 -3.234375 C 1.523438 -3.234375 1.351562 -3.207031 1.1875 -3.15625 C 1.019531 -3.101562 0.828125 -3.023438 0.609375 -2.921875 L 0.515625 -3.734375 C 1.003906 -3.972656 1.492188 -4.09375 1.984375 -4.09375 C 2.453125 -4.09375 2.8125 -3.960938 3.0625 -3.703125 C 3.3125 -3.441406 3.4375 -3.03125 3.4375 -2.46875 L 3.4375 -1.390625 C 3.4375 -1.179688 3.445312 -1.03125 3.46875 -0.9375 C 3.488281 -0.851562 3.519531 -0.796875 3.5625 -0.765625 C 3.601562 -0.742188 3.679688 -0.734375 3.796875 -0.734375 L 3.921875 -0.734375 L 3.828125 0.078125 L 3.46875 0.078125 C 3.25 0.078125 3.0625 0.0351562 2.90625 -0.046875 C 2.757812 -0.128906 2.644531 -0.242188 2.5625 -0.390625 C 2.4375 -0.242188 2.257812 -0.128906 2.03125 -0.046875 C 1.8125 0.0351562 1.578125 0.078125 1.328125 0.078125 Z M 1.75 -0.6875 C 1.851562 -0.6875 1.96875 -0.710938 2.09375 -0.765625 C 2.226562 -0.816406 2.34375 -0.882812 2.4375 -0.96875 L 2.4375 -1.890625 C 2.113281 -1.867188 1.828125 -1.796875 1.578125 -1.671875 C 1.335938 -1.554688 1.21875 -1.390625 1.21875 -1.171875 C 1.21875 -1.003906 1.257812 -0.878906 1.34375 -0.796875 C 1.425781 -0.722656 1.5625 -0.6875 1.75 -0.6875 Z M 1.75 -0.6875 "/></g></g></g><g fill="#ffffff" fill-opacity="1"><g transform="translate(43.958468, 60.790415)"><g/></g></g><g fill="#ffffff" fill-opacity="1"><g transform="translate(45.768186, 60.790415)"><g><path d="M 2.125 0.1875 C 1.707031 0.1875 1.359375 0.117188 1.078125 -0.015625 C 0.804688 -0.160156 0.597656 -0.347656 0.453125 -0.578125 C 0.316406 -0.816406 0.25 -1.078125 0.25 -1.359375 C 0.25 -1.691406 0.335938 -1.984375 0.515625 -2.234375 C 0.691406 -2.484375 0.929688 -2.722656 1.234375 -2.953125 C 0.835938 -3.453125 0.640625 -3.910156 0.640625 -4.328125 C 0.640625 -4.597656 0.707031 -4.832031 0.84375 -5.03125 C 0.988281 -5.226562 1.179688 -5.378906 1.421875 -5.484375 C 1.660156 -5.597656 1.921875 -5.65625 2.203125 -5.65625 C 2.617188 -5.65625 2.945312 -5.546875 3.1875 -5.328125 C 3.425781 -5.117188 3.546875 -4.84375 3.546875 -4.5 C 3.546875 -4.28125 3.492188 -4.082031 3.390625 -3.90625 C 3.296875 -3.726562 3.171875 -3.578125 3.015625 -3.453125 C 2.867188 -3.328125 2.664062 -3.171875 2.40625 -2.984375 L 3.53125 -1.703125 C 3.570312 -1.921875 3.59375 -2.15625 3.59375 -2.40625 C 3.601562 -2.65625 3.609375 -2.796875 3.609375 -2.828125 L 4.578125 -2.828125 C 4.578125 -2.085938 4.441406 -1.46875 4.171875 -0.96875 L 5.015625 0 L 3.859375 0 L 3.609375 -0.28125 C 3.222656 0.03125 2.726562 0.1875 2.125 0.1875 Z M 1.984375 -3.46875 C 2.203125 -3.625 2.367188 -3.773438 2.484375 -3.921875 C 2.609375 -4.066406 2.671875 -4.222656 2.671875 -4.390625 C 2.671875 -4.546875 2.625 -4.660156 2.53125 -4.734375 C 2.445312 -4.816406 2.332031 -4.859375 2.1875 -4.859375 C 2.019531 -4.859375 1.882812 -4.804688 1.78125 -4.703125 C 1.675781 -4.609375 1.625 -4.46875 1.625 -4.28125 C 1.625 -4.15625 1.648438 -4.03125 1.703125 -3.90625 C 1.765625 -3.78125 1.859375 -3.632812 1.984375 -3.46875 Z M 2.265625 -0.578125 C 2.617188 -0.578125 2.898438 -0.664062 3.109375 -0.84375 L 1.71875 -2.40625 C 1.4375 -2.113281 1.296875 -1.789062 1.296875 -1.4375 C 1.296875 -1.1875 1.367188 -0.976562 1.515625 -0.8125 C 1.660156 -0.65625 1.910156 -0.578125 2.265625 -0.578125 Z M 2.265625 -0.578125 "/></g></g></g><g fill="#ffffff" fill-opacity="1"><g transform="translate(50.811278, 60.790415)"><g/></g></g><g fill="#ffffff" fill-opacity="1"><g transform="translate(52.620996, 60.790415)"><g><path d="M 1.71875 -4.640625 L 0.125 -4.640625 L 0.125 -5.625 L 4.34375 -5.625 L 4.34375 -4.640625 L 2.75 -4.640625 L 2.75 0 L 1.71875 0 Z M 1.71875 -4.640625 "/></g></g></g><g fill="#ffffff" fill-opacity="1"><g transform="translate(57.076936, 60.790415)"><g><path d="M 2.5 -4.09375 C 3.007812 -4.09375 3.382812 -3.925781 3.625 -3.59375 C 3.875 -3.257812 4 -2.804688 4 -2.234375 L 4 0 L 3.015625 0 L 3.015625 -2.171875 C 3.015625 -2.546875 2.953125 -2.820312 2.828125 -3 C 2.703125 -3.175781 2.503906 -3.265625 2.234375 -3.265625 C 1.921875 -3.265625 1.660156 -3.148438 1.453125 -2.921875 L 1.453125 0 L 0.453125 0 L 0.453125 -6.03125 L 1.453125 -6.03125 L 1.453125 -3.765625 C 1.617188 -3.867188 1.785156 -3.945312 1.953125 -4 C 2.117188 -4.0625 2.300781 -4.09375 2.5 -4.09375 Z M 2.5 -4.09375 "/></g></g></g><g fill="#ffffff" fill-opacity="1"><g transform="translate(61.508742, 60.790415)"><g><path d="M 0.46875 -5.625 L 1.46875 -5.625 L 1.46875 -4.640625 L 0.46875 -4.640625 Z M 0.46875 -4.015625 L 1.46875 -4.015625 L 1.46875 0 L 0.46875 0 Z M 0.46875 -4.015625 "/></g></g></g><g fill="#ffffff" fill-opacity="1"><g transform="translate(63.439116, 60.790415)"><g><path d="M 2.40625 0.078125 C 1.9375 0.078125 1.535156 -0.015625 1.203125 -0.203125 C 0.878906 -0.390625 0.632812 -0.644531 0.46875 -0.96875 C 0.300781 -1.289062 0.21875 -1.644531 0.21875 -2.03125 C 0.21875 -2.40625 0.296875 -2.75 0.453125 -3.0625 C 0.609375 -3.375 0.832031 -3.625 1.125 -3.8125 C 1.425781 -4 1.78125 -4.09375 2.1875 -4.09375 C 2.5625 -4.09375 2.878906 -4.015625 3.140625 -3.859375 C 3.398438 -3.703125 3.59375 -3.488281 3.71875 -3.21875 C 3.851562 -2.957031 3.921875 -2.664062 3.921875 -2.34375 C 3.921875 -2.175781 3.898438 -1.992188 3.859375 -1.796875 L 1.265625 -1.796875 C 1.316406 -1.441406 1.453125 -1.175781 1.671875 -1 C 1.898438 -0.820312 2.175781 -0.734375 2.5 -0.734375 C 2.925781 -0.734375 3.328125 -0.84375 3.703125 -1.0625 L 3.75 -0.21875 C 3.582031 -0.132812 3.382812 -0.0625 3.15625 0 C 2.925781 0.0507812 2.675781 0.078125 2.40625 0.078125 Z M 2.90625 -2.46875 C 2.90625 -2.675781 2.847656 -2.859375 2.734375 -3.015625 C 2.617188 -3.179688 2.4375 -3.265625 2.1875 -3.265625 C 1.9375 -3.265625 1.738281 -3.191406 1.59375 -3.046875 C 1.445312 -2.898438 1.34375 -2.707031 1.28125 -2.46875 Z M 3.40625 -6.625 L 4.328125 -6.625 L 3.515625 -5.59375 L 2.875 -5.59375 Z M 1.203125 -4.984375 L 2.265625 -5.71875 L 3.328125 -4.984375 L 3.328125 -4.390625 L 2.265625 -4.96875 L 1.203125 -4.390625 Z M 1.203125 -4.984375 "/></g></g></g><g fill="#ffffff" fill-opacity="1"><g transform="translate(67.581365, 60.790415)"><g><path d="M 1.78125 0.078125 C 1.425781 0.078125 1.15625 -0.0234375 0.96875 -0.234375 C 0.789062 -0.441406 0.703125 -0.6875 0.703125 -0.96875 L 0.703125 -3.203125 L 0.125 -3.203125 L 0.21875 -4.015625 L 0.703125 -4.015625 L 0.703125 -4.90625 L 1.703125 -5.015625 L 1.703125 -4.015625 L 2.578125 -4.015625 L 2.578125 -3.203125 L 1.703125 -3.203125 L 1.703125 -1.390625 C 1.703125 -1.171875 1.710938 -1.019531 1.734375 -0.9375 C 1.753906 -0.851562 1.800781 -0.796875 1.875 -0.765625 C 1.957031 -0.742188 2.101562 -0.734375 2.3125 -0.734375 L 2.578125 -0.734375 L 2.5 0.078125 Z M 1.78125 0.078125 "/></g></g></g><g fill="#ffffff" fill-opacity="1"><g transform="translate(70.348226, 60.790415)"><g/></g></g><g fill="#ffffff" fill-opacity="1"><g transform="translate(72.157944, 60.790415)"><g><path d="M 0.453125 -6.03125 L 1.453125 -6.03125 L 1.453125 -2.375 L 2.703125 -4.015625 L 3.828125 -4.015625 L 2.359375 -2.09375 L 3.859375 0 L 2.734375 0 L 1.453125 -1.78125 L 1.453125 0 L 0.453125 0 Z M 0.453125 -6.03125 "/></g></g></g><g fill="#ffffff" fill-opacity="1"><g transform="translate(76.058897, 60.790415)"><g><path d="M 2.40625 0.078125 C 1.9375 0.078125 1.535156 -0.015625 1.203125 -0.203125 C 0.878906 -0.390625 0.632812 -0.644531 0.46875 -0.96875 C 0.300781 -1.289062 0.21875 -1.644531 0.21875 -2.03125 C 0.21875 -2.40625 0.296875 -2.75 0.453125 -3.0625 C 0.609375 -3.375 0.832031 -3.625 1.125 -3.8125 C 1.425781 -4 1.78125 -4.09375 2.1875 -4.09375 C 2.5625 -4.09375 2.878906 -4.015625 3.140625 -3.859375 C 3.398438 -3.703125 3.59375 -3.488281 3.71875 -3.21875 C 3.851562 -2.957031 3.921875 -2.664062 3.921875 -2.34375 C 3.921875 -2.175781 3.898438 -1.992188 3.859375 -1.796875 L 1.265625 -1.796875 C 1.316406 -1.441406 1.453125 -1.175781 1.671875 -1 C 1.898438 -0.820312 2.175781 -0.734375 2.5 -0.734375 C 2.925781 -0.734375 3.328125 -0.84375 3.703125 -1.0625 L 3.75 -0.21875 C 3.582031 -0.132812 3.382812 -0.0625 3.15625 0 C 2.925781 0.0507812 2.675781 0.078125 2.40625 0.078125 Z M 2.90625 -2.46875 C 2.90625 -2.675781 2.847656 -2.859375 2.734375 -3.015625 C 2.617188 -3.179688 2.4375 -3.265625 2.1875 -3.265625 C 1.9375 -3.265625 1.738281 -3.191406 1.59375 -3.046875 C 1.445312 -2.898438 1.34375 -2.707031 1.28125 -2.46875 Z M 3.40625 -6.625 L 4.328125 -6.625 L 3.515625 -5.59375 L 2.875 -5.59375 Z M 1.203125 -4.984375 L 2.265625 -5.71875 L 3.328125 -4.984375 L 3.328125 -4.390625 L 2.265625 -4.96875 L 1.203125 -4.390625 Z M 1.203125 -4.984375 "/></g></g></g></svg>