<svg xmlns="http://www.w3.org/2000/svg" xmlns:xlink="http://www.w3.org/1999/xlink" width="132" zoomAndPan="magnify" viewBox="0 0 98.88 70.499998" height="94" preserveAspectRatio="xMidYMid meet" version="1.0"><defs><g/><clipPath id="d59a33d87d"><path d="M 18.820312 7 L 79.886719 7 L 79.886719 45.726562 L 18.820312 45.726562 Z M 18.820312 7 " clip-rule="nonzero"/></clipPath></defs><g clip-path="url(#d59a33d87d)"><path fill="#ffffff" d="M 56.816406 45.78125 C 56.910156 45.742188 58.714844 44.628906 64.214844 41.210938 C 64.902344 40.78125 66.097656 40.035156 66.867188 39.550781 C 68.351562 38.621094 72.914062 35.78125 77.171875 33.136719 C 78.589844 32.257812 79.792969 31.484375 79.84375 31.421875 C 79.984375 31.238281 79.953125 31.113281 79.691406 30.855469 C 79.480469 30.640625 79.390625 30.605469 78.902344 30.558594 C 77.953125 30.464844 78.058594 30.753906 77.957031 27.933594 C 77.90625 26.582031 77.847656 25.371094 77.828125 25.242188 C 77.796875 25.019531 77.816406 24.996094 78.3125 24.707031 C 78.6875 24.488281 78.839844 24.351562 78.878906 24.210938 C 78.976562 23.808594 78.671875 23.679688 75.183594 22.640625 C 71.679688 21.597656 67.683594 20.363281 67.625 20.300781 C 67.589844 20.265625 68.039062 19.582031 68.65625 18.730469 C 69.257812 17.902344 69.785156 17.160156 69.824219 17.082031 C 70.125 16.492188 70.199219 14.40625 69.96875 13.113281 C 69.746094 11.878906 69.230469 10.699219 68.6875 10.179688 L 68.476562 9.976562 L 65.425781 9.683594 C 63.746094 9.523438 61.496094 9.308594 60.421875 9.207031 C 59.351562 9.105469 57.824219 8.957031 57.035156 8.875 C 56.246094 8.792969 54.886719 8.660156 54.019531 8.574219 C 50.871094 8.277344 48.652344 8.066406 47.132812 7.917969 C 46.28125 7.835938 44.890625 7.703125 44.042969 7.625 C 41.699219 7.402344 39.648438 7.199219 38.667969 7.097656 C 38.179688 7.046875 37.664062 7.003906 37.515625 7 C 37.273438 6.996094 37.003906 7.203125 34.5 9.28125 C 32.988281 10.535156 31.398438 11.84375 30.972656 12.191406 C 27.960938 14.636719 24.042969 17.957031 23.941406 18.152344 C 23.804688 18.417969 23.847656 18.742188 24.039062 18.90625 C 24.28125 19.121094 24.507812 19.191406 25.214844 19.277344 L 25.929688 19.367188 L 25.992188 20.09375 C 26.027344 20.492188 26.027344 20.84375 25.992188 20.875 C 25.957031 20.90625 24.746094 21.332031 23.300781 21.820312 C 20.71875 22.6875 20.660156 22.710938 20.242188 23.074219 C 19.734375 23.515625 19.265625 24.332031 19.070312 25.113281 C 18.878906 25.867188 18.878906 28.683594 19.066406 29.550781 C 19.238281 30.339844 19.421875 30.832031 19.726562 31.292969 L 19.964844 31.660156 L 22.394531 32.585938 C 27.984375 34.714844 31.394531 36.011719 35.941406 37.738281 C 36.671875 38.015625 37.929688 38.492188 38.738281 38.800781 C 39.550781 39.109375 41.222656 39.746094 42.457031 40.214844 C 43.691406 40.683594 45.464844 41.363281 46.398438 41.730469 C 47.328125 42.09375 48.636719 42.601562 49.304688 42.851562 C 49.972656 43.105469 51.546875 43.699219 52.800781 44.171875 C 54.058594 44.644531 55.265625 45.144531 55.488281 45.277344 C 56.339844 45.792969 56.566406 45.878906 56.816406 45.78125 Z M 54.53125 43.988281 C 54.230469 43.871094 53.433594 43.5625 52.765625 43.308594 L 51.550781 42.84375 L 51.5 42.554688 C 51.398438 41.988281 51.433594 38.253906 51.546875 37.515625 C 51.703125 36.511719 52.074219 35.453125 52.277344 35.453125 C 52.328125 35.453125 52.699219 35.582031 53.101562 35.742188 C 53.503906 35.898438 54.410156 36.246094 55.113281 36.511719 C 55.816406 36.777344 56.410156 37.011719 56.429688 37.03125 C 56.449219 37.050781 56.347656 37.429688 56.203125 37.867188 C 55.523438 39.910156 55.269531 41.605469 55.414062 43.148438 C 55.457031 43.625 55.511719 44.042969 55.535156 44.078125 C 55.554688 44.113281 55.550781 44.179688 55.523438 44.222656 C 55.464844 44.320312 55.257812 44.269531 54.53125 43.988281 Z M 56.246094 43.867188 C 56.214844 43.753906 56.191406 42.984375 56.195312 42.152344 C 56.199219 40.78125 56.21875 40.574219 56.394531 39.867188 C 56.679688 38.714844 57.0625 37.597656 57.304688 37.210938 C 57.527344 36.84375 57.375 36.941406 61.894531 34.316406 C 62.605469 33.902344 63.316406 33.480469 63.480469 33.375 C 63.640625 33.269531 65.644531 32.09375 67.933594 30.757812 C 70.222656 29.425781 73.179688 27.699219 74.503906 26.925781 C 75.832031 26.148438 76.964844 25.515625 77.027344 25.515625 C 77.113281 25.515625 77.136719 25.628906 77.136719 26.085938 C 77.132812 26.398438 77.171875 27.648438 77.222656 28.859375 L 77.3125 31.058594 L 77.132812 31.203125 C 77.03125 31.285156 75.511719 32.242188 73.75 33.335938 C 71.988281 34.429688 69.636719 35.890625 68.523438 36.582031 C 67.410156 37.273438 65.519531 38.441406 64.324219 39.175781 C 61.644531 40.824219 58.796875 42.59375 57.476562 43.429688 C 56.929688 43.777344 56.441406 44.0625 56.394531 44.0625 C 56.34375 44.066406 56.277344 43.976562 56.246094 43.867188 Z M 61.933594 37.820312 C 64.875 36.324219 66.941406 35.203125 68.289062 34.371094 C 69.722656 33.488281 71.789062 32.070312 71.734375 32.015625 C 71.699219 31.980469 71.195312 32.277344 69.109375 33.550781 C 67.316406 34.648438 66.394531 35.164062 63.222656 36.855469 C 60.878906 38.101562 59.128906 39.078125 58.992188 39.214844 C 58.808594 39.390625 59.257812 39.179688 61.933594 37.820312 Z M 62.742188 38.976562 C 63.679688 38.488281 66.042969 36.980469 66.242188 36.742188 C 66.4375 36.503906 66.117188 36.648438 65.070312 37.269531 C 63.863281 37.980469 62.371094 38.949219 62.300781 39.0625 C 62.226562 39.179688 62.421875 39.140625 62.742188 38.976562 Z M 70.03125 31.5 C 70.152344 31.4375 70.816406 31.042969 71.503906 30.628906 C 72.191406 30.214844 73.1875 29.671875 73.710938 29.417969 C 74.238281 29.164062 74.632812 28.945312 74.589844 28.929688 C 74.460938 28.878906 73.25 29.332031 72.546875 29.691406 C 71.527344 30.214844 69.484375 31.621094 69.738281 31.621094 C 69.777344 31.621094 69.910156 31.566406 70.03125 31.5 Z M 58.363281 43.820312 C 58.363281 43.800781 58.414062 43.769531 58.476562 43.746094 C 58.542969 43.71875 58.570312 43.734375 58.546875 43.773438 C 58.5 43.84375 58.363281 43.878906 58.363281 43.820312 Z M 59.28125 43.257812 C 59.308594 43.21875 59.367188 43.183594 59.414062 43.1875 C 59.46875 43.1875 59.457031 43.214844 59.390625 43.257812 C 59.25 43.351562 59.226562 43.351562 59.28125 43.257812 Z M 60.054688 42.78125 C 60.054688 42.765625 60.128906 42.710938 60.21875 42.667969 C 60.378906 42.589844 60.378906 42.59375 60.242188 42.703125 C 60.09375 42.824219 60.054688 42.839844 60.054688 42.78125 Z M 49.703125 42.148438 C 48.476562 41.691406 48.539062 41.765625 48.601562 40.875 C 48.738281 38.867188 49.480469 34.875 49.769531 34.597656 C 49.835938 34.535156 50.035156 34.582031 50.574219 34.785156 C 50.972656 34.933594 51.324219 35.089844 51.363281 35.125 C 51.40625 35.171875 51.339844 35.464844 51.1875 35.898438 C 50.765625 37.101562 50.691406 37.777344 50.699219 40.257812 C 50.703125 42.058594 50.6875 42.449219 50.605469 42.449219 C 50.546875 42.449219 50.144531 42.3125 49.703125 42.148438 Z M 46.949219 41.117188 C 46.253906 40.882812 46.261719 40.894531 46.320312 40.207031 C 46.425781 38.964844 47.164062 35.550781 47.542969 34.570312 C 47.863281 33.742188 47.878906 33.730469 48.4375 33.949219 C 48.6875 34.050781 48.921875 34.15625 48.957031 34.191406 C 48.992188 34.226562 48.886719 34.796875 48.722656 35.460938 C 48.296875 37.1875 47.832031 40.125 47.832031 41.074219 C 47.832031 41.347656 47.824219 41.359375 47.628906 41.320312 C 47.519531 41.300781 47.210938 41.207031 46.949219 41.117188 Z M 62.632812 41.167969 C 62.632812 41.152344 62.683594 41.121094 62.746094 41.09375 C 62.8125 41.070312 62.839844 41.082031 62.816406 41.125 C 62.773438 41.195312 62.632812 41.226562 62.632812 41.167969 Z M 45.035156 40.398438 L 44.777344 40.273438 L 44.789062 39.078125 C 44.800781 37.777344 44.863281 37.292969 45.191406 35.894531 C 45.574219 34.25 46.011719 33.171875 46.296875 33.171875 C 46.445312 33.171875 47.023438 33.378906 47.125 33.472656 C 47.160156 33.503906 47.066406 33.808594 46.921875 34.148438 C 46.773438 34.492188 46.554688 35.175781 46.433594 35.671875 C 46.125 36.90625 45.648438 39.355469 45.585938 40 C 45.53125 40.597656 45.492188 40.625 45.035156 40.398438 Z M 64.324219 40.132812 C 64.324219 40.113281 64.398438 40.0625 64.492188 40.015625 C 64.648438 39.941406 64.652344 39.941406 64.515625 40.050781 C 64.363281 40.171875 64.324219 40.1875 64.324219 40.132812 Z M 43.046875 39.644531 C 42.621094 39.484375 41.394531 39.015625 40.324219 38.609375 C 39.25 38.203125 36.78125 37.261719 34.839844 36.523438 C 32.894531 35.78125 30.542969 34.886719 29.609375 34.535156 C 25.03125 32.796875 24.101562 32.4375 24.066406 32.402344 C 23.953125 32.289062 23.820312 31.121094 23.78125 29.890625 C 23.746094 28.742188 23.761719 28.378906 23.859375 27.867188 C 24.089844 26.703125 24.59375 25.441406 24.828125 25.441406 C 24.972656 25.441406 25.5 25.707031 25.5625 25.8125 C 25.589844 25.855469 25.363281 26.152344 25.054688 26.46875 C 24.488281 27.046875 24.414062 27.214844 24.570312 27.503906 C 24.695312 27.742188 24.898438 27.800781 25.988281 27.910156 C 26.5625 27.96875 27.347656 28.050781 27.734375 28.089844 C 28.117188 28.132812 29.460938 28.265625 30.714844 28.386719 C 33.167969 28.621094 34.296875 28.734375 34.765625 28.796875 C 34.925781 28.816406 35.339844 28.945312 35.683594 29.082031 C 36.027344 29.21875 36.527344 29.414062 36.789062 29.515625 C 37.285156 29.707031 42.738281 31.777344 44.398438 32.40625 C 44.921875 32.601562 45.363281 32.804688 45.382812 32.859375 C 45.40625 32.914062 45.304688 33.214844 45.160156 33.527344 C 44.578125 34.769531 44.089844 37.046875 44.023438 38.785156 C 43.996094 39.554688 43.957031 39.945312 43.902344 39.945312 C 43.855469 39.941406 43.472656 39.808594 43.046875 39.644531 Z M 65.136719 39.617188 C 65.234375 39.527344 67.925781 37.832031 71.613281 35.542969 C 77.714844 31.757812 77.757812 31.730469 77.890625 31.472656 C 77.960938 31.335938 78.050781 31.222656 78.09375 31.226562 C 78.132812 31.230469 78.25 31.242188 78.351562 31.246094 C 78.453125 31.253906 78.535156 31.289062 78.535156 31.328125 C 78.535156 31.410156 78.511719 31.425781 76.730469 32.527344 C 76.042969 32.953125 73.972656 34.238281 72.128906 35.382812 C 70.289062 36.527344 68.066406 37.894531 67.195312 38.421875 C 66.324219 38.945312 65.5 39.457031 65.355469 39.550781 C 65.066406 39.746094 64.976562 39.773438 65.136719 39.617188 Z M 54.847656 35.558594 C 52.921875 34.824219 51.652344 34.34375 47.945312 32.953125 C 46.089844 32.257812 42.449219 30.875 41.832031 30.636719 C 41.589844 30.542969 40.667969 30.191406 39.785156 29.855469 C 38.902344 29.519531 38.207031 29.21875 38.242188 29.1875 C 38.273438 29.15625 38.5625 29.160156 38.886719 29.199219 C 39.210938 29.234375 40.535156 29.367188 41.832031 29.488281 C 43.128906 29.613281 44.46875 29.746094 44.8125 29.785156 C 45.160156 29.824219 46.300781 29.941406 47.355469 30.039062 C 48.40625 30.140625 49.566406 30.257812 49.929688 30.296875 C 50.296875 30.339844 51.140625 30.421875 51.808594 30.484375 C 52.476562 30.546875 53.320312 30.632812 53.6875 30.667969 C 54.050781 30.707031 54.929688 30.789062 55.636719 30.855469 C 56.347656 30.925781 57.480469 31.035156 58.15625 31.101562 C 58.832031 31.171875 59.449219 31.203125 59.527344 31.171875 C 59.648438 31.128906 61.9375 28.023438 66.078125 22.28125 C 66.753906 21.34375 67.023438 21.023438 67.140625 21.023438 C 67.277344 21.023438 72.433594 22.578125 73.96875 23.082031 C 74.316406 23.195312 74.894531 23.378906 75.257812 23.488281 C 75.625 23.597656 76.1875 23.769531 76.511719 23.871094 C 76.835938 23.972656 77.183594 24.078125 77.285156 24.109375 C 77.386719 24.140625 77.46875 24.203125 77.46875 24.246094 C 77.46875 24.292969 76.441406 24.929688 75.183594 25.664062 C 72.664062 27.136719 64.65625 31.808594 60.128906 34.441406 C 58.527344 35.375 57.15625 36.179688 57.074219 36.238281 C 56.996094 36.292969 56.921875 36.335938 56.910156 36.335938 C 56.898438 36.335938 55.96875 35.988281 54.847656 35.558594 Z M 22.675781 31.875 C 22.449219 31.734375 22.402344 31.300781 22.460938 29.863281 C 22.515625 28.546875 22.632812 27.550781 22.871094 26.472656 C 23.027344 25.75 23.394531 24.851562 23.535156 24.851562 C 23.582031 24.851562 23.714844 24.902344 23.828125 24.960938 L 24.042969 25.070312 L 23.792969 25.613281 C 23.4375 26.378906 23.179688 27.324219 23.039062 28.347656 C 22.921875 29.214844 22.949219 30.109375 23.144531 31.726562 C 23.1875 32.078125 23.1875 32.082031 23.011719 32.03125 C 22.917969 32.003906 22.765625 31.933594 22.675781 31.875 Z M 21.050781 31.28125 C 20.777344 31.175781 20.5 31.042969 20.433594 30.984375 C 20.242188 30.820312 19.949219 30.09375 19.804688 29.417969 C 19.644531 28.664062 19.621094 26.125 19.765625 25.402344 C 19.855469 24.957031 20.179688 24.226562 20.433594 23.898438 L 20.574219 23.71875 L 21.632812 24.121094 C 22.367188 24.402344 22.6875 24.558594 22.675781 24.632812 C 22.667969 24.691406 22.582031 24.941406 22.476562 25.183594 C 22.0625 26.175781 21.773438 27.996094 21.71875 29.988281 C 21.695312 30.808594 21.648438 31.476562 21.613281 31.476562 C 21.578125 31.476562 21.324219 31.390625 21.050781 31.28125 Z M 56.59375 30.1875 C 55.5625 30.089844 54.253906 29.957031 53.6875 29.898438 C 52.210938 29.742188 50.703125 29.589844 49.304688 29.457031 C 48.636719 29.390625 47.792969 29.308594 47.429688 29.265625 C 47.0625 29.226562 45.738281 29.09375 44.484375 28.976562 C 43.226562 28.855469 41.902344 28.722656 41.539062 28.683594 C 40.753906 28.601562 39.765625 28.5 38.152344 28.347656 C 37.503906 28.285156 36.675781 28.203125 36.308594 28.160156 C 35.945312 28.121094 34.621094 27.992188 33.367188 27.871094 C 32.109375 27.75 30.933594 27.636719 30.75 27.613281 C 30.375 27.570312 28.023438 27.335938 26.574219 27.199219 C 25.96875 27.140625 25.597656 27.074219 25.597656 27.023438 C 25.597656 26.929688 26.15625 26.378906 26.359375 26.269531 C 26.441406 26.226562 26.625 26.222656 26.820312 26.257812 C 27 26.292969 27.832031 26.386719 28.671875 26.46875 C 30.796875 26.675781 31.640625 26.761719 32.410156 26.84375 C 32.773438 26.882812 34.097656 27.015625 35.351562 27.132812 C 36.609375 27.253906 37.933594 27.386719 38.296875 27.425781 C 38.664062 27.464844 39.507812 27.550781 40.175781 27.617188 C 40.84375 27.679688 41.871094 27.78125 42.457031 27.839844 C 43.609375 27.960938 44.765625 28.070312 47.242188 28.308594 C 49.160156 28.492188 55.84375 29.15625 57.609375 29.335938 C 58.804688 29.457031 58.898438 29.457031 59.160156 29.339844 C 59.371094 29.246094 59.699219 28.878906 60.605469 27.714844 C 66.121094 20.648438 67.34375 19.09375 67.476562 18.960938 C 67.636719 18.800781 66.9375 19.808594 65.761719 21.429688 C 62.617188 25.769531 59.425781 30.136719 59.289062 30.285156 C 59.160156 30.433594 59.089844 30.449219 58.804688 30.414062 C 58.621094 30.390625 57.628906 30.289062 56.59375 30.1875 Z M 56.378906 28.460938 C 55.0625 28.324219 53.03125 28.121094 44.667969 27.285156 C 43.066406 27.125 41.097656 26.925781 40.285156 26.84375 C 39.476562 26.761719 37.125 26.527344 35.058594 26.324219 C 31 25.921875 28.710938 25.695312 27.746094 25.59375 C 27.410156 25.5625 27.113281 25.507812 27.085938 25.480469 C 27.058594 25.453125 27.03125 24.675781 27.023438 23.757812 C 27.019531 22.84375 26.976562 21.84375 26.929688 21.539062 C 26.878906 21.234375 26.820312 20.640625 26.796875 20.21875 L 26.753906 19.453125 L 27.375 19.5 C 27.710938 19.527344 28.6875 19.613281 29.535156 19.695312 C 30.386719 19.777344 31.945312 19.925781 32.996094 20.027344 C 34.050781 20.128906 35.605469 20.277344 36.457031 20.359375 C 39.171875 20.621094 41.019531 20.796875 44.226562 21.097656 C 45.945312 21.257812 48.214844 21.472656 49.269531 21.574219 C 50.320312 21.679688 52.042969 21.84375 53.097656 21.941406 C 56.949219 22.304688 58.179688 22.425781 58.269531 22.457031 C 58.335938 22.484375 58.355469 23.1875 58.339844 25.546875 L 58.324219 28.605469 L 58.074219 28.605469 C 57.933594 28.605469 57.171875 28.539062 56.378906 28.460938 Z M 51.207031 27.503906 C 51.097656 27.472656 50.800781 27.421875 50.542969 27.394531 C 50.289062 27.367188 48.902344 27.199219 47.464844 27.019531 C 39.257812 26.003906 36.253906 25.679688 36.898438 25.878906 C 37.578125 26.089844 45.605469 27.121094 49.261719 27.464844 C 50.542969 27.585938 51.546875 27.605469 51.207031 27.503906 Z M 55.160156 25.304688 C 55.484375 25.21875 54.53125 25.160156 52.066406 25.109375 C 50.933594 25.085938 48.597656 25.019531 46.878906 24.960938 C 45.160156 24.902344 43.738281 24.871094 43.71875 24.890625 C 43.703125 24.910156 43.699219 24.941406 43.71875 24.960938 C 43.765625 25.003906 45.175781 25.132812 46.691406 25.226562 C 48.242188 25.320312 54.855469 25.382812 55.160156 25.304688 Z M 53.75 23.484375 C 54.269531 23.429688 54.785156 23.355469 54.890625 23.316406 C 55.15625 23.21875 54.523438 23.214844 51.917969 23.304688 C 49.640625 23.382812 48.9375 23.4375 48.9375 23.535156 C 48.9375 23.636719 52.679688 23.59375 53.75 23.484375 Z M 37.78125 22.285156 C 37.921875 22.222656 37.921875 22.214844 37.746094 22.175781 C 37.644531 22.15625 37.148438 22.117188 36.640625 22.09375 C 36.136719 22.070312 34.941406 22.003906 33.992188 21.941406 C 31.183594 21.765625 30.628906 21.742188 30.75 21.820312 C 30.890625 21.90625 32.324219 22.101562 33.550781 22.199219 C 34.910156 22.304688 37.613281 22.359375 37.78125 22.285156 Z M 59.097656 25.136719 L 59.097656 22.117188 L 60.703125 20.152344 C 61.585938 19.070312 62.902344 17.457031 63.628906 16.5625 C 64.355469 15.667969 65.640625 14.085938 66.484375 13.046875 C 67.328125 12.007812 68.03125 11.15625 68.046875 11.15625 C 68.117188 11.15625 68.292969 11.613281 68.457031 12.226562 C 68.613281 12.8125 68.632812 13.046875 68.632812 14.285156 C 68.632812 16.351562 68.777344 16.054688 66.199219 19.296875 C 65.714844 19.902344 63.945312 22.164062 62.269531 24.316406 C 60.589844 26.46875 59.191406 28.214844 59.15625 28.191406 C 59.125 28.171875 59.097656 26.796875 59.097656 25.136719 Z M 61.035156 22.859375 C 61.714844 22.160156 62.308594 21.316406 62.128906 21.316406 C 62.050781 21.316406 60.925781 22.566406 60.453125 23.179688 C 59.957031 23.820312 60.273438 23.644531 61.035156 22.859375 Z M 66.414062 18.429688 C 67.394531 17.332031 68.222656 16.164062 68.015625 16.164062 C 67.890625 16.164062 65.796875 18.75 65.796875 18.90625 C 65.796875 19.054688 65.976562 18.914062 66.414062 18.429688 Z M 66.921875 15.378906 C 67.519531 14.785156 68.066406 14.0625 67.980469 13.976562 C 67.914062 13.910156 67.453125 14.367188 66.839844 15.097656 C 66.121094 15.953125 66.128906 15.941406 66.253906 15.941406 C 66.3125 15.941406 66.613281 15.691406 66.921875 15.378906 Z M 25.796875 25.0625 C 25.625 24.976562 25.40625 24.847656 25.304688 24.777344 C 25.203125 24.707031 24.355469 24.359375 23.425781 24.007812 C 22.496094 23.652344 21.703125 23.335938 21.664062 23.300781 C 21.582031 23.222656 21.582031 23.222656 24.078125 22.375 C 25.207031 21.992188 26.152344 21.699219 26.175781 21.726562 C 26.265625 21.8125 26.277344 25.21875 26.1875 25.21875 C 26.144531 25.21875 25.96875 25.148438 25.796875 25.0625 Z M 56.769531 21.539062 C 55.964844 21.460938 54.0625 21.277344 52.546875 21.132812 C 51.027344 20.988281 48.921875 20.785156 47.871094 20.6875 C 46.816406 20.585938 45.324219 20.441406 44.554688 20.359375 C 43.789062 20.28125 42.445312 20.148438 41.574219 20.066406 C 40.703125 19.984375 39.128906 19.835938 38.078125 19.734375 C 37.023438 19.632812 35.46875 19.484375 34.617188 19.402344 C 33.765625 19.324219 32.375 19.1875 31.523438 19.105469 C 30.675781 19.023438 29.117188 18.875 28.0625 18.777344 C 24.515625 18.441406 24.660156 18.464844 24.867188 18.269531 C 24.925781 18.214844 26.363281 17.019531 28.0625 15.609375 C 29.765625 14.203125 31.371094 12.863281 31.636719 12.636719 C 32.046875 12.277344 37.058594 8.117188 37.382812 7.863281 C 37.472656 7.792969 37.8125 7.804688 39.003906 7.921875 C 39.828125 8 41.367188 8.148438 42.421875 8.246094 C 43.472656 8.347656 45.03125 8.496094 45.882812 8.578125 C 46.730469 8.660156 48.125 8.792969 48.972656 8.875 C 49.824219 8.957031 51.214844 9.089844 52.066406 9.171875 C 54.15625 9.371094 57.101562 9.652344 59.023438 9.832031 C 59.894531 9.910156 61.285156 10.042969 62.117188 10.121094 C 62.945312 10.203125 64.386719 10.335938 65.320312 10.421875 C 67.214844 10.59375 67.34375 10.613281 67.34375 10.722656 C 67.34375 10.761719 66.71875 11.566406 65.949219 12.503906 C 58.226562 21.972656 58.464844 21.6875 58.332031 21.6875 C 58.277344 21.6875 57.574219 21.621094 56.769531 21.539062 Z M 56.769531 21.539062 " fill-opacity="1" fill-rule="nonzero"/></g><g fill="#ffffff" fill-opacity="1"><g transform="translate(20.993951, 60.790408)"><g/></g></g><g fill="#ffffff" fill-opacity="1"><g transform="translate(22.804387, 60.790408)"><g><path d="M 1.71875 -4.640625 L 0.125 -4.640625 L 0.125 -5.625 L 4.34375 -5.625 L 4.34375 -4.640625 L 2.75 -4.640625 L 2.75 0 L 1.71875 0 Z M 1.71875 -4.640625 "/></g></g></g><g fill="#ffffff" fill-opacity="1"><g transform="translate(27.260327, 60.790408)"><g><path d="M 2.5 -4.09375 C 3.007812 -4.09375 3.382812 -3.925781 3.625 -3.59375 C 3.875 -3.257812 4 -2.804688 4 -2.234375 L 4 0 L 3.015625 0 L 3.015625 -2.171875 C 3.015625 -2.546875 2.953125 -2.820312 2.828125 -3 C 2.703125 -3.175781 2.503906 -3.265625 2.234375 -3.265625 C 1.921875 -3.265625 1.660156 -3.148438 1.453125 -2.921875 L 1.453125 0 L 0.453125 0 L 0.453125 -6.03125 L 1.453125 -6.03125 L 1.453125 -3.765625 C 1.617188 -3.867188 1.785156 -3.945312 1.953125 -4 C 2.117188 -4.0625 2.300781 -4.09375 2.5 -4.09375 Z M 2.5 -4.09375 "/></g></g></g><g fill="#ffffff" fill-opacity="1"><g transform="translate(31.692133, 60.790408)"><g><path d="M 4.921875 -4.625 C 4.921875 -4.34375 4.832031 -4.097656 4.65625 -3.890625 C 4.476562 -3.691406 4.25 -3.546875 3.96875 -3.453125 L 3.96875 0 L 3.046875 0 L 3.03125 -0.234375 C 2.90625 -0.148438 2.757812 -0.078125 2.59375 -0.015625 C 2.4375 0.046875 2.28125 0.078125 2.125 0.078125 C 1.53125 0.078125 1.097656 -0.09375 0.828125 -0.4375 C 0.554688 -0.78125 0.421875 -1.253906 0.421875 -1.859375 L 0.421875 -4.015625 L 1.421875 -4.015625 L 1.421875 -1.859375 C 1.421875 -1.484375 1.484375 -1.203125 1.609375 -1.015625 C 1.734375 -0.835938 1.9375 -0.75 2.21875 -0.75 C 2.53125 -0.75 2.785156 -0.863281 2.984375 -1.09375 L 2.984375 -4.015625 L 3.421875 -4.015625 C 3.859375 -4.015625 4.078125 -4.21875 4.078125 -4.625 Z M 4.921875 -4.625 "/></g></g></g><g fill="#ffffff" fill-opacity="1"><g transform="translate(36.131986, 60.790408)"><g/></g></g><g fill="#ffffff" fill-opacity="1"><g transform="translate(37.941704, 60.790408)"><g><path d="M 0.03125 -4.015625 L 1 -4.015625 L 2 -1.234375 L 2.984375 -4.015625 L 3.96875 -4.015625 L 2.421875 0 L 1.5625 0 Z M 0.03125 -4.015625 "/></g></g></g><g fill="#ffffff" fill-opacity="1"><g transform="translate(41.93114, 60.790408)"><g><path d="M 0.46875 -5.625 L 1.46875 -5.625 L 1.46875 -4.640625 L 0.46875 -4.640625 Z M 0.46875 -4.015625 L 1.46875 -4.015625 L 1.46875 0 L 0.46875 0 Z M 0.46875 -4.015625 "/></g></g></g><g fill="#ffffff" fill-opacity="1"><g transform="translate(43.861514, 60.790408)"><g><path d="M 2.40625 0.078125 C 1.9375 0.078125 1.535156 -0.015625 1.203125 -0.203125 C 0.878906 -0.390625 0.632812 -0.644531 0.46875 -0.96875 C 0.300781 -1.289062 0.21875 -1.644531 0.21875 -2.03125 C 0.21875 -2.40625 0.296875 -2.75 0.453125 -3.0625 C 0.609375 -3.375 0.832031 -3.625 1.125 -3.8125 C 1.425781 -4 1.78125 -4.09375 2.1875 -4.09375 C 2.5625 -4.09375 2.878906 -4.015625 3.140625 -3.859375 C 3.398438 -3.703125 3.59375 -3.488281 3.71875 -3.21875 C 3.851562 -2.957031 3.921875 -2.664062 3.921875 -2.34375 C 3.921875 -2.175781 3.898438 -1.992188 3.859375 -1.796875 L 1.265625 -1.796875 C 1.316406 -1.441406 1.453125 -1.175781 1.671875 -1 C 1.898438 -0.820312 2.175781 -0.734375 2.5 -0.734375 C 2.925781 -0.734375 3.328125 -0.84375 3.703125 -1.0625 L 3.75 -0.21875 C 3.582031 -0.132812 3.382812 -0.0625 3.15625 0 C 2.925781 0.0507812 2.675781 0.078125 2.40625 0.078125 Z M 2.90625 -2.46875 C 2.90625 -2.675781 2.847656 -2.859375 2.734375 -3.015625 C 2.617188 -3.179688 2.4375 -3.265625 2.1875 -3.265625 C 1.9375 -3.265625 1.738281 -3.191406 1.59375 -3.046875 C 1.445312 -2.898438 1.34375 -2.707031 1.28125 -2.46875 Z M 1.203125 -5.09375 L 2.265625 -6 L 3.328125 -5.09375 L 3.328125 -4.453125 L 2.265625 -5.125 L 1.203125 -4.453125 Z M 1.65625 0.65625 L 2.5 0.65625 L 2.5 1.4375 L 1.65625 1.4375 Z M 1.65625 0.65625 "/></g></g></g><g fill="#ffffff" fill-opacity="1"><g transform="translate(48.003763, 60.790408)"><g><path d="M 2.5 -4.09375 C 3 -4.09375 3.375 -3.925781 3.625 -3.59375 C 3.882812 -3.257812 4.015625 -2.8125 4.015625 -2.25 L 4.015625 0 L 3.015625 0 L 3.015625 -2.171875 C 3.015625 -2.546875 2.953125 -2.820312 2.828125 -3 C 2.703125 -3.175781 2.5 -3.265625 2.21875 -3.265625 C 1.914062 -3.265625 1.664062 -3.148438 1.46875 -2.921875 L 1.46875 0 L 0.46875 0 L 0.46875 -4.015625 L 1.40625 -4.015625 L 1.421875 -3.734375 C 1.753906 -3.972656 2.113281 -4.09375 2.5 -4.09375 Z M 2.5 -4.09375 "/></g></g></g><g fill="#ffffff" fill-opacity="1"><g transform="translate(52.443616, 60.790408)"><g/></g></g><g fill="#ffffff" fill-opacity="1"><g transform="translate(54.253334, 60.790408)"><g><path d="M 2.125 0.1875 C 1.707031 0.1875 1.359375 0.117188 1.078125 -0.015625 C 0.804688 -0.160156 0.597656 -0.347656 0.453125 -0.578125 C 0.316406 -0.816406 0.25 -1.078125 0.25 -1.359375 C 0.25 -1.691406 0.335938 -1.984375 0.515625 -2.234375 C 0.691406 -2.484375 0.929688 -2.722656 1.234375 -2.953125 C 0.835938 -3.453125 0.640625 -3.910156 0.640625 -4.328125 C 0.640625 -4.597656 0.707031 -4.832031 0.84375 -5.03125 C 0.988281 -5.226562 1.179688 -5.378906 1.421875 -5.484375 C 1.660156 -5.597656 1.921875 -5.65625 2.203125 -5.65625 C 2.617188 -5.65625 2.945312 -5.546875 3.1875 -5.328125 C 3.425781 -5.117188 3.546875 -4.84375 3.546875 -4.5 C 3.546875 -4.28125 3.492188 -4.082031 3.390625 -3.90625 C 3.296875 -3.726562 3.171875 -3.578125 3.015625 -3.453125 C 2.867188 -3.328125 2.664062 -3.171875 2.40625 -2.984375 L 3.53125 -1.703125 C 3.570312 -1.921875 3.59375 -2.15625 3.59375 -2.40625 C 3.601562 -2.65625 3.609375 -2.796875 3.609375 -2.828125 L 4.578125 -2.828125 C 4.578125 -2.085938 4.441406 -1.46875 4.171875 -0.96875 L 5.015625 0 L 3.859375 0 L 3.609375 -0.28125 C 3.222656 0.03125 2.726562 0.1875 2.125 0.1875 Z M 1.984375 -3.46875 C 2.203125 -3.625 2.367188 -3.773438 2.484375 -3.921875 C 2.609375 -4.066406 2.671875 -4.222656 2.671875 -4.390625 C 2.671875 -4.546875 2.625 -4.660156 2.53125 -4.734375 C 2.445312 -4.816406 2.332031 -4.859375 2.1875 -4.859375 C 2.019531 -4.859375 1.882812 -4.804688 1.78125 -4.703125 C 1.675781 -4.609375 1.625 -4.46875 1.625 -4.28125 C 1.625 -4.15625 1.648438 -4.03125 1.703125 -3.90625 C 1.765625 -3.78125 1.859375 -3.632812 1.984375 -3.46875 Z M 2.265625 -0.578125 C 2.617188 -0.578125 2.898438 -0.664062 3.109375 -0.84375 L 1.71875 -2.40625 C 1.4375 -2.113281 1.296875 -1.789062 1.296875 -1.4375 C 1.296875 -1.1875 1.367188 -0.976562 1.515625 -0.8125 C 1.660156 -0.65625 1.910156 -0.578125 2.265625 -0.578125 Z M 2.265625 -0.578125 "/></g></g></g><g fill="#ffffff" fill-opacity="1"><g transform="translate(59.296427, 60.790408)"><g/></g></g><g fill="#ffffff" fill-opacity="1"><g transform="translate(61.106144, 60.790408)"><g><path d="M 2.25 0.109375 C 1.9375 0.109375 1.597656 0.0664062 1.234375 -0.015625 C 0.867188 -0.0976562 0.585938 -0.191406 0.390625 -0.296875 L 0.5 -1.390625 C 1.207031 -1.046875 1.832031 -0.875 2.375 -0.875 C 2.65625 -0.875 2.875 -0.925781 3.03125 -1.03125 C 3.195312 -1.144531 3.28125 -1.3125 3.28125 -1.53125 C 3.28125 -1.6875 3.234375 -1.816406 3.140625 -1.921875 C 3.054688 -2.023438 2.929688 -2.113281 2.765625 -2.1875 C 2.597656 -2.257812 2.332031 -2.363281 1.96875 -2.5 C 1.625 -2.613281 1.335938 -2.734375 1.109375 -2.859375 C 0.890625 -2.992188 0.710938 -3.164062 0.578125 -3.375 C 0.453125 -3.582031 0.390625 -3.835938 0.390625 -4.140625 C 0.390625 -4.617188 0.566406 -5.003906 0.921875 -5.296875 C 1.273438 -5.597656 1.78125 -5.75 2.4375 -5.75 C 2.75 -5.75 3.054688 -5.710938 3.359375 -5.640625 C 3.671875 -5.566406 3.957031 -5.484375 4.21875 -5.390625 L 4.109375 -4.328125 C 3.773438 -4.472656 3.46875 -4.582031 3.1875 -4.65625 C 2.914062 -4.726562 2.644531 -4.765625 2.375 -4.765625 C 2.070312 -4.765625 1.835938 -4.710938 1.671875 -4.609375 C 1.515625 -4.503906 1.4375 -4.359375 1.4375 -4.171875 C 1.4375 -4.015625 1.476562 -3.890625 1.5625 -3.796875 C 1.644531 -3.703125 1.757812 -3.617188 1.90625 -3.546875 C 2.050781 -3.484375 2.269531 -3.410156 2.5625 -3.328125 C 3.21875 -3.117188 3.691406 -2.878906 3.984375 -2.609375 C 4.285156 -2.347656 4.4375 -1.988281 4.4375 -1.53125 C 4.4375 -1.09375 4.28125 -0.707031 3.96875 -0.375 C 3.664062 -0.0507812 3.09375 0.109375 2.25 0.109375 Z M 2.25 0.109375 "/></g></g></g><g fill="#ffffff" fill-opacity="1"><g transform="translate(65.771206, 60.790408)"><g><path d="M 1.328125 0.078125 C 1.003906 0.078125 0.726562 -0.03125 0.5 -0.25 C 0.28125 -0.46875 0.171875 -0.757812 0.171875 -1.125 C 0.171875 -1.476562 0.296875 -1.757812 0.546875 -1.96875 C 0.796875 -2.175781 1.09375 -2.320312 1.4375 -2.40625 C 1.78125 -2.5 2.113281 -2.550781 2.4375 -2.5625 C 2.414062 -2.800781 2.347656 -2.972656 2.234375 -3.078125 C 2.128906 -3.179688 1.953125 -3.234375 1.703125 -3.234375 C 1.523438 -3.234375 1.351562 -3.207031 1.1875 -3.15625 C 1.019531 -3.101562 0.828125 -3.023438 0.609375 -2.921875 L 0.515625 -3.734375 C 1.003906 -3.972656 1.492188 -4.09375 1.984375 -4.09375 C 2.453125 -4.09375 2.8125 -3.960938 3.0625 -3.703125 C 3.3125 -3.441406 3.4375 -3.03125 3.4375 -2.46875 L 3.4375 -1.390625 C 3.4375 -1.179688 3.445312 -1.03125 3.46875 -0.9375 C 3.488281 -0.851562 3.519531 -0.796875 3.5625 -0.765625 C 3.601562 -0.742188 3.679688 -0.734375 3.796875 -0.734375 L 3.921875 -0.734375 L 3.828125 0.078125 L 3.46875 0.078125 C 3.25 0.078125 3.0625 0.0351562 2.90625 -0.046875 C 2.757812 -0.128906 2.644531 -0.242188 2.5625 -0.390625 C 2.4375 -0.242188 2.257812 -0.128906 2.03125 -0.046875 C 1.8125 0.0351562 1.578125 0.078125 1.328125 0.078125 Z M 1.75 -0.6875 C 1.851562 -0.6875 1.96875 -0.710938 2.09375 -0.765625 C 2.226562 -0.816406 2.34375 -0.882812 2.4375 -0.96875 L 2.4375 -1.890625 C 2.113281 -1.867188 1.828125 -1.796875 1.578125 -1.671875 C 1.335938 -1.554688 1.21875 -1.390625 1.21875 -1.171875 C 1.21875 -1.003906 1.257812 -0.878906 1.34375 -0.796875 C 1.425781 -0.722656 1.5625 -0.6875 1.75 -0.6875 Z M 1.203125 -5.21875 L 2.78125 -6.125 L 2.78125 -5.203125 L 1.203125 -4.59375 Z M 1.203125 -5.21875 "/></g></g></g><g fill="#ffffff" fill-opacity="1"><g transform="translate(69.77672, 60.790408)"><g><path d="M 2.328125 0.078125 C 1.890625 0.078125 1.507812 -0.0078125 1.1875 -0.1875 C 0.863281 -0.375 0.617188 -0.625 0.453125 -0.9375 C 0.296875 -1.257812 0.21875 -1.613281 0.21875 -2 C 0.21875 -2.394531 0.296875 -2.75 0.453125 -3.0625 C 0.617188 -3.382812 0.863281 -3.640625 1.1875 -3.828125 C 1.507812 -4.015625 1.898438 -4.109375 2.359375 -4.109375 C 2.773438 -4.109375 3.132812 -4.019531 3.4375 -3.84375 L 3.359375 -3.046875 C 3.066406 -3.191406 2.769531 -3.265625 2.46875 -3.265625 C 2.082031 -3.265625 1.78125 -3.148438 1.5625 -2.921875 C 1.351562 -2.691406 1.25 -2.382812 1.25 -2 C 1.25 -1.632812 1.359375 -1.332031 1.578125 -1.09375 C 1.796875 -0.851562 2.085938 -0.734375 2.453125 -0.734375 C 2.753906 -0.734375 3.0625 -0.820312 3.375 -1 L 3.453125 -0.15625 C 3.316406 -0.0820312 3.148438 -0.0234375 2.953125 0.015625 C 2.753906 0.0546875 2.546875 0.078125 2.328125 0.078125 Z M 2.328125 0.078125 "/></g></g></g><g fill="#ffffff" fill-opacity="1"><g transform="translate(73.436377, 60.790408)"><g><path d="M 2.5 -4.09375 C 3.007812 -4.09375 3.382812 -3.925781 3.625 -3.59375 C 3.875 -3.257812 4 -2.804688 4 -2.234375 L 4 0 L 3.015625 0 L 3.015625 -2.171875 C 3.015625 -2.546875 2.953125 -2.820312 2.828125 -3 C 2.703125 -3.175781 2.503906 -3.265625 2.234375 -3.265625 C 1.921875 -3.265625 1.660156 -3.148438 1.453125 -2.921875 L 1.453125 0 L 0.453125 0 L 0.453125 -6.03125 L 1.453125 -6.03125 L 1.453125 -3.765625 C 1.617188 -3.867188 1.785156 -3.945312 1.953125 -4 C 2.117188 -4.0625 2.300781 -4.09375 2.5 -4.09375 Z M 2.5 -4.09375 "/></g></g></g></svg>