<svg xmlns="http://www.w3.org/2000/svg" xmlns:xlink="http://www.w3.org/1999/xlink" width="132" zoomAndPan="magnify" viewBox="0 0 98.88 70.499998" height="94" preserveAspectRatio="xMidYMid meet" version="1.0"><defs><g/><clipPath id="9b09a22a89"><path d="M 28.898438 7 L 69.859375 7 L 69.859375 46.46875 L 28.898438 46.46875 Z M 28.898438 7 " clip-rule="nonzero"/></clipPath></defs><path fill="#ffffff" d="M 32.332031 15.007812 C 33.113281 15.007812 33.746094 14.375 33.746094 13.59375 C 33.746094 12.816406 33.113281 12.183594 32.332031 12.183594 C 31.554688 12.183594 30.921875 12.816406 30.921875 13.59375 C 30.921875 14.375 31.554688 15.007812 32.332031 15.007812 Z M 32.332031 13.425781 C 32.425781 13.425781 32.503906 13.5 32.503906 13.59375 C 32.503906 13.6875 32.425781 13.765625 32.332031 13.765625 C 32.238281 13.765625 32.164062 13.6875 32.164062 13.59375 C 32.164062 13.5 32.238281 13.425781 32.332031 13.425781 Z M 32.332031 13.425781 " fill-opacity="1" fill-rule="nonzero"/><path fill="#ffffff" d="M 35.917969 15.007812 C 36.695312 15.007812 37.328125 14.375 37.328125 13.59375 C 37.328125 12.816406 36.695312 12.183594 35.917969 12.183594 C 35.140625 12.183594 34.507812 12.816406 34.507812 13.59375 C 34.507812 14.375 35.140625 15.007812 35.917969 15.007812 Z M 35.917969 13.425781 C 36.011719 13.425781 36.085938 13.5 36.085938 13.59375 C 36.085938 13.6875 36.011719 13.765625 35.917969 13.765625 C 35.824219 13.765625 35.75 13.6875 35.75 13.59375 C 35.75 13.5 35.824219 13.425781 35.917969 13.425781 Z M 35.917969 13.425781 " fill-opacity="1" fill-rule="nonzero"/><path fill="#ffffff" d="M 39.503906 15.007812 C 40.28125 15.007812 40.914062 14.375 40.914062 13.59375 C 40.914062 12.816406 40.28125 12.183594 39.503906 12.183594 C 38.722656 12.183594 38.089844 12.816406 38.089844 13.59375 C 38.089844 14.375 38.722656 15.007812 39.503906 15.007812 Z M 39.503906 13.425781 C 39.597656 13.425781 39.671875 13.5 39.671875 13.59375 C 39.671875 13.6875 39.597656 13.765625 39.503906 13.765625 C 39.410156 13.765625 39.332031 13.6875 39.332031 13.59375 C 39.332031 13.5 39.410156 13.425781 39.503906 13.425781 Z M 39.503906 13.425781 " fill-opacity="1" fill-rule="nonzero"/><path fill="#ffffff" d="M 33.523438 28.800781 L 57.742188 28.800781 C 58.730469 28.800781 59.535156 27.996094 59.535156 27.007812 L 59.535156 20.6875 C 59.535156 19.699219 58.730469 18.894531 57.742188 18.894531 L 33.523438 18.894531 C 32.535156 18.894531 31.730469 19.699219 31.730469 20.6875 L 31.730469 27.007812 C 31.730469 27.996094 32.535156 28.800781 33.523438 28.800781 Z M 32.972656 20.6875 C 32.972656 20.386719 33.21875 20.136719 33.523438 20.136719 L 57.742188 20.136719 C 58.042969 20.136719 58.292969 20.386719 58.292969 20.6875 L 58.292969 27.007812 C 58.292969 27.3125 58.042969 27.558594 57.742188 27.558594 L 33.523438 27.558594 C 33.21875 27.558594 32.972656 27.3125 32.972656 27.007812 Z M 32.972656 20.6875 " fill-opacity="1" fill-rule="nonzero"/><path fill="#ffffff" d="M 37.785156 26.761719 C 38.101562 26.726562 38.367188 26.632812 38.582031 26.480469 C 38.796875 26.328125 38.96875 26.128906 39.09375 25.875 C 39.21875 25.621094 39.28125 25.359375 39.28125 25.09375 C 39.28125 24.75 39.183594 24.457031 38.992188 24.203125 C 38.796875 23.953125 38.523438 23.773438 38.164062 23.667969 C 38.417969 23.554688 38.617188 23.382812 38.765625 23.148438 C 38.917969 22.917969 38.992188 22.667969 38.992188 22.390625 C 38.992188 22.136719 38.929688 21.90625 38.808594 21.703125 C 38.6875 21.496094 38.539062 21.332031 38.359375 21.207031 C 38.175781 21.085938 37.972656 21.003906 37.742188 20.964844 C 37.511719 20.925781 37.164062 20.90625 36.699219 20.90625 L 34.34375 20.90625 L 34.34375 26.800781 L 36.351562 26.800781 C 37.109375 26.796875 37.585938 26.78125 37.785156 26.761719 Z M 35.535156 21.886719 L 36.21875 21.886719 C 36.777344 21.886719 37.117188 21.894531 37.234375 21.910156 C 37.433594 21.933594 37.582031 22 37.683594 22.117188 C 37.78125 22.230469 37.832031 22.378906 37.832031 22.558594 C 37.832031 22.75 37.773438 22.902344 37.660156 23.019531 C 37.542969 23.136719 37.382812 23.207031 37.179688 23.230469 C 37.066406 23.246094 36.777344 23.25 36.3125 23.25 L 35.535156 23.25 Z M 35.535156 24.230469 L 36.496094 24.230469 C 37.035156 24.230469 37.386719 24.261719 37.550781 24.316406 C 37.710938 24.371094 37.835938 24.460938 37.921875 24.585938 C 38.007812 24.707031 38.050781 24.859375 38.050781 25.035156 C 38.050781 25.246094 37.996094 25.410156 37.882812 25.535156 C 37.773438 25.660156 37.628906 25.738281 37.453125 25.769531 C 37.335938 25.796875 37.0625 25.808594 36.636719 25.808594 L 35.535156 25.808594 Z M 35.535156 24.230469 " fill-opacity="1" fill-rule="nonzero"/><path fill="#ffffff" d="M 44.464844 25.808594 L 41.507812 25.808594 L 41.507812 20.957031 L 40.316406 20.957031 L 40.316406 26.800781 L 44.464844 26.800781 Z M 44.464844 25.808594 " fill-opacity="1" fill-rule="nonzero"/><path fill="#ffffff" d="M 47.9375 26.902344 C 48.804688 26.902344 49.496094 26.632812 50.011719 26.09375 C 50.53125 25.558594 50.789062 24.8125 50.789062 23.863281 C 50.789062 22.902344 50.527344 22.152344 50.007812 21.613281 C 49.484375 21.074219 48.792969 20.808594 47.921875 20.808594 C 47.441406 20.808594 47.019531 20.882812 46.652344 21.039062 C 46.375 21.15625 46.121094 21.332031 45.890625 21.570312 C 45.660156 21.808594 45.476562 22.078125 45.34375 22.378906 C 45.164062 22.785156 45.074219 23.289062 45.074219 23.890625 C 45.074219 24.828125 45.332031 25.5625 45.847656 26.097656 C 46.367188 26.632812 47.0625 26.902344 47.9375 26.902344 Z M 46.75 22.328125 C 47.050781 21.992188 47.445312 21.824219 47.933594 21.824219 C 48.425781 21.824219 48.820312 21.988281 49.113281 22.324219 C 49.410156 22.65625 49.558594 23.160156 49.558594 23.832031 C 49.558594 24.515625 49.40625 25.03125 49.101562 25.371094 C 48.796875 25.714844 48.410156 25.882812 47.933594 25.882812 C 47.460938 25.882812 47.070312 25.710938 46.761719 25.367188 C 46.453125 25.023438 46.300781 24.515625 46.300781 23.851562 C 46.300781 23.171875 46.449219 22.664062 46.75 22.328125 Z M 46.75 22.328125 " fill-opacity="1" fill-rule="nonzero"/><path fill="#ffffff" d="M 52.890625 26.511719 C 53.351562 26.773438 53.886719 26.902344 54.503906 26.902344 C 54.988281 26.902344 55.46875 26.808594 55.941406 26.625 C 56.414062 26.441406 56.773438 26.230469 57.023438 25.988281 L 57.023438 23.640625 L 54.460938 23.640625 L 54.460938 24.632812 L 55.824219 24.632812 L 55.824219 25.382812 C 55.644531 25.519531 55.425781 25.640625 55.175781 25.738281 C 54.925781 25.835938 54.675781 25.882812 54.425781 25.882812 C 53.921875 25.882812 53.515625 25.710938 53.207031 25.359375 C 52.894531 25.007812 52.738281 24.484375 52.738281 23.785156 C 52.738281 23.136719 52.890625 22.648438 53.199219 22.320312 C 53.507812 21.988281 53.917969 21.824219 54.441406 21.824219 C 54.78125 21.824219 55.070312 21.90625 55.296875 22.074219 C 55.527344 22.242188 55.683594 22.472656 55.765625 22.761719 L 56.949219 22.539062 C 56.828125 22 56.566406 21.574219 56.152344 21.265625 C 55.742188 20.960938 55.171875 20.808594 54.441406 20.808594 C 53.875 20.808594 53.40625 20.90625 53.027344 21.101562 C 52.53125 21.355469 52.15625 21.71875 51.898438 22.199219 C 51.640625 22.675781 51.511719 23.21875 51.511719 23.832031 C 51.511719 24.398438 51.628906 24.921875 51.859375 25.402344 C 52.089844 25.886719 52.433594 26.253906 52.890625 26.511719 Z M 52.890625 26.511719 " fill-opacity="1" fill-rule="nonzero"/><path fill="#ffffff" d="M 43.941406 30.578125 L 32.269531 30.578125 C 31.925781 30.578125 31.648438 30.855469 31.648438 31.199219 L 31.648438 43.160156 C 31.648438 43.5 31.925781 43.78125 32.269531 43.78125 L 43.941406 43.78125 C 44.285156 43.78125 44.5625 43.5 44.5625 43.160156 L 44.5625 31.199219 C 44.5625 30.855469 44.285156 30.578125 43.941406 30.578125 Z M 43.320312 42.535156 L 32.890625 42.535156 L 32.890625 31.820312 L 43.320312 31.820312 Z M 43.320312 42.535156 " fill-opacity="1" fill-rule="nonzero"/><path fill="#ffffff" d="M 34.816406 41.601562 L 41.394531 41.601562 C 41.738281 41.601562 42.015625 41.324219 42.015625 40.980469 L 42.015625 40.3125 C 42.015625 38.964844 41.332031 37.738281 40.230469 37.027344 C 40.570312 36.578125 40.773438 36.023438 40.773438 35.417969 C 40.773438 33.949219 39.574219 32.753906 38.105469 32.753906 C 36.636719 32.753906 35.441406 33.949219 35.441406 35.417969 C 35.441406 36.023438 35.644531 36.578125 35.980469 37.027344 C 34.878906 37.738281 34.195312 38.96875 34.195312 40.3125 L 34.195312 40.980469 C 34.195312 41.324219 34.472656 41.601562 34.816406 41.601562 Z M 38.105469 33.996094 C 38.890625 33.996094 39.527344 34.636719 39.527344 35.417969 C 39.527344 36.203125 38.890625 36.84375 38.105469 36.84375 C 37.320312 36.84375 36.683594 36.203125 36.683594 35.417969 C 36.683594 34.632812 37.320312 33.996094 38.105469 33.996094 Z M 35.4375 40.3125 C 35.4375 39.246094 36.066406 38.289062 37.042969 37.863281 C 37.367188 38.003906 37.726562 38.085938 38.105469 38.085938 C 38.484375 38.085938 38.84375 38.003906 39.167969 37.863281 C 40.144531 38.289062 40.773438 39.246094 40.773438 40.3125 L 40.773438 40.359375 L 35.4375 40.359375 Z M 35.4375 40.3125 " fill-opacity="1" fill-rule="nonzero"/><g clip-path="url(#9b09a22a89)"><path fill="#ffffff" d="M 68.121094 23.117188 C 67.410156 22.636719 66.554688 22.464844 65.714844 22.628906 C 64.871094 22.789062 64.144531 23.269531 63.664062 23.980469 L 62.753906 25.328125 L 62.363281 25.910156 L 62.363281 18.023438 L 62.464844 17.984375 C 62.707031 17.882812 62.859375 17.640625 62.847656 17.378906 L 62.796875 16.394531 L 63.167969 16.023438 L 64.152344 16.074219 C 64.414062 16.085938 64.65625 15.933594 64.757812 15.691406 L 65.28125 14.425781 C 65.378906 14.183594 65.316406 13.902344 65.121094 13.726562 L 64.390625 13.066406 L 64.390625 12.539062 L 65.121094 11.882812 C 65.316406 11.703125 65.382812 11.425781 65.28125 11.183594 L 64.757812 9.917969 C 64.65625 9.675781 64.414062 9.523438 64.152344 9.535156 L 63.167969 9.585938 L 62.796875 9.214844 L 62.847656 8.230469 C 62.859375 7.96875 62.707031 7.726562 62.464844 7.625 L 61.199219 7.101562 C 60.957031 7 60.675781 7.0625 60.5 7.257812 L 59.839844 7.988281 L 59.3125 7.988281 L 58.65625 7.257812 C 58.480469 7.0625 58.199219 7 57.957031 7.101562 L 56.691406 7.625 C 56.449219 7.726562 56.296875 7.96875 56.308594 8.230469 L 56.359375 9.214844 L 55.988281 9.585938 L 55.003906 9.535156 C 54.742188 9.519531 54.5 9.675781 54.398438 9.917969 L 54.183594 10.433594 L 31.425781 10.433594 C 30.035156 10.433594 28.898438 11.566406 28.898438 12.960938 L 28.898438 43.804688 C 28.898438 45.199219 30.035156 46.332031 31.425781 46.332031 L 59.835938 46.332031 C 61.230469 46.332031 62.363281 45.199219 62.363281 43.804688 L 62.363281 37.371094 L 68.070312 28.921875 L 68.984375 27.570312 C 69.972656 26.105469 69.585938 24.109375 68.121094 23.117188 Z M 59.828125 38.90625 L 58.199219 37.804688 L 56.570312 36.707031 L 63.4375 26.539062 L 66.113281 28.347656 L 66.695312 28.738281 Z M 58.734375 39.664062 L 56.066406 40.960938 L 56.277344 38.003906 Z M 55.800781 11.804688 L 55.191406 11.253906 L 55.378906 10.796875 L 56.199219 10.839844 C 56.375 10.847656 56.546875 10.78125 56.667969 10.660156 L 57.433594 9.894531 C 57.558594 9.773438 57.621094 9.601562 57.613281 9.425781 L 57.570312 8.605469 L 58.027344 8.417969 L 58.578125 9.027344 C 58.695312 9.15625 58.863281 9.230469 59.039062 9.230469 L 60.117188 9.230469 C 60.292969 9.230469 60.460938 9.15625 60.578125 9.027344 L 61.128906 8.417969 L 61.582031 8.605469 L 61.542969 9.425781 C 61.53125 9.601562 61.597656 9.773438 61.722656 9.894531 L 62.484375 10.660156 C 62.609375 10.78125 62.78125 10.847656 62.957031 10.839844 L 63.777344 10.796875 L 63.964844 11.253906 L 63.355469 11.804688 C 63.222656 11.921875 63.148438 12.089844 63.148438 12.265625 L 63.148438 13.34375 C 63.148438 13.519531 63.222656 13.6875 63.355469 13.804688 L 63.964844 14.355469 L 63.777344 14.808594 L 62.957031 14.765625 C 62.78125 14.757812 62.609375 14.824219 62.484375 14.949219 L 61.722656 15.710938 C 61.597656 15.835938 61.53125 16.007812 61.542969 16.183594 L 61.582031 17.003906 L 61.128906 17.191406 L 60.578125 16.582031 C 60.460938 16.449219 60.292969 16.375 60.117188 16.375 L 59.039062 16.375 C 58.863281 16.375 58.695312 16.449219 58.578125 16.582031 L 58.027344 17.191406 L 57.570312 17.003906 L 57.613281 16.183594 C 57.621094 16.007812 57.558594 15.835938 57.433594 15.710938 L 56.667969 14.949219 C 56.546875 14.824219 56.375 14.757812 56.199219 14.765625 L 55.378906 14.808594 L 55.191406 14.355469 L 55.800781 13.804688 C 55.929688 13.6875 56.003906 13.519531 56.003906 13.34375 L 56.003906 12.265625 C 56.003906 12.089844 55.929688 11.921875 55.800781 11.804688 Z M 31.425781 11.675781 L 53.882812 11.675781 C 53.917969 11.753906 53.96875 11.824219 54.03125 11.882812 L 54.761719 12.539062 L 54.761719 13.066406 L 54.03125 13.726562 C 53.835938 13.902344 53.773438 14.183594 53.875 14.425781 L 54.191406 15.191406 L 30.140625 15.441406 L 30.140625 12.960938 C 30.140625 12.253906 30.71875 11.675781 31.425781 11.675781 Z M 61.121094 43.804688 C 61.121094 44.511719 60.546875 45.089844 59.835938 45.089844 L 31.425781 45.089844 C 30.71875 45.089844 30.140625 44.511719 30.140625 43.804688 L 30.140625 16.683594 L 56.355469 16.410156 C 56.355469 16.410156 56.355469 16.410156 56.359375 16.410156 L 56.308594 17.378906 C 56.296875 17.640625 56.449219 17.882812 56.691406 17.984375 L 57.957031 18.507812 C 58.199219 18.605469 58.480469 18.542969 58.65625 18.347656 L 59.3125 17.617188 L 59.839844 17.617188 L 60.5 18.347656 C 60.621094 18.480469 60.789062 18.554688 60.960938 18.554688 C 61.015625 18.554688 61.070312 18.546875 61.121094 18.53125 L 61.121094 27.648438 C 61.121094 27.679688 61.125 27.707031 61.128906 27.738281 L 55.195312 36.523438 C 55.09375 36.671875 55.066406 36.84375 55.101562 37.003906 L 54.753906 41.949219 C 54.738281 42.167969 54.839844 42.382812 55.023438 42.507812 C 55.128906 42.578125 55.25 42.613281 55.371094 42.613281 C 55.464844 42.613281 55.558594 42.59375 55.644531 42.550781 L 60.097656 40.378906 C 60.105469 40.378906 60.109375 40.378906 60.113281 40.378906 C 60.277344 40.347656 60.417969 40.253906 60.511719 40.117188 L 61.121094 39.210938 Z M 67.953125 26.875 L 67.390625 27.710938 L 64.132812 25.511719 L 64.695312 24.675781 C 64.988281 24.242188 65.433594 23.945312 65.949219 23.847656 C 66.464844 23.746094 66.988281 23.855469 67.425781 24.148438 C 68.324219 24.753906 68.558594 25.980469 67.953125 26.875 Z M 67.953125 26.875 " fill-opacity="1" fill-rule="nonzero"/></g><path fill="#ffffff" d="M 46.214844 32.101562 L 55.894531 32.101562 L 55.894531 33.34375 L 46.214844 33.34375 Z M 46.214844 32.101562 " fill-opacity="1" fill-rule="nonzero"/><path fill="#ffffff" d="M 46.214844 34.789062 L 54.742188 34.789062 L 54.742188 36.03125 L 46.214844 36.03125 Z M 46.214844 34.789062 " fill-opacity="1" fill-rule="nonzero"/><path fill="#ffffff" d="M 46.214844 37.476562 L 53.878906 37.476562 L 53.878906 38.71875 L 46.214844 38.71875 Z M 46.214844 37.476562 " fill-opacity="1" fill-rule="nonzero"/><path fill="#ffffff" d="M 46.214844 40.164062 L 53.878906 40.164062 L 53.878906 41.40625 L 46.214844 41.40625 Z M 46.214844 40.164062 " fill-opacity="1" fill-rule="nonzero"/><path fill="#ffffff" d="M 59.578125 15.480469 C 61.054688 15.480469 62.253906 14.28125 62.253906 12.804688 C 62.253906 11.328125 61.054688 10.128906 59.578125 10.128906 C 58.101562 10.128906 56.902344 11.328125 56.902344 12.804688 C 56.902344 14.28125 58.101562 15.480469 59.578125 15.480469 Z M 59.578125 11.371094 C 60.367188 11.371094 61.011719 12.011719 61.011719 12.804688 C 61.011719 13.59375 60.367188 14.238281 59.578125 14.238281 C 58.785156 14.238281 58.144531 13.59375 58.144531 12.804688 C 58.144531 12.011719 58.785156 11.371094 59.578125 11.371094 Z M 59.578125 11.371094 " fill-opacity="1" fill-rule="nonzero"/><g fill="#ffffff" fill-opacity="1"><g transform="translate(25.340704, 60.790429)"><g><path d="M 1.71875 -4.640625 L 0.125 -4.640625 L 0.125 -5.625 L 4.34375 -5.625 L 4.34375 -4.640625 L 2.75 -4.640625 L 2.75 0 L 1.71875 0 Z M 1.71875 -4.640625 "/></g></g></g><g fill="#ffffff" fill-opacity="1"><g transform="translate(29.796645, 60.790429)"><g><path d="M 0.46875 -4.015625 L 1.40625 -4.015625 L 1.421875 -3.59375 C 1.535156 -3.726562 1.6875 -3.847656 1.875 -3.953125 C 2.0625 -4.054688 2.257812 -4.109375 2.46875 -4.109375 C 2.53125 -4.109375 2.585938 -4.101562 2.640625 -4.09375 L 2.5625 -3.109375 C 2.457031 -3.128906 2.34375 -3.140625 2.21875 -3.140625 C 2.050781 -3.140625 1.894531 -3.097656 1.75 -3.015625 C 1.613281 -2.941406 1.519531 -2.851562 1.46875 -2.75 L 1.46875 0 L 0.46875 0 Z M 0.46875 -4.015625 "/></g></g></g><g fill="#ffffff" fill-opacity="1"><g transform="translate(32.450906, 60.790429)"><g><path d="M 1.328125 0.078125 C 1.003906 0.078125 0.726562 -0.03125 0.5 -0.25 C 0.28125 -0.46875 0.171875 -0.757812 0.171875 -1.125 C 0.171875 -1.476562 0.296875 -1.757812 0.546875 -1.96875 C 0.796875 -2.175781 1.09375 -2.320312 1.4375 -2.40625 C 1.78125 -2.5 2.113281 -2.550781 2.4375 -2.5625 C 2.414062 -2.800781 2.347656 -2.972656 2.234375 -3.078125 C 2.128906 -3.179688 1.953125 -3.234375 1.703125 -3.234375 C 1.523438 -3.234375 1.351562 -3.207031 1.1875 -3.15625 C 1.019531 -3.101562 0.828125 -3.023438 0.609375 -2.921875 L 0.515625 -3.734375 C 1.003906 -3.972656 1.492188 -4.09375 1.984375 -4.09375 C 2.453125 -4.09375 2.8125 -3.960938 3.0625 -3.703125 C 3.3125 -3.441406 3.4375 -3.03125 3.4375 -2.46875 L 3.4375 -1.390625 C 3.4375 -1.179688 3.445312 -1.03125 3.46875 -0.9375 C 3.488281 -0.851562 3.519531 -0.796875 3.5625 -0.765625 C 3.601562 -0.742188 3.679688 -0.734375 3.796875 -0.734375 L 3.921875 -0.734375 L 3.828125 0.078125 L 3.46875 0.078125 C 3.25 0.078125 3.0625 0.0351562 2.90625 -0.046875 C 2.757812 -0.128906 2.644531 -0.242188 2.5625 -0.390625 C 2.4375 -0.242188 2.257812 -0.128906 2.03125 -0.046875 C 1.8125 0.0351562 1.578125 0.078125 1.328125 0.078125 Z M 1.75 -0.6875 C 1.851562 -0.6875 1.96875 -0.710938 2.09375 -0.765625 C 2.226562 -0.816406 2.34375 -0.882812 2.4375 -0.96875 L 2.4375 -1.890625 C 2.113281 -1.867188 1.828125 -1.796875 1.578125 -1.671875 C 1.335938 -1.554688 1.21875 -1.390625 1.21875 -1.171875 C 1.21875 -1.003906 1.257812 -0.878906 1.34375 -0.796875 C 1.425781 -0.722656 1.5625 -0.6875 1.75 -0.6875 Z M 1.75 -0.6875 "/></g></g></g><g fill="#ffffff" fill-opacity="1"><g transform="translate(36.45642, 60.790429)"><g><path d="M 2.5 -4.09375 C 3 -4.09375 3.375 -3.925781 3.625 -3.59375 C 3.882812 -3.257812 4.015625 -2.8125 4.015625 -2.25 L 4.015625 0 L 3.015625 0 L 3.015625 -2.171875 C 3.015625 -2.546875 2.953125 -2.820312 2.828125 -3 C 2.703125 -3.175781 2.5 -3.265625 2.21875 -3.265625 C 1.914062 -3.265625 1.664062 -3.148438 1.46875 -2.921875 L 1.46875 0 L 0.46875 0 L 0.46875 -4.015625 L 1.40625 -4.015625 L 1.421875 -3.734375 C 1.753906 -3.972656 2.113281 -4.09375 2.5 -4.09375 Z M 2.5 -4.09375 "/></g></g></g><g fill="#ffffff" fill-opacity="1"><g transform="translate(40.896273, 60.790429)"><g><path d="M 2.0625 2.03125 C 1.488281 2.03125 1.03125 1.925781 0.6875 1.71875 C 0.351562 1.507812 0.1875 1.226562 0.1875 0.875 C 0.1875 0.488281 0.40625 0.171875 0.84375 -0.078125 C 0.601562 -0.222656 0.484375 -0.410156 0.484375 -0.640625 C 0.484375 -0.765625 0.519531 -0.875 0.59375 -0.96875 C 0.664062 -1.070312 0.765625 -1.148438 0.890625 -1.203125 C 0.691406 -1.347656 0.539062 -1.53125 0.4375 -1.75 C 0.332031 -1.976562 0.28125 -2.226562 0.28125 -2.5 C 0.28125 -2.789062 0.34375 -3.054688 0.46875 -3.296875 C 0.59375 -3.546875 0.78125 -3.742188 1.03125 -3.890625 C 1.28125 -4.035156 1.570312 -4.109375 1.90625 -4.109375 C 2.257812 -4.109375 2.566406 -4.019531 2.828125 -3.84375 C 2.921875 -3.894531 3.039062 -3.9375 3.1875 -3.96875 C 3.34375 -4 3.507812 -4.015625 3.6875 -4.015625 L 3.9375 -4.015625 L 3.875 -3.390625 L 3.515625 -3.390625 C 3.421875 -3.390625 3.347656 -3.390625 3.296875 -3.390625 C 3.453125 -3.140625 3.53125 -2.84375 3.53125 -2.5 C 3.53125 -2.207031 3.46875 -1.9375 3.34375 -1.6875 C 3.21875 -1.445312 3.03125 -1.253906 2.78125 -1.109375 C 2.53125 -0.972656 2.238281 -0.90625 1.90625 -0.90625 C 1.78125 -0.90625 1.640625 -0.921875 1.484375 -0.953125 C 1.421875 -0.929688 1.390625 -0.890625 1.390625 -0.828125 C 1.390625 -0.753906 1.429688 -0.695312 1.515625 -0.65625 C 1.597656 -0.625 1.738281 -0.59375 1.9375 -0.5625 L 2.625 -0.46875 C 3.550781 -0.351562 4.015625 0.03125 4.015625 0.6875 C 4.015625 1.09375 3.84375 1.414062 3.5 1.65625 C 3.15625 1.90625 2.675781 2.03125 2.0625 2.03125 Z M 1.90625 -1.640625 C 2.132812 -1.640625 2.3125 -1.710938 2.4375 -1.859375 C 2.5625 -2.015625 2.625 -2.226562 2.625 -2.5 C 2.625 -2.769531 2.5625 -2.976562 2.4375 -3.125 C 2.3125 -3.28125 2.132812 -3.359375 1.90625 -3.359375 C 1.664062 -3.359375 1.484375 -3.28125 1.359375 -3.125 C 1.234375 -2.976562 1.171875 -2.769531 1.171875 -2.5 C 1.171875 -2.226562 1.234375 -2.015625 1.359375 -1.859375 C 1.484375 -1.710938 1.664062 -1.640625 1.90625 -1.640625 Z M 2.09375 1.265625 C 2.78125 1.265625 3.125 1.097656 3.125 0.765625 C 3.125 0.617188 3.066406 0.507812 2.953125 0.4375 C 2.835938 0.363281 2.640625 0.300781 2.359375 0.25 L 1.484375 0.125 C 1.171875 0.25 1.015625 0.4375 1.015625 0.6875 C 1.015625 0.882812 1.109375 1.03125 1.296875 1.125 C 1.484375 1.21875 1.75 1.265625 2.09375 1.265625 Z M 2.09375 1.265625 "/></g></g></g><g fill="#ffffff" fill-opacity="1"><g transform="translate(44.925922, 60.790429)"><g/></g></g><g fill="#ffffff" fill-opacity="1"><g transform="translate(46.73564, 60.790429)"><g><path d="M 2.328125 0.078125 C 1.890625 0.078125 1.507812 -0.0078125 1.1875 -0.1875 C 0.863281 -0.375 0.617188 -0.625 0.453125 -0.9375 C 0.296875 -1.257812 0.21875 -1.613281 0.21875 -2 C 0.21875 -2.394531 0.296875 -2.75 0.453125 -3.0625 C 0.617188 -3.382812 0.863281 -3.640625 1.1875 -3.828125 C 1.507812 -4.015625 1.898438 -4.109375 2.359375 -4.109375 C 2.773438 -4.109375 3.132812 -4.019531 3.4375 -3.84375 L 3.359375 -3.046875 C 3.066406 -3.191406 2.769531 -3.265625 2.46875 -3.265625 C 2.082031 -3.265625 1.78125 -3.148438 1.5625 -2.921875 C 1.351562 -2.691406 1.25 -2.382812 1.25 -2 C 1.25 -1.632812 1.359375 -1.332031 1.578125 -1.09375 C 1.796875 -0.851562 2.085938 -0.734375 2.453125 -0.734375 C 2.753906 -0.734375 3.0625 -0.820312 3.375 -1 L 3.453125 -0.15625 C 3.316406 -0.0820312 3.148438 -0.0234375 2.953125 0.015625 C 2.753906 0.0546875 2.546875 0.078125 2.328125 0.078125 Z M 2.328125 0.078125 "/></g></g></g><g fill="#ffffff" fill-opacity="1"><g transform="translate(50.395297, 60.790429)"><g><path d="M 1.328125 0.078125 C 1.003906 0.078125 0.726562 -0.03125 0.5 -0.25 C 0.28125 -0.46875 0.171875 -0.757812 0.171875 -1.125 C 0.171875 -1.476562 0.296875 -1.757812 0.546875 -1.96875 C 0.796875 -2.175781 1.09375 -2.320312 1.4375 -2.40625 C 1.78125 -2.5 2.113281 -2.550781 2.4375 -2.5625 C 2.414062 -2.800781 2.347656 -2.972656 2.234375 -3.078125 C 2.128906 -3.179688 1.953125 -3.234375 1.703125 -3.234375 C 1.523438 -3.234375 1.351562 -3.207031 1.1875 -3.15625 C 1.019531 -3.101562 0.828125 -3.023438 0.609375 -2.921875 L 0.515625 -3.734375 C 1.003906 -3.972656 1.492188 -4.09375 1.984375 -4.09375 C 2.453125 -4.09375 2.8125 -3.960938 3.0625 -3.703125 C 3.3125 -3.441406 3.4375 -3.03125 3.4375 -2.46875 L 3.4375 -1.390625 C 3.4375 -1.179688 3.445312 -1.03125 3.46875 -0.9375 C 3.488281 -0.851562 3.519531 -0.796875 3.5625 -0.765625 C 3.601562 -0.742188 3.679688 -0.734375 3.796875 -0.734375 L 3.921875 -0.734375 L 3.828125 0.078125 L 3.46875 0.078125 C 3.25 0.078125 3.0625 0.0351562 2.90625 -0.046875 C 2.757812 -0.128906 2.644531 -0.242188 2.5625 -0.390625 C 2.4375 -0.242188 2.257812 -0.128906 2.03125 -0.046875 C 1.8125 0.0351562 1.578125 0.078125 1.328125 0.078125 Z M 1.75 -0.6875 C 1.851562 -0.6875 1.96875 -0.710938 2.09375 -0.765625 C 2.226562 -0.816406 2.34375 -0.882812 2.4375 -0.96875 L 2.4375 -1.890625 C 2.113281 -1.867188 1.828125 -1.796875 1.578125 -1.671875 C 1.335938 -1.554688 1.21875 -1.390625 1.21875 -1.171875 C 1.21875 -1.003906 1.257812 -0.878906 1.34375 -0.796875 C 1.425781 -0.722656 1.5625 -0.6875 1.75 -0.6875 Z M 1.203125 -5.21875 L 2.78125 -6.125 L 2.78125 -5.203125 L 1.203125 -4.59375 Z M 1.203125 -5.21875 "/></g></g></g><g fill="#ffffff" fill-opacity="1"><g transform="translate(54.400811, 60.790429)"><g/></g></g><g fill="#ffffff" fill-opacity="1"><g transform="translate(56.210529, 60.790429)"><g><path d="M 2.5 -4.09375 C 3 -4.09375 3.375 -3.925781 3.625 -3.59375 C 3.882812 -3.257812 4.015625 -2.8125 4.015625 -2.25 L 4.015625 0 L 3.015625 0 L 3.015625 -2.171875 C 3.015625 -2.546875 2.953125 -2.820312 2.828125 -3 C 2.703125 -3.175781 2.5 -3.265625 2.21875 -3.265625 C 1.914062 -3.265625 1.664062 -3.148438 1.46875 -2.921875 L 1.46875 0 L 0.46875 0 L 0.46875 -4.015625 L 1.40625 -4.015625 L 1.421875 -3.734375 C 1.753906 -3.972656 2.113281 -4.09375 2.5 -4.09375 Z M 2.5 -4.09375 "/></g></g></g><g fill="#ffffff" fill-opacity="1"><g transform="translate(60.650382, 60.790429)"><g><path d="M 2.5 -4.09375 C 3.007812 -4.09375 3.382812 -3.925781 3.625 -3.59375 C 3.875 -3.257812 4 -2.804688 4 -2.234375 L 4 0 L 3.015625 0 L 3.015625 -2.171875 C 3.015625 -2.546875 2.953125 -2.820312 2.828125 -3 C 2.703125 -3.175781 2.503906 -3.265625 2.234375 -3.265625 C 1.921875 -3.265625 1.660156 -3.148438 1.453125 -2.921875 L 1.453125 0 L 0.453125 0 L 0.453125 -6.03125 L 1.453125 -6.03125 L 1.453125 -3.765625 C 1.617188 -3.867188 1.785156 -3.945312 1.953125 -4 C 2.117188 -4.0625 2.300781 -4.09375 2.5 -4.09375 Z M 2.5 -4.09375 "/></g></g></g><g fill="#ffffff" fill-opacity="1"><g transform="translate(65.082187, 60.790429)"><g><path d="M 1.328125 0.078125 C 1.003906 0.078125 0.726562 -0.03125 0.5 -0.25 C 0.28125 -0.46875 0.171875 -0.757812 0.171875 -1.125 C 0.171875 -1.476562 0.296875 -1.757812 0.546875 -1.96875 C 0.796875 -2.175781 1.09375 -2.320312 1.4375 -2.40625 C 1.78125 -2.5 2.113281 -2.550781 2.4375 -2.5625 C 2.414062 -2.800781 2.347656 -2.972656 2.234375 -3.078125 C 2.128906 -3.179688 1.953125 -3.234375 1.703125 -3.234375 C 1.523438 -3.234375 1.351562 -3.207031 1.1875 -3.15625 C 1.019531 -3.101562 0.828125 -3.023438 0.609375 -2.921875 L 0.515625 -3.734375 C 1.003906 -3.972656 1.492188 -4.09375 1.984375 -4.09375 C 2.453125 -4.09375 2.8125 -3.960938 3.0625 -3.703125 C 3.3125 -3.441406 3.4375 -3.03125 3.4375 -2.46875 L 3.4375 -1.390625 C 3.4375 -1.179688 3.445312 -1.03125 3.46875 -0.9375 C 3.488281 -0.851562 3.519531 -0.796875 3.5625 -0.765625 C 3.601562 -0.742188 3.679688 -0.734375 3.796875 -0.734375 L 3.921875 -0.734375 L 3.828125 0.078125 L 3.46875 0.078125 C 3.25 0.078125 3.0625 0.0351562 2.90625 -0.046875 C 2.757812 -0.128906 2.644531 -0.242188 2.5625 -0.390625 C 2.4375 -0.242188 2.257812 -0.128906 2.03125 -0.046875 C 1.8125 0.0351562 1.578125 0.078125 1.328125 0.078125 Z M 1.75 -0.6875 C 1.851562 -0.6875 1.96875 -0.710938 2.09375 -0.765625 C 2.226562 -0.816406 2.34375 -0.882812 2.4375 -0.96875 L 2.4375 -1.890625 C 2.113281 -1.867188 1.828125 -1.796875 1.578125 -1.671875 C 1.335938 -1.554688 1.21875 -1.390625 1.21875 -1.171875 C 1.21875 -1.003906 1.257812 -0.878906 1.34375 -0.796875 C 1.425781 -0.722656 1.5625 -0.6875 1.75 -0.6875 Z M 0.921875 -5.09375 L 1.984375 -6 L 3.046875 -5.09375 L 3.046875 -4.453125 L 1.984375 -5.125 L 0.921875 -4.453125 Z M 0.921875 -5.09375 "/></g></g></g><g fill="#ffffff" fill-opacity="1"><g transform="translate(69.087701, 60.790429)"><g><path d="M 2.5 -4.09375 C 3 -4.09375 3.375 -3.925781 3.625 -3.59375 C 3.882812 -3.257812 4.015625 -2.8125 4.015625 -2.25 L 4.015625 0 L 3.015625 0 L 3.015625 -2.171875 C 3.015625 -2.546875 2.953125 -2.820312 2.828125 -3 C 2.703125 -3.175781 2.5 -3.265625 2.21875 -3.265625 C 1.914062 -3.265625 1.664062 -3.148438 1.46875 -2.921875 L 1.46875 0 L 0.46875 0 L 0.46875 -4.015625 L 1.40625 -4.015625 L 1.421875 -3.734375 C 1.753906 -3.972656 2.113281 -4.09375 2.5 -4.09375 Z M 2.5 -4.09375 "/></g></g></g></svg>