<svg xmlns="http://www.w3.org/2000/svg" xmlns:xlink="http://www.w3.org/1999/xlink" width="132" zoomAndPan="magnify" viewBox="0 0 98.88 70.499998" height="94" preserveAspectRatio="xMidYMid meet" version="1.0"><defs><g/><clipPath id="153a715f06"><path d="M 22.496094 12 L 65 12 L 65 14 L 22.496094 14 Z M 22.496094 12 " clip-rule="nonzero"/></clipPath><clipPath id="ca293b7fcb"><path d="M 67 8 L 76.117188 8 L 76.117188 18 L 67 18 Z M 67 8 " clip-rule="nonzero"/></clipPath><clipPath id="df40587dab"><path d="M 22.496094 6.101562 L 66 6.101562 L 66 47.804688 L 22.496094 47.804688 Z M 22.496094 6.101562 " clip-rule="nonzero"/></clipPath></defs><g clip-path="url(#153a715f06)"><path fill="#ffffff" d="M 64.347656 13.769531 L 23.410156 13.769531 C 23.261719 13.769531 23.136719 13.714844 23.035156 13.613281 C 22.929688 13.507812 22.878906 13.382812 22.878906 13.234375 C 22.878906 13.089844 22.929688 12.964844 23.035156 12.859375 C 23.136719 12.753906 23.261719 12.703125 23.410156 12.703125 L 64.347656 12.703125 C 64.492188 12.703125 64.621094 12.753906 64.722656 12.859375 C 64.828125 12.964844 64.878906 13.089844 64.878906 13.234375 C 64.878906 13.382812 64.828125 13.507812 64.722656 13.613281 C 64.621094 13.714844 64.492188 13.769531 64.347656 13.769531 Z M 64.347656 13.769531 " fill-opacity="1" fill-rule="nonzero"/></g><path fill="#ffffff" d="M 25.984375 11.199219 C 25.746094 11.199219 25.582031 11.089844 25.492188 10.871094 C 25.402344 10.648438 25.4375 10.457031 25.605469 10.289062 L 26.941406 8.953125 C 27.046875 8.851562 27.171875 8.800781 27.316406 8.800781 C 27.464844 8.804688 27.585938 8.855469 27.691406 8.957031 C 27.792969 9.0625 27.84375 9.1875 27.847656 9.332031 C 27.847656 9.476562 27.796875 9.601562 27.695312 9.707031 L 26.359375 11.042969 C 26.253906 11.144531 26.128906 11.199219 25.984375 11.199219 Z M 25.984375 11.199219 " fill-opacity="1" fill-rule="nonzero"/><path fill="#ffffff" d="M 27.320312 11.199219 C 27.171875 11.199219 27.046875 11.144531 26.941406 11.042969 L 25.605469 9.707031 C 25.503906 9.601562 25.449219 9.476562 25.449219 9.328125 C 25.449219 9.183594 25.503906 9.058594 25.605469 8.953125 C 25.710938 8.851562 25.835938 8.796875 25.984375 8.796875 C 26.128906 8.796875 26.253906 8.851562 26.359375 8.953125 L 27.695312 10.289062 C 27.863281 10.457031 27.902344 10.648438 27.8125 10.871094 C 27.71875 11.089844 27.554688 11.199219 27.320312 11.199219 Z M 27.320312 11.199219 " fill-opacity="1" fill-rule="nonzero"/><path fill="#ffffff" d="M 62.992188 39.269531 C 62.910156 39.269531 62.832031 39.25 62.757812 39.214844 L 56.632812 36.175781 C 56.5 36.109375 56.410156 36.007812 56.363281 35.867188 C 56.316406 35.730469 56.328125 35.59375 56.390625 35.460938 L 67.347656 13.375 C 67.414062 13.246094 67.515625 13.15625 67.65625 13.109375 C 67.792969 13.0625 67.929688 13.070312 68.0625 13.136719 L 74.1875 16.175781 C 74.316406 16.242188 74.40625 16.34375 74.453125 16.480469 C 74.5 16.621094 74.492188 16.757812 74.425781 16.886719 L 63.472656 38.972656 C 63.375 39.171875 63.214844 39.269531 62.992188 39.269531 Z M 57.582031 35.457031 L 62.753906 38.023438 L 73.238281 16.890625 L 68.066406 14.328125 Z M 57.582031 35.457031 " fill-opacity="1" fill-rule="nonzero"/><path fill="#ffffff" d="M 57.285156 43.617188 C 57.144531 43.617188 57.023438 43.570312 56.917969 43.472656 C 56.816406 43.375 56.761719 43.257812 56.753906 43.117188 L 56.335938 35.726562 C 56.332031 35.632812 56.351562 35.542969 56.394531 35.457031 C 56.4375 35.375 56.496094 35.304688 56.574219 35.253906 C 56.65625 35.203125 56.742188 35.171875 56.835938 35.167969 C 56.929688 35.160156 57.019531 35.179688 57.105469 35.222656 L 63.230469 38.257812 C 63.3125 38.300781 63.382812 38.359375 63.433594 38.433594 C 63.484375 38.511719 63.515625 38.59375 63.523438 38.6875 C 63.535156 38.777344 63.519531 38.867188 63.480469 38.949219 C 63.445312 39.035156 63.390625 39.105469 63.316406 39.160156 L 57.609375 43.511719 C 57.511719 43.582031 57.40625 43.617188 57.285156 43.617188 Z M 57.453125 36.582031 L 57.761719 42.054688 L 61.992188 38.832031 Z M 57.453125 36.582031 " fill-opacity="1" fill-rule="nonzero"/><g clip-path="url(#ca293b7fcb)"><path fill="#ffffff" d="M 73.949219 17.183594 C 73.867188 17.183594 73.789062 17.164062 73.714844 17.128906 L 67.585938 14.089844 C 67.457031 14.023438 67.367188 13.921875 67.320312 13.78125 C 67.273438 13.644531 67.28125 13.507812 67.347656 13.375 L 69.03125 9.984375 C 69.144531 9.753906 69.300781 9.550781 69.496094 9.382812 C 69.691406 9.210938 69.910156 9.085938 70.152344 9.003906 C 70.398438 8.921875 70.648438 8.890625 70.90625 8.90625 C 71.164062 8.921875 71.410156 8.988281 71.640625 9.105469 L 75.230469 10.882812 C 75.460938 11 75.664062 11.152344 75.832031 11.347656 C 76.003906 11.542969 76.128906 11.761719 76.210938 12.007812 C 76.292969 12.253906 76.324219 12.503906 76.308594 12.761719 C 76.289062 13.019531 76.226562 13.261719 76.109375 13.496094 L 74.425781 16.886719 C 74.328125 17.085938 74.167969 17.183594 73.949219 17.183594 Z M 68.539062 13.375 L 73.710938 15.9375 L 75.15625 13.023438 C 75.265625 12.804688 75.28125 12.578125 75.203125 12.347656 C 75.125 12.117188 74.976562 11.945312 74.757812 11.839844 L 71.167969 10.058594 C 70.949219 9.949219 70.726562 9.933594 70.492188 10.011719 C 70.261719 10.089844 70.09375 10.238281 69.984375 10.457031 Z M 68.539062 13.375 " fill-opacity="1" fill-rule="nonzero"/></g><g clip-path="url(#df40587dab)"><path fill="#ffffff" d="M 62.414062 47.835938 L 25.339844 47.835938 C 24.964844 47.835938 24.601562 47.761719 24.253906 47.617188 C 23.90625 47.472656 23.597656 47.265625 23.332031 47 C 23.066406 46.734375 22.863281 46.425781 22.71875 46.078125 C 22.574219 45.730469 22.5 45.371094 22.5 44.992188 L 22.5 8.960938 C 22.5 8.585938 22.574219 8.222656 22.71875 7.875 C 22.863281 7.527344 23.066406 7.21875 23.332031 6.953125 C 23.597656 6.6875 23.90625 6.480469 24.253906 6.335938 C 24.601562 6.191406 24.964844 6.121094 25.339844 6.117188 L 62.414062 6.117188 C 62.792969 6.121094 63.15625 6.191406 63.503906 6.335938 C 63.851562 6.480469 64.15625 6.6875 64.425781 6.953125 C 64.691406 7.21875 64.894531 7.527344 65.039062 7.875 C 65.183594 8.222656 65.257812 8.585938 65.257812 8.960938 L 65.257812 19.859375 C 65.257812 19.945312 65.238281 20.023438 65.203125 20.097656 L 57.40625 35.808594 L 57.761719 42.054688 L 62.574219 38.390625 L 64.25 35.011719 C 64.304688 34.902344 64.386719 34.820312 64.5 34.765625 C 64.609375 34.714844 64.726562 34.703125 64.847656 34.730469 C 64.96875 34.757812 65.066406 34.820312 65.140625 34.917969 C 65.21875 35.015625 65.257812 35.125 65.257812 35.246094 L 65.257812 44.992188 C 65.257812 45.367188 65.183594 45.730469 65.039062 46.078125 C 64.894531 46.425781 64.691406 46.734375 64.425781 47 C 64.15625 47.265625 63.851562 47.472656 63.503906 47.617188 C 63.15625 47.761719 62.792969 47.835938 62.414062 47.835938 Z M 25.339844 7.183594 C 25.105469 7.183594 24.878906 7.230469 24.660156 7.320312 C 24.445312 7.410156 24.253906 7.539062 24.085938 7.703125 C 23.917969 7.871094 23.789062 8.0625 23.699219 8.28125 C 23.609375 8.5 23.566406 8.726562 23.5625 8.960938 L 23.5625 44.992188 C 23.566406 45.226562 23.609375 45.453125 23.699219 45.671875 C 23.789062 45.890625 23.917969 46.082031 24.085938 46.25 C 24.253906 46.414062 24.445312 46.542969 24.660156 46.632812 C 24.878906 46.722656 25.105469 46.769531 25.339844 46.769531 L 62.414062 46.769531 C 62.652344 46.769531 62.878906 46.722656 63.09375 46.632812 C 63.3125 46.542969 63.503906 46.414062 63.671875 46.25 C 63.839844 46.082031 63.96875 45.890625 64.058594 45.671875 C 64.148438 45.453125 64.191406 45.226562 64.191406 44.992188 L 64.191406 37.519531 L 63.472656 38.972656 C 63.433594 39.046875 63.382812 39.109375 63.316406 39.160156 L 57.609375 43.511719 C 57.4375 43.640625 57.257812 43.660156 57.0625 43.570312 C 56.867188 43.480469 56.765625 43.328125 56.753906 43.117188 L 56.335938 35.726562 C 56.332031 35.632812 56.351562 35.546875 56.390625 35.460938 L 64.191406 19.734375 L 64.191406 8.960938 C 64.191406 8.726562 64.148438 8.5 64.058594 8.28125 C 63.96875 8.0625 63.839844 7.871094 63.671875 7.703125 C 63.503906 7.539062 63.3125 7.410156 63.09375 7.320312 C 62.878906 7.230469 62.652344 7.183594 62.414062 7.183594 Z M 62.996094 38.738281 Z M 62.996094 38.738281 " fill-opacity="1" fill-rule="nonzero"/></g><path fill="#ffffff" d="M 54.25 32.65625 L 28.171875 32.65625 C 28.027344 32.65625 27.902344 32.601562 27.796875 32.5 C 27.691406 32.394531 27.640625 32.269531 27.640625 32.121094 C 27.640625 31.976562 27.691406 31.851562 27.796875 31.746094 C 27.902344 31.640625 28.027344 31.589844 28.171875 31.589844 L 54.25 31.589844 C 54.398438 31.589844 54.523438 31.640625 54.625 31.746094 C 54.730469 31.851562 54.78125 31.976562 54.78125 32.121094 C 54.78125 32.269531 54.730469 32.394531 54.625 32.5 C 54.523438 32.601562 54.398438 32.65625 54.25 32.65625 Z M 54.25 32.65625 " fill-opacity="1" fill-rule="nonzero"/><path fill="#ffffff" d="M 54.25 38.851562 L 28.171875 38.851562 C 28.027344 38.851562 27.902344 38.800781 27.796875 38.695312 C 27.691406 38.589844 27.640625 38.464844 27.640625 38.320312 C 27.640625 38.171875 27.691406 38.046875 27.796875 37.941406 C 27.902344 37.839844 28.027344 37.785156 28.171875 37.785156 L 54.25 37.785156 C 54.398438 37.785156 54.523438 37.839844 54.625 37.941406 C 54.730469 38.046875 54.78125 38.171875 54.78125 38.320312 C 54.78125 38.464844 54.730469 38.589844 54.625 38.695312 C 54.523438 38.800781 54.398438 38.851562 54.25 38.851562 Z M 54.25 38.851562 " fill-opacity="1" fill-rule="nonzero"/><path fill="#ffffff" d="M 28.601562 19.675781 C 29.023438 19.585938 29.6875 19.519531 30.363281 19.519531 C 31.324219 19.519531 31.945312 19.6875 32.410156 20.0625 C 32.796875 20.351562 33.03125 20.792969 33.03125 21.378906 C 33.03125 22.097656 32.554688 22.730469 31.769531 23.015625 L 31.769531 23.039062 C 32.476562 23.214844 33.304688 23.804688 33.304688 24.910156 C 33.316406 25.5 33.105469 26 32.675781 26.402344 C 32.15625 26.878906 31.3125 27.101562 30.097656 27.101562 C 29.597656 27.105469 29.097656 27.074219 28.601562 27.011719 Z M 29.566406 22.730469 L 30.441406 22.730469 C 31.457031 22.730469 32.054688 22.199219 32.054688 21.480469 C 32.054688 20.605469 31.390625 20.261719 30.417969 20.261719 C 29.976562 20.261719 29.71875 20.292969 29.566406 20.328125 Z M 29.566406 26.304688 C 29.832031 26.339844 30.101562 26.355469 30.375 26.347656 C 31.371094 26.347656 32.289062 25.984375 32.289062 24.898438 C 32.289062 23.878906 31.414062 23.460938 30.363281 23.460938 L 29.566406 23.460938 Z M 29.566406 26.304688 " fill-opacity="1" fill-rule="nonzero"/><path fill="#ffffff" d="M 34.933594 19.574219 L 35.894531 19.574219 L 35.894531 26.226562 L 39.082031 26.226562 L 39.082031 27.035156 L 34.933594 27.035156 Z M 34.933594 19.574219 " fill-opacity="1" fill-rule="nonzero"/><path fill="#ffffff" d="M 46.433594 23.226562 C 46.433594 25.796875 44.871094 27.15625 42.96875 27.15625 C 41 27.15625 39.613281 25.628906 39.613281 23.371094 C 39.613281 21.003906 41.085938 19.453125 43.078125 19.453125 C 45.117188 19.453125 46.433594 21.015625 46.433594 23.226562 Z M 40.644531 23.347656 C 40.644531 24.941406 41.507812 26.371094 43.023438 26.371094 C 44.550781 26.371094 45.414062 24.964844 45.414062 23.273438 C 45.414062 21.789062 44.640625 20.238281 43.035156 20.238281 C 41.441406 20.238281 40.644531 21.710938 40.644531 23.347656 Z M 40.644531 23.347656 " fill-opacity="1" fill-rule="nonzero"/><path fill="#ffffff" d="M 53.691406 26.703125 C 52.953125 26.96875 52.1875 27.105469 51.402344 27.113281 C 50.273438 27.113281 49.34375 26.824219 48.613281 26.128906 C 47.972656 25.507812 47.574219 24.511719 47.574219 23.347656 C 47.582031 21.125 49.109375 19.496094 51.613281 19.496094 C 52.476562 19.496094 53.148438 19.6875 53.472656 19.839844 L 53.238281 20.625 C 52.839844 20.449219 52.34375 20.304688 51.589844 20.304688 C 49.773438 20.304688 48.589844 21.433594 48.589844 23.304688 C 48.589844 25.199219 49.730469 26.316406 51.46875 26.316406 C 52.097656 26.316406 52.53125 26.226562 52.753906 26.117188 L 52.753906 23.890625 L 51.234375 23.890625 L 51.234375 23.117188 L 53.691406 23.117188 Z M 53.691406 26.703125 " fill-opacity="1" fill-rule="nonzero"/><g fill="#ffffff" fill-opacity="1"><g transform="translate(24.966851, 62.719077)"><g><path d="M 1.734375 -4.703125 L 0.125 -4.703125 L 0.125 -5.71875 L 4.40625 -5.71875 L 4.40625 -4.703125 L 2.78125 -4.703125 L 2.78125 0 L 1.734375 0 Z M 1.734375 -4.703125 "/></g></g></g><g fill="#ffffff" fill-opacity="1"><g transform="translate(29.491916, 62.719077)"><g><path d="M 0.46875 -4.078125 L 1.421875 -4.078125 L 1.453125 -3.65625 C 1.566406 -3.789062 1.71875 -3.910156 1.90625 -4.015625 C 2.09375 -4.117188 2.289062 -4.171875 2.5 -4.171875 C 2.5625 -4.171875 2.625 -4.164062 2.6875 -4.15625 L 2.609375 -3.15625 C 2.503906 -3.175781 2.382812 -3.1875 2.25 -3.1875 C 2.082031 -3.1875 1.925781 -3.144531 1.78125 -3.0625 C 1.644531 -2.988281 1.546875 -2.894531 1.484375 -2.78125 L 1.484375 0 L 0.46875 0 Z M 0.46875 -4.078125 "/></g></g></g><g fill="#ffffff" fill-opacity="1"><g transform="translate(32.187354, 62.719077)"><g><path d="M 1.359375 0.078125 C 1.015625 0.078125 0.726562 -0.03125 0.5 -0.25 C 0.28125 -0.46875 0.171875 -0.765625 0.171875 -1.140625 C 0.171875 -1.492188 0.296875 -1.78125 0.546875 -2 C 0.804688 -2.21875 1.109375 -2.367188 1.453125 -2.453125 C 1.804688 -2.546875 2.144531 -2.597656 2.46875 -2.609375 C 2.457031 -2.847656 2.394531 -3.019531 2.28125 -3.125 C 2.164062 -3.226562 1.984375 -3.28125 1.734375 -3.28125 C 1.554688 -3.28125 1.378906 -3.253906 1.203125 -3.203125 C 1.035156 -3.148438 0.835938 -3.070312 0.609375 -2.96875 L 0.515625 -3.796875 C 1.015625 -4.035156 1.515625 -4.15625 2.015625 -4.15625 C 2.492188 -4.15625 2.859375 -4.019531 3.109375 -3.75 C 3.359375 -3.488281 3.484375 -3.078125 3.484375 -2.515625 L 3.484375 -1.40625 C 3.484375 -1.195312 3.492188 -1.046875 3.515625 -0.953125 C 3.535156 -0.867188 3.566406 -0.8125 3.609375 -0.78125 C 3.660156 -0.757812 3.738281 -0.75 3.84375 -0.75 L 3.984375 -0.75 L 3.890625 0.078125 L 3.515625 0.078125 C 3.296875 0.078125 3.109375 0.0351562 2.953125 -0.046875 C 2.804688 -0.128906 2.691406 -0.242188 2.609375 -0.390625 C 2.472656 -0.242188 2.289062 -0.128906 2.0625 -0.046875 C 1.84375 0.0351562 1.609375 0.078125 1.359375 0.078125 Z M 1.78125 -0.6875 C 1.882812 -0.6875 2 -0.710938 2.125 -0.765625 C 2.257812 -0.816406 2.375 -0.890625 2.46875 -0.984375 L 2.46875 -1.921875 C 2.144531 -1.898438 1.859375 -1.828125 1.609375 -1.703125 C 1.359375 -1.578125 1.234375 -1.40625 1.234375 -1.1875 C 1.234375 -1.019531 1.273438 -0.894531 1.359375 -0.8125 C 1.453125 -0.726562 1.59375 -0.6875 1.78125 -0.6875 Z M 1.78125 -0.6875 "/></g></g></g><g fill="#ffffff" fill-opacity="1"><g transform="translate(36.255006, 62.719077)"><g><path d="M 2.53125 -4.15625 C 3.039062 -4.15625 3.425781 -3.984375 3.6875 -3.640625 C 3.945312 -3.304688 4.078125 -2.851562 4.078125 -2.28125 L 4.078125 0 L 3.0625 0 L 3.0625 -2.203125 C 3.0625 -2.578125 3 -2.851562 2.875 -3.03125 C 2.75 -3.21875 2.539062 -3.3125 2.25 -3.3125 C 1.945312 -3.3125 1.691406 -3.195312 1.484375 -2.96875 L 1.484375 0 L 0.46875 0 L 0.46875 -4.078125 L 1.421875 -4.078125 L 1.4375 -3.796875 C 1.78125 -4.035156 2.144531 -4.15625 2.53125 -4.15625 Z M 2.53125 -4.15625 "/></g></g></g><g fill="#ffffff" fill-opacity="1"><g transform="translate(40.763735, 62.719077)"><g><path d="M 2.09375 2.0625 C 1.507812 2.0625 1.046875 1.957031 0.703125 1.75 C 0.367188 1.539062 0.203125 1.253906 0.203125 0.890625 C 0.203125 0.492188 0.421875 0.171875 0.859375 -0.078125 C 0.617188 -0.222656 0.5 -0.414062 0.5 -0.65625 C 0.5 -0.78125 0.535156 -0.890625 0.609375 -0.984375 C 0.679688 -1.085938 0.78125 -1.164062 0.90625 -1.21875 C 0.695312 -1.375 0.539062 -1.566406 0.4375 -1.796875 C 0.332031 -2.023438 0.28125 -2.273438 0.28125 -2.546875 C 0.28125 -2.835938 0.34375 -3.109375 0.46875 -3.359375 C 0.601562 -3.609375 0.796875 -3.804688 1.046875 -3.953125 C 1.296875 -4.097656 1.59375 -4.171875 1.9375 -4.171875 C 2.289062 -4.171875 2.601562 -4.082031 2.875 -3.90625 C 2.957031 -3.957031 3.078125 -4 3.234375 -4.03125 C 3.390625 -4.0625 3.5625 -4.078125 3.75 -4.078125 L 4 -4.078125 L 3.9375 -3.453125 L 3.578125 -3.453125 C 3.484375 -3.453125 3.40625 -3.445312 3.34375 -3.4375 C 3.507812 -3.1875 3.59375 -2.890625 3.59375 -2.546875 C 3.59375 -2.242188 3.523438 -1.96875 3.390625 -1.71875 C 3.265625 -1.46875 3.078125 -1.269531 2.828125 -1.125 C 2.578125 -0.988281 2.28125 -0.921875 1.9375 -0.921875 C 1.8125 -0.921875 1.664062 -0.9375 1.5 -0.96875 C 1.4375 -0.945312 1.40625 -0.90625 1.40625 -0.84375 C 1.40625 -0.769531 1.445312 -0.710938 1.53125 -0.671875 C 1.625 -0.628906 1.769531 -0.597656 1.96875 -0.578125 L 2.671875 -0.484375 C 3.609375 -0.359375 4.078125 0.0351562 4.078125 0.703125 C 4.078125 1.117188 3.898438 1.445312 3.546875 1.6875 C 3.203125 1.9375 2.71875 2.0625 2.09375 2.0625 Z M 1.9375 -1.671875 C 2.164062 -1.671875 2.34375 -1.75 2.46875 -1.90625 C 2.601562 -2.0625 2.671875 -2.273438 2.671875 -2.546875 C 2.671875 -2.816406 2.601562 -3.03125 2.46875 -3.1875 C 2.34375 -3.34375 2.164062 -3.421875 1.9375 -3.421875 C 1.695312 -3.421875 1.507812 -3.34375 1.375 -3.1875 C 1.25 -3.03125 1.1875 -2.816406 1.1875 -2.546875 C 1.1875 -2.273438 1.25 -2.0625 1.375 -1.90625 C 1.507812 -1.75 1.695312 -1.671875 1.9375 -1.671875 Z M 2.140625 1.296875 C 2.828125 1.296875 3.171875 1.125 3.171875 0.78125 C 3.171875 0.625 3.109375 0.507812 2.984375 0.4375 C 2.867188 0.363281 2.675781 0.304688 2.40625 0.265625 L 1.5 0.125 C 1.1875 0.25 1.03125 0.441406 1.03125 0.703125 C 1.03125 0.898438 1.125 1.046875 1.3125 1.140625 C 1.507812 1.242188 1.785156 1.296875 2.140625 1.296875 Z M 2.140625 1.296875 "/></g></g></g><g fill="#ffffff" fill-opacity="1"><g transform="translate(44.855896, 62.719077)"><g/></g></g><g fill="#ffffff" fill-opacity="1"><g transform="translate(46.693688, 62.719077)"><g><path d="M 2.375 0.078125 C 1.914062 0.078125 1.523438 -0.015625 1.203125 -0.203125 C 0.878906 -0.390625 0.632812 -0.644531 0.46875 -0.96875 C 0.3125 -1.289062 0.234375 -1.644531 0.234375 -2.03125 C 0.234375 -2.425781 0.3125 -2.785156 0.46875 -3.109375 C 0.632812 -3.441406 0.878906 -3.703125 1.203125 -3.890625 C 1.535156 -4.078125 1.9375 -4.171875 2.40625 -4.171875 C 2.820312 -4.171875 3.1875 -4.082031 3.5 -3.90625 L 3.421875 -3.09375 C 3.117188 -3.238281 2.8125 -3.3125 2.5 -3.3125 C 2.113281 -3.3125 1.8125 -3.191406 1.59375 -2.953125 C 1.375 -2.722656 1.265625 -2.414062 1.265625 -2.03125 C 1.265625 -1.664062 1.375 -1.359375 1.59375 -1.109375 C 1.820312 -0.867188 2.125 -0.75 2.5 -0.75 C 2.800781 -0.75 3.109375 -0.835938 3.421875 -1.015625 L 3.515625 -0.15625 C 3.367188 -0.0820312 3.195312 -0.0234375 3 0.015625 C 2.800781 0.0546875 2.59375 0.078125 2.375 0.078125 Z M 2.375 0.078125 "/></g></g></g><g fill="#ffffff" fill-opacity="1"><g transform="translate(50.410118, 62.719077)"><g><path d="M 1.359375 0.078125 C 1.015625 0.078125 0.726562 -0.03125 0.5 -0.25 C 0.28125 -0.46875 0.171875 -0.765625 0.171875 -1.140625 C 0.171875 -1.492188 0.296875 -1.78125 0.546875 -2 C 0.804688 -2.21875 1.109375 -2.367188 1.453125 -2.453125 C 1.804688 -2.546875 2.144531 -2.597656 2.46875 -2.609375 C 2.457031 -2.847656 2.394531 -3.019531 2.28125 -3.125 C 2.164062 -3.226562 1.984375 -3.28125 1.734375 -3.28125 C 1.554688 -3.28125 1.378906 -3.253906 1.203125 -3.203125 C 1.035156 -3.148438 0.835938 -3.070312 0.609375 -2.96875 L 0.515625 -3.796875 C 1.015625 -4.035156 1.515625 -4.15625 2.015625 -4.15625 C 2.492188 -4.15625 2.859375 -4.019531 3.109375 -3.75 C 3.359375 -3.488281 3.484375 -3.078125 3.484375 -2.515625 L 3.484375 -1.40625 C 3.484375 -1.195312 3.492188 -1.046875 3.515625 -0.953125 C 3.535156 -0.867188 3.566406 -0.8125 3.609375 -0.78125 C 3.660156 -0.757812 3.738281 -0.75 3.84375 -0.75 L 3.984375 -0.75 L 3.890625 0.078125 L 3.515625 0.078125 C 3.296875 0.078125 3.109375 0.0351562 2.953125 -0.046875 C 2.804688 -0.128906 2.691406 -0.242188 2.609375 -0.390625 C 2.472656 -0.242188 2.289062 -0.128906 2.0625 -0.046875 C 1.84375 0.0351562 1.609375 0.078125 1.359375 0.078125 Z M 1.78125 -0.6875 C 1.882812 -0.6875 2 -0.710938 2.125 -0.765625 C 2.257812 -0.816406 2.375 -0.890625 2.46875 -0.984375 L 2.46875 -1.921875 C 2.144531 -1.898438 1.859375 -1.828125 1.609375 -1.703125 C 1.359375 -1.578125 1.234375 -1.40625 1.234375 -1.1875 C 1.234375 -1.019531 1.273438 -0.894531 1.359375 -0.8125 C 1.453125 -0.726562 1.59375 -0.6875 1.78125 -0.6875 Z M 1.21875 -5.296875 L 2.828125 -6.21875 L 2.828125 -5.28125 L 1.21875 -4.65625 Z M 1.21875 -5.296875 "/></g></g></g><g fill="#ffffff" fill-opacity="1"><g transform="translate(54.477769, 62.719077)"><g/></g></g><g fill="#ffffff" fill-opacity="1"><g transform="translate(56.315561, 62.719077)"><g><path d="M 2.53125 -4.15625 C 3.039062 -4.15625 3.425781 -3.984375 3.6875 -3.640625 C 3.945312 -3.304688 4.078125 -2.851562 4.078125 -2.28125 L 4.078125 0 L 3.0625 0 L 3.0625 -2.203125 C 3.0625 -2.578125 3 -2.851562 2.875 -3.03125 C 2.75 -3.21875 2.539062 -3.3125 2.25 -3.3125 C 1.945312 -3.3125 1.691406 -3.195312 1.484375 -2.96875 L 1.484375 0 L 0.46875 0 L 0.46875 -4.078125 L 1.421875 -4.078125 L 1.4375 -3.796875 C 1.78125 -4.035156 2.144531 -4.15625 2.53125 -4.15625 Z M 2.53125 -4.15625 "/></g></g></g><g fill="#ffffff" fill-opacity="1"><g transform="translate(60.82429, 62.719077)"><g><path d="M 2.53125 -4.15625 C 3.050781 -4.15625 3.4375 -3.984375 3.6875 -3.640625 C 3.9375 -3.304688 4.0625 -2.847656 4.0625 -2.265625 L 4.0625 0 L 3.0625 0 L 3.0625 -2.203125 C 3.0625 -2.585938 3 -2.867188 2.875 -3.046875 C 2.75 -3.222656 2.546875 -3.3125 2.265625 -3.3125 C 1.953125 -3.3125 1.691406 -3.195312 1.484375 -2.96875 L 1.484375 0 L 0.46875 0 L 0.46875 -6.125 L 1.484375 -6.125 L 1.484375 -3.828125 C 1.640625 -3.929688 1.800781 -4.007812 1.96875 -4.0625 C 2.144531 -4.125 2.332031 -4.15625 2.53125 -4.15625 Z M 2.53125 -4.15625 "/></g></g></g><g fill="#ffffff" fill-opacity="1"><g transform="translate(65.324847, 62.719077)"><g><path d="M 1.359375 0.078125 C 1.015625 0.078125 0.726562 -0.03125 0.5 -0.25 C 0.28125 -0.46875 0.171875 -0.765625 0.171875 -1.140625 C 0.171875 -1.492188 0.296875 -1.78125 0.546875 -2 C 0.804688 -2.21875 1.109375 -2.367188 1.453125 -2.453125 C 1.804688 -2.546875 2.144531 -2.597656 2.46875 -2.609375 C 2.457031 -2.847656 2.394531 -3.019531 2.28125 -3.125 C 2.164062 -3.226562 1.984375 -3.28125 1.734375 -3.28125 C 1.554688 -3.28125 1.378906 -3.253906 1.203125 -3.203125 C 1.035156 -3.148438 0.835938 -3.070312 0.609375 -2.96875 L 0.515625 -3.796875 C 1.015625 -4.035156 1.515625 -4.15625 2.015625 -4.15625 C 2.492188 -4.15625 2.859375 -4.019531 3.109375 -3.75 C 3.359375 -3.488281 3.484375 -3.078125 3.484375 -2.515625 L 3.484375 -1.40625 C 3.484375 -1.195312 3.492188 -1.046875 3.515625 -0.953125 C 3.535156 -0.867188 3.566406 -0.8125 3.609375 -0.78125 C 3.660156 -0.757812 3.738281 -0.75 3.84375 -0.75 L 3.984375 -0.75 L 3.890625 0.078125 L 3.515625 0.078125 C 3.296875 0.078125 3.109375 0.0351562 2.953125 -0.046875 C 2.804688 -0.128906 2.691406 -0.242188 2.609375 -0.390625 C 2.472656 -0.242188 2.289062 -0.128906 2.0625 -0.046875 C 1.84375 0.0351562 1.609375 0.078125 1.359375 0.078125 Z M 1.78125 -0.6875 C 1.882812 -0.6875 2 -0.710938 2.125 -0.765625 C 2.257812 -0.816406 2.375 -0.890625 2.46875 -0.984375 L 2.46875 -1.921875 C 2.144531 -1.898438 1.859375 -1.828125 1.609375 -1.703125 C 1.359375 -1.578125 1.234375 -1.40625 1.234375 -1.1875 C 1.234375 -1.019531 1.273438 -0.894531 1.359375 -0.8125 C 1.453125 -0.726562 1.59375 -0.6875 1.78125 -0.6875 Z M 0.9375 -5.171875 L 2.015625 -6.09375 L 3.09375 -5.171875 L 3.09375 -4.53125 L 2.015625 -5.203125 L 0.9375 -4.53125 Z M 0.9375 -5.171875 "/></g></g></g><g fill="#ffffff" fill-opacity="1"><g transform="translate(69.392498, 62.719077)"><g><path d="M 2.53125 -4.15625 C 3.039062 -4.15625 3.425781 -3.984375 3.6875 -3.640625 C 3.945312 -3.304688 4.078125 -2.851562 4.078125 -2.28125 L 4.078125 0 L 3.0625 0 L 3.0625 -2.203125 C 3.0625 -2.578125 3 -2.851562 2.875 -3.03125 C 2.75 -3.21875 2.539062 -3.3125 2.25 -3.3125 C 1.945312 -3.3125 1.691406 -3.195312 1.484375 -2.96875 L 1.484375 0 L 0.46875 0 L 0.46875 -4.078125 L 1.421875 -4.078125 L 1.4375 -3.796875 C 1.78125 -4.035156 2.144531 -4.15625 2.53125 -4.15625 Z M 2.53125 -4.15625 "/></g></g></g></svg>