<svg xmlns="http://www.w3.org/2000/svg" xmlns:xlink="http://www.w3.org/1999/xlink" width="132" zoomAndPan="magnify" viewBox="0 0 98.88 70.499998" height="94" preserveAspectRatio="xMidYMid meet" version="1.0"><defs><g/><clipPath id="99d1569391"><path d="M 25.230469 7 L 73.636719 7 L 73.636719 46.46875 L 25.230469 46.46875 Z M 25.230469 7 " clip-rule="nonzero"/></clipPath><clipPath id="9c0d3d40d1"><path d="M 71.378906 25.492188 L 70.023438 18.441406 C 69.933594 18.457031 69.832031 18.46875 69.742188 18.46875 C 69.5 18.46875 69.269531 18.417969 69.0625 18.3125 L 65.523438 20.738281 C 65.574219 20.90625 65.613281 21.070312 65.613281 21.253906 C 65.613281 21.472656 65.5625 21.691406 65.484375 21.882812 L 71.058594 25.59375 C 71.171875 25.554688 71.273438 25.519531 71.378906 25.492188 Z M 45.917969 31.574219 C 46.441406 31.574219 46.914062 31.84375 47.195312 32.257812 L 54.355469 27.359375 C 53.84375 26.703125 53.523438 25.878906 53.523438 24.976562 C 53.523438 24.628906 53.574219 24.292969 53.652344 23.984375 L 46.367188 20.777344 C 46.25 20.941406 46.097656 21.085938 45.933594 21.1875 Z M 47.453125 33.09375 L 54.941406 27.980469 C 55.59375 28.507812 56.425781 28.828125 57.332031 28.828125 C 57.574219 28.828125 57.816406 28.804688 58.058594 28.765625 L 59.453125 32.191406 L 52.144531 35.324219 C 51.785156 34.835938 51.199219 34.511719 50.546875 34.511719 C 49.996094 34.511719 49.511719 34.730469 49.140625 35.09375 L 47.222656 33.957031 C 47.363281 33.726562 47.441406 33.457031 47.441406 33.160156 Z M 46.597656 34.523438 C 46.390625 34.628906 46.160156 34.679688 45.917969 34.679688 C 45.703125 34.679688 45.496094 34.640625 45.316406 34.550781 L 43.441406 35.828125 L 48.628906 35.941406 C 48.640625 35.878906 48.667969 35.828125 48.691406 35.761719 Z M 44.640625 33.996094 L 42.980469 35.128906 C 42.761719 34.949219 42.492188 34.847656 42.199219 34.847656 C 41.816406 34.847656 41.472656 35.015625 41.242188 35.296875 L 32.5 30.75 C 32.664062 30.53125 32.769531 30.257812 32.769531 29.964844 C 32.769531 29.859375 32.753906 29.757812 32.730469 29.667969 L 34.710938 28.238281 C 34.890625 28.339844 35.105469 28.402344 35.335938 28.402344 C 35.566406 28.402344 35.785156 28.339844 35.976562 28.238281 L 44.359375 33.222656 C 44.398438 33.492188 44.488281 33.765625 44.640625 33.996094 Z M 44.589844 32.347656 C 44.71875 32.128906 44.882812 31.949219 45.089844 31.820312 L 45.101562 21.445312 C 45.074219 21.445312 45.050781 21.445312 45.023438 21.445312 C 44.78125 21.445312 44.550781 21.394531 44.335938 21.289062 L 36.601562 26.871094 C 36.613281 26.949219 36.628906 27.039062 36.628906 27.128906 C 36.628906 27.28125 36.601562 27.425781 36.550781 27.554688 Z M 31.324219 12.578125 C 31.644531 12.578125 31.9375 12.683594 32.179688 12.851562 L 40.511719 10.929688 C 40.703125 10.054688 41.472656 9.410156 42.390625 9.410156 C 42.8125 9.410156 43.210938 9.550781 43.527344 9.785156 L 49.292969 7.335938 L 49.6875 7.167969 L 49.792969 7.117188 L 50.058594 7 L 50.136719 7.179688 L 59.429688 8.933594 C 59.644531 8.339844 60.207031 7.929688 60.871094 7.929688 C 61.714844 7.929688 62.40625 8.625 62.40625 9.472656 C 62.40625 9.71875 62.355469 9.953125 62.253906 10.15625 L 68.898438 15.492188 C 69.140625 15.335938 69.433594 15.246094 69.742188 15.246094 C 70.625 15.246094 71.339844 15.96875 71.339844 16.859375 C 71.339844 17.335938 71.136719 17.773438 70.800781 18.070312 L 72.222656 25.480469 C 73.011719 25.660156 73.613281 26.382812 73.613281 27.230469 C 73.613281 28.222656 72.820312 29.023438 71.835938 29.023438 C 71.695312 29.023438 71.570312 29.011719 71.429688 28.972656 L 62.621094 35.246094 C 62.675781 35.386719 62.699219 35.53125 62.699219 35.683594 C 62.699219 36.40625 62.125 36.984375 61.410156 36.984375 C 61.320312 36.984375 61.230469 36.972656 61.152344 36.960938 L 58.007812 43.3125 C 58.394531 43.648438 58.636719 44.136719 58.636719 44.679688 C 58.636719 45.671875 57.84375 46.46875 56.859375 46.46875 C 55.875 46.46875 55.082031 45.671875 55.082031 44.679688 C 55.082031 44.152344 55.300781 43.6875 55.65625 43.351562 L 51.53125 38.210938 C 51.25 38.378906 50.917969 38.46875 50.558594 38.46875 C 49.574219 38.46875 48.757812 37.734375 48.601562 36.78125 L 43.335938 36.664062 C 43.132812 37.078125 42.710938 37.359375 42.210938 37.359375 C 41.523438 37.359375 40.960938 36.792969 40.960938 36.097656 L 40.960938 36.070312 L 31.605469 31.199219 L 31.539062 31.199219 C 30.964844 31.199219 30.492188 30.8125 30.339844 30.285156 L 27.324219 24.71875 C 27.195312 24.757812 27.054688 24.769531 26.914062 24.769531 C 25.996094 24.769531 25.253906 24.023438 25.253906 23.09375 C 25.253906 22.515625 25.546875 22 25.996094 21.703125 L 26.171875 21.394531 L 26.199219 21.40625 L 30.390625 15.335938 C 30.03125 15.054688 29.804688 14.617188 29.804688 14.113281 C 29.777344 13.277344 30.46875 12.578125 31.324219 12.578125 Z M 32.753906 13.585938 C 32.792969 13.6875 32.820312 13.777344 32.832031 13.894531 L 43.734375 18.699219 C 43.925781 18.480469 44.167969 18.300781 44.4375 18.210938 L 42.671875 13.289062 C 42.582031 13.300781 42.492188 13.316406 42.40625 13.316406 C 41.484375 13.316406 40.71875 12.671875 40.527344 11.808594 Z M 32.730469 14.757812 L 43.375 19.449219 C 43.351562 19.550781 43.351562 19.667969 43.351562 19.769531 C 43.351562 20.132812 43.464844 20.480469 43.65625 20.75 L 36.15625 26.160156 C 35.9375 25.980469 35.667969 25.878906 35.363281 25.878906 C 34.992188 25.878906 34.648438 26.046875 34.417969 26.316406 L 28.550781 22.824219 C 28.433594 22.117188 27.886719 21.5625 27.183594 21.445312 L 31.171875 15.671875 C 31.222656 15.671875 31.273438 15.6875 31.324219 15.6875 C 31.949219 15.6875 32.5 15.300781 32.730469 14.757812 Z M 61.703125 10.777344 L 68.335938 16.097656 C 68.222656 16.328125 68.144531 16.574219 68.144531 16.859375 C 68.144531 17.191406 68.246094 17.488281 68.414062 17.746094 L 65.0625 20.042969 C 64.78125 19.796875 64.414062 19.65625 64.015625 19.65625 C 63.570312 19.65625 63.160156 19.847656 62.867188 20.144531 L 55.25 15.066406 C 55.273438 14.925781 55.273438 14.796875 55.273438 14.65625 C 55.273438 14.269531 55.199219 13.894531 55.058594 13.558594 L 59.582031 10.300781 C 59.851562 10.738281 60.335938 11.019531 60.886719 11.019531 C 61.191406 11.019531 61.472656 10.929688 61.703125 10.777344 Z M 44.117188 10.453125 C 44.257812 10.722656 44.335938 11.035156 44.335938 11.355469 C 44.335938 12.039062 43.988281 12.644531 43.464844 12.992188 L 45.304688 18.121094 C 45.738281 18.199219 46.125 18.441406 46.367188 18.792969 L 50.175781 16.035156 C 49.933594 15.621094 49.804688 15.144531 49.804688 14.640625 C 49.804688 13.570312 50.40625 12.644531 51.285156 12.179688 L 49.625 8.109375 Z M 46.671875 19.617188 L 50.710938 16.703125 C 51.199219 17.140625 51.835938 17.414062 52.550781 17.414062 C 52.847656 17.414062 53.113281 17.359375 53.382812 17.285156 L 55.222656 21.78125 C 54.699219 22.140625 54.265625 22.617188 53.96875 23.199219 L 46.6875 19.988281 C 46.699219 19.925781 46.699219 19.847656 46.699219 19.785156 C 46.6875 19.71875 46.671875 19.667969 46.671875 19.617188 Z M 28.449219 23.738281 C 28.359375 23.957031 28.21875 24.164062 28.050781 24.332031 L 30.621094 29.085938 C 30.851562 28.84375 31.171875 28.6875 31.527344 28.6875 C 31.808594 28.6875 32.078125 28.789062 32.28125 28.945312 L 34.1875 27.578125 C 34.136719 27.4375 34.109375 27.296875 34.109375 27.140625 L 34.109375 27.117188 Z M 52.488281 36.070312 C 52.515625 36.199219 52.527344 36.34375 52.527344 36.484375 C 52.527344 36.921875 52.386719 37.335938 52.144531 37.667969 L 56.386719 42.953125 C 56.539062 42.914062 56.691406 42.886719 56.859375 42.886719 C 57 42.886719 57.140625 42.902344 57.269531 42.941406 L 60.4375 36.546875 C 60.246094 36.316406 60.117188 36.019531 60.117188 35.699219 C 60.117188 35.324219 60.269531 34.988281 60.515625 34.757812 L 59.785156 32.964844 Z M 61.410156 34.382812 C 61.664062 34.382812 61.90625 34.460938 62.113281 34.589844 L 70.609375 28.53125 C 70.558594 28.480469 70.507812 28.429688 70.46875 28.378906 L 60.550781 32.617188 L 61.28125 34.382812 C 61.320312 34.382812 61.371094 34.382812 61.410156 34.382812 Z M 70.074219 26.960938 L 61.152344 25.039062 L 61.152344 24.976562 C 61.152344 24.589844 61.089844 24.203125 60.988281 23.855469 L 62.980469 22.488281 C 63.261719 22.734375 63.621094 22.875 64.015625 22.875 C 64.375 22.875 64.707031 22.761719 64.976562 22.554688 L 70.394531 26.160156 C 70.226562 26.394531 70.113281 26.664062 70.074219 26.960938 Z M 62.507812 21.78125 L 60.640625 23.054688 C 59.976562 21.898438 58.75 21.125 57.332031 21.125 C 56.847656 21.125 56.386719 21.214844 55.953125 21.382812 L 54.125 16.898438 C 54.480469 16.640625 54.789062 16.292969 54.980469 15.890625 L 62.457031 20.878906 C 62.429688 20.996094 62.417969 21.125 62.417969 21.253906 C 62.417969 21.445312 62.457031 21.625 62.507812 21.78125 Z M 52.539062 11.882812 C 53.371094 11.882812 54.109375 12.257812 54.609375 12.835938 L 58.980469 9.695312 L 50.53125 8.109375 L 52.09375 11.921875 C 52.234375 11.898438 52.386719 11.882812 52.539062 11.882812 Z M 61.039062 25.878906 C 60.757812 27.050781 59.9375 28.015625 58.851562 28.496094 L 60.21875 31.84375 L 69.765625 27.761719 Z M 61.039062 25.878906 " clip-rule="evenodd"/></clipPath><linearGradient x1="284.549362" gradientTransform="matrix(0.127804, 0, 0, 0.128861, 25.240235, 7.000355)" y1="346.179355" x2="116.613078" gradientUnits="userSpaceOnUse" y2="-49.456561" id="250e3edd5e"><stop stop-opacity="1" stop-color="rgb(0%, 55.699158%, 80.799866%)" offset="0"/><stop stop-opacity="1" stop-color="rgb(0%, 55.699158%, 80.799866%)" offset="0.125"/><stop stop-opacity="1" stop-color="rgb(0%, 55.699158%, 80.799866%)" offset="0.1875"/><stop stop-opacity="1" stop-color="rgb(0%, 55.699158%, 80.799866%)" offset="0.21875"/><stop stop-opacity="1" stop-color="rgb(0%, 55.699158%, 80.799866%)" offset="0.226562"/><stop stop-opacity="1" stop-color="rgb(0.256348%, 55.856323%, 80.847168%)" offset="0.230469"/><stop stop-opacity="1" stop-color="rgb(0.512695%, 56.015015%, 80.895996%)" offset="0.234375"/><stop stop-opacity="1" stop-color="rgb(0.784302%, 56.182861%, 80.947876%)" offset="0.238281"/><stop stop-opacity="1" stop-color="rgb(1.057434%, 56.350708%, 80.999756%)" offset="0.242188"/><stop stop-opacity="1" stop-color="rgb(1.329041%, 56.518555%, 81.051636%)" offset="0.246094"/><stop stop-opacity="1" stop-color="rgb(1.602173%, 56.686401%, 81.103516%)" offset="0.25"/><stop stop-opacity="1" stop-color="rgb(1.875305%, 56.852722%, 81.155396%)" offset="0.253906"/><stop stop-opacity="1" stop-color="rgb(2.148438%, 57.020569%, 81.207275%)" offset="0.257812"/><stop stop-opacity="1" stop-color="rgb(2.420044%, 57.188416%, 81.259155%)" offset="0.261719"/><stop stop-opacity="1" stop-color="rgb(2.693176%, 57.356262%, 81.311035%)" offset="0.265625"/><stop stop-opacity="1" stop-color="rgb(2.964783%, 57.524109%, 81.361389%)" offset="0.269531"/><stop stop-opacity="1" stop-color="rgb(3.237915%, 57.691956%, 81.413269%)" offset="0.273438"/><stop stop-opacity="1" stop-color="rgb(3.511047%, 57.859802%, 81.465149%)" offset="0.277344"/><stop stop-opacity="1" stop-color="rgb(3.78418%, 58.027649%, 81.517029%)" offset="0.28125"/><stop stop-opacity="1" stop-color="rgb(4.055786%, 58.195496%, 81.568909%)" offset="0.285156"/><stop stop-opacity="1" stop-color="rgb(4.328918%, 58.363342%, 81.620789%)" offset="0.289062"/><stop stop-opacity="1" stop-color="rgb(4.600525%, 58.531189%, 81.672668%)" offset="0.292969"/><stop stop-opacity="1" stop-color="rgb(4.873657%, 58.699036%, 81.724548%)" offset="0.296875"/><stop stop-opacity="1" stop-color="rgb(5.14679%, 58.865356%, 81.774902%)" offset="0.300781"/><stop stop-opacity="1" stop-color="rgb(5.419922%, 59.033203%, 81.826782%)" offset="0.304688"/><stop stop-opacity="1" stop-color="rgb(5.691528%, 59.20105%, 81.878662%)" offset="0.308594"/><stop stop-opacity="1" stop-color="rgb(5.964661%, 59.368896%, 81.930542%)" offset="0.3125"/><stop stop-opacity="1" stop-color="rgb(6.236267%, 59.536743%, 81.982422%)" offset="0.316406"/><stop stop-opacity="1" stop-color="rgb(6.509399%, 59.70459%, 82.034302%)" offset="0.320313"/><stop stop-opacity="1" stop-color="rgb(6.782532%, 59.872437%, 82.086182%)" offset="0.324219"/><stop stop-opacity="1" stop-color="rgb(7.055664%, 60.040283%, 82.138062%)" offset="0.328125"/><stop stop-opacity="1" stop-color="rgb(7.327271%, 60.20813%, 82.189941%)" offset="0.332031"/><stop stop-opacity="1" stop-color="rgb(7.600403%, 60.375977%, 82.241821%)" offset="0.335938"/><stop stop-opacity="1" stop-color="rgb(7.872009%, 60.542297%, 82.292175%)" offset="0.339844"/><stop stop-opacity="1" stop-color="rgb(8.145142%, 60.710144%, 82.344055%)" offset="0.34375"/><stop stop-opacity="1" stop-color="rgb(8.418274%, 60.877991%, 82.395935%)" offset="0.347656"/><stop stop-opacity="1" stop-color="rgb(8.691406%, 61.045837%, 82.447815%)" offset="0.351563"/><stop stop-opacity="1" stop-color="rgb(8.963013%, 61.213684%, 82.499695%)" offset="0.355469"/><stop stop-opacity="1" stop-color="rgb(9.236145%, 61.381531%, 82.551575%)" offset="0.359375"/><stop stop-opacity="1" stop-color="rgb(9.507751%, 61.549377%, 82.603455%)" offset="0.363281"/><stop stop-opacity="1" stop-color="rgb(9.780884%, 61.717224%, 82.655334%)" offset="0.367188"/><stop stop-opacity="1" stop-color="rgb(10.054016%, 61.885071%, 82.707214%)" offset="0.371094"/><stop stop-opacity="1" stop-color="rgb(10.327148%, 62.052917%, 82.759094%)" offset="0.375"/><stop stop-opacity="1" stop-color="rgb(10.598755%, 62.220764%, 82.809448%)" offset="0.378906"/><stop stop-opacity="1" stop-color="rgb(10.871887%, 62.388611%, 82.861328%)" offset="0.382812"/><stop stop-opacity="1" stop-color="rgb(11.143494%, 62.554932%, 82.913208%)" offset="0.386719"/><stop stop-opacity="1" stop-color="rgb(11.416626%, 62.722778%, 82.965088%)" offset="0.390625"/><stop stop-opacity="1" stop-color="rgb(11.689758%, 62.890625%, 83.016968%)" offset="0.394531"/><stop stop-opacity="1" stop-color="rgb(11.962891%, 63.058472%, 83.068848%)" offset="0.398438"/><stop stop-opacity="1" stop-color="rgb(12.234497%, 63.226318%, 83.120728%)" offset="0.402344"/><stop stop-opacity="1" stop-color="rgb(12.507629%, 63.394165%, 83.172607%)" offset="0.40625"/><stop stop-opacity="1" stop-color="rgb(12.779236%, 63.562012%, 83.222961%)" offset="0.410156"/><stop stop-opacity="1" stop-color="rgb(13.052368%, 63.729858%, 83.274841%)" offset="0.414062"/><stop stop-opacity="1" stop-color="rgb(13.3255%, 63.897705%, 83.326721%)" offset="0.417969"/><stop stop-opacity="1" stop-color="rgb(13.598633%, 64.065552%, 83.378601%)" offset="0.421875"/><stop stop-opacity="1" stop-color="rgb(13.870239%, 64.231873%, 83.430481%)" offset="0.425781"/><stop stop-opacity="1" stop-color="rgb(14.143372%, 64.399719%, 83.482361%)" offset="0.429688"/><stop stop-opacity="1" stop-color="rgb(14.414978%, 64.567566%, 83.534241%)" offset="0.433594"/><stop stop-opacity="1" stop-color="rgb(14.68811%, 64.735413%, 83.586121%)" offset="0.4375"/><stop stop-opacity="1" stop-color="rgb(14.961243%, 64.903259%, 83.638%)" offset="0.441406"/><stop stop-opacity="1" stop-color="rgb(15.234375%, 65.071106%, 83.68988%)" offset="0.445312"/><stop stop-opacity="1" stop-color="rgb(15.505981%, 65.238953%, 83.740234%)" offset="0.449219"/><stop stop-opacity="1" stop-color="rgb(15.779114%, 65.406799%, 83.792114%)" offset="0.453125"/><stop stop-opacity="1" stop-color="rgb(16.05072%, 65.574646%, 83.843994%)" offset="0.457031"/><stop stop-opacity="1" stop-color="rgb(16.323853%, 65.742493%, 83.895874%)" offset="0.460938"/><stop stop-opacity="1" stop-color="rgb(16.596985%, 65.910339%, 83.947754%)" offset="0.464844"/><stop stop-opacity="1" stop-color="rgb(16.870117%, 66.078186%, 83.999634%)" offset="0.46875"/><stop stop-opacity="1" stop-color="rgb(17.141724%, 66.244507%, 84.051514%)" offset="0.472656"/><stop stop-opacity="1" stop-color="rgb(17.414856%, 66.412354%, 84.103394%)" offset="0.476563"/><stop stop-opacity="1" stop-color="rgb(17.686462%, 66.5802%, 84.155273%)" offset="0.480469"/><stop stop-opacity="1" stop-color="rgb(17.959595%, 66.748047%, 84.207153%)" offset="0.484375"/><stop stop-opacity="1" stop-color="rgb(18.232727%, 66.915894%, 84.257507%)" offset="0.488281"/><stop stop-opacity="1" stop-color="rgb(18.505859%, 67.08374%, 84.309387%)" offset="0.492188"/><stop stop-opacity="1" stop-color="rgb(18.777466%, 67.251587%, 84.361267%)" offset="0.496094"/><stop stop-opacity="1" stop-color="rgb(19.050598%, 67.419434%, 84.413147%)" offset="0.5"/><stop stop-opacity="1" stop-color="rgb(19.322205%, 67.58728%, 84.465027%)" offset="0.503906"/><stop stop-opacity="1" stop-color="rgb(19.595337%, 67.755127%, 84.516907%)" offset="0.507812"/><stop stop-opacity="1" stop-color="rgb(19.868469%, 67.922974%, 84.568787%)" offset="0.511719"/><stop stop-opacity="1" stop-color="rgb(20.141602%, 68.09082%, 84.620667%)" offset="0.515625"/><stop stop-opacity="1" stop-color="rgb(20.413208%, 68.257141%, 84.671021%)" offset="0.519531"/><stop stop-opacity="1" stop-color="rgb(20.68634%, 68.424988%, 84.7229%)" offset="0.523438"/><stop stop-opacity="1" stop-color="rgb(20.957947%, 68.592834%, 84.77478%)" offset="0.527344"/><stop stop-opacity="1" stop-color="rgb(21.231079%, 68.760681%, 84.82666%)" offset="0.53125"/><stop stop-opacity="1" stop-color="rgb(21.504211%, 68.928528%, 84.87854%)" offset="0.535156"/><stop stop-opacity="1" stop-color="rgb(21.777344%, 69.096375%, 84.93042%)" offset="0.539062"/><stop stop-opacity="1" stop-color="rgb(22.04895%, 69.264221%, 84.9823%)" offset="0.542969"/><stop stop-opacity="1" stop-color="rgb(22.322083%, 69.432068%, 85.03418%)" offset="0.546875"/><stop stop-opacity="1" stop-color="rgb(22.593689%, 69.599915%, 85.08606%)" offset="0.550781"/><stop stop-opacity="1" stop-color="rgb(22.866821%, 69.767761%, 85.137939%)" offset="0.554688"/><stop stop-opacity="1" stop-color="rgb(23.139954%, 69.934082%, 85.188293%)" offset="0.558594"/><stop stop-opacity="1" stop-color="rgb(23.413086%, 70.101929%, 85.240173%)" offset="0.5625"/><stop stop-opacity="1" stop-color="rgb(23.684692%, 70.269775%, 85.292053%)" offset="0.566406"/><stop stop-opacity="1" stop-color="rgb(23.957825%, 70.437622%, 85.343933%)" offset="0.570312"/><stop stop-opacity="1" stop-color="rgb(24.229431%, 70.605469%, 85.395813%)" offset="0.574219"/><stop stop-opacity="1" stop-color="rgb(24.502563%, 70.773315%, 85.447693%)" offset="0.578125"/><stop stop-opacity="1" stop-color="rgb(24.775696%, 70.941162%, 85.499573%)" offset="0.582031"/><stop stop-opacity="1" stop-color="rgb(25.048828%, 71.109009%, 85.551453%)" offset="0.585938"/><stop stop-opacity="1" stop-color="rgb(25.320435%, 71.276855%, 85.603333%)" offset="0.589844"/><stop stop-opacity="1" stop-color="rgb(25.593567%, 71.444702%, 85.655212%)" offset="0.59375"/><stop stop-opacity="1" stop-color="rgb(25.865173%, 71.612549%, 85.705566%)" offset="0.597656"/><stop stop-opacity="1" stop-color="rgb(26.138306%, 71.780396%, 85.757446%)" offset="0.601562"/><stop stop-opacity="1" stop-color="rgb(26.411438%, 71.946716%, 85.809326%)" offset="0.605469"/><stop stop-opacity="1" stop-color="rgb(26.68457%, 72.114563%, 85.861206%)" offset="0.609375"/><stop stop-opacity="1" stop-color="rgb(26.956177%, 72.28241%, 85.913086%)" offset="0.613281"/><stop stop-opacity="1" stop-color="rgb(27.229309%, 72.450256%, 85.964966%)" offset="0.617188"/><stop stop-opacity="1" stop-color="rgb(27.500916%, 72.618103%, 86.016846%)" offset="0.621094"/><stop stop-opacity="1" stop-color="rgb(27.774048%, 72.78595%, 86.068726%)" offset="0.625"/><stop stop-opacity="1" stop-color="rgb(28.04718%, 72.953796%, 86.11908%)" offset="0.628906"/><stop stop-opacity="1" stop-color="rgb(28.320312%, 73.121643%, 86.170959%)" offset="0.632812"/><stop stop-opacity="1" stop-color="rgb(28.591919%, 73.28949%, 86.222839%)" offset="0.636719"/><stop stop-opacity="1" stop-color="rgb(28.865051%, 73.457336%, 86.274719%)" offset="0.640625"/><stop stop-opacity="1" stop-color="rgb(29.136658%, 73.623657%, 86.326599%)" offset="0.644531"/><stop stop-opacity="1" stop-color="rgb(29.40979%, 73.791504%, 86.378479%)" offset="0.648438"/><stop stop-opacity="1" stop-color="rgb(29.682922%, 73.959351%, 86.430359%)" offset="0.652344"/><stop stop-opacity="1" stop-color="rgb(29.956055%, 74.127197%, 86.482239%)" offset="0.65625"/><stop stop-opacity="1" stop-color="rgb(30.227661%, 74.295044%, 86.534119%)" offset="0.660156"/><stop stop-opacity="1" stop-color="rgb(30.500793%, 74.462891%, 86.585999%)" offset="0.664063"/><stop stop-opacity="1" stop-color="rgb(30.7724%, 74.630737%, 86.636353%)" offset="0.667969"/><stop stop-opacity="1" stop-color="rgb(31.045532%, 74.798584%, 86.688232%)" offset="0.671875"/><stop stop-opacity="1" stop-color="rgb(31.318665%, 74.966431%, 86.740112%)" offset="0.675781"/><stop stop-opacity="1" stop-color="rgb(31.591797%, 75.134277%, 86.791992%)" offset="0.679688"/><stop stop-opacity="1" stop-color="rgb(31.863403%, 75.302124%, 86.843872%)" offset="0.683594"/><stop stop-opacity="1" stop-color="rgb(32.136536%, 75.469971%, 86.895752%)" offset="0.6875"/><stop stop-opacity="1" stop-color="rgb(32.408142%, 75.636292%, 86.947632%)" offset="0.691406"/><stop stop-opacity="1" stop-color="rgb(32.681274%, 75.804138%, 86.999512%)" offset="0.695312"/><stop stop-opacity="1" stop-color="rgb(32.954407%, 75.971985%, 87.051392%)" offset="0.699219"/><stop stop-opacity="1" stop-color="rgb(33.227539%, 76.139832%, 87.103271%)" offset="0.703125"/><stop stop-opacity="1" stop-color="rgb(33.499146%, 76.307678%, 87.153625%)" offset="0.707031"/><stop stop-opacity="1" stop-color="rgb(33.772278%, 76.475525%, 87.205505%)" offset="0.710938"/><stop stop-opacity="1" stop-color="rgb(34.043884%, 76.643372%, 87.257385%)" offset="0.714844"/><stop stop-opacity="1" stop-color="rgb(34.317017%, 76.811218%, 87.309265%)" offset="0.71875"/><stop stop-opacity="1" stop-color="rgb(34.590149%, 76.979065%, 87.361145%)" offset="0.722656"/><stop stop-opacity="1" stop-color="rgb(34.863281%, 77.146912%, 87.413025%)" offset="0.726562"/><stop stop-opacity="1" stop-color="rgb(35.134888%, 77.314758%, 87.464905%)" offset="0.730469"/><stop stop-opacity="1" stop-color="rgb(35.40802%, 77.482605%, 87.516785%)" offset="0.734375"/><stop stop-opacity="1" stop-color="rgb(35.679626%, 77.648926%, 87.568665%)" offset="0.738281"/><stop stop-opacity="1" stop-color="rgb(35.952759%, 77.816772%, 87.620544%)" offset="0.742188"/><stop stop-opacity="1" stop-color="rgb(36.225891%, 77.984619%, 87.670898%)" offset="0.746094"/><stop stop-opacity="1" stop-color="rgb(36.499023%, 78.152466%, 87.722778%)" offset="0.75"/><stop stop-opacity="1" stop-color="rgb(36.698914%, 78.276062%, 87.760925%)" offset="0.753906"/><stop stop-opacity="1" stop-color="rgb(36.898804%, 78.399658%, 87.799072%)" offset="0.757812"/><stop stop-opacity="1" stop-color="rgb(36.898804%, 78.399658%, 87.799072%)" offset="0.765625"/><stop stop-opacity="1" stop-color="rgb(36.898804%, 78.399658%, 87.799072%)" offset="0.78125"/><stop stop-opacity="1" stop-color="rgb(36.898804%, 78.399658%, 87.799072%)" offset="0.8125"/><stop stop-opacity="1" stop-color="rgb(36.898804%, 78.399658%, 87.799072%)" offset="0.875"/><stop stop-opacity="1" stop-color="rgb(36.898804%, 78.399658%, 87.799072%)" offset="1"/></linearGradient></defs><g clip-path="url(#99d1569391)"><g clip-path="url(#9c0d3d40d1)"><path fill="url(#250e3edd5e)" d="M 25.253906 7 L 25.253906 46.46875 L 73.613281 46.46875 L 73.613281 7 Z M 25.253906 7 " fill-rule="nonzero"/></g></g><g fill="#ffffff" fill-opacity="1"><g transform="translate(8.450996, 60.919145)"><g><path d="M 3.578125 0.078125 C 2.953125 0.078125 2.40625 -0.0507812 1.9375 -0.3125 C 1.46875 -0.582031 1.109375 -0.960938 0.859375 -1.453125 C 0.609375 -1.953125 0.484375 -2.53125 0.484375 -3.1875 C 0.484375 -3.84375 0.609375 -4.414062 0.859375 -4.90625 C 1.109375 -5.40625 1.46875 -5.785156 1.9375 -6.046875 C 2.40625 -6.304688 2.953125 -6.4375 3.578125 -6.4375 C 4.003906 -6.4375 4.40625 -6.367188 4.78125 -6.234375 C 5.164062 -6.109375 5.484375 -5.925781 5.734375 -5.6875 L 5.359375 -4.84375 C 5.066406 -5.070312 4.78125 -5.238281 4.5 -5.34375 C 4.21875 -5.445312 3.914062 -5.5 3.59375 -5.5 C 2.976562 -5.5 2.5 -5.300781 2.15625 -4.90625 C 1.820312 -4.507812 1.65625 -3.9375 1.65625 -3.1875 C 1.65625 -2.4375 1.820312 -1.859375 2.15625 -1.453125 C 2.488281 -1.054688 2.96875 -0.859375 3.59375 -0.859375 C 3.914062 -0.859375 4.21875 -0.910156 4.5 -1.015625 C 4.78125 -1.117188 5.066406 -1.285156 5.359375 -1.515625 L 5.734375 -0.671875 C 5.484375 -0.441406 5.164062 -0.257812 4.78125 -0.125 C 4.40625 0.0078125 4.003906 0.078125 3.578125 0.078125 Z M 3.578125 0.078125 "/></g></g></g><g fill="#ffffff" fill-opacity="1"><g transform="translate(14.572626, 60.919145)"><g><path d="M 4.921875 -4.515625 L 4.921875 0 L 3.828125 0 L 3.828125 -0.71875 C 3.691406 -0.46875 3.492188 -0.269531 3.234375 -0.125 C 2.972656 0.0078125 2.679688 0.078125 2.359375 0.078125 C 1.960938 0.078125 1.613281 -0.015625 1.3125 -0.203125 C 1.007812 -0.398438 0.773438 -0.675781 0.609375 -1.03125 C 0.441406 -1.382812 0.359375 -1.789062 0.359375 -2.25 C 0.359375 -2.71875 0.441406 -3.128906 0.609375 -3.484375 C 0.773438 -3.847656 1.007812 -4.128906 1.3125 -4.328125 C 1.625 -4.523438 1.972656 -4.625 2.359375 -4.625 C 2.679688 -4.625 2.972656 -4.550781 3.234375 -4.40625 C 3.492188 -4.269531 3.691406 -4.078125 3.828125 -3.828125 L 3.828125 -4.515625 Z M 2.65625 -0.796875 C 3.03125 -0.796875 3.316406 -0.925781 3.515625 -1.1875 C 3.722656 -1.445312 3.828125 -1.804688 3.828125 -2.265625 C 3.828125 -2.742188 3.722656 -3.109375 3.515625 -3.359375 C 3.316406 -3.617188 3.03125 -3.75 2.65625 -3.75 C 2.28125 -3.75 1.988281 -3.613281 1.78125 -3.34375 C 1.582031 -3.082031 1.484375 -2.71875 1.484375 -2.25 C 1.484375 -1.789062 1.582031 -1.429688 1.78125 -1.171875 C 1.988281 -0.921875 2.28125 -0.796875 2.65625 -0.796875 Z M 3.109375 -5.09375 L 2.390625 -5.09375 L 3.28125 -6.9375 L 4.421875 -6.9375 Z M 3.109375 -5.09375 "/></g></g></g><g fill="#ffffff" fill-opacity="1"><g transform="translate(20.104435, 60.919145)"><g><path d="M 2.65625 0.078125 C 2.1875 0.078125 1.773438 -0.015625 1.421875 -0.203125 C 1.078125 -0.398438 0.8125 -0.671875 0.625 -1.015625 C 0.445312 -1.367188 0.359375 -1.78125 0.359375 -2.25 C 0.359375 -2.71875 0.453125 -3.128906 0.640625 -3.484375 C 0.835938 -3.847656 1.113281 -4.128906 1.46875 -4.328125 C 1.820312 -4.523438 2.234375 -4.625 2.703125 -4.625 C 3.023438 -4.625 3.332031 -4.570312 3.625 -4.46875 C 3.925781 -4.375 4.171875 -4.238281 4.359375 -4.0625 L 4.046875 -3.265625 C 3.847656 -3.421875 3.640625 -3.539062 3.421875 -3.625 C 3.210938 -3.707031 3.003906 -3.75 2.796875 -3.75 C 2.390625 -3.75 2.070312 -3.617188 1.84375 -3.359375 C 1.625 -3.109375 1.515625 -2.742188 1.515625 -2.265625 C 1.515625 -1.796875 1.625 -1.429688 1.84375 -1.171875 C 2.070312 -0.921875 2.390625 -0.796875 2.796875 -0.796875 C 3.003906 -0.796875 3.210938 -0.835938 3.421875 -0.921875 C 3.640625 -1.003906 3.847656 -1.125 4.046875 -1.28125 L 4.359375 -0.5 C 4.160156 -0.320312 3.910156 -0.179688 3.609375 -0.078125 C 3.304688 0.0234375 2.988281 0.078125 2.65625 0.078125 Z M 2.65625 0.078125 "/></g></g></g><g fill="#ffffff" fill-opacity="1"><g transform="translate(24.599585, 60.919145)"><g/></g></g><g fill="#ffffff" fill-opacity="1"><g transform="translate(27.048237, 60.919145)"><g><path d="M 5 -4.515625 C 4.945312 -4.160156 4.921875 -3.734375 4.921875 -3.234375 L 4.921875 1.9375 L 3.8125 1.9375 L 3.8125 -0.6875 C 3.675781 -0.445312 3.476562 -0.257812 3.21875 -0.125 C 2.96875 0.0078125 2.679688 0.078125 2.359375 0.078125 C 1.960938 0.078125 1.613281 -0.015625 1.3125 -0.203125 C 1.007812 -0.398438 0.773438 -0.675781 0.609375 -1.03125 C 0.441406 -1.382812 0.359375 -1.789062 0.359375 -2.25 C 0.359375 -2.71875 0.441406 -3.128906 0.609375 -3.484375 C 0.773438 -3.847656 1.007812 -4.128906 1.3125 -4.328125 C 1.625 -4.523438 1.972656 -4.625 2.359375 -4.625 C 2.703125 -4.625 3.007812 -4.546875 3.28125 -4.390625 C 3.550781 -4.242188 3.75 -4.03125 3.875 -3.75 L 3.953125 -4.515625 Z M 2.65625 -0.796875 C 3.03125 -0.796875 3.316406 -0.925781 3.515625 -1.1875 C 3.722656 -1.445312 3.828125 -1.804688 3.828125 -2.265625 C 3.828125 -2.742188 3.722656 -3.109375 3.515625 -3.359375 C 3.316406 -3.617188 3.03125 -3.75 2.65625 -3.75 C 2.28125 -3.75 1.988281 -3.613281 1.78125 -3.34375 C 1.582031 -3.082031 1.484375 -2.71875 1.484375 -2.25 C 1.484375 -1.789062 1.582031 -1.429688 1.78125 -1.171875 C 1.988281 -0.921875 2.28125 -0.796875 2.65625 -0.796875 Z M 2.65625 -0.796875 "/></g></g></g><g fill="#ffffff" fill-opacity="1"><g transform="translate(32.580045, 60.919145)"><g><path d="M 4.71875 -4.515625 L 4.71875 0 L 3.625 0 L 3.625 -0.703125 C 3.488281 -0.453125 3.300781 -0.257812 3.0625 -0.125 C 2.820312 0.0078125 2.546875 0.078125 2.234375 0.078125 C 1.128906 0.078125 0.578125 -0.539062 0.578125 -1.78125 L 0.578125 -4.515625 L 1.6875 -4.515625 L 1.6875 -1.78125 C 1.6875 -1.445312 1.753906 -1.203125 1.890625 -1.046875 C 2.023438 -0.898438 2.234375 -0.828125 2.515625 -0.828125 C 2.835938 -0.828125 3.097656 -0.929688 3.296875 -1.140625 C 3.492188 -1.359375 3.59375 -1.644531 3.59375 -2 L 3.59375 -4.515625 Z M 4.71875 -4.515625 "/></g></g></g><g fill="#ffffff" fill-opacity="1"><g transform="translate(37.90631, 60.919145)"><g><path d="M 4.875 -4.515625 L 2.78125 0.296875 C 2.539062 0.859375 2.234375 1.265625 1.859375 1.515625 C 1.492188 1.773438 1.039062 1.945312 0.5 2.03125 L 0.25 1.1875 C 0.675781 1.082031 0.992188 0.957031 1.203125 0.8125 C 1.410156 0.664062 1.582031 0.453125 1.71875 0.171875 L 1.859375 -0.15625 L -0.015625 -4.515625 L 1.15625 -4.515625 L 2.453125 -1.265625 L 3.765625 -4.515625 Z M 4.875 -4.515625 "/></g></g></g><g fill="#ffffff" fill-opacity="1"><g transform="translate(42.758933, 60.919145)"><g/></g></g><g fill="#ffffff" fill-opacity="1"><g transform="translate(45.207585, 60.919145)"><g><path d="M 2.03125 -3.671875 L 2.03125 -1.65625 C 2.03125 -1.125 2.273438 -0.859375 2.765625 -0.859375 C 2.898438 -0.859375 3.050781 -0.878906 3.21875 -0.921875 L 3.21875 -0.046875 C 3.019531 0.0234375 2.78125 0.0625 2.5 0.0625 C 1.988281 0.0625 1.59375 -0.078125 1.3125 -0.359375 C 1.039062 -0.648438 0.90625 -1.0625 0.90625 -1.59375 L 0.90625 -3.671875 L 0.046875 -3.671875 L 0.046875 -4.515625 L 0.90625 -4.515625 L 0.90625 -5.609375 L 2.03125 -5.984375 L 2.03125 -4.515625 L 3.21875 -4.515625 L 3.21875 -3.671875 Z M 2.03125 -3.671875 "/></g></g></g><g fill="#ffffff" fill-opacity="1"><g transform="translate(48.59459, 60.919145)"><g><path d="M 3.03125 -4.625 C 3.207031 -4.625 3.359375 -4.597656 3.484375 -4.546875 L 3.484375 -3.53125 C 3.285156 -3.601562 3.085938 -3.640625 2.890625 -3.640625 C 2.503906 -3.640625 2.210938 -3.53125 2.015625 -3.3125 C 1.816406 -3.09375 1.71875 -2.800781 1.71875 -2.4375 L 1.71875 0 L 0.609375 0 L 0.609375 -3.234375 C 0.609375 -3.710938 0.582031 -4.140625 0.53125 -4.515625 L 1.578125 -4.515625 L 1.671875 -3.71875 C 1.785156 -4.007812 1.960938 -4.234375 2.203125 -4.390625 C 2.453125 -4.546875 2.726562 -4.625 3.03125 -4.625 Z M 3.03125 -4.625 "/></g></g></g><g fill="#ffffff" fill-opacity="1"><g transform="translate(52.097774, 60.919145)"><g><path d="M 0.609375 0 L 0.609375 -4.515625 L 1.71875 -4.515625 L 1.71875 0 Z M 0.796875 -5.09375 L -0.515625 -6.9375 L 0.625 -6.9375 L 1.515625 -5.09375 Z M 0.796875 -5.09375 "/></g></g></g><g fill="#ffffff" fill-opacity="1"><g transform="translate(54.430246, 60.919145)"><g><path d="M 3.1875 -4.625 C 4.269531 -4.625 4.8125 -4.003906 4.8125 -2.765625 L 4.8125 0 L 3.6875 0 L 3.6875 -2.71875 C 3.6875 -3.070312 3.617188 -3.332031 3.484375 -3.5 C 3.347656 -3.664062 3.132812 -3.75 2.84375 -3.75 C 2.507812 -3.75 2.238281 -3.640625 2.03125 -3.421875 C 1.820312 -3.203125 1.71875 -2.914062 1.71875 -2.5625 L 1.71875 0 L 0.609375 0 L 0.609375 -3.234375 C 0.609375 -3.710938 0.582031 -4.140625 0.53125 -4.515625 L 1.578125 -4.515625 L 1.65625 -3.765625 C 1.8125 -4.046875 2.019531 -4.257812 2.28125 -4.40625 C 2.550781 -4.550781 2.851562 -4.625 3.1875 -4.625 Z M 3.1875 -4.625 "/></g></g></g><g fill="#ffffff" fill-opacity="1"><g transform="translate(59.819067, 60.919145)"><g><path d="M 3.1875 -4.625 C 4.269531 -4.625 4.8125 -4.003906 4.8125 -2.765625 L 4.8125 0 L 3.6875 0 L 3.6875 -2.71875 C 3.6875 -3.070312 3.617188 -3.332031 3.484375 -3.5 C 3.347656 -3.664062 3.132812 -3.75 2.84375 -3.75 C 2.507812 -3.75 2.238281 -3.640625 2.03125 -3.421875 C 1.820312 -3.203125 1.71875 -2.914062 1.71875 -2.5625 L 1.71875 0 L 0.609375 0 L 0.609375 -6.578125 L 1.71875 -6.578125 L 1.71875 -3.859375 C 1.875 -4.109375 2.078125 -4.296875 2.328125 -4.421875 C 2.585938 -4.554688 2.875 -4.625 3.1875 -4.625 Z M 3.1875 -4.625 "/></g></g></g><g fill="#ffffff" fill-opacity="1"><g transform="translate(65.207889, 60.919145)"><g/></g></g><g fill="#ffffff" fill-opacity="1"><g transform="translate(67.656541, 60.919145)"><g><path d="M 3.578125 0.078125 C 2.953125 0.078125 2.40625 -0.0507812 1.9375 -0.3125 C 1.46875 -0.582031 1.109375 -0.960938 0.859375 -1.453125 C 0.609375 -1.953125 0.484375 -2.53125 0.484375 -3.1875 C 0.484375 -3.84375 0.609375 -4.414062 0.859375 -4.90625 C 1.109375 -5.40625 1.46875 -5.785156 1.9375 -6.046875 C 2.40625 -6.304688 2.953125 -6.4375 3.578125 -6.4375 C 4.003906 -6.4375 4.40625 -6.367188 4.78125 -6.234375 C 5.164062 -6.109375 5.484375 -5.925781 5.734375 -5.6875 L 5.359375 -4.84375 C 5.066406 -5.070312 4.78125 -5.238281 4.5 -5.34375 C 4.21875 -5.445312 3.914062 -5.5 3.59375 -5.5 C 2.976562 -5.5 2.5 -5.300781 2.15625 -4.90625 C 1.820312 -4.507812 1.65625 -3.9375 1.65625 -3.1875 C 1.65625 -2.4375 1.820312 -1.859375 2.15625 -1.453125 C 2.488281 -1.054688 2.96875 -0.859375 3.59375 -0.859375 C 3.914062 -0.859375 4.21875 -0.910156 4.5 -1.015625 C 4.78125 -1.117188 5.066406 -1.285156 5.359375 -1.515625 L 5.734375 -0.671875 C 5.484375 -0.441406 5.164062 -0.257812 4.78125 -0.125 C 4.40625 0.0078125 4.003906 0.078125 3.578125 0.078125 Z M 3.578125 0.078125 "/></g></g></g><g fill="#ffffff" fill-opacity="1"><g transform="translate(73.778171, 60.919145)"><g><path d="M 4.96875 -6.359375 L 6.046875 -6.359375 L 6.046875 0 L 5.1875 0 L 1.765625 -4.453125 L 1.765625 0 L 0.6875 0 L 0.6875 -6.359375 L 1.546875 -6.359375 L 4.96875 -1.90625 Z M 4.96875 -6.359375 "/></g></g></g><g fill="#ffffff" fill-opacity="1"><g transform="translate(80.525362, 60.919145)"><g><path d="M 2.1875 0 L 2.1875 -5.421875 L 0.109375 -5.421875 L 0.109375 -6.359375 L 5.421875 -6.359375 L 5.421875 -5.421875 L 3.34375 -5.421875 L 3.34375 0 Z M 2.1875 0 "/></g></g></g><g fill="#ffffff" fill-opacity="1"><g transform="translate(86.05717, 60.919145)"><g><path d="M 2.1875 0 L 2.1875 -5.421875 L 0.109375 -5.421875 L 0.109375 -6.359375 L 5.421875 -6.359375 L 5.421875 -5.421875 L 3.34375 -5.421875 L 3.34375 0 Z M 2.1875 0 "/></g></g></g></svg>