<svg xmlns="http://www.w3.org/2000/svg" xmlns:xlink="http://www.w3.org/1999/xlink" width="132" zoomAndPan="magnify" viewBox="0 0 98.88 70.499998" height="94" preserveAspectRatio="xMidYMid meet" version="1.0"><defs><clipPath id="5377af23ec"><path d="M 28 20 L 73 20 L 73 62.855469 L 28 62.855469 Z M 28 20 " clip-rule="nonzero"/></clipPath></defs><path fill="#ffffff" d="M 59.140625 15.984375 C 61.070312 13.585938 62.375 10.351562 62.035156 7.046875 C 59.214844 7.191406 55.773438 8.902344 53.785156 11.316406 C 52 13.378906 50.421875 16.746094 50.824219 19.902344 C 53.984375 20.183594 57.144531 18.324219 59.136719 15.984375 Z M 59.140625 15.984375 " fill-opacity="1" fill-rule="nonzero"/><g clip-path="url(#5377af23ec)"><path fill="#ffffff" d="M 62 20.542969 C 57.402344 20.273438 53.492188 23.148438 51.308594 23.148438 C 49.125 23.148438 45.75 20.683594 42.117188 20.746094 C 40.9375 20.773438 39.78125 20.957031 38.648438 21.289062 C 37.515625 21.621094 36.445312 22.09375 35.433594 22.707031 C 34.425781 23.320312 33.511719 24.054688 32.695312 24.90625 C 31.878906 25.757812 31.183594 26.703125 30.613281 27.734375 C 25.679688 36.242188 29.308594 48.847656 34.109375 55.769531 C 36.433594 59.195312 39.25 62.964844 42.9375 62.835938 C 46.4375 62.695312 47.8125 60.570312 52.058594 60.570312 C 56.304688 60.570312 57.535156 62.835938 61.242188 62.765625 C 65.074219 62.695312 67.480469 59.339844 69.804688 55.914062 C 70.859375 54.363281 71.761719 52.726562 72.515625 51.011719 C 72.679688 50.636719 72.777344 50.242188 72.808594 49.835938 C 72.835938 49.425781 72.796875 49.023438 72.691406 48.628906 C 72.582031 48.234375 72.410156 47.871094 72.175781 47.535156 C 71.941406 47.199219 71.660156 46.910156 71.324219 46.671875 C 70.523438 46.113281 69.800781 45.46875 69.15625 44.734375 C 68.511719 43.996094 67.964844 43.195312 67.515625 42.328125 C 67.066406 41.460938 66.730469 40.550781 66.503906 39.597656 C 66.277344 38.648438 66.167969 37.683594 66.175781 36.707031 C 66.160156 35.125 66.445312 33.601562 67.035156 32.132812 C 67.628906 30.667969 68.476562 29.371094 69.585938 28.242188 C 69.761719 28.058594 69.917969 27.859375 70.050781 27.640625 C 70.183594 27.425781 70.292969 27.195312 70.375 26.953125 C 70.457031 26.714844 70.515625 26.46875 70.546875 26.214844 C 70.578125 25.960938 70.582031 25.707031 70.554688 25.453125 C 70.53125 25.199219 70.480469 24.953125 70.402344 24.710938 C 70.324219 24.46875 70.222656 24.234375 70.097656 24.015625 C 69.96875 23.796875 69.820312 23.589844 69.648438 23.402344 C 69.476562 23.214844 69.285156 23.046875 69.078125 22.898438 C 66.933594 21.472656 64.570312 20.6875 62 20.542969 M 62 20.542969 Z M 62 20.542969 " fill-opacity="1" fill-rule="nonzero"/></g></svg>