<svg xmlns="http://www.w3.org/2000/svg" xmlns:xlink="http://www.w3.org/1999/xlink" width="132" zoomAndPan="magnify" viewBox="0 0 98.88 70.499998" height="94" preserveAspectRatio="xMidYMid meet" version="1.0"><defs><clipPath id="2875a31085"><path d="M 21.4375 7 L 77.292969 7 L 77.292969 62.855469 L 21.4375 62.855469 Z M 21.4375 7 " clip-rule="nonzero"/></clipPath></defs><g clip-path="url(#2875a31085)"><path fill="#265174" d="M 77.292969 34.925781 C 77.292969 35.84375 77.246094 36.753906 77.15625 37.664062 C 77.066406 38.574219 76.933594 39.476562 76.753906 40.375 C 76.578125 41.273438 76.355469 42.160156 76.089844 43.035156 C 75.824219 43.910156 75.515625 44.769531 75.167969 45.613281 C 74.816406 46.460938 74.425781 47.285156 73.996094 48.09375 C 73.5625 48.898438 73.09375 49.683594 72.585938 50.441406 C 72.078125 51.203125 71.535156 51.9375 70.953125 52.644531 C 70.375 53.351562 69.757812 54.027344 69.113281 54.675781 C 68.464844 55.320312 67.789062 55.933594 67.082031 56.515625 C 66.375 57.09375 65.640625 57.640625 64.882812 58.148438 C 64.121094 58.65625 63.335938 59.125 62.53125 59.554688 C 61.722656 59.988281 60.898438 60.378906 60.050781 60.726562 C 59.207031 61.078125 58.347656 61.386719 57.472656 61.652344 C 56.597656 61.917969 55.710938 62.140625 54.8125 62.316406 C 53.917969 62.496094 53.011719 62.628906 52.101562 62.71875 C 51.191406 62.808594 50.28125 62.855469 49.367188 62.855469 C 48.449219 62.855469 47.539062 62.808594 46.628906 62.71875 C 45.71875 62.628906 44.8125 62.496094 43.917969 62.316406 C 43.019531 62.140625 42.132812 61.917969 41.257812 61.652344 C 40.382812 61.386719 39.523438 61.078125 38.679688 60.726562 C 37.832031 60.378906 37.007812 59.988281 36.199219 59.554688 C 35.394531 59.125 34.609375 58.65625 33.851562 58.148438 C 33.089844 57.640625 32.355469 57.09375 31.648438 56.515625 C 30.941406 55.933594 30.265625 55.320312 29.617188 54.675781 C 28.972656 54.027344 28.359375 53.351562 27.777344 52.644531 C 27.199219 51.9375 26.652344 51.203125 26.144531 50.441406 C 25.636719 49.683594 25.167969 48.898438 24.734375 48.09375 C 24.304688 47.285156 23.914062 46.460938 23.5625 45.613281 C 23.214844 44.769531 22.90625 43.910156 22.640625 43.035156 C 22.375 42.160156 22.152344 41.273438 21.976562 40.375 C 21.796875 39.476562 21.664062 38.574219 21.574219 37.664062 C 21.484375 36.753906 21.4375 35.84375 21.4375 34.925781 C 21.4375 34.011719 21.484375 33.101562 21.574219 32.191406 C 21.664062 31.28125 21.796875 30.375 21.976562 29.480469 C 22.152344 28.582031 22.375 27.695312 22.640625 26.820312 C 22.90625 25.945312 23.214844 25.085938 23.5625 24.238281 C 23.914062 23.394531 24.304688 22.570312 24.734375 21.761719 C 25.167969 20.957031 25.636719 20.171875 26.144531 19.410156 C 26.652344 18.652344 27.199219 17.917969 27.777344 17.210938 C 28.359375 16.503906 28.972656 15.828125 29.617188 15.179688 C 30.265625 14.535156 30.941406 13.917969 31.648438 13.339844 C 32.355469 12.757812 33.089844 12.214844 33.851562 11.707031 C 34.609375 11.199219 35.394531 10.730469 36.199219 10.296875 C 37.007812 9.867188 37.832031 9.476562 38.679688 9.125 C 39.523438 8.777344 40.382812 8.46875 41.257812 8.203125 C 42.132812 7.9375 43.019531 7.714844 43.917969 7.535156 C 44.8125 7.359375 45.71875 7.222656 46.628906 7.136719 C 47.539062 7.046875 48.449219 7 49.367188 7 C 50.28125 7 51.191406 7.046875 52.101562 7.136719 C 53.011719 7.222656 53.917969 7.359375 54.8125 7.535156 C 55.710938 7.714844 56.597656 7.9375 57.472656 8.203125 C 58.347656 8.46875 59.207031 8.777344 60.050781 9.125 C 60.898438 9.476562 61.722656 9.867188 62.53125 10.296875 C 63.335938 10.730469 64.121094 11.199219 64.882812 11.707031 C 65.640625 12.214844 66.375 12.757812 67.082031 13.339844 C 67.789062 13.917969 68.464844 14.535156 69.113281 15.179688 C 69.757812 15.828125 70.375 16.503906 70.953125 17.210938 C 71.535156 17.917969 72.078125 18.652344 72.585938 19.410156 C 73.09375 20.171875 73.5625 20.957031 73.996094 21.761719 C 74.425781 22.570312 74.816406 23.394531 75.167969 24.238281 C 75.515625 25.085938 75.824219 25.945312 76.089844 26.820312 C 76.355469 27.695312 76.578125 28.582031 76.753906 29.480469 C 76.933594 30.375 77.066406 31.28125 77.15625 32.191406 C 77.246094 33.101562 77.292969 34.011719 77.292969 34.925781 Z M 77.292969 34.925781 " fill-opacity="1" fill-rule="nonzero"/></g><path fill="#fefefe" d="M 38.386719 35.09375 C 36.503906 35.09375 36.835938 35.492188 36.835938 32.328125 C 36.835938 31.765625 37.652344 31.910156 38.386719 31.910156 C 40.417969 31.910156 40.417969 35.09375 38.386719 35.09375 Z M 37.675781 34.277344 C 38.34375 34.277344 39.101562 34.402344 39.101562 33.441406 C 39.101562 32.601562 38.179688 32.726562 37.675781 32.726562 Z M 37.675781 34.277344 " fill-opacity="1" fill-rule="evenodd"/><path fill="#fefefe" d="M 38.386719 37.460938 C 36.503906 37.460938 36.835938 37.839844 36.835938 34.695312 C 36.835938 34.109375 37.652344 34.277344 38.386719 34.277344 C 40.417969 34.277344 40.417969 37.460938 38.386719 37.460938 Z M 37.675781 36.644531 C 38.34375 36.644531 39.101562 36.769531 39.101562 35.808594 C 39.101562 34.96875 38.179688 35.09375 37.675781 35.09375 Z M 37.675781 36.644531 " fill-opacity="1" fill-rule="evenodd"/><path fill="#fefefe" d="M 43.898438 37.460938 L 41.507812 37.460938 C 41.277344 37.460938 41.089844 37.273438 41.089844 37.042969 L 41.089844 32.328125 C 41.089844 31.785156 41.929688 31.785156 41.929688 32.328125 L 41.929688 36.644531 L 43.898438 36.644531 C 44.441406 36.644531 44.441406 37.460938 43.898438 37.460938 Z M 43.898438 37.460938 " fill-opacity="1" fill-rule="evenodd"/><path fill="#fefefe" d="M 47.3125 37.460938 C 46.308594 37.460938 45.488281 36.644531 45.488281 35.640625 L 45.488281 33.734375 C 45.488281 31.324219 49.136719 31.324219 49.136719 33.734375 L 49.136719 35.640625 C 49.136719 36.644531 48.316406 37.460938 47.3125 37.460938 Z M 47.3125 32.726562 C 46.746094 32.726562 46.308594 33.1875 46.308594 33.734375 L 46.308594 35.640625 C 46.308594 36.960938 48.316406 36.960938 48.316406 35.640625 L 48.316406 33.734375 C 48.316406 33.1875 47.855469 32.726562 47.3125 32.726562 Z M 47.3125 32.726562 " fill-opacity="1" fill-rule="evenodd"/><path fill="#fefefe" d="M 53.09375 37.460938 C 51.566406 37.460938 50.308594 36.207031 50.308594 34.675781 C 50.308594 32.308594 53.117188 31.03125 54.894531 32.558594 C 55.316406 32.917969 54.792969 33.542969 54.371094 33.1875 C 53.09375 32.097656 51.125 33 51.125 34.675781 C 51.125 37 54.519531 37.359375 55 35.09375 L 53.09375 35.09375 C 52.550781 35.09375 52.550781 34.257812 53.09375 34.257812 L 55.460938 34.257812 C 56.53125 34.257812 55.566406 37.460938 53.09375 37.460938 Z M 53.09375 37.460938 " fill-opacity="1" fill-rule="evenodd"/><path fill="#fefefe" d="M 55.441406 39.683594 L 37.257812 39.683594 C 36.710938 39.683594 36.710938 38.84375 37.257812 38.84375 L 55.421875 38.84375 C 55.964844 38.84375 55.964844 39.683594 55.441406 39.683594 Z M 55.441406 39.683594 " fill-opacity="1" fill-rule="evenodd"/><path fill="#fefefe" d="M 53.679688 41.882812 L 39.015625 41.882812 C 38.472656 41.882812 38.472656 41.066406 39.015625 41.066406 L 53.679688 41.066406 C 54.226562 41.066406 54.226562 41.882812 53.679688 41.882812 Z M 53.679688 41.882812 " fill-opacity="1" fill-rule="evenodd"/><path fill="#fefefe" d="M 51.460938 44.105469 L 41.238281 44.105469 C 40.691406 44.105469 40.691406 43.265625 41.238281 43.265625 L 51.460938 43.265625 C 52.003906 43.265625 52.003906 44.105469 51.460938 44.105469 Z M 51.460938 44.105469 " fill-opacity="1" fill-rule="evenodd"/><path fill="#fefefe" d="M 58.394531 46.996094 L 34.34375 46.996094 C 32.773438 46.996094 31.496094 45.714844 31.496094 44.144531 L 31.496094 25.730469 C 31.496094 24.160156 32.773438 22.878906 34.34375 22.878906 L 58.394531 22.878906 C 59.964844 22.878906 61.246094 24.160156 61.246094 25.730469 L 61.246094 44.144531 C 61.246094 45.714844 59.964844 46.996094 58.394531 46.996094 Z M 41.382812 28.097656 C 39.625 28.097656 39.625 25.4375 41.382812 25.4375 C 43.121094 25.4375 43.121094 28.097656 41.382812 28.097656 Z M 41.382812 26.253906 C 40.714844 26.253906 40.714844 27.257812 41.382812 27.257812 C 42.03125 27.257812 42.03125 26.253906 41.382812 26.253906 Z M 38.074219 28.097656 C 36.335938 28.097656 36.335938 25.4375 38.074219 25.4375 C 39.832031 25.4375 39.832031 28.097656 38.074219 28.097656 Z M 38.074219 26.253906 C 37.421875 26.253906 37.421875 27.257812 38.074219 27.257812 C 38.742188 27.257812 38.742188 26.253906 38.074219 26.253906 Z M 34.785156 28.097656 C 33.023438 28.097656 33.023438 25.4375 34.785156 25.4375 C 36.523438 25.4375 36.523438 28.097656 34.785156 28.097656 Z M 34.785156 26.253906 C 34.113281 26.253906 34.113281 27.257812 34.785156 27.257812 C 35.433594 27.257812 35.433594 26.253906 34.785156 26.253906 Z M 41.214844 30.234375 L 33.148438 30.234375 L 33.148438 44.144531 C 33.148438 44.796875 33.695312 45.339844 34.34375 45.339844 L 58.394531 45.339844 C 59.042969 45.339844 59.589844 44.796875 59.589844 44.144531 L 59.589844 27.425781 L 44.234375 27.425781 C 44.128906 29 42.808594 30.234375 41.214844 30.234375 Z M 41.214844 30.234375 " fill-opacity="1" fill-rule="evenodd"/><path fill="#fefefe" d="M 66.839844 42.46875 L 65.476562 42.46875 L 65.476562 27.386719 L 67.257812 27.386719 L 67.257812 42.050781 C 67.257812 42.28125 67.070312 42.46875 66.839844 42.46875 Z M 64.660156 27.386719 L 64.660156 42.46875 L 63.296875 42.46875 C 63.066406 42.46875 62.878906 42.28125 62.878906 42.050781 L 62.878906 27.386719 Z M 62.878906 26.566406 L 62.878906 25.058594 C 62.878906 24.304688 63.507812 23.675781 64.261719 23.675781 L 65.875 23.675781 C 66.628906 23.675781 67.257812 24.304688 67.257812 25.058594 L 67.257812 26.566406 Z M 62.878906 26.566406 " fill-opacity="1" fill-rule="evenodd"/><path fill="#fefefe" d="M 65.058594 46.175781 C 64.910156 46.175781 64.765625 46.09375 64.703125 45.945312 L 63.359375 43.160156 L 66.773438 43.160156 L 65.433594 45.945312 C 65.371094 46.09375 65.226562 46.175781 65.058594 46.175781 Z M 65.058594 46.175781 " fill-opacity="1" fill-rule="evenodd"/></svg>