<svg xmlns="http://www.w3.org/2000/svg" xmlns:xlink="http://www.w3.org/1999/xlink" width="132" zoomAndPan="magnify" viewBox="0 0 98.88 70.499998" height="94" preserveAspectRatio="xMidYMid meet" version="1.0"><defs><g/><clipPath id="9cc33a9287"><path d="M 30 9 L 71 9 L 71 50.792969 L 30 50.792969 Z M 30 9 " clip-rule="nonzero"/></clipPath><clipPath id="4765eee246"><path d="M 26.445312 6.109375 L 49 6.109375 L 49 29 L 26.445312 29 Z M 26.445312 6.109375 " clip-rule="nonzero"/></clipPath></defs><g clip-path="url(#9cc33a9287)"><path fill="#ffffff" d="M 64.800781 15.699219 C 63.757812 14.65625 62.613281 13.738281 61.371094 12.941406 C 60.128906 12.148438 58.8125 11.496094 57.429688 10.984375 C 56.046875 10.476562 54.621094 10.121094 53.160156 9.921875 C 51.699219 9.71875 50.234375 9.675781 48.761719 9.792969 C 46.144531 10 43.664062 10.691406 41.320312 11.875 C 41.125 11.972656 40.996094 12.125 40.925781 12.332031 C 40.859375 12.535156 40.875 12.738281 40.972656 12.929688 C 41.070312 13.125 41.21875 13.257812 41.425781 13.324219 C 41.632812 13.394531 41.832031 13.378906 42.027344 13.28125 C 44.1875 12.195312 46.472656 11.554688 48.886719 11.367188 C 49.617188 11.304688 50.351562 11.289062 51.082031 11.316406 C 51.816406 11.34375 52.546875 11.414062 53.269531 11.523438 C 53.996094 11.636719 54.710938 11.789062 55.417969 11.988281 C 56.125 12.183594 56.816406 12.417969 57.496094 12.695312 C 58.175781 12.972656 58.835938 13.289062 59.480469 13.640625 C 60.121094 13.996094 60.742188 14.386719 61.339844 14.8125 C 61.9375 15.242188 62.503906 15.699219 63.046875 16.195312 C 63.589844 16.6875 64.101562 17.210938 64.585938 17.765625 C 65.066406 18.316406 65.515625 18.898438 65.929688 19.503906 C 66.339844 20.109375 66.71875 20.738281 67.058594 21.386719 C 67.398438 22.035156 67.699219 22.703125 67.960938 23.390625 C 68.226562 24.074219 68.445312 24.773438 68.625 25.484375 C 68.808594 26.195312 68.945312 26.914062 69.042969 27.640625 C 69.136719 28.367188 69.191406 29.097656 69.203125 29.832031 C 69.214844 30.566406 69.179688 31.296875 69.105469 32.027344 C 69.03125 32.757812 68.914062 33.480469 68.753906 34.195312 C 68.59375 34.914062 68.394531 35.617188 68.152344 36.308594 C 67.910156 37.003906 67.628906 37.679688 67.308594 38.335938 C 66.988281 38.996094 66.628906 39.636719 66.234375 40.253906 C 65.839844 40.871094 65.40625 41.464844 64.941406 42.03125 C 64.476562 42.597656 63.980469 43.136719 63.453125 43.644531 C 62.925781 44.15625 62.367188 44.632812 61.785156 45.078125 C 61.199219 45.519531 60.59375 45.929688 59.960938 46.300781 C 59.328125 46.675781 58.679688 47.011719 58.007812 47.308594 C 57.335938 47.605469 56.652344 47.859375 55.949219 48.078125 C 55.25 48.292969 54.539062 48.46875 53.816406 48.601562 C 53.09375 48.734375 52.367188 48.824219 51.636719 48.875 C 50.90625 48.921875 50.171875 48.929688 49.4375 48.890625 C 48.707031 48.851562 47.980469 48.773438 47.253906 48.652344 C 46.53125 48.527344 45.820312 48.363281 45.113281 48.15625 C 44.410156 47.949219 43.722656 47.703125 43.046875 47.417969 C 42.371094 47.128906 41.714844 46.804688 41.078125 46.441406 C 40.199219 45.945312 39.28125 45.859375 38.328125 46.1875 L 32.3125 48.1875 L 34.316406 42.175781 C 34.644531 41.222656 34.558594 40.308594 34.058594 39.433594 C 33.167969 37.871094 32.515625 36.210938 32.097656 34.460938 C 31.683594 32.710938 31.519531 30.9375 31.609375 29.140625 C 31.75 26.433594 32.449219 23.882812 33.714844 21.484375 C 33.816406 21.292969 33.832031 21.09375 33.769531 20.886719 C 33.703125 20.679688 33.574219 20.523438 33.382812 20.421875 C 33.191406 20.320312 32.988281 20.300781 32.78125 20.367188 C 32.574219 20.429688 32.417969 20.558594 32.316406 20.753906 C 30.945312 23.355469 30.183594 26.125 30.035156 29.0625 C 29.9375 31.007812 30.113281 32.933594 30.566406 34.828125 C 31.019531 36.726562 31.726562 38.523438 32.691406 40.21875 C 32.953125 40.683594 32.996094 41.167969 32.820312 41.671875 L 30.320312 49.1875 C 30.214844 49.492188 30.28125 49.761719 30.507812 49.992188 C 30.738281 50.222656 31.007812 50.285156 31.316406 50.183594 L 38.828125 47.679688 C 39.335938 47.503906 39.824219 47.546875 40.292969 47.8125 C 43.433594 49.601562 46.808594 50.496094 50.421875 50.492188 C 50.761719 50.492188 51.101562 50.480469 51.441406 50.464844 C 52.421875 50.414062 53.390625 50.292969 54.351562 50.105469 C 55.316406 49.914062 56.257812 49.65625 57.183594 49.328125 C 58.105469 49 59.003906 48.609375 59.871094 48.15625 C 60.738281 47.699219 61.570312 47.183594 62.363281 46.605469 C 63.15625 46.03125 63.902344 45.402344 64.605469 44.71875 C 65.308594 44.035156 65.960938 43.304688 66.554688 42.527344 C 67.152344 41.75 67.691406 40.933594 68.171875 40.078125 C 68.652344 39.222656 69.066406 38.335938 69.417969 37.421875 C 69.769531 36.507812 70.054688 35.570312 70.269531 34.613281 C 70.488281 33.660156 70.632812 32.691406 70.710938 31.714844 C 70.789062 30.738281 70.792969 29.757812 70.730469 28.78125 C 70.664062 27.804688 70.53125 26.835938 70.328125 25.875 C 70.125 24.917969 69.851562 23.976562 69.511719 23.058594 C 69.175781 22.136719 68.769531 21.246094 68.300781 20.386719 C 67.835938 19.523438 67.308594 18.699219 66.71875 17.914062 C 66.132812 17.128906 65.492188 16.390625 64.800781 15.699219 Z M 64.800781 15.699219 " fill-opacity="1" fill-rule="nonzero"/></g><g clip-path="url(#4765eee246)"><path fill="#ffffff" d="M 42.839844 26.859375 L 47.691406 28.164062 C 47.984375 28.242188 48.238281 28.171875 48.453125 27.960938 C 48.667969 27.746094 48.738281 27.492188 48.65625 27.199219 L 47.355469 22.34375 C 47.242188 21.921875 47.027344 21.554688 46.71875 21.242188 L 34.785156 9.3125 L 34.785156 9.308594 L 32.542969 7.066406 C 32.3125 6.835938 32.046875 6.660156 31.742188 6.535156 C 31.441406 6.410156 31.128906 6.347656 30.800781 6.347656 C 30.476562 6.347656 30.160156 6.410156 29.859375 6.535156 C 29.558594 6.660156 29.292969 6.835938 29.0625 7.066406 L 27.5625 8.566406 C 27.332031 8.796875 27.152344 9.0625 27.03125 9.367188 C 26.90625 9.667969 26.84375 9.980469 26.84375 10.308594 C 26.84375 10.632812 26.90625 10.945312 27.03125 11.25 C 27.15625 11.550781 27.332031 11.816406 27.5625 12.046875 L 41.738281 26.222656 C 42.050781 26.535156 42.417969 26.746094 42.839844 26.859375 Z M 45.375 22.128906 C 45.351562 22.144531 45.328125 22.15625 45.304688 22.175781 L 42.671875 24.808594 C 42.652344 24.832031 42.636719 24.855469 42.625 24.878906 L 31.476562 13.734375 L 34.226562 10.980469 Z M 46.78125 26.285156 L 44.132812 25.574219 L 46.070312 23.640625 Z M 28.675781 9.679688 L 30.175781 8.183594 C 30.347656 8.007812 30.558594 7.921875 30.800781 7.921875 C 31.046875 7.921875 31.253906 8.007812 31.425781 8.183594 L 33.113281 9.867188 L 30.363281 12.617188 L 28.675781 10.933594 C 28.503906 10.757812 28.417969 10.550781 28.417969 10.308594 C 28.417969 10.0625 28.503906 9.855469 28.675781 9.679688 Z M 28.675781 9.679688 " fill-opacity="1" fill-rule="nonzero"/></g><path fill="#ffffff" d="M 63.324219 31.878906 L 41.796875 31.878906 C 41.582031 31.878906 41.394531 31.957031 41.242188 32.109375 C 41.085938 32.261719 41.011719 32.449219 41.011719 32.667969 C 41.011719 32.882812 41.085938 33.070312 41.242188 33.222656 C 41.394531 33.378906 41.582031 33.453125 41.796875 33.453125 L 63.324219 33.453125 C 63.542969 33.453125 63.726562 33.378906 63.882812 33.222656 C 64.035156 33.070312 64.113281 32.882812 64.113281 32.667969 C 64.113281 32.449219 64.035156 32.261719 63.882812 32.109375 C 63.726562 31.957031 63.542969 31.878906 63.324219 31.878906 Z M 63.324219 31.878906 " fill-opacity="1" fill-rule="nonzero"/><path fill="#ffffff" d="M 63.324219 37.144531 L 47.898438 37.144531 C 47.679688 37.144531 47.492188 37.21875 47.339844 37.375 C 47.183594 37.527344 47.109375 37.714844 47.109375 37.933594 C 47.109375 38.148438 47.183594 38.335938 47.339844 38.488281 C 47.492188 38.644531 47.679688 38.71875 47.898438 38.71875 L 63.324219 38.71875 C 63.542969 38.71875 63.726562 38.644531 63.882812 38.488281 C 64.035156 38.335938 64.113281 38.148438 64.113281 37.933594 C 64.113281 37.714844 64.035156 37.527344 63.882812 37.375 C 63.726562 37.21875 63.542969 37.144531 63.324219 37.144531 Z M 63.324219 37.144531 " fill-opacity="1" fill-rule="nonzero"/><path fill="#ffffff" d="M 42.390625 37.933594 C 42.390625 38.164062 42.472656 38.359375 42.636719 38.523438 C 42.800781 38.6875 42.996094 38.769531 43.226562 38.769531 C 43.457031 38.769531 43.65625 38.6875 43.820312 38.523438 C 43.980469 38.359375 44.0625 38.164062 44.0625 37.933594 C 44.0625 37.699219 43.980469 37.503906 43.820312 37.339844 C 43.65625 37.175781 43.457031 37.09375 43.226562 37.09375 C 42.996094 37.09375 42.800781 37.175781 42.636719 37.339844 C 42.472656 37.503906 42.390625 37.699219 42.390625 37.933594 Z M 42.390625 37.933594 " fill-opacity="1" fill-rule="nonzero"/><g fill="#ffffff" fill-opacity="1"><g transform="translate(41.432342, 62.719428)"><g><path d="M 3.796875 -3.125 C 4.515625 -2.894531 4.875 -2.394531 4.875 -1.625 C 4.875 -1.113281 4.707031 -0.710938 4.375 -0.421875 C 4.039062 -0.140625 3.585938 0 3.015625 0 L 0.625 0 L 0.625 -5.71875 L 2.78125 -5.71875 C 3.875 -5.71875 4.421875 -5.257812 4.421875 -4.34375 C 4.421875 -3.769531 4.210938 -3.363281 3.796875 -3.125 Z M 1.671875 -3.46875 L 2.625 -3.46875 C 2.882812 -3.46875 3.078125 -3.519531 3.203125 -3.625 C 3.328125 -3.738281 3.390625 -3.90625 3.390625 -4.125 C 3.390625 -4.363281 3.328125 -4.53125 3.203125 -4.625 C 3.078125 -4.726562 2.882812 -4.78125 2.625 -4.78125 L 1.671875 -4.78125 Z M 2.859375 -0.9375 C 3.160156 -0.9375 3.390625 -0.992188 3.546875 -1.109375 C 3.710938 -1.234375 3.796875 -1.441406 3.796875 -1.734375 C 3.796875 -2.023438 3.710938 -2.234375 3.546875 -2.359375 C 3.378906 -2.484375 3.148438 -2.546875 2.859375 -2.546875 L 1.671875 -2.546875 L 1.671875 -0.9375 Z M 2.859375 -0.9375 "/></g></g></g><g fill="#ffffff" fill-opacity="1"><g transform="translate(46.544737, 62.719428)"><g><path d="M 1.515625 0.078125 C 1.171875 0.078125 0.910156 -0.0195312 0.734375 -0.21875 C 0.554688 -0.414062 0.46875 -0.671875 0.46875 -0.984375 L 0.46875 -6.125 L 1.484375 -6.125 L 1.484375 -1.40625 C 1.484375 -1.1875 1.492188 -1.03125 1.515625 -0.9375 C 1.546875 -0.851562 1.59375 -0.800781 1.65625 -0.78125 C 1.71875 -0.757812 1.828125 -0.75 1.984375 -0.75 L 1.890625 0.078125 Z M 1.515625 0.078125 "/></g></g></g><g fill="#ffffff" fill-opacity="1"><g transform="translate(48.692595, 62.719428)"><g><path d="M 2.328125 0.078125 C 1.898438 0.078125 1.523438 -0.015625 1.203125 -0.203125 C 0.890625 -0.390625 0.648438 -0.644531 0.484375 -0.96875 C 0.316406 -1.289062 0.234375 -1.644531 0.234375 -2.03125 C 0.234375 -2.414062 0.316406 -2.769531 0.484375 -3.09375 C 0.648438 -3.425781 0.890625 -3.6875 1.203125 -3.875 C 1.523438 -4.070312 1.898438 -4.171875 2.328125 -4.171875 C 2.753906 -4.171875 3.125 -4.070312 3.4375 -3.875 C 3.757812 -3.6875 4.003906 -3.425781 4.171875 -3.09375 C 4.335938 -2.769531 4.421875 -2.414062 4.421875 -2.03125 C 4.421875 -1.644531 4.335938 -1.289062 4.171875 -0.96875 C 4.003906 -0.644531 3.757812 -0.390625 3.4375 -0.203125 C 3.125 -0.015625 2.753906 0.078125 2.328125 0.078125 Z M 2.328125 -0.75 C 2.660156 -0.75 2.921875 -0.863281 3.109375 -1.09375 C 3.296875 -1.332031 3.390625 -1.644531 3.390625 -2.03125 C 3.390625 -2.425781 3.296875 -2.738281 3.109375 -2.96875 C 2.921875 -3.207031 2.660156 -3.328125 2.328125 -3.328125 C 1.992188 -3.328125 1.734375 -3.207031 1.546875 -2.96875 C 1.359375 -2.738281 1.265625 -2.425781 1.265625 -2.03125 C 1.265625 -1.644531 1.359375 -1.332031 1.546875 -1.09375 C 1.734375 -0.863281 1.992188 -0.75 2.328125 -0.75 Z M 2.328125 -0.75 "/></g></g></g><g fill="#ffffff" fill-opacity="1"><g transform="translate(53.347654, 62.719428)"><g><path d="M 2.09375 2.0625 C 1.507812 2.0625 1.046875 1.957031 0.703125 1.75 C 0.367188 1.539062 0.203125 1.253906 0.203125 0.890625 C 0.203125 0.492188 0.421875 0.171875 0.859375 -0.078125 C 0.617188 -0.222656 0.5 -0.414062 0.5 -0.65625 C 0.5 -0.78125 0.535156 -0.890625 0.609375 -0.984375 C 0.679688 -1.085938 0.78125 -1.164062 0.90625 -1.21875 C 0.695312 -1.375 0.539062 -1.566406 0.4375 -1.796875 C 0.332031 -2.023438 0.28125 -2.273438 0.28125 -2.546875 C 0.28125 -2.835938 0.34375 -3.109375 0.46875 -3.359375 C 0.601562 -3.609375 0.796875 -3.804688 1.046875 -3.953125 C 1.296875 -4.097656 1.59375 -4.171875 1.9375 -4.171875 C 2.289062 -4.171875 2.601562 -4.082031 2.875 -3.90625 C 2.957031 -3.957031 3.078125 -4 3.234375 -4.03125 C 3.390625 -4.0625 3.5625 -4.078125 3.75 -4.078125 L 4 -4.078125 L 3.9375 -3.453125 L 3.578125 -3.453125 C 3.484375 -3.453125 3.40625 -3.445312 3.34375 -3.4375 C 3.507812 -3.1875 3.59375 -2.890625 3.59375 -2.546875 C 3.59375 -2.242188 3.523438 -1.96875 3.390625 -1.71875 C 3.265625 -1.46875 3.078125 -1.269531 2.828125 -1.125 C 2.578125 -0.988281 2.28125 -0.921875 1.9375 -0.921875 C 1.8125 -0.921875 1.664062 -0.9375 1.5 -0.96875 C 1.4375 -0.945312 1.40625 -0.90625 1.40625 -0.84375 C 1.40625 -0.769531 1.445312 -0.710938 1.53125 -0.671875 C 1.625 -0.628906 1.769531 -0.597656 1.96875 -0.578125 L 2.671875 -0.484375 C 3.609375 -0.359375 4.078125 0.0351562 4.078125 0.703125 C 4.078125 1.117188 3.898438 1.445312 3.546875 1.6875 C 3.203125 1.9375 2.71875 2.0625 2.09375 2.0625 Z M 1.9375 -1.671875 C 2.164062 -1.671875 2.34375 -1.75 2.46875 -1.90625 C 2.601562 -2.0625 2.671875 -2.273438 2.671875 -2.546875 C 2.671875 -2.816406 2.601562 -3.03125 2.46875 -3.1875 C 2.34375 -3.34375 2.164062 -3.421875 1.9375 -3.421875 C 1.695312 -3.421875 1.507812 -3.34375 1.375 -3.1875 C 1.25 -3.03125 1.1875 -2.816406 1.1875 -2.546875 C 1.1875 -2.273438 1.25 -2.0625 1.375 -1.90625 C 1.507812 -1.75 1.695312 -1.671875 1.9375 -1.671875 Z M 2.140625 1.296875 C 2.828125 1.296875 3.171875 1.125 3.171875 0.78125 C 3.171875 0.625 3.109375 0.507812 2.984375 0.4375 C 2.867188 0.363281 2.675781 0.304688 2.40625 0.265625 L 1.5 0.125 C 1.1875 0.25 1.03125 0.441406 1.03125 0.703125 C 1.03125 0.898438 1.125 1.046875 1.3125 1.140625 C 1.507812 1.242188 1.785156 1.296875 2.140625 1.296875 Z M 2.140625 1.296875 "/></g></g></g></svg>