<svg xmlns="http://www.w3.org/2000/svg" xmlns:xlink="http://www.w3.org/1999/xlink" width="132" zoomAndPan="magnify" viewBox="0 0 98.88 70.499998" height="94" preserveAspectRatio="xMidYMid meet" version="1.0"><defs><clipPath id="b52e6275f8"><path d="M 21.4375 7 L 77.292969 7 L 77.292969 62.855469 L 21.4375 62.855469 Z M 21.4375 7 " clip-rule="nonzero"/></clipPath></defs><g clip-path="url(#b52e6275f8)"><path fill="#ffffff" d="M 41.3125 7.121094 C 35.886719 7.164062 32.351562 9.640625 32.121094 9.808594 C 31.875 9.988281 31.699219 10.25 31.628906 10.546875 L 27.515625 28.035156 C 27.417969 28.464844 27.546875 28.917969 27.863281 29.230469 C 28.175781 29.539062 28.632812 29.664062 29.058594 29.5625 C 33.386719 28.195312 39.953125 28 46.695312 31.769531 C 46.882812 31.875 47.097656 31.929688 47.3125 31.929688 C 47.480469 31.929688 47.652344 31.894531 47.8125 31.828125 C 48.175781 31.671875 48.445312 31.355469 48.542969 30.972656 L 53.363281 12.074219 C 53.496094 11.542969 53.277344 10.988281 52.816406 10.691406 C 48.503906 7.941406 44.566406 7.09375 41.3125 7.121094 Z M 56.691406 13.664062 C 56.496094 13.644531 56.292969 13.671875 56.105469 13.746094 C 55.722656 13.894531 55.4375 14.21875 55.335938 14.613281 L 50.542969 33.398438 C 50.414062 33.902344 50.609375 34.4375 51.035156 34.742188 C 55.390625 37.871094 59.792969 38.804688 63.511719 38.804688 C 67.121094 38.804688 70.085938 37.929688 71.746094 37.296875 C 72.140625 37.144531 72.433594 36.8125 72.527344 36.402344 L 77.269531 16.242188 C 77.390625 15.726562 77.179688 15.195312 76.742188 14.898438 C 76.304688 14.605469 75.726562 14.613281 75.292969 14.921875 C 74.972656 15.148438 67.433594 20.589844 57.257812 13.863281 C 57.085938 13.75 56.890625 13.6875 56.691406 13.664062 Z M 34.902344 31.21875 C 31.402344 31.308594 28.539062 32.257812 26.957031 32.863281 C 26.5625 33.015625 26.269531 33.347656 26.171875 33.757812 L 21.472656 53.753906 C 21.449219 53.847656 21.4375 54 21.4375 54.097656 C 21.4375 54.574219 21.707031 55.007812 22.128906 55.226562 C 22.546875 55.441406 23.449219 55.132812 23.449219 55.132812 C 23.449219 55.132812 30.902344 49.597656 40.566406 55.652344 C 40.765625 55.769531 40.988281 55.828125 41.214844 55.828125 C 41.378906 55.828125 41.546875 55.796875 41.703125 55.730469 C 42.070312 55.578125 42.347656 55.261719 42.445312 54.875 L 47.230469 36.117188 C 47.363281 35.582031 47.144531 35.027344 46.6875 34.730469 C 42.542969 31.902344 38.402344 31.132812 34.902344 31.21875 Z M 50.554688 37.644531 C 50.359375 37.625 50.160156 37.65625 49.972656 37.730469 C 49.597656 37.882812 49.316406 38.203125 49.21875 38.59375 L 44.429688 57.367188 C 44.296875 57.878906 44.5 58.417969 44.933594 58.71875 C 49.625 61.996094 53.925781 62.929688 57.28125 62.929688 C 58.375 62.929688 59.371094 62.820312 60.242188 62.675781 C 64.125 62.023438 66.523438 60.308594 66.625 60.238281 C 66.890625 60.042969 67.070312 59.695312 67.128906 59.351562 L 71.183594 42.125 C 71.28125 41.695312 71.152344 41.242188 70.835938 40.929688 C 70.519531 40.621094 70.066406 40.492188 69.640625 40.597656 C 63.15625 42.207031 56.71875 41.285156 51.113281 37.828125 C 50.941406 37.722656 50.75 37.660156 50.554688 37.644531 Z M 50.554688 37.644531 " fill-opacity="1" fill-rule="nonzero"/></g></svg>