<svg xmlns="http://www.w3.org/2000/svg" xmlns:xlink="http://www.w3.org/1999/xlink" width="132" zoomAndPan="magnify" viewBox="0 0 98.88 70.499998" height="94" preserveAspectRatio="xMidYMid meet" version="1.0"><defs><g/><clipPath id="8a4095ff38"><path d="M 28.339844 14 L 70.789062 14 L 70.789062 49.449219 L 28.339844 49.449219 Z M 28.339844 14 " clip-rule="nonzero"/></clipPath><clipPath id="b981059302"><path d="M 50 7 L 70.789062 7 L 70.789062 27 L 50 27 Z M 50 7 " clip-rule="nonzero"/></clipPath></defs><g clip-path="url(#8a4095ff38)"><path fill="#ffffff" d="M 69.871094 22.824219 C 69.507812 22.824219 69.214844 23.117188 69.214844 23.480469 L 69.214844 36.007812 L 29.65625 36.007812 L 29.65625 16.890625 C 29.65625 16.527344 29.953125 16.230469 30.316406 16.230469 L 49.433594 16.230469 C 49.800781 16.230469 50.09375 15.933594 50.09375 15.570312 C 50.09375 15.207031 49.800781 14.910156 49.433594 14.910156 L 30.316406 14.910156 C 29.226562 14.910156 28.339844 15.796875 28.339844 16.890625 L 28.339844 39.304688 C 28.339844 40.394531 29.226562 41.28125 30.316406 41.28125 L 44.734375 41.28125 L 44.238281 45.238281 L 40.863281 45.238281 C 39.773438 45.238281 38.886719 46.125 38.886719 47.214844 L 38.886719 48.535156 C 38.886719 48.898438 39.183594 49.191406 39.546875 49.191406 L 59.324219 49.191406 C 59.6875 49.191406 59.984375 48.898438 59.984375 48.535156 L 59.984375 47.214844 C 59.984375 46.125 59.097656 45.238281 58.003906 45.238281 L 54.632812 45.238281 L 54.136719 41.28125 L 68.554688 41.28125 C 69.644531 41.28125 70.53125 40.394531 70.53125 39.304688 L 70.53125 23.480469 C 70.53125 23.117188 70.238281 22.824219 69.871094 22.824219 Z M 58.664062 47.214844 L 58.664062 47.875 L 40.207031 47.875 L 40.207031 47.214844 C 40.207031 46.851562 40.5 46.554688 40.863281 46.554688 L 58.003906 46.554688 C 58.371094 46.554688 58.664062 46.851562 58.664062 47.214844 Z M 53.304688 45.238281 L 45.566406 45.238281 L 46.0625 41.28125 L 52.808594 41.28125 Z M 68.554688 39.964844 L 30.316406 39.964844 C 29.953125 39.964844 29.65625 39.667969 29.65625 39.304688 L 29.65625 37.328125 L 69.214844 37.328125 L 69.214844 39.304688 C 69.214844 39.667969 68.917969 39.964844 68.554688 39.964844 Z M 68.554688 39.964844 " fill-opacity="1" fill-rule="nonzero"/></g><path fill="#ffffff" d="M 33.382812 28.714844 C 33.722656 28.839844 34.101562 28.667969 34.230469 28.328125 L 34.5625 27.4375 L 36.617188 27.4375 L 36.949219 28.328125 C 37.050781 28.59375 37.300781 28.757812 37.566406 28.757812 C 37.644531 28.757812 37.722656 28.742188 37.800781 28.714844 C 38.140625 28.585938 38.3125 28.207031 38.1875 27.867188 L 36.207031 22.589844 C 36.113281 22.335938 35.867188 22.164062 35.589844 22.164062 C 35.316406 22.164062 35.070312 22.335938 34.972656 22.589844 L 32.996094 27.867188 C 32.867188 28.207031 33.039062 28.585938 33.382812 28.714844 Z M 35.589844 24.699219 L 36.121094 26.117188 L 35.058594 26.117188 Z M 35.589844 24.699219 " fill-opacity="1" fill-rule="nonzero"/><path fill="#ffffff" d="M 39.546875 28.757812 C 39.910156 28.757812 40.207031 28.460938 40.207031 28.097656 L 40.207031 22.824219 C 40.207031 22.457031 39.910156 22.164062 39.546875 22.164062 C 39.183594 22.164062 38.886719 22.457031 38.886719 22.824219 L 38.886719 28.097656 C 38.886719 28.460938 39.183594 28.757812 39.546875 28.757812 Z M 39.546875 28.757812 " fill-opacity="1" fill-rule="nonzero"/><path fill="#ffffff" d="M 60.640625 12.933594 C 58.460938 12.933594 56.6875 14.707031 56.6875 16.890625 C 56.6875 19.070312 58.460938 20.84375 60.640625 20.84375 C 62.824219 20.84375 64.597656 19.070312 64.597656 16.890625 C 64.597656 14.707031 62.824219 12.933594 60.640625 12.933594 Z M 60.640625 19.527344 C 59.1875 19.527344 58.003906 18.34375 58.003906 16.890625 C 58.003906 15.433594 59.1875 14.253906 60.640625 14.253906 C 62.097656 14.253906 63.28125 15.433594 63.28125 16.890625 C 63.28125 18.34375 62.097656 19.527344 60.640625 19.527344 Z M 60.640625 19.527344 " fill-opacity="1" fill-rule="nonzero"/><g clip-path="url(#b981059302)"><path fill="#ffffff" d="M 69.9375 14.253906 L 67.570312 14.019531 L 69.078125 12.179688 C 69.292969 11.917969 69.273438 11.535156 69.035156 11.296875 L 66.238281 8.5 C 65.996094 8.257812 65.613281 8.238281 65.351562 8.453125 L 63.511719 9.960938 L 63.277344 7.59375 C 63.242188 7.257812 62.957031 7 62.621094 7 L 58.664062 7 C 58.324219 7 58.042969 7.257812 58.007812 7.59375 L 57.773438 9.960938 L 55.933594 8.453125 C 55.667969 8.238281 55.289062 8.257812 55.046875 8.5 L 52.25 11.296875 C 52.011719 11.535156 51.992188 11.917969 52.207031 12.179688 L 53.714844 14.019531 L 51.347656 14.253906 C 51.011719 14.289062 50.753906 14.574219 50.753906 14.910156 L 50.753906 18.867188 C 50.753906 19.207031 51.011719 19.488281 51.347656 19.523438 L 53.714844 19.757812 L 52.207031 21.601562 C 51.992188 21.863281 52.011719 22.242188 52.25 22.484375 L 55.046875 25.28125 C 55.289062 25.519531 55.667969 25.539062 55.933594 25.324219 L 57.773438 23.820312 L 58.007812 26.183594 C 58.042969 26.523438 58.324219 26.777344 58.664062 26.777344 L 62.621094 26.777344 C 62.957031 26.777344 63.242188 26.523438 63.277344 26.183594 L 63.511719 23.820312 L 65.351562 25.324219 C 65.613281 25.539062 65.996094 25.519531 66.238281 25.28125 L 69.035156 22.484375 C 69.273438 22.242188 69.292969 21.863281 69.078125 21.601562 L 67.570312 19.757812 L 69.9375 19.523438 C 70.273438 19.488281 70.53125 19.207031 70.53125 18.867188 L 70.53125 14.910156 C 70.53125 14.574219 70.273438 14.289062 69.9375 14.253906 Z M 69.214844 18.269531 L 66.21875 18.570312 C 65.976562 18.59375 65.765625 18.75 65.675781 18.972656 C 65.582031 19.199219 65.621094 19.457031 65.773438 19.644531 L 67.679688 21.972656 L 65.726562 23.925781 L 63.394531 22.019531 C 63.207031 21.867188 62.949219 21.828125 62.726562 21.921875 C 62.503906 22.015625 62.347656 22.222656 62.324219 22.464844 L 62.023438 25.460938 L 59.261719 25.460938 L 58.960938 22.464844 C 58.9375 22.222656 58.78125 22.015625 58.558594 21.921875 C 58.332031 21.828125 58.078125 21.867188 57.890625 22.019531 L 55.558594 23.925781 L 53.605469 21.972656 L 55.511719 19.644531 C 55.664062 19.457031 55.703125 19.199219 55.609375 18.972656 C 55.519531 18.75 55.308594 18.59375 55.066406 18.570312 L 52.070312 18.269531 L 52.070312 15.507812 L 55.066406 15.207031 C 55.308594 15.183594 55.519531 15.03125 55.609375 14.804688 C 55.703125 14.582031 55.664062 14.324219 55.511719 14.136719 L 53.605469 11.804688 L 55.558594 9.851562 L 57.890625 11.757812 C 58.078125 11.910156 58.332031 11.949219 58.558594 11.855469 C 58.78125 11.765625 58.9375 11.554688 58.960938 11.3125 L 59.261719 8.320312 L 62.023438 8.320312 L 62.324219 11.3125 C 62.347656 11.554688 62.503906 11.765625 62.726562 11.855469 C 62.949219 11.949219 63.207031 11.910156 63.394531 11.757812 L 65.726562 9.851562 L 67.679688 11.804688 L 65.773438 14.136719 C 65.621094 14.324219 65.582031 14.582031 65.675781 14.804688 C 65.765625 15.03125 65.976562 15.183594 66.21875 15.207031 L 69.214844 15.507812 Z M 69.214844 18.269531 " fill-opacity="1" fill-rule="nonzero"/></g><path fill="#ffffff" d="M 48.238281 26.777344 C 48.511719 27.542969 49.234375 28.097656 50.09375 28.097656 C 51.183594 28.097656 52.070312 27.210938 52.070312 26.117188 C 52.070312 25.027344 51.183594 24.140625 50.09375 24.140625 C 49.234375 24.140625 48.511719 24.695312 48.238281 25.460938 L 42.84375 25.460938 L 42.84375 24.140625 L 46.796875 24.140625 C 47.164062 24.140625 47.457031 23.847656 47.457031 23.480469 L 47.457031 20.722656 C 48.222656 20.449219 48.777344 19.726562 48.777344 18.867188 C 48.777344 17.777344 47.886719 16.890625 46.796875 16.890625 C 45.707031 16.890625 44.820312 17.777344 44.820312 18.867188 C 44.820312 19.726562 45.371094 20.449219 46.140625 20.722656 L 46.140625 22.824219 L 42.84375 22.824219 L 42.84375 20.84375 C 42.84375 20.480469 42.546875 20.1875 42.183594 20.1875 L 31.636719 20.1875 C 31.269531 20.1875 30.976562 20.480469 30.976562 20.84375 L 30.976562 31.394531 C 30.976562 31.757812 31.269531 32.050781 31.636719 32.050781 L 42.183594 32.050781 C 42.546875 32.050781 42.84375 31.757812 42.84375 31.394531 L 42.84375 29.414062 L 46.140625 29.414062 L 46.140625 31.515625 C 45.371094 31.789062 44.820312 32.511719 44.820312 33.371094 C 44.820312 34.460938 45.707031 35.347656 46.796875 35.347656 C 47.886719 35.347656 48.777344 34.460938 48.777344 33.371094 C 48.777344 32.511719 48.222656 31.789062 47.457031 31.515625 L 47.457031 28.757812 C 47.457031 28.390625 47.164062 28.097656 46.796875 28.097656 L 42.84375 28.097656 L 42.84375 26.777344 Z M 50.09375 25.460938 C 50.457031 25.460938 50.753906 25.753906 50.753906 26.117188 C 50.753906 26.484375 50.457031 26.777344 50.09375 26.777344 C 49.730469 26.777344 49.433594 26.484375 49.433594 26.117188 C 49.433594 25.753906 49.730469 25.460938 50.09375 25.460938 Z M 46.796875 18.207031 C 47.160156 18.207031 47.457031 18.503906 47.457031 18.867188 C 47.457031 19.230469 47.160156 19.527344 46.796875 19.527344 C 46.433594 19.527344 46.140625 19.230469 46.140625 18.867188 C 46.140625 18.503906 46.433594 18.207031 46.796875 18.207031 Z M 41.523438 30.734375 L 32.292969 30.734375 L 32.292969 21.503906 L 41.523438 21.503906 Z M 46.796875 34.03125 C 46.433594 34.03125 46.140625 33.734375 46.140625 33.371094 C 46.140625 33.007812 46.433594 32.710938 46.796875 32.710938 C 47.160156 32.710938 47.457031 33.007812 47.457031 33.371094 C 47.457031 33.734375 47.160156 34.03125 46.796875 34.03125 Z M 46.796875 34.03125 " fill-opacity="1" fill-rule="nonzero"/><path fill="#ffffff" d="M 55.367188 29.414062 L 63.28125 29.414062 L 63.28125 30.734375 L 55.367188 30.734375 Z M 55.367188 29.414062 " fill-opacity="1" fill-rule="nonzero"/><path fill="#ffffff" d="M 64.597656 29.414062 L 65.917969 29.414062 L 65.917969 30.734375 L 64.597656 30.734375 Z M 64.597656 29.414062 " fill-opacity="1" fill-rule="nonzero"/><path fill="#ffffff" d="M 58.003906 32.050781 L 65.917969 32.050781 L 65.917969 33.371094 L 58.003906 33.371094 Z M 58.003906 32.050781 " fill-opacity="1" fill-rule="nonzero"/><path fill="#ffffff" d="M 55.367188 32.050781 L 56.6875 32.050781 L 56.6875 33.371094 L 55.367188 33.371094 Z M 55.367188 32.050781 " fill-opacity="1" fill-rule="nonzero"/><g fill="#ffffff" fill-opacity="1"><g transform="translate(13.479825, 60.790415)"><g/></g></g><g fill="#ffffff" fill-opacity="1"><g transform="translate(15.290261, 60.790415)"><g><path d="M 0.625 -5.625 L 2.625 -5.625 C 3.957031 -5.625 4.625 -5.019531 4.625 -3.8125 C 4.625 -3.1875 4.453125 -2.71875 4.109375 -2.40625 C 3.773438 -2.101562 3.285156 -1.953125 2.640625 -1.953125 L 1.65625 -1.953125 L 1.65625 0 L 0.625 0 Z M 2.53125 -2.8125 C 2.882812 -2.8125 3.144531 -2.890625 3.3125 -3.046875 C 3.488281 -3.210938 3.578125 -3.460938 3.578125 -3.796875 C 3.578125 -4.128906 3.488281 -4.375 3.3125 -4.53125 C 3.132812 -4.6875 2.863281 -4.765625 2.5 -4.765625 L 1.65625 -4.765625 L 1.65625 -2.8125 Z M 2.53125 -2.8125 "/></g></g></g><g fill="#ffffff" fill-opacity="1"><g transform="translate(20.08401, 60.790415)"><g><path d="M 2.5 -4.09375 C 3.007812 -4.09375 3.382812 -3.925781 3.625 -3.59375 C 3.875 -3.257812 4 -2.804688 4 -2.234375 L 4 0 L 3.015625 0 L 3.015625 -2.171875 C 3.015625 -2.546875 2.953125 -2.820312 2.828125 -3 C 2.703125 -3.175781 2.503906 -3.265625 2.234375 -3.265625 C 1.921875 -3.265625 1.660156 -3.148438 1.453125 -2.921875 L 1.453125 0 L 0.453125 0 L 0.453125 -6.03125 L 1.453125 -6.03125 L 1.453125 -3.765625 C 1.617188 -3.867188 1.785156 -3.945312 1.953125 -4 C 2.117188 -4.0625 2.300781 -4.09375 2.5 -4.09375 Z M 2.5 -4.09375 "/></g></g></g><g fill="#ffffff" fill-opacity="1"><g transform="translate(24.515815, 60.790415)"><g><path d="M 1.328125 0.078125 C 1.003906 0.078125 0.726562 -0.03125 0.5 -0.25 C 0.28125 -0.46875 0.171875 -0.757812 0.171875 -1.125 C 0.171875 -1.476562 0.296875 -1.757812 0.546875 -1.96875 C 0.796875 -2.175781 1.09375 -2.320312 1.4375 -2.40625 C 1.78125 -2.5 2.113281 -2.550781 2.4375 -2.5625 C 2.414062 -2.800781 2.347656 -2.972656 2.234375 -3.078125 C 2.128906 -3.179688 1.953125 -3.234375 1.703125 -3.234375 C 1.523438 -3.234375 1.351562 -3.207031 1.1875 -3.15625 C 1.019531 -3.101562 0.828125 -3.023438 0.609375 -2.921875 L 0.515625 -3.734375 C 1.003906 -3.972656 1.492188 -4.09375 1.984375 -4.09375 C 2.453125 -4.09375 2.8125 -3.960938 3.0625 -3.703125 C 3.3125 -3.441406 3.4375 -3.03125 3.4375 -2.46875 L 3.4375 -1.390625 C 3.4375 -1.179688 3.445312 -1.03125 3.46875 -0.9375 C 3.488281 -0.851562 3.519531 -0.796875 3.5625 -0.765625 C 3.601562 -0.742188 3.679688 -0.734375 3.796875 -0.734375 L 3.921875 -0.734375 L 3.828125 0.078125 L 3.46875 0.078125 C 3.25 0.078125 3.0625 0.0351562 2.90625 -0.046875 C 2.757812 -0.128906 2.644531 -0.242188 2.5625 -0.390625 C 2.4375 -0.242188 2.257812 -0.128906 2.03125 -0.046875 C 1.8125 0.0351562 1.578125 0.078125 1.328125 0.078125 Z M 1.75 -0.6875 C 1.851562 -0.6875 1.96875 -0.710938 2.09375 -0.765625 C 2.226562 -0.816406 2.34375 -0.882812 2.4375 -0.96875 L 2.4375 -1.890625 C 2.113281 -1.867188 1.828125 -1.796875 1.578125 -1.671875 C 1.335938 -1.554688 1.21875 -1.390625 1.21875 -1.171875 C 1.21875 -1.003906 1.257812 -0.878906 1.34375 -0.796875 C 1.425781 -0.722656 1.5625 -0.6875 1.75 -0.6875 Z M 2.109375 -6.625 L 2.96875 -6.625 L 3.390625 -5.59375 L 2.765625 -5.59375 Z M 0.921875 -4.984375 L 1.984375 -5.71875 L 3.046875 -4.984375 L 3.046875 -4.390625 L 1.984375 -4.96875 L 0.921875 -4.390625 Z M 0.921875 -4.984375 "/></g></g></g><g fill="#ffffff" fill-opacity="1"><g transform="translate(28.521329, 60.790415)"><g><path d="M 2.5 -4.09375 C 3 -4.09375 3.375 -3.925781 3.625 -3.59375 C 3.882812 -3.257812 4.015625 -2.8125 4.015625 -2.25 L 4.015625 0 L 3.015625 0 L 3.015625 -2.171875 C 3.015625 -2.546875 2.953125 -2.820312 2.828125 -3 C 2.703125 -3.175781 2.5 -3.265625 2.21875 -3.265625 C 1.914062 -3.265625 1.664062 -3.148438 1.46875 -2.921875 L 1.46875 0 L 0.46875 0 L 0.46875 -4.015625 L 1.40625 -4.015625 L 1.421875 -3.734375 C 1.753906 -3.972656 2.113281 -4.09375 2.5 -4.09375 Z M 2.5 -4.09375 "/></g></g></g><g fill="#ffffff" fill-opacity="1"><g transform="translate(32.961183, 60.790415)"><g/></g></g><g fill="#ffffff" fill-opacity="1"><g transform="translate(34.7709, 60.790415)"><g><path d="M 4.984375 -4.09375 C 5.515625 -4.09375 5.910156 -3.925781 6.171875 -3.59375 C 6.429688 -3.269531 6.5625 -2.816406 6.5625 -2.234375 L 6.5625 0 L 5.5625 0 L 5.5625 -2.171875 C 5.5625 -2.546875 5.503906 -2.820312 5.390625 -3 C 5.273438 -3.175781 5.082031 -3.265625 4.8125 -3.265625 C 4.550781 -3.265625 4.351562 -3.175781 4.21875 -3 C 4.082031 -2.820312 4.015625 -2.566406 4.015625 -2.234375 L 4.015625 0 L 3.015625 0 L 3.015625 -2.171875 C 3.015625 -2.546875 2.953125 -2.820312 2.828125 -3 C 2.703125 -3.175781 2.507812 -3.265625 2.25 -3.265625 C 1.925781 -3.265625 1.664062 -3.148438 1.46875 -2.921875 L 1.46875 0 L 0.46875 0 L 0.46875 -4.015625 L 1.3125 -4.015625 L 1.359375 -3.703125 C 1.722656 -3.960938 2.113281 -4.09375 2.53125 -4.09375 C 3.050781 -4.09375 3.4375 -3.90625 3.6875 -3.53125 C 3.820312 -3.707031 4.003906 -3.84375 4.234375 -3.9375 C 4.460938 -4.039062 4.710938 -4.09375 4.984375 -4.09375 Z M 4.984375 -4.09375 "/></g></g></g><g fill="#ffffff" fill-opacity="1"><g transform="translate(41.760445, 60.790415)"><g><path d="M 2.40625 0.078125 C 1.9375 0.078125 1.535156 -0.015625 1.203125 -0.203125 C 0.878906 -0.390625 0.632812 -0.644531 0.46875 -0.96875 C 0.300781 -1.289062 0.21875 -1.644531 0.21875 -2.03125 C 0.21875 -2.40625 0.296875 -2.75 0.453125 -3.0625 C 0.609375 -3.375 0.832031 -3.625 1.125 -3.8125 C 1.425781 -4 1.78125 -4.09375 2.1875 -4.09375 C 2.5625 -4.09375 2.878906 -4.015625 3.140625 -3.859375 C 3.398438 -3.703125 3.59375 -3.488281 3.71875 -3.21875 C 3.851562 -2.957031 3.921875 -2.664062 3.921875 -2.34375 C 3.921875 -2.175781 3.898438 -1.992188 3.859375 -1.796875 L 1.265625 -1.796875 C 1.316406 -1.441406 1.453125 -1.175781 1.671875 -1 C 1.898438 -0.820312 2.175781 -0.734375 2.5 -0.734375 C 2.925781 -0.734375 3.328125 -0.84375 3.703125 -1.0625 L 3.75 -0.21875 C 3.582031 -0.132812 3.382812 -0.0625 3.15625 0 C 2.925781 0.0507812 2.675781 0.078125 2.40625 0.078125 Z M 2.90625 -2.46875 C 2.90625 -2.675781 2.847656 -2.859375 2.734375 -3.015625 C 2.617188 -3.179688 2.4375 -3.265625 2.1875 -3.265625 C 1.9375 -3.265625 1.738281 -3.191406 1.59375 -3.046875 C 1.445312 -2.898438 1.34375 -2.707031 1.28125 -2.46875 Z M 2.390625 -6.625 L 3.25 -6.625 L 3.671875 -5.59375 L 3.046875 -5.59375 Z M 1.203125 -4.984375 L 2.265625 -5.71875 L 3.328125 -4.984375 L 3.328125 -4.390625 L 2.265625 -4.96875 L 1.203125 -4.390625 Z M 1.203125 -4.984375 "/></g></g></g><g fill="#ffffff" fill-opacity="1"><g transform="translate(45.902694, 60.790415)"><g><path d="M 4.984375 -4.09375 C 5.515625 -4.09375 5.910156 -3.925781 6.171875 -3.59375 C 6.429688 -3.269531 6.5625 -2.816406 6.5625 -2.234375 L 6.5625 0 L 5.5625 0 L 5.5625 -2.171875 C 5.5625 -2.546875 5.503906 -2.820312 5.390625 -3 C 5.273438 -3.175781 5.082031 -3.265625 4.8125 -3.265625 C 4.550781 -3.265625 4.351562 -3.175781 4.21875 -3 C 4.082031 -2.820312 4.015625 -2.566406 4.015625 -2.234375 L 4.015625 0 L 3.015625 0 L 3.015625 -2.171875 C 3.015625 -2.546875 2.953125 -2.820312 2.828125 -3 C 2.703125 -3.175781 2.507812 -3.265625 2.25 -3.265625 C 1.925781 -3.265625 1.664062 -3.148438 1.46875 -2.921875 L 1.46875 0 L 0.46875 0 L 0.46875 -4.015625 L 1.3125 -4.015625 L 1.359375 -3.703125 C 1.722656 -3.960938 2.113281 -4.09375 2.53125 -4.09375 C 3.050781 -4.09375 3.4375 -3.90625 3.6875 -3.53125 C 3.820312 -3.707031 4.003906 -3.84375 4.234375 -3.9375 C 4.460938 -4.039062 4.710938 -4.09375 4.984375 -4.09375 Z M 4.984375 -4.09375 "/></g></g></g><g fill="#ffffff" fill-opacity="1"><g transform="translate(52.892239, 60.790415)"><g/></g></g><g fill="#ffffff" fill-opacity="1"><g transform="translate(54.701956, 60.790415)"><g><path d="M 4.984375 -4.09375 C 5.515625 -4.09375 5.910156 -3.925781 6.171875 -3.59375 C 6.429688 -3.269531 6.5625 -2.816406 6.5625 -2.234375 L 6.5625 0 L 5.5625 0 L 5.5625 -2.171875 C 5.5625 -2.546875 5.503906 -2.820312 5.390625 -3 C 5.273438 -3.175781 5.082031 -3.265625 4.8125 -3.265625 C 4.550781 -3.265625 4.351562 -3.175781 4.21875 -3 C 4.082031 -2.820312 4.015625 -2.566406 4.015625 -2.234375 L 4.015625 0 L 3.015625 0 L 3.015625 -2.171875 C 3.015625 -2.546875 2.953125 -2.820312 2.828125 -3 C 2.703125 -3.175781 2.507812 -3.265625 2.25 -3.265625 C 1.925781 -3.265625 1.664062 -3.148438 1.46875 -2.921875 L 1.46875 0 L 0.46875 0 L 0.46875 -4.015625 L 1.3125 -4.015625 L 1.359375 -3.703125 C 1.722656 -3.960938 2.113281 -4.09375 2.53125 -4.09375 C 3.050781 -4.09375 3.4375 -3.90625 3.6875 -3.53125 C 3.820312 -3.707031 4.003906 -3.84375 4.234375 -3.9375 C 4.460938 -4.039062 4.710938 -4.09375 4.984375 -4.09375 Z M 4.984375 -4.09375 "/></g></g></g><g fill="#ffffff" fill-opacity="1"><g transform="translate(61.691501, 60.790415)"><g><path d="M 1.328125 0.078125 C 1.003906 0.078125 0.726562 -0.03125 0.5 -0.25 C 0.28125 -0.46875 0.171875 -0.757812 0.171875 -1.125 C 0.171875 -1.476562 0.296875 -1.757812 0.546875 -1.96875 C 0.796875 -2.175781 1.09375 -2.320312 1.4375 -2.40625 C 1.78125 -2.5 2.113281 -2.550781 2.4375 -2.5625 C 2.414062 -2.800781 2.347656 -2.972656 2.234375 -3.078125 C 2.128906 -3.179688 1.953125 -3.234375 1.703125 -3.234375 C 1.523438 -3.234375 1.351562 -3.207031 1.1875 -3.15625 C 1.019531 -3.101562 0.828125 -3.023438 0.609375 -2.921875 L 0.515625 -3.734375 C 1.003906 -3.972656 1.492188 -4.09375 1.984375 -4.09375 C 2.453125 -4.09375 2.8125 -3.960938 3.0625 -3.703125 C 3.3125 -3.441406 3.4375 -3.03125 3.4375 -2.46875 L 3.4375 -1.390625 C 3.4375 -1.179688 3.445312 -1.03125 3.46875 -0.9375 C 3.488281 -0.851562 3.519531 -0.796875 3.5625 -0.765625 C 3.601562 -0.742188 3.679688 -0.734375 3.796875 -0.734375 L 3.921875 -0.734375 L 3.828125 0.078125 L 3.46875 0.078125 C 3.25 0.078125 3.0625 0.0351562 2.90625 -0.046875 C 2.757812 -0.128906 2.644531 -0.242188 2.5625 -0.390625 C 2.4375 -0.242188 2.257812 -0.128906 2.03125 -0.046875 C 1.8125 0.0351562 1.578125 0.078125 1.328125 0.078125 Z M 1.75 -0.6875 C 1.851562 -0.6875 1.96875 -0.710938 2.09375 -0.765625 C 2.226562 -0.816406 2.34375 -0.882812 2.4375 -0.96875 L 2.4375 -1.890625 C 2.113281 -1.867188 1.828125 -1.796875 1.578125 -1.671875 C 1.335938 -1.554688 1.21875 -1.390625 1.21875 -1.171875 C 1.21875 -1.003906 1.257812 -0.878906 1.34375 -0.796875 C 1.425781 -0.722656 1.5625 -0.6875 1.75 -0.6875 Z M 1.203125 -5.21875 L 2.78125 -6.125 L 2.78125 -5.203125 L 1.203125 -4.59375 Z M 1.203125 -5.21875 "/></g></g></g><g fill="#ffffff" fill-opacity="1"><g transform="translate(65.697015, 60.790415)"><g><path d="M 1.6875 -0.265625 L 0.015625 -4.015625 L 1.125 -4.015625 L 2.15625 -1.4375 L 3.1875 -4.015625 L 4.3125 -4.015625 L 1.78125 1.953125 L 0.78125 1.953125 Z M 1.6875 -0.265625 "/></g></g></g><g fill="#ffffff" fill-opacity="1"><g transform="translate(70.016221, 60.790415)"><g/></g></g><g fill="#ffffff" fill-opacity="1"><g transform="translate(71.825938, 60.790415)"><g><path d="M 1.78125 0.078125 C 1.425781 0.078125 1.15625 -0.0234375 0.96875 -0.234375 C 0.789062 -0.441406 0.703125 -0.6875 0.703125 -0.96875 L 0.703125 -3.203125 L 0.125 -3.203125 L 0.21875 -4.015625 L 0.703125 -4.015625 L 0.703125 -4.90625 L 1.703125 -5.015625 L 1.703125 -4.015625 L 2.578125 -4.015625 L 2.578125 -3.203125 L 1.703125 -3.203125 L 1.703125 -1.390625 C 1.703125 -1.171875 1.710938 -1.019531 1.734375 -0.9375 C 1.753906 -0.851562 1.800781 -0.796875 1.875 -0.765625 C 1.957031 -0.742188 2.101562 -0.734375 2.3125 -0.734375 L 2.578125 -0.734375 L 2.5 0.078125 Z M 1.78125 0.078125 "/></g></g></g><g fill="#ffffff" fill-opacity="1"><g transform="translate(74.5928, 60.790415)"><g><path d="M 0.46875 -4.015625 L 1.46875 -4.015625 L 1.46875 0 L 0.46875 0 Z M 0.1875 -5.21875 L 1.765625 -6.125 L 1.765625 -5.203125 L 0.1875 -4.59375 Z M 0.1875 -5.21875 "/></g></g></g><g fill="#ffffff" fill-opacity="1"><g transform="translate(76.523174, 60.790415)"><g><path d="M 2.5 -4.09375 C 3 -4.09375 3.375 -3.925781 3.625 -3.59375 C 3.882812 -3.257812 4.015625 -2.8125 4.015625 -2.25 L 4.015625 0 L 3.015625 0 L 3.015625 -2.171875 C 3.015625 -2.546875 2.953125 -2.820312 2.828125 -3 C 2.703125 -3.175781 2.5 -3.265625 2.21875 -3.265625 C 1.914062 -3.265625 1.664062 -3.148438 1.46875 -2.921875 L 1.46875 0 L 0.46875 0 L 0.46875 -4.015625 L 1.40625 -4.015625 L 1.421875 -3.734375 C 1.753906 -3.972656 2.113281 -4.09375 2.5 -4.09375 Z M 2.5 -4.09375 "/></g></g></g><g fill="#ffffff" fill-opacity="1"><g transform="translate(80.963028, 60.790415)"><g><path d="M 2.5 -4.09375 C 3.007812 -4.09375 3.382812 -3.925781 3.625 -3.59375 C 3.875 -3.257812 4 -2.804688 4 -2.234375 L 4 0 L 3.015625 0 L 3.015625 -2.171875 C 3.015625 -2.546875 2.953125 -2.820312 2.828125 -3 C 2.703125 -3.175781 2.503906 -3.265625 2.234375 -3.265625 C 1.921875 -3.265625 1.660156 -3.148438 1.453125 -2.921875 L 1.453125 0 L 0.453125 0 L 0.453125 -6.03125 L 1.453125 -6.03125 L 1.453125 -3.765625 C 1.617188 -3.867188 1.785156 -3.945312 1.953125 -4 C 2.117188 -4.0625 2.300781 -4.09375 2.5 -4.09375 Z M 2.5 -4.09375 "/></g></g></g></svg>