<svg xmlns="http://www.w3.org/2000/svg" xmlns:xlink="http://www.w3.org/1999/xlink" width="132" zoomAndPan="magnify" viewBox="0 0 98.88 70.499998" height="94" preserveAspectRatio="xMidYMid meet" version="1.0"><defs><g/><clipPath id="a411d09deb"><path d="M 27.664062 7 L 70.855469 7 L 70.855469 46.46875 L 27.664062 46.46875 Z M 27.664062 7 " clip-rule="nonzero"/></clipPath></defs><path fill="#4bc8dd" d="M 49.285156 7.84375 C 43.769531 7.84375 38.882812 10.492188 35.8125 14.582031 C 36.386719 14.96875 36.820312 15.640625 36.820312 16.410156 C 36.820312 16.796875 36.722656 17.183594 36.53125 17.519531 C 37.875 18.191406 39.550781 18.722656 41.421875 19.105469 C 41.613281 18.097656 42.476562 17.328125 43.578125 17.328125 C 43.675781 17.328125 43.769531 17.328125 43.914062 17.328125 C 44.824219 11.695312 46.886719 7.84375 49.285156 7.84375 Z M 49.285156 7.84375 " fill-opacity="1" fill-rule="evenodd"/><path fill="#4bc8dd" d="M 62.753906 14.535156 C 59.6875 10.445312 54.796875 7.796875 49.285156 7.796875 C 51.96875 7.796875 54.222656 12.707031 55.035156 19.445312 C 57.769531 19.011719 60.214844 18.335938 62.082031 17.421875 C 61.890625 17.085938 61.796875 16.699219 61.796875 16.316406 C 61.75 15.59375 62.132812 14.917969 62.753906 14.535156 Z M 62.753906 14.535156 " fill-opacity="1" fill-rule="evenodd"/><path fill="#9be0ed" d="M 62.035156 17.46875 C 60.167969 18.386719 57.769531 19.058594 54.988281 19.492188 C 55.179688 21.128906 55.277344 22.859375 55.277344 24.691406 C 55.277344 26.277344 55.179688 27.867188 55.035156 29.308594 L 65.441406 29.308594 C 65.871094 27.816406 66.0625 26.277344 66.0625 24.691406 C 66.0625 22.429688 65.632812 20.308594 64.816406 18.335938 C 64.527344 18.480469 64.191406 18.578125 63.859375 18.578125 C 63.136719 18.578125 62.417969 18.144531 62.035156 17.46875 Z M 62.035156 17.46875 " fill-opacity="1" fill-rule="evenodd"/><path fill="#4bc8dd" d="M 55.035156 19.492188 C 53.261719 19.78125 51.296875 19.925781 49.285156 19.925781 C 48.039062 19.925781 46.886719 19.878906 45.738281 19.78125 C 45.59375 20.886719 44.683594 21.707031 43.578125 21.707031 C 43.53125 21.707031 43.433594 21.707031 43.386719 21.707031 C 43.339844 22.667969 43.292969 23.679688 43.292969 24.738281 C 43.292969 26.328125 43.386719 27.914062 43.53125 29.359375 L 55.132812 29.359375 C 55.277344 27.867188 55.371094 26.328125 55.371094 24.738281 C 55.324219 22.859375 55.226562 21.128906 55.035156 19.492188 Z M 55.035156 19.492188 " fill-opacity="1" fill-rule="evenodd"/><path fill="#9be0ed" d="M 41.375 19.105469 C 39.503906 18.722656 37.875 18.144531 36.484375 17.519531 C 36.101562 18.144531 35.382812 18.625 34.613281 18.625 C 34.277344 18.625 33.941406 18.53125 33.65625 18.386719 C 32.839844 20.359375 32.410156 22.476562 32.410156 24.738281 C 32.410156 26.328125 32.648438 27.914062 33.03125 29.359375 L 43.433594 29.359375 C 43.292969 27.867188 43.195312 26.328125 43.195312 24.738281 C 43.195312 23.679688 43.242188 22.667969 43.292969 21.707031 C 42.1875 21.609375 41.277344 20.648438 41.277344 19.539062 C 41.375 19.347656 41.375 19.203125 41.375 19.105469 Z M 41.375 19.105469 " fill-opacity="1" fill-rule="evenodd"/><path fill="#ffdf41" d="M 34.613281 14.199219 C 33.414062 14.199219 32.410156 15.160156 32.410156 16.363281 C 32.410156 17.230469 32.886719 18 33.65625 18.335938 C 33.941406 18.480469 34.277344 18.578125 34.613281 18.578125 C 35.429688 18.578125 36.101562 18.144531 36.484375 17.46875 C 36.675781 17.132812 36.773438 16.75 36.773438 16.363281 C 36.773438 15.59375 36.386719 14.917969 35.765625 14.535156 C 35.476562 14.34375 35.09375 14.199219 34.613281 14.199219 Z M 34.613281 14.199219 " fill-opacity="1" fill-rule="evenodd"/><path fill="#ffdf41" d="M 43.53125 17.277344 C 42.476562 17.277344 41.566406 18.046875 41.375 19.058594 C 41.375 19.203125 41.324219 19.300781 41.324219 19.445312 C 41.324219 20.597656 42.1875 21.511719 43.339844 21.609375 C 43.386719 21.609375 43.484375 21.609375 43.53125 21.609375 C 44.632812 21.609375 45.59375 20.742188 45.6875 19.683594 C 45.6875 19.589844 45.6875 19.492188 45.6875 19.445312 C 45.6875 18.335938 44.875 17.421875 43.820312 17.277344 C 43.769531 17.277344 43.628906 17.277344 43.53125 17.277344 Z M 43.53125 17.277344 " fill-opacity="1" fill-rule="evenodd"/><path fill="#ffdf41" d="M 62.753906 14.535156 C 62.179688 14.917969 61.75 15.59375 61.75 16.363281 C 61.75 16.75 61.84375 17.132812 62.035156 17.46875 C 62.417969 18.097656 63.136719 18.578125 63.90625 18.578125 C 64.242188 18.578125 64.578125 18.480469 64.863281 18.335938 C 65.582031 18 66.109375 17.230469 66.109375 16.363281 C 66.109375 15.160156 65.152344 14.199219 63.90625 14.199219 C 63.472656 14.199219 63.089844 14.34375 62.753906 14.535156 Z M 62.753906 14.535156 " fill-opacity="1" fill-rule="evenodd"/><path fill="#9be0ed" d="M 49.285156 7.84375 C 46.886719 7.84375 44.824219 11.695312 43.867188 17.328125 C 44.921875 17.46875 45.738281 18.386719 45.738281 19.492188 C 45.738281 19.589844 45.738281 19.683594 45.738281 19.734375 C 46.886719 19.828125 48.085938 19.878906 49.285156 19.878906 C 51.296875 19.878906 53.214844 19.734375 55.035156 19.445312 C 54.222656 12.707031 51.96875 7.84375 49.285156 7.84375 Z M 49.285156 7.84375 " fill-opacity="1" fill-rule="evenodd"/><path fill="#ffffff" d="M 55.085938 29.308594 L 31.257812 29.308594 C 30.058594 29.308594 29.003906 30.082031 28.574219 31.1875 L 28.574219 43.796875 C 28.957031 44.902344 30.011719 45.675781 31.257812 45.675781 L 67.308594 45.675781 C 68.507812 45.675781 69.5625 44.902344 69.992188 43.796875 L 69.992188 31.1875 C 69.609375 30.082031 68.554688 29.308594 67.308594 29.308594 Z M 55.085938 29.308594 " fill-opacity="1" fill-rule="evenodd"/><g clip-path="url(#a411d09deb)"><path fill="#000000" d="M 67.308594 28.589844 L 66.398438 28.589844 C 66.6875 27.335938 66.828125 25.988281 66.828125 24.691406 C 66.828125 22.621094 66.445312 20.550781 65.773438 18.625 C 66.445312 18.097656 66.828125 17.277344 66.828125 16.363281 C 66.828125 14.777344 65.535156 13.429688 63.90625 13.429688 C 63.570312 13.429688 63.234375 13.476562 62.898438 13.621094 C 59.589844 9.480469 54.652344 7.074219 49.285156 7.074219 C 43.914062 7.074219 38.976562 9.433594 35.621094 13.621094 C 35.332031 13.523438 34.996094 13.429688 34.613281 13.429688 C 33.03125 13.429688 31.691406 14.726562 31.691406 16.363281 C 31.691406 17.277344 32.121094 18.097656 32.746094 18.625 C 32.027344 20.550781 31.691406 22.574219 31.691406 24.691406 C 31.691406 25.988281 31.832031 27.335938 32.121094 28.589844 L 31.210938 28.589844 C 29.246094 28.589844 27.664062 30.175781 27.664062 32.148438 L 27.664062 42.835938 C 27.664062 44.808594 29.246094 46.394531 31.210938 46.394531 L 67.261719 46.394531 C 69.226562 46.394531 70.808594 44.808594 70.808594 42.835938 L 70.808594 32.148438 C 70.855469 30.175781 69.273438 28.589844 67.308594 28.589844 Z M 65.390625 24.691406 C 65.390625 25.988281 65.199219 27.335938 64.914062 28.589844 L 55.898438 28.589844 C 55.996094 27.289062 56.042969 25.988281 56.042969 24.691406 C 56.042969 23.148438 55.949219 21.609375 55.804688 20.070312 C 58.058594 19.683594 60.117188 19.105469 61.796875 18.386719 C 62.324219 18.960938 63.089844 19.300781 63.90625 19.300781 C 64.097656 19.300781 64.242188 19.300781 64.433594 19.25 C 65.054688 20.984375 65.390625 22.8125 65.390625 24.691406 Z M 44.15625 28.589844 C 44.058594 27.289062 44.011719 25.988281 44.011719 24.691406 C 44.011719 23.917969 44.058594 23.101562 44.058594 22.332031 C 45.066406 22.140625 45.929688 21.417969 46.265625 20.503906 C 47.269531 20.597656 48.277344 20.597656 49.285156 20.597656 C 51.011719 20.597656 52.734375 20.503906 54.367188 20.261719 C 54.507812 21.65625 54.558594 23.101562 54.558594 24.640625 C 54.558594 25.941406 54.507812 27.289062 54.367188 28.539062 L 44.15625 28.539062 Z M 43.53125 18.046875 C 44.347656 18.046875 44.96875 18.722656 44.96875 19.492188 C 44.96875 20.308594 44.296875 20.9375 43.53125 20.9375 C 42.765625 20.9375 42.09375 20.261719 42.09375 19.492188 C 42.09375 18.675781 42.714844 18.046875 43.53125 18.046875 Z M 49.285156 8.566406 C 51.25 8.566406 53.359375 12.609375 54.222656 18.867188 C 52.640625 19.058594 50.960938 19.15625 49.285156 19.15625 C 48.324219 19.15625 47.367188 19.105469 46.40625 19.058594 C 46.265625 18.046875 45.59375 17.183594 44.683594 16.796875 C 45.640625 11.839844 47.460938 8.566406 49.285156 8.566406 Z M 65.390625 16.363281 C 65.390625 17.183594 64.71875 17.808594 63.953125 17.808594 C 63.1875 17.808594 62.515625 17.132812 62.515625 16.363281 C 62.515625 15.546875 63.1875 14.917969 63.953125 14.917969 C 64.71875 14.917969 65.390625 15.59375 65.390625 16.363281 Z M 61.75 14.488281 C 61.316406 15.015625 61.027344 15.691406 61.027344 16.410156 C 61.027344 16.652344 61.078125 16.894531 61.125 17.132812 C 59.542969 17.808594 57.671875 18.335938 55.660156 18.675781 C 55.132812 14.582031 53.980469 10.925781 52.351562 8.902344 C 56.042969 9.578125 59.304688 11.503906 61.75 14.488281 Z M 46.265625 8.855469 C 44.96875 10.445312 43.914062 13.089844 43.292969 16.605469 C 42.238281 16.699219 41.375 17.375 40.941406 18.242188 C 39.648438 17.953125 38.496094 17.566406 37.492188 17.132812 C 37.539062 16.894531 37.585938 16.652344 37.585938 16.410156 C 37.585938 15.691406 37.300781 15.015625 36.867188 14.488281 C 39.265625 11.503906 42.574219 9.53125 46.265625 8.855469 Z M 34.613281 14.917969 C 35.429688 14.917969 36.050781 15.59375 36.050781 16.363281 C 36.050781 17.183594 35.382812 17.808594 34.613281 17.808594 C 33.847656 17.808594 33.175781 17.132812 33.175781 16.363281 C 33.175781 15.59375 33.847656 14.917969 34.613281 14.917969 Z M 33.175781 24.691406 C 33.175781 22.8125 33.511719 20.984375 34.136719 19.25 C 34.277344 19.300781 34.46875 19.300781 34.664062 19.300781 C 35.476562 19.300781 36.246094 18.960938 36.773438 18.386719 C 37.921875 18.867188 39.214844 19.300781 40.65625 19.683594 C 40.703125 20.886719 41.519531 21.898438 42.621094 22.285156 C 42.574219 23.101562 42.574219 23.917969 42.574219 24.738281 C 42.574219 26.039062 42.621094 27.335938 42.714844 28.636719 L 33.65625 28.636719 C 33.320312 27.335938 33.175781 26.039062 33.175781 24.691406 Z M 69.417969 42.835938 C 69.417969 43.988281 68.460938 44.953125 67.308594 44.953125 L 31.257812 44.953125 C 30.109375 44.953125 29.148438 43.988281 29.148438 42.835938 L 29.148438 32.148438 C 29.148438 30.996094 30.109375 30.03125 31.257812 30.03125 L 67.308594 30.03125 C 68.460938 30.03125 69.417969 30.996094 69.417969 32.148438 Z M 69.417969 42.835938 " fill-opacity="1" fill-rule="nonzero"/></g><path fill="#000000" d="M 34.519531 35.039062 C 34.136719 35.039062 33.75 35.132812 33.414062 35.277344 L 33.414062 33.402344 C 33.414062 33.015625 33.082031 32.679688 32.695312 32.679688 C 32.3125 32.679688 31.976562 33.015625 31.976562 33.402344 L 31.976562 40.8125 C 31.976562 41.199219 32.3125 41.535156 32.695312 41.535156 C 33.082031 41.535156 33.414062 41.199219 33.414062 40.8125 L 33.414062 37.539062 C 33.414062 36.960938 33.894531 36.433594 34.519531 36.433594 C 35.140625 36.433594 35.621094 36.914062 35.621094 37.539062 L 35.621094 40.8125 C 35.621094 41.199219 35.957031 41.535156 36.339844 41.535156 C 36.722656 41.535156 37.058594 41.199219 37.058594 40.8125 L 37.058594 37.539062 C 37.058594 36.191406 35.910156 35.039062 34.519531 35.039062 Z M 34.519531 35.039062 " fill-opacity="1" fill-rule="nonzero"/><path fill="#000000" d="M 41.710938 35.757812 L 41.183594 35.757812 L 41.183594 34.699219 C 41.183594 34.316406 40.847656 33.980469 40.464844 33.980469 C 40.078125 33.980469 39.742188 34.316406 39.742188 34.699219 L 39.742188 35.757812 L 39.214844 35.757812 C 38.832031 35.757812 38.496094 36.097656 38.496094 36.480469 C 38.496094 36.867188 38.832031 37.203125 39.214844 37.203125 L 39.742188 37.203125 L 39.742188 40.8125 C 39.742188 41.199219 40.078125 41.535156 40.464844 41.535156 C 40.847656 41.535156 41.183594 41.199219 41.183594 40.8125 L 41.183594 37.203125 L 41.710938 37.203125 C 42.09375 37.203125 42.429688 36.867188 42.429688 36.480469 C 42.429688 36.097656 42.09375 35.757812 41.710938 35.757812 Z M 41.710938 35.757812 " fill-opacity="1" fill-rule="nonzero"/><path fill="#000000" d="M 46.648438 35.757812 L 46.121094 35.757812 L 46.121094 34.699219 C 46.121094 34.316406 45.785156 33.980469 45.402344 33.980469 C 45.015625 33.980469 44.683594 34.316406 44.683594 34.699219 L 44.683594 35.757812 L 44.15625 35.757812 C 43.769531 35.757812 43.433594 36.097656 43.433594 36.480469 C 43.433594 36.867188 43.769531 37.203125 44.15625 37.203125 L 44.683594 37.203125 L 44.683594 40.8125 C 44.683594 41.199219 45.015625 41.535156 45.402344 41.535156 C 45.785156 41.535156 46.121094 41.199219 46.121094 40.8125 L 46.121094 37.203125 L 46.648438 37.203125 C 47.03125 37.203125 47.367188 36.867188 47.367188 36.480469 C 47.367188 36.097656 47.03125 35.757812 46.648438 35.757812 Z M 46.648438 35.757812 " fill-opacity="1" fill-rule="nonzero"/><path fill="#000000" d="M 51.34375 35.039062 C 50.816406 35.039062 50.339844 35.230469 49.957031 35.519531 C 49.90625 35.132812 49.621094 34.84375 49.234375 34.84375 C 48.851562 34.84375 48.515625 35.183594 48.515625 35.566406 L 48.515625 42.257812 C 48.515625 42.640625 48.851562 42.980469 49.234375 42.980469 C 49.621094 42.980469 49.957031 42.640625 49.957031 42.257812 L 49.957031 40.714844 C 50.386719 41.003906 50.867188 41.199219 51.34375 41.199219 C 52.785156 41.199219 53.980469 39.800781 53.980469 38.117188 C 53.980469 36.386719 52.785156 35.039062 51.34375 35.039062 Z M 51.34375 39.707031 C 50.722656 39.707031 50.148438 38.984375 50.148438 38.070312 C 50.148438 37.203125 50.675781 36.433594 51.34375 36.433594 C 51.96875 36.433594 52.542969 37.15625 52.542969 38.070312 C 52.542969 38.984375 51.96875 39.707031 51.34375 39.707031 Z M 51.34375 39.707031 " fill-opacity="1" fill-rule="nonzero"/><path fill="#000000" d="M 56.476562 35.953125 C 56.089844 35.953125 55.753906 36.289062 55.753906 36.675781 C 55.753906 37.058594 56.089844 37.394531 56.476562 37.394531 C 56.859375 37.394531 57.195312 37.058594 57.195312 36.675781 C 57.195312 36.289062 56.859375 35.953125 56.476562 35.953125 Z M 56.476562 35.953125 " fill-opacity="1" fill-rule="nonzero"/><path fill="#000000" d="M 56.476562 39.5625 C 56.089844 39.5625 55.753906 39.898438 55.753906 40.285156 C 55.753906 40.667969 56.089844 41.003906 56.476562 41.003906 C 56.859375 41.003906 57.195312 40.667969 57.195312 40.285156 C 57.195312 39.898438 56.859375 39.5625 56.476562 39.5625 Z M 56.476562 39.5625 " fill-opacity="1" fill-rule="nonzero"/><path fill="#000000" d="M 62.707031 33.257812 C 62.324219 33.113281 61.890625 33.304688 61.75 33.691406 L 59.0625 40.574219 C 58.917969 40.957031 59.113281 41.390625 59.496094 41.535156 C 59.589844 41.582031 59.6875 41.582031 59.78125 41.582031 C 60.070312 41.582031 60.359375 41.390625 60.453125 41.101562 L 63.136719 34.21875 C 63.28125 33.835938 63.089844 33.402344 62.707031 33.257812 Z M 62.707031 33.257812 " fill-opacity="1" fill-rule="nonzero"/><path fill="#000000" d="M 66.828125 33.257812 C 66.445312 33.113281 66.015625 33.304688 65.871094 33.691406 L 63.1875 40.574219 C 63.042969 40.957031 63.234375 41.390625 63.617188 41.535156 C 63.714844 41.582031 63.808594 41.582031 63.90625 41.582031 C 64.191406 41.582031 64.480469 41.390625 64.578125 41.101562 L 67.261719 34.21875 C 67.355469 33.835938 67.164062 33.402344 66.828125 33.257812 Z M 66.828125 33.257812 " fill-opacity="1" fill-rule="nonzero"/><g fill="#ffffff" fill-opacity="1"><g transform="translate(1.532129, 61.792765)"><g><path d="M 3.578125 0.078125 C 2.953125 0.078125 2.40625 -0.0507812 1.9375 -0.3125 C 1.46875 -0.582031 1.109375 -0.960938 0.859375 -1.453125 C 0.609375 -1.953125 0.484375 -2.53125 0.484375 -3.1875 C 0.484375 -3.84375 0.609375 -4.414062 0.859375 -4.90625 C 1.109375 -5.40625 1.46875 -5.785156 1.9375 -6.046875 C 2.40625 -6.304688 2.953125 -6.4375 3.578125 -6.4375 C 4.003906 -6.4375 4.40625 -6.367188 4.78125 -6.234375 C 5.164062 -6.109375 5.484375 -5.925781 5.734375 -5.6875 L 5.359375 -4.84375 C 5.066406 -5.070312 4.78125 -5.238281 4.5 -5.34375 C 4.21875 -5.445312 3.914062 -5.5 3.59375 -5.5 C 2.976562 -5.5 2.5 -5.300781 2.15625 -4.90625 C 1.820312 -4.507812 1.65625 -3.9375 1.65625 -3.1875 C 1.65625 -2.4375 1.820312 -1.859375 2.15625 -1.453125 C 2.488281 -1.054688 2.96875 -0.859375 3.59375 -0.859375 C 3.914062 -0.859375 4.21875 -0.910156 4.5 -1.015625 C 4.78125 -1.117188 5.066406 -1.285156 5.359375 -1.515625 L 5.734375 -0.671875 C 5.484375 -0.441406 5.164062 -0.257812 4.78125 -0.125 C 4.40625 0.0078125 4.003906 0.078125 3.578125 0.078125 Z M 3.578125 0.078125 "/></g></g></g><g fill="#ffffff" fill-opacity="1"><g transform="translate(7.653759, 61.792765)"><g><path d="M 4.921875 -4.515625 L 4.921875 0 L 3.828125 0 L 3.828125 -0.71875 C 3.691406 -0.46875 3.492188 -0.269531 3.234375 -0.125 C 2.972656 0.0078125 2.679688 0.078125 2.359375 0.078125 C 1.960938 0.078125 1.613281 -0.015625 1.3125 -0.203125 C 1.007812 -0.398438 0.773438 -0.675781 0.609375 -1.03125 C 0.441406 -1.382812 0.359375 -1.789062 0.359375 -2.25 C 0.359375 -2.71875 0.441406 -3.128906 0.609375 -3.484375 C 0.773438 -3.847656 1.007812 -4.128906 1.3125 -4.328125 C 1.625 -4.523438 1.972656 -4.625 2.359375 -4.625 C 2.679688 -4.625 2.972656 -4.550781 3.234375 -4.40625 C 3.492188 -4.269531 3.691406 -4.078125 3.828125 -3.828125 L 3.828125 -4.515625 Z M 2.65625 -0.796875 C 3.03125 -0.796875 3.316406 -0.925781 3.515625 -1.1875 C 3.722656 -1.445312 3.828125 -1.804688 3.828125 -2.265625 C 3.828125 -2.742188 3.722656 -3.109375 3.515625 -3.359375 C 3.316406 -3.617188 3.03125 -3.75 2.65625 -3.75 C 2.28125 -3.75 1.988281 -3.613281 1.78125 -3.34375 C 1.582031 -3.082031 1.484375 -2.71875 1.484375 -2.25 C 1.484375 -1.789062 1.582031 -1.429688 1.78125 -1.171875 C 1.988281 -0.921875 2.28125 -0.796875 2.65625 -0.796875 Z M 3.109375 -5.09375 L 2.390625 -5.09375 L 3.28125 -6.9375 L 4.421875 -6.9375 Z M 3.109375 -5.09375 "/></g></g></g><g fill="#ffffff" fill-opacity="1"><g transform="translate(13.185568, 61.792765)"><g><path d="M 2.65625 0.078125 C 2.1875 0.078125 1.773438 -0.015625 1.421875 -0.203125 C 1.078125 -0.398438 0.8125 -0.671875 0.625 -1.015625 C 0.445312 -1.367188 0.359375 -1.78125 0.359375 -2.25 C 0.359375 -2.71875 0.453125 -3.128906 0.640625 -3.484375 C 0.835938 -3.847656 1.113281 -4.128906 1.46875 -4.328125 C 1.820312 -4.523438 2.234375 -4.625 2.703125 -4.625 C 3.023438 -4.625 3.332031 -4.570312 3.625 -4.46875 C 3.925781 -4.375 4.171875 -4.238281 4.359375 -4.0625 L 4.046875 -3.265625 C 3.847656 -3.421875 3.640625 -3.539062 3.421875 -3.625 C 3.210938 -3.707031 3.003906 -3.75 2.796875 -3.75 C 2.390625 -3.75 2.070312 -3.617188 1.84375 -3.359375 C 1.625 -3.109375 1.515625 -2.742188 1.515625 -2.265625 C 1.515625 -1.796875 1.625 -1.429688 1.84375 -1.171875 C 2.070312 -0.921875 2.390625 -0.796875 2.796875 -0.796875 C 3.003906 -0.796875 3.210938 -0.835938 3.421875 -0.921875 C 3.640625 -1.003906 3.847656 -1.125 4.046875 -1.28125 L 4.359375 -0.5 C 4.160156 -0.320312 3.910156 -0.179688 3.609375 -0.078125 C 3.304688 0.0234375 2.988281 0.078125 2.65625 0.078125 Z M 2.65625 0.078125 "/></g></g></g><g fill="#ffffff" fill-opacity="1"><g transform="translate(17.680718, 61.792765)"><g/></g></g><g fill="#ffffff" fill-opacity="1"><g transform="translate(20.12937, 61.792765)"><g><path d="M 2.03125 -3.671875 L 2.03125 -1.65625 C 2.03125 -1.125 2.273438 -0.859375 2.765625 -0.859375 C 2.898438 -0.859375 3.050781 -0.878906 3.21875 -0.921875 L 3.21875 -0.046875 C 3.019531 0.0234375 2.78125 0.0625 2.5 0.0625 C 1.988281 0.0625 1.59375 -0.078125 1.3125 -0.359375 C 1.039062 -0.648438 0.90625 -1.0625 0.90625 -1.59375 L 0.90625 -3.671875 L 0.046875 -3.671875 L 0.046875 -4.515625 L 0.90625 -4.515625 L 0.90625 -5.609375 L 2.03125 -5.984375 L 2.03125 -4.515625 L 3.21875 -4.515625 L 3.21875 -3.671875 Z M 2.03125 -3.671875 "/></g></g></g><g fill="#ffffff" fill-opacity="1"><g transform="translate(23.516374, 61.792765)"><g><path d="M 3.03125 -4.625 C 3.207031 -4.625 3.359375 -4.597656 3.484375 -4.546875 L 3.484375 -3.53125 C 3.285156 -3.601562 3.085938 -3.640625 2.890625 -3.640625 C 2.503906 -3.640625 2.210938 -3.53125 2.015625 -3.3125 C 1.816406 -3.09375 1.71875 -2.800781 1.71875 -2.4375 L 1.71875 0 L 0.609375 0 L 0.609375 -3.234375 C 0.609375 -3.710938 0.582031 -4.140625 0.53125 -4.515625 L 1.578125 -4.515625 L 1.671875 -3.71875 C 1.785156 -4.007812 1.960938 -4.234375 2.203125 -4.390625 C 2.453125 -4.546875 2.726562 -4.625 3.03125 -4.625 Z M 3.03125 -4.625 "/></g></g></g><g fill="#ffffff" fill-opacity="1"><g transform="translate(27.019559, 61.792765)"><g><path d="M 4.921875 -4.515625 L 4.921875 0 L 3.828125 0 L 3.828125 -0.71875 C 3.691406 -0.46875 3.492188 -0.269531 3.234375 -0.125 C 2.972656 0.0078125 2.679688 0.078125 2.359375 0.078125 C 1.960938 0.078125 1.613281 -0.015625 1.3125 -0.203125 C 1.007812 -0.398438 0.773438 -0.675781 0.609375 -1.03125 C 0.441406 -1.382812 0.359375 -1.789062 0.359375 -2.25 C 0.359375 -2.71875 0.441406 -3.128906 0.609375 -3.484375 C 0.773438 -3.847656 1.007812 -4.128906 1.3125 -4.328125 C 1.625 -4.523438 1.972656 -4.625 2.359375 -4.625 C 2.679688 -4.625 2.972656 -4.550781 3.234375 -4.40625 C 3.492188 -4.269531 3.691406 -4.078125 3.828125 -3.828125 L 3.828125 -4.515625 Z M 2.65625 -0.796875 C 3.03125 -0.796875 3.316406 -0.925781 3.515625 -1.1875 C 3.722656 -1.445312 3.828125 -1.804688 3.828125 -2.265625 C 3.828125 -2.742188 3.722656 -3.109375 3.515625 -3.359375 C 3.316406 -3.617188 3.03125 -3.75 2.65625 -3.75 C 2.28125 -3.75 1.988281 -3.613281 1.78125 -3.34375 C 1.582031 -3.082031 1.484375 -2.71875 1.484375 -2.25 C 1.484375 -1.789062 1.582031 -1.429688 1.78125 -1.171875 C 1.988281 -0.921875 2.28125 -0.796875 2.65625 -0.796875 Z M 2.65625 -0.796875 "/></g></g></g><g fill="#ffffff" fill-opacity="1"><g transform="translate(32.551367, 61.792765)"><g><path d="M 3.1875 -4.625 C 4.269531 -4.625 4.8125 -4.003906 4.8125 -2.765625 L 4.8125 0 L 3.6875 0 L 3.6875 -2.71875 C 3.6875 -3.070312 3.617188 -3.332031 3.484375 -3.5 C 3.347656 -3.664062 3.132812 -3.75 2.84375 -3.75 C 2.507812 -3.75 2.238281 -3.640625 2.03125 -3.421875 C 1.820312 -3.203125 1.71875 -2.914062 1.71875 -2.5625 L 1.71875 0 L 0.609375 0 L 0.609375 -3.234375 C 0.609375 -3.710938 0.582031 -4.140625 0.53125 -4.515625 L 1.578125 -4.515625 L 1.65625 -3.765625 C 1.8125 -4.046875 2.019531 -4.257812 2.28125 -4.40625 C 2.550781 -4.550781 2.851562 -4.625 3.1875 -4.625 Z M 3.1875 -4.625 "/></g></g></g><g fill="#ffffff" fill-opacity="1"><g transform="translate(37.940188, 61.792765)"><g><path d="M 4.96875 -4.515625 L 4.96875 -0.140625 C 4.96875 0.554688 4.773438 1.085938 4.390625 1.453125 C 4.003906 1.816406 3.4375 2 2.6875 2 C 1.988281 2 1.375 1.851562 0.84375 1.5625 L 1.015625 0.71875 C 1.566406 1 2.113281 1.140625 2.65625 1.140625 C 3.457031 1.140625 3.859375 0.742188 3.859375 -0.046875 L 3.859375 -0.953125 C 3.722656 -0.703125 3.523438 -0.5 3.265625 -0.34375 C 3.003906 -0.195312 2.707031 -0.125 2.375 -0.125 C 1.976562 -0.125 1.625 -0.21875 1.3125 -0.40625 C 1.007812 -0.59375 0.773438 -0.859375 0.609375 -1.203125 C 0.441406 -1.546875 0.359375 -1.9375 0.359375 -2.375 C 0.359375 -2.8125 0.441406 -3.203125 0.609375 -3.546875 C 0.773438 -3.890625 1.007812 -4.15625 1.3125 -4.34375 C 1.625 -4.53125 1.976562 -4.625 2.375 -4.625 C 2.707031 -4.625 3.003906 -4.550781 3.265625 -4.40625 C 3.523438 -4.269531 3.722656 -4.078125 3.859375 -3.828125 L 3.859375 -4.515625 Z M 2.671875 -1 C 3.035156 -1 3.320312 -1.117188 3.53125 -1.359375 C 3.75 -1.609375 3.859375 -1.945312 3.859375 -2.375 C 3.859375 -2.800781 3.753906 -3.132812 3.546875 -3.375 C 3.335938 -3.625 3.046875 -3.75 2.671875 -3.75 C 2.304688 -3.75 2.015625 -3.625 1.796875 -3.375 C 1.585938 -3.132812 1.484375 -2.800781 1.484375 -2.375 C 1.484375 -1.945312 1.585938 -1.609375 1.796875 -1.359375 C 2.015625 -1.117188 2.304688 -1 2.671875 -1 Z M 2.671875 -1 "/></g></g></g><g fill="#ffffff" fill-opacity="1"><g transform="translate(43.507746, 61.792765)"><g/></g></g><g fill="#ffffff" fill-opacity="1"><g transform="translate(45.956398, 61.792765)"><g><path d="M 6.703125 -4.515625 L 7.796875 -4.515625 L 6.03125 0 L 5.046875 0 L 3.9375 -2.953125 L 2.84375 0 L 1.859375 0 L 0.09375 -4.515625 L 1.234375 -4.515625 L 2.390625 -1.328125 L 3.5625 -4.515625 L 4.375 -4.515625 L 5.546875 -1.3125 Z M 6.703125 -4.515625 "/></g></g></g><g fill="#ffffff" fill-opacity="1"><g transform="translate(53.847484, 61.792765)"><g><path d="M 4.5625 -2.203125 L 1.453125 -2.203125 C 1.472656 -1.710938 1.59375 -1.351562 1.8125 -1.125 C 2.03125 -0.894531 2.351562 -0.78125 2.78125 -0.78125 C 3.269531 -0.78125 3.726562 -0.941406 4.15625 -1.265625 L 4.484375 -0.5 C 4.265625 -0.320312 4 -0.179688 3.6875 -0.078125 C 3.375 0.0234375 3.054688 0.078125 2.734375 0.078125 C 1.992188 0.078125 1.410156 -0.128906 0.984375 -0.546875 C 0.566406 -0.972656 0.359375 -1.546875 0.359375 -2.265625 C 0.359375 -2.722656 0.445312 -3.128906 0.625 -3.484375 C 0.8125 -3.847656 1.070312 -4.128906 1.40625 -4.328125 C 1.738281 -4.523438 2.117188 -4.625 2.546875 -4.625 C 3.171875 -4.625 3.660156 -4.421875 4.015625 -4.015625 C 4.378906 -3.617188 4.5625 -3.070312 4.5625 -2.375 Z M 2.578125 -3.828125 C 2.273438 -3.828125 2.03125 -3.738281 1.84375 -3.5625 C 1.65625 -3.382812 1.535156 -3.128906 1.484375 -2.796875 L 3.578125 -2.796875 C 3.546875 -3.140625 3.441406 -3.394531 3.265625 -3.5625 C 3.097656 -3.738281 2.867188 -3.828125 2.578125 -3.828125 Z M 2.578125 -3.828125 "/></g></g></g><g fill="#ffffff" fill-opacity="1"><g transform="translate(58.744789, 61.792765)"><g><path d="M 3.1875 -4.625 C 3.570312 -4.625 3.914062 -4.523438 4.21875 -4.328125 C 4.519531 -4.140625 4.753906 -3.867188 4.921875 -3.515625 C 5.085938 -3.171875 5.171875 -2.765625 5.171875 -2.296875 C 5.171875 -1.828125 5.085938 -1.410156 4.921875 -1.046875 C 4.753906 -0.691406 4.519531 -0.414062 4.21875 -0.21875 C 3.914062 -0.0195312 3.570312 0.078125 3.1875 0.078125 C 2.851562 0.078125 2.554688 0.00390625 2.296875 -0.140625 C 2.035156 -0.285156 1.835938 -0.484375 1.703125 -0.734375 L 1.703125 0 L 0.609375 0 L 0.609375 -6.578125 L 1.71875 -6.578125 L 1.71875 -3.828125 C 1.851562 -4.078125 2.046875 -4.269531 2.296875 -4.40625 C 2.554688 -4.550781 2.851562 -4.625 3.1875 -4.625 Z M 2.890625 -0.796875 C 3.253906 -0.796875 3.535156 -0.925781 3.734375 -1.1875 C 3.941406 -1.457031 4.046875 -1.828125 4.046875 -2.296875 C 4.046875 -2.765625 3.941406 -3.125 3.734375 -3.375 C 3.535156 -3.625 3.25 -3.75 2.875 -3.75 C 2.5 -3.75 2.207031 -3.617188 2 -3.359375 C 1.800781 -3.109375 1.703125 -2.75 1.703125 -2.28125 C 1.703125 -1.800781 1.800781 -1.429688 2 -1.171875 C 2.207031 -0.921875 2.503906 -0.796875 2.890625 -0.796875 Z M 2.890625 -0.796875 "/></g></g></g><g fill="#ffffff" fill-opacity="1"><g transform="translate(64.285529, 61.792765)"><g/></g></g><g fill="#ffffff" fill-opacity="1"><g transform="translate(66.734181, 61.792765)"><g><path d="M 0.609375 0 L 0.609375 -6.578125 L 1.71875 -6.578125 L 1.71875 0 Z M 0.609375 0 "/></g></g></g><g fill="#ffffff" fill-opacity="1"><g transform="translate(69.066652, 61.792765)"><g><path d="M 0.609375 0 L 0.609375 -4.515625 L 1.71875 -4.515625 L 1.71875 0 Z M 0.53125 -6.5625 L 1.78125 -6.5625 L 1.78125 -5.453125 L 0.53125 -5.453125 Z M 0.53125 -6.5625 "/></g></g></g><g fill="#ffffff" fill-opacity="1"><g transform="translate(71.399124, 61.792765)"><g><path d="M 4.5625 -2.203125 L 1.453125 -2.203125 C 1.472656 -1.710938 1.59375 -1.351562 1.8125 -1.125 C 2.03125 -0.894531 2.351562 -0.78125 2.78125 -0.78125 C 3.269531 -0.78125 3.726562 -0.941406 4.15625 -1.265625 L 4.484375 -0.5 C 4.265625 -0.320312 4 -0.179688 3.6875 -0.078125 C 3.375 0.0234375 3.054688 0.078125 2.734375 0.078125 C 1.992188 0.078125 1.410156 -0.128906 0.984375 -0.546875 C 0.566406 -0.972656 0.359375 -1.546875 0.359375 -2.265625 C 0.359375 -2.722656 0.445312 -3.128906 0.625 -3.484375 C 0.8125 -3.847656 1.070312 -4.128906 1.40625 -4.328125 C 1.738281 -4.523438 2.117188 -4.625 2.546875 -4.625 C 3.171875 -4.625 3.660156 -4.421875 4.015625 -4.015625 C 4.378906 -3.617188 4.5625 -3.070312 4.5625 -2.375 Z M 2.578125 -3.828125 C 2.273438 -3.828125 2.03125 -3.738281 1.84375 -3.5625 C 1.65625 -3.382812 1.535156 -3.128906 1.484375 -2.796875 L 3.578125 -2.796875 C 3.546875 -3.140625 3.441406 -3.394531 3.265625 -3.5625 C 3.097656 -3.738281 2.867188 -3.828125 2.578125 -3.828125 Z M 1.984375 -5.09375 L 1.0625 -5.09375 L 2.1875 -6.9375 L 2.90625 -6.9375 L 4.03125 -5.09375 L 3.109375 -5.09375 L 2.546875 -6.234375 Z M 1.984375 -5.09375 "/></g></g></g><g fill="#ffffff" fill-opacity="1"><g transform="translate(76.296429, 61.792765)"><g><path d="M 3.1875 -4.625 C 4.269531 -4.625 4.8125 -4.003906 4.8125 -2.765625 L 4.8125 0 L 3.6875 0 L 3.6875 -2.71875 C 3.6875 -3.070312 3.617188 -3.332031 3.484375 -3.5 C 3.347656 -3.664062 3.132812 -3.75 2.84375 -3.75 C 2.507812 -3.75 2.238281 -3.640625 2.03125 -3.421875 C 1.820312 -3.203125 1.71875 -2.914062 1.71875 -2.5625 L 1.71875 0 L 0.609375 0 L 0.609375 -3.234375 C 0.609375 -3.710938 0.582031 -4.140625 0.53125 -4.515625 L 1.578125 -4.515625 L 1.65625 -3.765625 C 1.8125 -4.046875 2.019531 -4.257812 2.28125 -4.40625 C 2.550781 -4.550781 2.851562 -4.625 3.1875 -4.625 Z M 3.1875 -4.625 "/></g></g></g><g fill="#ffffff" fill-opacity="1"><g transform="translate(81.68525, 61.792765)"><g/></g></g><g fill="#ffffff" fill-opacity="1"><g transform="translate(84.133902, 61.792765)"><g><path d="M 5.078125 0 L 3.6875 0 L 1.71875 -2.078125 L 1.71875 0 L 0.609375 0 L 0.609375 -6.578125 L 1.71875 -6.578125 L 1.71875 -2.515625 L 3.578125 -4.5 L 4.921875 -4.5 L 2.890625 -2.34375 Z M 5.078125 0 "/></g></g></g><g fill="#ffffff" fill-opacity="1"><g transform="translate(89.058013, 61.792765)"><g><path d="M 4.5625 -2.203125 L 1.453125 -2.203125 C 1.472656 -1.710938 1.59375 -1.351562 1.8125 -1.125 C 2.03125 -0.894531 2.351562 -0.78125 2.78125 -0.78125 C 3.269531 -0.78125 3.726562 -0.941406 4.15625 -1.265625 L 4.484375 -0.5 C 4.265625 -0.320312 4 -0.179688 3.6875 -0.078125 C 3.375 0.0234375 3.054688 0.078125 2.734375 0.078125 C 1.992188 0.078125 1.410156 -0.128906 0.984375 -0.546875 C 0.566406 -0.972656 0.359375 -1.546875 0.359375 -2.265625 C 0.359375 -2.722656 0.445312 -3.128906 0.625 -3.484375 C 0.8125 -3.847656 1.070312 -4.128906 1.40625 -4.328125 C 1.738281 -4.523438 2.117188 -4.625 2.546875 -4.625 C 3.171875 -4.625 3.660156 -4.421875 4.015625 -4.015625 C 4.378906 -3.617188 4.5625 -3.070312 4.5625 -2.375 Z M 2.578125 -3.828125 C 2.273438 -3.828125 2.03125 -3.738281 1.84375 -3.5625 C 1.65625 -3.382812 1.535156 -3.128906 1.484375 -2.796875 L 3.578125 -2.796875 C 3.546875 -3.140625 3.441406 -3.394531 3.265625 -3.5625 C 3.097656 -3.738281 2.867188 -3.828125 2.578125 -3.828125 Z M 3.953125 -6.046875 L 3.359375 -6.046875 L 4.078125 -7.3125 L 5.0625 -7.3125 Z M 1.9375 -5.09375 L 1.0625 -5.09375 L 2.21875 -6.375 L 2.890625 -6.375 L 4.03125 -5.09375 L 3.15625 -5.09375 L 2.546875 -5.828125 Z M 1.9375 -5.09375 "/></g></g></g><g fill="#ffffff" fill-opacity="1"><g transform="translate(93.955317, 61.792765)"><g><path d="M 2.03125 -3.671875 L 2.03125 -1.65625 C 2.03125 -1.125 2.273438 -0.859375 2.765625 -0.859375 C 2.898438 -0.859375 3.050781 -0.878906 3.21875 -0.921875 L 3.21875 -0.046875 C 3.019531 0.0234375 2.78125 0.0625 2.5 0.0625 C 1.988281 0.0625 1.59375 -0.078125 1.3125 -0.359375 C 1.039062 -0.648438 0.90625 -1.0625 0.90625 -1.59375 L 0.90625 -3.671875 L 0.046875 -3.671875 L 0.046875 -4.515625 L 0.90625 -4.515625 L 0.90625 -5.609375 L 2.03125 -5.984375 L 2.03125 -4.515625 L 3.21875 -4.515625 L 3.21875 -3.671875 Z M 2.03125 -3.671875 "/></g></g></g></svg>