<svg xmlns="http://www.w3.org/2000/svg" xmlns:xlink="http://www.w3.org/1999/xlink" width="132" zoomAndPan="magnify" viewBox="0 0 98.88 70.499998" height="94" preserveAspectRatio="xMidYMid meet" version="1.0"><defs><g/><clipPath id="c466ad303f"><path d="M 28.683594 7 L 70.386719 7 L 70.386719 47.214844 L 28.683594 47.214844 Z M 28.683594 7 " clip-rule="nonzero"/></clipPath></defs><g clip-path="url(#c466ad303f)"><path fill="#ffffff" d="M 69.492188 20.140625 C 69.875 20.140625 70.183594 19.832031 70.183594 19.449219 L 70.183594 10.457031 C 70.183594 8.550781 68.632812 7 66.726562 7 L 32.148438 7 C 30.242188 7 28.691406 8.550781 28.691406 10.457031 L 28.691406 33.972656 C 28.691406 35.878906 30.242188 37.429688 32.148438 37.429688 L 42.476562 37.429688 C 42.253906 39.46875 41.074219 41.3125 39.265625 42.34375 L 38.1875 42.960938 L 37.679688 42.960938 C 35.773438 42.960938 34.222656 44.511719 34.222656 46.417969 C 34.222656 46.800781 34.53125 47.109375 34.914062 47.109375 L 44.597656 47.109375 C 44.976562 47.109375 45.289062 46.800781 45.289062 46.417969 C 45.289062 46.035156 44.976562 45.726562 44.597656 45.726562 L 35.722656 45.726562 C 36.007812 44.921875 36.777344 44.34375 37.679688 44.34375 L 61.191406 44.34375 C 62.09375 44.34375 62.863281 44.921875 63.148438 45.726562 L 47.363281 45.726562 C 46.980469 45.726562 46.671875 46.035156 46.671875 46.417969 C 46.671875 46.800781 46.980469 47.109375 47.363281 47.109375 L 63.960938 47.109375 C 64.339844 47.109375 64.652344 46.800781 64.652344 46.417969 C 64.652344 44.511719 63.097656 42.960938 61.191406 42.960938 L 60.683594 42.960938 L 59.605469 42.34375 C 57.800781 41.3125 56.621094 39.46875 56.398438 37.429688 L 66.726562 37.429688 C 68.632812 37.429688 70.183594 35.878906 70.183594 33.972656 L 70.183594 22.214844 C 70.183594 21.832031 69.875 21.523438 69.492188 21.523438 C 69.109375 21.523438 68.800781 21.832031 68.800781 22.214844 L 68.800781 33.972656 C 68.800781 35.113281 67.871094 36.046875 66.726562 36.046875 L 32.148438 36.046875 C 31.003906 36.046875 30.074219 35.113281 30.074219 33.972656 L 30.074219 10.457031 C 30.074219 9.3125 31.003906 8.382812 32.148438 8.382812 L 66.726562 8.382812 C 67.871094 8.382812 68.800781 9.3125 68.800781 10.457031 L 68.800781 19.449219 C 68.800781 19.832031 69.109375 20.140625 69.492188 20.140625 Z M 55 37.429688 C 55.195312 39.617188 56.304688 41.628906 58.039062 42.960938 L 40.832031 42.960938 C 42.566406 41.628906 43.679688 39.617188 43.875 37.429688 Z M 55 37.429688 " fill-opacity="1" fill-rule="nonzero"/></g><path fill="#ffffff" d="M 47.363281 28.4375 C 47.746094 28.4375 48.054688 28.128906 48.054688 27.746094 L 48.054688 24.980469 C 48.054688 24.597656 47.746094 24.289062 47.363281 24.289062 L 46.347656 24.289062 C 46.226562 23.902344 46.070312 23.527344 45.882812 23.167969 L 46.601562 22.453125 C 46.871094 22.179688 46.871094 21.746094 46.601562 21.472656 L 44.644531 19.519531 C 44.375 19.246094 43.9375 19.246094 43.667969 19.519531 L 42.949219 20.234375 C 42.589844 20.046875 42.214844 19.890625 41.828125 19.769531 L 41.828125 18.757812 C 41.828125 18.375 41.519531 18.066406 41.136719 18.066406 L 38.371094 18.066406 C 37.988281 18.066406 37.679688 18.375 37.679688 18.757812 L 37.679688 19.769531 C 37.292969 19.890625 36.917969 20.046875 36.5625 20.234375 L 35.84375 19.519531 C 35.574219 19.246094 35.136719 19.246094 34.863281 19.519531 L 32.910156 21.472656 C 32.640625 21.746094 32.640625 22.179688 32.910156 22.453125 L 33.628906 23.167969 C 33.4375 23.527344 33.285156 23.902344 33.160156 24.289062 L 32.148438 24.289062 C 31.765625 24.289062 31.457031 24.597656 31.457031 24.980469 L 31.457031 27.746094 C 31.457031 28.128906 31.765625 28.4375 32.148438 28.4375 L 33.160156 28.4375 C 33.285156 28.824219 33.4375 29.199219 33.628906 29.558594 L 32.910156 30.277344 C 32.640625 30.546875 32.640625 30.984375 32.910156 31.253906 C 33.179688 31.523438 33.617188 31.523438 33.886719 31.253906 L 34.980469 30.160156 C 35.207031 29.933594 35.246094 29.578125 35.074219 29.304688 C 34.742188 28.773438 34.503906 28.199219 34.363281 27.59375 C 34.292969 27.277344 34.011719 27.054688 33.691406 27.054688 L 32.839844 27.054688 L 32.839844 25.671875 L 33.691406 25.671875 C 34.011719 25.671875 34.292969 25.449219 34.363281 25.132812 C 34.503906 24.527344 34.742188 23.953125 35.074219 23.421875 C 35.246094 23.148438 35.207031 22.792969 34.976562 22.566406 L 34.375 21.960938 L 35.351562 20.984375 L 35.957031 21.589844 C 36.183594 21.816406 36.542969 21.855469 36.8125 21.683594 C 37.34375 21.351562 37.917969 21.113281 38.523438 20.972656 C 38.839844 20.902344 39.0625 20.621094 39.0625 20.300781 L 39.0625 19.449219 L 40.445312 19.449219 L 40.445312 20.300781 C 40.445312 20.621094 40.667969 20.902344 40.984375 20.972656 C 41.589844 21.113281 42.167969 21.351562 42.695312 21.683594 C 42.96875 21.855469 43.324219 21.816406 43.554688 21.585938 L 44.15625 20.984375 L 45.132812 21.960938 L 44.53125 22.566406 C 44.300781 22.792969 44.261719 23.148438 44.433594 23.421875 C 44.765625 23.953125 45.007812 24.527344 45.144531 25.132812 C 45.214844 25.449219 45.496094 25.671875 45.820312 25.671875 L 46.671875 25.671875 L 46.671875 27.054688 L 45.820312 27.054688 C 45.496094 27.054688 45.21875 27.277344 45.144531 27.59375 C 45.007812 28.199219 44.769531 28.773438 44.433594 29.304688 C 44.261719 29.578125 44.304688 29.933594 44.53125 30.160156 L 45.132812 30.765625 L 44.15625 31.742188 L 43.554688 31.140625 C 43.324219 30.910156 42.96875 30.871094 42.695312 31.042969 C 42.167969 31.375 41.589844 31.617188 40.984375 31.753906 C 40.667969 31.824219 40.445312 32.105469 40.445312 32.429688 L 40.445312 33.28125 L 39.0625 33.28125 L 39.0625 32.429688 C 39.0625 32.105469 38.839844 31.828125 38.523438 31.753906 C 37.917969 31.617188 37.34375 31.375 36.8125 31.042969 C 36.542969 30.871094 36.183594 30.910156 35.957031 31.140625 L 34.863281 32.230469 C 34.59375 32.503906 34.59375 32.941406 34.863281 33.210938 C 35.136719 33.480469 35.574219 33.480469 35.84375 33.210938 L 36.5625 32.492188 C 36.921875 32.679688 37.292969 32.835938 37.679688 32.957031 L 37.679688 33.972656 C 37.679688 34.351562 37.988281 34.664062 38.371094 34.664062 L 41.136719 34.664062 C 41.519531 34.664062 41.828125 34.351562 41.828125 33.972656 L 41.828125 32.957031 C 42.214844 32.835938 42.589844 32.679688 42.949219 32.492188 L 43.667969 33.210938 C 43.9375 33.480469 44.375 33.480469 44.644531 33.210938 L 46.601562 31.253906 C 46.871094 30.984375 46.871094 30.546875 46.601562 30.277344 L 45.882812 29.558594 C 46.070312 29.199219 46.226562 28.824219 46.347656 28.4375 Z M 47.363281 28.4375 " fill-opacity="1" fill-rule="nonzero"/><path fill="#ffffff" d="M 39.753906 29.820312 C 41.660156 29.820312 43.210938 28.269531 43.210938 26.363281 C 43.210938 24.457031 41.660156 22.90625 39.753906 22.90625 C 37.847656 22.90625 36.296875 24.457031 36.296875 26.363281 C 36.296875 28.269531 37.847656 29.820312 39.753906 29.820312 Z M 39.753906 24.289062 C 40.898438 24.289062 41.828125 25.21875 41.828125 26.363281 C 41.828125 27.507812 40.898438 28.4375 39.753906 28.4375 C 38.609375 28.4375 37.679688 27.507812 37.679688 26.363281 C 37.679688 25.21875 38.609375 24.289062 39.753906 24.289062 Z M 39.753906 24.289062 " fill-opacity="1" fill-rule="nonzero"/><path fill="#ffffff" d="M 57.582031 11.410156 C 57.34375 11.109375 56.910156 11.0625 56.613281 11.300781 L 53.152344 14.066406 C 52.988281 14.199219 52.894531 14.398438 52.894531 14.609375 C 52.894531 14.816406 52.988281 15.015625 53.152344 15.148438 L 56.613281 17.914062 C 56.738281 18.015625 56.890625 18.066406 57.042969 18.066406 C 57.246094 18.066406 57.445312 17.976562 57.582031 17.804688 C 57.824219 17.507812 57.773438 17.070312 57.476562 16.832031 L 54.691406 14.609375 L 57.476562 12.382812 C 57.773438 12.144531 57.824219 11.707031 57.582031 11.410156 Z M 57.582031 11.410156 " fill-opacity="1" fill-rule="nonzero"/><path fill="#ffffff" d="M 67.15625 14.066406 L 63.699219 11.300781 C 63.402344 11.0625 62.96875 11.113281 62.726562 11.410156 C 62.488281 11.707031 62.539062 12.144531 62.835938 12.382812 L 65.617188 14.609375 L 62.835938 16.832031 C 62.539062 17.074219 62.488281 17.507812 62.726562 17.804688 C 62.863281 17.976562 63.066406 18.066406 63.269531 18.066406 C 63.417969 18.066406 63.570312 18.015625 63.699219 17.914062 L 67.15625 15.148438 C 67.320312 15.015625 67.417969 14.816406 67.417969 14.609375 C 67.417969 14.398438 67.320312 14.199219 67.15625 14.066406 Z M 67.15625 14.066406 " fill-opacity="1" fill-rule="nonzero"/><path fill="#ffffff" d="M 58.875 18.023438 C 58.957031 18.050781 59.039062 18.066406 59.117188 18.066406 C 59.398438 18.066406 59.660156 17.894531 59.765625 17.617188 L 61.839844 12.085938 C 61.972656 11.726562 61.792969 11.328125 61.4375 11.195312 C 61.078125 11.0625 60.679688 11.242188 60.546875 11.597656 L 58.472656 17.132812 C 58.335938 17.488281 58.519531 17.886719 58.875 18.023438 Z M 58.875 18.023438 " fill-opacity="1" fill-rule="nonzero"/><path fill="#ffffff" d="M 50.128906 22.214844 C 50.128906 22.597656 50.4375 22.90625 50.820312 22.90625 L 53.585938 22.90625 C 53.96875 22.90625 54.277344 22.597656 54.277344 22.214844 C 54.277344 21.832031 53.96875 21.523438 53.585938 21.523438 L 50.820312 21.523438 C 50.4375 21.523438 50.128906 21.832031 50.128906 22.214844 Z M 50.128906 22.214844 " fill-opacity="1" fill-rule="nonzero"/><path fill="#ffffff" d="M 57.042969 22.214844 C 57.042969 22.40625 56.976562 22.570312 56.839844 22.703125 C 56.707031 22.839844 56.542969 22.90625 56.351562 22.90625 C 56.160156 22.90625 56 22.839844 55.863281 22.703125 C 55.726562 22.570312 55.660156 22.40625 55.660156 22.214844 C 55.660156 22.023438 55.726562 21.859375 55.863281 21.726562 C 56 21.589844 56.160156 21.523438 56.351562 21.523438 C 56.542969 21.523438 56.707031 21.589844 56.839844 21.726562 C 56.976562 21.859375 57.042969 22.023438 57.042969 22.214844 Z M 57.042969 22.214844 " fill-opacity="1" fill-rule="nonzero"/><path fill="#ffffff" d="M 59.808594 24.980469 C 59.808594 24.597656 59.5 24.289062 59.117188 24.289062 L 56.351562 24.289062 C 55.96875 24.289062 55.660156 24.597656 55.660156 24.980469 C 55.660156 25.363281 55.96875 25.671875 56.351562 25.671875 L 59.117188 25.671875 C 59.5 25.671875 59.808594 25.363281 59.808594 24.980469 Z M 59.808594 24.980469 " fill-opacity="1" fill-rule="nonzero"/><path fill="#ffffff" d="M 62.574219 24.980469 C 62.574219 25.171875 62.507812 25.335938 62.375 25.46875 C 62.238281 25.605469 62.074219 25.671875 61.882812 25.671875 C 61.695312 25.671875 61.53125 25.605469 61.394531 25.46875 C 61.261719 25.335938 61.191406 25.171875 61.191406 24.980469 C 61.191406 24.789062 61.261719 24.625 61.394531 24.492188 C 61.53125 24.355469 61.695312 24.289062 61.882812 24.289062 C 62.074219 24.289062 62.238281 24.355469 62.375 24.492188 C 62.507812 24.625 62.574219 24.789062 62.574219 24.980469 Z M 62.574219 24.980469 " fill-opacity="1" fill-rule="nonzero"/><path fill="#ffffff" d="M 51.511719 27.746094 C 51.511719 27.9375 51.445312 28.101562 51.308594 28.234375 C 51.171875 28.371094 51.011719 28.4375 50.820312 28.4375 C 50.628906 28.4375 50.464844 28.371094 50.332031 28.234375 C 50.195312 28.101562 50.128906 27.9375 50.128906 27.746094 C 50.128906 27.554688 50.195312 27.394531 50.332031 27.257812 C 50.464844 27.121094 50.628906 27.054688 50.820312 27.054688 C 51.011719 27.054688 51.171875 27.121094 51.308594 27.257812 C 51.445312 27.394531 51.511719 27.554688 51.511719 27.746094 Z M 51.511719 27.746094 " fill-opacity="1" fill-rule="nonzero"/><path fill="#ffffff" d="M 57.734375 27.746094 C 57.734375 27.9375 57.667969 28.101562 57.53125 28.234375 C 57.398438 28.371094 57.234375 28.4375 57.042969 28.4375 C 56.851562 28.4375 56.691406 28.371094 56.554688 28.234375 C 56.417969 28.101562 56.351562 27.9375 56.351562 27.746094 C 56.351562 27.554688 56.417969 27.394531 56.554688 27.257812 C 56.691406 27.121094 56.851562 27.054688 57.042969 27.054688 C 57.234375 27.054688 57.398438 27.121094 57.53125 27.257812 C 57.667969 27.394531 57.734375 27.554688 57.734375 27.746094 Z M 57.734375 27.746094 " fill-opacity="1" fill-rule="nonzero"/><path fill="#ffffff" d="M 64.652344 27.746094 C 64.652344 27.9375 64.582031 28.101562 64.449219 28.234375 C 64.3125 28.371094 64.148438 28.4375 63.960938 28.4375 C 63.769531 28.4375 63.605469 28.371094 63.46875 28.234375 C 63.335938 28.101562 63.269531 27.9375 63.269531 27.746094 C 63.269531 27.554688 63.335938 27.394531 63.46875 27.257812 C 63.605469 27.121094 63.769531 27.054688 63.960938 27.054688 C 64.148438 27.054688 64.3125 27.121094 64.449219 27.257812 C 64.582031 27.394531 64.652344 27.554688 64.652344 27.746094 Z M 64.652344 27.746094 " fill-opacity="1" fill-rule="nonzero"/><path fill="#ffffff" d="M 60.5 30.511719 C 60.5 30.703125 60.433594 30.867188 60.300781 31.003906 C 60.164062 31.136719 60 31.203125 59.808594 31.203125 C 59.617188 31.203125 59.457031 31.136719 59.320312 31.003906 C 59.1875 30.867188 59.117188 30.703125 59.117188 30.511719 C 59.117188 30.320312 59.1875 30.160156 59.320312 30.023438 C 59.457031 29.890625 59.617188 29.820312 59.808594 29.820312 C 60 29.820312 60.164062 29.890625 60.300781 30.023438 C 60.433594 30.160156 60.5 30.320312 60.5 30.511719 Z M 60.5 30.511719 " fill-opacity="1" fill-rule="nonzero"/><path fill="#ffffff" d="M 59.117188 22.90625 L 61.191406 22.90625 C 61.574219 22.90625 61.882812 22.597656 61.882812 22.214844 C 61.882812 21.832031 61.574219 21.523438 61.191406 21.523438 L 59.117188 21.523438 C 58.734375 21.523438 58.425781 21.832031 58.425781 22.214844 C 58.425781 22.597656 58.734375 22.90625 59.117188 22.90625 Z M 59.117188 22.90625 " fill-opacity="1" fill-rule="nonzero"/><path fill="#ffffff" d="M 66.726562 21.523438 L 63.960938 21.523438 C 63.578125 21.523438 63.269531 21.832031 63.269531 22.214844 C 63.269531 22.597656 63.578125 22.90625 63.960938 22.90625 L 66.726562 22.90625 C 67.109375 22.90625 67.417969 22.597656 67.417969 22.214844 C 67.417969 21.832031 67.109375 21.523438 66.726562 21.523438 Z M 66.726562 21.523438 " fill-opacity="1" fill-rule="nonzero"/><path fill="#ffffff" d="M 50.820312 25.671875 L 53.585938 25.671875 C 53.96875 25.671875 54.277344 25.363281 54.277344 24.980469 C 54.277344 24.597656 53.96875 24.289062 53.585938 24.289062 L 50.820312 24.289062 C 50.4375 24.289062 50.128906 24.597656 50.128906 24.980469 C 50.128906 25.363281 50.4375 25.671875 50.820312 25.671875 Z M 50.820312 25.671875 " fill-opacity="1" fill-rule="nonzero"/><path fill="#ffffff" d="M 66.726562 24.289062 L 64.652344 24.289062 C 64.269531 24.289062 63.960938 24.597656 63.960938 24.980469 C 63.960938 25.363281 64.269531 25.671875 64.652344 25.671875 L 66.726562 25.671875 C 67.109375 25.671875 67.417969 25.363281 67.417969 24.980469 C 67.417969 24.597656 67.109375 24.289062 66.726562 24.289062 Z M 66.726562 24.289062 " fill-opacity="1" fill-rule="nonzero"/><path fill="#ffffff" d="M 61.882812 27.746094 C 61.882812 27.363281 61.574219 27.054688 61.191406 27.054688 L 59.808594 27.054688 C 59.425781 27.054688 59.117188 27.363281 59.117188 27.746094 C 59.117188 28.128906 59.425781 28.4375 59.808594 28.4375 L 61.191406 28.4375 C 61.574219 28.4375 61.882812 28.128906 61.882812 27.746094 Z M 61.882812 27.746094 " fill-opacity="1" fill-rule="nonzero"/><path fill="#ffffff" d="M 53.585938 27.054688 C 53.203125 27.054688 52.894531 27.363281 52.894531 27.746094 C 52.894531 28.128906 53.203125 28.4375 53.585938 28.4375 L 54.277344 28.4375 C 54.660156 28.4375 54.96875 28.128906 54.96875 27.746094 C 54.96875 27.363281 54.660156 27.054688 54.277344 27.054688 Z M 53.585938 27.054688 " fill-opacity="1" fill-rule="nonzero"/><path fill="#ffffff" d="M 67.417969 27.746094 C 67.417969 27.9375 67.347656 28.101562 67.214844 28.234375 C 67.078125 28.371094 66.917969 28.4375 66.726562 28.4375 C 66.535156 28.4375 66.371094 28.371094 66.238281 28.234375 C 66.101562 28.101562 66.035156 27.9375 66.035156 27.746094 C 66.035156 27.554688 66.101562 27.394531 66.238281 27.257812 C 66.371094 27.121094 66.535156 27.054688 66.726562 27.054688 C 66.917969 27.054688 67.078125 27.121094 67.214844 27.257812 C 67.347656 27.394531 67.417969 27.554688 67.417969 27.746094 Z M 67.417969 27.746094 " fill-opacity="1" fill-rule="nonzero"/><path fill="#ffffff" d="M 50.820312 31.203125 L 57.042969 31.203125 C 57.425781 31.203125 57.734375 30.894531 57.734375 30.511719 C 57.734375 30.128906 57.425781 29.820312 57.042969 29.820312 L 50.820312 29.820312 C 50.4375 29.820312 50.128906 30.128906 50.128906 30.511719 C 50.128906 30.894531 50.4375 31.203125 50.820312 31.203125 Z M 50.820312 31.203125 " fill-opacity="1" fill-rule="nonzero"/><path fill="#ffffff" d="M 62.574219 31.203125 L 66.726562 31.203125 C 67.109375 31.203125 67.417969 30.894531 67.417969 30.511719 C 67.417969 30.128906 67.109375 29.820312 66.726562 29.820312 L 62.574219 29.820312 C 62.195312 29.820312 61.882812 30.128906 61.882812 30.511719 C 61.882812 30.894531 62.195312 31.203125 62.574219 31.203125 Z M 62.574219 31.203125 " fill-opacity="1" fill-rule="nonzero"/><path fill="#ffffff" d="M 35.605469 16.683594 C 35.988281 16.683594 36.296875 16.371094 36.296875 15.992188 L 36.296875 13.222656 C 36.296875 12.84375 35.988281 12.53125 35.605469 12.53125 L 32.839844 12.53125 C 32.457031 12.53125 32.148438 12.84375 32.148438 13.222656 L 32.148438 15.992188 C 32.148438 16.371094 32.457031 16.683594 32.839844 16.683594 Z M 33.53125 13.914062 L 34.914062 13.914062 L 34.914062 15.300781 L 33.53125 15.300781 Z M 33.53125 13.914062 " fill-opacity="1" fill-rule="nonzero"/><path fill="#ffffff" d="M 38.371094 16.683594 L 41.136719 16.683594 C 41.519531 16.683594 41.828125 16.371094 41.828125 15.992188 L 41.828125 11.839844 C 41.828125 11.457031 41.519531 11.148438 41.136719 11.148438 L 38.371094 11.148438 C 37.988281 11.148438 37.679688 11.457031 37.679688 11.839844 L 37.679688 15.992188 C 37.679688 16.371094 37.988281 16.683594 38.371094 16.683594 Z M 39.0625 12.53125 L 40.445312 12.53125 L 40.445312 15.300781 L 39.0625 15.300781 Z M 39.0625 12.53125 " fill-opacity="1" fill-rule="nonzero"/><path fill="#ffffff" d="M 46.671875 16.683594 C 47.054688 16.683594 47.363281 16.371094 47.363281 15.992188 L 47.363281 10.457031 C 47.363281 10.074219 47.054688 9.765625 46.671875 9.765625 L 43.902344 9.765625 C 43.523438 9.765625 43.210938 10.074219 43.210938 10.457031 L 43.210938 15.992188 C 43.210938 16.371094 43.523438 16.683594 43.902344 16.683594 C 44.285156 16.683594 44.597656 16.371094 44.597656 15.992188 L 44.597656 11.148438 L 45.980469 11.148438 L 45.980469 15.992188 C 45.980469 16.371094 46.289062 16.683594 46.671875 16.683594 Z M 46.671875 16.683594 " fill-opacity="1" fill-rule="nonzero"/><g fill="#ffffff" fill-opacity="1"><g transform="translate(15.071606, 60.790408)"><g/></g></g><g fill="#ffffff" fill-opacity="1"><g transform="translate(16.882042, 60.790408)"><g><path d="M 0.625 -5.625 L 1.65625 -5.625 L 1.65625 -0.921875 L 3.96875 -0.921875 L 3.96875 0 L 0.625 0 Z M 0.625 -5.625 "/></g></g></g><g fill="#ffffff" fill-opacity="1"><g transform="translate(20.903643, 60.790408)"><g><path d="M 1.328125 0.078125 C 1.003906 0.078125 0.726562 -0.03125 0.5 -0.25 C 0.28125 -0.46875 0.171875 -0.757812 0.171875 -1.125 C 0.171875 -1.476562 0.296875 -1.757812 0.546875 -1.96875 C 0.796875 -2.175781 1.09375 -2.320312 1.4375 -2.40625 C 1.78125 -2.5 2.113281 -2.550781 2.4375 -2.5625 C 2.414062 -2.800781 2.347656 -2.972656 2.234375 -3.078125 C 2.128906 -3.179688 1.953125 -3.234375 1.703125 -3.234375 C 1.523438 -3.234375 1.351562 -3.207031 1.1875 -3.15625 C 1.019531 -3.101562 0.828125 -3.023438 0.609375 -2.921875 L 0.515625 -3.734375 C 1.003906 -3.972656 1.492188 -4.09375 1.984375 -4.09375 C 2.453125 -4.09375 2.8125 -3.960938 3.0625 -3.703125 C 3.3125 -3.441406 3.4375 -3.03125 3.4375 -2.46875 L 3.4375 -1.390625 C 3.4375 -1.179688 3.445312 -1.03125 3.46875 -0.9375 C 3.488281 -0.851562 3.519531 -0.796875 3.5625 -0.765625 C 3.601562 -0.742188 3.679688 -0.734375 3.796875 -0.734375 L 3.921875 -0.734375 L 3.828125 0.078125 L 3.46875 0.078125 C 3.25 0.078125 3.0625 0.0351562 2.90625 -0.046875 C 2.757812 -0.128906 2.644531 -0.242188 2.5625 -0.390625 C 2.4375 -0.242188 2.257812 -0.128906 2.03125 -0.046875 C 1.8125 0.0351562 1.578125 0.078125 1.328125 0.078125 Z M 1.75 -0.6875 C 1.851562 -0.6875 1.96875 -0.710938 2.09375 -0.765625 C 2.226562 -0.816406 2.34375 -0.882812 2.4375 -0.96875 L 2.4375 -1.890625 C 2.113281 -1.867188 1.828125 -1.796875 1.578125 -1.671875 C 1.335938 -1.554688 1.21875 -1.390625 1.21875 -1.171875 C 1.21875 -1.003906 1.257812 -0.878906 1.34375 -0.796875 C 1.425781 -0.722656 1.5625 -0.6875 1.75 -0.6875 Z M 0.921875 -5.09375 L 1.984375 -6 L 3.046875 -5.09375 L 3.046875 -4.453125 L 1.984375 -5.125 L 0.921875 -4.453125 Z M 1.578125 0.65625 L 2.421875 0.65625 L 2.421875 1.4375 L 1.578125 1.4375 Z M 1.578125 0.65625 "/></g></g></g><g fill="#ffffff" fill-opacity="1"><g transform="translate(24.909156, 60.790408)"><g><path d="M 2.5625 -4.09375 C 2.945312 -4.09375 3.273438 -4 3.546875 -3.8125 C 3.816406 -3.625 4.019531 -3.367188 4.15625 -3.046875 C 4.300781 -2.734375 4.375 -2.382812 4.375 -2 C 4.375 -1.625 4.300781 -1.273438 4.15625 -0.953125 C 4.019531 -0.640625 3.816406 -0.390625 3.546875 -0.203125 C 3.273438 -0.015625 2.945312 0.078125 2.5625 0.078125 C 2.320312 0.078125 2.117188 0.0507812 1.953125 0 C 1.785156 -0.0507812 1.625 -0.128906 1.46875 -0.234375 L 1.46875 1.953125 L 0.46875 1.953125 L 0.46875 -4.015625 L 1.265625 -4.015625 L 1.375 -3.65625 C 1.550781 -3.800781 1.734375 -3.910156 1.921875 -3.984375 C 2.109375 -4.054688 2.320312 -4.09375 2.5625 -4.09375 Z M 2.40625 -0.734375 C 2.707031 -0.734375 2.941406 -0.847656 3.109375 -1.078125 C 3.273438 -1.316406 3.359375 -1.625 3.359375 -2 C 3.359375 -2.382812 3.273438 -2.691406 3.109375 -2.921875 C 2.941406 -3.148438 2.707031 -3.265625 2.40625 -3.265625 C 2.082031 -3.265625 1.835938 -3.148438 1.671875 -2.921875 C 1.503906 -2.703125 1.421875 -2.394531 1.421875 -2 C 1.421875 -1.613281 1.503906 -1.304688 1.671875 -1.078125 C 1.835938 -0.847656 2.082031 -0.734375 2.40625 -0.734375 Z M 2.40625 -0.734375 "/></g></g></g><g fill="#ffffff" fill-opacity="1"><g transform="translate(29.50987, 60.790408)"><g/></g></g><g fill="#ffffff" fill-opacity="1"><g transform="translate(31.319588, 60.790408)"><g><path d="M 1.78125 0.078125 C 1.425781 0.078125 1.15625 -0.0234375 0.96875 -0.234375 C 0.789062 -0.441406 0.703125 -0.6875 0.703125 -0.96875 L 0.703125 -3.203125 L 0.125 -3.203125 L 0.21875 -4.015625 L 0.703125 -4.015625 L 0.703125 -4.90625 L 1.703125 -5.015625 L 1.703125 -4.015625 L 2.578125 -4.015625 L 2.578125 -3.203125 L 1.703125 -3.203125 L 1.703125 -1.390625 C 1.703125 -1.171875 1.710938 -1.019531 1.734375 -0.9375 C 1.753906 -0.851562 1.800781 -0.796875 1.875 -0.765625 C 1.957031 -0.742188 2.101562 -0.734375 2.3125 -0.734375 L 2.578125 -0.734375 L 2.5 0.078125 Z M 1.78125 0.078125 "/></g></g></g><g fill="#ffffff" fill-opacity="1"><g transform="translate(34.086449, 60.790408)"><g><path d="M 0.46875 -4.015625 L 1.40625 -4.015625 L 1.421875 -3.59375 C 1.535156 -3.726562 1.6875 -3.847656 1.875 -3.953125 C 2.0625 -4.054688 2.257812 -4.109375 2.46875 -4.109375 C 2.53125 -4.109375 2.585938 -4.101562 2.640625 -4.09375 L 2.5625 -3.109375 C 2.457031 -3.128906 2.34375 -3.140625 2.21875 -3.140625 C 2.050781 -3.140625 1.894531 -3.097656 1.75 -3.015625 C 1.613281 -2.941406 1.519531 -2.851562 1.46875 -2.75 L 1.46875 0 L 0.46875 0 Z M 0.46875 -4.015625 "/></g></g></g><g fill="#ffffff" fill-opacity="1"><g transform="translate(36.740711, 60.790408)"><g><path d="M 0.46875 -4.015625 L 1.46875 -4.015625 L 1.46875 0 L 0.46875 0 Z M 0.171875 -5.203125 L 0.171875 -6.125 L 1.75 -5.21875 L 1.75 -4.59375 Z M 0.171875 -5.203125 "/></g></g></g><g fill="#ffffff" fill-opacity="1"><g transform="translate(38.671086, 60.790408)"><g><path d="M 2.5 -4.09375 C 3 -4.09375 3.375 -3.925781 3.625 -3.59375 C 3.882812 -3.257812 4.015625 -2.8125 4.015625 -2.25 L 4.015625 0 L 3.015625 0 L 3.015625 -2.171875 C 3.015625 -2.546875 2.953125 -2.820312 2.828125 -3 C 2.703125 -3.175781 2.5 -3.265625 2.21875 -3.265625 C 1.914062 -3.265625 1.664062 -3.148438 1.46875 -2.921875 L 1.46875 0 L 0.46875 0 L 0.46875 -4.015625 L 1.40625 -4.015625 L 1.421875 -3.734375 C 1.753906 -3.972656 2.113281 -4.09375 2.5 -4.09375 Z M 2.5 -4.09375 "/></g></g></g><g fill="#ffffff" fill-opacity="1"><g transform="translate(43.110939, 60.790408)"><g><path d="M 2.5 -4.09375 C 3.007812 -4.09375 3.382812 -3.925781 3.625 -3.59375 C 3.875 -3.257812 4 -2.804688 4 -2.234375 L 4 0 L 3.015625 0 L 3.015625 -2.171875 C 3.015625 -2.546875 2.953125 -2.820312 2.828125 -3 C 2.703125 -3.175781 2.503906 -3.265625 2.234375 -3.265625 C 1.921875 -3.265625 1.660156 -3.148438 1.453125 -2.921875 L 1.453125 0 L 0.453125 0 L 0.453125 -6.03125 L 1.453125 -6.03125 L 1.453125 -3.765625 C 1.617188 -3.867188 1.785156 -3.945312 1.953125 -4 C 2.117188 -4.0625 2.300781 -4.09375 2.5 -4.09375 Z M 2.5 -4.09375 "/></g></g></g><g fill="#ffffff" fill-opacity="1"><g transform="translate(47.542744, 60.790408)"><g/></g></g><g fill="#ffffff" fill-opacity="1"><g transform="translate(49.352462, 60.790408)"><g><path d="M 2.125 0.1875 C 1.707031 0.1875 1.359375 0.117188 1.078125 -0.015625 C 0.804688 -0.160156 0.597656 -0.347656 0.453125 -0.578125 C 0.316406 -0.816406 0.25 -1.078125 0.25 -1.359375 C 0.25 -1.691406 0.335938 -1.984375 0.515625 -2.234375 C 0.691406 -2.484375 0.929688 -2.722656 1.234375 -2.953125 C 0.835938 -3.453125 0.640625 -3.910156 0.640625 -4.328125 C 0.640625 -4.597656 0.707031 -4.832031 0.84375 -5.03125 C 0.988281 -5.226562 1.179688 -5.378906 1.421875 -5.484375 C 1.660156 -5.597656 1.921875 -5.65625 2.203125 -5.65625 C 2.617188 -5.65625 2.945312 -5.546875 3.1875 -5.328125 C 3.425781 -5.117188 3.546875 -4.84375 3.546875 -4.5 C 3.546875 -4.28125 3.492188 -4.082031 3.390625 -3.90625 C 3.296875 -3.726562 3.171875 -3.578125 3.015625 -3.453125 C 2.867188 -3.328125 2.664062 -3.171875 2.40625 -2.984375 L 3.53125 -1.703125 C 3.570312 -1.921875 3.59375 -2.15625 3.59375 -2.40625 C 3.601562 -2.65625 3.609375 -2.796875 3.609375 -2.828125 L 4.578125 -2.828125 C 4.578125 -2.085938 4.441406 -1.46875 4.171875 -0.96875 L 5.015625 0 L 3.859375 0 L 3.609375 -0.28125 C 3.222656 0.03125 2.726562 0.1875 2.125 0.1875 Z M 1.984375 -3.46875 C 2.203125 -3.625 2.367188 -3.773438 2.484375 -3.921875 C 2.609375 -4.066406 2.671875 -4.222656 2.671875 -4.390625 C 2.671875 -4.546875 2.625 -4.660156 2.53125 -4.734375 C 2.445312 -4.816406 2.332031 -4.859375 2.1875 -4.859375 C 2.019531 -4.859375 1.882812 -4.804688 1.78125 -4.703125 C 1.675781 -4.609375 1.625 -4.46875 1.625 -4.28125 C 1.625 -4.15625 1.648438 -4.03125 1.703125 -3.90625 C 1.765625 -3.78125 1.859375 -3.632812 1.984375 -3.46875 Z M 2.265625 -0.578125 C 2.617188 -0.578125 2.898438 -0.664062 3.109375 -0.84375 L 1.71875 -2.40625 C 1.4375 -2.113281 1.296875 -1.789062 1.296875 -1.4375 C 1.296875 -1.1875 1.367188 -0.976562 1.515625 -0.8125 C 1.660156 -0.65625 1.910156 -0.578125 2.265625 -0.578125 Z M 2.265625 -0.578125 "/></g></g></g><g fill="#ffffff" fill-opacity="1"><g transform="translate(54.395555, 60.790408)"><g/></g></g><g fill="#ffffff" fill-opacity="1"><g transform="translate(56.205272, 60.790408)"><g><path d="M 1.71875 -4.640625 L 0.125 -4.640625 L 0.125 -5.625 L 4.34375 -5.625 L 4.34375 -4.640625 L 2.75 -4.640625 L 2.75 0 L 1.71875 0 Z M 1.71875 -4.640625 "/></g></g></g><g fill="#ffffff" fill-opacity="1"><g transform="translate(60.661213, 60.790408)"><g><path d="M 2.5 -4.09375 C 3.007812 -4.09375 3.382812 -3.925781 3.625 -3.59375 C 3.875 -3.257812 4 -2.804688 4 -2.234375 L 4 0 L 3.015625 0 L 3.015625 -2.171875 C 3.015625 -2.546875 2.953125 -2.820312 2.828125 -3 C 2.703125 -3.175781 2.503906 -3.265625 2.234375 -3.265625 C 1.921875 -3.265625 1.660156 -3.148438 1.453125 -2.921875 L 1.453125 0 L 0.453125 0 L 0.453125 -6.03125 L 1.453125 -6.03125 L 1.453125 -3.765625 C 1.617188 -3.867188 1.785156 -3.945312 1.953125 -4 C 2.117188 -4.0625 2.300781 -4.09375 2.5 -4.09375 Z M 2.5 -4.09375 "/></g></g></g><g fill="#ffffff" fill-opacity="1"><g transform="translate(65.093018, 60.790408)"><g><path d="M 0.46875 -5.625 L 1.46875 -5.625 L 1.46875 -4.640625 L 0.46875 -4.640625 Z M 0.46875 -4.015625 L 1.46875 -4.015625 L 1.46875 0 L 0.46875 0 Z M 0.46875 -4.015625 "/></g></g></g><g fill="#ffffff" fill-opacity="1"><g transform="translate(67.023393, 60.790408)"><g><path d="M 2.40625 0.078125 C 1.9375 0.078125 1.535156 -0.015625 1.203125 -0.203125 C 0.878906 -0.390625 0.632812 -0.644531 0.46875 -0.96875 C 0.300781 -1.289062 0.21875 -1.644531 0.21875 -2.03125 C 0.21875 -2.40625 0.296875 -2.75 0.453125 -3.0625 C 0.609375 -3.375 0.832031 -3.625 1.125 -3.8125 C 1.425781 -4 1.78125 -4.09375 2.1875 -4.09375 C 2.5625 -4.09375 2.878906 -4.015625 3.140625 -3.859375 C 3.398438 -3.703125 3.59375 -3.488281 3.71875 -3.21875 C 3.851562 -2.957031 3.921875 -2.664062 3.921875 -2.34375 C 3.921875 -2.175781 3.898438 -1.992188 3.859375 -1.796875 L 1.265625 -1.796875 C 1.316406 -1.441406 1.453125 -1.175781 1.671875 -1 C 1.898438 -0.820312 2.175781 -0.734375 2.5 -0.734375 C 2.925781 -0.734375 3.328125 -0.84375 3.703125 -1.0625 L 3.75 -0.21875 C 3.582031 -0.132812 3.382812 -0.0625 3.15625 0 C 2.925781 0.0507812 2.675781 0.078125 2.40625 0.078125 Z M 2.90625 -2.46875 C 2.90625 -2.675781 2.847656 -2.859375 2.734375 -3.015625 C 2.617188 -3.179688 2.4375 -3.265625 2.1875 -3.265625 C 1.9375 -3.265625 1.738281 -3.191406 1.59375 -3.046875 C 1.445312 -2.898438 1.34375 -2.707031 1.28125 -2.46875 Z M 3.40625 -6.625 L 4.328125 -6.625 L 3.515625 -5.59375 L 2.875 -5.59375 Z M 1.203125 -4.984375 L 2.265625 -5.71875 L 3.328125 -4.984375 L 3.328125 -4.390625 L 2.265625 -4.96875 L 1.203125 -4.390625 Z M 1.203125 -4.984375 "/></g></g></g><g fill="#ffffff" fill-opacity="1"><g transform="translate(71.165641, 60.790408)"><g><path d="M 1.78125 0.078125 C 1.425781 0.078125 1.15625 -0.0234375 0.96875 -0.234375 C 0.789062 -0.441406 0.703125 -0.6875 0.703125 -0.96875 L 0.703125 -3.203125 L 0.125 -3.203125 L 0.21875 -4.015625 L 0.703125 -4.015625 L 0.703125 -4.90625 L 1.703125 -5.015625 L 1.703125 -4.015625 L 2.578125 -4.015625 L 2.578125 -3.203125 L 1.703125 -3.203125 L 1.703125 -1.390625 C 1.703125 -1.171875 1.710938 -1.019531 1.734375 -0.9375 C 1.753906 -0.851562 1.800781 -0.796875 1.875 -0.765625 C 1.957031 -0.742188 2.101562 -0.734375 2.3125 -0.734375 L 2.578125 -0.734375 L 2.5 0.078125 Z M 1.78125 0.078125 "/></g></g></g><g fill="#ffffff" fill-opacity="1"><g transform="translate(73.932503, 60.790408)"><g/></g></g><g fill="#ffffff" fill-opacity="1"><g transform="translate(75.74222, 60.790408)"><g><path d="M 0.453125 -6.03125 L 1.453125 -6.03125 L 1.453125 -2.375 L 2.703125 -4.015625 L 3.828125 -4.015625 L 2.359375 -2.09375 L 3.859375 0 L 2.734375 0 L 1.453125 -1.78125 L 1.453125 0 L 0.453125 0 Z M 0.453125 -6.03125 "/></g></g></g><g fill="#ffffff" fill-opacity="1"><g transform="translate(79.643173, 60.790408)"><g><path d="M 2.40625 0.078125 C 1.9375 0.078125 1.535156 -0.015625 1.203125 -0.203125 C 0.878906 -0.390625 0.632812 -0.644531 0.46875 -0.96875 C 0.300781 -1.289062 0.21875 -1.644531 0.21875 -2.03125 C 0.21875 -2.40625 0.296875 -2.75 0.453125 -3.0625 C 0.609375 -3.375 0.832031 -3.625 1.125 -3.8125 C 1.425781 -4 1.78125 -4.09375 2.1875 -4.09375 C 2.5625 -4.09375 2.878906 -4.015625 3.140625 -3.859375 C 3.398438 -3.703125 3.59375 -3.488281 3.71875 -3.21875 C 3.851562 -2.957031 3.921875 -2.664062 3.921875 -2.34375 C 3.921875 -2.175781 3.898438 -1.992188 3.859375 -1.796875 L 1.265625 -1.796875 C 1.316406 -1.441406 1.453125 -1.175781 1.671875 -1 C 1.898438 -0.820312 2.175781 -0.734375 2.5 -0.734375 C 2.925781 -0.734375 3.328125 -0.84375 3.703125 -1.0625 L 3.75 -0.21875 C 3.582031 -0.132812 3.382812 -0.0625 3.15625 0 C 2.925781 0.0507812 2.675781 0.078125 2.40625 0.078125 Z M 2.90625 -2.46875 C 2.90625 -2.675781 2.847656 -2.859375 2.734375 -3.015625 C 2.617188 -3.179688 2.4375 -3.265625 2.1875 -3.265625 C 1.9375 -3.265625 1.738281 -3.191406 1.59375 -3.046875 C 1.445312 -2.898438 1.34375 -2.707031 1.28125 -2.46875 Z M 3.40625 -6.625 L 4.328125 -6.625 L 3.515625 -5.59375 L 2.875 -5.59375 Z M 1.203125 -4.984375 L 2.265625 -5.71875 L 3.328125 -4.984375 L 3.328125 -4.390625 L 2.265625 -4.96875 L 1.203125 -4.390625 Z M 1.203125 -4.984375 "/></g></g></g></svg>