<svg xmlns="http://www.w3.org/2000/svg" xmlns:xlink="http://www.w3.org/1999/xlink" width="132" zoomAndPan="magnify" viewBox="0 0 98.88 70.499998" height="94" preserveAspectRatio="xMidYMid meet" version="1.0"><defs><g/><clipPath id="45014c6a12"><path d="M 25.617188 48 L 73 48 L 73 49 L 25.617188 49 Z M 25.617188 48 " clip-rule="nonzero"/></clipPath><clipPath id="37a32eab86"><path d="M 56 47 L 62 47 L 62 49.449219 L 56 49.449219 Z M 56 47 " clip-rule="nonzero"/></clipPath></defs><path fill="#d4def9" d="M 67.234375 25.253906 C 67.234375 25.75 67.207031 26.246094 67.152344 26.742188 C 67.101562 27.238281 67.019531 27.730469 66.914062 28.21875 C 66.808594 28.703125 66.675781 29.1875 66.519531 29.664062 C 66.359375 30.136719 66.179688 30.605469 65.96875 31.066406 C 65.761719 31.523438 65.53125 31.972656 65.273438 32.414062 C 65.015625 32.851562 64.738281 33.277344 64.4375 33.691406 C 64.132812 34.105469 63.808594 34.503906 63.464844 34.886719 C 63.121094 35.273438 62.753906 35.640625 62.371094 35.992188 C 61.988281 36.34375 61.585938 36.679688 61.164062 36.992188 C 60.742188 37.308594 60.308594 37.605469 59.855469 37.882812 C 59.402344 38.15625 58.9375 38.414062 58.457031 38.648438 C 57.980469 38.882812 57.488281 39.09375 56.984375 39.285156 C 56.484375 39.476562 55.972656 39.640625 55.453125 39.785156 C 54.929688 39.929688 54.40625 40.050781 53.871094 40.148438 C 53.339844 40.246094 52.800781 40.320312 52.261719 40.367188 C 51.71875 40.417969 51.175781 40.441406 50.632812 40.441406 C 50.089844 40.441406 49.546875 40.417969 49.003906 40.367188 C 48.464844 40.320312 47.925781 40.246094 47.394531 40.148438 C 46.859375 40.050781 46.335938 39.929688 45.8125 39.785156 C 45.292969 39.640625 44.78125 39.476562 44.28125 39.285156 C 43.777344 39.09375 43.285156 38.882812 42.808594 38.648438 C 42.328125 38.414062 41.863281 38.15625 41.410156 37.882812 C 40.957031 37.605469 40.523438 37.308594 40.101562 36.992188 C 39.679688 36.679688 39.277344 36.34375 38.894531 35.992188 C 38.511719 35.640625 38.144531 35.273438 37.800781 34.886719 C 37.457031 34.503906 37.132812 34.105469 36.828125 33.691406 C 36.527344 33.277344 36.25 32.851562 35.992188 32.414062 C 35.734375 31.972656 35.503906 31.523438 35.296875 31.066406 C 35.089844 30.605469 34.90625 30.136719 34.746094 29.664062 C 34.589844 29.1875 34.457031 28.703125 34.351562 28.21875 C 34.246094 27.730469 34.164062 27.238281 34.113281 26.742188 C 34.058594 26.246094 34.03125 25.75 34.03125 25.253906 C 34.03125 24.757812 34.058594 24.261719 34.113281 23.765625 C 34.164062 23.269531 34.246094 22.78125 34.351562 22.292969 C 34.457031 21.804688 34.589844 21.320312 34.746094 20.847656 C 34.90625 20.371094 35.089844 19.902344 35.296875 19.441406 C 35.503906 18.984375 35.734375 18.535156 35.992188 18.09375 C 36.25 17.65625 36.527344 17.230469 36.828125 16.816406 C 37.132812 16.402344 37.457031 16.003906 37.800781 15.621094 C 38.144531 15.234375 38.511719 14.867188 38.894531 14.515625 C 39.277344 14.164062 39.679688 13.832031 40.101562 13.515625 C 40.523438 13.199219 40.957031 12.902344 41.410156 12.628906 C 41.863281 12.351562 42.328125 12.09375 42.808594 11.859375 C 43.285156 11.625 43.777344 11.414062 44.28125 11.222656 C 44.78125 11.035156 45.292969 10.867188 45.8125 10.722656 C 46.335938 10.578125 46.859375 10.457031 47.394531 10.359375 C 47.925781 10.261719 48.464844 10.191406 49.003906 10.140625 C 49.546875 10.09375 50.089844 10.066406 50.632812 10.066406 C 51.175781 10.066406 51.71875 10.09375 52.261719 10.140625 C 52.800781 10.191406 53.339844 10.261719 53.871094 10.359375 C 54.40625 10.457031 54.929688 10.578125 55.453125 10.722656 C 55.972656 10.867188 56.484375 11.035156 56.984375 11.222656 C 57.488281 11.414062 57.980469 11.625 58.457031 11.859375 C 58.9375 12.09375 59.402344 12.351562 59.855469 12.628906 C 60.308594 12.902344 60.742188 13.199219 61.164062 13.515625 C 61.585938 13.832031 61.988281 14.164062 62.371094 14.515625 C 62.753906 14.867188 63.121094 15.234375 63.464844 15.621094 C 63.808594 16.003906 64.132812 16.402344 64.4375 16.816406 C 64.738281 17.230469 65.015625 17.65625 65.273438 18.09375 C 65.53125 18.535156 65.761719 18.984375 65.96875 19.441406 C 66.179688 19.902344 66.359375 20.371094 66.519531 20.847656 C 66.675781 21.320312 66.808594 21.804688 66.914062 22.292969 C 67.019531 22.78125 67.101562 23.269531 67.152344 23.765625 C 67.207031 24.261719 67.234375 24.757812 67.234375 25.253906 Z M 67.234375 25.253906 " fill-opacity="1" fill-rule="nonzero"/><path fill="#d4def9" d="M 53.367188 32.972656 C 53.367188 33.667969 53.292969 34.355469 53.144531 35.039062 C 52.996094 35.71875 52.777344 36.382812 52.488281 37.023438 C 52.195312 37.667969 51.839844 38.277344 51.417969 38.855469 C 50.996094 39.433594 50.515625 39.96875 49.976562 40.460938 C 49.441406 40.953125 48.855469 41.390625 48.226562 41.777344 C 47.59375 42.164062 46.925781 42.488281 46.222656 42.753906 C 45.523438 43.023438 44.800781 43.222656 44.054688 43.359375 C 43.308594 43.492188 42.554688 43.5625 41.796875 43.5625 C 41.035156 43.5625 40.285156 43.492188 39.539062 43.359375 C 38.792969 43.222656 38.070312 43.023438 37.367188 42.753906 C 36.667969 42.488281 36 42.164062 35.367188 41.777344 C 34.734375 41.390625 34.152344 40.953125 33.613281 40.460938 C 33.078125 39.96875 32.597656 39.433594 32.175781 38.855469 C 31.753906 38.277344 31.398438 37.667969 31.105469 37.023438 C 30.816406 36.382812 30.597656 35.71875 30.449219 35.039062 C 30.300781 34.355469 30.226562 33.667969 30.226562 32.972656 C 30.226562 32.277344 30.300781 31.585938 30.449219 30.90625 C 30.597656 30.222656 30.816406 29.5625 31.105469 28.917969 C 31.398438 28.277344 31.753906 27.664062 32.175781 27.085938 C 32.597656 26.507812 33.078125 25.972656 33.613281 25.484375 C 34.152344 24.992188 34.734375 24.550781 35.367188 24.164062 C 36 23.777344 36.667969 23.453125 37.367188 23.1875 C 38.070312 22.921875 38.792969 22.71875 39.539062 22.585938 C 40.285156 22.449219 41.035156 22.378906 41.796875 22.378906 C 42.554688 22.378906 43.308594 22.449219 44.054688 22.585938 C 44.800781 22.71875 45.523438 22.921875 46.222656 23.1875 C 46.925781 23.453125 47.59375 23.777344 48.226562 24.164062 C 48.855469 24.550781 49.441406 24.992188 49.976562 25.484375 C 50.515625 25.972656 50.996094 26.507812 51.417969 27.085938 C 51.839844 27.664062 52.195312 28.277344 52.488281 28.917969 C 52.777344 29.5625 52.996094 30.222656 53.144531 30.90625 C 53.292969 31.585938 53.367188 32.277344 53.367188 32.972656 Z M 53.367188 32.972656 " fill-opacity="1" fill-rule="nonzero"/><path fill="#ffffff" d="M 49.59375 13.75 L 42.484375 13.75 C 42.34375 13.75 42.234375 13.640625 42.234375 13.5 L 42.234375 7.300781 C 42.234375 7.160156 42.34375 7.054688 42.484375 7.054688 L 49.59375 7.054688 C 49.730469 7.054688 49.839844 7.160156 49.839844 7.300781 L 49.839844 13.5 C 49.839844 13.640625 49.730469 13.75 49.59375 13.75 Z M 49.59375 13.75 " fill-opacity="1" fill-rule="nonzero"/><path fill="#263156" d="M 49.59375 13.8125 L 42.484375 13.8125 C 42.3125 13.8125 42.183594 13.671875 42.183594 13.511719 L 42.183594 7.300781 C 42.183594 7.128906 42.320312 7 42.484375 7 L 49.59375 7 C 49.765625 7 49.894531 7.140625 49.894531 7.300781 L 49.894531 13.5 C 49.894531 13.671875 49.753906 13.8125 49.59375 13.8125 Z M 42.484375 7.109375 C 42.375 7.109375 42.289062 7.195312 42.289062 7.300781 L 42.289062 13.5 C 42.289062 13.609375 42.375 13.695312 42.484375 13.695312 L 49.59375 13.695312 C 49.699219 13.695312 49.785156 13.609375 49.785156 13.5 L 49.785156 7.300781 C 49.785156 7.195312 49.699219 7.109375 49.59375 7.109375 Z M 42.484375 7.109375 " fill-opacity="1" fill-rule="nonzero"/><path fill="#263156" d="M 42.902344 7.355469 L 44.027344 7.355469 L 44.027344 7.558594 L 42.902344 7.558594 Z M 42.902344 7.355469 " fill-opacity="1" fill-rule="nonzero"/><path fill="#263156" d="M 49.839844 7.699219 L 44.464844 7.699219 L 44.464844 7.054688 L 49.59375 7.054688 C 49.730469 7.054688 49.839844 7.160156 49.839844 7.300781 Z M 49.839844 7.699219 " fill-opacity="1" fill-rule="nonzero"/><path fill="#d4def9" d="M 42.792969 8.582031 L 49.398438 8.582031 L 49.398438 10.746094 L 42.792969 10.746094 Z M 42.792969 8.582031 " fill-opacity="1" fill-rule="nonzero"/><path fill="#263156" d="M 49.441406 10.789062 L 42.75 10.789062 L 42.75 8.539062 L 49.441406 8.539062 Z M 42.835938 10.703125 L 49.355469 10.703125 L 49.355469 8.625 L 42.835938 8.625 Z M 42.835938 10.703125 " fill-opacity="1" fill-rule="nonzero"/><path fill="#263156" d="M 49.398438 10.324219 L 49.398438 10.746094 L 42.792969 10.746094 L 42.792969 10.433594 C 42.835938 10.433594 42.867188 10.445312 42.867188 10.445312 C 42.867188 10.445312 42.953125 10.660156 43.050781 10.660156 C 43.148438 10.660156 43.082031 9.152344 43.285156 9.164062 C 43.640625 9.164062 43.855469 10.132812 44.421875 10.109375 C 44.992188 10.089844 45.003906 9.820312 45.140625 9.777344 C 45.28125 9.734375 45.367188 9.550781 45.496094 9.550781 C 45.625 9.539062 45.550781 10.046875 45.808594 10.015625 C 46.066406 9.980469 46.085938 9.839844 46.203125 9.808594 C 46.320312 9.777344 46.375 9.710938 46.515625 9.734375 C 46.65625 9.753906 46.515625 10.058594 46.816406 10.058594 C 47.117188 10.066406 47.136719 10.25 47.285156 10.066406 C 47.4375 9.886719 47.585938 9.980469 47.664062 9.894531 C 47.738281 9.820312 47.824219 9.832031 47.824219 9.972656 C 47.832031 10.101562 47.855469 10.304688 48.113281 10.347656 C 48.371094 10.390625 48.261719 10.617188 48.605469 10.605469 C 48.949219 10.585938 48.929688 10.230469 49.183594 10.25 C 49.28125 10.25 49.347656 10.28125 49.398438 10.324219 Z M 49.398438 10.324219 " fill-opacity="1" fill-rule="nonzero"/><path fill="#d4def9" d="M 42.792969 12.480469 L 49.398438 12.480469 L 49.398438 12.746094 L 42.792969 12.746094 Z M 42.792969 12.480469 " fill-opacity="1" fill-rule="nonzero"/><path fill="#ffffff" d="M 49.152344 11.078125 C 49.140625 11.078125 49.140625 11.078125 49.152344 11.078125 C 49.140625 11.070312 49.140625 11.070312 49.140625 11.070312 L 49.269531 10.851562 C 49.269531 10.851562 49.28125 10.851562 49.28125 10.851562 C 49.28125 10.851562 49.292969 10.851562 49.292969 10.851562 L 49.421875 11.070312 C 49.421875 11.070312 49.421875 11.078125 49.421875 11.078125 C 49.421875 11.078125 49.410156 11.078125 49.410156 11.078125 Z M 49.152344 11.078125 " fill-opacity="1" fill-rule="nonzero"/><path fill="#263156" d="M 49.28125 10.851562 L 49.410156 11.070312 L 49.152344 11.070312 L 49.28125 10.851562 M 49.28125 10.832031 C 49.269531 10.832031 49.269531 10.832031 49.261719 10.84375 L 49.132812 11.058594 C 49.132812 11.070312 49.132812 11.070312 49.132812 11.078125 C 49.132812 11.089844 49.140625 11.089844 49.152344 11.089844 L 49.410156 11.089844 C 49.421875 11.089844 49.421875 11.089844 49.433594 11.078125 C 49.433594 11.070312 49.433594 11.070312 49.433594 11.058594 L 49.304688 10.84375 C 49.292969 10.832031 49.28125 10.832031 49.28125 10.832031 Z M 49.28125 10.832031 " fill-opacity="1" fill-rule="nonzero"/><path fill="#ffffff" d="M 49.152344 13.007812 C 49.140625 13.007812 49.140625 12.996094 49.152344 13.007812 C 49.140625 12.996094 49.140625 12.996094 49.140625 12.996094 L 49.269531 12.78125 C 49.269531 12.78125 49.28125 12.78125 49.28125 12.78125 C 49.28125 12.78125 49.292969 12.78125 49.292969 12.78125 L 49.421875 12.996094 C 49.421875 12.996094 49.421875 13.007812 49.421875 13.007812 C 49.421875 13.007812 49.410156 13.007812 49.410156 13.007812 Z M 49.152344 13.007812 " fill-opacity="1" fill-rule="nonzero"/><path fill="#263156" d="M 49.28125 12.769531 L 49.410156 12.984375 L 49.152344 12.984375 L 49.28125 12.769531 M 49.28125 12.746094 C 49.269531 12.746094 49.269531 12.746094 49.261719 12.757812 L 49.132812 12.972656 C 49.132812 12.984375 49.132812 12.984375 49.132812 12.996094 C 49.132812 13.007812 49.140625 13.007812 49.152344 13.007812 L 49.410156 13.007812 C 49.421875 13.007812 49.421875 13.007812 49.433594 12.996094 C 49.433594 12.984375 49.433594 12.984375 49.433594 12.972656 L 49.304688 12.757812 C 49.292969 12.757812 49.28125 12.746094 49.28125 12.746094 Z M 49.28125 12.746094 " fill-opacity="1" fill-rule="nonzero"/><path fill="#263156" d="M 46.890625 10.789062 L 47.019531 11.015625 L 46.761719 11.015625 Z M 46.890625 10.789062 " fill-opacity="1" fill-rule="nonzero"/><path fill="#263156" d="M 42.792969 11.078125 C 42.792969 11.078125 42.78125 11.078125 42.792969 11.078125 C 42.78125 11.070312 42.78125 11.070312 42.78125 11.070312 L 42.910156 10.851562 C 42.910156 10.851562 42.921875 10.851562 42.921875 10.851562 C 42.921875 10.851562 42.933594 10.851562 42.933594 10.851562 L 43.0625 11.070312 C 43.0625 11.070312 43.0625 11.078125 43.0625 11.078125 C 43.0625 11.078125 43.050781 11.078125 43.050781 11.078125 Z M 42.792969 11.078125 " fill-opacity="1" fill-rule="nonzero"/><path fill="#263156" d="M 42.921875 10.851562 L 43.050781 11.070312 L 42.792969 11.070312 L 42.921875 10.851562 M 42.921875 10.832031 C 42.910156 10.832031 42.910156 10.832031 42.902344 10.84375 L 42.773438 11.058594 C 42.773438 11.070312 42.773438 11.070312 42.773438 11.078125 C 42.773438 11.089844 42.78125 11.089844 42.792969 11.089844 L 43.050781 11.089844 C 43.0625 11.089844 43.0625 11.089844 43.074219 11.078125 C 43.074219 11.070312 43.074219 11.070312 43.074219 11.058594 L 42.945312 10.84375 C 42.933594 10.832031 42.933594 10.832031 42.921875 10.832031 Z M 42.921875 10.832031 " fill-opacity="1" fill-rule="nonzero"/><path fill="#ffffff" d="M 42.792969 13.007812 C 42.792969 13.007812 42.78125 12.996094 42.792969 13.007812 C 42.78125 12.996094 42.78125 12.996094 42.78125 12.996094 L 42.910156 12.78125 C 42.910156 12.78125 42.921875 12.78125 42.921875 12.78125 C 42.921875 12.78125 42.933594 12.78125 42.933594 12.78125 L 43.0625 12.996094 C 43.0625 12.996094 43.0625 13.007812 43.0625 13.007812 C 43.0625 13.007812 43.050781 13.007812 43.050781 13.007812 Z M 42.792969 13.007812 " fill-opacity="1" fill-rule="nonzero"/><path fill="#263156" d="M 42.921875 12.769531 L 43.050781 12.984375 L 42.792969 12.984375 L 42.921875 12.769531 M 42.921875 12.746094 C 42.910156 12.746094 42.910156 12.746094 42.902344 12.757812 L 42.773438 12.972656 C 42.773438 12.984375 42.773438 12.984375 42.773438 12.996094 C 42.773438 13.007812 42.78125 13.007812 42.792969 13.007812 L 43.050781 13.007812 C 43.0625 13.007812 43.0625 13.007812 43.074219 12.996094 C 43.074219 12.984375 43.074219 12.984375 43.074219 12.972656 L 42.945312 12.757812 C 42.933594 12.757812 42.933594 12.746094 42.921875 12.746094 Z M 42.921875 12.746094 " fill-opacity="1" fill-rule="nonzero"/><path fill="#d4def9" d="M 43.535156 12.132812 L 42.847656 12.132812 C 42.816406 12.132812 42.78125 12.101562 42.78125 12.070312 L 42.78125 11.757812 C 42.78125 11.726562 42.816406 11.691406 42.847656 11.691406 L 43.535156 11.691406 C 43.566406 11.691406 43.597656 11.726562 43.597656 11.757812 L 43.597656 12.070312 C 43.597656 12.101562 43.578125 12.132812 43.535156 12.132812 Z M 43.535156 12.132812 " fill-opacity="1" fill-rule="nonzero"/><path fill="#263156" d="M 43.535156 12.175781 L 42.847656 12.175781 C 42.792969 12.175781 42.738281 12.132812 42.738281 12.070312 L 42.738281 11.757812 C 42.738281 11.703125 42.78125 11.648438 42.847656 11.648438 L 43.535156 11.648438 C 43.585938 11.648438 43.640625 11.691406 43.640625 11.757812 L 43.640625 12.070312 C 43.640625 12.132812 43.597656 12.175781 43.535156 12.175781 Z M 42.847656 11.746094 C 42.835938 11.746094 42.824219 11.757812 42.824219 11.769531 L 42.824219 12.082031 C 42.824219 12.089844 42.835938 12.101562 42.847656 12.101562 L 43.535156 12.101562 C 43.542969 12.101562 43.554688 12.089844 43.554688 12.082031 L 43.554688 11.769531 C 43.554688 11.757812 43.542969 11.746094 43.535156 11.746094 Z M 42.847656 11.746094 " fill-opacity="1" fill-rule="nonzero"/><path fill="#d4def9" d="M 46.441406 12.132812 L 45.753906 12.132812 C 45.722656 12.132812 45.6875 12.101562 45.6875 12.070312 L 45.6875 11.757812 C 45.6875 11.726562 45.722656 11.691406 45.753906 11.691406 L 46.441406 11.691406 C 46.472656 11.691406 46.503906 11.726562 46.503906 11.757812 L 46.503906 12.070312 C 46.492188 12.101562 46.472656 12.132812 46.441406 12.132812 Z M 46.441406 12.132812 " fill-opacity="1" fill-rule="nonzero"/><path fill="#263156" d="M 46.441406 12.175781 L 45.753906 12.175781 C 45.699219 12.175781 45.644531 12.132812 45.644531 12.070312 L 45.644531 11.757812 C 45.644531 11.703125 45.6875 11.648438 45.753906 11.648438 L 46.441406 11.648438 C 46.492188 11.648438 46.546875 11.691406 46.546875 11.757812 L 46.546875 12.070312 C 46.535156 12.132812 46.492188 12.175781 46.441406 12.175781 Z M 45.753906 11.746094 C 45.742188 11.746094 45.730469 11.757812 45.730469 11.769531 L 45.730469 12.082031 C 45.730469 12.089844 45.742188 12.101562 45.753906 12.101562 L 46.441406 12.101562 C 46.449219 12.101562 46.460938 12.089844 46.460938 12.082031 L 46.460938 11.769531 C 46.460938 11.757812 46.449219 11.746094 46.441406 11.746094 Z M 45.753906 11.746094 " fill-opacity="1" fill-rule="nonzero"/><path fill="#d4def9" d="M 49.335938 12.132812 L 48.648438 12.132812 C 48.617188 12.132812 48.585938 12.101562 48.585938 12.070312 L 48.585938 11.757812 C 48.585938 11.726562 48.617188 11.691406 48.648438 11.691406 L 49.335938 11.691406 C 49.367188 11.691406 49.398438 11.726562 49.398438 11.757812 L 49.398438 12.070312 C 49.398438 12.101562 49.367188 12.132812 49.335938 12.132812 Z M 49.335938 12.132812 " fill-opacity="1" fill-rule="nonzero"/><path fill="#263156" d="M 49.335938 12.175781 L 48.648438 12.175781 C 48.59375 12.175781 48.542969 12.132812 48.542969 12.070312 L 48.542969 11.757812 C 48.542969 11.703125 48.585938 11.648438 48.648438 11.648438 L 49.335938 11.648438 C 49.390625 11.648438 49.441406 11.691406 49.441406 11.757812 L 49.441406 12.070312 C 49.441406 12.132812 49.390625 12.175781 49.335938 12.175781 Z M 48.648438 11.746094 C 48.636719 11.746094 48.628906 11.757812 48.628906 11.769531 L 48.628906 12.082031 C 48.628906 12.089844 48.636719 12.101562 48.648438 12.101562 L 49.335938 12.101562 C 49.347656 12.101562 49.355469 12.089844 49.355469 12.082031 L 49.355469 11.769531 C 49.355469 11.757812 49.347656 11.746094 49.335938 11.746094 Z M 48.648438 11.746094 " fill-opacity="1" fill-rule="nonzero"/><path fill="#ffffff" d="M 64.328125 38.417969 L 33.078125 38.417969 C 32.59375 38.417969 32.199219 38.019531 32.199219 37.535156 L 32.199219 17.277344 L 65.195312 17.277344 L 65.195312 37.535156 C 65.195312 38.019531 64.808594 38.417969 64.328125 38.417969 Z M 64.328125 38.417969 " fill-opacity="1" fill-rule="nonzero"/><path fill="#263156" d="M 64.328125 38.523438 L 33.078125 38.523438 C 32.53125 38.523438 32.089844 38.082031 32.089844 37.535156 L 32.089844 17.171875 L 65.304688 17.171875 L 65.304688 37.535156 C 65.304688 38.074219 64.863281 38.523438 64.328125 38.523438 Z M 32.304688 17.386719 L 32.304688 37.535156 C 32.304688 37.964844 32.648438 38.308594 33.078125 38.308594 L 64.328125 38.308594 C 64.757812 38.308594 65.097656 37.964844 65.097656 37.535156 L 65.097656 17.386719 Z M 32.304688 17.386719 " fill-opacity="1" fill-rule="nonzero"/><path fill="#263156" d="M 64.328125 14.621094 L 33.078125 14.621094 C 32.59375 14.621094 32.199219 15.019531 32.199219 15.503906 L 32.199219 17.277344 L 65.195312 17.277344 L 65.195312 15.492188 C 65.195312 15.007812 64.808594 14.621094 64.328125 14.621094 Z M 64.328125 14.621094 " fill-opacity="1" fill-rule="nonzero"/><path fill="#ffffff" d="M 36.175781 27.214844 L 30.171875 27.214844 C 29.980469 27.214844 29.816406 27.050781 29.816406 26.859375 L 29.816406 10.789062 C 29.816406 10.59375 29.980469 10.433594 30.171875 10.433594 L 36.175781 10.433594 C 36.371094 10.433594 36.53125 10.59375 36.53125 10.789062 L 36.53125 26.859375 C 36.53125 27.050781 36.371094 27.214844 36.175781 27.214844 Z M 36.175781 27.214844 " fill-opacity="1" fill-rule="nonzero"/><path fill="#263156" d="M 36.175781 27.265625 L 30.171875 27.265625 C 29.945312 27.265625 29.765625 27.082031 29.765625 26.859375 L 29.765625 10.789062 C 29.765625 10.5625 29.945312 10.378906 30.171875 10.378906 L 36.175781 10.378906 C 36.402344 10.378906 36.585938 10.5625 36.585938 10.789062 L 36.585938 26.859375 C 36.585938 27.082031 36.402344 27.265625 36.175781 27.265625 Z M 30.171875 10.488281 C 30 10.488281 29.871094 10.628906 29.871094 10.789062 L 29.871094 26.859375 C 29.871094 27.03125 30.011719 27.160156 30.171875 27.160156 L 36.175781 27.160156 C 36.347656 27.160156 36.476562 27.019531 36.476562 26.859375 L 36.476562 10.789062 C 36.476562 10.617188 36.339844 10.488281 36.175781 10.488281 Z M 30.171875 10.488281 " fill-opacity="1" fill-rule="nonzero"/><path fill="#263156" d="M 31.210938 13.898438 L 31.4375 12.199219 L 32.628906 13.425781 L 31.832031 13.4375 Z M 31.535156 12.480469 L 31.382812 13.609375 L 31.792969 13.296875 L 32.316406 13.296875 Z M 31.535156 12.480469 " fill-opacity="1" fill-rule="nonzero"/><path fill="#263156" d="M 33.152344 11.628906 L 33.183594 11.628906 L 33.183594 26.019531 L 33.152344 26.019531 Z M 33.152344 11.628906 " fill-opacity="1" fill-rule="nonzero"/><path fill="#263156" d="M 30.558594 14.535156 L 35.78125 14.535156 L 35.78125 14.566406 L 30.558594 14.566406 Z M 30.558594 14.535156 " fill-opacity="1" fill-rule="nonzero"/><path fill="#263156" d="M 30.558594 18.355469 L 35.78125 18.355469 L 35.78125 18.386719 L 30.558594 18.386719 Z M 30.558594 18.355469 " fill-opacity="1" fill-rule="nonzero"/><path fill="#263156" d="M 30.558594 22.175781 L 35.78125 22.175781 L 35.78125 22.207031 L 30.558594 22.207031 Z M 30.558594 22.175781 " fill-opacity="1" fill-rule="nonzero"/><path fill="#263156" d="M 30.558594 25.996094 L 35.78125 25.996094 L 35.78125 26.027344 L 30.558594 26.027344 Z M 30.558594 25.996094 " fill-opacity="1" fill-rule="nonzero"/><path fill="#263156" d="M 30.558594 11.617188 L 35.78125 11.617188 L 35.78125 11.648438 L 30.558594 11.648438 Z M 30.558594 11.617188 " fill-opacity="1" fill-rule="nonzero"/><path fill="#263156" d="M 34.277344 21.175781 C 34.246094 21.175781 34.203125 21.164062 34.183594 21.132812 L 33.902344 20.851562 C 33.882812 20.832031 33.859375 20.789062 33.859375 20.753906 C 33.859375 20.722656 33.871094 20.679688 33.902344 20.660156 L 34.277344 20.28125 L 34.75 20.753906 L 34.375 21.132812 C 34.34375 21.164062 34.3125 21.175781 34.277344 21.175781 Z M 34.226562 21.089844 C 34.257812 21.121094 34.300781 21.121094 34.320312 21.089844 L 34.65625 20.753906 L 34.269531 20.367188 L 33.9375 20.703125 C 33.925781 20.710938 33.914062 20.734375 33.914062 20.753906 C 33.914062 20.777344 33.925781 20.789062 33.9375 20.808594 Z M 34.226562 21.089844 " fill-opacity="1" fill-rule="nonzero"/><path fill="#263156" d="M 34.644531 20.863281 L 34.160156 20.378906 C 34.117188 20.335938 34.117188 20.261719 34.160156 20.21875 L 34.738281 19.636719 C 34.78125 19.59375 34.859375 19.59375 34.902344 19.636719 L 35.382812 20.121094 C 35.425781 20.164062 35.425781 20.238281 35.382812 20.28125 L 34.804688 20.863281 C 34.761719 20.90625 34.6875 20.90625 34.644531 20.863281 Z M 34.644531 20.863281 " fill-opacity="1" fill-rule="nonzero"/><path fill="#263156" d="M 34.578125 23.898438 L 34.234375 23.898438 L 34.234375 23.769531 L 35.074219 23.769531 L 35.074219 23.898438 L 34.730469 23.898438 L 34.730469 24.910156 L 34.578125 24.910156 Z M 34.578125 23.898438 " fill-opacity="1" fill-rule="nonzero"/><path fill="#263156" d="M 35.480469 17.097656 L 35.265625 17.097656 L 35.265625 16.988281 L 35.371094 16.988281 L 35.371094 16.871094 L 35.480469 16.871094 Z M 35.480469 17.097656 " fill-opacity="1" fill-rule="nonzero"/><path fill="#263156" d="M 35.074219 17.097656 L 34.804688 17.097656 L 34.804688 16.988281 L 35.0625 16.988281 L 35.0625 17.097656 Z M 34.613281 17.097656 L 34.355469 17.097656 L 34.355469 16.988281 L 34.613281 16.988281 Z M 34.613281 17.097656 " fill-opacity="1" fill-rule="nonzero"/><path fill="#263156" d="M 34.160156 17.097656 L 33.9375 17.097656 L 33.9375 16.871094 L 34.054688 16.871094 L 34.054688 16.988281 L 34.160156 16.988281 Z M 34.160156 17.097656 " fill-opacity="1" fill-rule="nonzero"/><path fill="#263156" d="M 33.9375 16.460938 L 34.042969 16.460938 L 34.042969 16.699219 L 33.9375 16.699219 Z M 33.9375 16.460938 " fill-opacity="1" fill-rule="nonzero"/><path fill="#263156" d="M 34.054688 16.277344 L 33.9375 16.277344 L 33.9375 16.050781 L 34.160156 16.050781 L 34.160156 16.171875 L 34.054688 16.171875 Z M 34.054688 16.277344 " fill-opacity="1" fill-rule="nonzero"/><path fill="#263156" d="M 35.074219 16.171875 L 34.804688 16.171875 L 34.804688 16.0625 L 35.0625 16.0625 L 35.0625 16.171875 Z M 34.613281 16.171875 L 34.355469 16.171875 L 34.355469 16.0625 L 34.613281 16.0625 Z M 34.613281 16.171875 " fill-opacity="1" fill-rule="nonzero"/><path fill="#263156" d="M 35.480469 16.277344 L 35.371094 16.277344 L 35.371094 16.171875 L 35.265625 16.171875 L 35.265625 16.050781 L 35.480469 16.050781 Z M 35.480469 16.277344 " fill-opacity="1" fill-rule="nonzero"/><path fill="#263156" d="M 35.371094 16.460938 L 35.480469 16.460938 L 35.480469 16.699219 L 35.371094 16.699219 Z M 35.371094 16.460938 " fill-opacity="1" fill-rule="nonzero"/><path fill="#263156" d="M 32.21875 21.28125 C 32.1875 21.28125 32.15625 21.25 32.15625 21.21875 L 32.15625 19.957031 L 30.902344 19.957031 C 30.867188 19.957031 30.835938 19.925781 30.835938 19.894531 C 30.835938 19.863281 30.867188 19.828125 30.902344 19.828125 L 32.21875 19.828125 C 32.253906 19.828125 32.285156 19.863281 32.285156 19.894531 L 32.285156 21.21875 C 32.285156 21.261719 32.253906 21.28125 32.21875 21.28125 Z M 32.21875 21.28125 " fill-opacity="1" fill-rule="nonzero"/><path fill="#263156" d="M 32.585938 20.917969 L 31.265625 20.917969 C 31.234375 20.917969 31.203125 20.882812 31.203125 20.851562 L 31.203125 19.527344 C 31.203125 19.496094 31.234375 19.464844 31.265625 19.464844 C 31.296875 19.464844 31.328125 19.496094 31.328125 19.527344 L 31.328125 20.789062 L 32.585938 20.789062 C 32.617188 20.789062 32.648438 20.820312 32.648438 20.851562 C 32.648438 20.894531 32.617188 20.917969 32.585938 20.917969 Z M 32.585938 20.917969 " fill-opacity="1" fill-rule="nonzero"/><path fill="#263156" d="M 31.363281 17.539062 C 31.339844 17.539062 31.320312 17.527344 31.308594 17.515625 C 31.285156 17.484375 31.296875 17.449219 31.320312 17.429688 C 31.425781 17.355469 31.492188 17.214844 31.492188 17.0625 C 31.414062 17.0625 31.351562 17.074219 31.277344 17.074219 C 31.210938 17.085938 31.160156 17.042969 31.136719 17 C 31.117188 16.96875 31.117188 16.921875 31.136719 16.890625 C 31.105469 16.859375 31.082031 16.816406 31.074219 16.761719 C 31.039062 16.613281 31.117188 16.429688 31.203125 16.308594 C 31.371094 16.09375 31.621094 15.933594 31.886719 15.878906 C 32.070312 15.835938 32.230469 15.859375 32.347656 15.921875 C 32.476562 16 32.5625 16.136719 32.605469 16.332031 C 32.648438 16.503906 32.636719 16.644531 32.574219 16.75 C 32.488281 16.878906 32.328125 16.933594 32.1875 16.96875 C 31.996094 17.011719 31.800781 17.042969 31.609375 17.0625 C 31.609375 17.257812 31.523438 17.441406 31.382812 17.539062 C 31.382812 17.539062 31.371094 17.539062 31.363281 17.539062 Z M 31.328125 16.871094 C 31.339844 16.890625 31.339844 16.914062 31.328125 16.933594 C 31.328125 16.933594 31.328125 16.945312 31.320312 16.945312 C 31.371094 16.945312 31.414062 16.945312 31.46875 16.945312 C 31.457031 16.914062 31.4375 16.890625 31.414062 16.878906 C 31.394531 16.859375 31.363281 16.859375 31.328125 16.871094 Z M 31.371094 16.730469 C 31.40625 16.730469 31.4375 16.742188 31.46875 16.75 C 31.523438 16.785156 31.578125 16.847656 31.597656 16.914062 C 31.792969 16.890625 31.972656 16.871094 32.167969 16.816406 C 32.296875 16.785156 32.414062 16.742188 32.476562 16.65625 C 32.519531 16.578125 32.53125 16.472656 32.5 16.332031 C 32.464844 16.222656 32.414062 16.074219 32.296875 16.007812 C 32.175781 15.945312 32.027344 15.957031 31.917969 15.976562 C 31.683594 16.03125 31.457031 16.171875 31.308594 16.363281 C 31.242188 16.449219 31.179688 16.589844 31.203125 16.707031 C 31.203125 16.730469 31.210938 16.75 31.222656 16.773438 C 31.234375 16.773438 31.234375 16.761719 31.242188 16.761719 C 31.285156 16.742188 31.328125 16.730469 31.371094 16.730469 Z M 31.371094 16.730469 " fill-opacity="1" fill-rule="nonzero"/><path fill="#263156" d="M 31.640625 24.792969 C 31.5 24.792969 31.363281 24.738281 31.253906 24.628906 C 31.039062 24.414062 31.039062 24.070312 31.253906 23.855469 C 31.457031 23.652344 31.8125 23.652344 32.027344 23.855469 C 32.242188 24.070312 32.242188 24.414062 32.027344 24.628906 C 31.917969 24.738281 31.78125 24.792969 31.640625 24.792969 Z M 31.640625 23.824219 C 31.535156 23.824219 31.425781 23.867188 31.339844 23.941406 C 31.179688 24.101562 31.179688 24.371094 31.339844 24.53125 C 31.5 24.695312 31.769531 24.695312 31.929688 24.53125 C 32.089844 24.371094 32.089844 24.101562 31.929688 23.941406 C 31.867188 23.867188 31.757812 23.824219 31.640625 23.824219 Z M 31.640625 23.824219 " fill-opacity="1" fill-rule="nonzero"/><path fill="#263156" d="M 32.285156 24.941406 C 32.273438 24.941406 32.253906 24.929688 32.242188 24.921875 L 31.941406 24.621094 C 31.917969 24.597656 31.917969 24.554688 31.941406 24.53125 C 31.960938 24.511719 32.003906 24.511719 32.027344 24.53125 L 32.328125 24.835938 C 32.347656 24.855469 32.347656 24.898438 32.328125 24.921875 C 32.316406 24.941406 32.296875 24.941406 32.285156 24.941406 Z M 32.285156 24.941406 " fill-opacity="1" fill-rule="nonzero"/><path fill="#263156" d="M 34.160156 12.511719 L 34.03125 13.457031 L 34.375 13.199219 L 34.816406 13.1875 Z M 34.160156 12.511719 " fill-opacity="1" fill-rule="nonzero"/><path fill="#263156" d="M 35.0625 13.113281 L 35.203125 13.113281 L 35.203125 13.867188 L 35.0625 13.867188 Z M 35.0625 13.113281 " fill-opacity="1" fill-rule="nonzero"/><path fill="#263156" d="M 34.75 13.425781 L 35.5 13.425781 L 35.5 13.566406 L 34.75 13.566406 Z M 34.75 13.425781 " fill-opacity="1" fill-rule="nonzero"/><path fill="#ffffff" d="M 67.917969 26.75 L 56.519531 26.75 C 56.230469 26.75 55.996094 26.511719 55.996094 26.222656 L 55.996094 12.132812 C 55.996094 11.84375 56.230469 11.605469 56.519531 11.605469 L 67.917969 11.605469 C 68.210938 11.605469 68.445312 11.84375 68.445312 12.132812 L 68.445312 26.222656 C 68.457031 26.511719 68.21875 26.75 67.917969 26.75 Z M 67.917969 26.75 " fill-opacity="1" fill-rule="nonzero"/><path fill="#263156" d="M 67.917969 26.804688 L 56.519531 26.804688 C 56.199219 26.804688 55.941406 26.546875 55.941406 26.222656 L 55.941406 12.132812 C 55.941406 11.8125 56.199219 11.554688 56.519531 11.554688 L 67.917969 11.554688 C 68.242188 11.554688 68.5 11.8125 68.5 12.132812 L 68.5 26.222656 C 68.507812 26.546875 68.242188 26.804688 67.917969 26.804688 Z M 56.519531 11.660156 C 56.261719 11.660156 56.046875 11.875 56.046875 12.132812 L 56.046875 26.222656 C 56.046875 26.480469 56.261719 26.695312 56.519531 26.695312 L 67.917969 26.695312 C 68.175781 26.695312 68.390625 26.480469 68.390625 26.222656 L 68.390625 12.132812 C 68.390625 11.875 68.175781 11.660156 67.917969 11.660156 Z M 56.519531 11.660156 " fill-opacity="1" fill-rule="nonzero"/><path fill="#6f52eb" d="M 65.730469 16.375 L 62.226562 16.375 L 65.121094 14.382812 C 65.507812 14.953125 65.730469 15.644531 65.730469 16.375 Z M 65.730469 16.375 " fill-opacity="1" fill-rule="nonzero"/><path fill="#263156" d="M 62.226562 16.375 L 65.730469 16.375 C 65.730469 18.324219 64.167969 19.894531 62.226562 19.894531 Z M 62.226562 16.375 " fill-opacity="1" fill-rule="nonzero"/><path fill="#f9856e" d="M 65.121094 14.394531 L 62.226562 16.386719 L 63.78125 13.230469 C 64.316406 13.492188 64.777344 13.898438 65.121094 14.394531 Z M 65.121094 14.394531 " fill-opacity="1" fill-rule="nonzero"/><path fill="#d4def9" d="M 63.78125 13.222656 L 62.226562 16.375 L 62.226562 12.855469 C 62.78125 12.855469 63.308594 12.996094 63.78125 13.222656 Z M 63.78125 13.222656 " fill-opacity="1" fill-rule="nonzero"/><path fill="#263156" d="M 62.226562 16.375 L 62.226562 19.894531 C 61.261719 19.894531 60.382812 19.496094 59.75 18.859375 Z M 62.226562 16.375 " fill-opacity="1" fill-rule="nonzero"/><path fill="#ffffff" d="M 62.226562 12.855469 L 62.226562 16.375 L 59.75 13.886719 C 60.382812 13.253906 61.261719 12.855469 62.226562 12.855469 Z M 62.226562 12.855469 " fill-opacity="1" fill-rule="nonzero"/><path fill="#263156" d="M 62.226562 16.375 L 59.75 18.859375 C 59.117188 18.226562 58.71875 17.34375 58.71875 16.375 C 58.71875 15.40625 59.117188 14.523438 59.75 13.886719 Z M 62.226562 16.375 " fill-opacity="1" fill-rule="nonzero"/><path fill="#d4def9" d="M 57.28125 21.316406 L 67.160156 21.316406 L 67.160156 21.648438 L 57.28125 21.648438 Z M 57.28125 21.316406 " fill-opacity="1" fill-rule="nonzero"/><path fill="#263156" d="M 57.28125 21.316406 L 63.984375 21.316406 L 63.984375 21.648438 L 57.28125 21.648438 Z M 57.28125 21.316406 " fill-opacity="1" fill-rule="nonzero"/><path fill="#d4def9" d="M 64.339844 21.488281 C 64.339844 21.585938 64.304688 21.667969 64.234375 21.738281 C 64.164062 21.808594 64.082031 21.84375 63.984375 21.84375 C 63.886719 21.84375 63.804688 21.808594 63.734375 21.738281 C 63.664062 21.667969 63.628906 21.585938 63.628906 21.488281 C 63.628906 21.390625 63.664062 21.304688 63.734375 21.234375 C 63.804688 21.167969 63.886719 21.132812 63.984375 21.132812 C 64.082031 21.132812 64.164062 21.167969 64.234375 21.234375 C 64.304688 21.304688 64.339844 21.390625 64.339844 21.488281 Z M 64.339844 21.488281 " fill-opacity="1" fill-rule="nonzero"/><path fill="#d4def9" d="M 57.28125 22.992188 L 67.160156 22.992188 L 67.160156 23.328125 L 57.28125 23.328125 Z M 57.28125 22.992188 " fill-opacity="1" fill-rule="nonzero"/><path fill="#263156" d="M 57.28125 22.992188 L 62.570312 22.992188 L 62.570312 23.328125 L 57.28125 23.328125 Z M 57.28125 22.992188 " fill-opacity="1" fill-rule="nonzero"/><path fill="#263156" d="M 62.816406 23.167969 C 62.816406 23.265625 62.78125 23.347656 62.710938 23.417969 C 62.640625 23.488281 62.558594 23.519531 62.460938 23.519531 C 62.363281 23.519531 62.28125 23.488281 62.210938 23.417969 C 62.140625 23.347656 62.109375 23.265625 62.109375 23.167969 C 62.109375 23.066406 62.140625 22.984375 62.210938 22.914062 C 62.28125 22.847656 62.363281 22.8125 62.460938 22.8125 C 62.558594 22.8125 62.640625 22.847656 62.710938 22.914062 C 62.78125 22.984375 62.816406 23.066406 62.816406 23.167969 Z M 62.816406 23.167969 " fill-opacity="1" fill-rule="nonzero"/><path fill="#d4def9" d="M 57.28125 24.664062 L 67.160156 24.664062 L 67.160156 24.996094 L 57.28125 24.996094 Z M 57.28125 24.664062 " fill-opacity="1" fill-rule="nonzero"/><path fill="#6f52eb" d="M 57.28125 24.664062 L 65.851562 24.664062 L 65.851562 24.996094 L 57.28125 24.996094 Z M 57.28125 24.664062 " fill-opacity="1" fill-rule="nonzero"/><path fill="#6f52eb" d="M 66.214844 24.835938 C 66.214844 24.933594 66.179688 25.015625 66.109375 25.085938 C 66.042969 25.15625 65.957031 25.191406 65.859375 25.191406 C 65.761719 25.191406 65.679688 25.15625 65.609375 25.085938 C 65.542969 25.015625 65.507812 24.933594 65.507812 24.835938 C 65.507812 24.738281 65.542969 24.652344 65.609375 24.582031 C 65.679688 24.515625 65.761719 24.480469 65.859375 24.480469 C 65.957031 24.480469 66.042969 24.515625 66.109375 24.582031 C 66.179688 24.652344 66.214844 24.738281 66.214844 24.835938 Z M 66.214844 24.835938 " fill-opacity="1" fill-rule="nonzero"/><path fill="#263156" d="M 54.65625 35.84375 L 54.226562 35.84375 L 54.226562 35.628906 L 54.546875 35.628906 L 54.546875 35.652344 L 54.65625 35.652344 Z M 53.6875 35.84375 L 53.367188 35.84375 L 53.367188 35.628906 L 53.6875 35.628906 Z M 52.832031 35.84375 L 52.507812 35.84375 L 52.507812 35.628906 L 52.832031 35.628906 Z M 51.972656 35.84375 L 51.652344 35.84375 L 51.652344 35.628906 L 51.972656 35.628906 Z M 51.117188 35.84375 L 50.792969 35.84375 L 50.792969 35.628906 L 51.117188 35.628906 Z M 50.257812 35.84375 L 49.9375 35.84375 L 49.9375 35.628906 L 50.257812 35.628906 Z M 49.398438 35.84375 L 49.078125 35.84375 L 49.078125 35.628906 L 49.398438 35.628906 Z M 48.542969 35.84375 L 48.21875 35.84375 L 48.21875 35.628906 L 48.542969 35.628906 Z M 47.683594 35.84375 L 47.363281 35.84375 L 47.363281 35.628906 L 47.683594 35.628906 Z M 46.824219 35.84375 L 46.503906 35.84375 L 46.503906 35.628906 L 46.824219 35.628906 Z M 45.96875 35.84375 L 45.644531 35.84375 L 45.644531 35.628906 L 45.96875 35.628906 Z M 45.109375 35.84375 L 44.789062 35.84375 L 44.789062 35.628906 L 45.109375 35.628906 Z M 44.253906 35.84375 L 43.929688 35.84375 L 43.929688 35.628906 L 44.253906 35.628906 Z M 43.394531 35.84375 L 43.074219 35.84375 L 43.074219 35.628906 L 43.394531 35.628906 Z M 42.535156 35.84375 L 42.214844 35.84375 L 42.214844 35.628906 L 42.535156 35.628906 Z M 41.679688 35.84375 L 41.355469 35.84375 L 41.355469 35.628906 L 41.679688 35.628906 Z M 41.195312 35.46875 L 40.980469 35.46875 L 40.980469 35.144531 L 41.195312 35.144531 Z M 54.65625 35.113281 L 54.441406 35.113281 L 54.441406 34.789062 L 54.65625 34.789062 Z M 41.195312 34.605469 L 40.980469 34.605469 L 40.980469 34.285156 L 41.195312 34.285156 Z M 54.65625 34.253906 L 54.441406 34.253906 L 54.441406 33.929688 L 54.65625 33.929688 Z M 41.195312 33.746094 L 40.980469 33.746094 L 40.980469 33.421875 L 41.195312 33.421875 Z M 54.65625 33.390625 L 54.441406 33.390625 L 54.441406 33.066406 L 54.65625 33.066406 Z M 41.195312 32.886719 L 40.980469 32.886719 L 40.980469 32.5625 L 41.195312 32.5625 Z M 54.65625 32.53125 L 54.441406 32.53125 L 54.441406 32.207031 L 54.65625 32.207031 Z M 41.195312 32.023438 L 40.980469 32.023438 L 40.980469 31.703125 L 41.195312 31.703125 Z M 54.65625 31.667969 L 54.441406 31.667969 L 54.441406 31.347656 L 54.65625 31.347656 Z M 41.195312 31.164062 L 40.980469 31.164062 L 40.980469 30.839844 L 41.195312 30.839844 Z M 54.65625 30.808594 L 54.441406 30.808594 L 54.441406 30.484375 L 54.65625 30.484375 Z M 41.195312 30.300781 L 40.980469 30.300781 L 40.980469 29.980469 L 41.195312 29.980469 Z M 54.65625 29.945312 L 54.441406 29.945312 L 54.441406 29.625 L 54.65625 29.625 Z M 41.195312 29.441406 L 40.980469 29.441406 L 40.980469 29.117188 L 41.195312 29.117188 Z M 54.65625 29.085938 L 54.441406 29.085938 L 54.441406 28.761719 L 54.65625 28.761719 Z M 41.195312 28.578125 L 40.980469 28.578125 L 40.980469 28.257812 L 41.195312 28.257812 Z M 54.65625 28.226562 L 54.441406 28.226562 L 54.441406 27.902344 L 54.65625 27.902344 Z M 41.195312 27.71875 L 40.980469 27.71875 L 40.980469 27.394531 L 41.195312 27.394531 Z M 54.65625 27.363281 L 54.441406 27.363281 L 54.441406 27.039062 L 54.65625 27.039062 Z M 41.195312 26.859375 L 40.980469 26.859375 L 40.980469 26.535156 L 41.195312 26.535156 Z M 54.65625 26.503906 L 54.441406 26.503906 L 54.441406 26.179688 L 54.65625 26.179688 Z M 41.195312 25.996094 L 40.980469 25.996094 L 40.980469 25.675781 L 41.195312 25.675781 Z M 54.65625 25.640625 L 54.441406 25.640625 L 54.441406 25.320312 L 54.65625 25.320312 Z M 41.195312 25.136719 L 40.980469 25.136719 L 40.980469 24.8125 L 41.195312 24.8125 Z M 54.65625 24.78125 L 54.441406 24.78125 L 54.441406 24.457031 L 54.65625 24.457031 Z M 41.195312 24.273438 L 40.980469 24.273438 L 40.980469 23.953125 L 41.195312 23.953125 Z M 54.65625 23.917969 L 54.441406 23.917969 L 54.441406 23.597656 L 54.65625 23.597656 Z M 41.195312 23.414062 L 40.980469 23.414062 L 40.980469 23.089844 L 41.195312 23.089844 Z M 54.65625 23.058594 L 54.441406 23.058594 L 54.441406 22.734375 L 54.65625 22.734375 Z M 41.195312 22.554688 L 40.980469 22.554688 L 40.980469 22.230469 L 41.195312 22.230469 Z M 54.65625 22.199219 L 54.441406 22.199219 L 54.441406 21.875 L 54.65625 21.875 Z M 41.195312 21.691406 L 40.980469 21.691406 L 40.980469 21.367188 L 41.195312 21.367188 Z M 54.65625 21.335938 L 54.441406 21.335938 L 54.441406 21.011719 L 54.65625 21.011719 Z M 41.195312 20.832031 L 40.980469 20.832031 L 40.980469 20.507812 L 41.195312 20.507812 Z M 54.65625 20.476562 L 54.441406 20.476562 L 54.441406 20.152344 L 54.65625 20.152344 Z M 41.195312 19.96875 L 40.980469 19.96875 L 40.980469 19.648438 L 41.195312 19.648438 Z M 54.65625 19.613281 L 54.441406 19.613281 L 54.441406 19.605469 L 54.34375 19.605469 L 54.34375 19.386719 L 54.65625 19.386719 Z M 53.808594 19.605469 L 53.484375 19.605469 L 53.484375 19.386719 L 53.808594 19.386719 Z M 52.949219 19.605469 L 52.628906 19.605469 L 52.628906 19.386719 L 52.949219 19.386719 Z M 52.089844 19.605469 L 51.769531 19.605469 L 51.769531 19.386719 L 52.089844 19.386719 Z M 51.234375 19.605469 L 50.910156 19.605469 L 50.910156 19.386719 L 51.234375 19.386719 Z M 50.375 19.605469 L 50.054688 19.605469 L 50.054688 19.386719 L 50.375 19.386719 Z M 49.519531 19.605469 L 49.195312 19.605469 L 49.195312 19.386719 L 49.519531 19.386719 Z M 48.660156 19.605469 L 48.339844 19.605469 L 48.339844 19.386719 L 48.660156 19.386719 Z M 47.800781 19.605469 L 47.480469 19.605469 L 47.480469 19.386719 L 47.800781 19.386719 Z M 46.945312 19.605469 L 46.621094 19.605469 L 46.621094 19.386719 L 46.945312 19.386719 Z M 46.085938 19.605469 L 45.765625 19.605469 L 45.765625 19.386719 L 46.085938 19.386719 Z M 45.226562 19.605469 L 44.90625 19.605469 L 44.90625 19.386719 L 45.226562 19.386719 Z M 44.371094 19.605469 L 44.046875 19.605469 L 44.046875 19.386719 L 44.371094 19.386719 Z M 43.511719 19.605469 L 43.191406 19.605469 L 43.191406 19.386719 L 43.511719 19.386719 Z M 42.65625 19.605469 L 42.332031 19.605469 L 42.332031 19.386719 L 42.65625 19.386719 Z M 41.796875 19.605469 L 41.476562 19.605469 L 41.476562 19.386719 L 41.796875 19.386719 Z M 41.796875 19.605469 " fill-opacity="1" fill-rule="nonzero"/><path fill="#6f52eb" d="M 53.453125 20.550781 L 53.453125 34.875 L 48.144531 34.875 C 48.125 34.929688 48.101562 34.996094 48.082031 35.046875 C 48.082031 34.996094 48.082031 34.929688 48.089844 34.875 L 42.191406 34.875 L 42.191406 20.550781 Z M 53.453125 20.550781 " fill-opacity="1" fill-rule="nonzero"/><path fill="#f9856e" d="M 44.894531 31.355469 C 44.863281 31.476562 44.820312 31.636719 44.757812 31.820312 C 44.679688 32.035156 44.585938 32.292969 44.476562 32.574219 C 44.457031 32.617188 44.445312 32.660156 44.421875 32.714844 C 44.230469 33.207031 43.984375 33.757812 43.714844 34.296875 L 42.386719 34.296875 L 42.386719 32.410156 C 42.878906 31.261719 43.382812 30.207031 43.628906 29.699219 C 43.671875 29.601562 43.738281 29.503906 43.824219 29.429688 C 43.832031 29.417969 43.832031 29.417969 43.84375 29.410156 C 43.855469 29.398438 43.875 29.375 43.886719 29.367188 C 44.027344 29.246094 44.210938 29.171875 44.402344 29.171875 C 45.195312 29.183594 45.164062 30.3125 44.894531 31.355469 Z M 44.894531 31.355469 " fill-opacity="1" fill-rule="nonzero"/><path fill="#263156" d="M 44.863281 32.207031 C 44.863281 32.207031 44.734375 32.53125 44.53125 33.023438 C 44.507812 33.066406 44.5 33.109375 44.476562 33.152344 C 44.328125 33.488281 44.144531 33.886719 43.941406 34.296875 L 42.386719 34.296875 L 42.386719 32.1875 C 42.707031 31.464844 43.039062 30.722656 43.222656 30.34375 C 43.640625 29.472656 43.824219 29.375 43.824219 29.375 L 43.886719 29.375 L 44.082031 29.367188 L 44.765625 31.820312 Z M 44.863281 32.207031 " fill-opacity="1" fill-rule="nonzero"/><path fill="#f9856e" d="M 49.054688 27.699219 L 49.183594 28.945312 L 47.050781 29.226562 L 47.117188 27.761719 Z M 49.054688 27.699219 " fill-opacity="1" fill-rule="nonzero"/><path fill="#f9856e" d="M 50.527344 24.800781 C 50.527344 24.800781 50.148438 28.042969 47.917969 28.042969 C 45.6875 28.042969 45.796875 24.402344 45.9375 23.433594 C 46.074219 22.476562 47.40625 22.113281 48.820312 22.316406 C 50.246094 22.542969 50.527344 24.800781 50.527344 24.800781 Z M 50.527344 24.800781 " fill-opacity="1" fill-rule="nonzero"/><path fill="#f9856e" d="M 46.054688 24.898438 C 46.054688 24.898438 45.570312 24.835938 45.582031 25.457031 C 45.59375 26.082031 46.300781 26.289062 46.300781 26.289062 Z M 46.054688 24.898438 " fill-opacity="1" fill-rule="nonzero"/><path fill="#f9856e" d="M 50.441406 25.070312 C 50.441406 25.070312 50.921875 25.007812 50.910156 25.632812 C 50.902344 26.253906 50.03125 26.449219 50.03125 26.449219 Z M 50.441406 25.070312 " fill-opacity="1" fill-rule="nonzero"/><path fill="#263156" d="M 50.515625 25.070312 C 50.515625 25.070312 50.664062 24.695312 50.675781 23.542969 C 50.6875 22.390625 50.148438 21.875 49.558594 21.875 C 49.558594 21.875 48.089844 20.617188 46.707031 21.378906 C 45.3125 22.144531 45.957031 25.46875 45.957031 25.46875 C 45.957031 25.46875 46.054688 23.003906 46.449219 22.992188 C 46.847656 22.984375 46.675781 23.574219 47.855469 23.339844 C 49.035156 23.101562 49.335938 22.949219 49.582031 23.125 C 49.828125 23.296875 49.507812 24.898438 49.925781 25.8125 C 49.9375 25.8125 50.148438 25.070312 50.515625 25.070312 Z M 50.515625 25.070312 " fill-opacity="1" fill-rule="nonzero"/><path fill="#263156" d="M 46.867188 25.328125 C 46.867188 25.421875 46.851562 25.5 46.816406 25.566406 C 46.78125 25.628906 46.738281 25.664062 46.6875 25.664062 C 46.636719 25.664062 46.59375 25.628906 46.558594 25.566406 C 46.523438 25.5 46.503906 25.421875 46.503906 25.328125 C 46.503906 25.238281 46.523438 25.160156 46.558594 25.09375 C 46.59375 25.027344 46.636719 24.996094 46.6875 24.996094 C 46.738281 24.996094 46.78125 25.027344 46.816406 25.09375 C 46.851562 25.160156 46.867188 25.238281 46.867188 25.328125 Z M 46.867188 25.328125 " fill-opacity="1" fill-rule="nonzero"/><path fill="#263156" d="M 49.035156 25.328125 C 49.035156 25.421875 49.015625 25.5 48.980469 25.566406 C 48.945312 25.628906 48.902344 25.664062 48.851562 25.664062 C 48.800781 25.664062 48.757812 25.628906 48.722656 25.566406 C 48.6875 25.5 48.671875 25.421875 48.671875 25.328125 C 48.671875 25.238281 48.6875 25.160156 48.722656 25.09375 C 48.757812 25.027344 48.800781 24.996094 48.851562 24.996094 C 48.902344 24.996094 48.945312 25.027344 48.980469 25.09375 C 49.015625 25.160156 49.035156 25.238281 49.035156 25.328125 Z M 49.035156 25.328125 " fill-opacity="1" fill-rule="nonzero"/><path fill="#263156" d="M 46.300781 24.5 C 46.289062 24.5 46.277344 24.488281 46.269531 24.480469 C 46.257812 24.457031 46.269531 24.4375 46.277344 24.425781 C 46.578125 24.242188 46.921875 24.316406 47.039062 24.339844 C 47.050781 24.339844 47.0625 24.339844 47.074219 24.339844 C 47.09375 24.339844 47.105469 24.359375 47.105469 24.382812 C 47.105469 24.402344 47.09375 24.414062 47.074219 24.414062 C 47.0625 24.414062 47.050781 24.414062 47.03125 24.402344 C 46.921875 24.382812 46.601562 24.316406 46.320312 24.480469 C 46.3125 24.5 46.3125 24.5 46.300781 24.5 Z M 46.300781 24.5 " fill-opacity="1" fill-rule="nonzero"/><path fill="#263156" d="M 48.464844 24.5 C 48.457031 24.5 48.445312 24.488281 48.433594 24.480469 C 48.421875 24.457031 48.433594 24.4375 48.445312 24.425781 C 48.746094 24.242188 49.089844 24.316406 49.207031 24.339844 C 49.21875 24.339844 49.226562 24.339844 49.238281 24.339844 C 49.261719 24.339844 49.269531 24.359375 49.269531 24.382812 C 49.269531 24.402344 49.261719 24.414062 49.238281 24.414062 C 49.226562 24.414062 49.21875 24.414062 49.195312 24.402344 C 49.089844 24.382812 48.765625 24.316406 48.488281 24.480469 C 48.488281 24.5 48.476562 24.5 48.464844 24.5 Z M 48.464844 24.5 " fill-opacity="1" fill-rule="nonzero"/><path fill="#263156" d="M 47.738281 26.394531 C 47.726562 26.394531 47.726562 26.394531 47.714844 26.394531 C 47.695312 26.382812 47.554688 26.308594 47.542969 26.191406 C 47.535156 26.09375 47.652344 25.75 47.664062 25.707031 C 47.671875 25.683594 47.683594 25.675781 47.707031 25.683594 C 47.726562 25.695312 47.738281 25.707031 47.726562 25.726562 C 47.683594 25.878906 47.609375 26.117188 47.621094 26.179688 C 47.621094 26.246094 47.714844 26.296875 47.75 26.320312 C 47.769531 26.332031 47.769531 26.351562 47.757812 26.375 C 47.769531 26.382812 47.757812 26.394531 47.738281 26.394531 Z M 47.738281 26.394531 " fill-opacity="1" fill-rule="nonzero"/><path fill="#263156" d="M 47.792969 27.191406 C 47.664062 27.191406 47.535156 27.160156 47.414062 27.050781 C 47.40625 27.039062 47.40625 27.019531 47.414062 27.007812 C 47.425781 26.996094 47.449219 26.996094 47.457031 27.007812 C 47.726562 27.257812 48.175781 27.039062 48.175781 27.039062 C 48.1875 27.03125 48.210938 27.039062 48.21875 27.050781 C 48.230469 27.0625 48.21875 27.082031 48.210938 27.09375 C 48.1875 27.105469 48.003906 27.191406 47.792969 27.191406 Z M 47.792969 27.191406 " fill-opacity="1" fill-rule="nonzero"/><path fill="#263156" d="M 49.765625 24.84375 C 49.765625 24.800781 49.742188 24.78125 49.710938 24.769531 C 49.667969 24.757812 49.59375 24.75 49.484375 24.714844 C 49.304688 24.652344 48.851562 24.578125 48.519531 24.664062 C 48.21875 24.738281 48.039062 24.792969 47.84375 24.792969 C 47.824219 24.792969 47.8125 24.792969 47.792969 24.792969 C 47.585938 24.800781 47.394531 24.75 47.0625 24.664062 C 46.730469 24.578125 46.277344 24.652344 46.097656 24.714844 C 46.066406 24.726562 46.03125 24.738281 46.011719 24.738281 C 45.945312 24.75 45.902344 24.757812 45.871094 24.769531 C 45.871094 24.769531 45.859375 24.769531 45.859375 24.769531 C 45.839844 24.78125 45.828125 24.800781 45.828125 24.84375 C 45.828125 24.878906 45.828125 24.898438 45.839844 24.921875 C 45.851562 24.941406 45.859375 24.972656 45.882812 25.015625 C 45.882812 25.027344 45.894531 25.027344 45.894531 25.039062 C 45.902344 25.070312 45.925781 25.105469 45.945312 25.15625 C 45.957031 25.167969 45.957031 25.191406 45.96875 25.199219 C 45.96875 25.199219 45.96875 25.210938 45.96875 25.210938 C 46.023438 25.363281 46.042969 25.621094 46.203125 25.804688 C 46.3125 25.933594 46.484375 26.027344 46.773438 26.027344 C 47.523438 26.027344 47.621094 25.394531 47.664062 25.242188 C 47.695312 25.125 47.769531 25.105469 47.792969 25.09375 C 47.824219 25.09375 47.886719 25.113281 47.929688 25.242188 C 47.972656 25.394531 48.070312 26.027344 48.820312 26.027344 C 49.570312 26.027344 49.539062 25.382812 49.644531 25.15625 C 49.6875 25.070312 49.722656 25.015625 49.730469 24.984375 C 49.765625 24.929688 49.765625 24.921875 49.765625 24.84375 Z M 47.46875 25.535156 C 47.371094 25.761719 47.210938 25.941406 46.78125 25.941406 C 46.386719 25.941406 46.234375 25.769531 46.160156 25.5 C 46.148438 25.480469 46.148438 25.457031 46.140625 25.4375 C 46.117188 25.320312 46.074219 25.199219 46.085938 25.082031 C 46.097656 24.886719 46.234375 24.726562 46.761719 24.726562 C 47.597656 24.726562 47.597656 25.070312 47.597656 25.070312 C 47.597656 25.242188 47.566406 25.308594 47.46875 25.535156 Z M 49.464844 25.4375 C 49.398438 25.75 49.261719 25.953125 48.820312 25.953125 C 48.390625 25.953125 48.242188 25.769531 48.132812 25.542969 C 48.027344 25.320312 47.996094 25.242188 47.996094 25.082031 C 47.996094 25.082031 47.996094 24.738281 48.832031 24.738281 C 49.667969 24.738281 49.527344 25.125 49.464844 25.4375 Z M 49.464844 25.4375 " fill-opacity="1" fill-rule="nonzero"/><path fill="#ffffff" d="M 51.535156 33.574219 C 51.523438 33.605469 51.535156 33.875 51.542969 34.296875 L 48.347656 34.296875 C 48.328125 34.347656 48.304688 34.414062 48.285156 34.46875 C 48.285156 34.414062 48.285156 34.347656 48.296875 34.296875 L 44.5 34.296875 L 44.550781 33.132812 L 44.550781 33.089844 C 44.550781 33.066406 44.550781 33.046875 44.542969 33.023438 C 44.53125 32.875 44.507812 32.722656 44.488281 32.574219 C 44.476562 32.453125 44.457031 32.335938 44.445312 32.230469 C 44.296875 30.992188 44.113281 29.9375 43.84375 29.417969 C 43.832031 29.410156 43.832031 29.398438 43.824219 29.375 C 43.824219 29.375 43.824219 29.375 43.832031 29.375 C 43.84375 29.375 43.84375 29.367188 43.855469 29.355469 C 43.867188 29.34375 43.875 29.34375 43.886719 29.332031 C 43.984375 29.269531 44.1875 29.140625 44.464844 29.011719 C 44.777344 28.859375 45.195312 28.6875 45.667969 28.570312 C 45.742188 28.546875 45.816406 28.527344 45.902344 28.515625 C 46.03125 28.484375 46.277344 28.460938 46.515625 28.441406 C 46.535156 28.441406 46.546875 28.441406 46.570312 28.441406 C 46.773438 28.429688 46.964844 28.417969 47.082031 28.40625 C 47.082031 28.40625 47.082031 28.417969 47.09375 28.441406 C 47.136719 28.546875 47.320312 28.890625 47.867188 28.890625 L 47.875 28.890625 C 47.898438 28.890625 47.929688 28.890625 47.953125 28.890625 C 48.757812 28.859375 49.054688 28.535156 49.132812 28.429688 C 49.140625 28.40625 49.152344 28.398438 49.152344 28.398438 C 49.152344 28.398438 49.378906 28.429688 49.65625 28.472656 C 49.667969 28.472656 49.679688 28.472656 49.6875 28.484375 C 49.882812 28.515625 50.085938 28.570312 50.269531 28.625 C 50.277344 28.632812 50.300781 28.632812 50.320312 28.632812 C 51.019531 28.859375 52.132812 29.367188 52.800781 29.925781 C 52.851562 29.96875 52.894531 30.011719 52.949219 30.054688 C 52.949219 30.054688 52.886719 30.195312 52.789062 30.421875 C 52.476562 31.109375 51.84375 32.617188 51.535156 33.574219 Z M 51.535156 33.574219 " fill-opacity="1" fill-rule="nonzero"/><path fill="#263156" d="M 46.675781 31.164062 C 46.675781 31.183594 46.675781 31.207031 46.675781 31.238281 C 46.675781 31.304688 46.675781 31.378906 46.664062 31.464844 C 46.664062 31.484375 46.664062 31.507812 46.664062 31.527344 C 46.664062 31.625 46.65625 31.734375 46.65625 31.851562 C 46.65625 31.90625 46.65625 31.960938 46.65625 32.011719 C 46.65625 32.023438 46.65625 32.023438 46.65625 32.035156 C 46.65625 32.078125 46.65625 32.132812 46.65625 32.1875 C 46.65625 32.25 46.65625 32.304688 46.644531 32.367188 C 46.644531 32.433594 46.644531 32.496094 46.632812 32.5625 C 46.632812 32.636719 46.632812 32.714844 46.621094 32.789062 C 46.621094 32.800781 46.621094 32.808594 46.621094 32.832031 C 46.621094 32.84375 46.621094 32.863281 46.621094 32.875 C 46.621094 32.972656 46.613281 33.078125 46.613281 33.175781 C 46.613281 33.21875 46.613281 33.273438 46.613281 33.328125 C 46.613281 33.457031 46.601562 33.585938 46.601562 33.714844 C 46.601562 33.898438 46.589844 34.089844 46.589844 34.285156 L 44.464844 34.285156 C 44.488281 33.800781 44.488281 33.390625 44.476562 33.144531 C 44.476562 33.089844 44.464844 33.035156 44.464844 32.992188 C 44.457031 32.90625 44.445312 32.808594 44.421875 32.691406 C 44.273438 31.722656 43.832031 29.808594 43.8125 29.417969 C 43.8125 29.386719 43.8125 29.367188 43.8125 29.355469 C 43.867188 29.203125 45.238281 28.40625 46.503906 28.398438 C 46.503906 28.398438 46.503906 28.40625 46.503906 28.417969 C 46.503906 28.441406 46.515625 28.484375 46.515625 28.546875 C 46.578125 28.976562 46.707031 30.171875 46.675781 31.164062 Z M 46.675781 31.164062 " fill-opacity="1" fill-rule="nonzero"/><path fill="#263156" d="M 52.929688 30.925781 C 52.605469 31.527344 52.039062 32.390625 51.84375 33.121094 C 51.78125 33.371094 51.75 33.789062 51.738281 34.285156 L 48.347656 34.285156 C 48.328125 34.339844 48.304688 34.402344 48.285156 34.457031 C 48.285156 34.402344 48.285156 34.339844 48.296875 34.285156 C 48.296875 34.199219 48.304688 34.121094 48.304688 34.046875 C 48.304688 33.972656 48.316406 33.898438 48.316406 33.832031 C 48.328125 33.660156 48.328125 33.5 48.339844 33.347656 C 48.339844 33.292969 48.347656 33.242188 48.347656 33.1875 C 48.347656 33.144531 48.347656 33.101562 48.359375 33.066406 C 48.359375 33.035156 48.359375 33.015625 48.359375 32.992188 C 48.359375 32.9375 48.371094 32.886719 48.371094 32.84375 C 48.371094 32.820312 48.371094 32.800781 48.371094 32.777344 C 48.53125 30.667969 49.476562 28.882812 49.667969 28.535156 C 49.679688 28.515625 49.6875 28.503906 49.6875 28.492188 C 49.6875 28.484375 49.699219 28.484375 49.699219 28.484375 C 49.699219 28.484375 51.824219 28.902344 52.886719 30 C 52.960938 30.074219 53.035156 30.164062 53.097656 30.25 C 53.109375 30.257812 53.109375 30.269531 53.121094 30.28125 C 53.132812 30.292969 53.140625 30.3125 53.140625 30.335938 C 53.164062 30.441406 53.066406 30.65625 52.929688 30.925781 Z M 52.929688 30.925781 " fill-opacity="1" fill-rule="nonzero"/><path fill="#263156" d="M 49.410156 32.273438 L 48.800781 32.1875 L 49.269531 32.617188 C 49.269531 32.617188 48.691406 33.445312 48.347656 34.296875 C 48.328125 34.347656 48.304688 34.414062 48.285156 34.46875 C 48.285156 34.414062 48.285156 34.347656 48.296875 34.296875 C 48.296875 34.210938 48.304688 34.132812 48.304688 34.058594 C 48.304688 33.984375 48.316406 33.90625 48.316406 33.84375 C 48.328125 33.671875 48.328125 33.507812 48.339844 33.359375 C 48.339844 33.304688 48.347656 33.25 48.347656 33.199219 C 48.347656 33.152344 48.347656 33.109375 48.359375 33.078125 C 48.359375 33.046875 48.359375 33.023438 48.359375 33.003906 C 48.359375 32.949219 48.371094 32.894531 48.371094 32.851562 C 48.371094 32.832031 48.371094 32.808594 48.371094 32.789062 C 48.53125 30.679688 49.476562 28.890625 49.667969 28.546875 Z M 49.410156 32.273438 " fill-opacity="1" fill-rule="nonzero"/><path fill="#263156" d="M 46.675781 31.164062 C 46.675781 31.183594 46.675781 31.207031 46.675781 31.238281 C 46.675781 31.304688 46.675781 31.378906 46.664062 31.464844 C 46.664062 31.484375 46.664062 31.507812 46.664062 31.527344 C 46.664062 31.625 46.65625 31.734375 46.65625 31.851562 C 46.65625 31.90625 46.65625 31.960938 46.65625 32.011719 C 46.65625 32.023438 46.65625 32.023438 46.65625 32.035156 C 46.65625 32.089844 46.65625 32.132812 46.65625 32.1875 C 46.65625 32.25 46.65625 32.304688 46.644531 32.367188 C 46.644531 32.433594 46.644531 32.496094 46.632812 32.5625 C 46.632812 32.636719 46.632812 32.714844 46.621094 32.789062 C 46.621094 32.800781 46.621094 32.808594 46.621094 32.832031 C 46.621094 32.84375 46.621094 32.863281 46.621094 32.875 C 46.621094 32.972656 46.613281 33.078125 46.613281 33.175781 C 46.613281 33.21875 46.613281 33.273438 46.613281 33.328125 C 46.613281 33.457031 46.601562 33.574219 46.601562 33.714844 C 46.601562 33.898438 46.589844 34.089844 46.589844 34.285156 L 46.492188 34.285156 L 45.785156 32.054688 L 46.234375 31.875 L 45.808594 31.691406 L 46.527344 28.546875 C 46.578125 28.976562 46.707031 30.171875 46.675781 31.164062 Z M 46.675781 31.164062 " fill-opacity="1" fill-rule="nonzero"/><path fill="#263156" d="M 49.121094 28.085938 L 47.867188 28.890625 L 48.328125 29.601562 L 49.667969 28.460938 Z M 49.121094 28.085938 " fill-opacity="1" fill-rule="nonzero"/><path fill="#263156" d="M 47.105469 28.050781 L 47.867188 28.882812 L 47.40625 29.601562 L 46.558594 28.441406 Z M 47.105469 28.050781 " fill-opacity="1" fill-rule="nonzero"/><path fill="#f9856e" d="M 52.746094 32.324219 C 52.628906 32.757812 52.347656 33.507812 51.984375 34.296875 L 49.839844 34.296875 C 50.363281 32.90625 51.136719 31.355469 51.492188 30.65625 C 51.640625 30.355469 51.929688 30.140625 52.261719 30.152344 C 52.507812 30.152344 52.671875 30.257812 52.777344 30.429688 C 52.863281 30.558594 52.90625 30.742188 52.917969 30.9375 C 52.960938 31.335938 52.875 31.839844 52.746094 32.324219 Z M 52.746094 32.324219 " fill-opacity="1" fill-rule="nonzero"/><path fill="#263156" d="M 52.261719 34.296875 L 49.6875 34.296875 C 49.828125 33.941406 49.96875 33.574219 50.085938 33.292969 C 50.429688 32.453125 51.320312 29.203125 52.746094 29.902344 C 52.757812 29.914062 52.777344 29.925781 52.789062 29.925781 C 52.820312 29.945312 52.851562 29.957031 52.875 29.980469 C 52.960938 30.042969 53.035156 30.128906 53.089844 30.226562 C 53.097656 30.257812 53.121094 30.28125 53.132812 30.3125 C 53.601562 31.367188 52.574219 33.648438 52.261719 34.296875 Z M 52.261719 34.296875 " fill-opacity="1" fill-rule="nonzero"/><g clip-path="url(#45014c6a12)"><path fill="#263156" d="M 25.625 48.113281 L 72.382812 48.113281 L 72.382812 48.371094 L 25.625 48.371094 Z M 25.625 48.113281 " fill-opacity="1" fill-rule="nonzero"/></g><path fill="#f9856e" d="M 57.785156 36.414062 C 55.664062 36.5 51.867188 47.449219 53.347656 47.652344 C 55.339844 49.039062 61.226562 36.964844 57.785156 36.414062 Z M 57.785156 36.414062 " fill-opacity="1" fill-rule="nonzero"/><path fill="#6f52eb" d="M 57.945312 35.984375 L 57.925781 38.675781 L 57.882812 43.980469 C 57.882812 43.980469 57.839844 44.046875 57.765625 44.175781 C 57.742188 44.207031 57.722656 44.238281 57.699219 44.273438 C 57.636719 44.378906 57.550781 44.519531 57.453125 44.679688 L 56.253906 43.875 L 53.96875 42.335938 C 54.546875 40.828125 55.160156 39.363281 55.585938 38.566406 C 56.734375 36.4375 57.945312 35.984375 57.945312 35.984375 Z M 57.945312 35.984375 " fill-opacity="1" fill-rule="nonzero"/><path fill="#f9856e" d="M 63.289062 36.339844 L 61.539062 37.652344 L 60.296875 36.542969 L 60.296875 34.867188 L 62.78125 32.90625 L 62.824219 33.207031 L 62.953125 34.101562 Z M 63.289062 36.339844 " fill-opacity="1" fill-rule="nonzero"/><path fill="#f9856e" d="M 62.953125 34.101562 C 61.464844 35.328125 60.457031 35.265625 60.296875 35.296875 C 60.285156 35.296875 60.285156 35.296875 60.285156 35.296875 L 60.296875 35.285156 L 62.613281 33.21875 C 62.613281 33.21875 62.707031 33.207031 62.824219 33.207031 Z M 62.953125 34.101562 " fill-opacity="1" fill-rule="nonzero"/><path fill="#f9856e" d="M 62.996094 33.261719 C 62.996094 33.261719 62.535156 34.296875 61.464844 34.824219 C 60.960938 35.070312 60.390625 35.402344 59.8125 35.285156 C 59.296875 35.1875 59.03125 34.671875 58.804688 34.253906 C 58.589844 33.84375 58.492188 33.371094 58.492188 32.90625 C 58.492188 32.402344 58.515625 31.917969 58.40625 31.421875 C 58.320312 31.035156 58.191406 30.539062 58.429688 30.183594 C 58.730469 29.710938 61.078125 29.128906 61.078125 29.128906 L 62.460938 29.894531 L 63.5 30.582031 Z M 62.996094 33.261719 " fill-opacity="1" fill-rule="nonzero"/><path fill="#263156" d="M 59.835938 30.25 C 59.835938 30.25 59.910156 30.636719 60.304688 30.796875 C 60.304688 30.796875 59.554688 30.882812 59.105469 30.550781 C 59.105469 30.550781 59.320312 30.882812 59.492188 30.9375 C 59.492188 30.9375 58.546875 30.980469 58.246094 30.636719 L 58.355469 31.226562 C 58.355469 31.226562 57.808594 30.679688 57.816406 30.011719 C 57.828125 29.539062 58.03125 29.105469 58.183594 28.667969 C 58.277344 28.375 58.417969 28.050781 58.699219 27.902344 C 59.449219 27.503906 60.359375 27.566406 61.164062 27.773438 C 61.796875 27.933594 62.460938 28.160156 62.964844 28.589844 C 64.328125 29.722656 63.800781 32.238281 62.890625 33.488281 C 62.890625 33.488281 62.773438 32.335938 62.761719 31.980469 C 62.738281 31.625 62.429688 31.539062 62.429688 31.703125 C 62.429688 31.863281 62.40625 32.703125 62.234375 32.691406 C 62.054688 32.679688 61.988281 31.226562 61.5625 30.925781 C 61.140625 30.613281 60.175781 30.527344 59.835938 30.25 Z M 59.835938 30.25 " fill-opacity="1" fill-rule="nonzero"/><path fill="#6f52eb" d="M 68.574219 48.285156 L 56.960938 48.285156 C 56.671875 44.648438 56.273438 38.988281 56.59375 37.816406 C 56.960938 36.46875 57.679688 35.910156 58.78125 35.671875 C 59.117188 35.597656 59.898438 35.523438 60.304688 35.488281 C 60.648438 37.339844 63.191406 35.523438 63.191406 35.523438 C 63.191406 35.523438 63.800781 35.585938 64.242188 35.609375 C 65.269531 35.671875 67.039062 36.007812 67.40625 37.546875 C 67.578125 38.289062 67.78125 40.226562 67.996094 42.410156 C 68.113281 43.648438 68.242188 44.960938 68.371094 46.199219 C 68.433594 46.941406 68.5 47.652344 68.574219 48.285156 Z M 68.574219 48.285156 " fill-opacity="1" fill-rule="nonzero"/><path fill="#f9856e" d="M 65.925781 36.855469 C 64.507812 38.449219 69.710938 48.792969 70.890625 47.878906 C 73.269531 47.40625 68.714844 34.757812 65.925781 36.855469 Z M 65.925781 36.855469 " fill-opacity="1" fill-rule="nonzero"/><path fill="#f9856e" d="M 70.570312 42.140625 C 70.570312 42.140625 72.285156 46.457031 71.542969 47.414062 C 70.804688 48.371094 63.738281 48.921875 63.738281 48.921875 L 63.4375 46.984375 C 63.4375 46.984375 68.347656 45.777344 68.359375 45.703125 C 68.371094 45.628906 67.167969 43.496094 67.167969 43.496094 Z M 70.570312 42.140625 " fill-opacity="1" fill-rule="nonzero"/><path fill="#f9856e" d="M 71.683594 46.929688 C 71.683594 47.273438 71.46875 47.578125 71.167969 47.75 C 68.863281 49.082031 58.65625 49.246094 58.945312 48.535156 C 58.933594 47.984375 71.714844 44.359375 71.683594 46.929688 Z M 71.683594 46.929688 " fill-opacity="1" fill-rule="nonzero"/><path fill="#6f52eb" d="M 67.09375 43.753906 C 66.363281 42.421875 65.453125 40.667969 65.21875 39.804688 C 65.21875 39.804688 63.621094 36.523438 64.808594 35.972656 C 64.972656 35.898438 65.304688 35.78125 65.464844 35.824219 C 66.675781 36.113281 67.941406 36.996094 68.800781 38.234375 C 69.367188 39.0625 70.128906 40.570312 70.75 42.152344 Z M 67.09375 43.753906 " fill-opacity="1" fill-rule="nonzero"/><path fill="#263156" d="M 59.917969 48.265625 L 51.738281 48.265625 L 51.738281 47.75 L 59.414062 47.75 C 59.695312 47.757812 59.917969 47.984375 59.917969 48.265625 Z M 59.917969 48.265625 " fill-opacity="1" fill-rule="nonzero"/><path fill="#263156" d="M 45.226562 48.265625 L 55.738281 48.265625 L 54.730469 41.785156 C 54.699219 41.601562 54.535156 41.464844 54.355469 41.464844 L 44.628906 41.464844 C 44.390625 41.464844 44.210938 41.679688 44.253906 41.90625 Z M 45.226562 48.265625 " fill-opacity="1" fill-rule="nonzero"/><g clip-path="url(#37a32eab86)"><path fill="#f9856e" d="M 56.199219 49.351562 C 56.21875 49.296875 57.035156 47.652344 57.945312 47.492188 C 58.867188 47.339844 60.125 47.800781 60.296875 47.800781 C 60.464844 47.800781 60.851562 47.769531 60.851562 47.769531 L 61.121094 48.855469 C 61.121094 48.855469 60.402344 48.847656 60.296875 48.964844 C 60.1875 49.082031 60.15625 49.253906 59.769531 49.253906 C 59.382812 49.253906 58.996094 48.898438 58.527344 48.898438 C 58.054688 48.898438 57.722656 49.449219 57.304688 49.449219 C 56.894531 49.449219 56.199219 49.351562 56.199219 49.351562 Z M 56.199219 49.351562 " fill-opacity="1" fill-rule="nonzero"/></g><path fill="#263156" d="M 58.902344 32.292969 C 58.902344 32.445312 58.988281 32.574219 59.082031 32.574219 C 59.179688 32.574219 59.265625 32.445312 59.253906 32.292969 C 59.253906 32.21875 59.234375 32.140625 59.203125 32.097656 C 59.167969 32.046875 59.125 32.011719 59.074219 32.023438 C 58.976562 32.011719 58.902344 32.132812 58.902344 32.292969 Z M 58.902344 32.292969 " fill-opacity="1" fill-rule="nonzero"/><path fill="#263156" d="M 60.636719 32.390625 C 60.636719 32.539062 60.734375 32.667969 60.84375 32.667969 C 60.949219 32.667969 61.035156 32.539062 61.035156 32.390625 C 61.035156 32.316406 61.011719 32.238281 60.972656 32.195312 C 60.9375 32.140625 60.886719 32.109375 60.832031 32.121094 C 60.722656 32.109375 60.636719 32.238281 60.636719 32.390625 Z M 60.636719 32.390625 " fill-opacity="1" fill-rule="nonzero"/><path fill="#263156" d="M 61.078125 31.679688 L 60.425781 31.605469 C 60.390625 31.605469 60.382812 31.570312 60.382812 31.550781 C 60.382812 31.519531 60.414062 31.507812 60.433594 31.507812 L 61.089844 31.582031 C 61.121094 31.582031 61.132812 31.613281 61.132812 31.636719 C 61.121094 31.65625 61.097656 31.679688 61.078125 31.679688 Z M 61.078125 31.679688 " fill-opacity="1" fill-rule="nonzero"/><path fill="#263156" d="M 59.277344 31.582031 L 58.761719 31.570312 C 58.730469 31.570312 58.707031 31.550781 58.707031 31.519531 C 58.707031 31.484375 58.730469 31.464844 58.761719 31.464844 L 59.277344 31.476562 C 59.308594 31.476562 59.328125 31.496094 59.328125 31.527344 C 59.328125 31.5625 59.308594 31.582031 59.277344 31.582031 Z M 59.277344 31.582031 " fill-opacity="1" fill-rule="nonzero"/><path fill="#263156" d="M 59.8125 33.378906 C 59.621094 33.371094 59.511719 33.328125 59.457031 33.230469 C 59.394531 33.089844 59.523438 32.917969 59.566406 32.863281 C 59.640625 32.765625 59.835938 32.410156 59.835938 32.410156 C 59.84375 32.390625 59.875 32.378906 59.898438 32.390625 C 59.917969 32.402344 59.929688 32.433594 59.917969 32.453125 C 59.910156 32.464844 59.714844 32.820312 59.640625 32.917969 C 59.535156 33.066406 59.523438 33.144531 59.542969 33.175781 C 59.566406 33.230469 59.664062 33.261719 59.800781 33.261719 C 59.835938 33.261719 59.855469 33.285156 59.84375 33.316406 C 59.867188 33.359375 59.84375 33.378906 59.8125 33.378906 Z M 59.8125 33.378906 " fill-opacity="1" fill-rule="nonzero"/><path fill="#263156" d="M 60.507812 33.855469 C 60.507812 33.855469 60.457031 33.90625 60.371094 33.972656 C 60.242188 34.070312 60.027344 34.1875 59.769531 34.199219 C 59.585938 34.210938 59.414062 34.027344 59.328125 33.917969 C 59.296875 33.875 59.277344 33.84375 59.277344 33.84375 C 59.277344 33.84375 59.394531 33.855469 59.554688 33.855469 C 59.738281 33.863281 59.960938 33.863281 60.175781 33.863281 C 60.304688 33.875 60.425781 33.875 60.507812 33.855469 Z M 60.507812 33.855469 " fill-opacity="1" fill-rule="nonzero"/><path fill="#ffffff" d="M 60.507812 33.855469 C 60.507812 33.855469 60.457031 33.90625 60.371094 33.972656 C 59.855469 34.070312 59.449219 33.960938 59.328125 33.917969 C 59.296875 33.875 59.277344 33.84375 59.277344 33.84375 C 59.277344 33.84375 59.394531 33.855469 59.554688 33.855469 C 59.738281 33.863281 59.960938 33.863281 60.175781 33.863281 C 60.304688 33.875 60.425781 33.875 60.507812 33.855469 Z M 60.507812 33.855469 " fill-opacity="1" fill-rule="nonzero"/><path fill="#d4def9" d="M 68.542969 33.714844 C 68.542969 33.875 68.484375 34.011719 68.371094 34.125 C 68.257812 34.238281 68.121094 34.296875 67.960938 34.296875 C 67.804688 34.296875 67.667969 34.238281 67.554688 34.125 C 67.441406 34.011719 67.382812 33.875 67.382812 33.714844 C 67.382812 33.554688 67.441406 33.417969 67.554688 33.304688 C 67.667969 33.191406 67.804688 33.132812 67.960938 33.132812 C 68.121094 33.132812 68.257812 33.191406 68.371094 33.304688 C 68.484375 33.417969 68.542969 33.554688 68.542969 33.714844 Z M 68.542969 33.714844 " fill-opacity="1" fill-rule="nonzero"/><path fill="#d4def9" d="M 57.859375 9.25 C 57.859375 9.410156 57.804688 9.546875 57.691406 9.660156 C 57.578125 9.773438 57.441406 9.832031 57.28125 9.832031 C 57.121094 9.832031 56.984375 9.773438 56.871094 9.660156 C 56.757812 9.546875 56.703125 9.410156 56.703125 9.25 C 56.703125 9.089844 56.757812 8.953125 56.871094 8.839844 C 56.984375 8.726562 57.121094 8.667969 57.28125 8.667969 C 57.441406 8.667969 57.578125 8.726562 57.691406 8.839844 C 57.804688 8.953125 57.859375 9.089844 57.859375 9.25 Z M 57.859375 9.25 " fill-opacity="1" fill-rule="nonzero"/><path fill="#d4def9" d="M 40.261719 10.886719 C 40.261719 11.046875 40.207031 11.183594 40.09375 11.296875 C 39.980469 11.410156 39.84375 11.46875 39.683594 11.46875 C 39.523438 11.46875 39.386719 11.410156 39.273438 11.296875 C 39.160156 11.183594 39.105469 11.046875 39.105469 10.886719 C 39.105469 10.726562 39.160156 10.589844 39.273438 10.476562 C 39.386719 10.359375 39.523438 10.304688 39.683594 10.304688 C 39.84375 10.304688 39.980469 10.359375 40.09375 10.476562 C 40.207031 10.589844 40.261719 10.726562 40.261719 10.886719 Z M 40.261719 10.886719 " fill-opacity="1" fill-rule="nonzero"/><path fill="#ffffff" d="M 39.339844 40.160156 L 28.132812 40.160156 C 27.917969 40.160156 27.75 39.988281 27.75 39.773438 L 27.75 30 C 27.75 29.785156 27.917969 29.613281 28.132812 29.613281 L 39.339844 29.613281 C 39.554688 29.613281 39.726562 29.785156 39.726562 30 L 39.726562 39.773438 C 39.726562 39.988281 39.554688 40.160156 39.339844 40.160156 Z M 39.339844 40.160156 " fill-opacity="1" fill-rule="nonzero"/><path fill="#263156" d="M 39.339844 40.269531 L 28.132812 40.269531 C 27.867188 40.269531 27.640625 40.042969 27.640625 39.773438 L 27.640625 30 C 27.640625 29.730469 27.867188 29.503906 28.132812 29.503906 L 39.339844 29.503906 C 39.609375 29.503906 39.832031 29.730469 39.832031 30 L 39.832031 39.773438 C 39.832031 40.054688 39.609375 40.269531 39.339844 40.269531 Z M 28.132812 29.722656 C 27.984375 29.722656 27.855469 29.851562 27.855469 30 L 27.855469 39.773438 C 27.855469 39.925781 27.984375 40.054688 28.132812 40.054688 L 39.339844 40.054688 C 39.492188 40.054688 39.621094 39.925781 39.621094 39.773438 L 39.621094 30 C 39.621094 29.851562 39.492188 29.722656 39.339844 29.722656 Z M 28.132812 29.722656 " fill-opacity="1" fill-rule="nonzero"/><path fill="#263156" d="M 28.800781 30.085938 L 30.570312 30.085938 L 30.570312 30.421875 L 28.800781 30.421875 Z M 28.800781 30.085938 " fill-opacity="1" fill-rule="nonzero"/><path fill="#6f52eb" d="M 38.71875 33.476562 L 28.757812 33.476562 C 28.679688 33.476562 28.617188 33.414062 28.617188 33.335938 L 28.617188 31.832031 C 28.617188 31.753906 28.679688 31.691406 28.757812 31.691406 L 38.707031 31.691406 C 38.78125 31.691406 38.847656 31.753906 38.847656 31.832031 L 38.847656 33.335938 C 38.859375 33.414062 38.792969 33.476562 38.71875 33.476562 Z M 38.71875 33.476562 " fill-opacity="1" fill-rule="nonzero"/><path fill="#d4def9" d="M 31.265625 32.011719 L 33.59375 32.011719 L 33.59375 33.144531 L 31.265625 33.144531 Z M 31.265625 32.011719 " fill-opacity="1" fill-rule="nonzero"/><path fill="#d4def9" d="M 34.085938 32.488281 L 38.097656 32.488281 L 38.097656 32.660156 L 34.085938 32.660156 Z M 34.085938 32.488281 " fill-opacity="1" fill-rule="nonzero"/><path fill="#263156" d="M 30.246094 32.582031 C 30.246094 32.65625 30.203125 32.714844 30.117188 32.765625 C 30.03125 32.816406 29.929688 32.84375 29.808594 32.84375 C 29.6875 32.84375 29.582031 32.816406 29.496094 32.765625 C 29.410156 32.714844 29.367188 32.65625 29.367188 32.582031 C 29.367188 32.511719 29.410156 32.453125 29.496094 32.402344 C 29.582031 32.351562 29.6875 32.324219 29.808594 32.324219 C 29.929688 32.324219 30.03125 32.351562 30.117188 32.402344 C 30.203125 32.453125 30.246094 32.511719 30.246094 32.582031 Z M 30.246094 32.582031 " fill-opacity="1" fill-rule="nonzero"/><path fill="#d4def9" d="M 29.988281 32.582031 C 29.988281 32.707031 29.929688 32.765625 29.808594 32.765625 C 29.6875 32.765625 29.625 32.707031 29.625 32.582031 C 29.625 32.460938 29.6875 32.402344 29.808594 32.402344 C 29.929688 32.402344 29.988281 32.460938 29.988281 32.582031 Z M 29.988281 32.582031 " fill-opacity="1" fill-rule="nonzero"/><path fill="#d4def9" d="M 38.71875 36.007812 L 28.757812 36.007812 C 28.679688 36.007812 28.617188 35.941406 28.617188 35.867188 L 28.617188 34.359375 C 28.617188 34.285156 28.679688 34.21875 28.757812 34.21875 L 38.707031 34.21875 C 38.78125 34.21875 38.847656 34.285156 38.847656 34.359375 L 38.847656 35.867188 C 38.859375 35.953125 38.792969 36.007812 38.71875 36.007812 Z M 38.71875 36.007812 " fill-opacity="1" fill-rule="nonzero"/><path fill="#263156" d="M 31.265625 34.554688 L 33.59375 34.554688 L 33.59375 35.683594 L 31.265625 35.683594 Z M 31.265625 34.554688 " fill-opacity="1" fill-rule="nonzero"/><path fill="#263156" d="M 34.085938 35.027344 L 38.097656 35.027344 L 38.097656 35.199219 L 34.085938 35.199219 Z M 34.085938 35.027344 " fill-opacity="1" fill-rule="nonzero"/><path fill="#6f52eb" d="M 29.378906 34.832031 L 30.246094 34.832031 L 30.246094 35.402344 L 29.378906 35.402344 Z M 29.378906 34.832031 " fill-opacity="1" fill-rule="nonzero"/><path fill="#6f52eb" d="M 38.71875 38.546875 L 28.757812 38.546875 C 28.679688 38.546875 28.617188 38.480469 28.617188 38.40625 L 28.617188 36.898438 C 28.617188 36.824219 28.679688 36.761719 28.757812 36.761719 L 38.707031 36.761719 C 38.78125 36.761719 38.847656 36.824219 38.847656 36.898438 L 38.847656 38.40625 C 38.859375 38.480469 38.792969 38.546875 38.71875 38.546875 Z M 38.71875 38.546875 " fill-opacity="1" fill-rule="nonzero"/><path fill="#d4def9" d="M 31.265625 37.082031 L 33.59375 37.082031 L 33.59375 38.210938 L 31.265625 38.210938 Z M 31.265625 37.082031 " fill-opacity="1" fill-rule="nonzero"/><path fill="#d4def9" d="M 34.085938 37.566406 L 38.097656 37.566406 L 38.097656 37.738281 L 34.085938 37.738281 Z M 34.085938 37.566406 " fill-opacity="1" fill-rule="nonzero"/><path fill="#263156" d="M 30.246094 37.652344 C 30.246094 37.722656 30.203125 37.785156 30.117188 37.835938 C 30.03125 37.886719 29.929688 37.910156 29.808594 37.910156 C 29.6875 37.910156 29.582031 37.886719 29.496094 37.835938 C 29.410156 37.785156 29.367188 37.722656 29.367188 37.652344 C 29.367188 37.582031 29.410156 37.519531 29.496094 37.46875 C 29.582031 37.421875 29.6875 37.394531 29.808594 37.394531 C 29.929688 37.394531 30.03125 37.421875 30.117188 37.46875 C 30.203125 37.519531 30.246094 37.582031 30.246094 37.652344 Z M 30.246094 37.652344 " fill-opacity="1" fill-rule="nonzero"/><path fill="#d4def9" d="M 29.988281 37.652344 C 29.988281 37.773438 29.929688 37.835938 29.808594 37.835938 C 29.6875 37.835938 29.625 37.773438 29.625 37.652344 C 29.625 37.53125 29.6875 37.46875 29.808594 37.46875 C 29.929688 37.46875 29.988281 37.53125 29.988281 37.652344 Z M 29.988281 37.652344 " fill-opacity="1" fill-rule="nonzero"/><path fill="#263156" d="M 65.980469 41.425781 L 66.074219 41.375 L 67.289062 43.628906 L 67.195312 43.679688 Z M 65.980469 41.425781 " fill-opacity="1" fill-rule="nonzero"/><path fill="#263156" d="M 56.660156 44.144531 C 56.636719 44.144531 56.617188 44.121094 56.605469 44.101562 L 56.382812 41.410156 C 56.382812 41.378906 56.402344 41.355469 56.421875 41.355469 C 56.457031 41.355469 56.476562 41.378906 56.476562 41.398438 L 56.703125 44.089844 C 56.714844 44.121094 56.691406 44.144531 56.660156 44.144531 C 56.671875 44.144531 56.660156 44.144531 56.660156 44.144531 Z M 56.660156 44.144531 " fill-opacity="1" fill-rule="nonzero"/><g fill="#ffffff" fill-opacity="1"><g transform="translate(10.458212, 61.792779)"><g><path d="M 0.6875 -6.359375 L 3.453125 -6.359375 C 4.140625 -6.359375 4.671875 -6.191406 5.046875 -5.859375 C 5.429688 -5.535156 5.625 -5.085938 5.625 -4.515625 C 5.625 -3.941406 5.429688 -3.488281 5.046875 -3.15625 C 4.660156 -2.820312 4.128906 -2.65625 3.453125 -2.65625 L 1.84375 -2.65625 L 1.84375 0 L 0.6875 0 Z M 3.3125 -3.546875 C 3.71875 -3.546875 4.019531 -3.628906 4.21875 -3.796875 C 4.425781 -3.960938 4.53125 -4.195312 4.53125 -4.5 C 4.53125 -4.820312 4.425781 -5.0625 4.21875 -5.21875 C 4.019531 -5.382812 3.71875 -5.46875 3.3125 -5.46875 L 1.84375 -5.46875 L 1.84375 -3.546875 Z M 3.3125 -3.546875 "/></g></g></g><g fill="#ffffff" fill-opacity="1"><g transform="translate(16.410037, 61.792779)"><g><path d="M 3.1875 -4.625 C 4.269531 -4.625 4.8125 -4.003906 4.8125 -2.765625 L 4.8125 0 L 3.6875 0 L 3.6875 -2.71875 C 3.6875 -3.070312 3.617188 -3.332031 3.484375 -3.5 C 3.347656 -3.664062 3.132812 -3.75 2.84375 -3.75 C 2.507812 -3.75 2.238281 -3.640625 2.03125 -3.421875 C 1.820312 -3.203125 1.71875 -2.914062 1.71875 -2.5625 L 1.71875 0 L 0.609375 0 L 0.609375 -6.578125 L 1.71875 -6.578125 L 1.71875 -3.859375 C 1.875 -4.109375 2.078125 -4.296875 2.328125 -4.421875 C 2.585938 -4.554688 2.875 -4.625 3.1875 -4.625 Z M 3.1875 -4.625 "/></g></g></g><g fill="#ffffff" fill-opacity="1"><g transform="translate(21.798859, 61.792779)"><g><path d="M 4.921875 -4.515625 L 4.921875 0 L 3.828125 0 L 3.828125 -0.71875 C 3.691406 -0.46875 3.492188 -0.269531 3.234375 -0.125 C 2.972656 0.0078125 2.679688 0.078125 2.359375 0.078125 C 1.960938 0.078125 1.613281 -0.015625 1.3125 -0.203125 C 1.007812 -0.398438 0.773438 -0.675781 0.609375 -1.03125 C 0.441406 -1.382812 0.359375 -1.789062 0.359375 -2.25 C 0.359375 -2.71875 0.441406 -3.128906 0.609375 -3.484375 C 0.773438 -3.847656 1.007812 -4.128906 1.3125 -4.328125 C 1.625 -4.523438 1.972656 -4.625 2.359375 -4.625 C 2.679688 -4.625 2.972656 -4.550781 3.234375 -4.40625 C 3.492188 -4.269531 3.691406 -4.078125 3.828125 -3.828125 L 3.828125 -4.515625 Z M 2.65625 -0.796875 C 3.03125 -0.796875 3.316406 -0.925781 3.515625 -1.1875 C 3.722656 -1.445312 3.828125 -1.804688 3.828125 -2.265625 C 3.828125 -2.742188 3.722656 -3.109375 3.515625 -3.359375 C 3.316406 -3.617188 3.03125 -3.75 2.65625 -3.75 C 2.28125 -3.75 1.988281 -3.613281 1.78125 -3.34375 C 1.582031 -3.082031 1.484375 -2.71875 1.484375 -2.25 C 1.484375 -1.789062 1.582031 -1.429688 1.78125 -1.171875 C 1.988281 -0.921875 2.28125 -0.796875 2.65625 -0.796875 Z M 3.953125 -6.046875 L 2.890625 -7.3125 L 3.875 -7.3125 L 4.53125 -6.046875 Z M 2.140625 -5.09375 L 1.265625 -5.09375 L 2.421875 -6.375 L 3.09375 -6.375 L 4.234375 -5.09375 L 3.359375 -5.09375 L 2.75 -5.828125 Z M 2.140625 -5.09375 "/></g></g></g><g fill="#ffffff" fill-opacity="1"><g transform="translate(27.330667, 61.792779)"><g><path d="M 3.1875 -4.625 C 4.269531 -4.625 4.8125 -4.003906 4.8125 -2.765625 L 4.8125 0 L 3.6875 0 L 3.6875 -2.71875 C 3.6875 -3.070312 3.617188 -3.332031 3.484375 -3.5 C 3.347656 -3.664062 3.132812 -3.75 2.84375 -3.75 C 2.507812 -3.75 2.238281 -3.640625 2.03125 -3.421875 C 1.820312 -3.203125 1.71875 -2.914062 1.71875 -2.5625 L 1.71875 0 L 0.609375 0 L 0.609375 -3.234375 C 0.609375 -3.710938 0.582031 -4.140625 0.53125 -4.515625 L 1.578125 -4.515625 L 1.65625 -3.765625 C 1.8125 -4.046875 2.019531 -4.257812 2.28125 -4.40625 C 2.550781 -4.550781 2.851562 -4.625 3.1875 -4.625 Z M 3.1875 -4.625 "/></g></g></g><g fill="#ffffff" fill-opacity="1"><g transform="translate(32.719488, 61.792779)"><g/></g></g><g fill="#ffffff" fill-opacity="1"><g transform="translate(35.16814, 61.792779)"><g><path d="M 5.9375 -4.625 C 6.445312 -4.625 6.828125 -4.46875 7.078125 -4.15625 C 7.328125 -3.851562 7.453125 -3.390625 7.453125 -2.765625 L 7.453125 0 L 6.34375 0 L 6.34375 -2.734375 C 6.34375 -3.085938 6.28125 -3.34375 6.15625 -3.5 C 6.039062 -3.664062 5.851562 -3.75 5.59375 -3.75 C 5.28125 -3.75 5.035156 -3.640625 4.859375 -3.421875 C 4.679688 -3.203125 4.59375 -2.898438 4.59375 -2.515625 L 4.59375 0 L 3.484375 0 L 3.484375 -2.734375 C 3.484375 -3.085938 3.421875 -3.34375 3.296875 -3.5 C 3.171875 -3.664062 2.976562 -3.75 2.71875 -3.75 C 2.40625 -3.75 2.160156 -3.640625 1.984375 -3.421875 C 1.804688 -3.203125 1.71875 -2.898438 1.71875 -2.515625 L 1.71875 0 L 0.609375 0 L 0.609375 -3.234375 C 0.609375 -3.710938 0.582031 -4.140625 0.53125 -4.515625 L 1.578125 -4.515625 L 1.65625 -3.796875 C 1.789062 -4.066406 1.976562 -4.269531 2.21875 -4.40625 C 2.46875 -4.550781 2.753906 -4.625 3.078125 -4.625 C 3.773438 -4.625 4.226562 -4.335938 4.4375 -3.765625 C 4.570312 -4.035156 4.769531 -4.242188 5.03125 -4.390625 C 5.300781 -4.546875 5.601562 -4.625 5.9375 -4.625 Z M 5.9375 -4.625 "/></g></g></g><g fill="#ffffff" fill-opacity="1"><g transform="translate(43.202213, 61.792779)"><g><path d="M 4.5625 -2.203125 L 1.453125 -2.203125 C 1.472656 -1.710938 1.59375 -1.351562 1.8125 -1.125 C 2.03125 -0.894531 2.351562 -0.78125 2.78125 -0.78125 C 3.269531 -0.78125 3.726562 -0.941406 4.15625 -1.265625 L 4.484375 -0.5 C 4.265625 -0.320312 4 -0.179688 3.6875 -0.078125 C 3.375 0.0234375 3.054688 0.078125 2.734375 0.078125 C 1.992188 0.078125 1.410156 -0.128906 0.984375 -0.546875 C 0.566406 -0.972656 0.359375 -1.546875 0.359375 -2.265625 C 0.359375 -2.722656 0.445312 -3.128906 0.625 -3.484375 C 0.8125 -3.847656 1.070312 -4.128906 1.40625 -4.328125 C 1.738281 -4.523438 2.117188 -4.625 2.546875 -4.625 C 3.171875 -4.625 3.660156 -4.421875 4.015625 -4.015625 C 4.378906 -3.617188 4.5625 -3.070312 4.5625 -2.375 Z M 2.578125 -3.828125 C 2.273438 -3.828125 2.03125 -3.738281 1.84375 -3.5625 C 1.65625 -3.382812 1.535156 -3.128906 1.484375 -2.796875 L 3.578125 -2.796875 C 3.546875 -3.140625 3.441406 -3.394531 3.265625 -3.5625 C 3.097656 -3.738281 2.867188 -3.828125 2.578125 -3.828125 Z M 3.75 -6.046875 L 2.6875 -7.3125 L 3.671875 -7.3125 L 4.328125 -6.046875 Z M 1.9375 -5.09375 L 1.0625 -5.09375 L 2.21875 -6.375 L 2.890625 -6.375 L 4.03125 -5.09375 L 3.15625 -5.09375 L 2.546875 -5.828125 Z M 1.9375 -5.09375 "/></g></g></g><g fill="#ffffff" fill-opacity="1"><g transform="translate(48.099517, 61.792779)"><g><path d="M 5.9375 -4.625 C 6.445312 -4.625 6.828125 -4.46875 7.078125 -4.15625 C 7.328125 -3.851562 7.453125 -3.390625 7.453125 -2.765625 L 7.453125 0 L 6.34375 0 L 6.34375 -2.734375 C 6.34375 -3.085938 6.28125 -3.34375 6.15625 -3.5 C 6.039062 -3.664062 5.851562 -3.75 5.59375 -3.75 C 5.28125 -3.75 5.035156 -3.640625 4.859375 -3.421875 C 4.679688 -3.203125 4.59375 -2.898438 4.59375 -2.515625 L 4.59375 0 L 3.484375 0 L 3.484375 -2.734375 C 3.484375 -3.085938 3.421875 -3.34375 3.296875 -3.5 C 3.171875 -3.664062 2.976562 -3.75 2.71875 -3.75 C 2.40625 -3.75 2.160156 -3.640625 1.984375 -3.421875 C 1.804688 -3.203125 1.71875 -2.898438 1.71875 -2.515625 L 1.71875 0 L 0.609375 0 L 0.609375 -3.234375 C 0.609375 -3.710938 0.582031 -4.140625 0.53125 -4.515625 L 1.578125 -4.515625 L 1.65625 -3.796875 C 1.789062 -4.066406 1.976562 -4.269531 2.21875 -4.40625 C 2.46875 -4.550781 2.753906 -4.625 3.078125 -4.625 C 3.773438 -4.625 4.226562 -4.335938 4.4375 -3.765625 C 4.570312 -4.035156 4.769531 -4.242188 5.03125 -4.390625 C 5.300781 -4.546875 5.601562 -4.625 5.9375 -4.625 Z M 5.9375 -4.625 "/></g></g></g><g fill="#ffffff" fill-opacity="1"><g transform="translate(56.133591, 61.792779)"><g/></g></g><g fill="#ffffff" fill-opacity="1"><g transform="translate(58.582243, 61.792779)"><g><path d="M 5.78125 0.078125 C 5.257812 -0.0976562 4.816406 -0.351562 4.453125 -0.6875 C 3.898438 -0.175781 3.257812 0.078125 2.53125 0.078125 C 2.101562 0.078125 1.722656 0.00390625 1.390625 -0.140625 C 1.066406 -0.285156 0.8125 -0.488281 0.625 -0.75 C 0.445312 -1.019531 0.359375 -1.320312 0.359375 -1.65625 C 0.359375 -2.050781 0.460938 -2.394531 0.671875 -2.6875 C 0.890625 -2.988281 1.234375 -3.269531 1.703125 -3.53125 C 1.460938 -3.789062 1.289062 -4.03125 1.1875 -4.25 C 1.082031 -4.46875 1.03125 -4.695312 1.03125 -4.9375 C 1.03125 -5.382812 1.191406 -5.742188 1.515625 -6.015625 C 1.835938 -6.285156 2.253906 -6.421875 2.765625 -6.421875 C 3.242188 -6.421875 3.625 -6.296875 3.90625 -6.046875 C 4.195312 -5.796875 4.34375 -5.460938 4.34375 -5.046875 C 4.34375 -4.722656 4.25 -4.429688 4.0625 -4.171875 C 3.875 -3.910156 3.566406 -3.65625 3.140625 -3.40625 L 4.390625 -2.09375 C 4.640625 -2.601562 4.78125 -3.179688 4.8125 -3.828125 L 5.75 -3.828125 C 5.707031 -2.898438 5.476562 -2.097656 5.0625 -1.421875 C 5.414062 -1.085938 5.835938 -0.84375 6.328125 -0.6875 Z M 2.78125 -5.65625 C 2.5625 -5.65625 2.382812 -5.585938 2.25 -5.453125 C 2.113281 -5.328125 2.046875 -5.15625 2.046875 -4.9375 C 2.046875 -4.800781 2.082031 -4.664062 2.15625 -4.53125 C 2.226562 -4.394531 2.367188 -4.21875 2.578125 -4 C 2.890625 -4.175781 3.109375 -4.34375 3.234375 -4.5 C 3.367188 -4.65625 3.4375 -4.820312 3.4375 -5 C 3.4375 -5.195312 3.375 -5.351562 3.25 -5.46875 C 3.132812 -5.59375 2.976562 -5.65625 2.78125 -5.65625 Z M 1.453125 -1.71875 C 1.453125 -1.4375 1.550781 -1.210938 1.75 -1.046875 C 1.957031 -0.878906 2.234375 -0.796875 2.578125 -0.796875 C 3.035156 -0.796875 3.453125 -0.96875 3.828125 -1.3125 L 2.265625 -2.9375 C 1.984375 -2.75 1.773438 -2.5625 1.640625 -2.375 C 1.515625 -2.1875 1.453125 -1.96875 1.453125 -1.71875 Z M 1.453125 -1.71875 "/></g></g></g><g fill="#ffffff" fill-opacity="1"><g transform="translate(64.73068, 61.792779)"><g/></g></g><g fill="#ffffff" fill-opacity="1"><g transform="translate(67.179332, 61.792779)"><g><path d="M 5 -4.515625 C 4.945312 -4.160156 4.921875 -3.734375 4.921875 -3.234375 L 4.921875 1.9375 L 3.8125 1.9375 L 3.8125 -0.6875 C 3.675781 -0.445312 3.476562 -0.257812 3.21875 -0.125 C 2.96875 0.0078125 2.679688 0.078125 2.359375 0.078125 C 1.960938 0.078125 1.613281 -0.015625 1.3125 -0.203125 C 1.007812 -0.398438 0.773438 -0.675781 0.609375 -1.03125 C 0.441406 -1.382812 0.359375 -1.789062 0.359375 -2.25 C 0.359375 -2.71875 0.441406 -3.128906 0.609375 -3.484375 C 0.773438 -3.847656 1.007812 -4.128906 1.3125 -4.328125 C 1.625 -4.523438 1.972656 -4.625 2.359375 -4.625 C 2.703125 -4.625 3.007812 -4.546875 3.28125 -4.390625 C 3.550781 -4.242188 3.75 -4.03125 3.875 -3.75 L 3.953125 -4.515625 Z M 2.65625 -0.796875 C 3.03125 -0.796875 3.316406 -0.925781 3.515625 -1.1875 C 3.722656 -1.445312 3.828125 -1.804688 3.828125 -2.265625 C 3.828125 -2.742188 3.722656 -3.109375 3.515625 -3.359375 C 3.316406 -3.617188 3.03125 -3.75 2.65625 -3.75 C 2.28125 -3.75 1.988281 -3.613281 1.78125 -3.34375 C 1.582031 -3.082031 1.484375 -2.71875 1.484375 -2.25 C 1.484375 -1.789062 1.582031 -1.429688 1.78125 -1.171875 C 1.988281 -0.921875 2.28125 -0.796875 2.65625 -0.796875 Z M 2.65625 -0.796875 "/></g></g></g><g fill="#ffffff" fill-opacity="1"><g transform="translate(72.71114, 61.792779)"><g><path d="M 0.609375 0 L 0.609375 -6.578125 L 1.71875 -6.578125 L 1.71875 0 Z M 0.609375 0 "/></g></g></g><g fill="#ffffff" fill-opacity="1"><g transform="translate(75.043612, 61.792779)"><g><path d="M 4.921875 -6.578125 L 4.921875 0 L 3.828125 0 L 3.828125 -0.71875 C 3.691406 -0.46875 3.492188 -0.269531 3.234375 -0.125 C 2.972656 0.0078125 2.679688 0.078125 2.359375 0.078125 C 1.972656 0.078125 1.625 -0.0195312 1.3125 -0.21875 C 1.007812 -0.414062 0.773438 -0.691406 0.609375 -1.046875 C 0.441406 -1.410156 0.359375 -1.828125 0.359375 -2.296875 C 0.359375 -2.765625 0.441406 -3.171875 0.609375 -3.515625 C 0.773438 -3.867188 1.007812 -4.140625 1.3125 -4.328125 C 1.613281 -4.523438 1.960938 -4.625 2.359375 -4.625 C 2.679688 -4.625 2.96875 -4.554688 3.21875 -4.421875 C 3.476562 -4.296875 3.675781 -4.109375 3.8125 -3.859375 L 3.8125 -6.578125 Z M 2.65625 -0.796875 C 3.019531 -0.796875 3.304688 -0.925781 3.515625 -1.1875 C 3.722656 -1.445312 3.828125 -1.8125 3.828125 -2.28125 C 3.828125 -2.75 3.722656 -3.109375 3.515625 -3.359375 C 3.316406 -3.617188 3.03125 -3.75 2.65625 -3.75 C 2.28125 -3.75 1.988281 -3.625 1.78125 -3.375 C 1.582031 -3.125 1.484375 -2.765625 1.484375 -2.296875 C 1.484375 -1.828125 1.582031 -1.457031 1.78125 -1.1875 C 1.988281 -0.925781 2.28125 -0.796875 2.65625 -0.796875 Z M 2.65625 -0.796875 "/></g></g></g><g fill="#ffffff" fill-opacity="1"><g transform="translate(80.57542, 61.792779)"><g><path d="M 3.1875 -4.625 C 4.269531 -4.625 4.8125 -4.003906 4.8125 -2.765625 L 4.8125 0 L 3.6875 0 L 3.6875 -2.71875 C 3.6875 -3.070312 3.617188 -3.332031 3.484375 -3.5 C 3.347656 -3.664062 3.132812 -3.75 2.84375 -3.75 C 2.507812 -3.75 2.238281 -3.640625 2.03125 -3.421875 C 1.820312 -3.203125 1.71875 -2.914062 1.71875 -2.5625 L 1.71875 0 L 0.609375 0 L 0.609375 -6.578125 L 1.71875 -6.578125 L 1.71875 -3.859375 C 1.875 -4.109375 2.078125 -4.296875 2.328125 -4.421875 C 2.585938 -4.554688 2.875 -4.625 3.1875 -4.625 Z M 3.1875 -4.625 "/></g></g></g><g fill="#ffffff" fill-opacity="1"><g transform="translate(85.965661, 61.792779)"><g/></g></g></svg>