<svg xmlns="http://www.w3.org/2000/svg" xmlns:xlink="http://www.w3.org/1999/xlink" width="132" zoomAndPan="magnify" viewBox="0 0 98.88 70.499998" height="94" preserveAspectRatio="xMidYMid meet" version="1.0"><defs><clipPath id="f7092a9953"><path d="M 14.816406 7 L 84.074219 7 L 84.074219 62.855469 L 14.816406 62.855469 Z M 14.816406 7 " clip-rule="nonzero"/></clipPath><clipPath id="9209370411"><path d="M 80.84375 33.167969 L 78.90625 23.191406 C 78.777344 23.210938 78.632812 23.230469 78.503906 23.230469 C 78.15625 23.230469 77.828125 23.15625 77.535156 23.011719 L 72.46875 26.4375 C 72.542969 26.675781 72.597656 26.914062 72.597656 27.167969 C 72.597656 27.476562 72.523438 27.789062 72.414062 28.0625 L 80.386719 33.3125 C 80.550781 33.257812 80.699219 33.203125 80.84375 33.167969 Z M 44.417969 41.773438 C 45.167969 41.773438 45.84375 42.15625 46.246094 42.742188 L 56.488281 35.8125 C 55.753906 34.882812 55.296875 33.714844 55.296875 32.4375 C 55.296875 31.945312 55.371094 31.472656 55.480469 31.035156 L 45.058594 26.492188 C 44.894531 26.730469 44.671875 26.929688 44.4375 27.078125 Z M 46.613281 43.925781 L 57.328125 36.6875 C 58.261719 37.433594 59.449219 37.890625 60.746094 37.890625 C 61.09375 37.890625 61.441406 37.855469 61.789062 37.800781 L 63.78125 42.648438 L 53.324219 47.082031 C 52.8125 46.386719 51.96875 45.933594 51.039062 45.933594 C 50.25 45.933594 49.554688 46.242188 49.027344 46.753906 L 46.28125 45.148438 C 46.484375 44.820312 46.59375 44.4375 46.59375 44.015625 Z M 45.386719 45.949219 C 45.09375 46.097656 44.765625 46.167969 44.417969 46.167969 C 44.105469 46.167969 43.8125 46.113281 43.558594 45.988281 L 40.871094 47.792969 L 48.292969 47.957031 C 48.3125 47.863281 48.347656 47.792969 48.386719 47.699219 Z M 42.589844 45.203125 L 40.210938 46.808594 C 39.902344 46.550781 39.515625 46.40625 39.097656 46.40625 C 38.546875 46.40625 38.054688 46.644531 37.722656 47.042969 L 25.214844 40.609375 C 25.453125 40.296875 25.601562 39.914062 25.601562 39.496094 C 25.601562 39.347656 25.582031 39.203125 25.546875 39.074219 L 28.378906 37.050781 C 28.636719 37.199219 28.945312 37.289062 29.277344 37.289062 C 29.605469 37.289062 29.917969 37.199219 30.191406 37.050781 L 42.1875 44.109375 C 42.242188 44.492188 42.371094 44.875 42.589844 45.203125 Z M 42.515625 42.867188 C 42.699219 42.558594 42.9375 42.304688 43.230469 42.121094 L 43.246094 27.441406 C 43.210938 27.441406 43.175781 27.441406 43.136719 27.441406 C 42.789062 27.441406 42.460938 27.367188 42.148438 27.222656 L 31.085938 35.117188 C 31.105469 35.226562 31.121094 35.355469 31.121094 35.484375 C 31.121094 35.703125 31.085938 35.902344 31.011719 36.085938 Z M 23.535156 14.894531 C 23.992188 14.894531 24.410156 15.042969 24.757812 15.277344 L 36.683594 12.5625 C 36.957031 11.320312 38.054688 10.410156 39.371094 10.410156 C 39.972656 10.410156 40.539062 10.609375 40.996094 10.9375 L 49.246094 7.472656 L 49.8125 7.238281 L 49.957031 7.164062 L 50.34375 7 L 50.453125 7.253906 L 63.746094 9.734375 C 64.058594 8.898438 64.863281 8.3125 65.8125 8.3125 C 67.019531 8.3125 68.007812 9.296875 68.007812 10.5 C 68.007812 10.847656 67.933594 11.175781 67.789062 11.46875 L 77.296875 19.015625 C 77.644531 18.796875 78.066406 18.671875 78.503906 18.671875 C 79.765625 18.671875 80.789062 19.691406 80.789062 20.949219 C 80.789062 21.625 80.496094 22.246094 80.023438 22.664062 L 82.050781 33.148438 C 83.183594 33.40625 84.042969 34.425781 84.042969 35.628906 C 84.042969 37.035156 82.910156 38.164062 81.503906 38.164062 C 81.300781 38.164062 81.117188 38.144531 80.917969 38.089844 L 68.316406 46.972656 C 68.390625 47.171875 68.429688 47.371094 68.429688 47.589844 C 68.429688 48.613281 67.605469 49.433594 66.582031 49.433594 C 66.453125 49.433594 66.324219 49.414062 66.214844 49.398438 L 61.714844 58.386719 C 62.265625 58.859375 62.613281 59.554688 62.613281 60.320312 C 62.613281 61.722656 61.480469 62.855469 60.070312 62.855469 C 58.664062 62.855469 57.527344 61.722656 57.527344 60.320312 C 57.527344 59.570312 57.839844 58.914062 58.351562 58.441406 L 52.445312 51.164062 C 52.042969 51.402344 51.566406 51.53125 51.054688 51.53125 C 49.648438 51.53125 48.476562 50.492188 48.257812 49.140625 L 40.722656 48.976562 C 40.429688 49.5625 39.828125 49.960938 39.113281 49.960938 C 38.125 49.960938 37.320312 49.160156 37.320312 48.175781 L 37.320312 48.136719 L 23.9375 41.246094 L 23.84375 41.246094 C 23.023438 41.246094 22.34375 40.699219 22.125 39.949219 L 17.808594 32.074219 C 17.628906 32.128906 17.425781 32.144531 17.226562 32.144531 C 15.910156 32.144531 14.847656 31.089844 14.847656 29.777344 C 14.847656 28.957031 15.269531 28.226562 15.910156 27.804688 L 16.164062 27.367188 L 16.199219 27.386719 L 22.199219 18.796875 C 21.6875 18.398438 21.359375 17.777344 21.359375 17.066406 C 21.320312 15.878906 22.308594 14.894531 23.535156 14.894531 Z M 25.582031 16.320312 C 25.636719 16.464844 25.671875 16.59375 25.691406 16.757812 L 41.289062 23.558594 C 41.566406 23.246094 41.914062 22.992188 42.296875 22.863281 L 39.773438 15.898438 C 39.644531 15.917969 39.515625 15.933594 39.386719 15.933594 C 38.070312 15.933594 36.976562 15.023438 36.699219 13.800781 Z M 25.546875 17.976562 L 40.777344 24.617188 C 40.742188 24.761719 40.742188 24.925781 40.742188 25.070312 C 40.742188 25.582031 40.90625 26.074219 41.179688 26.457031 L 30.445312 34.117188 C 30.136719 33.859375 29.75 33.714844 29.3125 33.714844 C 28.78125 33.714844 28.289062 33.953125 27.960938 34.335938 L 19.566406 29.394531 C 19.402344 28.390625 18.613281 27.605469 17.609375 27.441406 L 23.316406 19.273438 C 23.386719 19.273438 23.460938 19.289062 23.535156 19.289062 C 24.429688 19.289062 25.214844 18.742188 25.546875 17.976562 Z M 67 12.34375 L 76.492188 19.875 C 76.328125 20.203125 76.21875 20.550781 76.21875 20.949219 C 76.21875 21.425781 76.363281 21.84375 76.601562 22.207031 L 71.8125 25.453125 C 71.410156 25.109375 70.878906 24.90625 70.3125 24.90625 C 69.671875 24.90625 69.085938 25.179688 68.664062 25.601562 L 57.765625 18.414062 C 57.804688 18.214844 57.804688 18.03125 57.804688 17.832031 C 57.804688 17.285156 57.695312 16.757812 57.492188 16.28125 L 63.964844 11.667969 C 64.351562 12.289062 65.046875 12.691406 65.832031 12.691406 C 66.269531 12.691406 66.671875 12.5625 67 12.34375 Z M 41.839844 11.886719 C 42.039062 12.269531 42.148438 12.707031 42.148438 13.164062 C 42.148438 14.128906 41.65625 14.988281 40.90625 15.480469 L 43.539062 22.738281 C 44.160156 22.847656 44.710938 23.191406 45.058594 23.683594 L 50.507812 19.78125 C 50.160156 19.199219 49.976562 18.523438 49.976562 17.8125 C 49.976562 16.300781 50.835938 14.988281 52.097656 14.332031 L 49.71875 8.570312 Z M 45.496094 24.851562 L 51.273438 20.730469 C 51.96875 21.351562 52.882812 21.734375 53.910156 21.734375 C 54.328125 21.734375 54.714844 21.660156 55.097656 21.550781 L 57.730469 27.914062 C 56.980469 28.425781 56.359375 29.101562 55.9375 29.921875 L 45.515625 25.382812 C 45.53125 25.289062 45.53125 25.179688 45.53125 25.089844 C 45.515625 25 45.496094 24.925781 45.496094 24.851562 Z M 19.417969 30.6875 C 19.292969 30.996094 19.089844 31.289062 18.851562 31.527344 L 22.527344 38.253906 C 22.855469 37.910156 23.316406 37.691406 23.828125 37.691406 C 24.230469 37.691406 24.613281 37.835938 24.90625 38.054688 L 27.628906 36.121094 C 27.558594 35.921875 27.519531 35.71875 27.519531 35.5 L 27.519531 35.464844 Z M 53.816406 48.136719 C 53.851562 48.320312 53.871094 48.523438 53.871094 48.722656 C 53.871094 49.34375 53.671875 49.925781 53.324219 50.398438 L 59.394531 57.875 C 59.613281 57.820312 59.832031 57.785156 60.070312 57.785156 C 60.273438 57.785156 60.472656 57.804688 60.65625 57.859375 L 65.191406 48.8125 C 64.917969 48.484375 64.734375 48.066406 64.734375 47.609375 C 64.734375 47.082031 64.953125 46.605469 65.300781 46.277344 L 64.257812 43.742188 Z M 66.582031 45.75 C 66.945312 45.75 67.292969 45.859375 67.585938 46.042969 L 79.746094 37.472656 C 79.675781 37.398438 79.601562 37.324219 79.546875 37.253906 L 65.355469 43.25 L 66.398438 45.75 C 66.453125 45.75 66.527344 45.75 66.582031 45.75 Z M 78.980469 35.246094 L 66.214844 32.53125 L 66.214844 32.4375 C 66.214844 31.890625 66.125 31.34375 65.976562 30.851562 L 68.832031 28.917969 C 69.234375 29.265625 69.746094 29.464844 70.3125 29.464844 C 70.824219 29.464844 71.300781 29.300781 71.683594 29.011719 L 79.4375 34.117188 C 79.199219 34.445312 79.035156 34.828125 78.980469 35.246094 Z M 68.152344 27.914062 L 65.484375 29.722656 C 64.53125 28.078125 62.777344 26.984375 60.746094 26.984375 C 60.050781 26.984375 59.394531 27.113281 58.773438 27.351562 L 56.15625 21.003906 C 56.667969 20.640625 57.109375 20.148438 57.382812 19.582031 L 68.082031 26.640625 C 68.042969 26.804688 68.027344 26.984375 68.027344 27.167969 C 68.027344 27.441406 68.082031 27.695312 68.152344 27.914062 Z M 53.890625 13.910156 C 55.078125 13.910156 56.140625 14.441406 56.851562 15.261719 L 63.105469 10.8125 L 51.019531 8.570312 L 53.25 13.964844 C 53.449219 13.929688 53.671875 13.910156 53.890625 13.910156 Z M 66.050781 33.714844 C 65.648438 35.375 64.476562 36.742188 62.921875 37.417969 L 64.878906 42.15625 L 78.539062 36.378906 Z M 66.050781 33.714844 " clip-rule="evenodd"/></clipPath><linearGradient x1="284.549359" gradientTransform="matrix(0.182868, 0, 0, 0.18235, 14.829505, 7.000355)" y1="346.179348" x2="116.613081" gradientUnits="userSpaceOnUse" y2="-49.456554" id="182a968743"><stop stop-opacity="1" stop-color="rgb(0%, 55.699158%, 80.799866%)" offset="0"/><stop stop-opacity="1" stop-color="rgb(0%, 55.699158%, 80.799866%)" offset="0.125"/><stop stop-opacity="1" stop-color="rgb(0%, 55.699158%, 80.799866%)" offset="0.1875"/><stop stop-opacity="1" stop-color="rgb(0%, 55.699158%, 80.799866%)" offset="0.21875"/><stop stop-opacity="1" stop-color="rgb(0%, 55.699158%, 80.799866%)" offset="0.226562"/><stop stop-opacity="1" stop-color="rgb(0.256348%, 55.856323%, 80.847168%)" offset="0.230469"/><stop stop-opacity="1" stop-color="rgb(0.512695%, 56.015015%, 80.895996%)" offset="0.234375"/><stop stop-opacity="1" stop-color="rgb(0.784302%, 56.182861%, 80.947876%)" offset="0.238281"/><stop stop-opacity="1" stop-color="rgb(1.057434%, 56.350708%, 80.999756%)" offset="0.242188"/><stop stop-opacity="1" stop-color="rgb(1.329041%, 56.518555%, 81.051636%)" offset="0.246094"/><stop stop-opacity="1" stop-color="rgb(1.602173%, 56.686401%, 81.103516%)" offset="0.25"/><stop stop-opacity="1" stop-color="rgb(1.875305%, 56.852722%, 81.155396%)" offset="0.253906"/><stop stop-opacity="1" stop-color="rgb(2.148438%, 57.020569%, 81.207275%)" offset="0.257812"/><stop stop-opacity="1" stop-color="rgb(2.420044%, 57.188416%, 81.259155%)" offset="0.261719"/><stop stop-opacity="1" stop-color="rgb(2.693176%, 57.356262%, 81.311035%)" offset="0.265625"/><stop stop-opacity="1" stop-color="rgb(2.964783%, 57.524109%, 81.361389%)" offset="0.269531"/><stop stop-opacity="1" stop-color="rgb(3.237915%, 57.691956%, 81.413269%)" offset="0.273438"/><stop stop-opacity="1" stop-color="rgb(3.511047%, 57.859802%, 81.465149%)" offset="0.277344"/><stop stop-opacity="1" stop-color="rgb(3.78418%, 58.027649%, 81.517029%)" offset="0.28125"/><stop stop-opacity="1" stop-color="rgb(4.055786%, 58.195496%, 81.568909%)" offset="0.285156"/><stop stop-opacity="1" stop-color="rgb(4.328918%, 58.363342%, 81.620789%)" offset="0.289062"/><stop stop-opacity="1" stop-color="rgb(4.600525%, 58.531189%, 81.672668%)" offset="0.292969"/><stop stop-opacity="1" stop-color="rgb(4.873657%, 58.699036%, 81.724548%)" offset="0.296875"/><stop stop-opacity="1" stop-color="rgb(5.14679%, 58.865356%, 81.774902%)" offset="0.300781"/><stop stop-opacity="1" stop-color="rgb(5.419922%, 59.033203%, 81.826782%)" offset="0.304688"/><stop stop-opacity="1" stop-color="rgb(5.691528%, 59.20105%, 81.878662%)" offset="0.308594"/><stop stop-opacity="1" stop-color="rgb(5.964661%, 59.368896%, 81.930542%)" offset="0.3125"/><stop stop-opacity="1" stop-color="rgb(6.236267%, 59.536743%, 81.982422%)" offset="0.316406"/><stop stop-opacity="1" stop-color="rgb(6.509399%, 59.70459%, 82.034302%)" offset="0.320312"/><stop stop-opacity="1" stop-color="rgb(6.782532%, 59.872437%, 82.086182%)" offset="0.324219"/><stop stop-opacity="1" stop-color="rgb(7.055664%, 60.040283%, 82.138062%)" offset="0.328125"/><stop stop-opacity="1" stop-color="rgb(7.327271%, 60.20813%, 82.189941%)" offset="0.332031"/><stop stop-opacity="1" stop-color="rgb(7.600403%, 60.375977%, 82.241821%)" offset="0.335938"/><stop stop-opacity="1" stop-color="rgb(7.872009%, 60.542297%, 82.292175%)" offset="0.339844"/><stop stop-opacity="1" stop-color="rgb(8.145142%, 60.710144%, 82.344055%)" offset="0.34375"/><stop stop-opacity="1" stop-color="rgb(8.418274%, 60.877991%, 82.395935%)" offset="0.347656"/><stop stop-opacity="1" stop-color="rgb(8.691406%, 61.045837%, 82.447815%)" offset="0.351562"/><stop stop-opacity="1" stop-color="rgb(8.963013%, 61.213684%, 82.499695%)" offset="0.355469"/><stop stop-opacity="1" stop-color="rgb(9.236145%, 61.381531%, 82.551575%)" offset="0.359375"/><stop stop-opacity="1" stop-color="rgb(9.507751%, 61.549377%, 82.603455%)" offset="0.363281"/><stop stop-opacity="1" stop-color="rgb(9.780884%, 61.717224%, 82.655334%)" offset="0.367188"/><stop stop-opacity="1" stop-color="rgb(10.054016%, 61.885071%, 82.707214%)" offset="0.371094"/><stop stop-opacity="1" stop-color="rgb(10.327148%, 62.052917%, 82.759094%)" offset="0.375"/><stop stop-opacity="1" stop-color="rgb(10.598755%, 62.220764%, 82.809448%)" offset="0.378906"/><stop stop-opacity="1" stop-color="rgb(10.871887%, 62.388611%, 82.861328%)" offset="0.382812"/><stop stop-opacity="1" stop-color="rgb(11.143494%, 62.554932%, 82.913208%)" offset="0.386719"/><stop stop-opacity="1" stop-color="rgb(11.416626%, 62.722778%, 82.965088%)" offset="0.390625"/><stop stop-opacity="1" stop-color="rgb(11.689758%, 62.890625%, 83.016968%)" offset="0.394531"/><stop stop-opacity="1" stop-color="rgb(11.962891%, 63.058472%, 83.068848%)" offset="0.398438"/><stop stop-opacity="1" stop-color="rgb(12.234497%, 63.226318%, 83.120728%)" offset="0.402344"/><stop stop-opacity="1" stop-color="rgb(12.507629%, 63.394165%, 83.172607%)" offset="0.40625"/><stop stop-opacity="1" stop-color="rgb(12.779236%, 63.562012%, 83.222961%)" offset="0.410156"/><stop stop-opacity="1" stop-color="rgb(13.052368%, 63.729858%, 83.274841%)" offset="0.414062"/><stop stop-opacity="1" stop-color="rgb(13.3255%, 63.897705%, 83.326721%)" offset="0.417969"/><stop stop-opacity="1" stop-color="rgb(13.598633%, 64.065552%, 83.378601%)" offset="0.421875"/><stop stop-opacity="1" stop-color="rgb(13.870239%, 64.231873%, 83.430481%)" offset="0.425781"/><stop stop-opacity="1" stop-color="rgb(14.143372%, 64.399719%, 83.482361%)" offset="0.429688"/><stop stop-opacity="1" stop-color="rgb(14.414978%, 64.567566%, 83.534241%)" offset="0.433594"/><stop stop-opacity="1" stop-color="rgb(14.68811%, 64.735413%, 83.586121%)" offset="0.4375"/><stop stop-opacity="1" stop-color="rgb(14.961243%, 64.903259%, 83.638%)" offset="0.441406"/><stop stop-opacity="1" stop-color="rgb(15.234375%, 65.071106%, 83.68988%)" offset="0.445313"/><stop stop-opacity="1" stop-color="rgb(15.505981%, 65.238953%, 83.740234%)" offset="0.449219"/><stop stop-opacity="1" stop-color="rgb(15.779114%, 65.406799%, 83.792114%)" offset="0.453125"/><stop stop-opacity="1" stop-color="rgb(16.05072%, 65.574646%, 83.843994%)" offset="0.457031"/><stop stop-opacity="1" stop-color="rgb(16.323853%, 65.742493%, 83.895874%)" offset="0.460938"/><stop stop-opacity="1" stop-color="rgb(16.596985%, 65.910339%, 83.947754%)" offset="0.464844"/><stop stop-opacity="1" stop-color="rgb(16.870117%, 66.078186%, 83.999634%)" offset="0.46875"/><stop stop-opacity="1" stop-color="rgb(17.141724%, 66.244507%, 84.051514%)" offset="0.472656"/><stop stop-opacity="1" stop-color="rgb(17.414856%, 66.412354%, 84.103394%)" offset="0.476562"/><stop stop-opacity="1" stop-color="rgb(17.686462%, 66.5802%, 84.155273%)" offset="0.480469"/><stop stop-opacity="1" stop-color="rgb(17.959595%, 66.748047%, 84.207153%)" offset="0.484375"/><stop stop-opacity="1" stop-color="rgb(18.232727%, 66.915894%, 84.257507%)" offset="0.488281"/><stop stop-opacity="1" stop-color="rgb(18.505859%, 67.08374%, 84.309387%)" offset="0.492188"/><stop stop-opacity="1" stop-color="rgb(18.777466%, 67.251587%, 84.361267%)" offset="0.496094"/><stop stop-opacity="1" stop-color="rgb(19.050598%, 67.419434%, 84.413147%)" offset="0.5"/><stop stop-opacity="1" stop-color="rgb(19.322205%, 67.58728%, 84.465027%)" offset="0.503906"/><stop stop-opacity="1" stop-color="rgb(19.595337%, 67.755127%, 84.516907%)" offset="0.507812"/><stop stop-opacity="1" stop-color="rgb(19.868469%, 67.922974%, 84.568787%)" offset="0.511719"/><stop stop-opacity="1" stop-color="rgb(20.141602%, 68.09082%, 84.620667%)" offset="0.515625"/><stop stop-opacity="1" stop-color="rgb(20.413208%, 68.257141%, 84.671021%)" offset="0.519531"/><stop stop-opacity="1" stop-color="rgb(20.68634%, 68.424988%, 84.7229%)" offset="0.523438"/><stop stop-opacity="1" stop-color="rgb(20.957947%, 68.592834%, 84.77478%)" offset="0.527344"/><stop stop-opacity="1" stop-color="rgb(21.231079%, 68.760681%, 84.82666%)" offset="0.53125"/><stop stop-opacity="1" stop-color="rgb(21.504211%, 68.928528%, 84.87854%)" offset="0.535156"/><stop stop-opacity="1" stop-color="rgb(21.777344%, 69.096375%, 84.93042%)" offset="0.539062"/><stop stop-opacity="1" stop-color="rgb(22.04895%, 69.264221%, 84.9823%)" offset="0.542969"/><stop stop-opacity="1" stop-color="rgb(22.322083%, 69.432068%, 85.03418%)" offset="0.546875"/><stop stop-opacity="1" stop-color="rgb(22.593689%, 69.599915%, 85.08606%)" offset="0.550781"/><stop stop-opacity="1" stop-color="rgb(22.866821%, 69.767761%, 85.137939%)" offset="0.554688"/><stop stop-opacity="1" stop-color="rgb(23.139954%, 69.934082%, 85.188293%)" offset="0.558594"/><stop stop-opacity="1" stop-color="rgb(23.413086%, 70.101929%, 85.240173%)" offset="0.5625"/><stop stop-opacity="1" stop-color="rgb(23.684692%, 70.269775%, 85.292053%)" offset="0.566406"/><stop stop-opacity="1" stop-color="rgb(23.957825%, 70.437622%, 85.343933%)" offset="0.570312"/><stop stop-opacity="1" stop-color="rgb(24.229431%, 70.605469%, 85.395813%)" offset="0.574219"/><stop stop-opacity="1" stop-color="rgb(24.502563%, 70.773315%, 85.447693%)" offset="0.578125"/><stop stop-opacity="1" stop-color="rgb(24.775696%, 70.941162%, 85.499573%)" offset="0.582031"/><stop stop-opacity="1" stop-color="rgb(25.048828%, 71.109009%, 85.551453%)" offset="0.585937"/><stop stop-opacity="1" stop-color="rgb(25.320435%, 71.276855%, 85.603333%)" offset="0.589844"/><stop stop-opacity="1" stop-color="rgb(25.593567%, 71.444702%, 85.655212%)" offset="0.59375"/><stop stop-opacity="1" stop-color="rgb(25.865173%, 71.612549%, 85.705566%)" offset="0.597656"/><stop stop-opacity="1" stop-color="rgb(26.138306%, 71.780396%, 85.757446%)" offset="0.601562"/><stop stop-opacity="1" stop-color="rgb(26.411438%, 71.946716%, 85.809326%)" offset="0.605469"/><stop stop-opacity="1" stop-color="rgb(26.68457%, 72.114563%, 85.861206%)" offset="0.609375"/><stop stop-opacity="1" stop-color="rgb(26.956177%, 72.28241%, 85.913086%)" offset="0.613281"/><stop stop-opacity="1" stop-color="rgb(27.229309%, 72.450256%, 85.964966%)" offset="0.617188"/><stop stop-opacity="1" stop-color="rgb(27.500916%, 72.618103%, 86.016846%)" offset="0.621094"/><stop stop-opacity="1" stop-color="rgb(27.774048%, 72.78595%, 86.068726%)" offset="0.625"/><stop stop-opacity="1" stop-color="rgb(28.04718%, 72.953796%, 86.11908%)" offset="0.628906"/><stop stop-opacity="1" stop-color="rgb(28.320312%, 73.121643%, 86.170959%)" offset="0.632812"/><stop stop-opacity="1" stop-color="rgb(28.591919%, 73.28949%, 86.222839%)" offset="0.636719"/><stop stop-opacity="1" stop-color="rgb(28.865051%, 73.457336%, 86.274719%)" offset="0.640625"/><stop stop-opacity="1" stop-color="rgb(29.136658%, 73.623657%, 86.326599%)" offset="0.644531"/><stop stop-opacity="1" stop-color="rgb(29.40979%, 73.791504%, 86.378479%)" offset="0.648438"/><stop stop-opacity="1" stop-color="rgb(29.682922%, 73.959351%, 86.430359%)" offset="0.652344"/><stop stop-opacity="1" stop-color="rgb(29.956055%, 74.127197%, 86.482239%)" offset="0.65625"/><stop stop-opacity="1" stop-color="rgb(30.227661%, 74.295044%, 86.534119%)" offset="0.660156"/><stop stop-opacity="1" stop-color="rgb(30.500793%, 74.462891%, 86.585999%)" offset="0.664062"/><stop stop-opacity="1" stop-color="rgb(30.7724%, 74.630737%, 86.636353%)" offset="0.667969"/><stop stop-opacity="1" stop-color="rgb(31.045532%, 74.798584%, 86.688232%)" offset="0.671875"/><stop stop-opacity="1" stop-color="rgb(31.318665%, 74.966431%, 86.740112%)" offset="0.675781"/><stop stop-opacity="1" stop-color="rgb(31.591797%, 75.134277%, 86.791992%)" offset="0.679687"/><stop stop-opacity="1" stop-color="rgb(31.863403%, 75.302124%, 86.843872%)" offset="0.683594"/><stop stop-opacity="1" stop-color="rgb(32.136536%, 75.469971%, 86.895752%)" offset="0.6875"/><stop stop-opacity="1" stop-color="rgb(32.408142%, 75.636292%, 86.947632%)" offset="0.691406"/><stop stop-opacity="1" stop-color="rgb(32.681274%, 75.804138%, 86.999512%)" offset="0.695312"/><stop stop-opacity="1" stop-color="rgb(32.954407%, 75.971985%, 87.051392%)" offset="0.699219"/><stop stop-opacity="1" stop-color="rgb(33.227539%, 76.139832%, 87.103271%)" offset="0.703125"/><stop stop-opacity="1" stop-color="rgb(33.499146%, 76.307678%, 87.153625%)" offset="0.707031"/><stop stop-opacity="1" stop-color="rgb(33.772278%, 76.475525%, 87.205505%)" offset="0.710938"/><stop stop-opacity="1" stop-color="rgb(34.043884%, 76.643372%, 87.257385%)" offset="0.714844"/><stop stop-opacity="1" stop-color="rgb(34.317017%, 76.811218%, 87.309265%)" offset="0.71875"/><stop stop-opacity="1" stop-color="rgb(34.590149%, 76.979065%, 87.361145%)" offset="0.722656"/><stop stop-opacity="1" stop-color="rgb(34.863281%, 77.146912%, 87.413025%)" offset="0.726562"/><stop stop-opacity="1" stop-color="rgb(35.134888%, 77.314758%, 87.464905%)" offset="0.730469"/><stop stop-opacity="1" stop-color="rgb(35.40802%, 77.482605%, 87.516785%)" offset="0.734375"/><stop stop-opacity="1" stop-color="rgb(35.679626%, 77.648926%, 87.568665%)" offset="0.738281"/><stop stop-opacity="1" stop-color="rgb(35.952759%, 77.816772%, 87.620544%)" offset="0.742188"/><stop stop-opacity="1" stop-color="rgb(36.225891%, 77.984619%, 87.670898%)" offset="0.746094"/><stop stop-opacity="1" stop-color="rgb(36.499023%, 78.152466%, 87.722778%)" offset="0.75"/><stop stop-opacity="1" stop-color="rgb(36.698914%, 78.276062%, 87.760925%)" offset="0.753906"/><stop stop-opacity="1" stop-color="rgb(36.898804%, 78.399658%, 87.799072%)" offset="0.757812"/><stop stop-opacity="1" stop-color="rgb(36.898804%, 78.399658%, 87.799072%)" offset="0.765625"/><stop stop-opacity="1" stop-color="rgb(36.898804%, 78.399658%, 87.799072%)" offset="0.78125"/><stop stop-opacity="1" stop-color="rgb(36.898804%, 78.399658%, 87.799072%)" offset="0.8125"/><stop stop-opacity="1" stop-color="rgb(36.898804%, 78.399658%, 87.799072%)" offset="0.875"/><stop stop-opacity="1" stop-color="rgb(36.898804%, 78.399658%, 87.799072%)" offset="1"/></linearGradient></defs><g clip-path="url(#f7092a9953)"><g clip-path="url(#9209370411)"><path fill="url(#182a968743)" d="M 14.847656 7 L 14.847656 62.855469 L 84.042969 62.855469 L 84.042969 7 Z M 14.847656 7 " fill-rule="nonzero"/></g></g></svg>