<svg xmlns="http://www.w3.org/2000/svg" xmlns:xlink="http://www.w3.org/1999/xlink" width="132" zoomAndPan="magnify" viewBox="0 0 98.88 70.499998" height="94" preserveAspectRatio="xMidYMid meet" version="1.0"><defs><g/><clipPath id="403c3c4fd7"><path d="M 23.71875 6.570312 L 75.105469 6.570312 L 75.105469 47.53125 L 23.71875 47.53125 Z M 23.71875 6.570312 " clip-rule="nonzero"/></clipPath></defs><path fill="#ffffff" d="M 28.578125 31.917969 C 27.488281 31.917969 26.597656 32.808594 26.597656 33.898438 C 26.597656 34.992188 27.488281 35.882812 28.578125 35.882812 C 29.671875 35.882812 30.5625 34.992188 30.5625 33.898438 C 30.5625 32.808594 29.671875 31.917969 28.578125 31.917969 Z M 28.578125 34.742188 C 28.117188 34.742188 27.738281 34.363281 27.738281 33.898438 C 27.738281 33.433594 28.117188 33.058594 28.578125 33.058594 C 29.042969 33.058594 29.421875 33.4375 29.421875 33.898438 C 29.421875 34.363281 29.042969 34.742188 28.578125 34.742188 Z M 28.578125 34.742188 " fill-opacity="1" fill-rule="nonzero"/><g clip-path="url(#403c3c4fd7)"><path fill="#ffffff" d="M 72.015625 26.015625 L 72.015625 8.625 C 72.015625 7.511719 71.113281 6.609375 70 6.609375 L 25.734375 6.609375 C 24.625 6.609375 23.71875 7.511719 23.71875 8.625 L 23.71875 35.542969 C 23.71875 36.65625 24.625 37.566406 25.734375 37.566406 L 42.136719 37.566406 L 42.136719 42.449219 L 41.882812 42.449219 C 40.429688 42.449219 39.25 43.632812 39.25 45.082031 C 39.25 46.535156 40.429688 47.714844 41.882812 47.714844 L 53.855469 47.714844 C 55.308594 47.714844 56.488281 46.535156 56.488281 45.082031 C 56.488281 43.628906 55.308594 42.449219 53.855469 42.449219 L 53.601562 42.449219 L 53.601562 37.566406 L 56.984375 37.566406 C 58.601562 40.613281 61.804688 42.699219 65.492188 42.699219 C 70.796875 42.699219 75.117188 38.378906 75.117188 33.074219 C 75.117188 30.285156 73.917969 27.777344 72.019531 26.015625 Z M 24.859375 8.625 C 24.859375 8.140625 25.25 7.746094 25.734375 7.746094 L 70 7.746094 C 70.484375 7.746094 70.875 8.140625 70.875 8.625 L 70.875 25.097656 C 70.625 24.925781 70.359375 24.765625 70.089844 24.621094 L 70.089844 10.4375 C 70.089844 9.390625 69.238281 8.539062 68.191406 8.539062 L 27.546875 8.539062 C 26.5 8.539062 25.644531 9.390625 25.644531 10.4375 L 25.644531 30.238281 L 24.859375 30.238281 Z M 56.292969 30.238281 L 26.785156 30.238281 L 26.785156 10.4375 C 26.785156 10.019531 27.128906 9.679688 27.546875 9.679688 L 68.191406 9.679688 C 68.609375 9.679688 68.949219 10.019531 68.949219 10.4375 L 68.949219 24.101562 C 67.875 23.683594 66.710938 23.445312 65.492188 23.445312 C 61.167969 23.445312 57.503906 26.308594 56.292969 30.238281 Z M 53.855469 43.589844 C 54.679688 43.589844 55.347656 44.257812 55.347656 45.082031 C 55.347656 45.90625 54.679688 46.574219 53.855469 46.574219 L 41.882812 46.574219 C 41.058594 46.574219 40.390625 45.90625 40.390625 45.082031 C 40.390625 44.257812 41.058594 43.589844 41.882812 43.589844 Z M 43.277344 42.449219 L 43.277344 37.566406 L 52.460938 37.566406 L 52.460938 42.449219 Z M 53.042969 36.425781 C 53.039062 36.425781 53.035156 36.425781 53.03125 36.425781 L 42.707031 36.425781 C 42.703125 36.425781 42.699219 36.425781 42.699219 36.425781 L 25.734375 36.425781 C 25.25 36.425781 24.859375 36.03125 24.859375 35.542969 L 24.859375 31.378906 L 56.023438 31.378906 C 55.925781 31.929688 55.863281 32.492188 55.863281 33.074219 C 55.863281 34.253906 56.089844 35.378906 56.480469 36.425781 Z M 65.492188 41.558594 C 60.8125 41.558594 57.003906 37.75 57.003906 33.074219 C 57.003906 28.394531 60.8125 24.585938 65.492188 24.585938 C 70.171875 24.585938 73.976562 28.394531 73.976562 33.074219 C 73.976562 37.75 70.171875 41.558594 65.492188 41.558594 Z M 65.492188 41.558594 " fill-opacity="1" fill-rule="nonzero"/></g><path fill="#ffffff" d="M 70.753906 35.253906 L 68.390625 32.894531 C 68.824219 31.375 68.445312 29.675781 67.253906 28.484375 C 66.125 27.351562 64.457031 26.910156 62.902344 27.324219 C 62.707031 27.378906 62.554688 27.53125 62.5 27.726562 C 62.449219 27.925781 62.503906 28.132812 62.648438 28.277344 L 64.296875 29.929688 L 64.296875 31.242188 L 63.65625 31.878906 L 62.351562 31.882812 L 60.699219 30.230469 C 60.554688 30.085938 60.34375 30.027344 60.148438 30.082031 C 59.953125 30.132812 59.800781 30.285156 59.746094 30.484375 C 59.328125 32.039062 59.769531 33.707031 60.898438 34.839844 C 61.773438 35.710938 62.925781 36.152344 64.074219 36.152344 C 64.492188 36.152344 64.90625 36.089844 65.308594 35.976562 L 67.671875 38.339844 C 68.097656 38.761719 68.65625 38.976562 69.210938 38.976562 C 69.769531 38.976562 70.328125 38.761719 70.753906 38.339844 C 71.164062 37.925781 71.390625 37.378906 71.390625 36.796875 C 71.390625 36.214844 71.164062 35.667969 70.753906 35.253906 Z M 61.707031 34.03125 C 61.125 33.449219 60.789062 32.679688 60.734375 31.878906 L 61.714844 32.855469 C 61.820312 32.960938 61.964844 33.023438 62.117188 33.023438 L 63.894531 33.019531 C 64.046875 33.019531 64.191406 32.957031 64.296875 32.851562 L 65.265625 31.878906 C 65.375 31.773438 65.433594 31.628906 65.433594 31.476562 L 65.4375 29.691406 C 65.4375 29.542969 65.378906 29.394531 65.269531 29.289062 L 64.300781 28.320312 C 65.101562 28.371094 65.867188 28.710938 66.449219 29.289062 C 67.753906 30.59375 67.753906 32.722656 66.449219 34.027344 C 65.136719 35.335938 63.011719 35.335938 61.707031 34.03125 Z M 69.949219 37.53125 C 69.542969 37.9375 68.882812 37.9375 68.476562 37.53125 L 66.425781 35.480469 C 66.722656 35.300781 67 35.085938 67.253906 34.832031 C 67.507812 34.578125 67.71875 34.300781 67.898438 34.011719 L 69.949219 36.058594 C 70.144531 36.257812 70.253906 36.519531 70.253906 36.796875 C 70.253906 37.074219 70.144531 37.335938 69.949219 37.53125 Z M 69.949219 37.53125 " fill-opacity="1" fill-rule="nonzero"/><path fill="#ffffff" d="M 37.617188 17.113281 C 37.730469 16.714844 37.792969 16.300781 37.792969 15.875 C 37.792969 14.675781 37.324219 13.546875 36.476562 12.699219 C 35.347656 11.570312 33.679688 11.125 32.125 11.542969 C 31.929688 11.59375 31.777344 11.746094 31.722656 11.945312 C 31.671875 12.140625 31.726562 12.351562 31.871094 12.496094 L 33.519531 14.144531 L 33.519531 15.457031 L 32.878906 16.097656 L 31.574219 16.101562 L 29.921875 14.445312 C 29.777344 14.300781 29.566406 14.246094 29.371094 14.296875 C 29.175781 14.351562 29.023438 14.503906 28.96875 14.699219 C 28.546875 16.253906 28.992188 17.921875 30.121094 19.054688 C 30.96875 19.902344 32.097656 20.367188 33.292969 20.367188 L 33.300781 20.367188 C 33.722656 20.367188 34.136719 20.308594 34.535156 20.195312 L 36.894531 22.554688 C 37.320312 22.980469 37.878906 23.191406 38.4375 23.191406 C 38.992188 23.191406 39.550781 22.980469 39.976562 22.554688 C 40.824219 21.707031 40.824219 20.324219 39.976562 19.472656 Z M 33.300781 19.226562 L 33.292969 19.226562 C 32.398438 19.226562 31.558594 18.878906 30.929688 18.25 C 30.347656 17.667969 30.011719 16.898438 29.957031 16.09375 L 30.9375 17.074219 C 31.042969 17.179688 31.1875 17.238281 31.339844 17.238281 L 33.117188 17.234375 C 33.269531 17.234375 33.414062 17.175781 33.519531 17.070312 L 34.492188 16.097656 C 34.597656 15.988281 34.65625 15.847656 34.65625 15.695312 L 34.660156 13.910156 C 34.660156 13.757812 34.601562 13.613281 34.496094 13.507812 L 33.523438 12.535156 C 34.324219 12.589844 35.09375 12.925781 35.671875 13.507812 C 36.304688 14.140625 36.652344 14.980469 36.652344 15.875 C 36.652344 16.769531 36.304688 17.613281 35.671875 18.246094 C 35.039062 18.878906 34.195312 19.226562 33.300781 19.226562 Z M 39.171875 21.75 C 38.765625 22.152344 38.105469 22.152344 37.699219 21.75 L 35.652344 19.699219 C 35.945312 19.515625 36.226562 19.300781 36.476562 19.050781 C 36.726562 18.796875 36.941406 18.523438 37.121094 18.226562 L 39.171875 20.277344 C 39.574219 20.683594 39.574219 21.34375 39.171875 21.746094 Z M 39.171875 21.75 " fill-opacity="1" fill-rule="nonzero"/><path fill="#ffffff" d="M 43.609375 12.527344 L 50.238281 12.527344 C 50.554688 12.527344 50.808594 12.273438 50.808594 11.957031 C 50.808594 11.640625 50.554688 11.386719 50.238281 11.386719 L 43.609375 11.386719 C 43.296875 11.386719 43.039062 11.640625 43.039062 11.957031 C 43.039062 12.273438 43.296875 12.527344 43.609375 12.527344 Z M 43.609375 12.527344 " fill-opacity="1" fill-rule="nonzero"/><path fill="#ffffff" d="M 43.609375 14.496094 L 54.859375 14.496094 C 55.175781 14.496094 55.429688 14.242188 55.429688 13.925781 C 55.429688 13.609375 55.175781 13.355469 54.859375 13.355469 L 43.609375 13.355469 C 43.296875 13.355469 43.039062 13.609375 43.039062 13.925781 C 43.039062 14.242188 43.296875 14.496094 43.609375 14.496094 Z M 43.609375 14.496094 " fill-opacity="1" fill-rule="nonzero"/><path fill="#ffffff" d="M 43.609375 16.464844 L 50.238281 16.464844 C 50.554688 16.464844 50.808594 16.210938 50.808594 15.894531 C 50.808594 15.582031 50.554688 15.324219 50.238281 15.324219 L 43.609375 15.324219 C 43.296875 15.324219 43.039062 15.582031 43.039062 15.894531 C 43.039062 16.210938 43.296875 16.464844 43.609375 16.464844 Z M 43.609375 16.464844 " fill-opacity="1" fill-rule="nonzero"/><path fill="#ffffff" d="M 43.609375 18.433594 L 52.21875 18.433594 C 52.535156 18.433594 52.789062 18.179688 52.789062 17.863281 C 52.789062 17.550781 52.535156 17.296875 52.21875 17.296875 L 43.609375 17.296875 C 43.296875 17.296875 43.039062 17.550781 43.039062 17.863281 C 43.039062 18.179688 43.296875 18.433594 43.609375 18.433594 Z M 43.609375 18.433594 " fill-opacity="1" fill-rule="nonzero"/><path fill="#ffffff" d="M 43.609375 20.402344 L 50.238281 20.402344 C 50.554688 20.402344 50.808594 20.148438 50.808594 19.832031 C 50.808594 19.519531 50.554688 19.265625 50.238281 19.265625 L 43.609375 19.265625 C 43.296875 19.265625 43.039062 19.519531 43.039062 19.832031 C 43.039062 20.148438 43.296875 20.402344 43.609375 20.402344 Z M 43.609375 20.402344 " fill-opacity="1" fill-rule="nonzero"/><path fill="#ffffff" d="M 55.226562 21.234375 L 43.609375 21.234375 C 43.292969 21.234375 43.039062 21.488281 43.039062 21.804688 C 43.039062 22.117188 43.292969 22.371094 43.609375 22.371094 L 55.226562 22.371094 C 55.539062 22.371094 55.796875 22.117188 55.796875 21.804688 C 55.796875 21.488281 55.539062 21.234375 55.226562 21.234375 Z M 55.226562 21.234375 " fill-opacity="1" fill-rule="nonzero"/><path fill="#ffffff" d="M 53.867188 23.203125 L 51.78125 23.203125 C 51.464844 23.203125 51.210938 23.457031 51.210938 23.773438 C 51.210938 24.085938 51.464844 24.34375 51.78125 24.34375 L 53.867188 24.34375 C 54.183594 24.34375 54.4375 24.085938 54.4375 23.773438 C 54.4375 23.457031 54.183594 23.203125 53.867188 23.203125 Z M 53.867188 23.203125 " fill-opacity="1" fill-rule="nonzero"/><path fill="#ffffff" d="M 50.238281 23.203125 L 43.609375 23.203125 C 43.292969 23.203125 43.039062 23.457031 43.039062 23.773438 C 43.039062 24.085938 43.292969 24.34375 43.609375 24.34375 L 50.238281 24.34375 C 50.554688 24.34375 50.808594 24.085938 50.808594 23.773438 C 50.808594 23.457031 50.554688 23.203125 50.238281 23.203125 Z M 50.238281 23.203125 " fill-opacity="1" fill-rule="nonzero"/><g fill="#ffffff" fill-opacity="1"><g transform="translate(8.106293, 61.185494)"><g/></g></g><g fill="#ffffff" fill-opacity="1"><g transform="translate(9.944464, 61.185494)"><g><path d="M 1.734375 -4.703125 L 0.125 -4.703125 L 0.125 -5.71875 L 4.40625 -5.71875 L 4.40625 -4.703125 L 2.78125 -4.703125 L 2.78125 0 L 1.734375 0 Z M 1.734375 -4.703125 "/></g></g></g><g fill="#ffffff" fill-opacity="1"><g transform="translate(14.46867, 61.185494)"><g><path d="M 5 -4.6875 C 5 -4.40625 4.910156 -4.160156 4.734375 -3.953125 C 4.554688 -3.742188 4.320312 -3.59375 4.03125 -3.5 L 4.03125 0 L 3.09375 0 L 3.078125 -0.25 C 2.953125 -0.15625 2.804688 -0.078125 2.640625 -0.015625 C 2.472656 0.046875 2.316406 0.078125 2.171875 0.078125 C 1.566406 0.078125 1.125 -0.09375 0.84375 -0.4375 C 0.570312 -0.789062 0.4375 -1.273438 0.4375 -1.890625 L 0.4375 -4.078125 L 1.453125 -4.078125 L 1.453125 -1.890625 C 1.453125 -1.503906 1.515625 -1.21875 1.640625 -1.03125 C 1.765625 -0.851562 1.96875 -0.765625 2.25 -0.765625 C 2.570312 -0.765625 2.832031 -0.878906 3.03125 -1.109375 L 3.03125 -4.078125 L 3.484375 -4.078125 C 3.921875 -4.078125 4.140625 -4.28125 4.140625 -4.6875 Z M 1.828125 0.65625 L 2.671875 0.65625 L 2.671875 1.453125 L 1.828125 1.453125 Z M 1.828125 0.65625 "/></g></g></g><g fill="#ffffff" fill-opacity="1"><g transform="translate(18.976542, 61.185494)"><g/></g></g><g fill="#ffffff" fill-opacity="1"><g transform="translate(20.813984, 61.185494)"><g><path d="M 1.4375 -2.046875 L 0.078125 -4.078125 L 1.296875 -4.078125 L 2.03125 -2.90625 L 2.71875 -4.078125 L 3.9375 -4.078125 L 2.578125 -2.046875 L 3.9375 0 L 2.71875 0 L 1.984375 -1.1875 L 1.296875 0 L 0.078125 0 Z M 1.4375 -2.046875 "/></g></g></g><g fill="#ffffff" fill-opacity="1"><g transform="translate(24.8237, 61.185494)"><g><path d="M 5 -4.6875 C 5 -4.40625 4.910156 -4.160156 4.734375 -3.953125 C 4.554688 -3.742188 4.320312 -3.59375 4.03125 -3.5 L 4.03125 0 L 3.09375 0 L 3.078125 -0.25 C 2.953125 -0.15625 2.804688 -0.078125 2.640625 -0.015625 C 2.472656 0.046875 2.316406 0.078125 2.171875 0.078125 C 1.566406 0.078125 1.125 -0.09375 0.84375 -0.4375 C 0.570312 -0.789062 0.4375 -1.273438 0.4375 -1.890625 L 0.4375 -4.078125 L 1.453125 -4.078125 L 1.453125 -1.890625 C 1.453125 -1.503906 1.515625 -1.21875 1.640625 -1.03125 C 1.765625 -0.851562 1.96875 -0.765625 2.25 -0.765625 C 2.570312 -0.765625 2.832031 -0.878906 3.03125 -1.109375 L 3.03125 -4.078125 L 3.484375 -4.078125 C 3.921875 -4.078125 4.140625 -4.28125 4.140625 -4.6875 Z M 2.078125 -4.671875 C 2.203125 -4.773438 2.289062 -4.863281 2.34375 -4.9375 C 2.394531 -5.007812 2.421875 -5.09375 2.421875 -5.1875 C 2.421875 -5.269531 2.394531 -5.332031 2.34375 -5.375 C 2.289062 -5.414062 2.21875 -5.4375 2.125 -5.4375 C 1.976562 -5.4375 1.8125 -5.382812 1.625 -5.28125 L 1.484375 -5.78125 C 1.691406 -5.882812 1.910156 -5.9375 2.140625 -5.9375 C 2.367188 -5.9375 2.554688 -5.867188 2.703125 -5.734375 C 2.859375 -5.609375 2.9375 -5.4375 2.9375 -5.21875 C 2.9375 -5.039062 2.890625 -4.890625 2.796875 -4.765625 C 2.710938 -4.640625 2.570312 -4.503906 2.375 -4.359375 Z M 2.078125 -4.671875 "/></g></g></g><g fill="#ffffff" fill-opacity="1"><g transform="translate(29.331571, 61.185494)"><g/></g></g><g fill="#ffffff" fill-opacity="1"><g transform="translate(31.169014, 61.185494)"><g><path d="M 1.515625 0.078125 C 1.171875 0.078125 0.910156 -0.0195312 0.734375 -0.21875 C 0.554688 -0.414062 0.46875 -0.671875 0.46875 -0.984375 L 0.46875 -6.125 L 1.484375 -6.125 L 1.484375 -1.40625 C 1.484375 -1.1875 1.492188 -1.03125 1.515625 -0.9375 C 1.546875 -0.851562 1.59375 -0.800781 1.65625 -0.78125 C 1.71875 -0.757812 1.828125 -0.75 1.984375 -0.75 L 1.890625 0.078125 Z M 1.515625 0.078125 "/></g></g></g><g fill="#ffffff" fill-opacity="1"><g transform="translate(33.316782, 61.185494)"><g><path d="M 1.703125 -0.265625 L 0.015625 -4.078125 L 1.140625 -4.078125 L 2.1875 -1.453125 L 3.25 -4.078125 L 4.375 -4.078125 L 1.8125 1.984375 L 0.796875 1.984375 Z M 1.390625 -5.296875 L 3 -6.21875 L 3 -5.28125 L 1.390625 -4.65625 Z M 1.390625 -5.296875 "/></g></g></g><g fill="#ffffff" fill-opacity="1"><g transform="translate(37.702158, 61.185494)"><g/></g></g><g fill="#ffffff" fill-opacity="1"><g transform="translate(39.539601, 61.185494)"><g><path d="M 1.640625 0.078125 C 1.367188 0.078125 1.125 0.0507812 0.90625 0 C 0.695312 -0.0390625 0.476562 -0.113281 0.25 -0.21875 L 0.34375 -1.09375 C 0.570312 -0.945312 0.785156 -0.835938 0.984375 -0.765625 C 1.179688 -0.703125 1.390625 -0.671875 1.609375 -0.671875 C 2.015625 -0.671875 2.21875 -0.8125 2.21875 -1.09375 C 2.21875 -1.238281 2.160156 -1.347656 2.046875 -1.421875 C 1.941406 -1.503906 1.75 -1.597656 1.46875 -1.703125 C 1.0625 -1.847656 0.765625 -2.015625 0.578125 -2.203125 C 0.390625 -2.398438 0.296875 -2.65625 0.296875 -2.96875 C 0.296875 -3.320312 0.429688 -3.609375 0.703125 -3.828125 C 0.972656 -4.054688 1.34375 -4.171875 1.8125 -4.171875 C 2.269531 -4.171875 2.691406 -4.0625 3.078125 -3.84375 L 2.984375 -2.984375 C 2.773438 -3.117188 2.578125 -3.222656 2.390625 -3.296875 C 2.210938 -3.378906 2.023438 -3.421875 1.828125 -3.421875 C 1.648438 -3.421875 1.515625 -3.382812 1.421875 -3.3125 C 1.328125 -3.25 1.28125 -3.148438 1.28125 -3.015625 C 1.28125 -2.910156 1.304688 -2.820312 1.359375 -2.75 C 1.421875 -2.6875 1.5 -2.628906 1.59375 -2.578125 C 1.695312 -2.535156 1.867188 -2.46875 2.109375 -2.375 C 2.515625 -2.21875 2.800781 -2.046875 2.96875 -1.859375 C 3.144531 -1.679688 3.234375 -1.441406 3.234375 -1.140625 C 3.234375 -0.753906 3.09375 -0.453125 2.8125 -0.234375 C 2.539062 -0.0234375 2.148438 0.078125 1.640625 0.078125 Z M 1.640625 0.078125 "/></g></g></g><g fill="#ffffff" fill-opacity="1"><g transform="translate(42.993998, 61.185494)"><g><path d="M 5 -4.6875 C 5 -4.40625 4.910156 -4.160156 4.734375 -3.953125 C 4.554688 -3.742188 4.320312 -3.59375 4.03125 -3.5 L 4.03125 0 L 3.09375 0 L 3.078125 -0.25 C 2.953125 -0.15625 2.804688 -0.078125 2.640625 -0.015625 C 2.472656 0.046875 2.316406 0.078125 2.171875 0.078125 C 1.566406 0.078125 1.125 -0.09375 0.84375 -0.4375 C 0.570312 -0.789062 0.4375 -1.273438 0.4375 -1.890625 L 0.4375 -4.078125 L 1.453125 -4.078125 L 1.453125 -1.890625 C 1.453125 -1.503906 1.515625 -1.21875 1.640625 -1.03125 C 1.765625 -0.851562 1.96875 -0.765625 2.25 -0.765625 C 2.570312 -0.765625 2.832031 -0.878906 3.03125 -1.109375 L 3.03125 -4.078125 L 3.484375 -4.078125 C 3.921875 -4.078125 4.140625 -4.28125 4.140625 -4.6875 Z M 1.828125 0.65625 L 2.671875 0.65625 L 2.671875 1.453125 L 1.828125 1.453125 Z M 1.828125 0.65625 "/></g></g></g><g fill="#ffffff" fill-opacity="1"><g transform="translate(47.50187, 61.185494)"><g/></g></g><g fill="#ffffff" fill-opacity="1"><g transform="translate(49.339312, 61.185494)"><g><path d="M 2.375 0.078125 C 1.914062 0.078125 1.523438 -0.015625 1.203125 -0.203125 C 0.878906 -0.390625 0.632812 -0.644531 0.46875 -0.96875 C 0.3125 -1.289062 0.234375 -1.644531 0.234375 -2.03125 C 0.234375 -2.425781 0.3125 -2.785156 0.46875 -3.109375 C 0.632812 -3.441406 0.878906 -3.703125 1.203125 -3.890625 C 1.535156 -4.078125 1.9375 -4.171875 2.40625 -4.171875 C 2.820312 -4.171875 3.1875 -4.082031 3.5 -3.90625 L 3.421875 -3.09375 C 3.117188 -3.238281 2.8125 -3.3125 2.5 -3.3125 C 2.113281 -3.3125 1.8125 -3.191406 1.59375 -2.953125 C 1.375 -2.722656 1.265625 -2.414062 1.265625 -2.03125 C 1.265625 -1.664062 1.375 -1.359375 1.59375 -1.109375 C 1.820312 -0.867188 2.125 -0.75 2.5 -0.75 C 2.800781 -0.75 3.109375 -0.835938 3.421875 -1.015625 L 3.515625 -0.15625 C 3.367188 -0.0820312 3.195312 -0.0234375 3 0.015625 C 2.800781 0.0546875 2.59375 0.078125 2.375 0.078125 Z M 2.375 0.078125 "/></g></g></g><g fill="#ffffff" fill-opacity="1"><g transform="translate(53.055035, 61.185494)"><g><path d="M 2.328125 0.078125 C 1.898438 0.078125 1.523438 -0.015625 1.203125 -0.203125 C 0.890625 -0.390625 0.648438 -0.644531 0.484375 -0.96875 C 0.316406 -1.289062 0.234375 -1.644531 0.234375 -2.03125 C 0.234375 -2.414062 0.316406 -2.769531 0.484375 -3.09375 C 0.648438 -3.425781 0.890625 -3.6875 1.203125 -3.875 C 1.523438 -4.070312 1.898438 -4.171875 2.328125 -4.171875 C 2.753906 -4.171875 3.125 -4.070312 3.4375 -3.875 C 3.757812 -3.6875 4.003906 -3.425781 4.171875 -3.09375 C 4.335938 -2.769531 4.421875 -2.414062 4.421875 -2.03125 C 4.421875 -1.644531 4.335938 -1.289062 4.171875 -0.96875 C 4.003906 -0.644531 3.757812 -0.390625 3.4375 -0.203125 C 3.125 -0.015625 2.753906 0.078125 2.328125 0.078125 Z M 2.328125 -0.75 C 2.660156 -0.75 2.921875 -0.863281 3.109375 -1.09375 C 3.296875 -1.332031 3.390625 -1.644531 3.390625 -2.03125 C 3.390625 -2.425781 3.296875 -2.738281 3.109375 -2.96875 C 2.921875 -3.207031 2.660156 -3.328125 2.328125 -3.328125 C 1.992188 -3.328125 1.734375 -3.207031 1.546875 -2.96875 C 1.359375 -2.738281 1.265625 -2.425781 1.265625 -2.03125 C 1.265625 -1.644531 1.359375 -1.332031 1.546875 -1.09375 C 1.734375 -0.863281 1.992188 -0.75 2.328125 -0.75 Z M 3.484375 -6.71875 L 4.421875 -6.71875 L 3.59375 -5.6875 L 2.953125 -5.6875 Z M 1.25 -5.0625 L 2.328125 -5.8125 L 3.40625 -5.0625 L 3.40625 -4.453125 L 2.328125 -5.046875 L 1.25 -4.453125 Z M 1.25 -5.0625 "/></g></g></g><g fill="#ffffff" fill-opacity="1"><g transform="translate(57.709899, 61.185494)"><g/></g></g><g fill="#ffffff" fill-opacity="1"><g transform="translate(59.547341, 61.185494)"><g><path d="M 5.0625 -4.15625 C 5.601562 -4.15625 6.003906 -3.988281 6.265625 -3.65625 C 6.535156 -3.320312 6.671875 -2.859375 6.671875 -2.265625 L 6.671875 0 L 5.65625 0 L 5.65625 -2.203125 C 5.65625 -2.585938 5.59375 -2.867188 5.46875 -3.046875 C 5.351562 -3.222656 5.160156 -3.3125 4.890625 -3.3125 C 4.617188 -3.3125 4.414062 -3.21875 4.28125 -3.03125 C 4.144531 -2.851562 4.078125 -2.597656 4.078125 -2.265625 L 4.078125 0 L 3.0625 0 L 3.0625 -2.203125 C 3.0625 -2.585938 3 -2.867188 2.875 -3.046875 C 2.75 -3.222656 2.550781 -3.3125 2.28125 -3.3125 C 1.957031 -3.3125 1.691406 -3.195312 1.484375 -2.96875 L 1.484375 0 L 0.46875 0 L 0.46875 -4.078125 L 1.34375 -4.078125 L 1.375 -3.765625 C 1.738281 -4.023438 2.140625 -4.15625 2.578125 -4.15625 C 3.097656 -4.15625 3.488281 -3.96875 3.75 -3.59375 C 3.882812 -3.769531 4.066406 -3.90625 4.296875 -4 C 4.523438 -4.101562 4.78125 -4.15625 5.0625 -4.15625 Z M 5.0625 -4.15625 "/></g></g></g><g fill="#ffffff" fill-opacity="1"><g transform="translate(66.643966, 61.185494)"><g><path d="M 1.359375 0.078125 C 1.015625 0.078125 0.726562 -0.03125 0.5 -0.25 C 0.28125 -0.46875 0.171875 -0.765625 0.171875 -1.140625 C 0.171875 -1.492188 0.296875 -1.78125 0.546875 -2 C 0.804688 -2.21875 1.109375 -2.367188 1.453125 -2.453125 C 1.804688 -2.546875 2.144531 -2.597656 2.46875 -2.609375 C 2.457031 -2.847656 2.394531 -3.019531 2.28125 -3.125 C 2.164062 -3.226562 1.984375 -3.28125 1.734375 -3.28125 C 1.554688 -3.28125 1.378906 -3.253906 1.203125 -3.203125 C 1.035156 -3.148438 0.835938 -3.070312 0.609375 -2.96875 L 0.515625 -3.796875 C 1.015625 -4.035156 1.515625 -4.15625 2.015625 -4.15625 C 2.492188 -4.15625 2.859375 -4.019531 3.109375 -3.75 C 3.359375 -3.488281 3.484375 -3.078125 3.484375 -2.515625 L 3.484375 -1.40625 C 3.484375 -1.195312 3.492188 -1.046875 3.515625 -0.953125 C 3.535156 -0.867188 3.566406 -0.8125 3.609375 -0.78125 C 3.660156 -0.757812 3.738281 -0.75 3.84375 -0.75 L 3.984375 -0.75 L 3.890625 0.078125 L 3.515625 0.078125 C 3.296875 0.078125 3.109375 0.0351562 2.953125 -0.046875 C 2.804688 -0.128906 2.691406 -0.242188 2.609375 -0.390625 C 2.472656 -0.242188 2.289062 -0.128906 2.0625 -0.046875 C 1.84375 0.0351562 1.609375 0.078125 1.359375 0.078125 Z M 1.78125 -0.6875 C 1.882812 -0.6875 2 -0.710938 2.125 -0.765625 C 2.257812 -0.816406 2.375 -0.890625 2.46875 -0.984375 L 2.46875 -1.921875 C 2.144531 -1.898438 1.859375 -1.828125 1.609375 -1.703125 C 1.359375 -1.578125 1.234375 -1.40625 1.234375 -1.1875 C 1.234375 -1.019531 1.273438 -0.894531 1.359375 -0.8125 C 1.453125 -0.726562 1.59375 -0.6875 1.78125 -0.6875 Z M 1.21875 -5.296875 L 2.828125 -6.21875 L 2.828125 -5.28125 L 1.21875 -4.65625 Z M 1.21875 -5.296875 "/></g></g></g><g fill="#ffffff" fill-opacity="1"><g transform="translate(70.710844, 61.185494)"><g><path d="M 1.703125 -0.265625 L 0.015625 -4.078125 L 1.140625 -4.078125 L 2.1875 -1.453125 L 3.25 -4.078125 L 4.375 -4.078125 L 1.8125 1.984375 L 0.796875 1.984375 Z M 1.703125 -0.265625 "/></g></g></g><g fill="#ffffff" fill-opacity="1"><g transform="translate(75.09622, 61.185494)"><g/></g></g><g fill="#ffffff" fill-opacity="1"><g transform="translate(76.933662, 61.185494)"><g><path d="M 1.8125 0.078125 C 1.445312 0.078125 1.171875 -0.0234375 0.984375 -0.234375 C 0.804688 -0.441406 0.71875 -0.691406 0.71875 -0.984375 L 0.71875 -3.25 L 0.125 -3.25 L 0.21875 -4.078125 L 0.71875 -4.078125 L 0.71875 -4.984375 L 1.71875 -5.09375 L 1.71875 -4.078125 L 2.625 -4.078125 L 2.625 -3.25 L 1.71875 -3.25 L 1.71875 -1.40625 C 1.71875 -1.1875 1.726562 -1.035156 1.75 -0.953125 C 1.78125 -0.867188 1.832031 -0.8125 1.90625 -0.78125 C 1.988281 -0.757812 2.132812 -0.75 2.34375 -0.75 L 2.625 -0.75 L 2.53125 0.078125 Z M 1.8125 0.078125 "/></g></g></g><g fill="#ffffff" fill-opacity="1"><g transform="translate(79.742912, 61.185494)"><g><path d="M 0.46875 -4.078125 L 1.484375 -4.078125 L 1.484375 0 L 0.46875 0 Z M 0.1875 -5.296875 L 1.796875 -6.21875 L 1.796875 -5.28125 L 0.1875 -4.65625 Z M 0.1875 -5.296875 "/></g></g></g><g fill="#ffffff" fill-opacity="1"><g transform="translate(81.70286, 61.185494)"><g><path d="M 2.53125 -4.15625 C 3.039062 -4.15625 3.425781 -3.984375 3.6875 -3.640625 C 3.945312 -3.304688 4.078125 -2.851562 4.078125 -2.28125 L 4.078125 0 L 3.0625 0 L 3.0625 -2.203125 C 3.0625 -2.578125 3 -2.851562 2.875 -3.03125 C 2.75 -3.21875 2.539062 -3.3125 2.25 -3.3125 C 1.945312 -3.3125 1.691406 -3.195312 1.484375 -2.96875 L 1.484375 0 L 0.46875 0 L 0.46875 -4.078125 L 1.421875 -4.078125 L 1.4375 -3.796875 C 1.78125 -4.035156 2.144531 -4.15625 2.53125 -4.15625 Z M 2.53125 -4.15625 "/></g></g></g><g fill="#ffffff" fill-opacity="1"><g transform="translate(86.210731, 61.185494)"><g><path d="M 2.53125 -4.15625 C 3.050781 -4.15625 3.4375 -3.984375 3.6875 -3.640625 C 3.9375 -3.304688 4.0625 -2.847656 4.0625 -2.265625 L 4.0625 0 L 3.0625 0 L 3.0625 -2.203125 C 3.0625 -2.585938 3 -2.867188 2.875 -3.046875 C 2.75 -3.222656 2.546875 -3.3125 2.265625 -3.3125 C 1.953125 -3.3125 1.691406 -3.195312 1.484375 -2.96875 L 1.484375 0 L 0.46875 0 L 0.46875 -6.125 L 1.484375 -6.125 L 1.484375 -3.828125 C 1.640625 -3.929688 1.800781 -4.007812 1.96875 -4.0625 C 2.144531 -4.125 2.332031 -4.15625 2.53125 -4.15625 Z M 2.53125 -4.15625 "/></g></g></g></svg>