<svg xmlns="http://www.w3.org/2000/svg" xmlns:xlink="http://www.w3.org/1999/xlink" width="132" zoomAndPan="magnify" viewBox="0 0 98.88 70.499998" height="94" preserveAspectRatio="xMidYMid meet" version="1.0"><defs><g/><clipPath id="6bfca77dd4"><path d="M 32 6.632812 L 79.542969 6.632812 L 79.542969 48.894531 L 32 48.894531 Z M 32 6.632812 " clip-rule="nonzero"/></clipPath><clipPath id="977e5db202"><path d="M 19.328125 11 L 43.960938 11 L 43.960938 48.894531 L 19.328125 48.894531 Z M 19.328125 11 " clip-rule="nonzero"/></clipPath></defs><path fill="#ffffff" d="M 49.417969 31 C 49.429688 31.007812 49.433594 31.011719 49.441406 31.011719 L 49.429688 31.023438 C 49.472656 31.0625 49.382812 30.96875 49.417969 31.007812 Z M 50.679688 29.308594 C 50.679688 29.3125 50.6875 29.3125 50.6875 29.316406 L 51.261719 29.980469 C 51.257812 30.011719 51.257812 30.042969 51.253906 30.078125 L 50.316406 30.875 C 50.121094 31.039062 49.824219 31.007812 49.617188 30.820312 C 49.609375 30.820312 49.609375 30.816406 49.605469 30.816406 C 49.519531 30.714844 49.492188 30.585938 49.503906 30.449219 C 49.515625 30.316406 49.570312 30.1875 49.664062 30.105469 L 50.59375 29.316406 C 50.621094 29.316406 50.652344 29.3125 50.679688 29.308594 Z M 52.660156 27.558594 C 52.691406 27.5625 52.71875 27.5625 52.742188 27.5625 L 53.332031 28.25 C 53.347656 28.265625 53.363281 28.28125 53.390625 28.285156 C 53.359375 28.292969 53.335938 28.300781 53.320312 28.316406 L 52.007812 29.441406 C 51.972656 29.433594 51.941406 29.429688 51.910156 29.429688 L 51.925781 29.417969 L 51.359375 28.761719 C 51.359375 28.75 51.359375 28.734375 51.359375 28.722656 C 51.359375 28.703125 51.359375 28.679688 51.359375 28.660156 Z M 54.421875 26.0625 C 54.449219 26.0625 54.476562 26.066406 54.507812 26.066406 L 55.089844 26.75 C 55.097656 26.761719 55.105469 26.769531 55.117188 26.773438 C 55.117188 26.785156 55.117188 26.789062 55.117188 26.800781 C 55.101562 26.804688 55.085938 26.816406 55.074219 26.820312 L 54.914062 26.964844 C 54.914062 26.972656 54.914062 26.972656 54.914062 26.976562 L 54.894531 26.988281 L 54.066406 27.683594 C 54.058594 27.691406 54.046875 27.703125 54.042969 27.714844 C 54.03125 27.714844 54.027344 27.714844 54.023438 27.714844 C 54.015625 27.714844 54.015625 27.714844 54.015625 27.714844 C 54.011719 27.699219 54.003906 27.683594 53.996094 27.671875 L 53.417969 27.011719 C 53.421875 26.992188 53.421875 26.976562 53.421875 26.953125 C 53.421875 26.9375 53.421875 26.929688 53.417969 26.910156 Z M 57.238281 21.164062 L 58.46875 25.789062 C 58.46875 25.792969 58.492188 25.835938 58.492188 25.84375 C 58.492188 25.84375 58.507812 25.84375 58.507812 25.84375 C 58.535156 25.90625 58.566406 25.957031 58.609375 25.992188 C 58.625 26.007812 58.640625 26.015625 58.65625 26.023438 L 58.65625 26.035156 C 58.65625 26.035156 58.664062 26.035156 58.667969 26.035156 C 58.667969 26.039062 58.667969 26.039062 58.667969 26.046875 C 58.671875 26.050781 58.6875 26.058594 58.699219 26.066406 C 58.703125 26.074219 58.714844 26.082031 58.714844 26.089844 C 58.722656 26.089844 58.753906 26.09375 58.765625 26.097656 C 58.84375 26.117188 58.882812 26.089844 58.898438 26.078125 L 58.90625 26.078125 C 58.917969 26.074219 58.933594 26.078125 58.933594 26.078125 C 58.945312 26.074219 58.96875 26.078125 58.96875 26.078125 C 58.96875 26.078125 58.972656 26.078125 58.972656 26.078125 C 59.070312 26.046875 59.128906 25.980469 59.164062 25.929688 L 59.164062 25.917969 C 59.171875 25.914062 59.175781 25.894531 59.1875 25.886719 C 59.191406 25.878906 59.191406 25.878906 59.195312 25.875 C 59.195312 25.875 59.195312 25.871094 59.195312 25.863281 C 59.203125 25.859375 59.207031 25.855469 59.207031 25.855469 C 59.210938 25.847656 59.238281 25.816406 59.238281 25.8125 C 59.238281 25.8125 59.238281 25.804688 59.238281 25.800781 L 60.105469 22.417969 L 61.066406 24.246094 C 61.074219 24.25 61.074219 24.253906 61.078125 24.253906 C 61.109375 24.308594 61.144531 24.324219 61.167969 24.335938 C 61.195312 24.351562 61.207031 24.363281 61.203125 24.355469 C 61.203125 24.363281 61.207031 24.363281 61.210938 24.367188 C 61.269531 24.410156 61.347656 24.425781 61.414062 24.425781 C 61.453125 24.429688 61.488281 24.425781 61.53125 24.414062 C 61.550781 24.414062 61.558594 24.410156 61.574219 24.40625 C 61.582031 24.40625 61.589844 24.398438 61.597656 24.394531 C 61.613281 24.394531 61.625 24.382812 61.640625 24.378906 C 61.671875 24.367188 61.703125 24.371094 61.746094 24.3125 L 62.9375 22.941406 L 64.933594 22.929688 C 64.539062 25.734375 62.007812 27.820312 59.152344 27.589844 C 56.585938 27.382812 54.578125 25.425781 54.230469 22.949219 L 56.03125 22.949219 C 56.039062 22.949219 56.097656 22.945312 56.101562 22.941406 C 56.105469 22.941406 56.132812 22.925781 56.144531 22.917969 L 56.144531 22.914062 C 56.160156 22.902344 56.1875 22.898438 56.203125 22.890625 C 56.214844 22.886719 56.21875 22.882812 56.222656 22.882812 C 56.25 22.859375 56.292969 22.839844 56.324219 22.800781 C 56.332031 22.796875 56.34375 22.789062 56.359375 22.78125 C 56.363281 22.773438 56.375 22.761719 56.375 22.757812 C 56.378906 22.757812 56.394531 22.730469 56.394531 22.726562 Z M 60 16.777344 L 60.007812 16.78125 C 60.015625 16.78125 60.015625 16.78125 60.019531 16.78125 C 62.875 17.015625 64.960938 19.390625 64.96875 22.152344 L 62.757812 22.164062 L 62.746094 22.164062 C 62.65625 22.164062 62.601562 22.207031 62.585938 22.214844 C 62.582031 22.21875 62.546875 22.246094 62.527344 22.253906 L 62.511719 22.253906 C 62.511719 22.261719 62.507812 22.261719 62.5 22.265625 C 62.5 22.265625 62.488281 22.277344 62.472656 22.289062 C 62.464844 22.292969 62.453125 22.296875 62.453125 22.296875 L 61.511719 23.390625 L 60.328125 21.171875 C 60.324219 21.164062 60.324219 21.160156 60.320312 21.15625 L 60.304688 21.132812 L 60.289062 21.121094 C 60.253906 21.085938 60.21875 21.042969 60.1875 21.019531 L 60.175781 21.015625 C 60.167969 21.011719 60.152344 21 60.144531 20.992188 C 60.136719 20.988281 60.125 20.984375 60.125 20.984375 C 60.121094 20.984375 60.105469 20.972656 60.105469 20.972656 L 60.09375 20.960938 C 60.089844 20.957031 60.074219 20.957031 60.074219 20.953125 C 60.066406 20.953125 60.066406 20.953125 60.0625 20.953125 C 59.847656 20.898438 59.640625 21.03125 59.585938 21.246094 L 58.847656 24.144531 L 57.746094 20.019531 C 57.746094 20.019531 57.742188 20.015625 57.738281 20.011719 L 57.726562 19.988281 C 57.722656 19.976562 57.710938 19.96875 57.707031 19.960938 C 57.671875 19.882812 57.625 19.800781 57.542969 19.757812 C 57.359375 19.652344 57.113281 19.726562 57.011719 19.917969 L 55.796875 22.175781 L 54.1875 22.175781 C 54.183594 22.03125 54.171875 21.882812 54.183594 21.746094 C 54.421875 18.738281 57.042969 16.550781 60 16.777344 Z M 60.089844 15.839844 C 56.554688 15.558594 53.519531 18.1875 53.242188 21.667969 C 53.230469 21.84375 53.230469 22.011719 53.230469 22.175781 L 48.691406 22.175781 C 48.472656 22.175781 48.308594 22.355469 48.308594 22.570312 C 48.3125 22.785156 48.488281 22.949219 48.703125 22.949219 L 53.277344 22.949219 C 53.375 23.742188 53.589844 24.507812 53.945312 25.183594 C 53.953125 25.203125 53.953125 25.222656 53.957031 25.238281 C 53.953125 25.242188 53.941406 25.25 53.929688 25.253906 L 52.277344 26.660156 L 49.054688 29.410156 C 48.730469 29.6875 48.605469 30.023438 48.578125 30.375 C 48.546875 30.734375 48.671875 31.15625 48.898438 31.429688 C 49.414062 32.027344 50.316406 32.09375 50.914062 31.578125 L 53.851562 29.089844 C 53.855469 29.125 53.878906 29.15625 53.910156 29.179688 C 55.335938 30.328125 57.117188 31.035156 58.949219 31.15625 C 60.832031 31.28125 62.746094 30.792969 64.34375 29.78125 C 65.882812 28.804688 67.085938 27.34375 67.792969 25.667969 C 67.851562 25.644531 67.898438 25.613281 67.9375 25.570312 C 67.9375 25.570312 67.9375 25.570312 67.941406 25.570312 L 68.214844 25.582031 C 68.347656 25.585938 68.476562 25.515625 68.550781 25.410156 C 68.628906 25.296875 68.644531 25.148438 68.578125 25.023438 L 67.855469 23.4375 C 67.816406 23.351562 67.738281 23.292969 67.664062 23.253906 L 67.648438 23.253906 C 67.605469 23.234375 67.558594 23.230469 67.519531 23.222656 C 67.46875 23.222656 67.425781 23.222656 67.375 23.238281 C 67.316406 23.253906 67.269531 23.308594 67.214844 23.363281 C 67.214844 23.363281 67.210938 23.367188 67.203125 23.367188 C 67.195312 23.378906 67.183594 23.390625 67.179688 23.398438 C 67.171875 23.40625 67.167969 23.398438 67.167969 23.398438 C 67.167969 23.40625 67.167969 23.40625 67.167969 23.410156 L 66.238281 24.875 C 66.167969 24.988281 66.140625 25.136719 66.207031 25.269531 C 66.257812 25.382812 66.371094 25.4375 66.488281 25.464844 C 66.503906 25.472656 66.519531 25.480469 66.535156 25.484375 C 66.542969 25.484375 66.546875 25.484375 66.554688 25.484375 L 66.632812 25.488281 C 66.671875 25.53125 66.722656 25.574219 66.78125 25.601562 C 66.773438 25.613281 66.761719 25.628906 66.757812 25.644531 C 66.285156 26.625 65.648438 27.53125 64.835938 28.25 C 63.253906 29.632812 61.109375 30.367188 59.015625 30.230469 C 57.421875 30.125 55.871094 29.503906 54.609375 28.519531 C 54.59375 28.503906 54.578125 28.5 54.554688 28.488281 L 55.84375 27.402344 C 55.855469 27.402344 55.867188 27.402344 55.871094 27.402344 C 55.894531 27.402344 55.917969 27.402344 55.941406 27.398438 C 56.828125 28.039062 57.945312 28.429688 59.078125 28.519531 C 62.53125 28.800781 65.472656 26.296875 65.878906 22.945312 L 70.09375 22.933594 C 70.300781 22.933594 70.476562 22.761719 70.476562 22.554688 C 70.476562 22.339844 70.3125 22.160156 70.09375 22.160156 L 65.910156 22.160156 C 65.90625 18.855469 63.410156 16.109375 60.101562 15.847656 Z M 59.382812 13.222656 C 57.644531 13.257812 55.914062 13.804688 54.480469 14.78125 C 52.894531 15.867188 51.667969 17.488281 51.042969 19.304688 C 51.042969 19.316406 51.042969 19.324219 51.042969 19.335938 C 50.996094 19.347656 50.949219 19.363281 50.90625 19.378906 L 50.6875 19.367188 C 50.679688 19.367188 50.675781 19.367188 50.667969 19.367188 C 50.53125 19.359375 50.398438 19.410156 50.316406 19.527344 C 50.316406 19.535156 50.316406 19.535156 50.316406 19.539062 C 50.238281 19.652344 50.230469 19.792969 50.285156 19.914062 C 50.285156 19.917969 50.285156 19.917969 50.285156 19.925781 L 51.011719 21.492188 L 51.015625 21.484375 C 51.027344 21.511719 51.039062 21.539062 51.066406 21.5625 C 51.109375 21.621094 51.160156 21.667969 51.214844 21.6875 C 51.269531 21.714844 51.316406 21.722656 51.359375 21.722656 C 51.402344 21.726562 51.449219 21.726562 51.5 21.710938 C 51.59375 21.683594 51.664062 21.613281 51.707031 21.539062 L 52.640625 20.0625 C 52.710938 19.953125 52.722656 19.800781 52.660156 19.679688 C 52.59375 19.5625 52.472656 19.480469 52.332031 19.46875 L 52.234375 19.464844 C 52.1875 19.4375 52.128906 19.417969 52.058594 19.394531 C 52.054688 19.375 52.050781 19.351562 52.042969 19.332031 C 52.050781 19.324219 52.054688 19.316406 52.058594 19.304688 C 52.53125 18.105469 53.269531 17.007812 54.234375 16.15625 C 55.8125 14.769531 57.960938 14.039062 60.0625 14.171875 C 62.160156 14.3125 64.183594 15.320312 65.570312 16.90625 C 65.773438 17.140625 65.960938 17.386719 66.136719 17.648438 C 66.171875 17.710938 66.253906 17.734375 66.316406 17.695312 C 66.328125 17.691406 66.332031 17.683594 66.339844 17.679688 L 66.863281 17.234375 C 66.917969 17.1875 66.925781 17.113281 66.882812 17.054688 C 66.167969 16.03125 65.230469 15.167969 64.167969 14.519531 C 62.945312 13.78125 61.550781 13.339844 60.121094 13.242188 C 59.882812 13.226562 59.628906 13.222656 59.378906 13.226562 L 59.382812 13.222656 " fill-opacity="1" fill-rule="nonzero"/><g clip-path="url(#6bfca77dd4)"><path fill="#ffffff" d="M 46.84375 45.21875 L 65.554688 45.21875 L 65.554688 46.867188 L 46.84375 46.867188 Z M 50.933594 39.882812 L 61.457031 39.882812 L 61.457031 43.90625 L 50.933594 43.90625 Z M 36.429688 9.496094 C 36 9.496094 35.660156 9.84375 35.660156 10.265625 L 35.660156 12.054688 L 36.953125 12.054688 L 36.953125 10.800781 L 75.433594 10.800781 L 75.433594 33.972656 L 43.101562 33.972656 L 43.101562 35.285156 L 75.96875 35.285156 C 76.390625 35.285156 76.738281 34.9375 76.738281 34.507812 L 76.738281 10.265625 C 76.738281 9.84375 76.390625 9.496094 75.96875 9.496094 Z M 35.558594 6.640625 C 34.054688 6.640625 32.847656 7.84375 32.847656 9.34375 L 32.847656 12.054688 L 34.160156 12.054688 L 34.160156 9.34375 C 34.160156 8.542969 34.761719 7.945312 35.5625 7.945312 L 76.839844 7.945312 C 77.636719 7.945312 78.234375 8.542969 78.234375 9.34375 L 78.234375 37.175781 C 78.234375 37.976562 77.636719 38.578125 76.839844 38.578125 L 43.101562 38.578125 L 43.101562 39.882812 L 49.628906 39.882812 L 49.628906 43.90625 L 46.191406 43.90625 C 45.828125 43.90625 45.53125 44.199219 45.53125 44.566406 L 45.53125 47.519531 C 45.53125 47.882812 45.828125 48.179688 46.191406 48.179688 L 66.207031 48.179688 C 66.570312 48.179688 66.859375 47.882812 66.859375 47.519531 L 66.859375 44.566406 C 66.859375 44.199219 66.570312 43.90625 66.207031 43.90625 L 62.761719 43.90625 L 62.761719 39.882812 L 76.839844 39.882812 C 78.335938 39.882812 79.542969 38.679688 79.542969 37.175781 L 79.542969 9.34375 C 79.542969 7.84375 78.335938 6.640625 76.839844 6.640625 L 35.558594 6.640625 " fill-opacity="1" fill-rule="nonzero"/></g><path fill="#ffffff" d="M 31.484375 44.4375 C 30.820312 44.441406 30.285156 44.976562 30.28125 45.640625 C 30.28125 46.300781 30.820312 46.84375 31.484375 46.847656 C 32.144531 46.847656 32.6875 46.308594 32.6875 45.640625 C 32.6875 44.976562 32.144531 44.4375 31.484375 44.4375 " fill-opacity="1" fill-rule="nonzero"/><g clip-path="url(#977e5db202)"><path fill="#ffffff" d="M 23.296875 15.214844 L 39.667969 15.214844 C 39.714844 15.214844 39.726562 15.226562 39.726562 15.273438 L 39.726562 42.179688 C 39.726562 42.226562 39.714844 42.238281 39.667969 42.238281 L 23.296875 42.238281 C 23.25 42.238281 23.246094 42.226562 23.246094 42.179688 L 23.246094 15.273438 C 23.246094 15.226562 23.25 15.214844 23.296875 15.214844 Z M 23.296875 14.015625 C 22.609375 14.015625 22.046875 14.574219 22.046875 15.261719 L 22.046875 42.1875 C 22.046875 42.875 22.609375 43.429688 23.296875 43.429688 L 39.667969 43.429688 C 40.363281 43.429688 40.925781 42.875 40.925781 42.1875 L 40.925781 15.261719 C 40.925781 14.574219 40.363281 14.015625 39.667969 14.015625 Z M 22.050781 13.136719 L 40.917969 13.136719 C 41.78125 13.136719 42.429688 13.78125 42.429688 14.636719 L 42.429688 46.167969 C 42.429688 47.023438 41.773438 47.679688 40.917969 47.679688 L 22.050781 47.679688 C 21.199219 47.679688 20.539062 47.023438 20.539062 46.167969 L 20.539062 14.636719 C 20.539062 13.78125 21.191406 13.136719 22.050781 13.136719 Z M 22.050781 11.917969 C 20.546875 11.917969 19.328125 13.128906 19.328125 14.636719 L 19.328125 46.171875 C 19.328125 47.679688 20.546875 48.894531 22.050781 48.894531 L 40.917969 48.894531 C 42.425781 48.894531 43.644531 47.679688 43.644531 46.171875 L 43.644531 14.636719 C 43.644531 13.128906 42.425781 11.917969 40.917969 11.917969 L 22.050781 11.917969 " fill-opacity="1" fill-rule="nonzero"/></g><path fill="#ffffff" d="M 31.128906 32.113281 C 31.125 32.117188 31.101562 32.136719 31.078125 32.152344 C 31.09375 32.144531 31.113281 32.128906 31.113281 32.128906 C 31.113281 32.128906 31.121094 32.125 31.128906 32.113281 Z M 34.175781 28.292969 C 34.171875 28.292969 34.160156 28.300781 34.160156 28.300781 C 34.160156 28.300781 34.171875 28.296875 34.175781 28.292969 Z M 31.300781 31.957031 C 31.3125 31.941406 31.300781 31.964844 31.316406 31.933594 C 31.316406 31.925781 31.316406 31.925781 31.316406 31.921875 C 31.304688 31.953125 31.304688 31.949219 31.300781 31.957031 Z M 29.488281 25.890625 C 29.417969 25.878906 29.34375 25.886719 29.273438 25.90625 C 29.136719 25.949219 29.011719 26.046875 28.945312 26.175781 L 27.851562 28.191406 L 22.960938 28.191406 L 22.960938 29.296875 L 28.171875 29.292969 C 28.257812 29.292969 28.3125 29.265625 28.34375 29.25 C 28.378906 29.238281 28.410156 29.222656 28.417969 29.222656 C 28.425781 29.214844 28.4375 29.210938 28.441406 29.207031 C 28.480469 29.191406 28.546875 29.136719 28.605469 29.0625 C 28.605469 29.0625 28.613281 29.054688 28.617188 29.054688 C 28.640625 29.035156 28.65625 29.027344 28.675781 28.992188 L 28.675781 28.988281 L 29.25 27.929688 L 30.289062 31.8125 C 30.308594 31.894531 30.34375 31.925781 30.375 31.953125 C 30.410156 32.007812 30.445312 32.070312 30.472656 32.097656 C 30.476562 32.097656 30.476562 32.097656 30.476562 32.097656 C 30.476562 32.097656 30.515625 32.117188 30.527344 32.128906 C 30.527344 32.128906 30.53125 32.136719 30.53125 32.136719 C 30.554688 32.15625 30.601562 32.203125 30.691406 32.230469 C 30.804688 32.257812 30.820312 32.238281 30.859375 32.21875 C 30.851562 32.21875 30.839844 32.21875 30.832031 32.21875 C 30.847656 32.21875 30.890625 32.214844 30.933594 32.214844 C 30.941406 32.214844 30.96875 32.214844 30.96875 32.214844 C 30.96875 32.214844 30.992188 32.199219 31 32.195312 C 31.0625 32.171875 31.097656 32.128906 31.144531 32.09375 C 31.144531 32.09375 31.144531 32.085938 31.144531 32.085938 L 31.152344 32.085938 C 31.1875 32.050781 31.246094 32.027344 31.273438 31.996094 C 31.269531 32 31.285156 31.976562 31.289062 31.96875 C 31.289062 31.96875 31.296875 31.957031 31.300781 31.957031 C 31.316406 31.9375 31.347656 31.898438 31.371094 31.832031 L 32.058594 29.121094 L 32.746094 30.410156 C 32.824219 30.5625 32.941406 30.59375 32.925781 30.585938 C 32.992188 30.632812 33.101562 30.671875 33.203125 30.675781 C 33.242188 30.679688 33.269531 30.671875 33.304688 30.664062 C 33.355469 30.660156 33.40625 30.660156 33.441406 30.648438 L 33.433594 30.65625 C 33.433594 30.65625 33.445312 30.65625 33.445312 30.65625 C 33.457031 30.648438 33.472656 30.636719 33.480469 30.632812 C 33.480469 30.632812 33.519531 30.605469 33.546875 30.589844 C 33.585938 30.578125 33.605469 30.589844 33.679688 30.503906 L 34.738281 29.28125 L 40.027344 29.273438 L 40.027344 28.171875 L 34.492188 28.179688 C 34.492188 28.179688 34.476562 28.183594 34.472656 28.183594 C 34.457031 28.183594 34.464844 28.191406 34.449219 28.191406 C 34.363281 28.199219 34.34375 28.214844 34.328125 28.226562 C 34.316406 28.234375 34.261719 28.25 34.269531 28.242188 C 34.261719 28.25 34.257812 28.25 34.253906 28.253906 C 34.261719 28.25 34.21875 28.273438 34.21875 28.273438 L 34.214844 28.273438 C 34.210938 28.269531 34.183594 28.273438 34.109375 28.34375 C 34.074219 28.371094 34.042969 28.402344 34.042969 28.402344 L 33.355469 29.195312 L 32.375 27.34375 C 32.371094 27.335938 32.363281 27.324219 32.359375 27.3125 C 32.359375 27.3125 32.347656 27.308594 32.347656 27.308594 L 32.359375 27.328125 C 32.347656 27.308594 32.328125 27.292969 32.3125 27.269531 C 32.300781 27.265625 32.300781 27.257812 32.296875 27.253906 C 32.230469 27.179688 32.15625 27.121094 32.066406 27.089844 C 32.066406 27.082031 32.066406 27.082031 32.058594 27.082031 C 32.054688 27.082031 32.054688 27.074219 32.054688 27.074219 C 32.042969 27.074219 32.039062 27.066406 32.035156 27.066406 C 32.027344 27.066406 32.027344 27.066406 32.027344 27.066406 C 32.019531 27.0625 32.011719 27.054688 32.007812 27.054688 C 32 27.050781 31.992188 27.0625 31.984375 27.0625 C 31.980469 27.0625 31.980469 27.0625 31.976562 27.0625 C 31.695312 27.007812 31.414062 27.179688 31.34375 27.457031 L 30.820312 29.488281 L 29.976562 26.3125 C 29.96875 26.308594 29.96875 26.300781 29.964844 26.300781 C 29.964844 26.296875 29.953125 26.269531 29.933594 26.242188 C 29.890625 26.125 29.816406 26.019531 29.691406 25.957031 C 29.632812 25.917969 29.5625 25.894531 29.488281 25.890625 " fill-opacity="1" fill-rule="nonzero"/><g fill="#ffffff" fill-opacity="1"><g transform="translate(9.257614, 61.190108)"><g><path d="M 0.625 -5.71875 L 1.671875 -5.71875 L 1.671875 -3.453125 L 4.296875 -3.453125 L 4.296875 -5.71875 L 5.34375 -5.71875 L 5.34375 0 L 4.296875 0 L 4.296875 -2.46875 L 1.671875 -2.46875 L 1.671875 0 L 0.625 0 Z M 0.625 -5.71875 "/></g></g></g><g fill="#ffffff" fill-opacity="1"><g transform="translate(15.220154, 61.190108)"><g><path d="M 2.4375 0.078125 C 1.96875 0.078125 1.566406 -0.015625 1.234375 -0.203125 C 0.898438 -0.398438 0.648438 -0.660156 0.484375 -0.984375 C 0.316406 -1.304688 0.234375 -1.664062 0.234375 -2.0625 C 0.234375 -2.445312 0.3125 -2.796875 0.46875 -3.109375 C 0.625 -3.429688 0.851562 -3.6875 1.15625 -3.875 C 1.457031 -4.0625 1.8125 -4.15625 2.21875 -4.15625 C 2.601562 -4.15625 2.925781 -4.070312 3.1875 -3.90625 C 3.457031 -3.75 3.65625 -3.535156 3.78125 -3.265625 C 3.914062 -3.003906 3.984375 -2.707031 3.984375 -2.375 C 3.984375 -2.21875 3.960938 -2.035156 3.921875 -1.828125 L 1.28125 -1.828125 C 1.332031 -1.460938 1.472656 -1.191406 1.703125 -1.015625 C 1.929688 -0.835938 2.207031 -0.75 2.53125 -0.75 C 2.96875 -0.75 3.378906 -0.863281 3.765625 -1.09375 L 3.8125 -0.234375 C 3.632812 -0.140625 3.429688 -0.0625 3.203125 0 C 2.972656 0.0507812 2.71875 0.078125 2.4375 0.078125 Z M 2.953125 -2.515625 C 2.953125 -2.722656 2.890625 -2.90625 2.765625 -3.0625 C 2.648438 -3.226562 2.46875 -3.3125 2.21875 -3.3125 C 1.96875 -3.3125 1.765625 -3.238281 1.609375 -3.09375 C 1.460938 -2.945312 1.363281 -2.753906 1.3125 -2.515625 Z M 1.21875 -5.171875 L 2.296875 -6.09375 L 3.375 -5.171875 L 3.375 -4.53125 L 2.296875 -5.203125 L 1.21875 -4.53125 Z M 1.6875 0.65625 L 2.53125 0.65625 L 2.53125 1.453125 L 1.6875 1.453125 Z M 1.6875 0.65625 "/></g></g></g><g fill="#ffffff" fill-opacity="1"><g transform="translate(19.426601, 61.190108)"><g/></g></g><g fill="#ffffff" fill-opacity="1"><g transform="translate(21.264366, 61.190108)"><g><path d="M 1.640625 0.078125 C 1.367188 0.078125 1.125 0.0507812 0.90625 0 C 0.695312 -0.0390625 0.476562 -0.113281 0.25 -0.21875 L 0.34375 -1.09375 C 0.570312 -0.945312 0.785156 -0.835938 0.984375 -0.765625 C 1.179688 -0.703125 1.390625 -0.671875 1.609375 -0.671875 C 2.015625 -0.671875 2.21875 -0.8125 2.21875 -1.09375 C 2.21875 -1.238281 2.160156 -1.347656 2.046875 -1.421875 C 1.941406 -1.503906 1.75 -1.597656 1.46875 -1.703125 C 1.0625 -1.847656 0.765625 -2.015625 0.578125 -2.203125 C 0.390625 -2.398438 0.296875 -2.65625 0.296875 -2.96875 C 0.296875 -3.320312 0.429688 -3.609375 0.703125 -3.828125 C 0.972656 -4.054688 1.34375 -4.171875 1.8125 -4.171875 C 2.269531 -4.171875 2.691406 -4.0625 3.078125 -3.84375 L 2.984375 -2.984375 C 2.773438 -3.117188 2.578125 -3.222656 2.390625 -3.296875 C 2.210938 -3.378906 2.023438 -3.421875 1.828125 -3.421875 C 1.648438 -3.421875 1.515625 -3.382812 1.421875 -3.3125 C 1.328125 -3.25 1.28125 -3.148438 1.28125 -3.015625 C 1.28125 -2.910156 1.304688 -2.820312 1.359375 -2.75 C 1.421875 -2.6875 1.5 -2.628906 1.59375 -2.578125 C 1.695312 -2.535156 1.867188 -2.46875 2.109375 -2.375 C 2.515625 -2.21875 2.800781 -2.046875 2.96875 -1.859375 C 3.144531 -1.679688 3.234375 -1.441406 3.234375 -1.140625 C 3.234375 -0.753906 3.09375 -0.453125 2.8125 -0.234375 C 2.539062 -0.0234375 2.148438 0.078125 1.640625 0.078125 Z M 1.640625 0.078125 "/></g></g></g><g fill="#ffffff" fill-opacity="1"><g transform="translate(24.719371, 61.190108)"><g><path d="M 0.46875 -5.71875 L 1.484375 -5.71875 L 1.484375 -4.703125 L 0.46875 -4.703125 Z M 0.46875 -4.078125 L 1.484375 -4.078125 L 1.484375 0 L 0.46875 0 Z M 0.46875 -4.078125 "/></g></g></g><g fill="#ffffff" fill-opacity="1"><g transform="translate(26.679663, 61.190108)"><g><path d="M 2.53125 -4.15625 C 3.039062 -4.15625 3.425781 -3.984375 3.6875 -3.640625 C 3.945312 -3.304688 4.078125 -2.851562 4.078125 -2.28125 L 4.078125 0 L 3.0625 0 L 3.0625 -2.203125 C 3.0625 -2.578125 3 -2.851562 2.875 -3.03125 C 2.75 -3.21875 2.539062 -3.3125 2.25 -3.3125 C 1.945312 -3.3125 1.691406 -3.195312 1.484375 -2.96875 L 1.484375 0 L 0.46875 0 L 0.46875 -4.078125 L 1.421875 -4.078125 L 1.4375 -3.796875 C 1.78125 -4.035156 2.144531 -4.15625 2.53125 -4.15625 Z M 2.53125 -4.15625 "/></g></g></g><g fill="#ffffff" fill-opacity="1"><g transform="translate(31.188327, 61.190108)"><g><path d="M 2.53125 -4.15625 C 3.050781 -4.15625 3.4375 -3.984375 3.6875 -3.640625 C 3.9375 -3.304688 4.0625 -2.847656 4.0625 -2.265625 L 4.0625 0 L 3.0625 0 L 3.0625 -2.203125 C 3.0625 -2.585938 3 -2.867188 2.875 -3.046875 C 2.75 -3.222656 2.546875 -3.3125 2.265625 -3.3125 C 1.953125 -3.3125 1.691406 -3.195312 1.484375 -2.96875 L 1.484375 0 L 0.46875 0 L 0.46875 -6.125 L 1.484375 -6.125 L 1.484375 -3.828125 C 1.640625 -3.929688 1.800781 -4.007812 1.96875 -4.0625 C 2.144531 -4.125 2.332031 -4.15625 2.53125 -4.15625 Z M 2.53125 -4.15625 "/></g></g></g><g fill="#ffffff" fill-opacity="1"><g transform="translate(35.688818, 61.190108)"><g/></g></g><g fill="#ffffff" fill-opacity="1"><g transform="translate(37.526583, 61.190108)"><g><path d="M 1.8125 0.078125 C 1.445312 0.078125 1.171875 -0.0234375 0.984375 -0.234375 C 0.804688 -0.441406 0.71875 -0.691406 0.71875 -0.984375 L 0.71875 -3.25 L 0.125 -3.25 L 0.21875 -4.078125 L 0.71875 -4.078125 L 0.71875 -4.984375 L 1.71875 -5.09375 L 1.71875 -4.078125 L 2.625 -4.078125 L 2.625 -3.25 L 1.71875 -3.25 L 1.71875 -1.40625 C 1.71875 -1.1875 1.726562 -1.035156 1.75 -0.953125 C 1.78125 -0.867188 1.832031 -0.8125 1.90625 -0.78125 C 1.988281 -0.757812 2.132812 -0.75 2.34375 -0.75 L 2.625 -0.75 L 2.53125 0.078125 Z M 1.8125 0.078125 "/></g></g></g><g fill="#ffffff" fill-opacity="1"><g transform="translate(40.336327, 61.190108)"><g><path d="M 2.53125 -4.15625 C 3.050781 -4.15625 3.4375 -3.984375 3.6875 -3.640625 C 3.9375 -3.304688 4.0625 -2.847656 4.0625 -2.265625 L 4.0625 0 L 3.0625 0 L 3.0625 -2.203125 C 3.0625 -2.585938 3 -2.867188 2.875 -3.046875 C 2.75 -3.222656 2.546875 -3.3125 2.265625 -3.3125 C 1.953125 -3.3125 1.691406 -3.195312 1.484375 -2.96875 L 1.484375 0 L 0.46875 0 L 0.46875 -6.125 L 1.484375 -6.125 L 1.484375 -3.828125 C 1.640625 -3.929688 1.800781 -4.007812 1.96875 -4.0625 C 2.144531 -4.125 2.332031 -4.15625 2.53125 -4.15625 Z M 2.53125 -4.15625 "/></g></g></g><g fill="#ffffff" fill-opacity="1"><g transform="translate(44.836818, 61.190108)"><g><path d="M 1.359375 0.078125 C 1.015625 0.078125 0.726562 -0.03125 0.5 -0.25 C 0.28125 -0.46875 0.171875 -0.765625 0.171875 -1.140625 C 0.171875 -1.492188 0.296875 -1.78125 0.546875 -2 C 0.804688 -2.21875 1.109375 -2.367188 1.453125 -2.453125 C 1.804688 -2.546875 2.144531 -2.597656 2.46875 -2.609375 C 2.457031 -2.847656 2.394531 -3.019531 2.28125 -3.125 C 2.164062 -3.226562 1.984375 -3.28125 1.734375 -3.28125 C 1.554688 -3.28125 1.378906 -3.253906 1.203125 -3.203125 C 1.035156 -3.148438 0.835938 -3.070312 0.609375 -2.96875 L 0.515625 -3.796875 C 1.015625 -4.035156 1.515625 -4.15625 2.015625 -4.15625 C 2.492188 -4.15625 2.859375 -4.019531 3.109375 -3.75 C 3.359375 -3.488281 3.484375 -3.078125 3.484375 -2.515625 L 3.484375 -1.40625 C 3.484375 -1.195312 3.492188 -1.046875 3.515625 -0.953125 C 3.535156 -0.867188 3.566406 -0.8125 3.609375 -0.78125 C 3.660156 -0.757812 3.738281 -0.75 3.84375 -0.75 L 3.984375 -0.75 L 3.890625 0.078125 L 3.515625 0.078125 C 3.296875 0.078125 3.109375 0.0351562 2.953125 -0.046875 C 2.804688 -0.128906 2.691406 -0.242188 2.609375 -0.390625 C 2.472656 -0.242188 2.289062 -0.128906 2.0625 -0.046875 C 1.84375 0.0351562 1.609375 0.078125 1.359375 0.078125 Z M 1.78125 -0.6875 C 1.882812 -0.6875 2 -0.710938 2.125 -0.765625 C 2.257812 -0.816406 2.375 -0.890625 2.46875 -0.984375 L 2.46875 -1.921875 C 2.144531 -1.898438 1.859375 -1.828125 1.609375 -1.703125 C 1.359375 -1.578125 1.234375 -1.40625 1.234375 -1.1875 C 1.234375 -1.019531 1.273438 -0.894531 1.359375 -0.8125 C 1.453125 -0.726562 1.59375 -0.6875 1.78125 -0.6875 Z M 1.21875 -5.296875 L 2.828125 -6.21875 L 2.828125 -5.28125 L 1.21875 -4.65625 Z M 1.21875 -5.296875 "/></g></g></g><g fill="#ffffff" fill-opacity="1"><g transform="translate(48.904411, 61.190108)"><g><path d="M 0.46875 -5.71875 L 1.484375 -5.71875 L 1.484375 -4.703125 L 0.46875 -4.703125 Z M 0.46875 -4.078125 L 1.484375 -4.078125 L 1.484375 0 L 0.46875 0 Z M 0.46875 -4.078125 "/></g></g></g><g fill="#ffffff" fill-opacity="1"><g transform="translate(50.864703, 61.190108)"><g/></g></g><g fill="#ffffff" fill-opacity="1"><g transform="translate(52.702468, 61.190108)"><g><path d="M 0.03125 -4.078125 L 1.015625 -4.078125 L 2.03125 -1.265625 L 3.03125 -4.078125 L 4.03125 -4.078125 L 2.453125 0 L 1.59375 0 Z M 0.03125 -4.078125 "/></g></g></g><g fill="#ffffff" fill-opacity="1"><g transform="translate(56.753734, 61.190108)"><g><path d="M 1.359375 0.078125 C 1.015625 0.078125 0.726562 -0.03125 0.5 -0.25 C 0.28125 -0.46875 0.171875 -0.765625 0.171875 -1.140625 C 0.171875 -1.492188 0.296875 -1.78125 0.546875 -2 C 0.804688 -2.21875 1.109375 -2.367188 1.453125 -2.453125 C 1.804688 -2.546875 2.144531 -2.597656 2.46875 -2.609375 C 2.457031 -2.847656 2.394531 -3.019531 2.28125 -3.125 C 2.164062 -3.226562 1.984375 -3.28125 1.734375 -3.28125 C 1.554688 -3.28125 1.378906 -3.253906 1.203125 -3.203125 C 1.035156 -3.148438 0.835938 -3.070312 0.609375 -2.96875 L 0.515625 -3.796875 C 1.015625 -4.035156 1.515625 -4.15625 2.015625 -4.15625 C 2.492188 -4.15625 2.859375 -4.019531 3.109375 -3.75 C 3.359375 -3.488281 3.484375 -3.078125 3.484375 -2.515625 L 3.484375 -1.40625 C 3.484375 -1.195312 3.492188 -1.046875 3.515625 -0.953125 C 3.535156 -0.867188 3.566406 -0.8125 3.609375 -0.78125 C 3.660156 -0.757812 3.738281 -0.75 3.84375 -0.75 L 3.984375 -0.75 L 3.890625 0.078125 L 3.515625 0.078125 C 3.296875 0.078125 3.109375 0.0351562 2.953125 -0.046875 C 2.804688 -0.128906 2.691406 -0.242188 2.609375 -0.390625 C 2.472656 -0.242188 2.289062 -0.128906 2.0625 -0.046875 C 1.84375 0.0351562 1.609375 0.078125 1.359375 0.078125 Z M 1.78125 -0.6875 C 1.882812 -0.6875 2 -0.710938 2.125 -0.765625 C 2.257812 -0.816406 2.375 -0.890625 2.46875 -0.984375 L 2.46875 -1.921875 C 2.144531 -1.898438 1.859375 -1.828125 1.609375 -1.703125 C 1.359375 -1.578125 1.234375 -1.40625 1.234375 -1.1875 C 1.234375 -1.019531 1.273438 -0.894531 1.359375 -0.8125 C 1.453125 -0.726562 1.59375 -0.6875 1.78125 -0.6875 Z M 2.015625 -4.796875 C 1.765625 -4.796875 1.539062 -4.84375 1.34375 -4.9375 C 1.15625 -5.039062 1.007812 -5.179688 0.90625 -5.359375 C 0.800781 -5.535156 0.75 -5.726562 0.75 -5.9375 L 1.453125 -5.9375 C 1.453125 -5.769531 1.5 -5.640625 1.59375 -5.546875 C 1.695312 -5.453125 1.835938 -5.40625 2.015625 -5.40625 C 2.191406 -5.40625 2.328125 -5.453125 2.421875 -5.546875 C 2.523438 -5.640625 2.578125 -5.769531 2.578125 -5.9375 L 3.28125 -5.9375 C 3.28125 -5.613281 3.164062 -5.34375 2.9375 -5.125 C 2.707031 -4.90625 2.398438 -4.796875 2.015625 -4.796875 Z M 2.015625 -4.796875 "/></g></g></g><g fill="#ffffff" fill-opacity="1"><g transform="translate(60.821327, 61.190108)"><g><path d="M 2.53125 -4.15625 C 3.039062 -4.15625 3.425781 -3.984375 3.6875 -3.640625 C 3.945312 -3.304688 4.078125 -2.851562 4.078125 -2.28125 L 4.078125 0 L 3.0625 0 L 3.0625 -2.203125 C 3.0625 -2.578125 3 -2.851562 2.875 -3.03125 C 2.75 -3.21875 2.539062 -3.3125 2.25 -3.3125 C 1.945312 -3.3125 1.691406 -3.195312 1.484375 -2.96875 L 1.484375 0 L 0.46875 0 L 0.46875 -4.078125 L 1.421875 -4.078125 L 1.4375 -3.796875 C 1.78125 -4.035156 2.144531 -4.15625 2.53125 -4.15625 Z M 2.53125 -4.15625 "/></g></g></g><g fill="#ffffff" fill-opacity="1"><g transform="translate(65.329991, 61.190108)"><g/></g></g><g fill="#ffffff" fill-opacity="1"><g transform="translate(67.167756, 61.190108)"><g><path d="M 2.609375 -4.15625 C 2.992188 -4.15625 3.320312 -4.054688 3.59375 -3.859375 C 3.875 -3.671875 4.085938 -3.414062 4.234375 -3.09375 C 4.378906 -2.769531 4.453125 -2.414062 4.453125 -2.03125 C 4.453125 -1.644531 4.378906 -1.289062 4.234375 -0.96875 C 4.085938 -0.644531 3.875 -0.390625 3.59375 -0.203125 C 3.320312 -0.015625 2.992188 0.078125 2.609375 0.078125 C 2.359375 0.078125 2.144531 0.0507812 1.96875 0 C 1.800781 -0.0507812 1.640625 -0.132812 1.484375 -0.25 L 1.484375 1.984375 L 0.46875 1.984375 L 0.46875 -4.078125 L 1.296875 -4.078125 L 1.390625 -3.703125 C 1.566406 -3.859375 1.75 -3.972656 1.9375 -4.046875 C 2.132812 -4.117188 2.359375 -4.15625 2.609375 -4.15625 Z M 2.453125 -0.75 C 2.753906 -0.75 2.988281 -0.863281 3.15625 -1.09375 C 3.320312 -1.332031 3.40625 -1.644531 3.40625 -2.03125 C 3.40625 -2.414062 3.320312 -2.722656 3.15625 -2.953125 C 2.988281 -3.191406 2.753906 -3.3125 2.453125 -3.3125 C 2.109375 -3.3125 1.851562 -3.195312 1.6875 -2.96875 C 1.519531 -2.738281 1.4375 -2.425781 1.4375 -2.03125 C 1.4375 -1.632812 1.519531 -1.320312 1.6875 -1.09375 C 1.851562 -0.863281 2.109375 -0.75 2.453125 -0.75 Z M 2.453125 -0.75 "/></g></g></g><g fill="#ffffff" fill-opacity="1"><g transform="translate(71.839774, 61.190108)"><g><path d="M 2.53125 -4.15625 C 3.050781 -4.15625 3.4375 -3.984375 3.6875 -3.640625 C 3.9375 -3.304688 4.0625 -2.847656 4.0625 -2.265625 L 4.0625 0 L 3.0625 0 L 3.0625 -2.203125 C 3.0625 -2.585938 3 -2.867188 2.875 -3.046875 C 2.75 -3.222656 2.546875 -3.3125 2.265625 -3.3125 C 1.953125 -3.3125 1.691406 -3.195312 1.484375 -2.96875 L 1.484375 0 L 0.46875 0 L 0.46875 -6.125 L 1.484375 -6.125 L 1.484375 -3.828125 C 1.640625 -3.929688 1.800781 -4.007812 1.96875 -4.0625 C 2.144531 -4.125 2.332031 -4.15625 2.53125 -4.15625 Z M 2.53125 -4.15625 "/></g></g></g><g fill="#ffffff" fill-opacity="1"><g transform="translate(76.340265, 61.190108)"><g><path d="M 2.328125 0.078125 C 1.898438 0.078125 1.523438 -0.015625 1.203125 -0.203125 C 0.890625 -0.390625 0.648438 -0.644531 0.484375 -0.96875 C 0.316406 -1.289062 0.234375 -1.644531 0.234375 -2.03125 C 0.234375 -2.414062 0.316406 -2.769531 0.484375 -3.09375 C 0.648438 -3.425781 0.890625 -3.6875 1.203125 -3.875 C 1.523438 -4.070312 1.898438 -4.171875 2.328125 -4.171875 C 2.753906 -4.171875 3.125 -4.070312 3.4375 -3.875 C 3.757812 -3.6875 4.003906 -3.425781 4.171875 -3.09375 C 4.335938 -2.769531 4.421875 -2.414062 4.421875 -2.03125 C 4.421875 -1.644531 4.335938 -1.289062 4.171875 -0.96875 C 4.003906 -0.644531 3.757812 -0.390625 3.4375 -0.203125 C 3.125 -0.015625 2.753906 0.078125 2.328125 0.078125 Z M 2.328125 -0.75 C 2.660156 -0.75 2.921875 -0.863281 3.109375 -1.09375 C 3.296875 -1.332031 3.390625 -1.644531 3.390625 -2.03125 C 3.390625 -2.425781 3.296875 -2.738281 3.109375 -2.96875 C 2.921875 -3.207031 2.660156 -3.328125 2.328125 -3.328125 C 1.992188 -3.328125 1.734375 -3.207031 1.546875 -2.96875 C 1.359375 -2.738281 1.265625 -2.425781 1.265625 -2.03125 C 1.265625 -1.644531 1.359375 -1.332031 1.546875 -1.09375 C 1.734375 -0.863281 1.992188 -0.75 2.328125 -0.75 Z M 1.515625 -5.28125 L 1.515625 -6.21875 L 3.125 -5.296875 L 3.125 -4.65625 Z M 1.515625 -5.28125 "/></g></g></g><g fill="#ffffff" fill-opacity="1"><g transform="translate(80.995947, 61.190108)"><g><path d="M 2.53125 -4.15625 C 3.039062 -4.15625 3.425781 -3.984375 3.6875 -3.640625 C 3.945312 -3.304688 4.078125 -2.851562 4.078125 -2.28125 L 4.078125 0 L 3.0625 0 L 3.0625 -2.203125 C 3.0625 -2.578125 3 -2.851562 2.875 -3.03125 C 2.75 -3.21875 2.539062 -3.3125 2.25 -3.3125 C 1.945312 -3.3125 1.691406 -3.195312 1.484375 -2.96875 L 1.484375 0 L 0.46875 0 L 0.46875 -4.078125 L 1.421875 -4.078125 L 1.4375 -3.796875 C 1.78125 -4.035156 2.144531 -4.15625 2.53125 -4.15625 Z M 2.53125 -4.15625 "/></g></g></g><g fill="#ffffff" fill-opacity="1"><g transform="translate(85.50461, 61.190108)"><g><path d="M 2.09375 2.0625 C 1.507812 2.0625 1.046875 1.957031 0.703125 1.75 C 0.367188 1.539062 0.203125 1.253906 0.203125 0.890625 C 0.203125 0.492188 0.421875 0.171875 0.859375 -0.078125 C 0.617188 -0.222656 0.5 -0.414062 0.5 -0.65625 C 0.5 -0.78125 0.535156 -0.890625 0.609375 -0.984375 C 0.679688 -1.085938 0.78125 -1.164062 0.90625 -1.21875 C 0.695312 -1.375 0.539062 -1.566406 0.4375 -1.796875 C 0.332031 -2.023438 0.28125 -2.273438 0.28125 -2.546875 C 0.28125 -2.835938 0.34375 -3.109375 0.46875 -3.359375 C 0.601562 -3.609375 0.796875 -3.804688 1.046875 -3.953125 C 1.296875 -4.097656 1.59375 -4.171875 1.9375 -4.171875 C 2.289062 -4.171875 2.601562 -4.082031 2.875 -3.90625 C 2.957031 -3.957031 3.078125 -4 3.234375 -4.03125 C 3.390625 -4.0625 3.5625 -4.078125 3.75 -4.078125 L 4 -4.078125 L 3.9375 -3.453125 L 3.578125 -3.453125 C 3.484375 -3.453125 3.40625 -3.445312 3.34375 -3.4375 C 3.507812 -3.1875 3.59375 -2.890625 3.59375 -2.546875 C 3.59375 -2.242188 3.523438 -1.96875 3.390625 -1.71875 C 3.265625 -1.46875 3.078125 -1.269531 2.828125 -1.125 C 2.578125 -0.988281 2.28125 -0.921875 1.9375 -0.921875 C 1.8125 -0.921875 1.664062 -0.9375 1.5 -0.96875 C 1.4375 -0.945312 1.40625 -0.90625 1.40625 -0.84375 C 1.40625 -0.769531 1.445312 -0.710938 1.53125 -0.671875 C 1.625 -0.628906 1.769531 -0.597656 1.96875 -0.578125 L 2.671875 -0.484375 C 3.609375 -0.359375 4.078125 0.0351562 4.078125 0.703125 C 4.078125 1.117188 3.898438 1.445312 3.546875 1.6875 C 3.203125 1.9375 2.71875 2.0625 2.09375 2.0625 Z M 1.9375 -1.671875 C 2.164062 -1.671875 2.34375 -1.75 2.46875 -1.90625 C 2.601562 -2.0625 2.671875 -2.273438 2.671875 -2.546875 C 2.671875 -2.816406 2.601562 -3.03125 2.46875 -3.1875 C 2.34375 -3.34375 2.164062 -3.421875 1.9375 -3.421875 C 1.695312 -3.421875 1.507812 -3.34375 1.375 -3.1875 C 1.25 -3.03125 1.1875 -2.816406 1.1875 -2.546875 C 1.1875 -2.273438 1.25 -2.0625 1.375 -1.90625 C 1.507812 -1.75 1.695312 -1.671875 1.9375 -1.671875 Z M 2.140625 1.296875 C 2.828125 1.296875 3.171875 1.125 3.171875 0.78125 C 3.171875 0.625 3.109375 0.507812 2.984375 0.4375 C 2.867188 0.363281 2.675781 0.304688 2.40625 0.265625 L 1.5 0.125 C 1.1875 0.25 1.03125 0.441406 1.03125 0.703125 C 1.03125 0.898438 1.125 1.046875 1.3125 1.140625 C 1.507812 1.242188 1.785156 1.296875 2.140625 1.296875 Z M 2.140625 1.296875 "/></g></g></g></svg>