<svg xmlns="http://www.w3.org/2000/svg" width="512" height="512" id="cloud"><path fill="#B3B3B3" d="M455.725 437.566c-16.394 2.629-32.431 7.07-48.621 10.687-7.248 1.617-14.776 2.131-22.095 3.507-4.277.817-8.726 2.325-13.15 2.932 1.353-.419 2.573-.801 3.422-1.127 5.677-2.186 11.579-3.655 17.396-5.39 9.573-2.846 19.652-4.254 28.129-9.9 2.333-1.555 1.751-6.136-1.57-5.794-9.566.995-19.318 2.286-28.806 3.943-10.631 1.851-20.967 5.07-31.591 6.999-1.415.257-2.814.521-4.229.771 6.587-1.867 13.173-3.779 19.62-6.082 3.213-1.15 8.943-2.628 8.189-7.077-.218-1.321-1.719-2.317-2.994-2.286-10.623.303-21.052 3.383-31.535 4.946-5.335.793-10.678 1.524-16.006 2.317 1.284-.669 2.373-1.501 2.949-2.582 1.01-1.866-.203-4.962-2.685-4.682-22.428 2.566-44.53 6.89-66.57 11.541 2.815-1.33 5.468-2.947 7.816-4.992 2.092-1.821.38-5.319-2.209-5.305-10.312.07-20.78 2.224-31.038 3.329-11.704 1.275-23.33 3.258-34.832 5.708a534.792 534.792 0 0 1-12.07 2.38 659.523 659.523 0 0 0 12.839-4.06c3.85-1.276 2.255-6.696-1.656-5.996-8.843 1.562-17.894 2.007-26.776 3.413-9.457 1.518-18.648 4.402-27.965 6.533-2.559.583-5.126 1.167-7.684 1.734 6.385-2.092 12.723-4.332 18.789-7.248 2.792-1.338 1.439-5.949-1.571-5.794-6.253.319-12.163 2.505-18.244 3.85-6.649 1.455-13.252 2.808-19.832 4.503.187-1.68-.801-3.469-2.979-3.376-8.228.359-17.039 3.034-24.816 5.623-6.852 2.279-15.157 3.182-20.92 7.731-1.812 1.423-.777 4.767 1.368 5.194 4.426.887 8.617-.653 12.848-1.828 7.388-2.053 15.157-3.397 22.739-4.588 1.058-.171 2.124-.357 3.173-.561-2.559.926-5.141 1.828-7.746 2.646-4.495 1.406-8.998 2.457-13.096 4.867-1.812 1.065-2.24 4.417 0 5.375 6.261 2.651 12.887-.686 18.999-2.823 9.994-3.508 21.324-5.164 31.676-7.489 5.723-1.291 11.439-2.66 17.147-4.013-9.604 3.001-19.139 6.189-28.518 9.884-3.057 1.197-2.933 6.245.839 6.112 5.125-.202 9.986-1.353 14.854-2.924a182.736 182.736 0 0 1 17.569-4.696c11.906-2.591 23.829-5.103 35.859-7.078 12.646-2.068 25.042-5.039 37.796-6.595 5.452-.677 10.888-1.416 16.316-2.061-.342.078-.715.163-1.065.233-6.773 1.236-13.369 3.329-20.143 4.565-5.98 1.088-12.147 4.044-17.918 5.972-5.475 1.828-11.37 2.684-16.425 5.537-3.251 1.836-.918 6.261 2.403 5.686 30.112-5.219 59.835-12.583 89.839-18.315-6.129 1.642-12.272 3.313-18.284 5.343-3.204 1.082-6.37 2.256-9.542 3.407-5.631 1.112-11.222 2.457-15.896 5.125-3.126 1.788-.987 6.493 2.396 5.685 5.397-1.291 10.623-3.111 15.826-5.001 4.021-.754 8.058-1.384 11.643-2.317 11.471-3.002 23.05-5.606 34.739-7.605 11.02-1.89 21.892-4.152 32.997-5.692.343-.048.692-.109 1.026-.155-15.803 4.471-31.286 9.58-46.88 14.775-2.348.786-3.327 4.417-.737 5.685 4.728 2.311 12.801-1.36 17.505-2.527 11.581-2.901 23.348-4.837 35.09-6.968 11.184-2.03 22.242-4.479 33.332-6.735-5.568 1.883-11.245 3.368-16.759 5.568-3.057 1.213-6.688 1.843-8.843 4.527-1.556 1.951-.91 4.269 1.376 5.202 5.849 2.395 11.86 1.438 17.833 0 9.169-2.208 18.424-3.679 27.779-4.861 8.197-1.041 16.433-3.701 24.466-5.622 9.061-2.17 18.151-4.216 27.375-5.685 3.954-.63 2.266-6.626-1.661-6.005z"></path><path fill="#1F8AFF" d="M98.351 328.955c-3.942.582-5.677 3.04-7.373 6.501-2.877 5.879-4.993 12.21-7.427 18.291-2.785 6.96-4.993 14.131-7.715 21.115-2.551 6.478-4.93 11.283-5.654 18.283-.194 1.835 2.66 1.812 2.854 0 1.05-10.11 6.533-19.669 9.799-29.211 1.92-5.599 4.129-11.066 6.33-16.572 1.867-4.675 3.741-14.745 9.939-15.646 1.821-.273 1.052-3.026-.753-2.761zm27.554-4.714c-1.54 3.78-3.959 6.525-6.766 9.364-2.092 2.106-3.531 5.964-5.04 8.539-4.184 7.054-8.461 14.053-12.583 21.138-8.99 15.444-16.612 31.449-24.007 47.703-.754 1.665 1.704 3.11 2.465 1.439 7.396-16.262 15.087-32.212 24-47.697 4.09-7.107 8.391-14.099 12.583-21.145 3.78-6.339 9.317-11.751 12.102-18.58.698-1.709-2.07-2.44-2.754-.761zm15.849 11.083c-7.551 15.103-16.705 29.668-23.821 44.927-3.211 6.882-8.733 12.63-12.894 18.929-3.741 5.686-6.938 11.425-9.115 17.856-.583 1.749 2.17 2.488 2.761.762 4.573-13.586 15.002-23.665 21.714-36.108 8.049-14.924 16.223-29.746 23.813-44.927.824-1.642-1.641-3.087-2.458-1.439zm11.269 14.613c-2.03 4.992-5.483 9.092-7.132 14.278-2.301 7.257-5.74 14.341-8.562 21.418-5.443 13.609-15.126 24.948-21.27 38.2-.771 1.657 1.687 3.111 2.457 1.438 5.872-12.645 14.683-23.618 20.484-36.311 2.862-6.268 5.18-12.832 7.746-19.224 2.644-6.61 6.377-12.521 9.037-19.038.701-1.702-2.068-2.433-2.76-.761zm-46.11-163.743c-3.08 1.236-4.51 4.736-6.159 7.465-3.36 5.608-6.315 11.3-9.34 17.095-2.59 4.969-5.048 10.397-8.236 14.978-1.976 2.838-3.795 5.801-2.955 9.332.427 1.789 3.181 1.034 2.752-.754-1.034-4.332 2.8-5.786 4.138-8.897 1.96-4.573 4.387-8.866 6.766-13.213 2.349-4.293 4.449-8.601 6.898-12.84 1.509-2.605 3.881-9.2 6.898-10.405 1.688-.677.95-3.438-.762-2.761zm31.07 5.855c-8.609 5.615-13.688 16.185-17.864 25.206-5.343 11.494-9.986 23.136-16.908 33.844-1.01 1.548 1.47 2.972 2.458 1.432 5.397-8.345 11.105-18.051 14.426-27.46 3.67-10.405 9.729-24.288 19.326-30.548 1.54-1.003.109-3.484-1.438-2.474zm29.318 7.995c-1.019 4.425-6.929 7.878-9.667 11.432-3.018 3.951-5.973 8.399-8.741 12.498-3.484 5.141-7.108 10.165-10.538 15.344-3.725 5.646-6.082 12.163-10.655 17.203-1.236 1.362.786 3.383 2.023 2.014 3.639-4.013 5.762-8.717 8.398-13.399 3.43-6.082 7.723-11.688 11.682-17.421 3.413-4.945 6.898-9.822 10.305-14.791 2.939-4.309 8.717-6.797 9.954-12.124.413-1.791-2.34-2.552-2.761-.756zm18.455 12.848c-.18-1.089-1.68-1.33-2.38-.637l-1.431 1.438c-1.003 1.004-.015 2.427 1.089 2.411-.754 6.199-6.851 14.675-9.807 19.077-5.654 8.422-10.468 17.366-16.168 25.773-.56.436-.871 1.073-1.174 1.897-.599 1.618 1.734 2.349 2.605 1.104.133-.187.257-.382.381-.576l.194-.194c.917-.132 1.175-.894.98-1.578 6.4-9.52 11.852-19.645 18.431-29.055 3.267-4.666 8.291-13.726 7.28-19.66zm15.958 12.505c-5.358 9.596-10.545 19.551-16.611 28.712-5.801 8.757-11.4 17.358-14.947 27.305-.615 1.742 2.146 2.489 2.761.754 3.717-10.467 9.861-19.402 15.95-28.579 5.631-8.485 10.344-17.864 15.313-26.746.894-1.61-1.571-3.048-2.466-1.446zm17.35 12.56c-6.299 6.354-8.562 14.177-13.073 21.705-6.051 10.118-11.767 20.329-18.556 29.979-1.058 1.51 1.416 2.933 2.458 1.439 6.276-8.913 11.836-18.229 17.249-27.678 4.589-8.002 7.326-16.768 13.944-23.424 1.299-1.306-.715-3.328-2.022-2.021zm15.484 13.142c-1.54 2.388-5.023 4.628-5.855 7.474-1.758 5.988-5.071 10.631-8.159 15.935-5.724 9.87-12.186 19.232-17.39 29.405-.871 1.679 1.361 2.861 2.458 1.445a7.799 7.799 0 0 1 2.007-2.208c1.135-.451 1.159-1.827.544-2.48 4.277-7.738 9.06-15.158 13.656-22.717 2.745-4.518 5.724-8.896 7.947-13.703 2.069-4.448 4.698-7.715 7.257-11.719.996-1.549-1.469-2.979-2.465-1.432zm16.986 17.467c-.685 3.57-4.076 7.497-5.997 10.646-2.917 4.76-6.594 8.882-9.635 13.571-6.471 10.009-13.54 19.613-19.917 29.692-.988 1.556 1.484 2.993 2.473 1.438 6.859-10.834 14.418-21.208 21.394-31.979 2.924-4.511 6.438-8.509 9.27-13.128 1.93-3.142 4.464-5.77 5.165-9.487.341-1.794-2.412-2.556-2.753-.753zm20.126 15.36c-3.142 4.434-6.844 8.415-9.993 12.855-3.671 5.172-6.875 10.739-11.191 15.406-7.761 8.392-13.144 20.406-18.781 30.275-.926 1.603 1.547 3.033 2.457 1.438 6.548-11.439 13.026-22.888 21.332-33.145 3.172-3.936 5.685-8.43 8.656-12.537 3.182-4.409 6.844-8.415 9.994-12.847 1.065-1.507-1.408-2.931-2.474-1.445zm8.569 19.987c-6.866 11.074-13.273 22.42-20.071 33.533-7.248 11.845-15.391 23.199-22.764 34.996-.972 1.563 1.493 3.002 2.473 1.432 6.929-11.075 13.867-22.156 21.41-32.834 7.965-11.246 14.146-23.969 21.418-35.682.973-1.57-1.501-3.001-2.466-1.445zm4.287 29.987c-7.42 10.483-14.162 21.371-19.994 32.834-3.313 6.533-7.637 12.739-11.417 19.031-2.481 4.145-5.561 6.695-7.279 11.283-.653 1.727 2.115 2.474 2.752.754 1.804-4.82 5.771-8.562 8.422-12.979 3.329-5.553 6.658-11.105 9.993-16.658 6.627-11.044 12.514-22.266 19.987-32.834 1.058-1.5-1.415-2.932-2.464-1.431zm4.277 25.696c-2.31 3.889-6.121 6.486-8.08 10.515-2.085 4.246-4.037 8.508-6.385 12.613-4.885 8.5-9.784 17.437-15.516 25.4-1.073 1.509 1.399 2.924 2.465 1.445 5.344-7.426 8.968-15.911 14.232-23.361 2.729-3.881 4.675-8.352 6.696-12.622 2.263-4.782 6.385-8.041 9.052-12.552.941-1.594-1.524-3.024-2.464-1.438zm2.612 26.037-.085-.296c-.296-1.026-1.618-1.393-2.388-.637-2.076 2.083-3.212 4.027-4.409 6.734-2.792 6.3-6.471 12.218-10.009 18.12-.949 1.586 1.531 3.018 2.465 1.439 3.25-5.406 6.455-10.811 9.239-16.465 1.282-2.605 2.333-5.07 4.238-7.217.669-.201 1.19-.815.949-1.678zM110.148 71.943c-.77 6.734-5.653 14.433-8.228 20.625-2.815 6.75-4.861 14.2-7.824 20.873-.576.132-1.082.567-1.082 1.321v1.432c0 1.36 2.023 2.037 2.668.715 3.282-6.72 5.273-14.138 7.979-21.138 3.001-7.808 8.383-15.43 9.347-23.828.213-1.828-2.649-1.812-2.86 0zm35.884 3.561c-4.355 8.337-10.85 15.896-14.418 24.606-2.045 5.008-4.332 9.784-7.187 14.396-1.462 2.372-5.21 9.223-7.854 10.452-1.672.771-.218 3.228 1.438 2.466 2.201-1.027 3.454-3.671 4.713-5.616 2.566-3.95 5.351-7.605 7.574-11.797 2.714-5.141 4.721-10.53 7.692-15.546 3.484-5.871 7.349-11.455 10.515-17.521.847-1.627-1.618-3.073-2.473-1.44zm26.939 6.424c-.412 3.212-2.963 7.249-4.067 10.468-1.478 4.309-3.492 8.368-5.327 12.537-4.091 9.316-9.48 18.05-15.896 25.959-.739.917-.326 2.434 1.019 2.434h1.423c1.361 0 1.711-1.556 1.058-2.372 5.918-7.622 10.802-15.803 14.869-24.583 2.015-4.363 3.983-8.695 5.608-13.212 1.392-3.866 3.647-7.147 4.168-11.23.224-1.821-2.622-1.797-2.855-.001zm32.826 8.57c-.723 7.606-7.871 16.666-12.56 22.413-5.063 6.199-10.312 12.778-14.364 19.692-.934 1.586 1.532 3.033 2.465 1.438 2.418-4.122 5.451-8.01 8.469-11.704 2.746-3.344 6.681-7.435 8.664-11.129 3.577-6.672 9.434-12.91 10.179-20.71.18-1.835-2.674-1.819-2.853 0zm31.458 2.473c-1.361 7.886-7.031 15.865-11.277 22.499-5.25 8.22-8.905 17.467-14.271 25.703-1.011 1.548 1.462 2.971 2.466 1.439 5.786-8.882 9.829-18.735 15.499-27.617 4.076-6.377 9.03-13.703 10.336-21.262.319-1.804-2.434-2.574-2.753-.762zm25.695 9.994c-2.878 8.625-5.864 17.164-9.846 25.36-3.764 7.761-8.602 17.281-14.062 23.984-1.134 1.392.693 3.344 2.023 2.006l1.431-1.423c.326-.319.435-.676.42-1.019 4.347-6.206 7.302-13.5 11.167-19.963 5.242-8.749 8.399-18.525 11.627-28.184.583-1.757-2.177-2.496-2.76-.761zm12.801 16.082c-.413 9.138-5.312 17.584-9.621 25.438-4.354 7.956-8.966 15.709-13.025 23.806-.816 1.641 1.641 3.087 2.465 1.439 4.845-9.675 10.273-19.179 15.71-28.55 3.803-6.563 6.991-14.535 7.334-22.133.077-1.835-2.77-1.827-2.863 0zm19.986 18.564c-.171-1.82-3.024-1.836-2.854 0 .777 8.126-6.643 15.102-9.792 22.125-1.625 3.585-3.002 7.271-4.729 10.833-1.913 3.958-3.889 10.281-7.613 12.917-1.111.786-.793 2.66.724 2.66h1.423c1.159 0 1.586-1.135 1.283-1.967 1.509-1.642 2.488-3.555 3.515-5.779 2.42-5.241 5.118-10.312 7.312-15.655 3.297-8.095 11.618-15.864 10.731-25.134zm21.417 17.125c-.645 8.353-6.641 16.433-10.731 23.548-4.199 7.302-9.099 14.185-13.345 21.418-.934 1.586 1.539 3.033 2.466 1.447 4.657-7.948 9.961-15.546 14.573-23.557 4.099-7.131 9.255-14.457 9.893-22.856.138-1.836-2.723-1.82-2.856 0zm14.98 15.904c-2.784 1.532-4.239 6.098-5.849 8.71-3.865 6.222-6.844 12.677-10.25 19.154-2.302 4.387-4.729 8.244-7.715 12.148-1.805 2.364-2.566 5.055-.964 7.622.583.94 2.426.964 2.613-.342l.419-.428c1.711-.63.98-3.391-.753-2.753-.118.039-.211.085-.32.132.219-2.581 3.818-4.704 4.791-6.609 2.209-4.316 4.558-8.57 6.759-12.895 2.216-4.324 4.285-8.617 6.805-12.793 1.213-2.029 3.732-8.282 5.91-9.48 1.602-.888.171-3.361-1.446-2.466zm13.617 10.848c-.661 3.383-5.102 8.251-6.991 11.075-2.839 4.262-5.849 8.438-8.454 12.847-2.512 4.262-3.398 10.344-6.913 13.89-2.286 2.309-3.641 4.853-4.76 7.87-.646 1.726 2.115 2.465 2.753.754 1.556-4.153 4.76-6.518 6.579-10.367 2.038-4.308 3.641-8.718 6.066-12.848 2.604-4.409 5.778-8.585 8.624-12.847 2.061-3.095 5.117-5.895 5.856-9.621.351-1.795-2.403-2.565-2.76-.753zm18.93 13.641c-6.604 7.932-13.058 15.88-17.747 25.135-4.923 9.721-9.021 19.691-13.883 29.397-.824 1.649 1.642 3.095 2.466 1.447 4.191-8.384 7.271-17.008 11.853-25.213 5.778-10.374 11.68-19.551 19.333-28.744 1.165-1.408-.833-3.437-2.022-2.022zm19.985 18.563c-6.805 8.508-11.455 18.299-17.351 27.415-5.933 9.161-12.225 18.276-17.404 27.903-.691.031-1.353.475-1.353 1.361v1.431c0 1.377 1.991 2.014 2.66.724 4.712-9.13 10.724-17.397 16.206-26.053 6.464-10.203 11.696-21.301 19.264-30.766 1.136-1.424-.871-3.453-2.022-2.015zm11.052 29.179c-3.228 11.705-10.079 21.792-15.554 32.501-2.637 5.14-6.02 10.078-8.749 15.234-2.629 4.978-6.96 8.508-9.807 13.307-.948 1.586 1.523 3.033 2.457 1.445 2.894-4.884 7.062-8.289 9.814-13.313 3.205-5.848 6.875-11.587 9.908-17.505 5.233-10.228 11.596-19.73 14.69-30.914.491-1.773-2.262-2.528-2.759-.755zm1.804 33.636c-6.984 8.734-11.55 18.634-15.928 28.837-4.479 10.421-12.008 19.831-17.14 29.98-.825 1.633 1.641 3.079 2.464 1.438 4.473-8.835 9.723-17.538 14.8-26.076 6.331-10.67 9.955-22.312 17.81-32.165 1.144-1.422-.863-3.46-2.006-2.014zm9.613 27.748c-.669 4.713-5.258 11.036-7.412 15.312-3.11 6.183-7.365 11.666-11.121 17.443-6.12 9.41-12.987 19.801-16.433 30.657-.435.202-.77.591-.77 1.206v1.431c0 1.609 2.38 1.943 2.808.381 3.508-13.026 12.458-25.617 19.839-36.776 3.817-5.764 7.497-11.301 10.421-17.616 1.805-3.896 4.798-6.882 5.428-11.275.256-1.805-2.497-2.583-2.76-.763zm10.14 31.069c-4.744 6.696-9.604 12.303-13.501 19.565-3.732 6.984-7.801 13.867-12.062 20.555-4.332 6.774-9.775 12.802-14.489 19.311-2.597 3.593-6.852 6.742-5.77 11.626.396 1.797 3.142 1.027 2.753-.762-.871-3.95 8.99-14.138 10.973-16.673 4.184-5.328 8.252-10.655 11.72-16.496 3.602-6.05 7.186-12.084 10.515-18.298 3.43-6.394 8.158-11.511 12.334-17.39 1.058-1.5-1.415-2.923-2.473-1.438zm1.284 36.03c-1.719 7.295-9.885 13.656-14.131 19.645-6.595 9.301-13.805 18.104-18.556 28.557-.754 1.656 1.703 3.11 2.465 1.439 4.737-10.429 11.899-19.326 18.557-28.558 4.331-6.011 12.652-12.809 14.426-20.321.419-1.797-2.334-2.558-2.761-.762z"></path><g fill="#0077BF"><path d="M126.441 440.864c-27.195-.008-60.877-18.128-67.674-45.106-5.25-20.826 2.349-36.35 9.643-45.713 12.91-16.564 34.787-26.861 57.09-26.861.607 0 1.222.008 1.828.031 1.136.031 2.131.295 3.025.809l.839.475.957.008c28.752.28 43.372 22.148 47.471 42.517 5.141 25.556-4.394 57.774-32.562 69.899-6.066 2.62-13.003 3.941-20.617 3.941zm-8.492-104.179c-19.077 3.306-42.369 17.935-48.303 36.691-2.597 8.213-2.986 20.687 9.9 33.542 10.794 10.779 29.731 21.644 47.696 21.644 9.674 0 17.903-3.11 24.435-9.254 15.453-14.513 21.138-39.01 13.517-58.266-5.98-15.118-18.914-23.781-35.463-23.781-1.967 0-4.021.116-6.089.357a6.94 6.94 0 0 1-.871.062c-.895 0-1.688-.194-2.356-.575l-1.151-.646-1.315.226z"></path><path d="M308.748 427.667c-18.75-1.571-37.523-1.688-58.35-1.688h-5.693c-.653 0-1.322-.117-2.1-.365l-.934-.296-.964.202a7.13 7.13 0 0 1-1.462.155c-2.147 0-3.874-1.003-5.117-2.971-5.483-8.609-5.849-17.553-6.238-27.025-.28-6.852-.56-13.936-2.737-21.386-9.426-32.306-28.728-62.114-52.945-81.782-18.478-15.017-41.63-23.642-72.878-27.148-2.045-.227-4.254-.382-6.564-.537-7.255-.498-15.5-1.058-20.616-4.479-1.229-.825-2.131-1.96-2.684-3.376l-.412-1.065-.949-.645c-1.097-.754-1.867-1.89-2.287-3.383-7.17-25.555-8.344-51.219-3.321-72.248.863-3.585 3.375-4.347 5.335-4.347 2.022 0 4.044.839 5.413 2.239l1.05 1.074 1.5.046c80.212 2.201 138.289 26.317 177.54 73.733 35.82 43.254 53.669 93.221 57.876 162.032l.069 1.4.995.995c1.991 1.999 2.668 5.467 1.595 8.072-.793 1.89-2.24 2.815-4.44 2.815.003.001-.449-.006-.682-.022zM72.804 194.655c-2.13 19.287 1.213 38.029 4.378 50.356l.42 1.633 1.516.754c1.121.576 2.124 1.548 2.816 2.73l.7 1.229 1.345.443c7.349 2.427 18.042 3.274 27.476 4.028 7.007.561 13.555 1.082 17.537 2.108 16.534 4.246 37.446 11.027 52.51 25.866 21.262 20.935 36.458 41.334 47.821 64.175 4.549 9.138 5.739 20.85 6.89 32.181 1.089 10.701 2.217 21.753 6.175 30.874l.973 2.226h4.176c15.507.015 31.333.031 46.816.8l4.169.202-.28-4.159c-4.487-65.382-21.487-112.51-53.505-148.338-41.529-46.467-93.385-68.188-168.138-70.412l-3.421-.094-.374 3.398z"></path><path d="M369.541 429.37c-1.354 0-2.435-.373-3.274-1.144l-2.131-1.937-2.403 1.587c-1.314.863-2.854 1.345-4.324 1.345-1.812 0-4.09-.73-4.682-4.198-2.629-15.398-2.932-31.21-3.234-46.483-.39-20.002-.794-40.681-6.3-61.196-10.856-40.557-28.643-73.842-52.844-98.931-56.975-59.027-128.747-71.501-204.736-84.706l-8.99-1.571c-1.579-.28-2.714-.902-3.383-1.882-.731-1.05-.972-2.52-.669-4.161l.312-1.672-1.065-1.33c-.778-.965-1.175-2.232-1.19-3.741-.062-9.784-.451-19.691-.833-29.28l-.016-.311c-.357-9.037-.77-19.279-.832-29.109-.007-1.781.49-3.15 1.532-4.208 1.136-1.136 2.87-1.788 4.76-1.788 1.742 0 3.352.536 4.518 1.523l.77.661.996.172c14.869 2.52 30.189 4.261 45.004 5.94 36.085 4.091 73.329 8.306 106.567 24.257 45.426 21.783 80.608 46.202 107.563 74.642 33.262 35.105 56.444 71.175 68.911 107.206 13.073 37.741 17.739 77.785 22.25 116.514 1.058 9.029 2.114 18.074 3.273 27.11l.171 1.338.989.909c2.083 1.929 2.854 5.421 1.788 8.12-.771 1.968-2.294 2.963-4.534 2.963-.203 0-.42-.008-.638-.031a156.948 156.948 0 0 0-12.373-.467c-12.218 0-24.544 1.26-36.466 2.489-4.791.482-9.325.948-13.852 1.337a5.47 5.47 0 0 1-.635.033zM81.927 74.307c.147 5.195.35 10.39.56 15.593.35 9.153.715 18.424.809 27.522l.039 3.08 5.561.965c79.814 13.897 162.343 28.253 216.688 95.034 23.503 28.868 39.422 58.458 47.3 87.925 5.925 22.056 6.858 44.359 7.746 65.933.605 14.264 1.221 29.016 3.25 43.762l.639 4.604 4.347-1.642c.73-.271 1.36-.428 1.975-.481 4.581-.389 9.185-.871 13.805-1.338 11.145-1.119 22.537-2.278 33.659-2.427l4.137-.046-.498-4.106c-1.073-8.796-2.021-17.856-2.955-26.62-3.904-37.073-7.932-75.266-21.868-110.238-17.966-45.075-45.551-84.753-79.792-114.756-29.101-25.524-73.943-58.42-122.253-70.21-23.635-5.778-47.984-8.672-71.532-11.472-12.257-1.462-24.933-2.962-37.353-4.868l-4.402-.677.138 4.463z"></path></g></svg>