<svg xmlns="http://www.w3.org/2000/svg" xmlns:xlink="http://www.w3.org/1999/xlink" width="327" zoomAndPan="magnify" viewBox="0 0 245.25 86.999996" height="116" preserveAspectRatio="xMidYMid meet" version="1.0"><defs><g/><clipPath id="6d2c06d4e0"><path d="M 0 0.132812 L 49.242188 0.132812 L 49.242188 4.679688 L 0 4.679688 Z M 0 4.679688 L 4.546875 4.679688 L 4.546875 76.582031 L 0 76.582031 Z M 0 4.679688 " clip-rule="nonzero"/></clipPath><clipPath id="f2fc188e6e"><path d="M 239.949219 10.414062 L 244.496094 10.414062 L 244.496094 82.316406 L 239.949219 82.316406 Z M 194.800781 82.316406 L 244.496094 82.316406 L 244.496094 86.863281 L 194.800781 86.863281 Z M 194.800781 82.316406 " clip-rule="nonzero"/></clipPath></defs><g clip-path="url(#6d2c06d4e0)"><path fill="#ffc61a" d="M 0 0.132812 L 49.242188 0.132812 L 49.242188 76.582031 L 0 76.582031 Z M 0 0.132812 " fill-opacity="1" fill-rule="nonzero"/></g><g clip-path="url(#f2fc188e6e)"><path fill="#ffc61a" d="M 244.496094 86.863281 L 194.800781 86.863281 L 194.800781 10.414062 L 244.496094 10.414062 Z M 244.496094 86.863281 " fill-opacity="1" fill-rule="nonzero"/></g><g fill="#ffffff" fill-opacity="1"><g transform="translate(56.770957, 70.314684)"><g><path d="M 28.914062 -34.9375 L 23.277344 -34.9375 C 22.972656 -34.9375 22.753906 -34.722656 22.753906 -34.546875 L 22.753906 -11.792969 L 6.636719 -34.808594 C 6.59375 -34.894531 6.332031 -34.9375 6.246094 -34.9375 L 0.4375 -34.9375 C 0.21875 -34.9375 0 -34.722656 0 -34.546875 L 0 -8.386719 L 6.683594 -8.386719 L 6.683594 -23.148438 L 22.753906 -0.132812 C 22.796875 -0.0429688 23.058594 0 23.148438 0 L 28.914062 0 C 29.21875 0 29.390625 -0.21875 29.390625 -0.394531 L 29.390625 -34.546875 C 29.390625 -34.722656 29.21875 -34.9375 28.914062 -34.9375 Z M 28.914062 -34.9375 "/></g></g></g><g fill="#ffffff" fill-opacity="1"><g transform="translate(87.646501, 70.314684)"><g><path d="M 7.207031 -22.273438 L 7.207031 -0.394531 C 7.207031 -0.21875 7.382812 0 7.6875 0 L 13.320312 0 C 13.625 0 13.84375 -0.21875 13.84375 -0.394531 L 13.84375 -22.273438 Z M 0.480469 -28.957031 L 20.527344 -28.957031 C 20.832031 -28.957031 21.007812 -29.128906 21.007812 -29.347656 L 21.007812 -34.546875 C 21.007812 -34.722656 20.832031 -34.9375 20.527344 -34.9375 L 0.480469 -34.9375 C 0.21875 -34.9375 0 -34.722656 0 -34.546875 L 0 -29.347656 C 0 -29.128906 0.21875 -28.957031 0.480469 -28.957031 Z M 0.480469 -28.957031 "/></g></g></g><g fill="#ffffff" fill-opacity="1"><g transform="translate(109.700464, 70.314684)"><g><path d="M 7.207031 -22.273438 L 7.207031 -0.394531 C 7.207031 -0.21875 7.382812 0 7.6875 0 L 13.320312 0 C 13.625 0 13.84375 -0.21875 13.84375 -0.394531 L 13.84375 -22.273438 Z M 0.480469 -28.957031 L 20.527344 -28.957031 C 20.832031 -28.957031 21.007812 -29.128906 21.007812 -29.347656 L 21.007812 -34.546875 C 21.007812 -34.722656 20.832031 -34.9375 20.527344 -34.9375 L 0.480469 -34.9375 C 0.21875 -34.9375 0 -34.722656 0 -34.546875 L 0 -29.347656 C 0 -29.128906 0.21875 -28.957031 0.480469 -28.957031 Z M 0.480469 -28.957031 "/></g></g></g><g fill="#ffffff" fill-opacity="1"><g transform="translate(131.754427, 70.314684)"><g/></g></g><g fill="#ffffff" fill-opacity="1"><g transform="translate(142.672233, 70.314684)"><g><path d="M 6.203125 -34.9375 L 0.480469 -34.9375 C 0.21875 -34.9375 0 -34.722656 0 -34.546875 L 0 -20.832031 L 6.683594 -20.832031 L 6.683594 -28.5625 C 14.28125 -28.957031 19.914062 -25.769531 19.914062 -17.46875 C 19.914062 -6.683594 10.917969 -6.246094 6.683594 -6.421875 L 6.683594 -14.105469 L 0 -14.105469 L 0 -0.394531 C 0 -0.21875 0.21875 0 0.480469 0 L 6.203125 0 C 14.894531 0 26.640625 -2.53125 26.640625 -17.46875 C 26.640625 -32.972656 14.71875 -34.9375 6.203125 -34.9375 Z M 6.203125 -34.9375 "/></g></g></g><g fill="#ffffff" fill-opacity="1"><g transform="translate(170.665483, 70.314684)"><g><path d="M 27.425781 -0.523438 L 14.148438 -34.675781 C 14.019531 -35.027344 13.40625 -35.027344 13.277344 -34.675781 L 0.0429688 -0.523438 C -0.0859375 -0.261719 0.0859375 0 0.480469 0 L 6.464844 0 C 6.636719 0 6.855469 -0.0859375 6.902344 -0.261719 L 13.714844 -19.742188 L 20.613281 -0.261719 C 20.65625 -0.0859375 20.875 0 21.007812 0 L 27.035156 0 C 27.339844 0 27.558594 -0.261719 27.425781 -0.523438 Z M 27.425781 -0.523438 "/></g></g></g><g fill="#ffffff" fill-opacity="1"><g transform="translate(199.488479, 70.314684)"><g><path d="M 18.210938 -28.433594 L 13.625 -15.636719 L 6.8125 -34.675781 C 6.769531 -34.851562 6.59375 -34.9375 6.375 -34.9375 L 0.4375 -34.9375 C 0.0859375 -34.9375 -0.0859375 -34.675781 0.0429688 -34.414062 L 13.191406 -0.21875 C 13.363281 0.0859375 13.886719 0.0859375 14.019531 -0.21875 L 24.9375 -28.433594 Z M 18.210938 -28.433594 "/></g></g></g><g fill="#ffffff" fill-opacity="1"><g transform="translate(55.500111, 23.061946)"><g><path d="M 2.921875 -9.953125 L 2.921875 0 L 0.765625 0 L 0.765625 -9.953125 Z M 2.921875 -9.953125 "/></g></g></g><g fill="#ffffff" fill-opacity="1"><g transform="translate(59.255304, 23.061946)"><g><path d="M 0.203125 -8.125 L 0.203125 -9.953125 L 5.59375 -9.953125 L 5.59375 -8.125 L 3.96875 -8.125 L 3.96875 0 L 1.8125 0 L 1.8125 -8.125 Z M 0.203125 -8.125 "/></g></g></g><g fill="#ffffff" fill-opacity="1"><g transform="translate(65.05738, 23.061946)"><g/></g></g><g fill="#ffffff" fill-opacity="1"><g transform="translate(68.166184, 23.061946)"><g><path d="M 4.234375 -4.703125 C 5.503906 -4.703125 6.140625 -4.023438 6.140625 -2.671875 L 6.140625 -1.875 C 6.140625 -0.519531 5.503906 0.15625 4.234375 0.15625 L 2.53125 0.15625 C 1.25 0.15625 0.609375 -0.519531 0.609375 -1.875 L 0.609375 -2.359375 L 2.53125 -2.359375 L 2.53125 -1.671875 C 2.53125 -1.585938 2.554688 -1.515625 2.609375 -1.453125 C 2.660156 -1.398438 2.726562 -1.375 2.8125 -1.375 L 4.078125 -1.375 C 4.160156 -1.375 4.226562 -1.398438 4.28125 -1.453125 C 4.34375 -1.515625 4.375 -1.585938 4.375 -1.671875 L 4.375 -2.59375 C 4.375 -2.675781 4.34375 -2.75 4.28125 -2.8125 C 4.226562 -2.875 4.160156 -2.90625 4.078125 -2.90625 L 2.5 -2.90625 C 1.21875 -2.90625 0.578125 -3.582031 0.578125 -4.9375 L 0.578125 -5.640625 C 0.578125 -6.992188 1.21875 -7.671875 2.5 -7.671875 L 4.109375 -7.671875 C 5.378906 -7.671875 6.015625 -6.992188 6.015625 -5.640625 L 6.015625 -5.359375 L 4.109375 -5.359375 L 4.109375 -5.828125 C 4.109375 -5.910156 4.078125 -5.984375 4.015625 -6.046875 C 3.960938 -6.109375 3.894531 -6.140625 3.8125 -6.140625 L 2.640625 -6.140625 C 2.566406 -6.140625 2.5 -6.109375 2.4375 -6.046875 C 2.382812 -5.984375 2.359375 -5.910156 2.359375 -5.828125 L 2.359375 -5.015625 C 2.359375 -4.929688 2.382812 -4.859375 2.4375 -4.796875 C 2.5 -4.734375 2.566406 -4.703125 2.640625 -4.703125 Z M 4.234375 -4.703125 "/></g></g></g><g fill="#ffffff" fill-opacity="1"><g transform="translate(74.830108, 23.061946)"><g><path d="M 4.34375 -7.671875 C 5.613281 -7.671875 6.25 -6.992188 6.25 -5.640625 L 6.25 -3.203125 L 2.75 -3.203125 L 2.75 -1.625 C 2.75 -1.550781 2.773438 -1.484375 2.828125 -1.421875 C 2.890625 -1.359375 2.960938 -1.328125 3.046875 -1.328125 L 3.890625 -1.328125 C 3.972656 -1.328125 4.039062 -1.359375 4.09375 -1.421875 C 4.15625 -1.484375 4.1875 -1.550781 4.1875 -1.625 L 4.1875 -2.46875 L 6.25 -2.46875 L 6.25 -1.875 C 6.25 -0.519531 5.613281 0.15625 4.34375 0.15625 L 2.59375 0.15625 C 1.320312 0.15625 0.6875 -0.519531 0.6875 -1.875 L 0.6875 -5.640625 C 0.6875 -6.992188 1.320312 -7.671875 2.59375 -7.671875 Z M 2.75 -4.5625 L 4.1875 -4.5625 L 4.1875 -5.9375 C 4.1875 -6.019531 4.15625 -6.09375 4.09375 -6.15625 C 4.039062 -6.21875 3.972656 -6.25 3.890625 -6.25 L 3.046875 -6.25 C 2.960938 -6.25 2.890625 -6.21875 2.828125 -6.15625 C 2.773438 -6.09375 2.75 -6.019531 2.75 -5.9375 Z M 2.75 -4.5625 "/></g></g></g><g fill="#ffffff" fill-opacity="1"><g transform="translate(81.524812, 23.061946)"><g><path d="M 3.890625 -7.671875 L 4.296875 -7.671875 L 4.296875 -5.65625 L 3.28125 -5.65625 C 2.925781 -5.65625 2.75 -5.476562 2.75 -5.125 L 2.75 0 L 0.6875 0 L 0.6875 -7.515625 L 2.5625 -7.515625 L 2.5625 -6.78125 C 2.863281 -7.375 3.304688 -7.671875 3.890625 -7.671875 Z M 3.890625 -7.671875 "/></g></g></g><g fill="#ffffff" fill-opacity="1"><g transform="translate(86.049514, 23.061946)"><g><path d="M 4.15625 -7.515625 L 6.15625 -7.515625 L 4.515625 0 L 1.78125 0 L 0.140625 -7.515625 L 2.140625 -7.515625 L 3.15625 -1.671875 Z M 4.15625 -7.515625 "/></g></g></g><g fill="#ffffff" fill-opacity="1"><g transform="translate(92.405638, 23.061946)"><g><path d="M 4.34375 -7.671875 C 5.613281 -7.671875 6.25 -6.992188 6.25 -5.640625 L 6.25 -3.203125 L 2.75 -3.203125 L 2.75 -1.625 C 2.75 -1.550781 2.773438 -1.484375 2.828125 -1.421875 C 2.890625 -1.359375 2.960938 -1.328125 3.046875 -1.328125 L 3.890625 -1.328125 C 3.972656 -1.328125 4.039062 -1.359375 4.09375 -1.421875 C 4.15625 -1.484375 4.1875 -1.550781 4.1875 -1.625 L 4.1875 -2.46875 L 6.25 -2.46875 L 6.25 -1.875 C 6.25 -0.519531 5.613281 0.15625 4.34375 0.15625 L 2.59375 0.15625 C 1.320312 0.15625 0.6875 -0.519531 0.6875 -1.875 L 0.6875 -5.640625 C 0.6875 -6.992188 1.320312 -7.671875 2.59375 -7.671875 Z M 2.75 -4.5625 L 4.1875 -4.5625 L 4.1875 -5.9375 C 4.1875 -6.019531 4.15625 -6.09375 4.09375 -6.15625 C 4.039062 -6.21875 3.972656 -6.25 3.890625 -6.25 L 3.046875 -6.25 C 2.960938 -6.25 2.890625 -6.21875 2.828125 -6.15625 C 2.773438 -6.09375 2.75 -6.019531 2.75 -5.9375 Z M 2.75 -4.5625 "/></g></g></g><g fill="#ffffff" fill-opacity="1"><g transform="translate(99.100341, 23.061946)"><g><path d="M 4.234375 -4.703125 C 5.503906 -4.703125 6.140625 -4.023438 6.140625 -2.671875 L 6.140625 -1.875 C 6.140625 -0.519531 5.503906 0.15625 4.234375 0.15625 L 2.53125 0.15625 C 1.25 0.15625 0.609375 -0.519531 0.609375 -1.875 L 0.609375 -2.359375 L 2.53125 -2.359375 L 2.53125 -1.671875 C 2.53125 -1.585938 2.554688 -1.515625 2.609375 -1.453125 C 2.660156 -1.398438 2.726562 -1.375 2.8125 -1.375 L 4.078125 -1.375 C 4.160156 -1.375 4.226562 -1.398438 4.28125 -1.453125 C 4.34375 -1.515625 4.375 -1.585938 4.375 -1.671875 L 4.375 -2.59375 C 4.375 -2.675781 4.34375 -2.75 4.28125 -2.8125 C 4.226562 -2.875 4.160156 -2.90625 4.078125 -2.90625 L 2.5 -2.90625 C 1.21875 -2.90625 0.578125 -3.582031 0.578125 -4.9375 L 0.578125 -5.640625 C 0.578125 -6.992188 1.21875 -7.671875 2.5 -7.671875 L 4.109375 -7.671875 C 5.378906 -7.671875 6.015625 -6.992188 6.015625 -5.640625 L 6.015625 -5.359375 L 4.109375 -5.359375 L 4.109375 -5.828125 C 4.109375 -5.910156 4.078125 -5.984375 4.015625 -6.046875 C 3.960938 -6.109375 3.894531 -6.140625 3.8125 -6.140625 L 2.640625 -6.140625 C 2.566406 -6.140625 2.5 -6.109375 2.4375 -6.046875 C 2.382812 -5.984375 2.359375 -5.910156 2.359375 -5.828125 L 2.359375 -5.015625 C 2.359375 -4.929688 2.382812 -4.859375 2.4375 -4.796875 C 2.5 -4.734375 2.566406 -4.703125 2.640625 -4.703125 Z M 4.234375 -4.703125 "/></g></g></g><g fill="#ffffff" fill-opacity="1"><g transform="translate(105.764265, 23.061946)"><g/></g></g><g fill="#ffffff" fill-opacity="1"><g transform="translate(108.87307, 23.061946)"><g><path d="M 4.34375 -7.671875 C 5.613281 -7.671875 6.25 -6.992188 6.25 -5.640625 L 6.25 -3.203125 L 2.75 -3.203125 L 2.75 -1.625 C 2.75 -1.550781 2.773438 -1.484375 2.828125 -1.421875 C 2.890625 -1.359375 2.960938 -1.328125 3.046875 -1.328125 L 3.890625 -1.328125 C 3.972656 -1.328125 4.039062 -1.359375 4.09375 -1.421875 C 4.15625 -1.484375 4.1875 -1.550781 4.1875 -1.625 L 4.1875 -2.46875 L 6.25 -2.46875 L 6.25 -1.875 C 6.25 -0.519531 5.613281 0.15625 4.34375 0.15625 L 2.59375 0.15625 C 1.320312 0.15625 0.6875 -0.519531 0.6875 -1.875 L 0.6875 -5.640625 C 0.6875 -6.992188 1.320312 -7.671875 2.59375 -7.671875 Z M 2.75 -4.5625 L 4.1875 -4.5625 L 4.1875 -5.9375 C 4.1875 -6.019531 4.15625 -6.09375 4.09375 -6.15625 C 4.039062 -6.21875 3.972656 -6.25 3.890625 -6.25 L 3.046875 -6.25 C 2.960938 -6.25 2.890625 -6.21875 2.828125 -6.15625 C 2.773438 -6.09375 2.75 -6.019531 2.75 -5.9375 Z M 2.75 -4.5625 "/></g></g></g><g fill="#ffffff" fill-opacity="1"><g transform="translate(115.567773, 23.061946)"><g><path d="M 2.921875 -7.671875 C 3.441406 -7.671875 3.863281 -7.546875 4.1875 -7.296875 L 4.1875 -9.953125 L 6.25 -9.953125 L 6.25 0 L 4.515625 0 L 4.515625 -0.546875 C 4.191406 -0.078125 3.660156 0.15625 2.921875 0.15625 L 2.59375 0.15625 C 1.320312 0.15625 0.6875 -0.519531 0.6875 -1.875 L 0.6875 -5.640625 C 0.6875 -6.992188 1.320312 -7.671875 2.59375 -7.671875 Z M 4.1875 -1.625 L 4.1875 -5.875 C 4.1875 -5.957031 4.15625 -6.03125 4.09375 -6.09375 C 4.039062 -6.15625 3.972656 -6.1875 3.890625 -6.1875 L 3.046875 -6.1875 C 2.960938 -6.1875 2.890625 -6.15625 2.828125 -6.09375 C 2.773438 -6.03125 2.75 -5.957031 2.75 -5.875 L 2.75 -1.625 C 2.75 -1.550781 2.773438 -1.484375 2.828125 -1.421875 C 2.890625 -1.359375 2.960938 -1.328125 3.046875 -1.328125 L 3.890625 -1.328125 C 3.972656 -1.328125 4.039062 -1.359375 4.09375 -1.421875 C 4.15625 -1.484375 4.1875 -1.550781 4.1875 -1.625 Z M 4.1875 -1.625 "/></g></g></g><g fill="#ffffff" fill-opacity="1"><g transform="translate(122.524112, 23.061946)"><g><path d="M 4.1875 -7.515625 L 6.25 -7.515625 L 6.25 0 L 4.375 0 L 4.375 -0.390625 C 4.050781 -0.0234375 3.566406 0.15625 2.921875 0.15625 L 2.59375 0.15625 C 1.320312 0.15625 0.6875 -0.519531 0.6875 -1.875 L 0.6875 -7.515625 L 2.75 -7.515625 L 2.75 -1.625 C 2.75 -1.550781 2.773438 -1.484375 2.828125 -1.421875 C 2.890625 -1.359375 2.960938 -1.328125 3.046875 -1.328125 L 3.890625 -1.328125 C 3.972656 -1.328125 4.039062 -1.359375 4.09375 -1.421875 C 4.15625 -1.484375 4.1875 -1.550781 4.1875 -1.625 Z M 4.1875 -7.515625 "/></g></g></g><g fill="#ffffff" fill-opacity="1"><g transform="translate(129.48045, 23.061946)"><g><path d="M 6.25 -4.5625 L 4.1875 -4.5625 L 4.1875 -5.875 C 4.1875 -5.957031 4.15625 -6.03125 4.09375 -6.09375 C 4.039062 -6.15625 3.972656 -6.1875 3.890625 -6.1875 L 3.046875 -6.1875 C 2.960938 -6.1875 2.890625 -6.15625 2.828125 -6.09375 C 2.773438 -6.03125 2.75 -5.957031 2.75 -5.875 L 2.75 -1.625 C 2.75 -1.550781 2.773438 -1.484375 2.828125 -1.421875 C 2.890625 -1.359375 2.960938 -1.328125 3.046875 -1.328125 L 3.890625 -1.328125 C 3.972656 -1.328125 4.039062 -1.359375 4.09375 -1.421875 C 4.15625 -1.484375 4.1875 -1.550781 4.1875 -1.625 L 4.1875 -2.953125 L 6.25 -2.953125 L 6.25 -1.875 C 6.25 -0.519531 5.613281 0.15625 4.34375 0.15625 L 2.59375 0.15625 C 1.320312 0.15625 0.6875 -0.519531 0.6875 -1.875 L 0.6875 -5.640625 C 0.6875 -6.992188 1.320312 -7.671875 2.59375 -7.671875 L 4.34375 -7.671875 C 5.613281 -7.671875 6.25 -6.992188 6.25 -5.640625 Z M 6.25 -4.5625 "/></g></g></g><g fill="#ffffff" fill-opacity="1"><g transform="translate(136.344448, 23.061946)"><g><path d="M 4.515625 -7.515625 L 6.25 -7.515625 L 6.25 0 L 4.515625 0 L 4.515625 -0.546875 C 4.191406 -0.078125 3.660156 0.15625 2.921875 0.15625 L 2.59375 0.15625 C 1.320312 0.15625 0.6875 -0.519531 0.6875 -1.875 L 0.6875 -5.640625 C 0.6875 -6.992188 1.320312 -7.671875 2.59375 -7.671875 L 2.921875 -7.671875 C 3.660156 -7.671875 4.191406 -7.429688 4.515625 -6.953125 Z M 4.1875 -1.625 L 4.1875 -5.875 C 4.1875 -5.957031 4.15625 -6.03125 4.09375 -6.09375 C 4.039062 -6.15625 3.972656 -6.1875 3.890625 -6.1875 L 3.046875 -6.1875 C 2.960938 -6.1875 2.890625 -6.15625 2.828125 -6.09375 C 2.773438 -6.03125 2.75 -5.957031 2.75 -5.875 L 2.75 -1.625 C 2.75 -1.550781 2.773438 -1.484375 2.828125 -1.421875 C 2.890625 -1.359375 2.960938 -1.328125 3.046875 -1.328125 L 3.890625 -1.328125 C 3.972656 -1.328125 4.039062 -1.359375 4.09375 -1.421875 C 4.15625 -1.484375 4.1875 -1.550781 4.1875 -1.625 Z M 4.1875 -1.625 "/></g></g></g><g fill="#ffffff" fill-opacity="1"><g transform="translate(143.300786, 23.061946)"><g><path d="M 3.4375 -1.1875 L 4.046875 -1.1875 L 4.046875 0.15625 L 2.59375 0.15625 C 1.320312 0.15625 0.6875 -0.519531 0.6875 -1.875 L 0.6875 -9.140625 L 2.75 -9.140625 L 2.75 -7.515625 L 4.046875 -7.515625 L 4.046875 -6.015625 L 2.75 -6.015625 L 2.75 -1.921875 C 2.75 -1.640625 2.804688 -1.445312 2.921875 -1.34375 C 3.035156 -1.238281 3.207031 -1.1875 3.4375 -1.1875 Z M 3.4375 -1.1875 "/></g></g></g><g fill="#ffffff" fill-opacity="1"><g transform="translate(147.733148, 23.061946)"><g><path d="M 2.796875 -8.4375 C 2.578125 -8.226562 2.3125 -8.125 2 -8.125 C 1.695312 -8.125 1.429688 -8.234375 1.203125 -8.453125 C 0.972656 -8.671875 0.859375 -8.9375 0.859375 -9.25 C 0.859375 -9.570312 0.972656 -9.84375 1.203125 -10.0625 C 1.429688 -10.28125 1.695312 -10.390625 2 -10.390625 C 2.3125 -10.390625 2.578125 -10.28125 2.796875 -10.0625 C 3.015625 -9.84375 3.125 -9.570312 3.125 -9.25 C 3.125 -8.925781 3.015625 -8.65625 2.796875 -8.4375 Z M 0.96875 0 L 0.96875 -7.515625 L 3.03125 -7.515625 L 3.03125 0 Z M 0.96875 0 "/></g></g></g><g fill="#ffffff" fill-opacity="1"><g transform="translate(151.519121, 23.061946)"><g><path d="M 6.25 -5.640625 L 6.25 -1.875 C 6.25 -0.519531 5.613281 0.15625 4.34375 0.15625 L 2.59375 0.15625 C 1.320312 0.15625 0.6875 -0.519531 0.6875 -1.875 L 0.6875 -5.640625 C 0.6875 -6.992188 1.320312 -7.671875 2.59375 -7.671875 L 4.34375 -7.671875 C 5.613281 -7.671875 6.25 -6.992188 6.25 -5.640625 Z M 4.1875 -1.453125 L 4.1875 -6.078125 C 4.1875 -6.160156 4.15625 -6.234375 4.09375 -6.296875 C 4.039062 -6.359375 3.972656 -6.390625 3.890625 -6.390625 L 3.046875 -6.390625 C 2.960938 -6.390625 2.890625 -6.359375 2.828125 -6.296875 C 2.773438 -6.234375 2.75 -6.160156 2.75 -6.078125 L 2.75 -1.453125 C 2.75 -1.367188 2.773438 -1.296875 2.828125 -1.234375 C 2.890625 -1.171875 2.960938 -1.140625 3.046875 -1.140625 L 3.890625 -1.140625 C 3.972656 -1.140625 4.039062 -1.171875 4.09375 -1.234375 C 4.15625 -1.296875 4.1875 -1.367188 4.1875 -1.453125 Z M 4.1875 -1.453125 "/></g></g></g><g fill="#ffffff" fill-opacity="1"><g transform="translate(158.475459, 23.061946)"><g><path d="M 2.75 0 L 0.6875 0 L 0.6875 -7.515625 L 2.5625 -7.515625 L 2.5625 -7.125 C 2.882812 -7.488281 3.367188 -7.671875 4.015625 -7.671875 L 4.34375 -7.671875 C 5.613281 -7.671875 6.25 -6.992188 6.25 -5.640625 L 6.25 0 L 4.1875 0 L 4.1875 -5.875 C 4.1875 -5.957031 4.15625 -6.03125 4.09375 -6.09375 C 4.039062 -6.15625 3.972656 -6.1875 3.890625 -6.1875 L 3.046875 -6.1875 C 2.960938 -6.1875 2.890625 -6.15625 2.828125 -6.09375 C 2.773438 -6.03125 2.75 -5.957031 2.75 -5.875 Z M 2.75 0 "/></g></g></g><g fill="#8c52ff" fill-opacity="1"><g transform="translate(19.814783, 71.172547)"><g><path d="M 24.738281 -7.957031 C 19.488281 -7.742188 8.335938 -8.28125 8.335938 -21.652344 C 8.335938 -31.9375 15.320312 -35.890625 24.738281 -35.402344 L 24.738281 -25.820312 L 33.019531 -25.820312 L 33.019531 -42.820312 C 33.019531 -43.035156 32.804688 -43.308594 32.425781 -43.308594 L 25.386719 -43.308594 C 14.777344 -43.308594 0 -40.871094 0 -21.652344 C 0 -3.140625 14.617188 0 25.386719 0 L 32.425781 0 C 32.804688 0 33.019531 -0.269531 33.019531 -0.488281 L 33.019531 -7.957031 Z M 24.738281 -7.957031 "/></g></g></g></svg>