<svg xmlns="http://www.w3.org/2000/svg" xmlns:xlink="http://www.w3.org/1999/xlink" width="160" zoomAndPan="magnify" viewBox="0 0 490.5 173.999997" height="75" preserveAspectRatio="xMidYMid meet" version="1.0"><defs><g/><clipPath id="7f7db4014d"><path d="M 0 0.0898438 L 98.683594 0.0898438 L 98.683594 9.199219 L 0 9.199219 Z M 0 9.199219 L 9.109375 9.199219 L 9.109375 153.296875 L 0 153.296875 Z M 0 9.199219 " clip-rule="nonzero"/></clipPath><clipPath id="a0abb52b3a"><path d="M 480.886719 20.691406 L 490 20.691406 L 490 164.789062 L 480.886719 164.789062 Z M 390.40625 164.789062 L 490 164.789062 L 490 173.898438 L 390.40625 173.898438 Z M 390.40625 164.789062 " clip-rule="nonzero"/></clipPath></defs><g clip-path="url(#7f7db4014d)"><path fill="#feb343" d="M 0 0.0898438 L 98.683594 0.0898438 L 98.683594 153.296875 L 0 153.296875 Z M 0 0.0898438 " fill-opacity="1" fill-rule="nonzero"/></g><g clip-path="url(#a0abb52b3a)"><path fill="#feb343" d="M 490 173.898438 L 390.40625 173.898438 L 390.40625 20.691406 L 490 20.691406 Z M 490 173.898438 " fill-opacity="1" fill-rule="nonzero"/></g><g fill="#080319" fill-opacity="1"><g transform="translate(113.77316, 140.738597)"><g><path d="M 57.941406 -70.019531 L 46.652344 -70.019531 C 46.039062 -70.019531 45.601562 -69.582031 45.601562 -69.234375 L 45.601562 -23.632812 L 13.304688 -69.757812 C 13.214844 -69.933594 12.691406 -70.019531 12.515625 -70.019531 L 0.875 -70.019531 C 0.4375 -70.019531 0 -69.582031 0 -69.234375 L 0 -16.804688 L 13.390625 -16.804688 L 13.390625 -46.386719 L 45.601562 -0.261719 C 45.6875 -0.0859375 46.214844 0 46.386719 0 L 57.941406 0 C 58.554688 0 58.90625 -0.4375 58.90625 -0.789062 L 58.90625 -69.234375 C 58.90625 -69.582031 58.554688 -70.019531 57.941406 -70.019531 Z M 57.941406 -70.019531 "/></g></g></g><g fill="#080319" fill-opacity="1"><g transform="translate(175.650015, 140.738597)"><g><path d="M 14.441406 -44.636719 L 14.441406 -0.789062 C 14.441406 -0.4375 14.792969 0 15.40625 0 L 26.695312 0 C 27.308594 0 27.746094 -0.4375 27.746094 -0.789062 L 27.746094 -44.636719 Z M 0.960938 -58.03125 L 41.136719 -58.03125 C 41.75 -58.03125 42.101562 -58.378906 42.101562 -58.816406 L 42.101562 -69.234375 C 42.101562 -69.582031 41.75 -70.019531 41.136719 -70.019531 L 0.960938 -70.019531 C 0.4375 -70.019531 0 -69.582031 0 -69.234375 L 0 -58.816406 C 0 -58.378906 0.4375 -58.03125 0.960938 -58.03125 Z M 0.960938 -58.03125 "/></g></g></g><g fill="#080319" fill-opacity="1"><g transform="translate(219.847773, 140.738597)"><g><path d="M 14.441406 -44.636719 L 14.441406 -0.789062 C 14.441406 -0.4375 14.792969 0 15.40625 0 L 26.695312 0 C 27.308594 0 27.746094 -0.4375 27.746094 -0.789062 L 27.746094 -44.636719 Z M 0.960938 -58.03125 L 41.136719 -58.03125 C 41.75 -58.03125 42.101562 -58.378906 42.101562 -58.816406 L 42.101562 -69.234375 C 42.101562 -69.582031 41.75 -70.019531 41.136719 -70.019531 L 0.960938 -70.019531 C 0.4375 -70.019531 0 -69.582031 0 -69.234375 L 0 -58.816406 C 0 -58.378906 0.4375 -58.03125 0.960938 -58.03125 Z M 0.960938 -58.03125 "/></g></g></g><g fill="#080319" fill-opacity="1"><g transform="translate(264.045531, 140.738597)"><g/></g></g><g fill="#080319" fill-opacity="1"><g transform="translate(285.925616, 140.738597)"><g><path d="M 12.429688 -70.019531 L 0.960938 -70.019531 C 0.4375 -70.019531 0 -69.582031 0 -69.234375 L 0 -41.75 L 13.390625 -41.75 L 13.390625 -57.242188 C 28.621094 -58.03125 39.910156 -51.640625 39.910156 -35.011719 C 39.910156 -13.390625 21.882812 -12.515625 13.390625 -12.867188 L 13.390625 -28.269531 L 0 -28.269531 L 0 -0.789062 C 0 -0.4375 0.4375 0 0.960938 0 L 12.429688 0 C 29.847656 0 53.390625 -5.078125 53.390625 -35.011719 C 53.390625 -66.082031 29.496094 -70.019531 12.429688 -70.019531 Z M 12.429688 -70.019531 "/></g></g></g><g fill="#080319" fill-opacity="1"><g transform="translate(342.026142, 140.738597)"><g><path d="M 54.964844 -1.050781 L 28.359375 -69.496094 C 28.097656 -70.195312 26.871094 -70.195312 26.609375 -69.496094 L 0.0859375 -1.050781 C -0.175781 -0.523438 0.175781 0 0.960938 0 L 12.953125 0 C 13.304688 0 13.742188 -0.175781 13.828125 -0.523438 L 27.484375 -39.5625 L 41.3125 -0.523438 C 41.398438 -0.175781 41.835938 0 42.101562 0 L 54.179688 0 C 54.792969 0 55.230469 -0.523438 54.964844 -1.050781 Z M 54.964844 -1.050781 "/></g></g></g><g fill="#080319" fill-opacity="1"><g transform="translate(399.789538, 140.738597)"><g><path d="M 36.5 -56.980469 L 27.308594 -31.335938 L 13.652344 -69.496094 C 13.566406 -69.84375 13.214844 -70.019531 12.777344 -70.019531 L 0.875 -70.019531 C 0.175781 -70.019531 -0.175781 -69.496094 0.0859375 -68.96875 L 26.433594 -0.4375 C 26.78125 0.175781 27.832031 0.175781 28.097656 -0.4375 L 49.976562 -56.980469 Z M 36.5 -56.980469 "/></g></g></g><g fill="#080319" fill-opacity="1"><g transform="translate(111.226289, 46.04063)"><g><path d="M 5.859375 -19.96875 L 5.859375 0 L 1.546875 0 L 1.546875 -19.96875 Z M 5.859375 -19.96875 "/></g></g></g><g fill="#080319" fill-opacity="1"><g transform="translate(118.751972, 46.04063)"><g><path d="M 0.40625 -16.296875 L 0.40625 -19.96875 L 11.203125 -19.96875 L 11.203125 -16.296875 L 7.96875 -16.296875 L 7.96875 0 L 3.640625 0 L 3.640625 -16.296875 Z M 0.40625 -16.296875 "/></g></g></g><g fill="#080319" fill-opacity="1"><g transform="translate(130.379756, 46.04063)"><g/></g></g><g fill="#080319" fill-opacity="1"><g transform="translate(136.610029, 46.04063)"><g><path d="M 8.484375 -9.4375 C 11.035156 -9.4375 12.3125 -8.082031 12.3125 -5.375 L 12.3125 -3.765625 C 12.3125 -1.046875 11.035156 0.3125 8.484375 0.3125 L 5.0625 0.3125 C 2.507812 0.3125 1.234375 -1.046875 1.234375 -3.765625 L 1.234375 -4.71875 L 5.0625 -4.71875 L 5.0625 -3.359375 C 5.0625 -3.191406 5.117188 -3.046875 5.234375 -2.921875 C 5.347656 -2.804688 5.484375 -2.75 5.640625 -2.75 L 8.171875 -2.75 C 8.335938 -2.75 8.476562 -2.804688 8.59375 -2.921875 C 8.707031 -3.046875 8.765625 -3.191406 8.765625 -3.359375 L 8.765625 -5.21875 C 8.765625 -5.382812 8.707031 -5.523438 8.59375 -5.640625 C 8.476562 -5.765625 8.335938 -5.828125 8.171875 -5.828125 L 5 -5.828125 C 2.445312 -5.828125 1.171875 -7.1875 1.171875 -9.90625 L 1.171875 -11.296875 C 1.171875 -14.015625 2.445312 -15.375 5 -15.375 L 8.234375 -15.375 C 10.785156 -15.375 12.0625 -14.015625 12.0625 -11.296875 L 12.0625 -10.734375 L 8.234375 -10.734375 L 8.234375 -11.703125 C 8.234375 -11.859375 8.175781 -12 8.0625 -12.125 C 7.957031 -12.25 7.820312 -12.3125 7.65625 -12.3125 L 5.3125 -12.3125 C 5.144531 -12.3125 5.003906 -12.25 4.890625 -12.125 C 4.773438 -12 4.71875 -11.859375 4.71875 -11.703125 L 4.71875 -10.0625 C 4.71875 -9.894531 4.773438 -9.75 4.890625 -9.625 C 5.003906 -9.5 5.144531 -9.4375 5.3125 -9.4375 Z M 8.484375 -9.4375 "/></g></g></g><g fill="#080319" fill-opacity="1"><g transform="translate(149.965021, 46.04063)"><g><path d="M 8.703125 -15.375 C 11.253906 -15.375 12.53125 -14.015625 12.53125 -11.296875 L 12.53125 -6.421875 L 5.53125 -6.421875 L 5.53125 -3.265625 C 5.53125 -3.109375 5.582031 -2.96875 5.6875 -2.84375 C 5.800781 -2.71875 5.941406 -2.65625 6.109375 -2.65625 L 7.8125 -2.65625 C 7.96875 -2.65625 8.101562 -2.71875 8.21875 -2.84375 C 8.332031 -2.96875 8.390625 -3.109375 8.390625 -3.265625 L 8.390625 -4.9375 L 12.53125 -4.9375 L 12.53125 -3.765625 C 12.53125 -1.046875 11.253906 0.3125 8.703125 0.3125 L 5.21875 0.3125 C 2.664062 0.3125 1.390625 -1.046875 1.390625 -3.765625 L 1.390625 -11.296875 C 1.390625 -14.015625 2.664062 -15.375 5.21875 -15.375 Z M 5.53125 -9.140625 L 8.390625 -9.140625 L 8.390625 -11.90625 C 8.390625 -12.070312 8.332031 -12.21875 8.21875 -12.34375 C 8.101562 -12.46875 7.96875 -12.53125 7.8125 -12.53125 L 6.109375 -12.53125 C 5.941406 -12.53125 5.800781 -12.46875 5.6875 -12.34375 C 5.582031 -12.21875 5.53125 -12.070312 5.53125 -11.90625 Z M 5.53125 -9.140625 "/></g></g></g><g fill="#080319" fill-opacity="1"><g transform="translate(163.381698, 46.04063)"><g><path d="M 7.8125 -15.375 L 8.609375 -15.375 L 8.609375 -11.359375 L 6.578125 -11.359375 C 5.878906 -11.359375 5.53125 -11 5.53125 -10.28125 L 5.53125 0 L 1.390625 0 L 1.390625 -15.0625 L 5.15625 -15.0625 L 5.15625 -13.609375 C 5.75 -14.785156 6.632812 -15.375 7.8125 -15.375 Z M 7.8125 -15.375 "/></g></g></g><g fill="#080319" fill-opacity="1"><g transform="translate(172.449532, 46.04063)"><g><path d="M 8.328125 -15.0625 L 12.34375 -15.0625 L 9.046875 0 L 3.578125 0 L 0.28125 -15.0625 L 4.296875 -15.0625 L 6.328125 -3.359375 Z M 8.328125 -15.0625 "/></g></g></g><g fill="#080319" fill-opacity="1"><g transform="translate(185.187671, 46.04063)"><g><path d="M 8.703125 -15.375 C 11.253906 -15.375 12.53125 -14.015625 12.53125 -11.296875 L 12.53125 -6.421875 L 5.53125 -6.421875 L 5.53125 -3.265625 C 5.53125 -3.109375 5.582031 -2.96875 5.6875 -2.84375 C 5.800781 -2.71875 5.941406 -2.65625 6.109375 -2.65625 L 7.8125 -2.65625 C 7.96875 -2.65625 8.101562 -2.71875 8.21875 -2.84375 C 8.332031 -2.96875 8.390625 -3.109375 8.390625 -3.265625 L 8.390625 -4.9375 L 12.53125 -4.9375 L 12.53125 -3.765625 C 12.53125 -1.046875 11.253906 0.3125 8.703125 0.3125 L 5.21875 0.3125 C 2.664062 0.3125 1.390625 -1.046875 1.390625 -3.765625 L 1.390625 -11.296875 C 1.390625 -14.015625 2.664062 -15.375 5.21875 -15.375 Z M 5.53125 -9.140625 L 8.390625 -9.140625 L 8.390625 -11.90625 C 8.390625 -12.070312 8.332031 -12.21875 8.21875 -12.34375 C 8.101562 -12.46875 7.96875 -12.53125 7.8125 -12.53125 L 6.109375 -12.53125 C 5.941406 -12.53125 5.800781 -12.46875 5.6875 -12.34375 C 5.582031 -12.21875 5.53125 -12.070312 5.53125 -11.90625 Z M 5.53125 -9.140625 "/></g></g></g><g fill="#080319" fill-opacity="1"><g transform="translate(198.604348, 46.04063)"><g><path d="M 8.484375 -9.4375 C 11.035156 -9.4375 12.3125 -8.082031 12.3125 -5.375 L 12.3125 -3.765625 C 12.3125 -1.046875 11.035156 0.3125 8.484375 0.3125 L 5.0625 0.3125 C 2.507812 0.3125 1.234375 -1.046875 1.234375 -3.765625 L 1.234375 -4.71875 L 5.0625 -4.71875 L 5.0625 -3.359375 C 5.0625 -3.191406 5.117188 -3.046875 5.234375 -2.921875 C 5.347656 -2.804688 5.484375 -2.75 5.640625 -2.75 L 8.171875 -2.75 C 8.335938 -2.75 8.476562 -2.804688 8.59375 -2.921875 C 8.707031 -3.046875 8.765625 -3.191406 8.765625 -3.359375 L 8.765625 -5.21875 C 8.765625 -5.382812 8.707031 -5.523438 8.59375 -5.640625 C 8.476562 -5.765625 8.335938 -5.828125 8.171875 -5.828125 L 5 -5.828125 C 2.445312 -5.828125 1.171875 -7.1875 1.171875 -9.90625 L 1.171875 -11.296875 C 1.171875 -14.015625 2.445312 -15.375 5 -15.375 L 8.234375 -15.375 C 10.785156 -15.375 12.0625 -14.015625 12.0625 -11.296875 L 12.0625 -10.734375 L 8.234375 -10.734375 L 8.234375 -11.703125 C 8.234375 -11.859375 8.175781 -12 8.0625 -12.125 C 7.957031 -12.25 7.820312 -12.3125 7.65625 -12.3125 L 5.3125 -12.3125 C 5.144531 -12.3125 5.003906 -12.25 4.890625 -12.125 C 4.773438 -12 4.71875 -11.859375 4.71875 -11.703125 L 4.71875 -10.0625 C 4.71875 -9.894531 4.773438 -9.75 4.890625 -9.625 C 5.003906 -9.5 5.144531 -9.4375 5.3125 -9.4375 Z M 8.484375 -9.4375 "/></g></g></g><g fill="#080319" fill-opacity="1"><g transform="translate(211.959339, 46.04063)"><g/></g></g><g fill="#080319" fill-opacity="1"><g transform="translate(218.189612, 46.04063)"><g><path d="M 8.703125 -15.375 C 11.253906 -15.375 12.53125 -14.015625 12.53125 -11.296875 L 12.53125 -6.421875 L 5.53125 -6.421875 L 5.53125 -3.265625 C 5.53125 -3.109375 5.582031 -2.96875 5.6875 -2.84375 C 5.800781 -2.71875 5.941406 -2.65625 6.109375 -2.65625 L 7.8125 -2.65625 C 7.96875 -2.65625 8.101562 -2.71875 8.21875 -2.84375 C 8.332031 -2.96875 8.390625 -3.109375 8.390625 -3.265625 L 8.390625 -4.9375 L 12.53125 -4.9375 L 12.53125 -3.765625 C 12.53125 -1.046875 11.253906 0.3125 8.703125 0.3125 L 5.21875 0.3125 C 2.664062 0.3125 1.390625 -1.046875 1.390625 -3.765625 L 1.390625 -11.296875 C 1.390625 -14.015625 2.664062 -15.375 5.21875 -15.375 Z M 5.53125 -9.140625 L 8.390625 -9.140625 L 8.390625 -11.90625 C 8.390625 -12.070312 8.332031 -12.21875 8.21875 -12.34375 C 8.101562 -12.46875 7.96875 -12.53125 7.8125 -12.53125 L 6.109375 -12.53125 C 5.941406 -12.53125 5.800781 -12.46875 5.6875 -12.34375 C 5.582031 -12.21875 5.53125 -12.070312 5.53125 -11.90625 Z M 5.53125 -9.140625 "/></g></g></g><g fill="#080319" fill-opacity="1"><g transform="translate(231.606289, 46.04063)"><g><path d="M 5.859375 -15.375 C 6.910156 -15.375 7.753906 -15.125 8.390625 -14.625 L 8.390625 -19.96875 L 12.53125 -19.96875 L 12.53125 0 L 9.046875 0 L 9.046875 -1.109375 C 8.398438 -0.160156 7.335938 0.3125 5.859375 0.3125 L 5.21875 0.3125 C 2.664062 0.3125 1.390625 -1.046875 1.390625 -3.765625 L 1.390625 -11.296875 C 1.390625 -14.015625 2.664062 -15.375 5.21875 -15.375 Z M 8.390625 -3.265625 L 8.390625 -11.78125 C 8.390625 -11.945312 8.332031 -12.09375 8.21875 -12.21875 C 8.101562 -12.34375 7.96875 -12.40625 7.8125 -12.40625 L 6.109375 -12.40625 C 5.941406 -12.40625 5.800781 -12.34375 5.6875 -12.21875 C 5.582031 -12.09375 5.53125 -11.945312 5.53125 -11.78125 L 5.53125 -3.265625 C 5.53125 -3.109375 5.582031 -2.96875 5.6875 -2.84375 C 5.800781 -2.71875 5.941406 -2.65625 6.109375 -2.65625 L 7.8125 -2.65625 C 7.96875 -2.65625 8.101562 -2.71875 8.21875 -2.84375 C 8.332031 -2.96875 8.390625 -3.109375 8.390625 -3.265625 Z M 8.390625 -3.265625 "/></g></g></g><g fill="#080319" fill-opacity="1"><g transform="translate(245.547301, 46.04063)"><g><path d="M 8.390625 -15.0625 L 12.53125 -15.0625 L 12.53125 0 L 8.765625 0 L 8.765625 -0.765625 C 8.128906 -0.046875 7.160156 0.3125 5.859375 0.3125 L 5.21875 0.3125 C 2.664062 0.3125 1.390625 -1.046875 1.390625 -3.765625 L 1.390625 -15.0625 L 5.53125 -15.0625 L 5.53125 -3.265625 C 5.53125 -3.109375 5.582031 -2.96875 5.6875 -2.84375 C 5.800781 -2.71875 5.941406 -2.65625 6.109375 -2.65625 L 7.8125 -2.65625 C 7.96875 -2.65625 8.101562 -2.71875 8.21875 -2.84375 C 8.332031 -2.96875 8.390625 -3.109375 8.390625 -3.265625 Z M 8.390625 -15.0625 "/></g></g></g><g fill="#080319" fill-opacity="1"><g transform="translate(259.488312, 46.04063)"><g><path d="M 12.53125 -9.140625 L 8.390625 -9.140625 L 8.390625 -11.78125 C 8.390625 -11.945312 8.332031 -12.09375 8.21875 -12.21875 C 8.101562 -12.34375 7.96875 -12.40625 7.8125 -12.40625 L 6.109375 -12.40625 C 5.941406 -12.40625 5.800781 -12.34375 5.6875 -12.21875 C 5.582031 -12.09375 5.53125 -11.945312 5.53125 -11.78125 L 5.53125 -3.265625 C 5.53125 -3.109375 5.582031 -2.96875 5.6875 -2.84375 C 5.800781 -2.71875 5.941406 -2.65625 6.109375 -2.65625 L 7.8125 -2.65625 C 7.96875 -2.65625 8.101562 -2.71875 8.21875 -2.84375 C 8.332031 -2.96875 8.390625 -3.109375 8.390625 -3.265625 L 8.390625 -5.921875 L 12.53125 -5.921875 L 12.53125 -3.765625 C 12.53125 -1.046875 11.253906 0.3125 8.703125 0.3125 L 5.21875 0.3125 C 2.664062 0.3125 1.390625 -1.046875 1.390625 -3.765625 L 1.390625 -11.296875 C 1.390625 -14.015625 2.664062 -15.375 5.21875 -15.375 L 8.703125 -15.375 C 11.253906 -15.375 12.53125 -14.015625 12.53125 -11.296875 Z M 12.53125 -9.140625 "/></g></g></g><g fill="#080319" fill-opacity="1"><g transform="translate(273.244268, 46.04063)"><g><path d="M 9.046875 -15.0625 L 12.53125 -15.0625 L 12.53125 0 L 9.046875 0 L 9.046875 -1.109375 C 8.398438 -0.160156 7.335938 0.3125 5.859375 0.3125 L 5.21875 0.3125 C 2.664062 0.3125 1.390625 -1.046875 1.390625 -3.765625 L 1.390625 -11.296875 C 1.390625 -14.015625 2.664062 -15.375 5.21875 -15.375 L 5.859375 -15.375 C 7.335938 -15.375 8.398438 -14.898438 9.046875 -13.953125 Z M 8.390625 -3.265625 L 8.390625 -11.78125 C 8.390625 -11.945312 8.332031 -12.09375 8.21875 -12.21875 C 8.101562 -12.34375 7.96875 -12.40625 7.8125 -12.40625 L 6.109375 -12.40625 C 5.941406 -12.40625 5.800781 -12.34375 5.6875 -12.21875 C 5.582031 -12.09375 5.53125 -11.945312 5.53125 -11.78125 L 5.53125 -3.265625 C 5.53125 -3.109375 5.582031 -2.96875 5.6875 -2.84375 C 5.800781 -2.71875 5.941406 -2.65625 6.109375 -2.65625 L 7.8125 -2.65625 C 7.96875 -2.65625 8.101562 -2.71875 8.21875 -2.84375 C 8.332031 -2.96875 8.390625 -3.109375 8.390625 -3.265625 Z M 8.390625 -3.265625 "/></g></g></g><g fill="#080319" fill-opacity="1"><g transform="translate(287.185279, 46.04063)"><g><path d="M 6.875 -2.375 L 8.109375 -2.375 L 8.109375 0.3125 L 5.21875 0.3125 C 2.664062 0.3125 1.390625 -1.046875 1.390625 -3.765625 L 1.390625 -18.328125 L 5.53125 -18.328125 L 5.53125 -15.0625 L 8.109375 -15.0625 L 8.109375 -12.0625 L 5.53125 -12.0625 L 5.53125 -3.859375 C 5.53125 -3.285156 5.640625 -2.894531 5.859375 -2.6875 C 6.085938 -2.476562 6.425781 -2.375 6.875 -2.375 Z M 6.875 -2.375 "/></g></g></g><g fill="#080319" fill-opacity="1"><g transform="translate(296.068058, 46.04063)"><g><path d="M 5.59375 -16.9375 C 5.15625 -16.507812 4.628906 -16.296875 4.015625 -16.296875 C 3.398438 -16.296875 2.863281 -16.515625 2.40625 -16.953125 C 1.957031 -17.398438 1.734375 -17.9375 1.734375 -18.5625 C 1.734375 -19.1875 1.957031 -19.71875 2.40625 -20.15625 C 2.863281 -20.601562 3.398438 -20.828125 4.015625 -20.828125 C 4.628906 -20.828125 5.15625 -20.601562 5.59375 -20.15625 C 6.039062 -19.71875 6.265625 -19.179688 6.265625 -18.546875 C 6.265625 -17.910156 6.039062 -17.375 5.59375 -16.9375 Z M 1.9375 0 L 1.9375 -15.0625 L 6.078125 -15.0625 L 6.078125 0 Z M 1.9375 0 "/></g></g></g><g fill="#080319" fill-opacity="1"><g transform="translate(303.655426, 46.04063)"><g><path d="M 12.53125 -11.296875 L 12.53125 -3.765625 C 12.53125 -1.046875 11.253906 0.3125 8.703125 0.3125 L 5.21875 0.3125 C 2.664062 0.3125 1.390625 -1.046875 1.390625 -3.765625 L 1.390625 -11.296875 C 1.390625 -14.015625 2.664062 -15.375 5.21875 -15.375 L 8.703125 -15.375 C 11.253906 -15.375 12.53125 -14.015625 12.53125 -11.296875 Z M 8.390625 -2.90625 L 8.390625 -12.1875 C 8.390625 -12.351562 8.332031 -12.5 8.21875 -12.625 C 8.101562 -12.75 7.96875 -12.8125 7.8125 -12.8125 L 6.109375 -12.8125 C 5.941406 -12.8125 5.800781 -12.75 5.6875 -12.625 C 5.582031 -12.5 5.53125 -12.351562 5.53125 -12.1875 L 5.53125 -2.90625 C 5.53125 -2.738281 5.582031 -2.59375 5.6875 -2.46875 C 5.800781 -2.34375 5.941406 -2.28125 6.109375 -2.28125 L 7.8125 -2.28125 C 7.96875 -2.28125 8.101562 -2.34375 8.21875 -2.46875 C 8.332031 -2.59375 8.390625 -2.738281 8.390625 -2.90625 Z M 8.390625 -2.90625 "/></g></g></g><g fill="#080319" fill-opacity="1"><g transform="translate(317.596437, 46.04063)"><g><path d="M 5.53125 0 L 1.390625 0 L 1.390625 -15.0625 L 5.15625 -15.0625 L 5.15625 -14.28125 C 5.789062 -15.007812 6.753906 -15.375 8.046875 -15.375 L 8.703125 -15.375 C 11.253906 -15.375 12.53125 -14.015625 12.53125 -11.296875 L 12.53125 0 L 8.390625 0 L 8.390625 -11.78125 C 8.390625 -11.945312 8.332031 -12.09375 8.21875 -12.21875 C 8.101562 -12.34375 7.96875 -12.40625 7.8125 -12.40625 L 6.109375 -12.40625 C 5.941406 -12.40625 5.800781 -12.34375 5.6875 -12.21875 C 5.582031 -12.09375 5.53125 -11.945312 5.53125 -11.78125 Z M 5.53125 0 "/></g></g></g><g fill="#0a67ac" fill-opacity="1"><g transform="translate(39.710279, 142.45782)"><g><path d="M 49.578125 -15.949219 C 39.054688 -15.515625 16.707031 -16.597656 16.707031 -43.394531 C 16.707031 -64.007812 30.703125 -71.925781 49.578125 -70.949219 L 49.578125 -51.75 L 66.175781 -51.75 L 66.175781 -85.8125 C 66.175781 -86.246094 65.742188 -86.789062 64.984375 -86.789062 L 50.878906 -86.789062 C 29.617188 -86.789062 0 -81.90625 0 -43.394531 C 0 -6.292969 29.292969 0 50.878906 0 L 64.984375 0 C 65.742188 0 66.175781 -0.542969 66.175781 -0.976562 L 66.175781 -15.949219 Z M 49.578125 -15.949219 "/></g></g></g></svg>