<svg xmlns="http://www.w3.org/2000/svg" xmlns:xlink="http://www.w3.org/1999/xlink" width="354" zoomAndPan="magnify" viewBox="0 0 490.5 173.999997" height="232" preserveAspectRatio="xMidYMid meet" version="1.0"><defs><g/><clipPath id="a4d87865e4"><path d="M 0 0.0898438 L 98.683594 0.0898438 L 98.683594 9.199219 L 0 9.199219 Z M 0 9.199219 L 9.109375 9.199219 L 9.109375 153.296875 L 0 153.296875 Z M 0 9.199219 " clip-rule="nonzero"/></clipPath><clipPath id="78a48afd87"><path d="M 480.886719 20.691406 L 490 20.691406 L 490 164.789062 L 480.886719 164.789062 Z M 390.40625 164.789062 L 490 164.789062 L 490 173.898438 L 390.40625 173.898438 Z M 390.40625 164.789062 " clip-rule="nonzero"/></clipPath></defs><g clip-path="url(#a4d87865e4)"><path fill="#feb343" d="M 0 0.0898438 L 98.683594 0.0898438 L 98.683594 153.296875 L 0 153.296875 Z M 0 0.0898438 " fill-opacity="1" fill-rule="nonzero"/></g><g clip-path="url(#78a48afd87)"><path fill="#feb343" d="M 490 173.898438 L 390.40625 173.898438 L 390.40625 20.691406 L 490 20.691406 Z M 490 173.898438 " fill-opacity="1" fill-rule="nonzero"/></g><g fill="#ffffff" fill-opacity="1"><g transform="translate(134.518917, 132.675542)"><g><path d="M 53.972656 -65.226562 L 43.457031 -65.226562 C 42.886719 -65.226562 42.476562 -64.816406 42.476562 -64.492188 L 42.476562 -22.011719 L 12.394531 -64.980469 C 12.3125 -65.144531 11.820312 -65.226562 11.660156 -65.226562 L 0.816406 -65.226562 C 0.40625 -65.226562 0 -64.816406 0 -64.492188 L 0 -15.652344 L 12.472656 -15.652344 L 12.472656 -43.210938 L 42.476562 -0.246094 C 42.558594 -0.0820312 43.050781 0 43.210938 0 L 53.972656 0 C 54.542969 0 54.871094 -0.40625 54.871094 -0.734375 L 54.871094 -64.492188 C 54.871094 -64.816406 54.542969 -65.226562 53.972656 -65.226562 Z M 53.972656 -65.226562 "/></g></g></g><g fill="#ffffff" fill-opacity="1"><g transform="translate(192.157905, 132.675542)"><g><path d="M 13.453125 -41.582031 L 13.453125 -0.734375 C 13.453125 -0.40625 13.777344 0 14.351562 0 L 24.867188 0 C 25.4375 0 25.84375 -0.40625 25.84375 -0.734375 L 25.84375 -41.582031 Z M 0.898438 -54.054688 L 38.320312 -54.054688 C 38.890625 -54.054688 39.21875 -54.382812 39.21875 -54.789062 L 39.21875 -64.492188 C 39.21875 -64.816406 38.890625 -65.226562 38.320312 -65.226562 L 0.898438 -65.226562 C 0.40625 -65.226562 0 -64.816406 0 -64.492188 L 0 -54.789062 C 0 -54.382812 0.40625 -54.054688 0.898438 -54.054688 Z M 0.898438 -54.054688 "/></g></g></g><g fill="#ffffff" fill-opacity="1"><g transform="translate(233.328605, 132.675542)"><g><path d="M 13.453125 -41.582031 L 13.453125 -0.734375 C 13.453125 -0.40625 13.777344 0 14.351562 0 L 24.867188 0 C 25.4375 0 25.84375 -0.40625 25.84375 -0.734375 L 25.84375 -41.582031 Z M 0.898438 -54.054688 L 38.320312 -54.054688 C 38.890625 -54.054688 39.21875 -54.382812 39.21875 -54.789062 L 39.21875 -64.492188 C 39.21875 -64.816406 38.890625 -65.226562 38.320312 -65.226562 L 0.898438 -65.226562 C 0.40625 -65.226562 0 -64.816406 0 -64.492188 L 0 -54.789062 C 0 -54.382812 0.40625 -54.054688 0.898438 -54.054688 Z M 0.898438 -54.054688 "/></g></g></g><g fill="#ffffff" fill-opacity="1"><g transform="translate(274.499304, 132.675542)"><g/></g></g><g fill="#ffffff" fill-opacity="1"><g transform="translate(294.880848, 132.675542)"><g><path d="M 11.578125 -65.226562 L 0.898438 -65.226562 C 0.40625 -65.226562 0 -64.816406 0 -64.492188 L 0 -38.890625 L 12.472656 -38.890625 L 12.472656 -53.320312 C 26.660156 -54.054688 37.179688 -48.105469 37.179688 -32.613281 C 37.179688 -12.472656 20.382812 -11.660156 12.472656 -11.984375 L 12.472656 -26.335938 L 0 -26.335938 L 0 -0.734375 C 0 -0.40625 0.40625 0 0.898438 0 L 11.578125 0 C 27.800781 0 49.734375 -4.730469 49.734375 -32.613281 C 49.734375 -61.554688 27.476562 -65.226562 11.578125 -65.226562 Z M 11.578125 -65.226562 "/></g></g></g><g fill="#ffffff" fill-opacity="1"><g transform="translate(347.139114, 132.675542)"><g><path d="M 51.203125 -0.976562 L 26.417969 -64.734375 C 26.171875 -65.386719 25.03125 -65.386719 24.785156 -64.734375 L 0.0820312 -0.976562 C -0.164062 -0.488281 0.164062 0 0.898438 0 L 12.066406 0 C 12.394531 0 12.800781 -0.164062 12.882812 -0.488281 L 25.601562 -36.851562 L 38.484375 -0.488281 C 38.566406 -0.164062 38.972656 0 39.21875 0 L 50.46875 0 C 51.039062 0 51.445312 -0.488281 51.203125 -0.976562 Z M 51.203125 -0.976562 "/></g></g></g><g fill="#ffffff" fill-opacity="1"><g transform="translate(400.946361, 132.675542)"><g><path d="M 34 -53.078125 L 25.4375 -29.1875 L 12.71875 -64.734375 C 12.636719 -65.0625 12.3125 -65.226562 11.902344 -65.226562 L 0.816406 -65.226562 C 0.164062 -65.226562 -0.164062 -64.734375 0.0820312 -64.246094 L 24.621094 -0.40625 C 24.949219 0.164062 25.925781 0.164062 26.171875 -0.40625 L 46.554688 -53.078125 Z M 34 -53.078125 "/></g></g></g><g fill="#ffffff" fill-opacity="1"><g transform="translate(134.7703, 47.011531)"><g><path d="M 5.484375 -18.671875 L 5.484375 0 L 1.4375 0 L 1.4375 -18.671875 Z M 5.484375 -18.671875 "/></g></g></g><g fill="#ffffff" fill-opacity="1"><g transform="translate(141.808589, 47.011531)"><g><path d="M 0.375 -15.234375 L 0.375 -18.671875 L 10.46875 -18.671875 L 10.46875 -15.234375 L 7.453125 -15.234375 L 7.453125 0 L 3.40625 0 L 3.40625 -15.234375 Z M 0.375 -15.234375 "/></g></g></g><g fill="#ffffff" fill-opacity="1"><g transform="translate(152.683329, 47.011531)"><g/></g></g><g fill="#ffffff" fill-opacity="1"><g transform="translate(158.510122, 47.011531)"><g><path d="M 7.9375 -8.828125 C 10.320312 -8.828125 11.515625 -7.554688 11.515625 -5.015625 L 11.515625 -3.515625 C 11.515625 -0.984375 10.320312 0.28125 7.9375 0.28125 L 4.734375 0.28125 C 2.347656 0.28125 1.15625 -0.984375 1.15625 -3.515625 L 1.15625 -4.421875 L 4.734375 -4.421875 L 4.734375 -3.140625 C 4.734375 -2.992188 4.785156 -2.859375 4.890625 -2.734375 C 4.992188 -2.617188 5.125 -2.5625 5.28125 -2.5625 L 7.640625 -2.5625 C 7.796875 -2.5625 7.925781 -2.617188 8.03125 -2.734375 C 8.144531 -2.859375 8.203125 -2.992188 8.203125 -3.140625 L 8.203125 -4.875 C 8.203125 -5.03125 8.144531 -5.164062 8.03125 -5.28125 C 7.925781 -5.394531 7.796875 -5.453125 7.640625 -5.453125 L 4.671875 -5.453125 C 2.285156 -5.453125 1.09375 -6.722656 1.09375 -9.265625 L 1.09375 -10.5625 C 1.09375 -13.101562 2.285156 -14.375 4.671875 -14.375 L 7.703125 -14.375 C 10.085938 -14.375 11.28125 -13.101562 11.28125 -10.5625 L 11.28125 -10.046875 L 7.703125 -10.046875 L 7.703125 -10.9375 C 7.703125 -11.09375 7.648438 -11.226562 7.546875 -11.34375 C 7.441406 -11.457031 7.3125 -11.515625 7.15625 -11.515625 L 4.96875 -11.515625 C 4.8125 -11.515625 4.679688 -11.457031 4.578125 -11.34375 C 4.472656 -11.226562 4.421875 -11.09375 4.421875 -10.9375 L 4.421875 -9.40625 C 4.421875 -9.25 4.472656 -9.113281 4.578125 -9 C 4.679688 -8.882812 4.8125 -8.828125 4.96875 -8.828125 Z M 7.9375 -8.828125 "/></g></g></g><g fill="#ffffff" fill-opacity="1"><g transform="translate(171.00022, 47.011531)"><g><path d="M 8.140625 -14.375 C 10.523438 -14.375 11.71875 -13.101562 11.71875 -10.5625 L 11.71875 -6 L 5.171875 -6 L 5.171875 -3.0625 C 5.171875 -2.90625 5.222656 -2.769531 5.328125 -2.65625 C 5.429688 -2.539062 5.5625 -2.484375 5.71875 -2.484375 L 7.296875 -2.484375 C 7.453125 -2.484375 7.582031 -2.539062 7.6875 -2.65625 C 7.789062 -2.769531 7.84375 -2.90625 7.84375 -3.0625 L 7.84375 -4.625 L 11.71875 -4.625 L 11.71875 -3.515625 C 11.71875 -0.984375 10.523438 0.28125 8.140625 0.28125 L 4.875 0.28125 C 2.488281 0.28125 1.296875 -0.984375 1.296875 -3.515625 L 1.296875 -10.5625 C 1.296875 -13.101562 2.488281 -14.375 4.875 -14.375 Z M 5.171875 -8.546875 L 7.84375 -8.546875 L 7.84375 -11.140625 C 7.84375 -11.296875 7.789062 -11.429688 7.6875 -11.546875 C 7.582031 -11.660156 7.453125 -11.71875 7.296875 -11.71875 L 5.71875 -11.71875 C 5.5625 -11.71875 5.429688 -11.660156 5.328125 -11.546875 C 5.222656 -11.429688 5.171875 -11.296875 5.171875 -11.140625 Z M 5.171875 -8.546875 "/></g></g></g><g fill="#ffffff" fill-opacity="1"><g transform="translate(183.548007, 47.011531)"><g><path d="M 7.296875 -14.375 L 8.046875 -14.375 L 8.046875 -10.625 L 6.140625 -10.625 C 5.492188 -10.625 5.171875 -10.285156 5.171875 -9.609375 L 5.171875 0 L 1.296875 0 L 1.296875 -14.078125 L 4.8125 -14.078125 L 4.8125 -12.734375 C 5.375 -13.828125 6.203125 -14.375 7.296875 -14.375 Z M 7.296875 -14.375 "/></g></g></g><g fill="#ffffff" fill-opacity="1"><g transform="translate(192.028566, 47.011531)"><g><path d="M 7.796875 -14.078125 L 11.546875 -14.078125 L 8.453125 0 L 3.34375 0 L 0.265625 -14.078125 L 4.015625 -14.078125 L 5.921875 -3.140625 Z M 7.796875 -14.078125 "/></g></g></g><g fill="#ffffff" fill-opacity="1"><g transform="translate(203.941737, 47.011531)"><g><path d="M 8.140625 -14.375 C 10.523438 -14.375 11.71875 -13.101562 11.71875 -10.5625 L 11.71875 -6 L 5.171875 -6 L 5.171875 -3.0625 C 5.171875 -2.90625 5.222656 -2.769531 5.328125 -2.65625 C 5.429688 -2.539062 5.5625 -2.484375 5.71875 -2.484375 L 7.296875 -2.484375 C 7.453125 -2.484375 7.582031 -2.539062 7.6875 -2.65625 C 7.789062 -2.769531 7.84375 -2.90625 7.84375 -3.0625 L 7.84375 -4.625 L 11.71875 -4.625 L 11.71875 -3.515625 C 11.71875 -0.984375 10.523438 0.28125 8.140625 0.28125 L 4.875 0.28125 C 2.488281 0.28125 1.296875 -0.984375 1.296875 -3.515625 L 1.296875 -10.5625 C 1.296875 -13.101562 2.488281 -14.375 4.875 -14.375 Z M 5.171875 -8.546875 L 7.84375 -8.546875 L 7.84375 -11.140625 C 7.84375 -11.296875 7.789062 -11.429688 7.6875 -11.546875 C 7.582031 -11.660156 7.453125 -11.71875 7.296875 -11.71875 L 5.71875 -11.71875 C 5.5625 -11.71875 5.429688 -11.660156 5.328125 -11.546875 C 5.222656 -11.429688 5.171875 -11.296875 5.171875 -11.140625 Z M 5.171875 -8.546875 "/></g></g></g><g fill="#ffffff" fill-opacity="1"><g transform="translate(216.489523, 47.011531)"><g><path d="M 7.9375 -8.828125 C 10.320312 -8.828125 11.515625 -7.554688 11.515625 -5.015625 L 11.515625 -3.515625 C 11.515625 -0.984375 10.320312 0.28125 7.9375 0.28125 L 4.734375 0.28125 C 2.347656 0.28125 1.15625 -0.984375 1.15625 -3.515625 L 1.15625 -4.421875 L 4.734375 -4.421875 L 4.734375 -3.140625 C 4.734375 -2.992188 4.785156 -2.859375 4.890625 -2.734375 C 4.992188 -2.617188 5.125 -2.5625 5.28125 -2.5625 L 7.640625 -2.5625 C 7.796875 -2.5625 7.925781 -2.617188 8.03125 -2.734375 C 8.144531 -2.859375 8.203125 -2.992188 8.203125 -3.140625 L 8.203125 -4.875 C 8.203125 -5.03125 8.144531 -5.164062 8.03125 -5.28125 C 7.925781 -5.394531 7.796875 -5.453125 7.640625 -5.453125 L 4.671875 -5.453125 C 2.285156 -5.453125 1.09375 -6.722656 1.09375 -9.265625 L 1.09375 -10.5625 C 1.09375 -13.101562 2.285156 -14.375 4.671875 -14.375 L 7.703125 -14.375 C 10.085938 -14.375 11.28125 -13.101562 11.28125 -10.5625 L 11.28125 -10.046875 L 7.703125 -10.046875 L 7.703125 -10.9375 C 7.703125 -11.09375 7.648438 -11.226562 7.546875 -11.34375 C 7.441406 -11.457031 7.3125 -11.515625 7.15625 -11.515625 L 4.96875 -11.515625 C 4.8125 -11.515625 4.679688 -11.457031 4.578125 -11.34375 C 4.472656 -11.226562 4.421875 -11.09375 4.421875 -10.9375 L 4.421875 -9.40625 C 4.421875 -9.25 4.472656 -9.113281 4.578125 -9 C 4.679688 -8.882812 4.8125 -8.828125 4.96875 -8.828125 Z M 7.9375 -8.828125 "/></g></g></g><g fill="#ffffff" fill-opacity="1"><g transform="translate(228.979621, 47.011531)"><g/></g></g><g fill="#ffffff" fill-opacity="1"><g transform="translate(234.806415, 47.011531)"><g><path d="M 8.140625 -14.375 C 10.523438 -14.375 11.71875 -13.101562 11.71875 -10.5625 L 11.71875 -6 L 5.171875 -6 L 5.171875 -3.0625 C 5.171875 -2.90625 5.222656 -2.769531 5.328125 -2.65625 C 5.429688 -2.539062 5.5625 -2.484375 5.71875 -2.484375 L 7.296875 -2.484375 C 7.453125 -2.484375 7.582031 -2.539062 7.6875 -2.65625 C 7.789062 -2.769531 7.84375 -2.90625 7.84375 -3.0625 L 7.84375 -4.625 L 11.71875 -4.625 L 11.71875 -3.515625 C 11.71875 -0.984375 10.523438 0.28125 8.140625 0.28125 L 4.875 0.28125 C 2.488281 0.28125 1.296875 -0.984375 1.296875 -3.515625 L 1.296875 -10.5625 C 1.296875 -13.101562 2.488281 -14.375 4.875 -14.375 Z M 5.171875 -8.546875 L 7.84375 -8.546875 L 7.84375 -11.140625 C 7.84375 -11.296875 7.789062 -11.429688 7.6875 -11.546875 C 7.582031 -11.660156 7.453125 -11.71875 7.296875 -11.71875 L 5.71875 -11.71875 C 5.5625 -11.71875 5.429688 -11.660156 5.328125 -11.546875 C 5.222656 -11.429688 5.171875 -11.296875 5.171875 -11.140625 Z M 5.171875 -8.546875 "/></g></g></g><g fill="#ffffff" fill-opacity="1"><g transform="translate(247.354201, 47.011531)"><g><path d="M 5.484375 -14.375 C 6.460938 -14.375 7.25 -14.140625 7.84375 -13.671875 L 7.84375 -18.671875 L 11.71875 -18.671875 L 11.71875 0 L 8.453125 0 L 8.453125 -1.03125 C 7.859375 -0.15625 6.867188 0.28125 5.484375 0.28125 L 4.875 0.28125 C 2.488281 0.28125 1.296875 -0.984375 1.296875 -3.515625 L 1.296875 -10.5625 C 1.296875 -13.101562 2.488281 -14.375 4.875 -14.375 Z M 7.84375 -3.0625 L 7.84375 -11.03125 C 7.84375 -11.175781 7.789062 -11.304688 7.6875 -11.421875 C 7.582031 -11.535156 7.453125 -11.59375 7.296875 -11.59375 L 5.71875 -11.59375 C 5.5625 -11.59375 5.429688 -11.535156 5.328125 -11.421875 C 5.222656 -11.304688 5.171875 -11.175781 5.171875 -11.03125 L 5.171875 -3.0625 C 5.171875 -2.90625 5.222656 -2.769531 5.328125 -2.65625 C 5.429688 -2.539062 5.5625 -2.484375 5.71875 -2.484375 L 7.296875 -2.484375 C 7.453125 -2.484375 7.582031 -2.539062 7.6875 -2.65625 C 7.789062 -2.769531 7.84375 -2.90625 7.84375 -3.0625 Z M 7.84375 -3.0625 "/></g></g></g><g fill="#ffffff" fill-opacity="1"><g transform="translate(260.392347, 47.011531)"><g><path d="M 7.84375 -14.078125 L 11.71875 -14.078125 L 11.71875 0 L 8.203125 0 L 8.203125 -0.71875 C 7.597656 -0.0507812 6.691406 0.28125 5.484375 0.28125 L 4.875 0.28125 C 2.488281 0.28125 1.296875 -0.984375 1.296875 -3.515625 L 1.296875 -14.078125 L 5.171875 -14.078125 L 5.171875 -3.0625 C 5.171875 -2.90625 5.222656 -2.769531 5.328125 -2.65625 C 5.429688 -2.539062 5.5625 -2.484375 5.71875 -2.484375 L 7.296875 -2.484375 C 7.453125 -2.484375 7.582031 -2.539062 7.6875 -2.65625 C 7.789062 -2.769531 7.84375 -2.90625 7.84375 -3.0625 Z M 7.84375 -14.078125 "/></g></g></g><g fill="#ffffff" fill-opacity="1"><g transform="translate(273.430493, 47.011531)"><g><path d="M 11.71875 -8.546875 L 7.84375 -8.546875 L 7.84375 -11.03125 C 7.84375 -11.175781 7.789062 -11.304688 7.6875 -11.421875 C 7.582031 -11.535156 7.453125 -11.59375 7.296875 -11.59375 L 5.71875 -11.59375 C 5.5625 -11.59375 5.429688 -11.535156 5.328125 -11.421875 C 5.222656 -11.304688 5.171875 -11.175781 5.171875 -11.03125 L 5.171875 -3.0625 C 5.171875 -2.90625 5.222656 -2.769531 5.328125 -2.65625 C 5.429688 -2.539062 5.5625 -2.484375 5.71875 -2.484375 L 7.296875 -2.484375 C 7.453125 -2.484375 7.582031 -2.539062 7.6875 -2.65625 C 7.789062 -2.769531 7.84375 -2.90625 7.84375 -3.0625 L 7.84375 -5.546875 L 11.71875 -5.546875 L 11.71875 -3.515625 C 11.71875 -0.984375 10.523438 0.28125 8.140625 0.28125 L 4.875 0.28125 C 2.488281 0.28125 1.296875 -0.984375 1.296875 -3.515625 L 1.296875 -10.5625 C 1.296875 -13.101562 2.488281 -14.375 4.875 -14.375 L 8.140625 -14.375 C 10.523438 -14.375 11.71875 -13.101562 11.71875 -10.5625 Z M 11.71875 -8.546875 "/></g></g></g><g fill="#ffffff" fill-opacity="1"><g transform="translate(286.295575, 47.011531)"><g><path d="M 8.453125 -14.078125 L 11.71875 -14.078125 L 11.71875 0 L 8.453125 0 L 8.453125 -1.03125 C 7.859375 -0.15625 6.867188 0.28125 5.484375 0.28125 L 4.875 0.28125 C 2.488281 0.28125 1.296875 -0.984375 1.296875 -3.515625 L 1.296875 -10.5625 C 1.296875 -13.101562 2.488281 -14.375 4.875 -14.375 L 5.484375 -14.375 C 6.867188 -14.375 7.859375 -13.929688 8.453125 -13.046875 Z M 7.84375 -3.0625 L 7.84375 -11.03125 C 7.84375 -11.175781 7.789062 -11.304688 7.6875 -11.421875 C 7.582031 -11.535156 7.453125 -11.59375 7.296875 -11.59375 L 5.71875 -11.59375 C 5.5625 -11.59375 5.429688 -11.535156 5.328125 -11.421875 C 5.222656 -11.304688 5.171875 -11.175781 5.171875 -11.03125 L 5.171875 -3.0625 C 5.171875 -2.90625 5.222656 -2.769531 5.328125 -2.65625 C 5.429688 -2.539062 5.5625 -2.484375 5.71875 -2.484375 L 7.296875 -2.484375 C 7.453125 -2.484375 7.582031 -2.539062 7.6875 -2.65625 C 7.789062 -2.769531 7.84375 -2.90625 7.84375 -3.0625 Z M 7.84375 -3.0625 "/></g></g></g><g fill="#ffffff" fill-opacity="1"><g transform="translate(299.333721, 47.011531)"><g><path d="M 6.4375 -2.21875 L 7.59375 -2.21875 L 7.59375 0.28125 L 4.875 0.28125 C 2.488281 0.28125 1.296875 -0.984375 1.296875 -3.515625 L 1.296875 -17.140625 L 5.171875 -17.140625 L 5.171875 -14.078125 L 7.59375 -14.078125 L 7.59375 -11.28125 L 5.171875 -11.28125 L 5.171875 -3.609375 C 5.171875 -3.066406 5.273438 -2.695312 5.484375 -2.5 C 5.691406 -2.3125 6.007812 -2.21875 6.4375 -2.21875 Z M 6.4375 -2.21875 "/></g></g></g><g fill="#ffffff" fill-opacity="1"><g transform="translate(307.641216, 47.011531)"><g><path d="M 5.234375 -15.84375 C 4.828125 -15.4375 4.332031 -15.234375 3.75 -15.234375 C 3.175781 -15.234375 2.675781 -15.441406 2.25 -15.859375 C 1.820312 -16.273438 1.609375 -16.773438 1.609375 -17.359375 C 1.609375 -17.941406 1.820312 -18.441406 2.25 -18.859375 C 2.675781 -19.273438 3.175781 -19.484375 3.75 -19.484375 C 4.332031 -19.484375 4.828125 -19.273438 5.234375 -18.859375 C 5.648438 -18.441406 5.859375 -17.9375 5.859375 -17.34375 C 5.859375 -16.75 5.648438 -16.25 5.234375 -15.84375 Z M 1.8125 0 L 1.8125 -14.078125 L 5.6875 -14.078125 L 5.6875 0 Z M 1.8125 0 "/></g></g></g><g fill="#ffffff" fill-opacity="1"><g transform="translate(314.737193, 47.011531)"><g><path d="M 11.71875 -10.5625 L 11.71875 -3.515625 C 11.71875 -0.984375 10.523438 0.28125 8.140625 0.28125 L 4.875 0.28125 C 2.488281 0.28125 1.296875 -0.984375 1.296875 -3.515625 L 1.296875 -10.5625 C 1.296875 -13.101562 2.488281 -14.375 4.875 -14.375 L 8.140625 -14.375 C 10.523438 -14.375 11.71875 -13.101562 11.71875 -10.5625 Z M 7.84375 -2.71875 L 7.84375 -11.40625 C 7.84375 -11.550781 7.789062 -11.679688 7.6875 -11.796875 C 7.582031 -11.921875 7.453125 -11.984375 7.296875 -11.984375 L 5.71875 -11.984375 C 5.5625 -11.984375 5.429688 -11.921875 5.328125 -11.796875 C 5.222656 -11.679688 5.171875 -11.550781 5.171875 -11.40625 L 5.171875 -2.71875 C 5.171875 -2.5625 5.222656 -2.425781 5.328125 -2.3125 C 5.429688 -2.195312 5.5625 -2.140625 5.71875 -2.140625 L 7.296875 -2.140625 C 7.453125 -2.140625 7.582031 -2.195312 7.6875 -2.3125 C 7.789062 -2.425781 7.84375 -2.5625 7.84375 -2.71875 Z M 7.84375 -2.71875 "/></g></g></g><g fill="#ffffff" fill-opacity="1"><g transform="translate(327.775339, 47.011531)"><g><path d="M 5.171875 0 L 1.296875 0 L 1.296875 -14.078125 L 4.8125 -14.078125 L 4.8125 -13.359375 C 5.414062 -14.035156 6.320312 -14.375 7.53125 -14.375 L 8.140625 -14.375 C 10.523438 -14.375 11.71875 -13.101562 11.71875 -10.5625 L 11.71875 0 L 7.84375 0 L 7.84375 -11.03125 C 7.84375 -11.175781 7.789062 -11.304688 7.6875 -11.421875 C 7.582031 -11.535156 7.453125 -11.59375 7.296875 -11.59375 L 5.71875 -11.59375 C 5.5625 -11.59375 5.429688 -11.535156 5.328125 -11.421875 C 5.222656 -11.304688 5.171875 -11.175781 5.171875 -11.03125 Z M 5.171875 0 "/></g></g></g><g fill="#0a67ac" fill-opacity="1"><g transform="translate(33.71023, 147.171331)"><g><path d="M 72.925781 1.828125 C 96.800781 1.828125 113.105469 -3.652344 127.324219 -14.351562 C 126.804688 -17.742188 126.152344 -22.308594 126.542969 -27.003906 C 109.714844 -12.261719 91.972656 -8.089844 74.230469 -8.089844 C 39.789062 -8.089844 21.394531 -23.742188 21.394531 -48.398438 C 21.394531 -73.707031 41.875 -88.1875 74.621094 -88.058594 C 88.1875 -88.058594 105.539062 -85.320312 126.28125 -74.230469 C 125.761719 -78.925781 125.761719 -82.449219 126.28125 -87.144531 C 105.671875 -95.753906 88.972656 -97.972656 73.96875 -97.972656 C 33.003906 -97.972656 7.566406 -80.230469 7.566406 -48.398438 C 7.566406 -17.089844 31.179688 1.828125 72.925781 1.828125 Z M 72.925781 1.828125 "/></g></g></g></svg>