<svg xmlns="http://www.w3.org/2000/svg" xmlns:xlink="http://www.w3.org/1999/xlink" width="654" zoomAndPan="magnify" viewBox="0 0 490.5 173.999997" height="232" preserveAspectRatio="xMidYMid meet" version="1.0"><defs><g/><clipPath id="7702ce3b50"><path d="M 0 0.0898438 L 98.683594 0.0898438 L 98.683594 9.199219 L 0 9.199219 Z M 0 9.199219 L 9.109375 9.199219 L 9.109375 153.296875 L 0 153.296875 Z M 0 9.199219 " clip-rule="nonzero"/></clipPath><clipPath id="8903ff3ea0"><path d="M 480.886719 20.691406 L 490 20.691406 L 490 164.789062 L 480.886719 164.789062 Z M 390.40625 164.789062 L 490 164.789062 L 490 173.898438 L 390.40625 173.898438 Z M 390.40625 164.789062 " clip-rule="nonzero"/></clipPath></defs><g fill="#0a67ac" fill-opacity="1"><g transform="translate(54.946599, 131.772829)"><g><path d="M 60.644531 1.519531 C 80.5 1.519531 94.058594 -3.039062 105.886719 -11.933594 C 105.453125 -14.753906 104.910156 -18.550781 105.234375 -22.457031 C 91.238281 -10.199219 76.484375 -6.726562 61.730469 -6.726562 C 33.089844 -6.726562 17.792969 -19.746094 17.792969 -40.25 C 17.792969 -61.296875 34.824219 -73.339844 62.054688 -73.230469 C 73.339844 -73.230469 87.769531 -70.953125 105.019531 -61.730469 C 104.582031 -65.636719 104.582031 -68.566406 105.019531 -72.472656 C 87.875 -79.632812 73.988281 -81.476562 61.511719 -81.476562 C 27.449219 -81.476562 6.292969 -66.722656 6.292969 -40.25 C 6.292969 -14.210938 25.929688 1.519531 60.644531 1.519531 Z M 60.644531 1.519531 "/></g></g></g><g clip-path="url(#7702ce3b50)"><path fill="#feb343" d="M 0 0.0898438 L 98.683594 0.0898438 L 98.683594 153.296875 L 0 153.296875 Z M 0 0.0898438 " fill-opacity="1" fill-rule="nonzero"/></g><g clip-path="url(#8903ff3ea0)"><path fill="#feb343" d="M 490 173.898438 L 390.40625 173.898438 L 390.40625 20.691406 L 490 20.691406 Z M 490 173.898438 " fill-opacity="1" fill-rule="nonzero"/></g><g fill="#ffffff" fill-opacity="1"><g transform="translate(136.618219, 125.033215)"><g><path d="M 46.25 -11.0625 C 46.25 -4.238281 46.507812 1.132812 47.03125 5.0625 L 41.953125 0 L 41.78125 0.265625 L 46.859375 5.328125 C 45.773438 5.148438 44.375 5.0625 42.65625 5.0625 C 40.9375 5.0625 39.539062 5.148438 38.46875 5.328125 L 33.390625 0.265625 L 33.21875 0 C 33.738281 -4.019531 34 -9.394531 34 -16.125 L 34 -24.875 C 34 -26.414062 33.914062 -27.722656 33.75 -28.796875 C 33.394531 -28.828125 33.03125 -28.84375 32.65625 -28.84375 C 30.8125 -28.84375 28.707031 -28.242188 26.34375 -27.046875 C 23.988281 -25.859375 21.765625 -24.007812 19.671875 -21.5 L 19.671875 -11.0625 C 19.671875 -4.15625 19.929688 1.21875 20.453125 5.0625 L 15.390625 0 L 15.203125 0.265625 L 20.28125 5.328125 C 19.195312 5.148438 17.796875 5.0625 16.078125 5.0625 C 14.359375 5.0625 12.960938 5.148438 11.890625 5.328125 L 6.8125 0.265625 L 6.640625 0 C 7.171875 -3.644531 7.4375 -9.019531 7.4375 -16.125 L 7.4375 -21.03125 C 7.4375 -29.269531 7.171875 -35.066406 6.640625 -38.421875 L 6.8125 -38.6875 C 9.4375 -38.445312 11.859375 -38.53125 14.078125 -38.9375 C 14.253906 -38.9375 14.367188 -38.894531 14.421875 -38.8125 C 14.535156 -38.695312 14.59375 -38.4375 14.59375 -38.03125 L 18.09375 -34.53125 C 21.9375 -37.707031 25.988281 -39.296875 30.25 -39.296875 C 33.65625 -39.296875 36.25 -38.40625 38.03125 -36.625 L 43.09375 -31.5625 C 45.3125 -29.34375 46.421875 -25.523438 46.421875 -20.109375 C 46.421875 -19.140625 46.390625 -17.628906 46.328125 -15.578125 C 46.273438 -13.523438 46.25 -12.019531 46.25 -11.0625 Z M 14.8125 -31.296875 L 14.59375 -31.515625 L 14.78125 -31.25 C 14.78125 -31.25 14.789062 -31.265625 14.8125 -31.296875 Z M 40.296875 -16.125 C 40.296875 -17.09375 40.320312 -18.601562 40.375 -20.65625 C 40.4375 -22.707031 40.46875 -24.195312 40.46875 -25.125 C 40.46875 -29.789062 39.6875 -33.171875 38.125 -35.265625 C 36.570312 -37.367188 33.945312 -38.421875 30.25 -38.421875 C 28.125 -38.421875 25.738281 -37.851562 23.09375 -36.71875 C 20.457031 -35.582031 17.914062 -33.554688 15.46875 -30.640625 L 14.6875 -29.765625 L 13.6875 -31.25 L 13.6875 -37.984375 C 11.820312 -37.691406 9.8125 -37.601562 7.65625 -37.71875 C 8.113281 -34.25 8.328125 -28.6875 8.296875 -21.03125 L 8.296875 -16.125 C 8.296875 -9.332031 8.082031 -4.207031 7.65625 -0.75 C 8.8125 -0.863281 9.925781 -0.910156 11 -0.890625 C 12.082031 -0.878906 13.207031 -0.832031 14.375 -0.75 C 13.914062 -4.382812 13.6875 -9.507812 13.6875 -16.125 L 13.6875 -26.921875 L 13.90625 -27.1875 C 15.382812 -28.9375 16.988281 -30.398438 18.71875 -31.578125 C 20.457031 -32.753906 22.046875 -33.585938 23.484375 -34.078125 C 24.929688 -34.578125 26.296875 -34.828125 27.578125 -34.828125 C 30.203125 -34.828125 32.082031 -34.078125 33.21875 -32.578125 C 34.351562 -31.078125 34.921875 -28.507812 34.921875 -24.875 L 34.921875 -16.125 C 34.921875 -9.71875 34.6875 -4.59375 34.21875 -0.75 C 35.382812 -0.863281 36.515625 -0.910156 37.609375 -0.890625 C 38.703125 -0.878906 39.832031 -0.832031 41 -0.75 C 40.53125 -4.476562 40.296875 -9.601562 40.296875 -16.125 Z M 40.296875 -16.125 "/></g></g></g><g fill="#ffffff" fill-opacity="1"><g transform="translate(189.852382, 125.033215)"><g><path d="M 8.515625 -38.421875 C 8.515625 -40.253906 8.570312 -42.363281 8.6875 -44.75 C 8.8125 -47.144531 8.875 -48.851562 8.875 -49.875 L 9.046875 -50.140625 C 9.921875 -50.253906 10.675781 -50.421875 11.3125 -50.640625 C 11.957031 -50.859375 12.679688 -51.15625 13.484375 -51.53125 C 14.285156 -51.90625 14.890625 -52.179688 15.296875 -52.359375 C 15.554688 -52.359375 15.757812 -52.300781 15.90625 -52.1875 C 16.050781 -52.039062 16.125 -51.804688 16.125 -51.484375 L 21.15625 -46.421875 C 20.894531 -43.179688 20.765625 -40.515625 20.765625 -38.421875 C 21.753906 -38.421875 23.546875 -38.476562 26.140625 -38.59375 L 26.578125 -37.9375 L 31.640625 -32.90625 C 31.179688 -31.75 30.832031 -30.523438 30.59375 -29.234375 C 29.375 -29.359375 27.21875 -29.421875 24.125 -29.421875 L 20.71875 -29.421875 L 20.71875 -18.140625 C 20.71875 -16.128906 20.671875 -13.804688 20.578125 -11.171875 C 20.492188 -8.535156 20.453125 -6.878906 20.453125 -6.203125 C 20.453125 -5.273438 20.484375 -4.460938 20.546875 -3.765625 C 22.054688 -3.765625 23.671875 -4.054688 25.390625 -4.640625 L 30.46875 0.4375 L 31.5625 2.671875 C 28.125 4.878906 24.65625 5.96875 21.15625 5.9375 C 18.914062 5.9375 17.078125 5.222656 15.640625 3.796875 L 10.578125 -1.265625 C 9.035156 -2.804688 8.25 -4.945312 8.21875 -7.6875 C 8.21875 -8.363281 8.265625 -10.445312 8.359375 -13.9375 C 8.460938 -17.4375 8.515625 -20.191406 8.515625 -22.203125 L 8.515625 -29.28125 C 8.054688 -29.25 7.625 -29.234375 7.21875 -29.234375 L 2.140625 -34.265625 L 1.703125 -34.921875 C 2.546875 -36.234375 3.203125 -37.457031 3.671875 -38.59375 C 4.515625 -38.476562 6.128906 -38.421875 8.515625 -38.421875 Z M 9.390625 -38.421875 L 9.390625 -37.5 L 8.484375 -37.5 C 6.554688 -37.5 5.140625 -37.546875 4.234375 -37.640625 C 3.890625 -36.847656 3.46875 -36.046875 2.96875 -35.234375 C 4.457031 -35.316406 6.296875 -35.359375 8.484375 -35.359375 L 9.390625 -35.359375 L 9.390625 -22.203125 C 9.390625 -20.160156 9.347656 -17.390625 9.265625 -13.890625 C 9.179688 -10.398438 9.140625 -8.332031 9.140625 -7.6875 C 9.140625 -5.96875 9.472656 -4.519531 10.140625 -3.34375 C 10.804688 -2.164062 11.648438 -1.3125 12.671875 -0.78125 C 13.691406 -0.257812 14.84375 0 16.125 0 C 19.269531 0 22.34375 -0.914062 25.34375 -2.75 L 24.953125 -3.546875 C 22.710938 -2.867188 20.472656 -2.707031 18.234375 -3.0625 C 16.828125 -3.289062 15.851562 -4.078125 15.3125 -5.421875 C 14.78125 -6.765625 14.515625 -8.71875 14.515625 -11.28125 C 14.515625 -11.976562 14.554688 -13.632812 14.640625 -16.25 C 14.734375 -18.875 14.78125 -21.179688 14.78125 -23.171875 L 14.78125 -35.359375 L 19.0625 -35.359375 C 21.332031 -35.359375 23.238281 -35.316406 24.78125 -35.234375 C 24.957031 -36.078125 25.207031 -36.890625 25.53125 -37.671875 C 22.988281 -37.585938 21.109375 -37.53125 19.890625 -37.5 L 14.78125 -37.5 L 14.78125 -38.421875 C 14.78125 -43.285156 14.921875 -47.597656 15.203125 -51.359375 C 14.941406 -51.242188 14.550781 -51.0625 14.03125 -50.8125 C 13.507812 -50.5625 13.078125 -50.363281 12.734375 -50.21875 C 12.398438 -50.070312 11.960938 -49.910156 11.421875 -49.734375 C 10.890625 -49.566406 10.332031 -49.4375 9.75 -49.34375 C 9.75 -48.53125 9.6875 -46.960938 9.5625 -44.640625 C 9.445312 -42.328125 9.390625 -40.253906 9.390625 -38.421875 Z M 9.390625 -38.421875 "/></g></g></g><g fill="#ffffff" fill-opacity="1"><g transform="translate(225.298129, 125.033215)"><g><path d="M 8.515625 -38.421875 C 8.515625 -40.253906 8.570312 -42.363281 8.6875 -44.75 C 8.8125 -47.144531 8.875 -48.851562 8.875 -49.875 L 9.046875 -50.140625 C 9.921875 -50.253906 10.675781 -50.421875 11.3125 -50.640625 C 11.957031 -50.859375 12.679688 -51.15625 13.484375 -51.53125 C 14.285156 -51.90625 14.890625 -52.179688 15.296875 -52.359375 C 15.554688 -52.359375 15.757812 -52.300781 15.90625 -52.1875 C 16.050781 -52.039062 16.125 -51.804688 16.125 -51.484375 L 21.15625 -46.421875 C 20.894531 -43.179688 20.765625 -40.515625 20.765625 -38.421875 C 21.753906 -38.421875 23.546875 -38.476562 26.140625 -38.59375 L 26.578125 -37.9375 L 31.640625 -32.90625 C 31.179688 -31.75 30.832031 -30.523438 30.59375 -29.234375 C 29.375 -29.359375 27.21875 -29.421875 24.125 -29.421875 L 20.71875 -29.421875 L 20.71875 -18.140625 C 20.71875 -16.128906 20.671875 -13.804688 20.578125 -11.171875 C 20.492188 -8.535156 20.453125 -6.878906 20.453125 -6.203125 C 20.453125 -5.273438 20.484375 -4.460938 20.546875 -3.765625 C 22.054688 -3.765625 23.671875 -4.054688 25.390625 -4.640625 L 30.46875 0.4375 L 31.5625 2.671875 C 28.125 4.878906 24.65625 5.96875 21.15625 5.9375 C 18.914062 5.9375 17.078125 5.222656 15.640625 3.796875 L 10.578125 -1.265625 C 9.035156 -2.804688 8.25 -4.945312 8.21875 -7.6875 C 8.21875 -8.363281 8.265625 -10.445312 8.359375 -13.9375 C 8.460938 -17.4375 8.515625 -20.191406 8.515625 -22.203125 L 8.515625 -29.28125 C 8.054688 -29.25 7.625 -29.234375 7.21875 -29.234375 L 2.140625 -34.265625 L 1.703125 -34.921875 C 2.546875 -36.234375 3.203125 -37.457031 3.671875 -38.59375 C 4.515625 -38.476562 6.128906 -38.421875 8.515625 -38.421875 Z M 9.390625 -38.421875 L 9.390625 -37.5 L 8.484375 -37.5 C 6.554688 -37.5 5.140625 -37.546875 4.234375 -37.640625 C 3.890625 -36.847656 3.46875 -36.046875 2.96875 -35.234375 C 4.457031 -35.316406 6.296875 -35.359375 8.484375 -35.359375 L 9.390625 -35.359375 L 9.390625 -22.203125 C 9.390625 -20.160156 9.347656 -17.390625 9.265625 -13.890625 C 9.179688 -10.398438 9.140625 -8.332031 9.140625 -7.6875 C 9.140625 -5.96875 9.472656 -4.519531 10.140625 -3.34375 C 10.804688 -2.164062 11.648438 -1.3125 12.671875 -0.78125 C 13.691406 -0.257812 14.84375 0 16.125 0 C 19.269531 0 22.34375 -0.914062 25.34375 -2.75 L 24.953125 -3.546875 C 22.710938 -2.867188 20.472656 -2.707031 18.234375 -3.0625 C 16.828125 -3.289062 15.851562 -4.078125 15.3125 -5.421875 C 14.78125 -6.765625 14.515625 -8.71875 14.515625 -11.28125 C 14.515625 -11.976562 14.554688 -13.632812 14.640625 -16.25 C 14.734375 -18.875 14.78125 -21.179688 14.78125 -23.171875 L 14.78125 -35.359375 L 19.0625 -35.359375 C 21.332031 -35.359375 23.238281 -35.316406 24.78125 -35.234375 C 24.957031 -36.078125 25.207031 -36.890625 25.53125 -37.671875 C 22.988281 -37.585938 21.109375 -37.53125 19.890625 -37.5 L 14.78125 -37.5 L 14.78125 -38.421875 C 14.78125 -43.285156 14.921875 -47.597656 15.203125 -51.359375 C 14.941406 -51.242188 14.550781 -51.0625 14.03125 -50.8125 C 13.507812 -50.5625 13.078125 -50.363281 12.734375 -50.21875 C 12.398438 -50.070312 11.960938 -49.910156 11.421875 -49.734375 C 10.890625 -49.566406 10.332031 -49.4375 9.75 -49.34375 C 9.75 -48.53125 9.6875 -46.960938 9.5625 -44.640625 C 9.445312 -42.328125 9.390625 -40.253906 9.390625 -38.421875 Z M 9.390625 -38.421875 "/></g></g></g><g fill="#ffffff" fill-opacity="1"><g transform="translate(260.743875, 125.033215)"><g/></g></g><g fill="#ffffff" fill-opacity="1"><g transform="translate(283.121454, 125.033215)"><g><path d="M 19.234375 -4.0625 C 19.898438 -3.863281 20.582031 -3.765625 21.28125 -3.765625 C 25.28125 -3.765625 28.953125 -5.875 32.296875 -10.09375 L 32.296875 -30.109375 C 31.304688 -30.460938 30.171875 -30.640625 28.890625 -30.640625 C 27.640625 -30.640625 26.414062 -30.425781 25.21875 -30 C 24.019531 -29.582031 22.796875 -28.84375 21.546875 -27.78125 C 20.296875 -26.71875 19.289062 -25.0625 18.53125 -22.8125 C 17.769531 -20.570312 17.390625 -17.878906 17.390625 -14.734375 C 17.390625 -10.359375 18.003906 -6.800781 19.234375 -4.0625 Z M 35.140625 2.265625 C 32.429688 4.710938 29.328125 5.9375 25.828125 5.9375 C 21.804688 5.9375 18.335938 4.5 15.421875 1.625 L 10.359375 -3.453125 C 6.484375 -7.328125 4.546875 -12.53125 4.546875 -19.0625 C 4.546875 -25.09375 6.445312 -29.972656 10.25 -33.703125 C 14.050781 -37.429688 18.894531 -39.296875 24.78125 -39.296875 C 27.457031 -39.296875 29.960938 -38.640625 32.296875 -37.328125 L 32.296875 -43.140625 C 32.296875 -51.679688 32.035156 -57.4375 31.515625 -60.40625 L 31.6875 -60.71875 C 34.363281 -60.882812 36.957031 -61.476562 39.46875 -62.5 C 39.726562 -62.5 39.929688 -62.425781 40.078125 -62.28125 C 40.222656 -62.132812 40.296875 -61.898438 40.296875 -61.578125 L 45.328125 -56.515625 C 44.804688 -49.898438 44.546875 -44.289062 44.546875 -39.6875 L 44.546875 -12.109375 C 44.546875 -6.109375 45.050781 -0.382812 46.0625 5.0625 L 41 0 L 40.828125 0.265625 L 45.890625 5.328125 C 44.722656 5.148438 43.398438 5.0625 41.921875 5.0625 C 41.273438 5.0625 40.238281 5.148438 38.8125 5.328125 C 38.40625 5.328125 38.160156 5.285156 38.078125 5.203125 Z M 32.515625 -4.984375 L 32.46875 -5.203125 L 32.296875 -5.203125 Z M 31.59375 -5.71875 L 31.859375 -6.078125 L 33.3125 -6.078125 L 33.78125 -0.65625 C 35.09375 -0.832031 36.113281 -0.90625 36.84375 -0.875 C 37.863281 -0.875 38.898438 -0.832031 39.953125 -0.75 C 39.046875 -6.132812 38.59375 -11.609375 38.59375 -17.171875 L 38.59375 -44.765625 C 38.59375 -49.335938 38.851562 -54.914062 39.375 -61.5 C 37.195312 -60.65625 34.910156 -60.113281 32.515625 -59.875 C 32.984375 -56.726562 33.21875 -51.148438 33.21875 -43.140625 L 33.21875 -35.796875 L 31.859375 -36.546875 C 30.984375 -37.035156 29.800781 -37.46875 28.3125 -37.84375 C 26.832031 -38.226562 25.65625 -38.421875 24.78125 -38.421875 C 19.101562 -38.421875 14.460938 -36.640625 10.859375 -33.078125 C 7.265625 -29.523438 5.46875 -24.851562 5.46875 -19.0625 C 5.46875 -13.632812 6.898438 -9.097656 9.765625 -5.453125 C 12.640625 -1.816406 16.304688 0 20.765625 0 C 25.015625 0 28.625 -1.90625 31.59375 -5.71875 Z M 33.21875 -9.796875 L 33 -9.578125 C 31.3125 -7.441406 29.445312 -5.789062 27.40625 -4.625 C 25.363281 -3.46875 23.320312 -2.890625 21.28125 -2.890625 C 18.375 -2.890625 16.007812 -4.34375 14.1875 -7.25 C 12.363281 -10.164062 11.453125 -14.347656 11.453125 -19.796875 C 11.453125 -23.085938 11.851562 -25.90625 12.65625 -28.25 C 13.457031 -30.601562 14.535156 -32.347656 15.890625 -33.484375 C 17.242188 -34.617188 18.5625 -35.425781 19.84375 -35.90625 C 21.125 -36.382812 22.453125 -36.625 23.828125 -36.625 C 25.304688 -36.625 26.613281 -36.390625 27.75 -35.921875 C 28.882812 -35.460938 29.859375 -34.835938 30.671875 -34.046875 C 31.492188 -33.265625 32.300781 -32.242188 33.09375 -30.984375 L 33.21875 -30.765625 Z M 33.21875 -9.796875 "/></g></g></g><g fill="#ffffff" fill-opacity="1"><g transform="translate(335.568904, 125.033215)"><g><path d="M 27.75 -4.28125 L 27.40625 -4.28125 L 27.9375 -3.765625 C 27.875 -3.929688 27.8125 -4.101562 27.75 -4.28125 Z M 16.34375 -3.796875 C 16.84375 -3.710938 17.367188 -3.671875 17.921875 -3.671875 C 20.304688 -3.671875 23.046875 -4.835938 26.140625 -7.171875 C 26.984375 -7.753906 27.40625 -8.523438 27.40625 -9.484375 L 27.53125 -13.640625 L 25.21875 -13.03125 C 21.925781 -12.125 19.625 -10.945312 18.3125 -9.5 C 17 -8.0625 16.34375 -6.25 16.34375 -4.0625 C 16.34375 -3.976562 16.34375 -3.890625 16.34375 -3.796875 Z M 39.8125 -3.71875 C 40.226562 -3.800781 40.679688 -3.929688 41.171875 -4.109375 L 46.25 0.96875 L 46.9375 3.1875 C 45.195312 5.019531 42.8125 5.9375 39.78125 5.9375 C 37.644531 5.9375 35.9375 5.285156 34.65625 3.984375 L 31.90625 1.21875 C 29.6875 3.0625 27.785156 4.304688 26.203125 4.953125 C 24.617188 5.609375 22.644531 5.9375 20.28125 5.9375 C 16.40625 5.9375 13.503906 4.960938 11.578125 3.015625 L 6.515625 -2.015625 C 4.847656 -3.671875 4.015625 -5.925781 4.015625 -8.78125 C 4.015625 -11.8125 5.335938 -14.46875 7.984375 -16.75 C 10.640625 -19.039062 14.269531 -20.710938 18.875 -21.765625 L 27.234375 -23.640625 C 27.640625 -23.765625 27.84375 -24.117188 27.84375 -24.703125 C 27.84375 -26.734375 27.625 -28.476562 27.1875 -29.9375 C 26.425781 -30.113281 25.460938 -30.203125 24.296875 -30.203125 C 20.890625 -30.203125 17.613281 -27.664062 14.46875 -22.59375 L 13.28125 -22.6875 L 8.21875 -27.75 L 6.734375 -33.75 L 7 -34.09375 C 11.101562 -37.5625 15.488281 -39.296875 20.15625 -39.296875 C 25.070312 -39.296875 28.769531 -38.054688 31.25 -35.578125 L 36.328125 -30.515625 C 38.773438 -28.066406 40 -24.46875 40 -19.71875 C 40 -19.539062 39.953125 -17.5 39.859375 -13.59375 C 39.773438 -9.6875 39.734375 -7.222656 39.734375 -6.203125 C 39.734375 -5.273438 39.757812 -4.445312 39.8125 -3.71875 Z M 28.40625 -5.203125 L 28.625 -4.546875 C 29.5 -1.515625 31.539062 0 34.75 0 C 37.28125 0 39.320312 -0.710938 40.875 -2.140625 L 40.609375 -2.96875 C 39.929688 -2.789062 39.316406 -2.703125 38.765625 -2.703125 C 37.285156 -2.703125 36.207031 -3.007812 35.53125 -3.625 C 34.34375 -4.707031 33.757812 -7.257812 33.78125 -11.28125 C 33.78125 -12.300781 33.816406 -14.757812 33.890625 -18.65625 C 33.960938 -22.5625 34 -24.601562 34 -24.78125 C 34 -33.84375 29.382812 -38.390625 20.15625 -38.421875 C 15.75 -38.421875 11.59375 -36.789062 7.6875 -33.53125 L 8.953125 -28.625 C 12.160156 -33.664062 15.585938 -36.171875 19.234375 -36.140625 C 20.367188 -36.140625 21.375 -36.035156 22.25 -35.828125 C 23.125 -35.628906 24.109375 -35.1875 25.203125 -34.5 C 26.296875 -33.820312 27.15625 -32.644531 27.78125 -30.96875 C 28.40625 -29.289062 28.71875 -27.203125 28.71875 -24.703125 C 28.71875 -23.679688 28.3125 -23.035156 27.5 -22.765625 L 27.453125 -22.765625 L 19.09375 -20.890625 C 14.632812 -19.898438 11.160156 -18.316406 8.671875 -16.140625 C 6.179688 -13.972656 4.9375 -11.519531 4.9375 -8.78125 C 4.9375 -5.84375 5.832031 -3.644531 7.625 -2.1875 C 9.414062 -0.726562 11.941406 0 15.203125 0 C 17.535156 0 19.457031 -0.328125 20.96875 -0.984375 C 22.488281 -1.640625 24.429688 -2.972656 26.796875 -4.984375 L 27.0625 -5.203125 Z M 28.671875 -21.328125 L 28.28125 -9.484375 C 28.28125 -8.265625 27.738281 -7.242188 26.65625 -6.421875 C 23.394531 -3.972656 20.484375 -2.75 17.921875 -2.75 C 15.765625 -2.75 13.972656 -3.382812 12.546875 -4.65625 C 11.117188 -5.925781 10.40625 -7.421875 10.40625 -9.140625 C 10.40625 -10.679688 10.6875 -12.046875 11.25 -13.234375 C 11.820312 -14.429688 12.820312 -15.523438 14.25 -16.515625 C 15.675781 -17.515625 17.554688 -18.316406 19.890625 -18.921875 Z M 28.671875 -21.328125 "/></g></g></g><g fill="#ffffff" fill-opacity="1"><g transform="translate(383.602038, 125.033215)"><g><path d="M 17.609375 0.265625 C 10.878906 -17.335938 5.609375 -30.320312 1.796875 -38.6875 C 2.753906 -38.507812 4.332031 -38.421875 6.53125 -38.421875 C 8.726562 -38.421875 10.222656 -38.507812 11.015625 -38.6875 L 16.078125 -33.609375 C 19.804688 -21.773438 22.210938 -14.390625 23.296875 -11.453125 C 24.609375 -14.628906 26.332031 -19.492188 28.46875 -26.046875 C 30.613281 -32.609375 32.019531 -36.820312 32.6875 -38.6875 C 33.21875 -38.507812 34.222656 -38.421875 35.703125 -38.421875 C 37.421875 -38.421875 38.5625 -38.507812 39.125 -38.6875 L 44.1875 -33.609375 C 36.8125 -16.910156 31.46875 -3.929688 28.15625 5.328125 C 27.625 5.148438 26.734375 5.0625 25.484375 5.0625 C 25.242188 5.0625 25.375 5.484375 25.875 6.328125 C 26.375 7.179688 26.878906 8.050781 27.390625 8.9375 C 27.898438 9.820312 28.019531 10.3125 27.75 10.40625 L 22.6875 5.328125 Z M 18.1875 -0.78125 C 18.675781 -0.875 19.414062 -0.90625 20.40625 -0.875 C 21.3125 -0.875 22.015625 -0.84375 22.515625 -0.78125 C 25.742188 -9.789062 30.785156 -22.046875 37.640625 -37.546875 C 37.140625 -37.515625 36.492188 -37.5 35.703125 -37.5 C 34.628906 -37.5 33.816406 -37.546875 33.265625 -37.640625 C 32.503906 -35.503906 31.4375 -32.296875 30.0625 -28.015625 C 28.695312 -23.734375 27.414062 -19.914062 26.21875 -16.5625 C 25.03125 -13.21875 23.835938 -10.257812 22.640625 -7.6875 L 22.375 -7.171875 L 21.0625 -7.171875 L 20.8125 -7.6875 C 19.957031 -9.613281 19.164062 -11.515625 18.4375 -13.390625 C 17.71875 -15.273438 16.925781 -17.488281 16.0625 -20.03125 C 15.207031 -22.582031 14.609375 -24.351562 14.265625 -25.34375 C 13.929688 -26.34375 13.234375 -28.550781 12.171875 -31.96875 C 11.109375 -35.394531 10.519531 -37.296875 10.40625 -37.671875 C 9.5625 -37.585938 8.28125 -37.53125 6.5625 -37.5 C 5.15625 -37.5 4.0625 -37.53125 3.28125 -37.59375 C 6.914062 -29.488281 11.882812 -17.21875 18.1875 -0.78125 Z M 18.1875 -0.78125 "/></g></g></g><g fill="#ffffff" fill-opacity="1"><g transform="translate(149.067614, 32.657198)"><g><path d="M 1.839844 0 L 3.765625 0 C 3.628906 -3.578125 3.628906 -8.828125 3.730469 -12.425781 C 3.15625 -12.339844 2.5 -12.339844 1.839844 -12.425781 C 1.941406 -8.828125 1.941406 -3.597656 1.839844 0 Z M 1.839844 0 "/></g></g></g><g fill="#ffffff" fill-opacity="1"><g transform="translate(154.672686, 32.657198)"><g><path d="M 6.804688 0 L 8.726562 0 C 8.628906 -3.257812 8.609375 -7.480469 8.644531 -11.191406 C 11.09375 -11.175781 13.167969 -11.09375 15.210938 -10.957031 C 15.144531 -11.445312 15.144531 -11.9375 15.210938 -12.425781 C 9.976562 -12.359375 5.570312 -12.359375 0.335938 -12.425781 C 0.40625 -11.9375 0.40625 -11.445312 0.335938 -10.957031 C 2.363281 -11.09375 4.441406 -11.175781 6.855469 -11.191406 C 6.90625 -7.496094 6.886719 -3.273438 6.804688 0 Z M 6.804688 0 "/></g></g></g><g fill="#ffffff" fill-opacity="1"><g transform="translate(170.221712, 32.657198)"><g/></g></g><g fill="#ffffff" fill-opacity="1"><g transform="translate(175.286536, 32.657198)"><g><path d="M 6.179688 0.1875 C 9.25 0.1875 11.125 -0.609375 11.125 -2.550781 C 11.125 -6.734375 2.53125 -3.425781 2.53125 -6.449219 C 2.53125 -7.613281 3.648438 -8.136719 5.941406 -8.136719 C 7.78125 -8.136719 9.371094 -7.679688 10.636719 -7.058594 C 10.519531 -7.648438 10.5 -8.085938 10.621094 -8.492188 C 9.082031 -8.949219 7.816406 -9.234375 6.027344 -9.234375 C 4.152344 -9.234375 0.894531 -9.03125 0.894531 -6.449219 C 0.894531 -2.296875 9.453125 -5.453125 9.453125 -2.582031 C 9.453125 -1.519531 8.289062 -0.960938 6.128906 -0.960938 C 4.355469 -0.960938 2.160156 -1.453125 1.097656 -2.296875 C 1.214844 -1.925781 1.214844 -1.265625 1.097656 -0.859375 C 2.464844 -0.152344 4.421875 0.1875 6.179688 0.1875 Z M 6.179688 0.1875 "/></g></g></g><g fill="#ffffff" fill-opacity="1"><g transform="translate(187.205769, 32.657198)"><g><path d="M 11.699219 -2.347656 C 10.601562 -1.519531 8.59375 -1.03125 7.039062 -1.011719 C 3.96875 -0.996094 2.703125 -2.277344 2.550781 -4.289062 C 4.964844 -4.320312 7.96875 -4.320312 11.632812 -4.289062 C 11.835938 -7.5625 9.371094 -9.25 6.246094 -9.25 C 2.9375 -9.25 0.84375 -7.53125 0.84375 -4.574219 C 0.84375 -1.585938 2.871094 0.1875 6.734375 0.1875 C 8.441406 0.1875 10.28125 -0.167969 11.699219 -0.859375 C 11.617188 -1.265625 11.617188 -1.925781 11.699219 -2.347656 Z M 6.246094 -8.121094 C 8.1875 -8.121094 9.808594 -7.007812 9.945312 -4.894531 C 7.410156 -4.878906 4.828125 -4.878906 2.53125 -4.929688 C 2.632812 -6.988281 4.019531 -8.121094 6.246094 -8.121094 Z M 6.246094 -8.121094 "/></g></g></g><g fill="#ffffff" fill-opacity="1"><g transform="translate(199.884734, 32.657198)"><g><path d="M 3.308594 0 C 3.15625 -1.164062 3.15625 -2.277344 3.15625 -3.445312 C 3.15625 -6.449219 4.929688 -7.582031 6.855469 -7.582031 C 7.175781 -7.582031 7.5625 -7.53125 7.984375 -7.429688 C 7.867188 -8.035156 7.867188 -8.644531 7.984375 -9.117188 C 6.179688 -9.320312 3.96875 -8.476562 3.140625 -5.503906 L 3.003906 -5.503906 C 3.039062 -6.753906 3.105469 -7.902344 3.242188 -9.167969 C 2.800781 -9 2.078125 -8.898438 1.417969 -8.863281 C 1.636719 -5.910156 1.636719 -3.023438 1.417969 0 Z M 3.308594 0 "/></g></g></g><g fill="#ffffff" fill-opacity="1"><g transform="translate(208.174174, 32.657198)"><g><path d="M 9.234375 -9.015625 C 8.070312 -6.433594 6.9375 -3.664062 5.621094 -0.84375 C 4.355469 -3.511719 3.175781 -6.433594 1.992188 -9.015625 C 1.417969 -8.914062 0.777344 -8.929688 0.101562 -9.015625 C 1.707031 -5.960938 3.105469 -3.023438 4.472656 0 L 6.71875 0 C 8.492188 -3.765625 9.386719 -5.808594 11.09375 -9.015625 C 10.417969 -8.914062 9.824219 -8.929688 9.234375 -9.015625 Z M 9.234375 -9.015625 "/></g></g></g><g fill="#ffffff" fill-opacity="1"><g transform="translate(219.350571, 32.657198)"><g><path d="M 11.699219 -2.347656 C 10.601562 -1.519531 8.59375 -1.03125 7.039062 -1.011719 C 3.96875 -0.996094 2.703125 -2.277344 2.550781 -4.289062 C 4.964844 -4.320312 7.96875 -4.320312 11.632812 -4.289062 C 11.835938 -7.5625 9.371094 -9.25 6.246094 -9.25 C 2.9375 -9.25 0.84375 -7.53125 0.84375 -4.574219 C 0.84375 -1.585938 2.871094 0.1875 6.734375 0.1875 C 8.441406 0.1875 10.28125 -0.167969 11.699219 -0.859375 C 11.617188 -1.265625 11.617188 -1.925781 11.699219 -2.347656 Z M 6.246094 -8.121094 C 8.1875 -8.121094 9.808594 -7.007812 9.945312 -4.894531 C 7.410156 -4.878906 4.828125 -4.878906 2.53125 -4.929688 C 2.632812 -6.988281 4.019531 -8.121094 6.246094 -8.121094 Z M 6.246094 -8.121094 "/></g></g></g><g fill="#ffffff" fill-opacity="1"><g transform="translate(232.029536, 32.657198)"><g><path d="M 6.179688 0.1875 C 9.25 0.1875 11.125 -0.609375 11.125 -2.550781 C 11.125 -6.734375 2.53125 -3.425781 2.53125 -6.449219 C 2.53125 -7.613281 3.648438 -8.136719 5.941406 -8.136719 C 7.78125 -8.136719 9.371094 -7.679688 10.636719 -7.058594 C 10.519531 -7.648438 10.5 -8.085938 10.621094 -8.492188 C 9.082031 -8.949219 7.816406 -9.234375 6.027344 -9.234375 C 4.152344 -9.234375 0.894531 -9.03125 0.894531 -6.449219 C 0.894531 -2.296875 9.453125 -5.453125 9.453125 -2.582031 C 9.453125 -1.519531 8.289062 -0.960938 6.128906 -0.960938 C 4.355469 -0.960938 2.160156 -1.453125 1.097656 -2.296875 C 1.214844 -1.925781 1.214844 -1.265625 1.097656 -0.859375 C 2.464844 -0.152344 4.421875 0.1875 6.179688 0.1875 Z M 6.179688 0.1875 "/></g></g></g><g fill="#ffffff" fill-opacity="1"><g transform="translate(243.948769, 32.657198)"><g/></g></g><g fill="#ffffff" fill-opacity="1"><g transform="translate(249.013593, 32.657198)"><g><path d="M 11.699219 -2.347656 C 10.601562 -1.519531 8.59375 -1.03125 7.039062 -1.011719 C 3.96875 -0.996094 2.703125 -2.277344 2.550781 -4.289062 C 4.964844 -4.320312 7.96875 -4.320312 11.632812 -4.289062 C 11.835938 -7.5625 9.371094 -9.25 6.246094 -9.25 C 2.9375 -9.25 0.84375 -7.53125 0.84375 -4.574219 C 0.84375 -1.585938 2.871094 0.1875 6.734375 0.1875 C 8.441406 0.1875 10.28125 -0.167969 11.699219 -0.859375 C 11.617188 -1.265625 11.617188 -1.925781 11.699219 -2.347656 Z M 6.246094 -8.121094 C 8.1875 -8.121094 9.808594 -7.007812 9.945312 -4.894531 C 7.410156 -4.878906 4.828125 -4.878906 2.53125 -4.929688 C 2.632812 -6.988281 4.019531 -8.121094 6.246094 -8.121094 Z M 6.246094 -8.121094 "/></g></g></g><g fill="#ffffff" fill-opacity="1"><g transform="translate(261.692557, 32.657198)"><g><path d="M 11.835938 -13.355469 C 11.363281 -13.183594 10.484375 -13.101562 9.925781 -13.066406 C 10.011719 -11.953125 10.078125 -8.324219 10.113281 -5.859375 L 9.976562 -5.859375 C 9.320312 -7.648438 7.984375 -9.234375 5.4375 -9.234375 C 2.683594 -9.234375 0.84375 -7.378906 0.84375 -4.695312 C 0.84375 -1.824219 2.75 0.238281 5.992188 0.238281 C 7.953125 0.238281 9.4375 -0.726562 10.144531 -2.3125 C 10.128906 -1.503906 10.113281 -0.757812 10.0625 0 L 11.734375 0 C 11.53125 -1.753906 11.515625 -10.890625 11.835938 -13.355469 Z M 6.484375 -0.808594 C 4.355469 -0.808594 2.515625 -2.058594 2.515625 -4.59375 C 2.515625 -6.636719 3.867188 -8.054688 6.011719 -8.054688 C 9.503906 -8.054688 10.144531 -4.863281 10.144531 -3.125 L 10.144531 -2.953125 C 9.21875 -1.265625 7.765625 -0.808594 6.484375 -0.808594 Z M 6.484375 -0.808594 "/></g></g></g><g fill="#ffffff" fill-opacity="1"><g transform="translate(274.878002, 32.657198)"><g><path d="M 11.109375 -9.117188 C 10.550781 -8.964844 9.910156 -8.914062 9.335938 -8.914062 L 9.335938 -5.316406 C 9.335938 -3.140625 8.289062 -1.164062 5.46875 -1.164062 C 3.527344 -1.164062 2.71875 -2.566406 2.71875 -4.492188 L 2.71875 -9.117188 C 2.128906 -8.964844 1.636719 -8.914062 1.046875 -8.914062 C 1.199219 -7.34375 1.164062 -5.519531 1.164062 -3.816406 C 1.164062 -1.671875 1.992188 0.152344 4.675781 0.152344 C 7.125 0.152344 8.796875 -1.234375 9.386719 -3.394531 L 9.523438 -3.394531 C 9.488281 -2.363281 9.402344 -1.183594 9.25 0 L 11.109375 0 C 10.90625 -4.507812 10.921875 -6.5 11.109375 -9.117188 Z M 11.109375 -9.117188 "/></g></g></g><g fill="#ffffff" fill-opacity="1"><g transform="translate(287.337484, 32.657198)"><g><path d="M 6.804688 0.167969 C 8.492188 0.167969 9.996094 -0.1875 11.394531 -0.894531 C 11.277344 -1.300781 11.277344 -1.976562 11.394531 -2.398438 C 10.332031 -1.621094 8.914062 -1.046875 7.023438 -1.046875 C 4.136719 -1.046875 2.480469 -2.296875 2.480469 -4.523438 C 2.480469 -6.769531 4.136719 -8.035156 7.023438 -8.035156 C 8.898438 -8.035156 10.367188 -7.359375 11.394531 -6.535156 C 11.277344 -6.957031 11.277344 -7.765625 11.394531 -8.1875 C 9.996094 -8.898438 8.476562 -9.234375 6.804688 -9.234375 C 2.972656 -9.234375 0.84375 -7.480469 0.84375 -4.523438 C 0.84375 -1.585938 2.972656 0.167969 6.804688 0.167969 Z M 6.804688 0.167969 "/></g></g></g><g fill="#ffffff" fill-opacity="1"><g transform="translate(299.560609, 32.657198)"><g><path d="M 11.785156 0 C 11.226562 -1.722656 11.191406 -3.125 11.175781 -5.183594 C 11.140625 -8.15625 9.539062 -9.234375 6.230469 -9.234375 C 4.121094 -9.234375 2.464844 -8.695312 1.265625 -8.070312 C 1.332031 -7.679688 1.332031 -6.972656 1.265625 -6.550781 C 2.226562 -7.394531 3.984375 -8.054688 5.976562 -8.054688 C 9 -8.054688 9.539062 -6.820312 9.605469 -4.878906 L 6.011719 -4.878906 C 2.71875 -4.878906 1.03125 -3.949219 1.03125 -2.226562 C 1.03125 -0.859375 2.09375 0.238281 4.523438 0.238281 C 7.140625 0.238281 8.675781 -0.859375 9.65625 -2.226562 C 9.707031 -1.519531 9.84375 -0.757812 10.113281 0 Z M 5.335938 -0.910156 C 3.765625 -0.910156 2.785156 -1.453125 2.785156 -2.550781 C 2.785156 -3.949219 4.492188 -4.320312 7.191406 -4.320312 L 9.605469 -4.320312 L 9.605469 -4.152344 C 9.605469 -3.679688 9.589844 -3.140625 9.625 -2.550781 C 8.660156 -1.636719 7.242188 -0.910156 5.335938 -0.910156 Z M 5.335938 -0.910156 "/></g></g></g><g fill="#ffffff" fill-opacity="1"><g transform="translate(312.323984, 32.657198)"><g><path d="M 4.101562 -7.984375 C 5.824219 -7.984375 7.5625 -7.953125 9.183594 -7.882812 C 9.152344 -8.304688 9.152344 -8.59375 9.183594 -9.015625 C 7.582031 -8.949219 5.839844 -8.914062 4.101562 -8.914062 L 4.152344 -12.222656 C 3.628906 -12.003906 3.054688 -11.9375 2.398438 -11.867188 C 2.449219 -11.09375 2.480469 -10.046875 2.5 -8.929688 C 1.636719 -8.949219 0.777344 -8.980469 -0.0351562 -9.015625 C 0 -8.710938 0 -8.1875 -0.0351562 -7.882812 C 0.792969 -7.917969 1.636719 -7.953125 2.515625 -7.96875 C 2.550781 -5.859375 2.550781 -3.78125 2.550781 -3.140625 C 2.550781 -0.625 4.203125 0.136719 6.027344 0.167969 C 7.140625 0.1875 8.304688 -0.0664062 9.167969 -0.371094 C 9.101562 -0.777344 9.117188 -1.214844 9.183594 -1.636719 C 8.339844 -1.300781 7.328125 -1.03125 6.414062 -1.0625 C 5.082031 -1.113281 4 -1.789062 4.035156 -3.816406 C 4.050781 -5.132812 4.070312 -6.550781 4.101562 -7.984375 Z M 4.101562 -7.984375 "/></g></g></g><g fill="#ffffff" fill-opacity="1"><g transform="translate(321.94715, 32.657198)"><g><path d="M 2.347656 -10.804688 C 3.222656 -10.804688 3.679688 -11.058594 3.679688 -11.648438 C 3.679688 -12.238281 3.222656 -12.511719 2.347656 -12.511719 C 1.554688 -12.511719 1.132812 -12.238281 1.132812 -11.648438 C 1.132812 -11.058594 1.554688 -10.804688 2.347656 -10.804688 Z M 1.503906 -9.015625 C 1.621094 -5.960938 1.621094 -3.039062 1.503906 0 L 3.257812 0 C 3.140625 -3.054688 3.140625 -5.960938 3.257812 -9.015625 C 2.632812 -8.914062 2.144531 -8.929688 1.503906 -9.015625 Z M 1.503906 -9.015625 "/></g></g></g><g fill="#ffffff" fill-opacity="1"><g transform="translate(326.758745, 32.657198)"><g><path d="M 6.464844 0.1875 C 9.996094 0.1875 12.070312 -1.570312 12.070312 -4.558594 C 12.070312 -7.480469 9.996094 -9.234375 6.464844 -9.234375 C 2.921875 -9.234375 0.84375 -7.480469 0.84375 -4.558594 C 0.84375 -1.570312 2.921875 0.1875 6.464844 0.1875 Z M 6.449219 -0.894531 C 3.949219 -0.894531 2.53125 -2.226562 2.53125 -4.558594 C 2.53125 -6.734375 3.949219 -8.085938 6.449219 -8.085938 C 8.914062 -8.085938 10.382812 -6.734375 10.382812 -4.558594 C 10.382812 -2.226562 8.914062 -0.894531 6.449219 -0.894531 Z M 6.449219 -0.894531 "/></g></g></g><g fill="#ffffff" fill-opacity="1"><g transform="translate(339.674065, 32.657198)"><g><path d="M 1.417969 0 L 3.191406 0 L 3.191406 -3.613281 C 3.191406 -5.910156 4.441406 -7.917969 6.957031 -7.917969 C 9 -7.917969 9.875 -6.464844 9.875 -4.441406 L 9.875 0 L 11.617188 0 C 11.464844 -1.671875 11.496094 -3.445312 11.496094 -5.265625 C 11.496094 -7.394531 10.621094 -9.234375 7.816406 -9.234375 C 5.539062 -9.234375 3.746094 -7.714844 3.15625 -5.539062 L 3.003906 -5.539062 C 3.054688 -6.804688 3.140625 -7.917969 3.308594 -9.199219 C 2.871094 -9.03125 2.078125 -8.914062 1.417969 -8.878906 C 1.621094 -4.390625 1.621094 -2.617188 1.417969 0 Z M 1.417969 0 "/></g></g></g></svg>