<svg xmlns="http://www.w3.org/2000/svg" xmlns:xlink="http://www.w3.org/1999/xlink" width="50" zoomAndPan="magnify" viewBox="0 0 61.5 70.499999" height="50" preserveAspectRatio="xMidYMid meet" version="1.0"><defs><clipPath id="1c1a7ce664"><path d="M 6.101562 19.507812 L 55 19.507812 L 55 50.753906 L 6.101562 50.753906 Z M 6.101562 19.507812 " clip-rule="nonzero"/></clipPath></defs><g clip-path="url(#1c1a7ce664)"><path fill="#ffffff" d="M 36.382812 50.410156 C 36.457031 50.378906 37.894531 49.492188 42.277344 46.765625 C 42.824219 46.425781 43.777344 45.832031 44.390625 45.445312 C 45.574219 44.703125 49.210938 42.441406 52.601562 40.335938 C 53.734375 39.632812 54.691406 39.019531 54.730469 38.964844 C 54.84375 38.820312 54.820312 38.722656 54.609375 38.515625 C 54.441406 38.34375 54.367188 38.316406 53.980469 38.277344 C 53.226562 38.203125 53.308594 38.433594 53.226562 36.1875 C 53.1875 35.109375 53.140625 34.144531 53.125 34.042969 C 53.097656 33.863281 53.117188 33.847656 53.511719 33.617188 C 53.808594 33.441406 53.933594 33.332031 53.960938 33.222656 C 54.039062 32.902344 53.796875 32.796875 51.019531 31.972656 C 48.226562 31.140625 45.042969 30.152344 44.996094 30.105469 C 44.964844 30.078125 45.324219 29.53125 45.816406 28.855469 C 46.296875 28.195312 46.714844 27.601562 46.75 27.539062 C 46.988281 27.070312 47.046875 25.40625 46.863281 24.378906 C 46.683594 23.394531 46.273438 22.453125 45.84375 22.042969 L 45.671875 21.878906 L 43.242188 21.644531 C 41.90625 21.515625 40.109375 21.34375 39.257812 21.265625 C 38.402344 21.183594 37.1875 21.066406 36.558594 21 C 35.929688 20.933594 34.84375 20.828125 34.152344 20.761719 C 31.644531 20.523438 29.875 20.355469 28.667969 20.238281 C 27.988281 20.175781 26.878906 20.066406 26.203125 20.003906 C 24.335938 19.828125 22.703125 19.667969 21.917969 19.582031 C 21.53125 19.542969 21.121094 19.507812 21.003906 19.507812 C 20.808594 19.503906 20.59375 19.667969 18.597656 21.324219 C 17.394531 22.324219 16.128906 23.367188 15.789062 23.644531 C 13.386719 25.589844 10.265625 28.238281 10.183594 28.394531 C 10.078125 28.605469 10.109375 28.863281 10.261719 28.996094 C 10.457031 29.164062 10.636719 29.222656 11.199219 29.292969 L 11.769531 29.363281 L 11.820312 29.941406 C 11.847656 30.257812 11.847656 30.539062 11.820312 30.5625 C 11.792969 30.589844 10.828125 30.925781 9.675781 31.316406 C 7.617188 32.007812 7.570312 32.023438 7.238281 32.316406 C 6.832031 32.667969 6.460938 33.316406 6.304688 33.941406 C 6.152344 34.539062 6.152344 36.785156 6.300781 37.476562 C 6.4375 38.105469 6.585938 38.5 6.828125 38.863281 L 7.019531 39.15625 L 8.953125 39.894531 C 13.40625 41.589844 16.125 42.625 19.75 44 C 20.328125 44.21875 21.332031 44.601562 21.976562 44.847656 C 22.625 45.09375 23.957031 45.601562 24.941406 45.972656 C 25.925781 46.347656 27.335938 46.890625 28.078125 47.179688 C 28.820312 47.472656 29.863281 47.875 30.398438 48.074219 C 30.929688 48.277344 32.183594 48.75 33.183594 49.128906 C 34.183594 49.503906 35.148438 49.902344 35.324219 50.007812 C 36.003906 50.417969 36.183594 50.484375 36.382812 50.410156 Z M 34.5625 48.980469 C 34.320312 48.886719 33.6875 48.644531 33.15625 48.4375 L 32.1875 48.066406 L 32.144531 47.835938 C 32.066406 47.386719 32.09375 44.410156 32.183594 43.824219 C 32.304688 43.023438 32.605469 42.179688 32.765625 42.179688 C 32.804688 42.179688 33.101562 42.28125 33.421875 42.410156 C 33.742188 42.535156 34.464844 42.808594 35.023438 43.023438 C 35.585938 43.234375 36.058594 43.421875 36.074219 43.4375 C 36.089844 43.453125 36.007812 43.753906 35.890625 44.101562 C 35.351562 45.730469 35.148438 47.082031 35.265625 48.308594 C 35.300781 48.691406 35.34375 49.023438 35.359375 49.050781 C 35.375 49.082031 35.375 49.132812 35.351562 49.167969 C 35.304688 49.246094 35.140625 49.207031 34.5625 48.980469 Z M 35.929688 48.882812 C 35.902344 48.792969 35.882812 48.179688 35.886719 47.519531 C 35.890625 46.425781 35.90625 46.261719 36.046875 45.695312 C 36.273438 44.78125 36.578125 43.886719 36.769531 43.578125 C 36.949219 43.289062 36.824219 43.367188 40.429688 41.273438 C 40.992188 40.945312 41.5625 40.609375 41.691406 40.523438 C 41.820312 40.441406 43.417969 39.503906 45.242188 38.4375 C 47.0625 37.375 49.421875 36 50.476562 35.382812 C 51.535156 34.765625 52.4375 34.261719 52.488281 34.261719 C 52.554688 34.261719 52.574219 34.351562 52.574219 34.714844 C 52.570312 34.964844 52.605469 35.957031 52.640625 36.921875 L 52.710938 38.679688 L 52.570312 38.792969 C 52.492188 38.855469 51.277344 39.621094 49.875 40.492188 C 48.472656 41.363281 46.597656 42.527344 45.710938 43.078125 C 44.824219 43.628906 43.316406 44.558594 42.367188 45.144531 C 40.230469 46.457031 37.957031 47.871094 36.910156 48.535156 C 36.472656 48.8125 36.085938 49.039062 36.046875 49.039062 C 36.003906 49.042969 35.953125 48.972656 35.929688 48.882812 Z M 40.457031 44.066406 C 42.804688 42.875 44.449219 41.980469 45.527344 41.316406 C 46.667969 40.613281 48.3125 39.484375 48.269531 39.441406 C 48.242188 39.414062 47.839844 39.648438 46.179688 40.664062 C 44.75 41.539062 44.015625 41.949219 41.484375 43.296875 C 39.621094 44.289062 38.226562 45.066406 38.113281 45.175781 C 37.96875 45.320312 38.328125 45.148438 40.457031 44.066406 Z M 41.105469 44.988281 C 41.851562 44.597656 43.734375 43.394531 43.890625 43.203125 C 44.046875 43.015625 43.792969 43.132812 42.957031 43.625 C 41.996094 44.195312 40.808594 44.964844 40.753906 45.054688 C 40.695312 45.148438 40.851562 45.117188 41.105469 44.988281 Z M 46.914062 39.03125 C 47.007812 38.976562 47.539062 38.664062 48.085938 38.335938 C 48.632812 38.003906 49.425781 37.570312 49.847656 37.371094 C 50.265625 37.167969 50.578125 36.992188 50.542969 36.980469 C 50.441406 36.941406 49.476562 37.300781 48.917969 37.589844 C 48.105469 38.007812 46.476562 39.125 46.675781 39.125 C 46.710938 39.125 46.816406 39.082031 46.914062 39.03125 Z M 37.613281 48.84375 C 37.613281 48.832031 37.65625 48.804688 37.703125 48.789062 C 37.757812 48.765625 37.78125 48.777344 37.757812 48.808594 C 37.726562 48.867188 37.613281 48.894531 37.613281 48.84375 Z M 38.347656 48.398438 C 38.367188 48.367188 38.414062 48.339844 38.453125 48.339844 C 38.496094 48.34375 38.488281 48.363281 38.433594 48.398438 C 38.320312 48.472656 38.300781 48.472656 38.347656 48.398438 Z M 38.960938 48.019531 C 38.960938 48.003906 39.023438 47.964844 39.09375 47.929688 C 39.222656 47.867188 39.222656 47.867188 39.113281 47.957031 C 38.992188 48.050781 38.960938 48.066406 38.960938 48.019531 Z M 30.714844 47.515625 C 29.734375 47.148438 29.785156 47.207031 29.835938 46.5 C 29.945312 44.902344 30.535156 41.71875 30.769531 41.496094 C 30.820312 41.445312 30.980469 41.484375 31.410156 41.648438 C 31.722656 41.765625 32.007812 41.890625 32.035156 41.917969 C 32.070312 41.953125 32.015625 42.1875 31.894531 42.535156 C 31.5625 43.492188 31.5 44.03125 31.507812 46.007812 C 31.511719 47.445312 31.496094 47.753906 31.429688 47.753906 C 31.386719 47.753906 31.0625 47.644531 30.714844 47.515625 Z M 28.519531 46.695312 C 27.964844 46.503906 27.972656 46.515625 28.019531 45.964844 C 28.101562 44.976562 28.691406 42.257812 28.992188 41.476562 C 29.246094 40.816406 29.261719 40.808594 29.703125 40.980469 C 29.90625 41.0625 30.09375 41.148438 30.121094 41.175781 C 30.148438 41.203125 30.0625 41.65625 29.933594 42.1875 C 29.59375 43.5625 29.222656 45.902344 29.222656 46.660156 C 29.222656 46.875 29.214844 46.886719 29.0625 46.855469 C 28.972656 46.839844 28.730469 46.765625 28.519531 46.695312 Z M 41.015625 46.734375 C 41.015625 46.71875 41.058594 46.695312 41.105469 46.675781 C 41.160156 46.65625 41.183594 46.664062 41.164062 46.699219 C 41.128906 46.753906 41.015625 46.78125 41.015625 46.734375 Z M 26.996094 46.121094 L 26.789062 46.019531 L 26.796875 45.070312 C 26.808594 44.03125 26.855469 43.644531 27.117188 42.53125 C 27.425781 41.21875 27.773438 40.363281 28 40.363281 C 28.117188 40.363281 28.578125 40.527344 28.660156 40.601562 C 28.6875 40.625 28.613281 40.867188 28.496094 41.140625 C 28.378906 41.414062 28.203125 41.957031 28.109375 42.351562 C 27.863281 43.339844 27.484375 45.289062 27.433594 45.804688 C 27.386719 46.277344 27.355469 46.300781 26.996094 46.121094 Z M 42.367188 45.90625 C 42.367188 45.894531 42.425781 45.851562 42.496094 45.816406 C 42.625 45.753906 42.625 45.757812 42.515625 45.84375 C 42.394531 45.941406 42.367188 45.953125 42.367188 45.90625 Z M 25.410156 45.519531 C 25.070312 45.390625 24.09375 45.019531 23.238281 44.695312 C 22.382812 44.371094 20.417969 43.621094 18.867188 43.03125 C 17.320312 42.441406 15.445312 41.726562 14.703125 41.445312 C 11.054688 40.0625 10.316406 39.777344 10.285156 39.75 C 10.195312 39.65625 10.089844 38.730469 10.058594 37.75 C 10.03125 36.832031 10.042969 36.542969 10.121094 36.136719 C 10.304688 35.207031 10.707031 34.203125 10.894531 34.203125 C 11.007812 34.203125 11.425781 34.414062 11.476562 34.496094 C 11.5 34.53125 11.316406 34.765625 11.070312 35.019531 C 10.625 35.480469 10.5625 35.613281 10.6875 35.847656 C 10.785156 36.035156 10.949219 36.082031 11.816406 36.167969 C 12.273438 36.214844 12.902344 36.28125 13.207031 36.3125 C 13.511719 36.347656 14.582031 36.453125 15.582031 36.546875 C 17.539062 36.734375 18.4375 36.828125 18.808594 36.875 C 18.9375 36.890625 19.269531 36.996094 19.542969 37.101562 C 19.816406 37.210938 20.214844 37.367188 20.421875 37.449219 C 20.820312 37.601562 25.164062 39.25 26.488281 39.75 C 26.902344 39.90625 27.257812 40.070312 27.273438 40.113281 C 27.289062 40.15625 27.207031 40.394531 27.09375 40.644531 C 26.628906 41.632812 26.238281 43.449219 26.1875 44.835938 C 26.167969 45.449219 26.132812 45.757812 26.089844 45.757812 C 26.054688 45.757812 25.75 45.652344 25.410156 45.519531 Z M 43.011719 45.5 C 43.089844 45.425781 45.234375 44.074219 48.171875 42.25 C 53.035156 39.234375 53.070312 39.210938 53.175781 39.007812 C 53.230469 38.898438 53.304688 38.808594 53.335938 38.8125 C 53.367188 38.816406 53.460938 38.824219 53.542969 38.828125 C 53.621094 38.832031 53.6875 38.863281 53.6875 38.894531 C 53.6875 38.957031 53.667969 38.96875 52.25 39.847656 C 51.703125 40.1875 50.050781 41.210938 48.585938 42.125 C 47.117188 43.035156 45.347656 44.125 44.652344 44.542969 C 43.960938 44.964844 43.300781 45.367188 43.1875 45.445312 C 42.957031 45.601562 42.886719 45.625 43.011719 45.5 Z M 34.8125 42.261719 C 33.28125 41.679688 32.265625 41.296875 29.3125 40.1875 C 27.835938 39.632812 24.933594 38.53125 24.441406 38.339844 C 24.25 38.265625 23.515625 37.984375 22.8125 37.71875 C 22.109375 37.453125 21.554688 37.210938 21.578125 37.1875 C 21.605469 37.164062 21.835938 37.167969 22.09375 37.195312 C 22.355469 37.226562 23.410156 37.328125 24.441406 37.425781 C 25.476562 37.527344 26.542969 37.632812 26.816406 37.664062 C 27.09375 37.695312 28.003906 37.785156 28.84375 37.867188 C 29.679688 37.945312 30.605469 38.039062 30.894531 38.070312 C 31.1875 38.101562 31.859375 38.171875 32.390625 38.222656 C 32.925781 38.269531 33.597656 38.335938 33.886719 38.367188 C 34.179688 38.394531 34.878906 38.464844 35.441406 38.515625 C 36.007812 38.570312 36.910156 38.65625 37.449219 38.710938 C 37.988281 38.765625 38.480469 38.792969 38.542969 38.769531 C 38.640625 38.734375 40.460938 36.257812 43.761719 31.683594 C 44.300781 30.933594 44.515625 30.679688 44.609375 30.679688 C 44.71875 30.679688 48.824219 31.917969 50.050781 32.320312 C 50.324219 32.414062 50.789062 32.558594 51.078125 32.644531 C 51.367188 32.734375 51.816406 32.871094 52.074219 32.949219 C 52.332031 33.03125 52.609375 33.117188 52.691406 33.140625 C 52.773438 33.164062 52.839844 33.214844 52.839844 33.25 C 52.839844 33.285156 52.019531 33.796875 51.019531 34.378906 C 49.011719 35.554688 42.628906 39.273438 39.019531 41.375 C 37.746094 42.117188 36.652344 42.757812 36.589844 42.804688 C 36.523438 42.847656 36.464844 42.882812 36.457031 42.882812 C 36.449219 42.882812 35.707031 42.605469 34.8125 42.261719 Z M 9.175781 39.328125 C 8.996094 39.214844 8.957031 38.871094 9.003906 37.726562 C 9.046875 36.675781 9.144531 35.882812 9.332031 35.023438 C 9.457031 34.445312 9.75 33.730469 9.863281 33.730469 C 9.898438 33.730469 10.003906 33.769531 10.097656 33.820312 L 10.265625 33.90625 L 10.066406 34.339844 C 9.785156 34.949219 9.578125 35.703125 9.46875 36.515625 C 9.375 37.207031 9.394531 37.921875 9.550781 39.210938 C 9.585938 39.488281 9.582031 39.492188 9.445312 39.453125 C 9.367188 39.429688 9.246094 39.375 9.175781 39.328125 Z M 7.882812 38.855469 C 7.664062 38.769531 7.445312 38.664062 7.390625 38.617188 C 7.238281 38.488281 7.003906 37.90625 6.890625 37.371094 C 6.761719 36.769531 6.742188 34.746094 6.859375 34.171875 C 6.929688 33.8125 7.191406 33.230469 7.390625 32.972656 L 7.503906 32.832031 L 8.347656 33.152344 C 8.929688 33.375 9.183594 33.496094 9.179688 33.558594 C 9.171875 33.605469 9.101562 33.804688 9.019531 33.996094 C 8.6875 34.789062 8.460938 36.234375 8.414062 37.824219 C 8.394531 38.476562 8.355469 39.011719 8.328125 39.011719 C 8.300781 39.011719 8.101562 38.941406 7.882812 38.855469 Z M 36.207031 37.984375 C 35.382812 37.902344 34.339844 37.800781 33.886719 37.753906 C 32.710938 37.628906 31.511719 37.507812 30.398438 37.402344 C 29.863281 37.351562 29.191406 37.28125 28.902344 37.25 C 28.609375 37.21875 27.554688 37.113281 26.554688 37.015625 C 25.554688 36.921875 24.496094 36.816406 24.207031 36.785156 C 23.582031 36.71875 22.796875 36.640625 21.507812 36.515625 C 20.992188 36.46875 20.332031 36.402344 20.042969 36.371094 C 19.75 36.335938 18.695312 36.234375 17.695312 36.136719 C 16.695312 36.042969 15.757812 35.949219 15.613281 35.933594 C 15.3125 35.898438 13.4375 35.710938 12.28125 35.601562 C 11.800781 35.554688 11.503906 35.503906 11.503906 35.464844 C 11.503906 35.390625 11.953125 34.949219 12.113281 34.863281 C 12.179688 34.828125 12.324219 34.824219 12.480469 34.855469 C 12.621094 34.878906 13.285156 34.957031 13.957031 35.019531 C 15.648438 35.183594 16.320312 35.253906 16.933594 35.320312 C 17.222656 35.351562 18.277344 35.453125 19.28125 35.550781 C 20.28125 35.644531 21.335938 35.75 21.625 35.78125 C 21.917969 35.816406 22.589844 35.882812 23.121094 35.933594 C 23.65625 35.984375 24.472656 36.066406 24.941406 36.113281 C 25.859375 36.207031 26.777344 36.296875 28.753906 36.488281 C 30.28125 36.632812 35.609375 37.160156 37.015625 37.304688 C 37.964844 37.402344 38.042969 37.402344 38.25 37.308594 C 38.417969 37.234375 38.679688 36.9375 39.402344 36.015625 C 43.796875 30.382812 44.769531 29.144531 44.875 29.039062 C 45.003906 28.910156 44.449219 29.710938 43.507812 31.007812 C 41.003906 34.464844 38.460938 37.945312 38.351562 38.0625 C 38.25 38.179688 38.191406 38.191406 37.964844 38.164062 C 37.820312 38.144531 37.027344 38.066406 36.207031 37.984375 Z M 36.035156 36.605469 C 34.984375 36.5 33.363281 36.335938 26.699219 35.671875 C 25.425781 35.542969 23.855469 35.382812 23.210938 35.320312 C 22.566406 35.253906 20.691406 35.066406 19.042969 34.902344 C 15.808594 34.585938 13.988281 34.402344 13.21875 34.324219 C 12.953125 34.296875 12.714844 34.253906 12.691406 34.234375 C 12.667969 34.210938 12.648438 33.59375 12.644531 32.863281 C 12.640625 32.128906 12.605469 31.332031 12.566406 31.089844 C 12.527344 30.851562 12.480469 30.378906 12.460938 30.042969 L 12.429688 29.429688 L 12.921875 29.46875 C 13.191406 29.488281 13.96875 29.558594 14.644531 29.625 C 15.320312 29.6875 16.5625 29.808594 17.402344 29.886719 C 18.242188 29.96875 19.480469 30.085938 20.160156 30.152344 C 22.320312 30.359375 23.792969 30.5 26.347656 30.738281 C 27.71875 30.867188 29.527344 31.039062 30.367188 31.121094 C 31.207031 31.203125 32.578125 31.332031 33.417969 31.414062 C 36.488281 31.699219 37.46875 31.796875 37.539062 31.824219 C 37.59375 31.84375 37.609375 32.40625 37.597656 34.285156 L 37.585938 36.722656 L 37.382812 36.722656 C 37.273438 36.722656 36.664062 36.671875 36.035156 36.605469 Z M 31.914062 35.84375 C 31.824219 35.820312 31.589844 35.78125 31.382812 35.757812 C 31.179688 35.738281 30.074219 35.601562 28.929688 35.460938 C 22.390625 34.648438 19.996094 34.390625 20.511719 34.550781 C 21.050781 34.71875 27.449219 35.539062 30.363281 35.8125 C 31.382812 35.910156 32.183594 35.925781 31.914062 35.84375 Z M 35.0625 34.089844 C 35.320312 34.023438 34.558594 33.976562 32.597656 33.933594 C 31.695312 33.917969 29.835938 33.863281 28.464844 33.816406 C 27.09375 33.773438 25.960938 33.746094 25.945312 33.761719 C 25.929688 33.777344 25.929688 33.800781 25.945312 33.816406 C 25.984375 33.855469 27.105469 33.953125 28.3125 34.027344 C 29.546875 34.105469 34.820312 34.152344 35.0625 34.089844 Z M 33.9375 32.640625 C 34.355469 32.597656 34.761719 32.539062 34.847656 32.507812 C 35.058594 32.429688 34.554688 32.429688 32.480469 32.5 C 30.664062 32.5625 30.105469 32.605469 30.105469 32.683594 C 30.105469 32.761719 33.085938 32.730469 33.9375 32.640625 Z M 21.214844 31.6875 C 21.328125 31.636719 21.324219 31.632812 21.1875 31.601562 C 21.105469 31.582031 20.710938 31.554688 20.304688 31.535156 C 19.902344 31.515625 18.953125 31.460938 18.195312 31.414062 C 15.957031 31.269531 15.515625 31.253906 15.613281 31.316406 C 15.722656 31.386719 16.867188 31.539062 17.84375 31.617188 C 18.925781 31.703125 21.082031 31.746094 21.214844 31.6875 Z M 38.199219 33.957031 L 38.199219 31.550781 L 39.480469 29.988281 C 40.183594 29.125 41.234375 27.839844 41.8125 27.125 C 42.390625 26.414062 43.414062 25.152344 44.085938 24.324219 C 44.757812 23.496094 45.316406 22.820312 45.332031 22.820312 C 45.386719 22.820312 45.527344 23.183594 45.65625 23.671875 C 45.78125 24.136719 45.796875 24.324219 45.796875 25.3125 C 45.796875 26.957031 45.914062 26.722656 43.859375 29.304688 C 43.472656 29.789062 42.0625 31.589844 40.726562 33.304688 C 39.386719 35.019531 38.273438 36.410156 38.246094 36.394531 C 38.222656 36.378906 38.199219 35.28125 38.199219 33.957031 Z M 39.742188 32.144531 C 40.285156 31.585938 40.757812 30.914062 40.613281 30.914062 C 40.554688 30.914062 39.65625 31.910156 39.28125 32.398438 C 38.882812 32.910156 39.136719 32.769531 39.742188 32.144531 Z M 44.027344 28.613281 C 44.808594 27.742188 45.472656 26.808594 45.308594 26.808594 C 45.207031 26.808594 43.539062 28.871094 43.539062 28.992188 C 43.539062 29.113281 43.679688 29 44.027344 28.613281 Z M 44.4375 26.183594 C 44.910156 25.710938 45.34375 25.132812 45.277344 25.066406 C 45.226562 25.015625 44.855469 25.375 44.367188 25.957031 C 43.796875 26.640625 43.800781 26.632812 43.902344 26.632812 C 43.949219 26.632812 44.1875 26.429688 44.4375 26.183594 Z M 11.664062 33.898438 C 11.527344 33.832031 11.351562 33.730469 11.269531 33.671875 C 11.191406 33.617188 10.515625 33.339844 9.773438 33.058594 C 9.03125 32.777344 8.402344 32.523438 8.371094 32.496094 C 8.304688 32.433594 8.304688 32.433594 10.296875 31.757812 C 11.195312 31.453125 11.945312 31.21875 11.96875 31.242188 C 12.039062 31.308594 12.046875 34.023438 11.976562 34.023438 C 11.941406 34.023438 11.800781 33.96875 11.664062 33.898438 Z M 36.34375 31.09375 C 35.703125 31.03125 34.1875 30.882812 32.976562 30.769531 C 31.769531 30.652344 30.09375 30.492188 29.253906 30.414062 C 28.414062 30.332031 27.226562 30.214844 26.613281 30.152344 C 26 30.089844 24.929688 29.984375 24.238281 29.921875 C 23.542969 29.855469 22.289062 29.734375 21.449219 29.652344 C 20.609375 29.574219 19.371094 29.453125 18.691406 29.390625 C 18.015625 29.324219 16.90625 29.21875 16.230469 29.152344 C 15.550781 29.089844 14.308594 28.96875 13.472656 28.890625 C 10.644531 28.625 10.757812 28.640625 10.921875 28.488281 C 10.96875 28.441406 12.117188 27.488281 13.472656 26.367188 C 14.828125 25.246094 16.105469 24.179688 16.316406 23.996094 C 16.644531 23.710938 20.636719 20.398438 20.898438 20.195312 C 20.96875 20.140625 21.238281 20.148438 22.1875 20.242188 C 22.847656 20.304688 24.074219 20.421875 24.910156 20.5 C 25.75 20.582031 26.992188 20.699219 27.667969 20.765625 C 28.347656 20.828125 29.457031 20.9375 30.132812 21 C 30.8125 21.066406 31.917969 21.171875 32.597656 21.238281 C 34.261719 21.398438 36.609375 21.621094 38.140625 21.761719 C 38.835938 21.828125 39.945312 21.929688 40.605469 21.996094 C 41.265625 22.058594 42.414062 22.164062 43.15625 22.234375 C 44.667969 22.371094 44.769531 22.386719 44.769531 22.472656 C 44.769531 22.503906 44.269531 23.144531 43.660156 23.894531 C 37.503906 31.4375 37.695312 31.210938 37.589844 31.210938 C 37.546875 31.210938 36.988281 31.15625 36.34375 31.09375 Z M 36.34375 31.09375 " fill-opacity="1" fill-rule="nonzero"/></g></svg>