<svg xmlns="http://www.w3.org/2000/svg" xmlns:xlink="http://www.w3.org/1999/xlink" width="50" zoomAndPan="magnify" viewBox="0 0 50.879997 37.5" height="50" preserveAspectRatio="xMidYMid meet" version="1.0"><defs><clipPath id="eda0841162"><path d="M 11.066406 4.128906 L 39.929688 4.128906 L 39.929688 32.992188 L 11.066406 32.992188 Z M 11.066406 4.128906 " clip-rule="nonzero"/></clipPath><clipPath id="7cea447a47"><path d="M 19 4.128906 L 33 4.128906 L 33 12 L 19 12 Z M 19 4.128906 " clip-rule="nonzero"/></clipPath></defs><g clip-path="url(#eda0841162)"><path fill="#a4c639" d="M 15.394531 4.128906 L 35.601562 4.128906 C 35.882812 4.128906 36.167969 4.15625 36.445312 4.210938 C 36.722656 4.265625 36.996094 4.347656 37.257812 4.457031 C 37.519531 4.566406 37.769531 4.699219 38.003906 4.859375 C 38.242188 5.015625 38.460938 5.195312 38.660156 5.394531 C 38.863281 5.597656 39.042969 5.816406 39.199219 6.050781 C 39.359375 6.289062 39.492188 6.539062 39.601562 6.800781 C 39.710938 7.0625 39.792969 7.335938 39.847656 7.613281 C 39.902344 7.890625 39.929688 8.171875 39.929688 8.457031 L 39.929688 28.664062 C 39.929688 28.949219 39.902344 29.230469 39.847656 29.507812 C 39.792969 29.785156 39.710938 30.058594 39.601562 30.320312 C 39.492188 30.582031 39.359375 30.832031 39.199219 31.070312 C 39.042969 31.304688 38.863281 31.523438 38.660156 31.726562 C 38.460938 31.925781 38.242188 32.105469 38.003906 32.261719 C 37.769531 32.421875 37.519531 32.554688 37.257812 32.664062 C 36.996094 32.773438 36.722656 32.855469 36.445312 32.910156 C 36.167969 32.964844 35.882812 32.992188 35.601562 32.992188 L 15.394531 32.992188 C 15.109375 32.992188 14.828125 32.964844 14.550781 32.910156 C 14.269531 32.855469 14 32.773438 13.738281 32.664062 C 13.476562 32.554688 13.226562 32.421875 12.988281 32.261719 C 12.753906 32.105469 12.535156 31.925781 12.332031 31.726562 C 12.132812 31.523438 11.953125 31.304688 11.792969 31.070312 C 11.636719 30.832031 11.503906 30.582031 11.394531 30.320312 C 11.285156 30.058594 11.203125 29.785156 11.148438 29.507812 C 11.09375 29.230469 11.066406 28.949219 11.066406 28.664062 L 11.066406 8.457031 C 11.066406 8.171875 11.09375 7.890625 11.148438 7.613281 C 11.203125 7.335938 11.285156 7.0625 11.394531 6.800781 C 11.503906 6.539062 11.636719 6.289062 11.792969 6.050781 C 11.953125 5.816406 12.132812 5.597656 12.332031 5.394531 C 12.535156 5.195312 12.753906 5.015625 12.988281 4.859375 C 13.226562 4.699219 13.476562 4.566406 13.738281 4.457031 C 14 4.347656 14.269531 4.265625 14.550781 4.210938 C 14.828125 4.15625 15.109375 4.128906 15.394531 4.128906 Z M 15.394531 4.128906 " fill-opacity="1" fill-rule="nonzero"/></g><path stroke-linecap="round" transform="matrix(0.0563772, 0, 0, 0.0563772, 11.064799, 4.12809)" fill-opacity="1" fill="#000000" fill-rule="nonzero" stroke-linejoin="miter" d="M 107.008803 211.965703 L 107.008803 317.975963 M 405.985452 211.965703 L 405.985452 317.975963 M 299.005163 384.007191 L 299.005163 439.991695 M 213.989092 384.007191 L 213.989092 439.991695 " stroke="#ffffff" stroke-width="58" stroke-opacity="1" stroke-miterlimit="4"/><path fill="#000000" d="M 22.507812 9.089844 L 21.550781 7.285156 M 28.484375 9.089844 L 29.5 7.285156 " fill-opacity="1" fill-rule="nonzero"/><g clip-path="url(#7cea447a47)"><path stroke-linecap="round" transform="matrix(0.0563772, 0, 0, 0.0563772, 11.064799, 4.12809)" fill="none" stroke-linejoin="miter" d="M 202.972339 88.009915 L 185.99684 55.998973 M 308.9826 88.009915 L 326.997415 55.998973 " stroke="#ffffff" stroke-width="8" stroke-opacity="1" stroke-miterlimit="4"/></g><path fill="#ffffff" d="M 25.554688 8.414062 C 21.269531 8.414062 19.070312 11.796875 19.070312 14.332031 L 31.980469 14.332031 C 31.980469 11.683594 29.613281 8.46875 25.554688 8.414062 Z M 19.070312 14.894531 L 19.070312 24.140625 C 19.070312 25.042969 19.804688 25.777344 20.648438 25.777344 L 30.347656 25.777344 C 31.246094 25.777344 31.980469 25.042969 31.980469 24.140625 L 31.980469 14.894531 Z M 19.070312 14.894531 " fill-opacity="1" fill-rule="nonzero"/><path fill="#a4c639" d="M 23.074219 11.457031 C 23.074219 11.597656 23.023438 11.71875 22.925781 11.816406 C 22.824219 11.914062 22.707031 11.964844 22.566406 11.964844 C 22.425781 11.964844 22.304688 11.914062 22.207031 11.816406 C 22.109375 11.71875 22.058594 11.597656 22.058594 11.457031 C 22.058594 11.316406 22.109375 11.199219 22.207031 11.097656 C 22.304688 11 22.425781 10.949219 22.566406 10.949219 C 22.707031 10.949219 22.824219 11 22.925781 11.097656 C 23.023438 11.199219 23.074219 11.316406 23.074219 11.457031 Z M 23.074219 11.457031 " fill-opacity="1" fill-rule="nonzero"/><path fill="#a4c639" d="M 28.992188 11.457031 C 28.992188 11.597656 28.941406 11.71875 28.84375 11.816406 C 28.746094 11.914062 28.625 11.964844 28.484375 11.964844 C 28.34375 11.964844 28.226562 11.914062 28.125 11.816406 C 28.027344 11.71875 27.976562 11.597656 27.976562 11.457031 C 27.976562 11.316406 28.027344 11.199219 28.125 11.097656 C 28.226562 11 28.34375 10.949219 28.484375 10.949219 C 28.625 10.949219 28.746094 11 28.84375 11.097656 C 28.941406 11.199219 28.992188 11.316406 28.992188 11.457031 Z M 28.992188 11.457031 " fill-opacity="1" fill-rule="nonzero"/></svg>