<svg xmlns="http://www.w3.org/2000/svg" xmlns:xlink="http://www.w3.org/1999/xlink" width="94" zoomAndPan="magnify" viewBox="0 0 70.5 70.499999" height="94" preserveAspectRatio="xMidYMid meet" version="1.0"><defs><g/><clipPath id="417f2c3347"><path d="M 16 10 L 56 10 L 56 50.195312 L 16 50.195312 Z M 16 10 " clip-rule="nonzero"/></clipPath></defs><g clip-path="url(#417f2c3347)"><path fill="#ffffff" d="M 49.957031 16.335938 C 48.941406 15.320312 47.828125 14.425781 46.617188 13.652344 C 45.40625 12.878906 44.128906 12.242188 42.78125 11.746094 C 41.433594 11.25 40.046875 10.90625 38.625 10.710938 C 37.203125 10.515625 35.773438 10.472656 34.34375 10.585938 C 31.796875 10.785156 29.378906 11.460938 27.097656 12.613281 C 26.90625 12.707031 26.78125 12.855469 26.714844 13.054688 C 26.648438 13.257812 26.664062 13.453125 26.757812 13.640625 C 26.851562 13.832031 27 13.957031 27.199219 14.023438 C 27.402344 14.089844 27.597656 14.078125 27.785156 13.984375 C 29.890625 12.921875 32.113281 12.300781 34.464844 12.117188 C 35.175781 12.058594 35.886719 12.042969 36.601562 12.070312 C 37.316406 12.09375 38.023438 12.164062 38.730469 12.273438 C 39.4375 12.382812 40.132812 12.53125 40.820312 12.722656 C 41.511719 12.914062 42.183594 13.140625 42.847656 13.410156 C 43.507812 13.679688 44.152344 13.988281 44.777344 14.332031 C 45.402344 14.679688 46.003906 15.058594 46.585938 15.472656 C 47.167969 15.890625 47.722656 16.335938 48.25 16.816406 C 48.777344 17.296875 49.277344 17.808594 49.746094 18.347656 C 50.214844 18.886719 50.652344 19.449219 51.054688 20.039062 C 51.457031 20.628906 51.824219 21.242188 52.15625 21.871094 C 52.484375 22.503906 52.777344 23.15625 53.035156 23.824219 C 53.289062 24.488281 53.503906 25.167969 53.679688 25.863281 C 53.855469 26.554688 53.992188 27.253906 54.085938 27.960938 C 54.179688 28.667969 54.230469 29.382812 54.242188 30.09375 C 54.25 30.808594 54.21875 31.519531 54.148438 32.230469 C 54.074219 32.941406 53.960938 33.644531 53.804688 34.34375 C 53.648438 35.039062 53.453125 35.726562 53.21875 36.398438 C 52.984375 37.074219 52.710938 37.734375 52.398438 38.375 C 52.085938 39.015625 51.734375 39.640625 51.351562 40.242188 C 50.964844 40.839844 50.546875 41.417969 50.09375 41.972656 C 49.640625 42.523438 49.15625 43.046875 48.644531 43.542969 C 48.128906 44.039062 47.589844 44.503906 47.019531 44.933594 C 46.453125 45.367188 45.859375 45.765625 45.246094 46.128906 C 44.628906 46.492188 43.996094 46.816406 43.34375 47.105469 C 42.691406 47.394531 42.023438 47.644531 41.339844 47.855469 C 40.65625 48.066406 39.964844 48.238281 39.261719 48.367188 C 38.558594 48.496094 37.851562 48.585938 37.140625 48.632812 C 36.425781 48.679688 35.714844 48.683594 35 48.648438 C 34.289062 48.613281 33.578125 48.535156 32.875 48.414062 C 32.171875 48.296875 31.476562 48.136719 30.792969 47.933594 C 30.105469 47.734375 29.433594 47.492188 28.777344 47.214844 C 28.121094 46.933594 27.480469 46.617188 26.859375 46.265625 C 26.007812 45.78125 25.113281 45.699219 24.183594 46.015625 L 18.328125 47.964844 L 20.277344 42.109375 C 20.597656 41.183594 20.515625 40.292969 20.027344 39.441406 C 19.160156 37.917969 18.527344 36.304688 18.121094 34.601562 C 17.714844 32.898438 17.554688 31.171875 17.644531 29.421875 C 17.777344 26.785156 18.460938 24.304688 19.691406 21.96875 C 19.789062 21.78125 19.808594 21.585938 19.746094 21.386719 C 19.683594 21.183594 19.558594 21.03125 19.371094 20.933594 C 19.183594 20.835938 18.988281 20.816406 18.785156 20.878906 C 18.582031 20.941406 18.433594 21.066406 18.332031 21.253906 C 16.996094 23.789062 16.257812 26.484375 16.113281 29.34375 C 16.015625 31.242188 16.1875 33.113281 16.628906 34.960938 C 17.066406 36.808594 17.757812 38.554688 18.699219 40.207031 C 18.953125 40.660156 18.996094 41.132812 18.820312 41.621094 L 16.386719 48.9375 C 16.289062 49.234375 16.347656 49.496094 16.574219 49.722656 C 16.796875 49.945312 17.058594 50.007812 17.359375 49.90625 L 24.671875 47.46875 C 25.167969 47.300781 25.640625 47.339844 26.097656 47.597656 C 29.152344 49.339844 32.4375 50.210938 35.957031 50.207031 C 36.289062 50.207031 36.617188 50.199219 36.949219 50.179688 C 37.902344 50.132812 38.847656 50.015625 39.785156 49.828125 C 40.722656 49.644531 41.640625 49.390625 42.539062 49.074219 C 43.4375 48.757812 44.3125 48.375 45.15625 47.933594 C 46 47.488281 46.808594 46.984375 47.582031 46.425781 C 48.355469 45.863281 49.082031 45.25 49.765625 44.585938 C 50.449219 43.921875 51.082031 43.210938 51.664062 42.453125 C 52.246094 41.695312 52.769531 40.902344 53.238281 40.066406 C 53.703125 39.234375 54.109375 38.375 54.449219 37.484375 C 54.792969 36.59375 55.070312 35.679688 55.28125 34.75 C 55.492188 33.820312 55.632812 32.878906 55.710938 31.925781 C 55.785156 30.976562 55.789062 30.023438 55.726562 29.070312 C 55.664062 28.117188 55.535156 27.175781 55.335938 26.242188 C 55.140625 25.308594 54.875 24.394531 54.542969 23.5 C 54.214844 22.605469 53.820312 21.738281 53.363281 20.898438 C 52.910156 20.058594 52.394531 19.257812 51.824219 18.492188 C 51.253906 17.726562 50.628906 17.007812 49.957031 16.335938 Z M 49.957031 16.335938 " fill-opacity="1" fill-rule="nonzero"/></g><path fill="#ffffff" d="M 28.578125 27.203125 L 33.300781 28.46875 C 33.585938 28.546875 33.832031 28.480469 34.042969 28.269531 C 34.25 28.0625 34.316406 27.816406 34.242188 27.53125 L 32.972656 22.804688 C 32.863281 22.394531 32.65625 22.035156 32.351562 21.734375 L 18.550781 7.933594 C 18.328125 7.707031 18.066406 7.535156 17.773438 7.414062 C 17.480469 7.292969 17.175781 7.230469 16.859375 7.230469 C 16.539062 7.230469 16.234375 7.292969 15.941406 7.414062 C 15.648438 7.535156 15.386719 7.707031 15.164062 7.933594 L 13.703125 9.390625 C 13.480469 9.617188 13.304688 9.875 13.183594 10.167969 C 13.0625 10.464844 13.003906 10.769531 13.003906 11.085938 C 13.003906 11.402344 13.0625 11.710938 13.183594 12.003906 C 13.304688 12.296875 13.480469 12.554688 13.703125 12.78125 L 27.503906 26.582031 C 27.808594 26.882812 28.164062 27.089844 28.578125 27.203125 Z M 31.042969 22.59375 C 31.019531 22.609375 31 22.625 30.976562 22.640625 L 28.410156 25.207031 C 28.394531 25.226562 28.378906 25.25 28.367188 25.273438 L 17.515625 14.421875 L 20.191406 11.742188 Z M 32.414062 26.640625 L 29.835938 25.949219 L 31.722656 24.066406 Z M 14.789062 10.476562 L 16.25 9.019531 C 16.417969 8.851562 16.621094 8.765625 16.859375 8.765625 C 17.09375 8.765625 17.296875 8.851562 17.464844 9.019531 L 19.109375 10.660156 L 16.429688 13.335938 L 14.789062 11.695312 C 14.621094 11.527344 14.535156 11.324219 14.535156 11.085938 C 14.539062 10.847656 14.621094 10.644531 14.789062 10.476562 Z M 14.789062 10.476562 " fill-opacity="1" fill-rule="nonzero"/><path fill="#ffffff" d="M 48.519531 32.085938 L 27.5625 32.085938 C 27.351562 32.085938 27.171875 32.160156 27.019531 32.3125 C 26.871094 32.460938 26.796875 32.640625 26.796875 32.855469 C 26.796875 33.066406 26.871094 33.246094 27.019531 33.394531 C 27.171875 33.546875 27.351562 33.621094 27.5625 33.621094 L 48.519531 33.621094 C 48.730469 33.621094 48.910156 33.546875 49.0625 33.394531 C 49.210938 33.246094 49.285156 33.066406 49.285156 32.855469 C 49.285156 32.640625 49.210938 32.460938 49.0625 32.3125 C 48.910156 32.160156 48.730469 32.085938 48.519531 32.085938 Z M 48.519531 32.085938 " fill-opacity="1" fill-rule="nonzero"/><path fill="#ffffff" d="M 48.519531 37.210938 L 33.5 37.210938 C 33.289062 37.210938 33.105469 37.285156 32.957031 37.4375 C 32.808594 37.585938 32.730469 37.769531 32.730469 37.980469 C 32.730469 38.191406 32.808594 38.371094 32.957031 38.523438 C 33.105469 38.671875 33.289062 38.746094 33.5 38.746094 L 48.519531 38.746094 C 48.730469 38.746094 48.910156 38.671875 49.0625 38.523438 C 49.210938 38.371094 49.285156 38.191406 49.285156 37.980469 C 49.285156 37.769531 49.210938 37.585938 49.0625 37.4375 C 48.910156 37.285156 48.730469 37.210938 48.519531 37.210938 Z M 48.519531 37.210938 " fill-opacity="1" fill-rule="nonzero"/><path fill="#ffffff" d="M 28.140625 37.980469 C 28.140625 38.203125 28.21875 38.394531 28.378906 38.554688 C 28.539062 38.714844 28.730469 38.792969 28.953125 38.792969 C 29.179688 38.792969 29.371094 38.714844 29.53125 38.554688 C 29.6875 38.394531 29.769531 38.203125 29.769531 37.980469 C 29.769531 37.753906 29.6875 37.5625 29.53125 37.402344 C 29.371094 37.246094 29.179688 37.164062 28.953125 37.164062 C 28.730469 37.164062 28.539062 37.246094 28.378906 37.402344 C 28.21875 37.5625 28.140625 37.753906 28.140625 37.980469 Z M 28.140625 37.980469 " fill-opacity="1" fill-rule="nonzero"/><g fill="#ffffff" fill-opacity="1"><g transform="translate(17.190782, 63.369349)"><g><path d="M 6.097656 -5.109375 C 6.800781 -5.472656 7.5625 -6.164062 7.5625 -7.007812 C 7.5625 -8.253906 6.589844 -8.707031 5.453125 -8.707031 C 4.070312 -8.707031 2.644531 -8.390625 1.417969 -7.785156 L 1.96875 -6.824219 C 1.394531 -5.007812 -0.566406 -0.34375 -0.625 -0.191406 C -0.726562 0 -0.769531 0.15625 -0.769531 0.28125 C -0.769531 0.671875 -0.34375 0.78125 0.253906 0.78125 C 0.691406 0.78125 1.21875 0.722656 1.742188 0.671875 C 3.109375 0.539062 8.125 -0.617188 8.269531 -3.328125 L 8.269531 -3.429688 C 8.269531 -4.515625 7.328125 -4.992188 6.097656 -5.109375 Z M 5.628906 -4.035156 C 6.058594 -4.035156 6.410156 -3.808594 6.410156 -3.316406 C 6.410156 -1.472656 2.78125 -0.566406 1.382812 -0.382812 L 2.3125 -3.09375 C 3.320312 -3.449219 4.636719 -3.878906 5.394531 -4.019531 C 5.472656 -4.03125 5.550781 -4.035156 5.628906 -4.035156 Z M 5.632812 -6.714844 C 5.632812 -5.777344 3.507812 -5.140625 2.78125 -4.953125 L 3.203125 -6.371094 C 3.472656 -6.4375 4.683594 -6.929688 5.292969 -6.929688 C 5.5 -6.929688 5.632812 -6.871094 5.632812 -6.714844 Z M 5.632812 -6.714844 "/></g></g></g><g fill="#ffffff" fill-opacity="1"><g transform="translate(25.740997, 63.369349)"><g><path d="M 2.167969 0.15625 C 3.152344 0.15625 5.273438 -2.4375 5.273438 -3.265625 C 5.273438 -3.441406 5.183594 -3.589844 5.019531 -3.589844 C 4.949219 -3.589844 4.847656 -3.574219 4.757812 -3.488281 C 3.878906 -2.695312 2.660156 -1.371094 1.980469 -1.371094 C 1.640625 -1.371094 1.519531 -2.214844 1.519531 -2.335938 C 3.308594 -3.488281 6.246094 -6.695312 6.28125 -9.226562 C 6.28125 -9.386719 5.519531 -10.90625 4.882812 -10.90625 C 3.863281 -10.90625 2.871094 -9.554688 2.445312 -8.757812 C 1.261719 -6.558594 -0.253906 -4.035156 -0.253906 -1.398438 C -0.253906 -1.039062 1.554688 0.15625 2.167969 0.15625 Z M 2.066406 -4.148438 C 2.023438 -4.148438 2.019531 -4.167969 2.011719 -4.214844 C 3.183594 -6.558594 4.097656 -8.191406 5.207031 -9.515625 C 5.25 -9.566406 5.339844 -9.574219 5.417969 -9.605469 C 5.363281 -8.863281 4.835938 -7.933594 4.480469 -7.148438 C 4.066406 -6.226562 2.96875 -4.703125 2.066406 -4.148438 Z M 2.066406 -4.148438 "/></g></g></g><g fill="#ffffff" fill-opacity="1"><g transform="translate(30.35835, 63.369349)"><g><path d="M 4.382812 -3.265625 C 4.433594 -3.382812 4.460938 -3.632812 4.460938 -3.773438 C 4.460938 -4.457031 3.683594 -5.539062 2.871094 -5.539062 C 2.113281 -5.539062 1.085938 -4.882812 0.679688 -4.347656 C 0.179688 -3.753906 -0.421875 -2.792969 -0.421875 -1.980469 C -0.421875 -1.832031 -0.382812 -1.441406 -0.332031 -1.203125 C 0.0078125 -0.90625 1.214844 0.203125 1.773438 0.203125 C 1.820312 0.203125 1.867188 0.199219 1.910156 0.175781 C 2.894531 -0.371094 3.65625 -0.972656 4.113281 -2.078125 C 4.257812 -1.988281 4.425781 -1.945312 4.605469 -1.945312 C 5.1875 -1.945312 5.867188 -2.371094 6.113281 -2.984375 L 5.484375 -3.621094 C 5.164062 -3.230469 4.902344 -3.207031 4.65625 -3.207031 C 4.433594 -3.207031 4.449219 -3.226562 4.382812 -3.265625 Z M 1.339844 -1.695312 C 1.339844 -2.34375 1.8125 -3.160156 2.410156 -3.785156 C 2.480469 -3.855469 2.578125 -3.910156 2.671875 -3.910156 C 2.726562 -3.910156 2.785156 -3.890625 2.839844 -3.855469 C 2.851562 -3.578125 2.804688 -3.332031 3.0625 -3.117188 C 2.917969 -2.835938 2.761719 -2.589844 2.558594 -2.34375 C 2.3125 -2.054688 1.765625 -1.542969 1.5 -1.542969 C 1.410156 -1.542969 1.339844 -1.605469 1.339844 -1.695312 Z M 1.339844 -1.695312 "/></g></g></g><g fill="#ffffff" fill-opacity="1"><g transform="translate(35.570139, 63.369349)"><g><path d="M 6.761719 -3.507812 L 4.472656 -1.777344 C 4.617188 -2.03125 4.839844 -2.535156 4.839844 -3.125 C 4.839844 -3.84375 4.132812 -5.097656 3.25 -5.097656 C 3.09375 -5.097656 2.984375 -5.117188 2.902344 -5.117188 C 2.757812 -5.117188 2.671875 -5.070312 2.539062 -4.835938 C 2.371094 -4.894531 2.347656 -5.070312 2.007812 -5.070312 C 0.445312 -5.070312 -0.265625 -3.226562 -0.265625 -1.910156 C -0.265625 -1.039062 0.746094 -0.355469 1.632812 -0.355469 C 1.890625 -0.355469 2.175781 -0.410156 2.492188 -0.535156 C 1.65625 0.0703125 -2.5 1.441406 -2.5 3.398438 C -2.5 4.242188 -1.40625 4.726562 -0.332031 4.726562 C 0.332031 4.726562 0.9375 4.4375 1.328125 4.042969 C 2.734375 2.605469 3.332031 0.859375 3.851562 0.046875 C 4.164062 -0.148438 5.65625 -0.890625 6.613281 -1.941406 C 6.75 -2.097656 6.992188 -2.503906 6.992188 -2.90625 C 6.992188 -3.019531 6.972656 -3.136719 6.925781 -3.242188 Z M 1.519531 -1.667969 C 1.519531 -2.320312 1.722656 -2.984375 2.132812 -3.429688 C 2.175781 -3.472656 2.578125 -3.914062 2.703125 -3.914062 C 3.050781 -3.914062 3.519531 -3.628906 3.519531 -2.902344 C 3.519531 -2.234375 2.347656 -1.25 1.753906 -1.25 C 1.574219 -1.25 1.519531 -1.433594 1.519531 -1.667969 Z M -0.625 3.554688 C -0.625 2.863281 1.753906 1.316406 2.265625 0.941406 C 1.675781 1.933594 1.203125 2.839844 0.382812 3.519531 C 0.203125 3.667969 -0.0664062 3.742188 -0.28125 3.742188 C -0.472656 3.742188 -0.625 3.683594 -0.625 3.554688 Z M -0.625 3.554688 "/></g></g></g><g fill="#ffffff" fill-opacity="1"><g transform="translate(42.144923, 63.369349)"><g><path d="M 0.972656 -1.675781 C 0.414062 -1.675781 0.242188 -1.1875 0.242188 -0.707031 C 0.242188 -0.234375 0.851562 0.210938 1.203125 0.210938 C 1.554688 0.210938 2.03125 -0.0351562 2.03125 -0.539062 C 2.03125 -1.140625 1.632812 -1.675781 0.972656 -1.675781 Z M 0.972656 -1.675781 "/></g></g></g><g fill="#ffffff" fill-opacity="1"><g transform="translate(45.693505, 63.369349)"><g><path d="M 0.972656 -1.675781 C 0.414062 -1.675781 0.242188 -1.1875 0.242188 -0.707031 C 0.242188 -0.234375 0.851562 0.210938 1.203125 0.210938 C 1.554688 0.210938 2.03125 -0.0351562 2.03125 -0.539062 C 2.03125 -1.140625 1.632812 -1.675781 0.972656 -1.675781 Z M 0.972656 -1.675781 "/></g></g></g><g fill="#ffffff" fill-opacity="1"><g transform="translate(49.242087, 63.369349)"><g><path d="M 0.972656 -1.675781 C 0.414062 -1.675781 0.242188 -1.1875 0.242188 -0.707031 C 0.242188 -0.234375 0.851562 0.210938 1.203125 0.210938 C 1.554688 0.210938 2.03125 -0.0351562 2.03125 -0.539062 C 2.03125 -1.140625 1.632812 -1.675781 0.972656 -1.675781 Z M 0.972656 -1.675781 "/></g></g></g></svg>