<svg xmlns="http://www.w3.org/2000/svg" xmlns:xlink="http://www.w3.org/1999/xlink" width="94" zoomAndPan="magnify" viewBox="0 0 70.5 70.499999" height="94" preserveAspectRatio="xMidYMid meet" version="1.0"><defs><clipPath id="3612c4c669"><path d="M 7.433594 7.433594 L 62.542969 7.433594 L 62.542969 62.542969 L 7.433594 62.542969 Z M 7.433594 7.433594 " clip-rule="nonzero"/></clipPath></defs><path fill="#ffffff" d="M 42.503906 50.050781 L 20.492188 50.050781 C 19.542969 50.050781 18.769531 49.277344 18.769531 48.328125 L 18.769531 21.777344 C 18.769531 20.828125 19.542969 20.054688 20.492188 20.054688 L 42.503906 20.054688 C 43.453125 20.054688 44.226562 20.828125 44.226562 21.777344 L 44.226562 48.328125 C 44.226562 49.277344 43.453125 50.050781 42.503906 50.050781 Z M 20.492188 20.789062 C 19.949219 20.789062 19.507812 21.234375 19.507812 21.777344 L 19.507812 48.328125 C 19.507812 48.871094 19.949219 49.3125 20.492188 49.3125 L 42.503906 49.3125 C 43.046875 49.3125 43.492188 48.871094 43.492188 48.328125 L 43.492188 21.777344 C 43.492188 21.234375 43.050781 20.789062 42.503906 20.789062 Z M 20.492188 20.789062 " fill-opacity="1" fill-rule="nonzero"/><path fill="#ffffff" d="M 43.859375 25.667969 L 19.140625 25.667969 C 18.9375 25.667969 18.769531 25.503906 18.769531 25.300781 C 18.769531 25.097656 18.933594 24.929688 19.140625 24.929688 L 43.859375 24.929688 C 44.0625 24.929688 44.226562 25.09375 44.226562 25.300781 C 44.226562 25.5 44.0625 25.667969 43.859375 25.667969 Z M 43.859375 25.667969 " fill-opacity="1" fill-rule="nonzero"/><path fill="#ffffff" d="M 21.949219 24.328125 C 21.140625 24.328125 20.480469 23.671875 20.480469 22.859375 C 20.480469 22.050781 21.140625 21.394531 21.949219 21.394531 C 22.757812 21.394531 23.417969 22.050781 23.417969 22.859375 C 23.417969 23.671875 22.761719 24.328125 21.949219 24.328125 Z M 21.949219 22.128906 C 21.546875 22.128906 21.21875 22.457031 21.21875 22.859375 C 21.21875 23.265625 21.546875 23.59375 21.949219 23.59375 C 22.355469 23.59375 22.683594 23.265625 22.683594 22.859375 C 22.683594 22.457031 22.355469 22.128906 21.949219 22.128906 Z M 21.949219 22.128906 " fill-opacity="1" fill-rule="nonzero"/><path fill="#ffffff" d="M 25.980469 24.328125 C 25.171875 24.328125 24.511719 23.671875 24.511719 22.859375 C 24.511719 22.050781 25.171875 21.394531 25.980469 21.394531 C 26.789062 21.394531 27.449219 22.050781 27.449219 22.859375 C 27.449219 23.671875 26.789062 24.328125 25.980469 24.328125 Z M 25.980469 22.128906 C 25.574219 22.128906 25.246094 22.457031 25.246094 22.859375 C 25.246094 23.265625 25.574219 23.59375 25.980469 23.59375 C 26.382812 23.59375 26.710938 23.265625 26.710938 22.859375 C 26.710938 22.457031 26.382812 22.128906 25.980469 22.128906 Z M 25.980469 22.128906 " fill-opacity="1" fill-rule="nonzero"/><path fill="#ffffff" d="M 30.007812 24.328125 C 29.199219 24.328125 28.539062 23.671875 28.539062 22.859375 C 28.539062 22.050781 29.199219 21.394531 30.007812 21.394531 C 30.816406 21.394531 31.476562 22.050781 31.476562 22.859375 C 31.476562 23.671875 30.820312 24.328125 30.007812 24.328125 Z M 30.007812 22.128906 C 29.605469 22.128906 29.277344 22.457031 29.277344 22.859375 C 29.277344 23.265625 29.605469 23.59375 30.007812 23.59375 C 30.414062 23.59375 30.742188 23.265625 30.742188 22.859375 C 30.742188 22.457031 30.414062 22.128906 30.007812 22.128906 Z M 30.007812 22.128906 " fill-opacity="1" fill-rule="nonzero"/><path fill="#ffffff" d="M 42.148438 23.230469 L 32.9375 23.230469 C 32.738281 23.230469 32.570312 23.066406 32.570312 22.859375 C 32.570312 22.660156 32.734375 22.492188 32.9375 22.492188 L 42.148438 22.492188 C 42.351562 22.492188 42.515625 22.65625 42.515625 22.859375 C 42.515625 23.066406 42.351562 23.230469 42.148438 23.230469 Z M 42.148438 23.230469 " fill-opacity="1" fill-rule="nonzero"/><path fill="#ffffff" d="M 23.4375 31.011719 C 23.234375 31.011719 23.070312 30.847656 23.070312 30.644531 C 23.070312 30.441406 23.234375 30.273438 23.4375 30.273438 C 23.820312 30.273438 24.140625 29.828125 24.140625 29.300781 C 24.140625 28.773438 23.820312 28.324219 23.4375 28.324219 L 21.945312 28.324219 L 21.945312 30.640625 C 21.945312 30.84375 21.78125 31.007812 21.578125 31.007812 C 21.375 31.007812 21.207031 30.84375 21.207031 30.640625 L 21.207031 27.957031 C 21.207031 27.753906 21.371094 27.589844 21.578125 27.589844 L 23.4375 27.589844 C 24.230469 27.589844 24.875 28.355469 24.875 29.300781 C 24.875 30.242188 24.230469 31.011719 23.4375 31.011719 Z M 23.4375 31.011719 " fill-opacity="1" fill-rule="nonzero"/><path fill="#ffffff" d="M 23.167969 33.695312 L 21.578125 33.695312 C 21.375 33.695312 21.210938 33.53125 21.210938 33.324219 L 21.210938 30.644531 C 21.210938 30.441406 21.375 30.277344 21.578125 30.277344 L 23.167969 30.277344 C 24.109375 30.277344 24.878906 31.042969 24.878906 31.984375 C 24.878906 32.929688 24.109375 33.695312 23.167969 33.695312 Z M 21.945312 32.960938 L 23.167969 32.960938 C 23.707031 32.960938 24.144531 32.523438 24.144531 31.984375 C 24.144531 31.445312 23.707031 31.011719 23.167969 31.011719 L 21.945312 31.011719 Z M 21.945312 32.960938 " fill-opacity="1" fill-rule="nonzero"/><path fill="#ffffff" d="M 29.625 33.695312 L 26.507812 33.695312 C 26.304688 33.695312 26.140625 33.53125 26.140625 33.324219 L 26.140625 27.960938 C 26.140625 27.757812 26.304688 27.59375 26.507812 27.59375 C 26.710938 27.59375 26.875 27.757812 26.875 27.960938 L 26.875 32.960938 L 29.628906 32.960938 C 29.832031 32.960938 29.996094 33.125 29.996094 33.328125 C 29.996094 33.53125 29.828125 33.695312 29.625 33.695312 Z M 29.625 33.695312 " fill-opacity="1" fill-rule="nonzero"/><path fill="#ffffff" d="M 33.59375 33.695312 C 32.304688 33.695312 31.257812 32.644531 31.257812 31.359375 L 31.257812 29.929688 C 31.257812 28.640625 32.304688 27.59375 33.59375 27.59375 C 34.878906 27.59375 35.929688 28.640625 35.929688 29.929688 L 35.929688 31.359375 C 35.929688 32.648438 34.878906 33.695312 33.59375 33.695312 Z M 33.59375 28.328125 C 32.710938 28.328125 31.992188 29.046875 31.992188 29.929688 L 31.992188 31.359375 C 31.992188 32.242188 32.710938 32.960938 33.59375 32.960938 C 34.476562 32.960938 35.195312 32.242188 35.195312 31.359375 L 35.195312 29.929688 C 35.195312 29.046875 34.476562 28.328125 33.59375 28.328125 Z M 33.59375 28.328125 " fill-opacity="1" fill-rule="nonzero"/><path fill="#ffffff" d="M 39.527344 33.695312 C 38.238281 33.695312 37.191406 32.644531 37.191406 31.359375 L 37.191406 29.929688 C 37.191406 28.640625 38.238281 27.59375 39.527344 27.59375 C 40.164062 27.59375 40.761719 27.847656 41.207031 28.3125 C 41.351562 28.457031 41.34375 28.691406 41.199219 28.832031 C 41.050781 28.972656 40.820312 28.96875 40.679688 28.820312 C 40.371094 28.503906 39.964844 28.328125 39.527344 28.328125 C 38.644531 28.328125 37.925781 29.046875 37.925781 29.929688 L 37.925781 31.359375 C 37.925781 32.242188 38.644531 32.960938 39.527344 32.960938 C 40.066406 32.960938 40.554688 32.6875 40.847656 32.257812 L 39.746094 32.257812 C 39.542969 32.257812 39.378906 32.09375 39.378906 31.890625 C 39.378906 31.6875 39.542969 31.523438 39.746094 31.523438 L 41.421875 31.523438 C 41.539062 31.523438 41.644531 31.578125 41.714844 31.667969 C 41.785156 31.761719 41.808594 31.878906 41.777344 31.988281 C 41.492188 32.992188 40.566406 33.695312 39.527344 33.695312 Z M 39.527344 33.695312 " fill-opacity="1" fill-rule="nonzero"/><path fill="#ffffff" d="M 41.050781 46.996094 L 21.949219 46.996094 C 21.746094 46.996094 21.582031 46.832031 21.582031 46.628906 C 21.582031 46.425781 21.746094 46.261719 21.949219 46.261719 L 41.050781 46.261719 C 41.25 46.261719 41.417969 46.425781 41.417969 46.628906 C 41.417969 46.832031 41.253906 46.996094 41.050781 46.996094 Z M 41.050781 46.996094 " fill-opacity="1" fill-rule="nonzero"/><path fill="#ffffff" d="M 41.050781 44.347656 L 21.949219 44.347656 C 21.746094 44.347656 21.582031 44.179688 21.582031 43.976562 C 21.582031 43.777344 21.746094 43.609375 21.949219 43.609375 L 41.050781 43.609375 C 41.25 43.609375 41.417969 43.773438 41.417969 43.976562 C 41.417969 44.179688 41.253906 44.347656 41.050781 44.347656 Z M 41.050781 44.347656 " fill-opacity="1" fill-rule="nonzero"/><path fill="#ffffff" d="M 41.050781 41.695312 L 21.949219 41.695312 C 21.746094 41.695312 21.582031 41.53125 21.582031 41.324219 C 21.582031 41.125 21.746094 40.957031 21.949219 40.957031 L 41.050781 40.957031 C 41.25 40.957031 41.417969 41.121094 41.417969 41.324219 C 41.417969 41.527344 41.253906 41.695312 41.050781 41.695312 Z M 41.050781 41.695312 " fill-opacity="1" fill-rule="nonzero"/><path fill="#ffffff" d="M 41.050781 39.039062 L 21.949219 39.039062 C 21.746094 39.039062 21.582031 38.875 21.582031 38.671875 C 21.582031 38.46875 21.746094 38.304688 21.949219 38.304688 L 41.050781 38.304688 C 41.25 38.304688 41.417969 38.46875 41.417969 38.671875 C 41.417969 38.875 41.253906 39.039062 41.050781 39.039062 Z M 41.050781 39.039062 " fill-opacity="1" fill-rule="nonzero"/><path fill="#ffffff" d="M 41.050781 36.390625 L 21.949219 36.390625 C 21.746094 36.390625 21.582031 36.222656 21.582031 36.019531 C 21.582031 35.816406 21.746094 35.652344 21.949219 35.652344 L 41.050781 35.652344 C 41.25 35.652344 41.417969 35.816406 41.417969 36.019531 C 41.417969 36.222656 41.253906 36.390625 41.050781 36.390625 Z M 41.050781 36.390625 " fill-opacity="1" fill-rule="nonzero"/><path fill="#ffffff" d="M 48.398438 45.035156 C 48.195312 45.035156 48.03125 44.867188 48.03125 44.664062 L 48.03125 24.007812 C 48.03125 23.804688 48.195312 23.640625 48.398438 23.640625 C 48.601562 23.640625 48.765625 23.804688 48.765625 24.007812 L 48.765625 44.664062 C 48.765625 44.867188 48.601562 45.035156 48.398438 45.035156 Z M 45.417969 45.035156 C 45.214844 45.035156 45.050781 44.867188 45.050781 44.664062 L 45.050781 24.007812 C 45.050781 23.804688 45.214844 23.640625 45.417969 23.640625 C 45.621094 23.640625 45.785156 23.804688 45.785156 24.007812 L 45.785156 44.664062 C 45.785156 44.867188 45.621094 45.035156 45.417969 45.035156 Z M 45.417969 45.035156 " fill-opacity="1" fill-rule="nonzero"/><path fill="#ffffff" d="M 48.398438 46.996094 L 45.417969 46.996094 C 45.214844 46.996094 45.050781 46.832031 45.050781 46.628906 L 45.050781 44.664062 C 45.050781 44.460938 45.214844 44.296875 45.417969 44.296875 L 48.398438 44.296875 C 48.601562 44.296875 48.765625 44.460938 48.765625 44.664062 L 48.765625 46.628906 C 48.765625 46.832031 48.601562 46.996094 48.398438 46.996094 Z M 45.785156 46.261719 L 48.03125 46.261719 L 48.03125 45.035156 L 45.785156 45.035156 Z M 45.785156 46.261719 " fill-opacity="1" fill-rule="nonzero"/><path fill="#ffffff" d="M 47.097656 49.910156 L 46.71875 49.910156 C 46.574219 49.910156 46.441406 49.824219 46.382812 49.691406 L 45.082031 46.78125 C 45 46.59375 45.082031 46.375 45.265625 46.292969 C 45.453125 46.210938 45.671875 46.296875 45.753906 46.480469 L 46.90625 49.066406 L 48.0625 46.480469 C 48.144531 46.292969 48.363281 46.210938 48.546875 46.292969 C 48.730469 46.378906 48.8125 46.59375 48.730469 46.78125 L 47.429688 49.691406 C 47.375 49.824219 47.242188 49.910156 47.097656 49.910156 Z M 47.097656 49.910156 " fill-opacity="1" fill-rule="nonzero"/><path fill="#ffffff" d="M 46.90625 50.390625 C 46.707031 50.390625 46.539062 50.226562 46.539062 50.023438 L 46.539062 49.542969 C 46.539062 49.339844 46.703125 49.175781 46.90625 49.175781 C 47.109375 49.175781 47.277344 49.339844 47.277344 49.542969 L 47.277344 50.023438 C 47.277344 50.226562 47.113281 50.390625 46.90625 50.390625 Z M 46.90625 50.390625 " fill-opacity="1" fill-rule="nonzero"/><path fill="#ffffff" d="M 48.398438 24.375 L 45.417969 24.375 C 45.214844 24.375 45.050781 24.210938 45.050781 24.007812 L 45.050781 21.570312 C 45.050781 20.546875 45.882812 19.710938 46.90625 19.710938 C 47.933594 19.710938 48.765625 20.546875 48.765625 21.570312 L 48.765625 24.007812 C 48.765625 24.210938 48.601562 24.375 48.398438 24.375 Z M 45.785156 23.640625 L 48.03125 23.640625 L 48.03125 21.570312 C 48.03125 20.953125 47.527344 20.449219 46.90625 20.449219 C 46.289062 20.449219 45.785156 20.953125 45.785156 21.570312 Z M 45.785156 23.640625 " fill-opacity="1" fill-rule="nonzero"/><path fill="#ffffff" d="M 50.894531 34.417969 C 50.691406 34.417969 50.527344 34.253906 50.527344 34.046875 L 50.527344 24.375 L 48.398438 24.375 C 48.195312 24.375 48.03125 24.210938 48.03125 24.007812 C 48.03125 23.804688 48.195312 23.640625 48.398438 23.640625 L 50.894531 23.640625 C 51.097656 23.640625 51.261719 23.804688 51.261719 24.007812 L 51.261719 34.046875 C 51.261719 34.253906 51.097656 34.417969 50.894531 34.417969 Z M 50.894531 34.417969 " fill-opacity="1" fill-rule="nonzero"/><g clip-path="url(#3612c4c669)"><path fill="#ffffff" d="M 35 62.5625 C 31.277344 62.5625 27.667969 61.835938 24.265625 60.398438 C 20.984375 59.011719 18.035156 57.023438 15.503906 54.492188 C 12.972656 51.960938 10.984375 49.011719 9.597656 45.730469 C 8.160156 42.328125 7.433594 38.71875 7.433594 35 C 7.433594 31.277344 8.160156 27.667969 9.597656 24.265625 C 10.984375 20.984375 12.972656 18.035156 15.503906 15.503906 C 18.035156 12.972656 20.984375 10.984375 24.265625 9.597656 C 27.667969 8.160156 31.277344 7.433594 35 7.433594 C 38.71875 7.433594 42.328125 8.160156 45.730469 9.597656 C 49.011719 10.984375 51.960938 12.972656 54.492188 15.503906 C 57.023438 18.035156 59.011719 20.984375 60.398438 24.265625 C 61.835938 27.667969 62.5625 31.277344 62.5625 35 C 62.5625 38.71875 61.835938 42.328125 60.398438 45.730469 C 59.011719 49.011719 57.023438 51.960938 54.492188 54.492188 C 51.960938 57.023438 49.011719 59.011719 45.730469 60.398438 C 42.328125 61.835938 38.71875 62.5625 35 62.5625 Z M 35 8.15625 C 20.199219 8.15625 8.15625 20.199219 8.15625 35 C 8.15625 49.796875 20.199219 61.839844 35 61.839844 C 49.796875 61.839844 61.839844 49.796875 61.839844 35 C 61.839844 20.199219 49.796875 8.15625 35 8.15625 Z M 35 8.15625 " fill-opacity="1" fill-rule="nonzero"/></g></svg>