<svg xmlns="http://www.w3.org/2000/svg" xmlns:xlink="http://www.w3.org/1999/xlink" width="94" zoomAndPan="magnify" viewBox="0 0 70.5 70.499999" height="94" preserveAspectRatio="xMidYMid meet" version="1.0"><defs><clipPath id="7b0dd48eea"><path d="M 30 7 L 54.785156 7 L 54.785156 27 L 30 27 Z M 30 7 " clip-rule="nonzero"/></clipPath><clipPath id="7a4be0d4bf"><path d="M 15.3125 26 L 40 26 L 40 46.46875 L 15.3125 46.46875 Z M 15.3125 26 " clip-rule="nonzero"/></clipPath><clipPath id="2bf7ee00b9"><path d="M 15.3125 7 L 36 7 L 36 27 L 15.3125 27 Z M 15.3125 7 " clip-rule="nonzero"/></clipPath><clipPath id="c16f4b2867"><path d="M 35 26 L 54.785156 26 L 54.785156 46.46875 L 35 46.46875 Z M 35 26 " clip-rule="nonzero"/></clipPath></defs><g clip-path="url(#7b0dd48eea)"><path fill="#ffffff" d="M 53.847656 13.441406 C 53.691406 13.417969 53.539062 13.5 53.464844 13.648438 C 53.1875 14.21875 52.871094 14.738281 52.507812 15.195312 C 48.824219 10.058594 42.90625 7 36.582031 7 C 34.664062 7 32.777344 7.277344 30.972656 7.828125 C 30.800781 7.882812 30.691406 8.050781 30.714844 8.230469 C 30.738281 8.414062 30.894531 8.546875 31.078125 8.550781 C 37.527344 8.628906 43.523438 12.066406 46.886719 17.558594 C 45.597656 17.480469 44.546875 17.132812 44.121094 16.96875 C 43.933594 16.898438 43.722656 16.988281 43.648438 17.175781 C 43.570312 17.359375 43.660156 17.570312 43.84375 17.652344 C 45.632812 18.445312 47.1875 19.472656 48.480469 20.691406 C 51.386719 23.441406 52.019531 26.363281 52.027344 26.394531 C 52.054688 26.53125 52.164062 26.648438 52.296875 26.679688 C 52.328125 26.683594 52.355469 26.691406 52.386719 26.691406 C 52.496094 26.691406 52.605469 26.640625 52.671875 26.550781 C 53.984375 24.933594 54.660156 22.433594 54.667969 19.105469 C 54.679688 16.226562 54.191406 13.828125 54.171875 13.730469 C 54.128906 13.582031 54.003906 13.464844 53.847656 13.441406 Z M 53.917969 19.109375 C 53.914062 21.050781 53.652344 23.644531 52.515625 25.488281 C 52.132812 24.378906 51.175781 22.238281 48.972656 20.164062 C 48.25 19.476562 47.441406 18.84375 46.5625 18.285156 C 46.875 18.3125 47.203125 18.332031 47.546875 18.320312 C 47.675781 18.320312 47.796875 18.246094 47.859375 18.132812 C 47.917969 18.019531 47.925781 17.878906 47.859375 17.765625 C 44.84375 12.429688 39.488281 8.828125 33.511719 7.996094 C 34.519531 7.828125 35.542969 7.742188 36.582031 7.742188 C 42.824219 7.742188 48.65625 10.835938 52.183594 16.011719 C 52.25 16.101562 52.351562 16.160156 52.460938 16.171875 C 52.566406 16.179688 52.683594 16.136719 52.761719 16.050781 C 53.070312 15.707031 53.359375 15.328125 53.617188 14.917969 C 53.757812 15.882812 53.929688 17.425781 53.917969 19.109375 C 53.917969 19.105469 53.917969 19.105469 53.917969 19.109375 Z M 53.917969 19.109375 " fill-opacity="1" fill-rule="nonzero"/></g><g clip-path="url(#7a4be0d4bf)"><path fill="#ffffff" d="M 38.914062 44.769531 C 32.464844 44.691406 26.46875 41.253906 23.109375 35.757812 C 24.402344 35.835938 25.449219 36.1875 25.878906 36.351562 C 26.066406 36.421875 26.277344 36.332031 26.347656 36.144531 C 26.421875 35.957031 26.335938 35.746094 26.15625 35.667969 C 24.363281 34.871094 22.808594 33.847656 21.519531 32.628906 C 18.613281 29.878906 17.980469 26.957031 17.972656 26.925781 C 17.941406 26.785156 17.835938 26.671875 17.703125 26.640625 C 17.5625 26.605469 17.417969 26.652344 17.328125 26.769531 C 16.011719 28.378906 15.335938 30.886719 15.332031 34.214844 C 15.3125 37.085938 15.808594 39.484375 15.824219 39.589844 C 15.855469 39.746094 15.984375 39.859375 16.140625 39.878906 C 16.296875 39.902344 16.445312 39.8125 16.519531 39.671875 C 16.789062 39.105469 17.117188 38.585938 17.476562 38.125 C 21.167969 43.261719 27.085938 46.316406 33.410156 46.316406 C 35.328125 46.316406 37.214844 46.039062 39.019531 45.492188 C 39.191406 45.4375 39.300781 45.269531 39.277344 45.089844 C 39.246094 44.90625 39.097656 44.769531 38.914062 44.769531 Z M 33.410156 45.578125 C 27.167969 45.578125 21.335938 42.484375 17.808594 37.308594 C 17.742188 37.21875 17.640625 37.160156 17.527344 37.144531 C 17.519531 37.144531 17.507812 37.144531 17.503906 37.144531 C 17.398438 37.144531 17.296875 37.1875 17.230469 37.265625 C 16.921875 37.609375 16.632812 37.992188 16.375 38.402344 C 16.234375 37.4375 16.0625 35.890625 16.066406 34.210938 C 16.074219 32.261719 16.332031 29.675781 17.472656 27.828125 C 17.851562 28.9375 18.8125 31.078125 21.011719 33.15625 C 21.734375 33.839844 22.542969 34.476562 23.425781 35.035156 C 23.109375 35.003906 22.785156 34.988281 22.441406 35 C 22.308594 35 22.1875 35.070312 22.128906 35.1875 C 22.0625 35.300781 22.0625 35.441406 22.128906 35.554688 C 25.144531 40.890625 30.496094 44.492188 36.472656 45.324219 C 35.464844 45.492188 34.441406 45.578125 33.410156 45.578125 Z M 33.410156 45.578125 " fill-opacity="1" fill-rule="nonzero"/></g><g clip-path="url(#2bf7ee00b9)"><path fill="#ffffff" d="M 15.46875 16.804688 C 15.46875 22.214844 19.859375 26.613281 25.25 26.613281 C 30.648438 26.613281 35.039062 22.214844 35.039062 16.804688 C 35.039062 11.402344 30.648438 7 25.25 7 C 19.859375 7 15.46875 11.402344 15.46875 16.804688 Z M 34.296875 16.804688 C 34.296875 21.804688 30.238281 25.871094 25.25 25.871094 C 20.265625 25.871094 16.207031 21.804688 16.207031 16.804688 C 16.207031 11.808594 20.265625 7.742188 25.25 7.742188 C 30.238281 7.742188 34.296875 11.808594 34.296875 16.804688 Z M 34.296875 16.804688 " fill-opacity="1" fill-rule="nonzero"/></g><g clip-path="url(#c16f4b2867)"><path fill="#ffffff" d="M 44.878906 26.664062 C 39.484375 26.664062 35.09375 31.0625 35.09375 36.472656 C 35.09375 41.875 39.484375 46.277344 44.878906 46.277344 C 50.277344 46.277344 54.660156 41.878906 54.660156 36.472656 C 54.660156 31.066406 50.269531 26.664062 44.878906 26.664062 Z M 44.878906 45.535156 C 39.894531 45.535156 35.835938 41.46875 35.835938 36.472656 C 35.835938 31.472656 39.894531 27.40625 44.878906 27.40625 C 49.867188 27.40625 53.925781 31.472656 53.925781 36.472656 C 53.917969 41.46875 49.867188 45.535156 44.878906 45.535156 Z M 44.878906 45.535156 " fill-opacity="1" fill-rule="nonzero"/></g><path fill="#ffffff" d="M 47.582031 34.425781 C 47.460938 34.390625 47.328125 34.421875 47.238281 34.503906 C 46.542969 35.121094 45.640625 35.421875 44.703125 35.347656 L 44.601562 35.34375 C 43.859375 35.269531 43.160156 34.964844 42.628906 34.480469 C 42.539062 34.398438 42.414062 34.367188 42.292969 34.398438 C 41.027344 34.722656 38.09375 36.0625 38.132812 41.535156 C 38.132812 41.742188 38.300781 41.902344 38.5 41.902344 L 51.257812 41.902344 C 51.464844 41.902344 51.628906 41.742188 51.628906 41.535156 C 51.628906 41.191406 51.621094 40.867188 51.597656 40.554688 C 51.300781 35.96875 48.691406 34.742188 47.582031 34.425781 Z M 50.886719 41.164062 L 38.867188 41.164062 C 38.953125 36.773438 41.148438 35.519531 42.285156 35.164062 C 42.914062 35.675781 43.699219 35.996094 44.523438 36.078125 C 44.523438 36.078125 44.625 36.085938 44.632812 36.085938 C 45.707031 36.167969 46.742188 35.851562 47.5625 35.191406 C 48.601562 35.546875 50.613281 36.730469 50.863281 40.601562 C 50.875 40.78125 50.878906 40.96875 50.886719 41.164062 Z M 50.886719 41.164062 " fill-opacity="1" fill-rule="nonzero"/><path fill="#ffffff" d="M 41.464844 31.675781 C 41.472656 31.832031 41.492188 31.984375 41.515625 32.136719 C 41.605469 32.660156 41.824219 33.167969 42.140625 33.601562 C 42.703125 34.359375 43.558594 34.859375 44.476562 34.976562 C 44.621094 35 44.769531 35.003906 44.921875 35.003906 C 46.828125 35.003906 48.378906 33.449219 48.378906 31.539062 C 48.378906 30.984375 48.246094 30.433594 47.992188 29.953125 C 47.851562 29.675781 47.671875 29.414062 47.460938 29.1875 C 47.097656 28.789062 46.640625 28.480469 46.128906 28.289062 C 45.886719 28.199219 45.640625 28.136719 45.402344 28.105469 C 44.910156 28.023438 44.390625 28.078125 43.921875 28.222656 C 43.3125 28.402344 42.761719 28.757812 42.335938 29.242188 C 41.773438 29.875 41.464844 30.6875 41.464844 31.539062 C 41.464844 31.574219 41.464844 31.609375 41.464844 31.621094 C 41.464844 31.640625 41.464844 31.660156 41.464844 31.675781 Z M 42.890625 29.734375 C 43.226562 29.355469 43.65625 29.078125 44.136719 28.933594 C 44.503906 28.820312 44.875 28.777344 45.300781 28.84375 C 45.496094 28.867188 45.695312 28.914062 45.875 28.988281 C 46.273438 29.136719 46.632812 29.378906 46.925781 29.699219 C 47.09375 29.878906 47.230469 30.078125 47.339844 30.296875 C 47.539062 30.675781 47.640625 31.109375 47.640625 31.542969 C 47.640625 33.046875 46.421875 34.269531 44.929688 34.269531 C 44.8125 34.269531 44.703125 34.265625 44.585938 34.246094 C 43.855469 34.15625 43.183594 33.757812 42.738281 33.167969 C 42.484375 32.824219 42.316406 32.425781 42.246094 32.015625 C 42.226562 31.886719 42.207031 31.761719 42.207031 31.632812 C 42.207031 31.617188 42.207031 31.554688 42.207031 31.542969 C 42.203125 30.875 42.445312 30.234375 42.890625 29.734375 Z M 42.890625 29.734375 " fill-opacity="1" fill-rule="nonzero"/><path fill="#ffffff" d="M 27.609375 14.683594 C 26.914062 15.296875 26.011719 15.605469 25.0625 15.527344 L 25.035156 15.894531 L 24.972656 15.523438 C 24.238281 15.449219 23.539062 15.140625 23 14.660156 C 22.910156 14.574219 22.777344 14.546875 22.664062 14.574219 C 21.398438 14.902344 18.46875 16.238281 18.503906 21.714844 C 18.503906 21.921875 18.671875 22.082031 18.871094 22.082031 L 31.632812 22.082031 C 31.835938 22.082031 32 21.921875 32 21.714844 C 32.003906 21.371094 31.992188 21.039062 31.96875 20.730469 C 31.671875 16.148438 29.0625 14.917969 27.953125 14.605469 C 27.832031 14.570312 27.707031 14.597656 27.609375 14.683594 Z M 31.234375 20.78125 C 31.246094 20.960938 31.25 21.148438 31.257812 21.339844 L 19.246094 21.339844 C 19.328125 16.945312 21.523438 15.695312 22.664062 15.339844 C 23.292969 15.855469 24.074219 16.171875 24.902344 16.257812 L 24.9375 15.890625 L 25.011719 16.269531 C 26.082031 16.355469 27.121094 16.035156 27.941406 15.378906 C 29.140625 15.78125 30.992188 17.015625 31.234375 20.78125 Z M 31.234375 20.78125 " fill-opacity="1" fill-rule="nonzero"/><path fill="#ffffff" d="M 22.707031 9.417969 C 22.144531 10.050781 21.839844 10.867188 21.839844 11.71875 C 21.839844 11.753906 21.839844 11.789062 21.839844 11.800781 C 21.839844 11.820312 21.839844 11.835938 21.839844 11.847656 C 21.84375 12.007812 21.863281 12.15625 21.886719 12.308594 C 21.976562 12.832031 22.195312 13.339844 22.511719 13.773438 C 23.074219 14.53125 23.929688 15.035156 24.847656 15.148438 C 24.992188 15.171875 25.144531 15.179688 25.292969 15.179688 C 27.199219 15.179688 28.75 13.621094 28.75 11.710938 C 28.75 11.160156 28.617188 10.605469 28.363281 10.125 C 28.222656 9.847656 28.042969 9.589844 27.824219 9.359375 C 27.464844 8.960938 27 8.648438 26.492188 8.460938 C 26.253906 8.371094 26.003906 8.308594 25.769531 8.28125 C 25.273438 8.195312 24.761719 8.242188 24.285156 8.394531 C 23.683594 8.585938 23.132812 8.9375 22.707031 9.417969 Z M 25.667969 9.019531 C 25.867188 9.046875 26.058594 9.09375 26.246094 9.167969 C 26.644531 9.316406 27.007812 9.558594 27.296875 9.878906 C 27.464844 10.058594 27.601562 10.257812 27.710938 10.476562 C 27.910156 10.859375 28.011719 11.28125 28.011719 11.722656 C 28.011719 13.222656 26.796875 14.449219 25.300781 14.449219 C 25.183594 14.449219 25.078125 14.441406 24.957031 14.425781 C 24.226562 14.332031 23.558594 13.9375 23.109375 13.34375 C 22.855469 13.007812 22.6875 12.609375 22.617188 12.199219 C 22.597656 12.074219 22.578125 11.945312 22.578125 11.8125 C 22.578125 11.796875 22.578125 11.734375 22.578125 11.722656 C 22.578125 11.054688 22.820312 10.414062 23.261719 9.914062 C 23.597656 9.535156 24.027344 9.257812 24.507812 9.113281 C 24.878906 8.996094 25.25 8.953125 25.667969 9.019531 Z M 25.667969 9.019531 " fill-opacity="1" fill-rule="nonzero"/></svg>