<svg xmlns="http://www.w3.org/2000/svg" xmlns:xlink="http://www.w3.org/1999/xlink" width="94" zoomAndPan="magnify" viewBox="0 0 70.5 70.499999" height="94" preserveAspectRatio="xMidYMid meet" version="1.0"><defs><clipPath id="765950de3b"><path d="M 20 7 L 47 7 L 47 49.449219 L 20 49.449219 Z M 20 7 " clip-rule="nonzero"/></clipPath><clipPath id="55bf59e7e8"><path d="M 32 15 L 55.386719 15 L 55.386719 39 L 32 39 Z M 32 15 " clip-rule="nonzero"/></clipPath><clipPath id="151d0fc22e"><path d="M 14.429688 15 L 32 15 L 32 29 L 14.429688 29 Z M 14.429688 15 " clip-rule="nonzero"/></clipPath><clipPath id="64319bedb0"><path d="M 14.429688 30 L 32 30 L 32 37 L 14.429688 37 Z M 14.429688 30 " clip-rule="nonzero"/></clipPath></defs><g clip-path="url(#765950de3b)"><path fill="#939597" d="M 46.226562 10.808594 L 46.226562 14.59375 L 44.714844 14.59375 L 44.714844 10.808594 C 44.714844 10.507812 44.65625 10.21875 44.539062 9.9375 C 44.425781 9.660156 44.261719 9.414062 44.046875 9.203125 C 43.835938 8.988281 43.589844 8.824219 43.3125 8.710938 C 43.03125 8.59375 42.742188 8.535156 42.441406 8.535156 L 24.269531 8.535156 C 23.96875 8.535156 23.679688 8.59375 23.402344 8.710938 C 23.125 8.824219 22.878906 8.988281 22.664062 9.203125 C 22.453125 9.414062 22.289062 9.660156 22.171875 9.9375 C 22.058594 10.21875 22 10.507812 22 10.808594 L 22 14.664062 L 20.484375 14.664062 L 20.484375 10.808594 C 20.484375 10.304688 20.582031 9.824219 20.773438 9.359375 C 20.964844 8.894531 21.238281 8.488281 21.59375 8.132812 C 21.949219 7.777344 22.359375 7.503906 22.824219 7.3125 C 23.285156 7.117188 23.769531 7.023438 24.269531 7.023438 L 42.441406 7.023438 C 42.945312 7.023438 43.425781 7.117188 43.890625 7.3125 C 44.355469 7.503906 44.761719 7.777344 45.117188 8.132812 C 45.472656 8.488281 45.746094 8.894531 45.9375 9.359375 C 46.132812 9.824219 46.226562 10.304688 46.226562 10.808594 Z M 44.714844 45.640625 C 44.714844 45.941406 44.65625 46.230469 44.539062 46.511719 C 44.425781 46.789062 44.261719 47.035156 44.046875 47.246094 C 43.835938 47.460938 43.589844 47.625 43.3125 47.738281 C 43.03125 47.855469 42.742188 47.914062 42.441406 47.914062 L 24.269531 47.914062 C 23.96875 47.914062 23.679688 47.855469 23.402344 47.738281 C 23.125 47.625 22.878906 47.460938 22.664062 47.246094 C 22.453125 47.035156 22.289062 46.789062 22.171875 46.511719 C 22.058594 46.230469 22 45.941406 22 45.640625 L 22 37.3125 L 20.484375 37.3125 L 20.484375 45.640625 C 20.484375 46.144531 20.582031 46.625 20.773438 47.089844 C 20.964844 47.554688 21.238281 47.964844 21.59375 48.316406 C 21.949219 48.671875 22.359375 48.945312 22.824219 49.140625 C 23.285156 49.332031 23.769531 49.425781 24.269531 49.425781 L 42.441406 49.425781 C 42.945312 49.425781 43.425781 49.332031 43.890625 49.140625 C 44.355469 48.945312 44.761719 48.671875 45.117188 48.316406 C 45.472656 47.964844 45.746094 47.554688 45.9375 47.089844 C 46.132812 46.625 46.226562 46.144531 46.226562 45.640625 L 46.226562 38.824219 L 44.714844 38.824219 Z M 23.515625 12.324219 L 23.515625 14.59375 L 25.027344 14.59375 L 25.027344 13.082031 L 41.683594 13.082031 L 41.683594 14.59375 L 43.199219 14.59375 L 43.199219 12.324219 C 43.199219 12.113281 43.125 11.933594 42.976562 11.789062 C 42.828125 11.640625 42.652344 11.566406 42.441406 11.566406 L 24.269531 11.566406 C 24.0625 11.566406 23.882812 11.640625 23.734375 11.789062 C 23.585938 11.933594 23.515625 12.113281 23.515625 12.324219 Z M 23.515625 41.097656 C 23.515625 41.308594 23.585938 41.484375 23.734375 41.632812 C 23.882812 41.78125 24.0625 41.855469 24.269531 41.855469 L 42.441406 41.855469 C 42.652344 41.855469 42.828125 41.78125 42.976562 41.632812 C 43.125 41.484375 43.199219 41.308594 43.199219 41.097656 L 43.199219 38.824219 L 41.683594 38.824219 L 41.683594 40.339844 L 25.027344 40.339844 L 25.027344 37.3125 L 23.515625 37.3125 Z M 30.328125 9.292969 L 30.328125 10.808594 L 36.382812 10.808594 L 36.382812 9.292969 Z M 30.328125 9.292969 " fill-opacity="1" fill-rule="nonzero"/></g><path fill="#d4d5d5" d="M 35.628906 44.882812 C 35.628906 45.183594 35.570312 45.476562 35.453125 45.753906 C 35.339844 46.03125 35.175781 46.277344 34.960938 46.488281 C 34.75 46.703125 34.503906 46.867188 34.226562 46.984375 C 33.945312 47.097656 33.65625 47.15625 33.355469 47.15625 C 33.054688 47.15625 32.765625 47.097656 32.488281 46.984375 C 32.207031 46.867188 31.964844 46.703125 31.75 46.488281 C 31.539062 46.277344 31.375 46.03125 31.257812 45.753906 C 31.144531 45.476562 31.085938 45.183594 31.085938 44.882812 C 31.085938 44.582031 31.144531 44.292969 31.257812 44.015625 C 31.375 43.734375 31.539062 43.492188 31.75 43.277344 C 31.964844 43.066406 32.207031 42.898438 32.488281 42.785156 C 32.765625 42.667969 33.054688 42.613281 33.355469 42.613281 C 33.65625 42.613281 33.945312 42.667969 34.226562 42.785156 C 34.503906 42.898438 34.75 43.066406 34.960938 43.277344 C 35.175781 43.492188 35.339844 43.734375 35.453125 44.015625 C 35.570312 44.292969 35.628906 44.582031 35.628906 44.882812 Z M 35.628906 44.882812 " fill-opacity="1" fill-rule="nonzero"/><g clip-path="url(#55bf59e7e8)"><path fill="#f5df4d" d="M 55.265625 25.460938 C 55.144531 25.789062 54.90625 25.953125 54.554688 25.953125 L 51.527344 25.953125 L 51.527344 35.796875 C 51.527344 36.097656 51.46875 36.386719 51.355469 36.667969 C 51.238281 36.945312 51.074219 37.191406 50.863281 37.402344 C 50.648438 37.617188 50.402344 37.78125 50.125 37.894531 C 49.847656 38.011719 49.558594 38.070312 49.253906 38.070312 L 46.226562 38.070312 C 46.019531 38.070312 45.839844 37.996094 45.691406 37.847656 C 45.542969 37.699219 45.46875 37.519531 45.46875 37.3125 L 45.46875 32.011719 C 45.46875 31.808594 45.429688 31.617188 45.355469 31.429688 C 45.277344 31.246094 45.167969 31.082031 45.027344 30.941406 C 44.882812 30.796875 44.722656 30.6875 44.535156 30.613281 C 44.351562 30.535156 44.15625 30.496094 43.957031 30.496094 C 43.753906 30.496094 43.5625 30.535156 43.375 30.613281 C 43.191406 30.6875 43.027344 30.796875 42.886719 30.941406 C 42.742188 31.082031 42.632812 31.246094 42.558594 31.429688 C 42.480469 31.617188 42.441406 31.808594 42.441406 32.011719 L 42.441406 37.3125 C 42.441406 37.519531 42.367188 37.699219 42.21875 37.847656 C 42.070312 37.996094 41.894531 38.070312 41.683594 38.070312 L 38.65625 38.070312 C 38.355469 38.070312 38.066406 38.011719 37.785156 37.894531 C 37.507812 37.78125 37.261719 37.617188 37.050781 37.402344 C 36.835938 37.191406 36.671875 36.945312 36.558594 36.667969 C 36.441406 36.386719 36.382812 36.097656 36.382812 35.796875 L 36.382812 25.953125 L 33.355469 25.953125 C 33.003906 25.953125 32.769531 25.789062 32.644531 25.457031 C 32.523438 25.128906 32.597656 24.847656 32.863281 24.621094 L 43.464844 15.535156 C 43.605469 15.414062 43.769531 15.351562 43.957031 15.351562 C 44.140625 15.351562 44.304688 15.414062 44.449219 15.535156 L 55.046875 24.621094 C 55.167969 24.722656 55.25 24.851562 55.289062 25.007812 C 55.328125 25.160156 55.324219 25.3125 55.265625 25.460938 Z M 55.265625 25.460938 " fill-opacity="1" fill-rule="nonzero"/></g><g clip-path="url(#151d0fc22e)"><path fill="#f5df4d" d="M 31.085938 17.625 L 31.085938 26.710938 C 31.085938 27.011719 31.027344 27.300781 30.910156 27.578125 C 30.796875 27.859375 30.632812 28.105469 30.417969 28.316406 C 30.207031 28.53125 29.960938 28.695312 29.683594 28.808594 C 29.40625 28.925781 29.113281 28.980469 28.8125 28.980469 L 16.699219 28.980469 C 16.398438 28.980469 16.109375 28.925781 15.832031 28.808594 C 15.550781 28.695312 15.308594 28.53125 15.09375 28.316406 C 14.882812 28.105469 14.714844 27.859375 14.601562 27.578125 C 14.484375 27.300781 14.429688 27.011719 14.429688 26.710938 L 14.429688 17.625 C 14.429688 17.324219 14.484375 17.03125 14.601562 16.753906 C 14.714844 16.476562 14.882812 16.230469 15.09375 16.015625 C 15.308594 15.804688 15.550781 15.640625 15.832031 15.523438 C 16.109375 15.410156 16.398438 15.351562 16.699219 15.351562 L 28.8125 15.351562 C 29.113281 15.351562 29.40625 15.410156 29.683594 15.523438 C 29.960938 15.640625 30.207031 15.804688 30.417969 16.015625 C 30.632812 16.230469 30.796875 16.476562 30.910156 16.753906 C 31.027344 17.03125 31.085938 17.324219 31.085938 17.625 Z M 31.085938 17.625 " fill-opacity="1" fill-rule="nonzero"/></g><path fill="#ffffff" d="M 23.71875 26.121094 C 23.59375 25.984375 23.449219 25.878906 23.28125 25.804688 C 23.117188 25.730469 22.941406 25.691406 22.757812 25.691406 C 22.574219 25.691406 22.398438 25.730469 22.230469 25.804688 C 22.0625 25.878906 21.917969 25.984375 21.796875 26.121094 L 20.691406 25.082031 C 20.960938 24.800781 21.273438 24.582031 21.632812 24.425781 C 21.992188 24.273438 22.367188 24.195312 22.757812 24.195312 C 23.148438 24.195312 23.523438 24.273438 23.882812 24.425781 C 24.238281 24.582031 24.554688 24.800781 24.824219 25.082031 Z M 26.746094 23.046875 C 26.5 22.765625 26.222656 22.515625 25.921875 22.292969 C 25.621094 22.074219 25.296875 21.886719 24.957031 21.734375 C 24.617188 21.578125 24.261719 21.464844 23.898438 21.386719 C 23.53125 21.308594 23.160156 21.269531 22.785156 21.269531 C 22.414062 21.269531 22.042969 21.308594 21.675781 21.386719 C 21.3125 21.464844 20.957031 21.578125 20.617188 21.734375 C 20.277344 21.886719 19.953125 22.074219 19.652344 22.292969 C 19.351562 22.515625 19.074219 22.765625 18.828125 23.046875 L 19.941406 24.066406 C 20.117188 23.863281 20.316406 23.683594 20.53125 23.523438 C 20.746094 23.363281 20.980469 23.226562 21.222656 23.113281 C 21.46875 23.003906 21.722656 22.917969 21.988281 22.863281 C 22.25 22.804688 22.519531 22.777344 22.785156 22.777344 C 23.054688 22.777344 23.324219 22.804688 23.585938 22.863281 C 23.851562 22.917969 24.105469 23.003906 24.351562 23.113281 C 24.59375 23.226562 24.828125 23.363281 25.042969 23.523438 C 25.257812 23.683594 25.457031 23.863281 25.632812 24.066406 Z M 28.640625 20.992188 C 28.269531 20.582031 27.863281 20.214844 27.417969 19.886719 C 26.972656 19.5625 26.496094 19.289062 25.992188 19.0625 C 25.488281 18.835938 24.964844 18.667969 24.425781 18.550781 C 23.886719 18.4375 23.339844 18.378906 22.785156 18.378906 C 22.234375 18.378906 21.6875 18.4375 21.148438 18.550781 C 20.609375 18.667969 20.085938 18.835938 19.582031 19.0625 C 19.078125 19.289062 18.601562 19.5625 18.15625 19.886719 C 17.710938 20.214844 17.304688 20.582031 16.933594 20.992188 L 18.039062 22.023438 C 18.339844 21.6875 18.667969 21.390625 19.03125 21.125 C 19.390625 20.859375 19.777344 20.636719 20.1875 20.453125 C 20.59375 20.269531 21.019531 20.128906 21.457031 20.035156 C 21.894531 19.941406 22.339844 19.894531 22.785156 19.894531 C 23.234375 19.894531 23.679688 19.941406 24.117188 20.035156 C 24.554688 20.128906 24.980469 20.269531 25.386719 20.453125 C 25.796875 20.636719 26.183594 20.859375 26.542969 21.125 C 26.90625 21.390625 27.234375 21.6875 27.535156 22.023438 Z M 28.640625 20.992188 " fill-opacity="1" fill-rule="nonzero"/><g clip-path="url(#64319bedb0)"><path fill="#d4d5d5" d="M 31.085938 32.011719 L 31.085938 35.039062 C 31.085938 35.242188 31.046875 35.433594 30.96875 35.621094 C 30.894531 35.804688 30.785156 35.96875 30.640625 36.109375 C 30.5 36.253906 30.335938 36.363281 30.148438 36.4375 C 29.964844 36.515625 29.773438 36.554688 29.570312 36.554688 L 15.941406 36.554688 C 15.742188 36.554688 15.550781 36.515625 15.363281 36.4375 C 15.179688 36.363281 15.015625 36.253906 14.871094 36.109375 C 14.730469 35.96875 14.621094 35.804688 14.542969 35.621094 C 14.46875 35.433594 14.429688 35.242188 14.429688 35.039062 L 14.429688 32.011719 C 14.429688 31.808594 14.46875 31.617188 14.542969 31.429688 C 14.621094 31.246094 14.730469 31.082031 14.871094 30.941406 C 15.015625 30.796875 15.179688 30.6875 15.363281 30.613281 C 15.550781 30.535156 15.742188 30.496094 15.941406 30.496094 L 29.570312 30.496094 C 29.773438 30.496094 29.964844 30.535156 30.148438 30.613281 C 30.335938 30.6875 30.5 30.796875 30.640625 30.941406 C 30.785156 31.082031 30.894531 31.246094 30.96875 31.429688 C 31.046875 31.617188 31.085938 31.808594 31.085938 32.011719 Z M 31.085938 32.011719 " fill-opacity="1" fill-rule="nonzero"/></g></svg>