<svg xmlns="http://www.w3.org/2000/svg" xmlns:xlink="http://www.w3.org/1999/xlink" width="66" zoomAndPan="magnify" viewBox="0 0 49.5 70.499999" height="94" preserveAspectRatio="xMidYMid meet" version="1.0"><defs><clipPath id="e6d1747376"><path d="M 13 21.230469 L 44.101562 21.230469 L 44.101562 48.664062 L 13 48.664062 Z M 13 21.230469 " clip-rule="nonzero"/></clipPath><clipPath id="1f64ee3865"><path d="M 4.902344 24 L 20.9375 24 L 20.9375 48.664062 L 4.902344 48.664062 Z M 4.902344 24 " clip-rule="nonzero"/></clipPath></defs><path fill="#ffffff" d="M 24.492188 37.09375 C 24.496094 37.097656 24.5 37.101562 24.503906 37.101562 L 24.496094 37.109375 C 24.527344 37.132812 24.464844 37.074219 24.492188 37.097656 Z M 25.3125 35.992188 C 25.3125 35.996094 25.316406 35.996094 25.316406 36 L 25.691406 36.429688 C 25.6875 36.449219 25.6875 36.472656 25.683594 36.492188 L 25.074219 37.011719 C 24.945312 37.121094 24.753906 37.097656 24.621094 36.976562 C 24.617188 36.976562 24.617188 36.972656 24.613281 36.972656 C 24.558594 36.90625 24.539062 36.824219 24.546875 36.738281 C 24.554688 36.648438 24.589844 36.566406 24.652344 36.511719 L 25.257812 36 C 25.273438 36 25.292969 35.996094 25.3125 35.992188 Z M 26.601562 34.855469 C 26.621094 34.855469 26.636719 34.855469 26.65625 34.855469 L 27.039062 35.300781 C 27.050781 35.3125 27.058594 35.324219 27.078125 35.328125 C 27.054688 35.332031 27.042969 35.335938 27.03125 35.347656 L 26.175781 36.078125 C 26.15625 36.074219 26.132812 36.070312 26.113281 36.070312 L 26.125 36.066406 L 25.753906 35.636719 C 25.753906 35.628906 25.753906 35.621094 25.753906 35.613281 C 25.753906 35.597656 25.753906 35.585938 25.753906 35.570312 Z M 27.75 33.878906 C 27.765625 33.878906 27.785156 33.882812 27.804688 33.882812 L 28.183594 34.328125 C 28.1875 34.335938 28.195312 34.339844 28.199219 34.34375 C 28.199219 34.347656 28.199219 34.351562 28.199219 34.359375 C 28.191406 34.363281 28.179688 34.371094 28.171875 34.375 L 28.070312 34.46875 C 28.070312 34.472656 28.070312 34.472656 28.070312 34.472656 L 28.054688 34.480469 L 27.515625 34.933594 C 27.511719 34.941406 27.503906 34.949219 27.5 34.953125 C 27.496094 34.953125 27.492188 34.953125 27.488281 34.953125 C 27.484375 34.953125 27.484375 34.953125 27.484375 34.953125 C 27.480469 34.945312 27.476562 34.933594 27.46875 34.925781 L 27.09375 34.5 C 27.097656 34.484375 27.097656 34.472656 27.097656 34.460938 C 27.097656 34.449219 27.097656 34.441406 27.09375 34.433594 Z M 29.582031 30.691406 L 30.382812 33.703125 C 30.382812 33.707031 30.398438 33.734375 30.398438 33.738281 C 30.398438 33.738281 30.40625 33.738281 30.40625 33.738281 C 30.425781 33.777344 30.445312 33.808594 30.472656 33.835938 C 30.484375 33.84375 30.496094 33.847656 30.503906 33.855469 L 30.503906 33.863281 C 30.503906 33.863281 30.507812 33.863281 30.511719 33.863281 C 30.511719 33.867188 30.511719 33.867188 30.511719 33.867188 C 30.515625 33.871094 30.527344 33.875 30.53125 33.882812 C 30.535156 33.886719 30.542969 33.894531 30.542969 33.898438 C 30.546875 33.898438 30.566406 33.898438 30.574219 33.902344 C 30.625 33.914062 30.652344 33.898438 30.660156 33.890625 L 30.667969 33.890625 C 30.675781 33.886719 30.6875 33.890625 30.6875 33.890625 C 30.691406 33.886719 30.707031 33.890625 30.707031 33.890625 C 30.707031 33.890625 30.710938 33.890625 30.710938 33.890625 C 30.773438 33.867188 30.8125 33.828125 30.835938 33.792969 L 30.835938 33.785156 C 30.839844 33.78125 30.84375 33.769531 30.847656 33.765625 C 30.851562 33.761719 30.851562 33.761719 30.855469 33.757812 C 30.855469 33.757812 30.855469 33.753906 30.855469 33.75 C 30.859375 33.746094 30.863281 33.742188 30.863281 33.742188 C 30.867188 33.738281 30.882812 33.71875 30.882812 33.714844 C 30.882812 33.714844 30.882812 33.710938 30.882812 33.707031 L 31.449219 31.503906 L 32.074219 32.695312 C 32.078125 32.699219 32.078125 32.703125 32.082031 32.703125 C 32.101562 32.738281 32.125 32.75 32.140625 32.753906 C 32.15625 32.765625 32.164062 32.773438 32.160156 32.769531 C 32.160156 32.773438 32.164062 32.773438 32.167969 32.777344 C 32.207031 32.804688 32.253906 32.8125 32.300781 32.8125 C 32.324219 32.816406 32.347656 32.8125 32.378906 32.808594 C 32.386719 32.808594 32.394531 32.804688 32.40625 32.800781 C 32.410156 32.800781 32.414062 32.796875 32.417969 32.792969 C 32.429688 32.792969 32.4375 32.785156 32.445312 32.78125 C 32.46875 32.777344 32.488281 32.78125 32.515625 32.742188 L 33.292969 31.847656 L 34.589844 31.839844 C 34.332031 33.667969 32.6875 35.023438 30.828125 34.875 C 29.15625 34.738281 27.847656 33.464844 27.625 31.855469 L 28.796875 31.855469 C 28.800781 31.855469 28.835938 31.851562 28.839844 31.847656 C 28.84375 31.847656 28.863281 31.835938 28.867188 31.832031 L 28.867188 31.828125 C 28.878906 31.824219 28.898438 31.820312 28.90625 31.816406 C 28.914062 31.8125 28.917969 31.808594 28.921875 31.808594 C 28.9375 31.792969 28.964844 31.78125 28.988281 31.757812 C 28.992188 31.753906 28.996094 31.75 29.007812 31.742188 C 29.011719 31.738281 29.019531 31.730469 29.019531 31.726562 C 29.023438 31.726562 29.03125 31.710938 29.03125 31.707031 Z M 31.378906 27.835938 L 31.386719 27.835938 C 31.390625 27.835938 31.390625 27.835938 31.390625 27.835938 C 33.25 27.992188 34.609375 29.535156 34.613281 31.335938 L 33.175781 31.34375 L 33.167969 31.34375 C 33.109375 31.34375 33.074219 31.371094 33.0625 31.375 C 33.058594 31.375 33.039062 31.394531 33.023438 31.402344 L 33.015625 31.402344 C 33.015625 31.40625 33.011719 31.40625 33.007812 31.410156 C 33.007812 31.410156 33 31.414062 32.988281 31.421875 C 32.984375 31.425781 32.976562 31.429688 32.976562 31.429688 L 32.363281 32.140625 L 31.59375 30.695312 C 31.589844 30.691406 31.589844 30.6875 31.585938 30.683594 L 31.578125 30.671875 L 31.566406 30.664062 C 31.546875 30.640625 31.519531 30.609375 31.5 30.597656 L 31.492188 30.59375 C 31.488281 30.589844 31.480469 30.582031 31.472656 30.578125 C 31.46875 30.578125 31.460938 30.574219 31.460938 30.574219 C 31.457031 30.574219 31.449219 30.566406 31.449219 30.566406 L 31.441406 30.558594 C 31.4375 30.554688 31.425781 30.554688 31.425781 30.550781 C 31.421875 30.550781 31.421875 30.550781 31.421875 30.550781 C 31.28125 30.515625 31.144531 30.605469 31.109375 30.742188 L 30.628906 32.628906 L 29.914062 29.945312 C 29.914062 29.945312 29.910156 29.941406 29.90625 29.941406 L 29.898438 29.925781 C 29.894531 29.917969 29.890625 29.910156 29.886719 29.910156 C 29.863281 29.855469 29.832031 29.804688 29.78125 29.777344 C 29.660156 29.707031 29.5 29.753906 29.433594 29.878906 L 28.644531 31.347656 L 27.59375 31.347656 C 27.59375 31.253906 27.585938 31.15625 27.59375 31.070312 C 27.75 29.109375 29.453125 27.6875 31.378906 27.835938 Z M 31.4375 27.226562 C 29.136719 27.039062 27.160156 28.753906 26.980469 31.019531 C 26.972656 31.132812 26.972656 31.242188 26.972656 31.347656 L 24.019531 31.347656 C 23.875 31.347656 23.765625 31.46875 23.765625 31.605469 C 23.769531 31.746094 23.886719 31.855469 24.023438 31.855469 L 27.003906 31.855469 C 27.066406 32.367188 27.207031 32.867188 27.4375 33.308594 C 27.441406 33.320312 27.441406 33.332031 27.445312 33.34375 C 27.441406 33.347656 27.433594 33.351562 27.429688 33.355469 L 26.351562 34.269531 L 24.253906 36.058594 C 24.042969 36.238281 23.960938 36.457031 23.945312 36.6875 C 23.921875 36.921875 24.003906 37.195312 24.152344 37.375 C 24.488281 37.761719 25.074219 37.804688 25.464844 37.472656 L 27.375 35.847656 C 27.378906 35.875 27.394531 35.894531 27.414062 35.910156 C 28.34375 36.65625 29.503906 37.117188 30.695312 37.195312 C 31.921875 37.277344 33.167969 36.960938 34.207031 36.300781 C 35.210938 35.664062 35.992188 34.714844 36.453125 33.621094 C 36.492188 33.609375 36.523438 33.585938 36.546875 33.558594 C 36.546875 33.558594 36.546875 33.558594 36.550781 33.558594 L 36.726562 33.566406 C 36.816406 33.570312 36.898438 33.523438 36.945312 33.453125 C 36.996094 33.382812 37.007812 33.285156 36.964844 33.203125 L 36.496094 32.171875 C 36.464844 32.113281 36.417969 32.078125 36.367188 32.050781 L 36.359375 32.050781 C 36.332031 32.039062 36.300781 32.035156 36.273438 32.03125 C 36.242188 32.03125 36.210938 32.03125 36.179688 32.042969 C 36.144531 32.050781 36.113281 32.085938 36.078125 32.121094 C 36.078125 32.121094 36.074219 32.125 36.070312 32.125 C 36.0625 32.132812 36.054688 32.140625 36.050781 32.144531 C 36.050781 32.148438 36.046875 32.144531 36.046875 32.144531 C 36.046875 32.148438 36.046875 32.148438 36.046875 32.152344 L 35.441406 33.105469 C 35.394531 33.179688 35.378906 33.277344 35.417969 33.363281 C 35.453125 33.4375 35.527344 33.472656 35.601562 33.488281 C 35.613281 33.496094 35.625 33.5 35.632812 33.503906 C 35.636719 33.503906 35.640625 33.503906 35.644531 33.503906 L 35.699219 33.507812 C 35.722656 33.535156 35.757812 33.5625 35.792969 33.578125 C 35.789062 33.585938 35.78125 33.597656 35.777344 33.609375 C 35.472656 34.246094 35.058594 34.835938 34.527344 35.300781 C 33.496094 36.203125 32.101562 36.679688 30.738281 36.59375 C 29.699219 36.523438 28.691406 36.121094 27.871094 35.480469 C 27.859375 35.46875 27.847656 35.464844 27.835938 35.460938 L 28.675781 34.753906 C 28.679688 34.753906 28.6875 34.753906 28.691406 34.753906 C 28.707031 34.753906 28.722656 34.753906 28.738281 34.75 C 29.316406 35.167969 30.042969 35.421875 30.78125 35.480469 C 33.027344 35.660156 34.941406 34.03125 35.207031 31.851562 L 37.949219 31.84375 C 38.085938 31.84375 38.199219 31.730469 38.199219 31.597656 C 38.199219 31.457031 38.089844 31.339844 37.949219 31.339844 L 35.226562 31.339844 C 35.222656 29.1875 33.597656 27.398438 31.445312 27.226562 Z M 30.976562 25.519531 C 29.847656 25.542969 28.71875 25.898438 27.785156 26.535156 C 26.753906 27.242188 25.957031 28.296875 25.550781 29.480469 C 25.550781 29.488281 25.550781 29.492188 25.550781 29.5 C 25.515625 29.507812 25.484375 29.519531 25.457031 29.527344 L 25.316406 29.523438 C 25.3125 29.523438 25.308594 29.523438 25.304688 29.523438 C 25.214844 29.515625 25.128906 29.550781 25.074219 29.625 C 25.074219 29.628906 25.074219 29.628906 25.074219 29.632812 C 25.023438 29.707031 25.019531 29.796875 25.054688 29.878906 C 25.054688 29.878906 25.054688 29.878906 25.054688 29.882812 L 25.527344 30.902344 L 25.53125 30.898438 C 25.539062 30.917969 25.546875 30.933594 25.5625 30.949219 C 25.589844 30.988281 25.625 31.019531 25.660156 31.03125 C 25.695312 31.050781 25.726562 31.054688 25.753906 31.054688 C 25.78125 31.058594 25.8125 31.058594 25.84375 31.046875 C 25.90625 31.027344 25.953125 30.984375 25.980469 30.933594 L 26.589844 29.972656 C 26.632812 29.902344 26.640625 29.804688 26.601562 29.722656 C 26.558594 29.648438 26.476562 29.59375 26.386719 29.589844 L 26.324219 29.585938 C 26.292969 29.566406 26.253906 29.554688 26.210938 29.539062 C 26.207031 29.527344 26.203125 29.511719 26.199219 29.496094 C 26.203125 29.492188 26.207031 29.488281 26.210938 29.480469 C 26.515625 28.699219 26.996094 27.984375 27.625 27.429688 C 28.652344 26.527344 30.050781 26.050781 31.421875 26.140625 C 32.785156 26.230469 34.101562 26.886719 35.003906 27.917969 C 35.136719 28.070312 35.257812 28.230469 35.375 28.402344 C 35.398438 28.441406 35.449219 28.457031 35.492188 28.433594 C 35.5 28.429688 35.503906 28.425781 35.507812 28.421875 L 35.847656 28.132812 C 35.882812 28.101562 35.890625 28.054688 35.859375 28.015625 C 35.394531 27.351562 34.785156 26.785156 34.09375 26.367188 C 33.296875 25.886719 32.386719 25.597656 31.457031 25.535156 C 31.300781 25.523438 31.136719 25.519531 30.976562 25.523438 L 30.976562 25.519531 " fill-opacity="1" fill-rule="nonzero"/><g clip-path="url(#e6d1747376)"><path fill="#ffffff" d="M 22.8125 46.347656 L 34.996094 46.347656 L 34.996094 47.425781 L 22.8125 47.425781 Z M 25.476562 42.875 L 32.328125 42.875 L 32.328125 45.496094 L 25.476562 45.496094 Z M 16.035156 23.09375 C 15.753906 23.09375 15.53125 23.320312 15.53125 23.59375 L 15.53125 24.761719 L 16.375 24.761719 L 16.375 23.941406 L 41.425781 23.941406 L 41.425781 39.03125 L 20.378906 39.03125 L 20.378906 39.882812 L 41.773438 39.882812 C 42.046875 39.882812 42.273438 39.65625 42.273438 39.378906 L 42.273438 23.59375 C 42.273438 23.320312 42.046875 23.09375 41.773438 23.09375 Z M 15.464844 21.234375 C 14.488281 21.234375 13.703125 22.019531 13.703125 22.996094 L 13.703125 24.761719 L 14.558594 24.761719 L 14.558594 22.996094 C 14.558594 22.472656 14.949219 22.085938 15.46875 22.085938 L 42.339844 22.085938 C 42.859375 22.085938 43.25 22.472656 43.25 22.996094 L 43.25 41.113281 C 43.25 41.636719 42.859375 42.027344 42.339844 42.027344 L 20.378906 42.027344 L 20.378906 42.875 L 24.625 42.875 L 24.625 45.496094 L 22.390625 45.496094 C 22.152344 45.496094 21.960938 45.6875 21.960938 45.925781 L 21.960938 47.847656 C 21.960938 48.085938 22.152344 48.277344 22.390625 48.277344 L 35.417969 48.277344 C 35.65625 48.277344 35.84375 48.085938 35.84375 47.847656 L 35.84375 45.925781 C 35.84375 45.6875 35.65625 45.496094 35.417969 45.496094 L 33.175781 45.496094 L 33.175781 42.875 L 42.339844 42.875 C 43.316406 42.875 44.101562 42.09375 44.101562 41.113281 L 44.101562 22.996094 C 44.101562 22.019531 43.316406 21.234375 42.339844 21.234375 L 15.464844 21.234375 " fill-opacity="1" fill-rule="nonzero"/></g><path fill="#ffffff" d="M 12.816406 45.839844 C 12.382812 45.84375 12.035156 46.191406 12.03125 46.625 C 12.03125 47.054688 12.382812 47.40625 12.816406 47.410156 C 13.246094 47.410156 13.597656 47.058594 13.597656 46.625 C 13.597656 46.191406 13.246094 45.839844 12.816406 45.839844 " fill-opacity="1" fill-rule="nonzero"/><g clip-path="url(#1f64ee3865)"><path fill="#ffffff" d="M 7.488281 26.816406 L 18.144531 26.816406 C 18.175781 26.816406 18.179688 26.824219 18.179688 26.855469 L 18.179688 44.371094 C 18.179688 44.402344 18.175781 44.410156 18.144531 44.410156 L 7.488281 44.410156 C 7.453125 44.410156 7.453125 44.402344 7.453125 44.371094 L 7.453125 26.855469 C 7.453125 26.824219 7.453125 26.816406 7.488281 26.816406 Z M 7.488281 26.039062 C 7.039062 26.039062 6.671875 26.398438 6.671875 26.847656 L 6.671875 44.375 C 6.671875 44.824219 7.039062 45.1875 7.488281 45.1875 L 18.144531 45.1875 C 18.59375 45.1875 18.960938 44.824219 18.960938 44.375 L 18.960938 26.847656 C 18.960938 26.398438 18.59375 26.039062 18.144531 26.039062 Z M 6.675781 25.464844 L 18.957031 25.464844 C 19.519531 25.464844 19.941406 25.886719 19.941406 26.441406 L 19.941406 46.96875 C 19.941406 47.523438 19.515625 47.953125 18.957031 47.953125 L 6.675781 47.953125 C 6.117188 47.953125 5.691406 47.523438 5.691406 46.96875 L 5.691406 26.441406 C 5.691406 25.886719 6.113281 25.464844 6.675781 25.464844 Z M 6.675781 24.671875 C 5.695312 24.671875 4.902344 25.460938 4.902344 26.441406 L 4.902344 46.972656 C 4.902344 47.953125 5.695312 48.742188 6.675781 48.742188 L 18.957031 48.742188 C 19.9375 48.742188 20.730469 47.953125 20.730469 46.972656 L 20.730469 26.441406 C 20.730469 25.460938 19.9375 24.671875 18.957031 24.671875 L 6.675781 24.671875 " fill-opacity="1" fill-rule="nonzero"/></g><path fill="#ffffff" d="M 12.585938 37.820312 C 12.582031 37.824219 12.566406 37.832031 12.550781 37.84375 C 12.5625 37.839844 12.574219 37.828125 12.574219 37.828125 C 12.574219 37.828125 12.578125 37.824219 12.585938 37.820312 Z M 14.570312 35.332031 C 14.566406 35.332031 14.558594 35.335938 14.558594 35.335938 C 14.558594 35.335938 14.566406 35.335938 14.570312 35.332031 Z M 12.695312 37.71875 C 12.703125 37.707031 12.695312 37.722656 12.707031 37.699219 C 12.707031 37.695312 12.707031 37.695312 12.707031 37.695312 C 12.699219 37.714844 12.699219 37.710938 12.695312 37.71875 Z M 11.515625 33.769531 C 11.472656 33.761719 11.421875 33.765625 11.378906 33.777344 C 11.285156 33.804688 11.207031 33.867188 11.160156 33.953125 L 10.453125 35.265625 L 7.265625 35.265625 L 7.265625 35.984375 L 10.660156 35.980469 C 10.714844 35.980469 10.75 35.964844 10.773438 35.953125 C 10.792969 35.945312 10.8125 35.9375 10.820312 35.9375 C 10.824219 35.933594 10.832031 35.929688 10.835938 35.925781 C 10.859375 35.914062 10.902344 35.878906 10.941406 35.832031 C 10.941406 35.832031 10.945312 35.828125 10.949219 35.828125 C 10.964844 35.8125 10.972656 35.8125 10.988281 35.785156 L 10.988281 35.78125 L 11.359375 35.09375 L 12.039062 37.625 C 12.050781 37.675781 12.074219 37.695312 12.09375 37.714844 C 12.113281 37.75 12.140625 37.792969 12.15625 37.808594 C 12.160156 37.808594 12.160156 37.808594 12.160156 37.808594 C 12.160156 37.808594 12.183594 37.824219 12.191406 37.828125 C 12.191406 37.828125 12.195312 37.832031 12.195312 37.832031 C 12.210938 37.847656 12.242188 37.878906 12.300781 37.894531 C 12.371094 37.914062 12.382812 37.898438 12.40625 37.886719 C 12.402344 37.886719 12.398438 37.886719 12.390625 37.886719 C 12.402344 37.886719 12.429688 37.886719 12.457031 37.886719 C 12.464844 37.886719 12.480469 37.886719 12.480469 37.886719 C 12.480469 37.886719 12.496094 37.875 12.5 37.871094 C 12.539062 37.855469 12.5625 37.828125 12.59375 37.804688 C 12.59375 37.804688 12.59375 37.800781 12.59375 37.800781 L 12.597656 37.800781 C 12.625 37.777344 12.660156 37.761719 12.679688 37.742188 C 12.675781 37.746094 12.6875 37.726562 12.6875 37.726562 C 12.6875 37.726562 12.691406 37.71875 12.695312 37.71875 C 12.707031 37.703125 12.726562 37.679688 12.742188 37.632812 L 13.191406 35.871094 L 13.636719 36.707031 C 13.6875 36.808594 13.765625 36.832031 13.753906 36.824219 C 13.796875 36.855469 13.867188 36.878906 13.933594 36.882812 C 13.960938 36.886719 13.976562 36.878906 14 36.875 C 14.03125 36.871094 14.066406 36.871094 14.089844 36.867188 L 14.085938 36.867188 C 14.085938 36.867188 14.09375 36.867188 14.09375 36.867188 C 14.097656 36.867188 14.109375 36.859375 14.117188 36.855469 C 14.117188 36.855469 14.140625 36.835938 14.15625 36.828125 C 14.183594 36.820312 14.195312 36.828125 14.246094 36.769531 L 14.933594 35.972656 L 18.375 35.972656 L 18.375 35.253906 L 14.773438 35.257812 C 14.773438 35.257812 14.761719 35.261719 14.761719 35.261719 C 14.75 35.261719 14.757812 35.265625 14.746094 35.265625 C 14.691406 35.269531 14.675781 35.28125 14.667969 35.289062 C 14.660156 35.292969 14.625 35.300781 14.628906 35.300781 C 14.625 35.300781 14.621094 35.300781 14.617188 35.304688 C 14.625 35.300781 14.597656 35.320312 14.597656 35.320312 L 14.59375 35.320312 C 14.589844 35.316406 14.570312 35.320312 14.523438 35.367188 C 14.503906 35.382812 14.480469 35.402344 14.480469 35.402344 L 14.03125 35.917969 L 13.394531 34.714844 C 13.390625 34.707031 13.390625 34.699219 13.386719 34.695312 C 13.386719 34.695312 13.378906 34.691406 13.378906 34.691406 L 13.386719 34.703125 C 13.378906 34.691406 13.363281 34.679688 13.355469 34.664062 C 13.347656 34.664062 13.347656 34.660156 13.34375 34.65625 C 13.300781 34.605469 13.253906 34.566406 13.195312 34.546875 C 13.195312 34.542969 13.195312 34.542969 13.191406 34.542969 C 13.1875 34.542969 13.1875 34.535156 13.1875 34.535156 C 13.179688 34.535156 13.175781 34.535156 13.171875 34.535156 C 13.167969 34.535156 13.167969 34.535156 13.167969 34.535156 C 13.164062 34.53125 13.160156 34.527344 13.15625 34.527344 C 13.152344 34.523438 13.144531 34.53125 13.140625 34.53125 C 13.136719 34.53125 13.136719 34.53125 13.136719 34.53125 C 12.953125 34.496094 12.769531 34.605469 12.722656 34.789062 L 12.382812 36.109375 L 11.832031 34.042969 C 11.828125 34.039062 11.828125 34.035156 11.828125 34.035156 C 11.828125 34.03125 11.820312 34.015625 11.804688 33.996094 C 11.777344 33.921875 11.730469 33.851562 11.648438 33.808594 C 11.609375 33.785156 11.566406 33.769531 11.515625 33.769531 " fill-opacity="1" fill-rule="nonzero"/></svg>