<svg xmlns="http://www.w3.org/2000/svg" xmlns:xlink="http://www.w3.org/1999/xlink" width="66" zoomAndPan="magnify" viewBox="0 0 49.5 70.499999" height="94" preserveAspectRatio="xMidYMid meet" version="1.0"><defs><clipPath id="5ad663fea4"><path d="M 18 22 L 31 22 L 31 39.902344 L 18 39.902344 Z M 18 22 " clip-rule="nonzero"/></clipPath><clipPath id="693a397c1d"><path d="M 17 5.003906 L 43 5.003906 L 43 34 L 17 34 Z M 17 5.003906 " clip-rule="nonzero"/></clipPath><clipPath id="8fe6517d93"><path d="M 22 5.003906 L 44.253906 5.003906 L 44.253906 38 L 22 38 Z M 22 5.003906 " clip-rule="nonzero"/></clipPath><clipPath id="d65f25bdd8"><path d="M 27 5.003906 L 44.253906 5.003906 L 44.253906 39.902344 L 27 39.902344 Z M 27 5.003906 " clip-rule="nonzero"/></clipPath><clipPath id="48b06b901c"><path d="M 6 5.003906 L 32 5.003906 L 32 34 L 6 34 Z M 6 5.003906 " clip-rule="nonzero"/></clipPath><clipPath id="f45fcafd46"><path d="M 4.902344 5.003906 L 27 5.003906 L 27 38 L 4.902344 38 Z M 4.902344 5.003906 " clip-rule="nonzero"/></clipPath><clipPath id="4fd6cf131a"><path d="M 4.902344 5.003906 L 22 5.003906 L 22 39.902344 L 4.902344 39.902344 Z M 4.902344 5.003906 " clip-rule="nonzero"/></clipPath></defs><path fill="#ffffff" d="M 24.398438 19.859375 C 25.523438 19.859375 26.4375 18.949219 26.4375 17.820312 C 26.4375 16.695312 25.523438 15.785156 24.398438 15.785156 C 23.273438 15.785156 22.363281 16.695312 22.363281 17.820312 C 22.363281 18.945312 23.273438 19.859375 24.398438 19.859375 Z M 24.398438 19.859375 " fill-opacity="1" fill-rule="nonzero"/><g clip-path="url(#5ad663fea4)"><path fill="#110c0a" d="M 24.503906 22.457031 C 23.792969 22.460938 23.332031 23.035156 23.144531 23.691406 L 18.617188 39.78125 L 30.390625 39.78125 L 25.863281 23.691406 C 25.679688 23.035156 25.214844 22.460938 24.507812 22.457031 Z M 24.503906 22.457031 " fill-opacity="1" fill-rule="nonzero"/></g><g clip-path="url(#693a397c1d)"><path stroke-linecap="round" transform="matrix(0.0553783, 0, 0, 0.0553783, 3.313311, -9.07622)" fill="none" stroke-linejoin="miter" d="M 471.811053 415.149649 C 471.811053 415.149649 496.075972 439.34403 496.075972 485.405054 M 471.811053 555.448846 C 471.811053 555.448846 496.075972 531.183927 496.075972 485.122903 " stroke="#000000" stroke-width="37.5" stroke-opacity="1" stroke-miterlimit="4"/></g><g clip-path="url(#8fe6517d93)"><path stroke-linecap="round" transform="matrix(0.0553783, 0, 0, 0.0553783, 3.313311, -9.07622)" fill="none" stroke-linejoin="miter" d="M 554.622143 344.964782 C 554.622143 344.964782 603.222518 393.424082 603.222518 485.546129 M 554.622143 625.563175 C 554.622143 625.563175 603.222518 577.103875 603.222518 484.981828 " stroke="#000000" stroke-width="37.5" stroke-opacity="1" stroke-miterlimit="4"/></g><g clip-path="url(#d65f25bdd8)"><path stroke-linecap="round" transform="matrix(0.0553783, 0, 0, 0.0553783, 3.313311, -9.07622)" fill="none" stroke-linejoin="miter" d="M 644.980751 274.850452 C 644.980751 274.850452 717.846045 347.504134 717.846045 485.687204 M 644.980751 695.748043 C 644.980751 695.748043 717.846045 623.023823 717.846045 484.840753 " stroke="#000000" stroke-width="37.5" stroke-opacity="1" stroke-miterlimit="4"/></g><g clip-path="url(#48b06b901c)"><path stroke-linecap="round" transform="matrix(0.0553783, 0, 0, 0.0553783, 3.313311, -9.07622)" fill="none" stroke-linejoin="miter" d="M 291.093837 415.149649 C 291.093837 415.149649 266.758381 439.34403 266.758381 485.405054 M 291.093837 555.448846 C 291.093837 555.448846 266.758381 531.183927 266.758381 485.122903 " stroke="#000000" stroke-width="37.5" stroke-opacity="1" stroke-miterlimit="4"/></g><g clip-path="url(#f45fcafd46)"><path stroke-linecap="round" transform="matrix(0.0553783, 0, 0, 0.0553783, 3.313311, -9.07622)" fill="none" stroke-linejoin="miter" d="M 210.681025 344.964782 C 210.681025 344.964782 162.151187 393.424082 162.151187 485.546129 M 210.681025 625.563175 C 210.681025 625.563175 162.151187 577.103875 162.151187 484.981828 " stroke="#000000" stroke-width="37.5" stroke-opacity="1" stroke-miterlimit="4"/></g><g clip-path="url(#4fd6cf131a)"><path stroke-linecap="round" transform="matrix(0.0553783, 0, 0, 0.0553783, 3.313311, -9.07622)" fill="none" stroke-linejoin="miter" d="M 120.322417 274.850452 C 120.322417 274.850452 47.52766 347.504134 47.52766 485.687204 M 120.322417 695.748043 C 120.322417 695.748043 47.52766 623.023823 47.52766 484.840753 " stroke="#000000" stroke-width="37.5" stroke-opacity="1" stroke-miterlimit="4"/></g></svg>