<svg xmlns="http://www.w3.org/2000/svg" xmlns:xlink="http://www.w3.org/1999/xlink" width="66" zoomAndPan="magnify" viewBox="0 0 49.5 70.499999" height="94" preserveAspectRatio="xMidYMid meet" version="1.0"><defs><clipPath id="a0f08e1b0c"><path d="M 22 56 L 27 56 L 27 56.722656 L 22 56.722656 Z M 22 56 " clip-rule="nonzero"/></clipPath><clipPath id="688eb76408"><path d="M 24 12.914062 L 25 12.914062 L 25 20 L 24 20 Z M 24 12.914062 " clip-rule="nonzero"/></clipPath><clipPath id="e898df69d3"><path d="M 4.902344 33 L 11 33 L 11 34 L 4.902344 34 Z M 4.902344 33 " clip-rule="nonzero"/></clipPath><clipPath id="b2026307d4"><path d="M 38 33 L 44.253906 33 L 44.253906 34 L 38 34 Z M 38 33 " clip-rule="nonzero"/></clipPath></defs><path fill="#ffffff" d="M 31.796875 24.402344 C 29.707031 22.363281 26.949219 21.277344 24.027344 21.347656 C 18.179688 21.484375 13.476562 26.355469 13.539062 32.203125 C 13.570312 35.050781 14.703125 37.722656 16.730469 39.722656 C 18.050781 41.027344 18.808594 42.867188 18.808594 44.769531 L 18.808594 47.25 C 18.808594 47.488281 19.003906 47.679688 19.242188 47.679688 C 19.484375 47.679688 19.675781 47.488281 19.675781 47.25 L 19.675781 44.769531 C 19.675781 42.636719 18.824219 40.574219 17.339844 39.109375 C 15.476562 37.265625 14.433594 34.8125 14.40625 32.195312 C 14.347656 26.820312 18.671875 22.339844 24.046875 22.214844 C 26.730469 22.152344 29.269531 23.148438 31.191406 25.023438 C 33.109375 26.898438 34.167969 29.40625 34.167969 32.085938 C 34.167969 34.738281 33.128906 37.226562 31.246094 39.09375 C 29.75 40.574219 28.894531 42.644531 28.894531 44.769531 L 28.894531 47.25 C 28.894531 47.488281 29.089844 47.683594 29.328125 47.683594 C 29.566406 47.683594 29.761719 47.488281 29.761719 47.25 L 29.761719 44.769531 C 29.761719 42.875 30.523438 41.03125 31.855469 39.710938 C 33.902344 37.675781 35.035156 34.96875 35.035156 32.085938 C 35.035156 29.167969 33.882812 26.441406 31.796875 24.402344 Z M 31.796875 24.402344 " fill-opacity="1" fill-rule="nonzero"/><path fill="#ffffff" d="M 29.359375 48.730469 L 19.277344 48.730469 C 19.042969 48.730469 18.847656 48.917969 18.84375 49.15625 L 18.8125 50.984375 C 18.8125 52.332031 19.90625 53.425781 21.253906 53.425781 L 27.316406 53.425781 C 28.664062 53.425781 29.761719 52.332031 29.761719 50.992188 L 29.792969 49.171875 C 29.796875 49.054688 29.75 48.941406 29.671875 48.859375 C 29.589844 48.777344 29.476562 48.730469 29.359375 48.730469 Z M 28.894531 50.984375 C 28.894531 51.855469 28.1875 52.5625 27.316406 52.5625 L 21.253906 52.5625 C 20.386719 52.5625 19.675781 51.855469 19.675781 50.992188 L 19.703125 49.59375 L 28.921875 49.59375 Z M 28.894531 50.984375 " fill-opacity="1" fill-rule="nonzero"/><path fill="#ffffff" d="M 27.46875 54.050781 L 21.308594 54.050781 C 21.070312 54.050781 20.878906 54.246094 20.878906 54.484375 C 20.878906 54.722656 21.070312 54.917969 21.308594 54.917969 L 27.46875 54.917969 C 27.707031 54.917969 27.902344 54.722656 27.902344 54.484375 C 27.902344 54.246094 27.707031 54.050781 27.46875 54.050781 Z M 27.46875 54.050781 " fill-opacity="1" fill-rule="nonzero"/><g clip-path="url(#a0f08e1b0c)"><path fill="#ffffff" d="M 26.191406 56.21875 L 22.519531 56.21875 C 22.28125 56.21875 22.085938 56.410156 22.085938 56.648438 C 22.085938 56.890625 22.28125 57.082031 22.519531 57.082031 L 26.191406 57.082031 C 26.429688 57.082031 26.625 56.890625 26.625 56.648438 C 26.625 56.410156 26.429688 56.21875 26.191406 56.21875 Z M 26.191406 56.21875 " fill-opacity="1" fill-rule="nonzero"/></g><path fill="#ffffff" d="M 22.519531 37.894531 C 22.828125 37.894531 23.121094 37.761719 23.328125 37.53125 L 30.136719 29.863281 C 30.535156 29.417969 30.492188 28.734375 30.046875 28.335938 C 29.597656 27.9375 28.914062 27.980469 28.515625 28.425781 L 22.613281 35.074219 L 19.820312 31.148438 C 19.472656 30.660156 18.796875 30.546875 18.308594 30.894531 C 17.820312 31.238281 17.707031 31.914062 18.054688 32.402344 L 21.636719 37.4375 C 21.828125 37.707031 22.132812 37.875 22.460938 37.890625 C 22.480469 37.894531 22.5 37.894531 22.519531 37.894531 Z M 22.519531 37.894531 " fill-opacity="1" fill-rule="nonzero"/><g clip-path="url(#688eb76408)"><path fill="#ffffff" d="M 24.503906 19.785156 C 24.742188 19.785156 24.933594 19.59375 24.933594 19.355469 L 24.933594 13.347656 C 24.933594 13.109375 24.742188 12.914062 24.503906 12.914062 C 24.261719 12.914062 24.070312 13.109375 24.070312 13.347656 L 24.070312 19.355469 C 24.070312 19.59375 24.261719 19.785156 24.503906 19.785156 Z M 24.503906 19.785156 " fill-opacity="1" fill-rule="nonzero"/></g><g clip-path="url(#e898df69d3)"><path fill="#ffffff" d="M 10.414062 33 L 5.339844 33 C 5.101562 33 4.90625 33.195312 4.90625 33.433594 C 4.90625 33.671875 5.101562 33.867188 5.339844 33.867188 L 10.414062 33.867188 C 10.652344 33.867188 10.847656 33.671875 10.847656 33.433594 C 10.847656 33.195312 10.652344 33 10.414062 33 Z M 10.414062 33 " fill-opacity="1" fill-rule="nonzero"/></g><g clip-path="url(#b2026307d4)"><path fill="#ffffff" d="M 43.660156 33 L 38.589844 33 C 38.351562 33 38.15625 33.195312 38.15625 33.433594 C 38.15625 33.671875 38.351562 33.867188 38.589844 33.867188 L 43.660156 33.867188 C 43.902344 33.867188 44.09375 33.671875 44.09375 33.433594 C 44.09375 33.195312 43.902344 33 43.660156 33 Z M 43.660156 33 " fill-opacity="1" fill-rule="nonzero"/></g><path fill="#ffffff" d="M 14.234375 43.082031 L 11.09375 46.222656 C 10.925781 46.390625 10.925781 46.664062 11.09375 46.832031 C 11.179688 46.917969 11.289062 46.960938 11.402344 46.960938 C 11.511719 46.960938 11.625 46.917969 11.707031 46.832031 L 14.847656 43.695312 C 15.015625 43.527344 15.015625 43.253906 14.847656 43.082031 C 14.675781 42.914062 14.402344 42.914062 14.234375 43.082031 Z M 14.234375 43.082031 " fill-opacity="1" fill-rule="nonzero"/><path fill="#ffffff" d="M 34.460938 23.910156 C 34.574219 23.910156 34.683594 23.867188 34.769531 23.785156 L 38.820312 19.734375 C 38.988281 19.566406 38.988281 19.289062 38.820312 19.121094 C 38.652344 18.953125 38.378906 18.953125 38.207031 19.121094 L 34.15625 23.171875 C 33.988281 23.339844 33.988281 23.613281 34.15625 23.785156 C 34.242188 23.867188 34.351562 23.910156 34.460938 23.910156 Z M 34.460938 23.910156 " fill-opacity="1" fill-rule="nonzero"/><path fill="#ffffff" d="M 34.769531 43.082031 C 34.601562 42.914062 34.324219 42.914062 34.15625 43.082031 C 33.988281 43.253906 33.988281 43.527344 34.15625 43.695312 L 37.292969 46.832031 C 37.378906 46.917969 37.488281 46.960938 37.601562 46.960938 C 37.710938 46.960938 37.824219 46.917969 37.90625 46.832031 C 38.078125 46.664062 38.078125 46.390625 37.90625 46.222656 Z M 34.769531 43.082031 " fill-opacity="1" fill-rule="nonzero"/><path fill="#ffffff" d="M 14.234375 23.785156 C 14.316406 23.867188 14.429688 23.910156 14.539062 23.910156 C 14.648438 23.910156 14.761719 23.867188 14.847656 23.785156 C 15.015625 23.613281 15.015625 23.339844 14.847656 23.171875 L 10.792969 19.121094 C 10.625 18.953125 10.351562 18.953125 10.183594 19.121094 C 10.011719 19.289062 10.011719 19.566406 10.183594 19.734375 Z M 14.234375 23.785156 " fill-opacity="1" fill-rule="nonzero"/></svg>