<svg xmlns="http://www.w3.org/2000/svg" xmlns:xlink="http://www.w3.org/1999/xlink" width="66" zoomAndPan="magnify" viewBox="0 0 49.5 70.499999" height="94" preserveAspectRatio="xMidYMid meet" version="1.0"><defs><clipPath id="63fe18b5ac"><path d="M 4.902344 22.554688 L 44.253906 22.554688 L 44.253906 47.800781 L 4.902344 47.800781 Z M 4.902344 22.554688 " clip-rule="nonzero"/></clipPath></defs><g clip-path="url(#63fe18b5ac)"><path fill="#ffffff" d="M 29.226562 47.378906 C 29.289062 47.355469 30.441406 46.640625 33.960938 44.453125 C 34.402344 44.179688 35.167969 43.703125 35.660156 43.390625 C 36.609375 42.796875 39.53125 40.976562 42.257812 39.285156 C 43.164062 38.722656 43.933594 38.230469 43.964844 38.1875 C 44.058594 38.070312 44.035156 37.992188 43.871094 37.824219 C 43.734375 37.6875 43.675781 37.664062 43.363281 37.632812 C 42.757812 37.574219 42.824219 37.761719 42.757812 35.953125 C 42.726562 35.089844 42.691406 34.316406 42.675781 34.234375 C 42.65625 34.089844 42.667969 34.074219 42.984375 33.890625 C 43.226562 33.75 43.324219 33.660156 43.347656 33.570312 C 43.414062 33.316406 43.214844 33.230469 40.984375 32.566406 C 38.742188 31.898438 36.183594 31.109375 36.144531 31.070312 C 36.121094 31.046875 36.410156 30.609375 36.804688 30.0625 C 37.191406 29.535156 37.527344 29.058594 37.554688 29.007812 C 37.746094 28.632812 37.792969 27.292969 37.644531 26.46875 C 37.503906 25.679688 37.171875 24.921875 36.828125 24.589844 L 36.691406 24.460938 L 34.738281 24.273438 C 33.664062 24.167969 32.222656 24.03125 31.535156 23.96875 C 30.847656 23.902344 29.871094 23.808594 29.367188 23.753906 C 28.863281 23.703125 27.992188 23.617188 27.433594 23.5625 C 25.421875 23.371094 24 23.238281 23.027344 23.144531 C 22.484375 23.089844 21.59375 23.007812 21.050781 22.953125 C 19.550781 22.8125 18.238281 22.683594 17.609375 22.617188 C 17.296875 22.585938 16.964844 22.554688 16.871094 22.554688 C 16.71875 22.554688 16.546875 22.683594 14.941406 24.015625 C 13.972656 24.816406 12.957031 25.65625 12.683594 25.878906 C 10.753906 27.441406 8.246094 29.566406 8.183594 29.695312 C 8.09375 29.863281 8.121094 30.070312 8.246094 30.175781 C 8.402344 30.3125 8.546875 30.359375 8.996094 30.414062 L 9.457031 30.472656 L 9.496094 30.9375 C 9.515625 31.191406 9.515625 31.417969 9.496094 31.4375 C 9.472656 31.457031 8.699219 31.730469 7.773438 32.039062 C 6.121094 32.597656 6.082031 32.609375 5.8125 32.84375 C 5.488281 33.128906 5.1875 33.648438 5.0625 34.148438 C 4.945312 34.632812 4.941406 36.433594 5.0625 36.992188 C 5.171875 37.496094 5.292969 37.8125 5.484375 38.105469 L 5.640625 38.339844 L 7.195312 38.933594 C 10.769531 40.292969 12.953125 41.125 15.863281 42.230469 C 16.332031 42.40625 17.136719 42.714844 17.65625 42.910156 C 18.175781 43.109375 19.246094 43.515625 20.035156 43.816406 C 20.828125 44.113281 21.960938 44.550781 22.558594 44.785156 C 23.152344 45.019531 23.992188 45.34375 24.417969 45.503906 C 24.847656 45.664062 25.855469 46.046875 26.65625 46.347656 C 27.460938 46.652344 28.234375 46.972656 28.378906 47.058594 C 28.921875 47.386719 29.066406 47.441406 29.226562 47.378906 Z M 27.765625 46.230469 C 27.570312 46.15625 27.0625 45.960938 26.632812 45.796875 L 25.855469 45.496094 L 25.824219 45.3125 C 25.757812 44.949219 25.78125 42.5625 25.855469 42.089844 C 25.953125 41.445312 26.191406 40.769531 26.320312 40.769531 C 26.351562 40.769531 26.589844 40.851562 26.847656 40.953125 C 27.105469 41.054688 27.6875 41.273438 28.136719 41.445312 C 28.585938 41.617188 28.964844 41.765625 28.980469 41.777344 C 28.992188 41.792969 28.925781 42.03125 28.832031 42.3125 C 28.398438 43.621094 28.238281 44.707031 28.328125 45.691406 C 28.355469 46 28.390625 46.265625 28.40625 46.289062 C 28.417969 46.3125 28.417969 46.351562 28.398438 46.382812 C 28.359375 46.445312 28.226562 46.414062 27.765625 46.230469 Z M 28.863281 46.152344 C 28.839844 46.082031 28.828125 45.589844 28.828125 45.058594 C 28.832031 44.179688 28.84375 44.046875 28.957031 43.59375 C 29.140625 42.855469 29.386719 42.140625 29.539062 41.894531 C 29.683594 41.660156 29.582031 41.722656 32.476562 40.039062 C 32.929688 39.777344 33.386719 39.503906 33.492188 39.4375 C 33.59375 39.371094 34.878906 38.617188 36.34375 37.761719 C 37.808594 36.910156 39.699219 35.804688 40.550781 35.308594 C 41.398438 34.8125 42.125 34.40625 42.164062 34.40625 C 42.21875 34.40625 42.234375 34.480469 42.234375 34.773438 C 42.230469 34.972656 42.257812 35.769531 42.289062 36.546875 L 42.34375 37.957031 L 42.230469 38.046875 C 42.167969 38.097656 41.191406 38.714844 40.066406 39.414062 C 38.9375 40.113281 37.433594 41.046875 36.71875 41.488281 C 36.007812 41.933594 34.796875 42.679688 34.035156 43.148438 C 32.316406 44.207031 30.492188 45.339844 29.648438 45.875 C 29.300781 46.09375 28.988281 46.277344 28.957031 46.28125 C 28.925781 46.28125 28.882812 46.222656 28.863281 46.152344 Z M 32.5 42.285156 C 34.386719 41.328125 35.707031 40.609375 36.570312 40.074219 C 37.488281 39.507812 38.8125 38.605469 38.773438 38.566406 C 38.753906 38.546875 38.429688 38.734375 37.097656 39.550781 C 35.949219 40.253906 35.359375 40.582031 33.328125 41.664062 C 31.828125 42.464844 30.707031 43.089844 30.617188 43.175781 C 30.503906 43.289062 30.789062 43.152344 32.5 42.285156 Z M 33.019531 43.023438 C 33.621094 42.710938 35.132812 41.746094 35.261719 41.59375 C 35.386719 41.441406 35.179688 41.535156 34.511719 41.929688 C 33.738281 42.386719 32.78125 43.007812 32.738281 43.078125 C 32.691406 43.152344 32.816406 43.128906 33.019531 43.023438 Z M 37.6875 38.238281 C 37.761719 38.195312 38.1875 37.945312 38.628906 37.679688 C 39.070312 37.414062 39.707031 37.066406 40.042969 36.90625 C 40.378906 36.742188 40.632812 36.601562 40.605469 36.589844 C 40.519531 36.558594 39.746094 36.847656 39.296875 37.082031 C 38.644531 37.414062 37.335938 38.3125 37.496094 38.3125 C 37.523438 38.3125 37.609375 38.28125 37.6875 38.238281 Z M 30.214844 46.121094 C 30.214844 46.113281 30.25 46.09375 30.289062 46.078125 C 30.332031 46.058594 30.351562 46.066406 30.332031 46.09375 C 30.304688 46.140625 30.214844 46.160156 30.214844 46.121094 Z M 30.804688 45.765625 C 30.820312 45.738281 30.859375 45.71875 30.890625 45.71875 C 30.925781 45.71875 30.917969 45.738281 30.875 45.765625 C 30.785156 45.824219 30.769531 45.824219 30.804688 45.765625 Z M 31.300781 45.460938 C 31.300781 45.449219 31.347656 45.414062 31.40625 45.386719 C 31.507812 45.335938 31.507812 45.339844 31.421875 45.410156 C 31.324219 45.484375 31.300781 45.496094 31.300781 45.460938 Z M 24.671875 45.054688 C 23.886719 44.761719 23.929688 44.808594 23.96875 44.238281 C 24.054688 42.953125 24.53125 40.398438 24.714844 40.21875 C 24.757812 40.179688 24.886719 40.210938 25.230469 40.339844 C 25.484375 40.4375 25.710938 40.535156 25.734375 40.558594 C 25.761719 40.585938 25.71875 40.773438 25.621094 41.054688 C 25.355469 41.824219 25.304688 42.253906 25.308594 43.84375 C 25.3125 44.996094 25.300781 45.246094 25.25 45.246094 C 25.214844 45.246094 24.953125 45.160156 24.671875 45.054688 Z M 22.910156 44.394531 C 22.464844 44.242188 22.472656 44.25 22.507812 43.808594 C 22.574219 43.015625 23.050781 40.828125 23.289062 40.203125 C 23.496094 39.671875 23.503906 39.667969 23.863281 39.804688 C 24.023438 39.871094 24.171875 39.9375 24.195312 39.960938 C 24.21875 39.984375 24.152344 40.347656 24.046875 40.773438 C 23.773438 41.878906 23.476562 43.757812 23.476562 44.367188 C 23.476562 44.542969 23.46875 44.546875 23.347656 44.523438 C 23.277344 44.511719 23.078125 44.453125 22.910156 44.394531 Z M 32.949219 44.425781 C 32.949219 44.417969 32.980469 44.394531 33.023438 44.378906 C 33.0625 44.363281 33.082031 44.371094 33.066406 44.398438 C 33.039062 44.441406 32.949219 44.464844 32.949219 44.425781 Z M 21.683594 43.933594 L 21.519531 43.855469 L 21.527344 43.089844 C 21.535156 42.257812 21.574219 41.945312 21.785156 41.050781 C 22.03125 39.996094 22.3125 39.308594 22.492188 39.308594 C 22.585938 39.308594 22.957031 39.441406 23.023438 39.5 C 23.046875 39.519531 22.988281 39.714844 22.894531 39.933594 C 22.800781 40.152344 22.65625 40.589844 22.578125 40.90625 C 22.382812 41.699219 22.078125 43.265625 22.039062 43.679688 C 22 44.058594 21.976562 44.078125 21.683594 43.933594 Z M 34.035156 43.761719 C 34.035156 43.75 34.082031 43.71875 34.140625 43.691406 C 34.242188 43.640625 34.242188 43.640625 34.152344 43.710938 C 34.058594 43.789062 34.035156 43.800781 34.035156 43.761719 Z M 20.414062 43.453125 C 20.140625 43.347656 19.355469 43.046875 18.667969 42.789062 C 17.980469 42.527344 16.402344 41.925781 15.15625 41.453125 C 13.914062 40.980469 12.40625 40.40625 11.8125 40.179688 C 8.882812 39.066406 8.285156 38.835938 8.265625 38.816406 C 8.191406 38.742188 8.105469 37.996094 8.082031 37.207031 C 8.058594 36.472656 8.066406 36.238281 8.132812 35.914062 C 8.277344 35.167969 8.601562 34.359375 8.75 34.359375 C 8.84375 34.359375 9.179688 34.53125 9.222656 34.597656 C 9.238281 34.625 9.09375 34.8125 8.894531 35.015625 C 8.535156 35.386719 8.484375 35.492188 8.585938 35.679688 C 8.664062 35.832031 8.796875 35.871094 9.492188 35.941406 C 9.859375 35.976562 10.363281 36.027344 10.609375 36.054688 C 10.855469 36.082031 11.714844 36.167969 12.519531 36.246094 C 14.089844 36.394531 14.8125 36.46875 15.109375 36.507812 C 15.214844 36.519531 15.480469 36.601562 15.699219 36.691406 C 15.921875 36.777344 16.238281 36.902344 16.40625 36.96875 C 16.726562 37.089844 20.214844 38.414062 21.277344 38.816406 C 21.613281 38.941406 21.894531 39.074219 21.910156 39.109375 C 21.921875 39.144531 21.855469 39.335938 21.765625 39.535156 C 21.394531 40.332031 21.078125 41.789062 21.039062 42.902344 C 21.019531 43.394531 20.992188 43.644531 20.960938 43.644531 C 20.929688 43.640625 20.683594 43.554688 20.414062 43.453125 Z M 34.554688 43.433594 C 34.613281 43.375 36.339844 42.289062 38.699219 40.824219 C 42.605469 38.402344 42.632812 38.386719 42.714844 38.21875 C 42.761719 38.132812 42.820312 38.0625 42.847656 38.0625 C 42.871094 38.066406 42.945312 38.070312 43.011719 38.074219 C 43.074219 38.078125 43.128906 38.101562 43.128906 38.128906 C 43.128906 38.179688 43.113281 38.191406 41.972656 38.894531 C 41.535156 39.167969 40.207031 39.992188 39.027344 40.722656 C 37.847656 41.457031 36.429688 42.332031 35.871094 42.667969 C 35.3125 43.003906 34.785156 43.332031 34.695312 43.390625 C 34.507812 43.515625 34.453125 43.535156 34.554688 43.433594 Z M 27.964844 40.835938 C 26.734375 40.367188 25.921875 40.058594 23.546875 39.167969 C 22.359375 38.722656 20.03125 37.839844 19.636719 37.683594 C 19.480469 37.625 18.890625 37.398438 18.324219 37.183594 C 17.761719 36.96875 17.316406 36.777344 17.335938 36.757812 C 17.355469 36.738281 17.542969 36.742188 17.75 36.765625 C 17.957031 36.789062 18.804688 36.871094 19.636719 36.949219 C 20.464844 37.03125 21.324219 37.117188 21.542969 37.140625 C 21.765625 37.164062 22.496094 37.238281 23.171875 37.304688 C 23.84375 37.367188 24.585938 37.441406 24.820312 37.46875 C 25.054688 37.492188 25.59375 37.546875 26.019531 37.589844 C 26.449219 37.628906 26.988281 37.679688 27.222656 37.707031 C 27.457031 37.730469 28.019531 37.785156 28.472656 37.828125 C 28.925781 37.867188 29.652344 37.941406 30.085938 37.984375 C 30.519531 38.027344 30.914062 38.046875 30.964844 38.027344 C 31.039062 38 32.503906 36.011719 35.15625 32.335938 C 35.589844 31.734375 35.761719 31.53125 35.835938 31.53125 C 35.921875 31.53125 39.222656 32.527344 40.207031 32.851562 C 40.425781 32.921875 40.796875 33.039062 41.03125 33.109375 C 41.265625 33.179688 41.625 33.289062 41.832031 33.355469 C 42.039062 33.417969 42.261719 33.488281 42.328125 33.507812 C 42.394531 33.527344 42.445312 33.566406 42.445312 33.59375 C 42.445312 33.625 41.789062 34.03125 40.984375 34.503906 C 39.371094 35.445312 34.246094 38.433594 31.347656 40.121094 C 30.324219 40.71875 29.445312 41.234375 29.390625 41.269531 C 29.339844 41.304688 29.292969 41.335938 29.285156 41.335938 C 29.28125 41.335938 28.683594 41.109375 27.964844 40.835938 Z M 7.371094 38.480469 C 7.226562 38.386719 7.195312 38.109375 7.234375 37.191406 C 7.269531 36.347656 7.347656 35.710938 7.496094 35.019531 C 7.597656 34.554688 7.835938 33.980469 7.921875 33.980469 C 7.953125 33.980469 8.035156 34.015625 8.113281 34.050781 L 8.246094 34.121094 L 8.085938 34.46875 C 7.859375 34.960938 7.695312 35.566406 7.605469 36.21875 C 7.53125 36.773438 7.546875 37.347656 7.671875 38.382812 C 7.699219 38.605469 7.699219 38.609375 7.589844 38.578125 C 7.527344 38.558594 7.429688 38.515625 7.371094 38.480469 Z M 6.332031 38.097656 C 6.160156 38.03125 5.980469 37.945312 5.9375 37.90625 C 5.8125 37.800781 5.628906 37.335938 5.535156 36.902344 C 5.433594 36.421875 5.417969 34.796875 5.511719 34.335938 C 5.566406 34.046875 5.777344 33.582031 5.9375 33.371094 L 6.027344 33.257812 L 6.707031 33.515625 C 7.175781 33.695312 7.378906 33.792969 7.375 33.84375 C 7.367188 33.878906 7.3125 34.039062 7.246094 34.195312 C 6.980469 34.832031 6.796875 35.992188 6.757812 37.269531 C 6.746094 37.792969 6.714844 38.222656 6.691406 38.222656 C 6.671875 38.222656 6.507812 38.167969 6.332031 38.097656 Z M 29.085938 37.398438 C 28.421875 37.332031 27.585938 37.25 27.222656 37.210938 C 26.277344 37.113281 25.3125 37.015625 24.417969 36.929688 C 23.992188 36.886719 23.449219 36.832031 23.21875 36.808594 C 22.984375 36.78125 22.136719 36.699219 21.332031 36.621094 C 20.527344 36.542969 19.679688 36.460938 19.445312 36.4375 C 18.945312 36.382812 18.3125 36.316406 17.277344 36.21875 C 16.863281 36.179688 16.332031 36.125 16.101562 36.101562 C 15.867188 36.074219 15.019531 35.992188 14.214844 35.914062 C 13.410156 35.835938 12.660156 35.765625 12.542969 35.75 C 12.300781 35.722656 10.796875 35.574219 9.867188 35.484375 C 9.480469 35.449219 9.242188 35.40625 9.242188 35.375 C 9.242188 35.3125 9.601562 34.960938 9.730469 34.890625 C 9.785156 34.863281 9.902344 34.859375 10.027344 34.882812 C 10.140625 34.90625 10.671875 34.964844 11.210938 35.015625 C 12.570312 35.148438 13.109375 35.203125 13.601562 35.257812 C 13.835938 35.28125 14.683594 35.367188 15.488281 35.441406 C 16.292969 35.519531 17.140625 35.605469 17.375 35.628906 C 17.605469 35.65625 18.148438 35.710938 18.574219 35.75 C 19.003906 35.792969 19.660156 35.855469 20.035156 35.894531 C 20.773438 35.972656 21.511719 36.042969 23.097656 36.195312 C 24.328125 36.3125 28.605469 36.734375 29.734375 36.851562 C 30.5 36.929688 30.558594 36.929688 30.726562 36.855469 C 30.863281 36.792969 31.074219 36.558594 31.652344 35.816406 C 35.183594 31.292969 35.964844 30.296875 36.050781 30.210938 C 36.152344 30.109375 35.707031 30.753906 34.953125 31.792969 C 32.9375 34.570312 30.894531 37.367188 30.808594 37.460938 C 30.726562 37.554688 30.679688 37.566406 30.5 37.542969 C 30.382812 37.527344 29.746094 37.464844 29.085938 37.398438 Z M 28.945312 36.292969 C 28.101562 36.207031 26.804688 36.074219 21.449219 35.539062 C 20.425781 35.4375 19.164062 35.308594 18.644531 35.257812 C 18.128906 35.203125 16.621094 35.054688 15.300781 34.921875 C 12.699219 34.667969 11.234375 34.523438 10.621094 34.457031 C 10.40625 34.4375 10.214844 34.402344 10.195312 34.382812 C 10.175781 34.367188 10.160156 33.871094 10.15625 33.28125 C 10.152344 32.695312 10.125 32.054688 10.09375 31.863281 C 10.066406 31.667969 10.027344 31.289062 10.011719 31.015625 L 9.984375 30.527344 L 10.378906 30.558594 C 10.597656 30.574219 11.21875 30.628906 11.765625 30.683594 C 12.308594 30.734375 13.304688 30.832031 13.980469 30.894531 C 14.652344 30.957031 15.652344 31.054688 16.195312 31.105469 C 17.933594 31.273438 19.113281 31.386719 21.167969 31.578125 C 22.269531 31.679688 23.722656 31.820312 24.394531 31.886719 C 25.070312 31.949219 26.171875 32.054688 26.847656 32.121094 C 29.3125 32.351562 30.097656 32.429688 30.15625 32.449219 C 30.199219 32.464844 30.210938 32.917969 30.203125 34.429688 L 30.191406 36.386719 L 30.03125 36.386719 C 29.941406 36.386719 29.453125 36.34375 28.945312 36.292969 Z M 25.636719 35.679688 C 25.566406 35.660156 25.375 35.628906 25.210938 35.609375 C 25.046875 35.59375 24.160156 35.484375 23.242188 35.371094 C 17.988281 34.71875 16.066406 34.511719 16.476562 34.640625 C 16.910156 34.773438 22.050781 35.433594 24.390625 35.65625 C 25.210938 35.734375 25.851562 35.746094 25.636719 35.679688 Z M 28.164062 34.269531 C 28.375 34.21875 27.761719 34.179688 26.1875 34.144531 C 25.460938 34.128906 23.964844 34.089844 22.867188 34.050781 C 21.765625 34.015625 20.855469 33.996094 20.84375 34.007812 C 20.832031 34.019531 20.832031 34.039062 20.84375 34.050781 C 20.871094 34.082031 21.773438 34.160156 22.746094 34.222656 C 23.738281 34.28125 27.972656 34.320312 28.164062 34.269531 Z M 27.265625 33.105469 C 27.597656 33.070312 27.925781 33.023438 27.996094 33 C 28.164062 32.9375 27.757812 32.933594 26.09375 32.992188 C 24.632812 33.042969 24.183594 33.078125 24.183594 33.140625 C 24.183594 33.203125 26.578125 33.179688 27.265625 33.105469 Z M 17.042969 32.339844 C 17.132812 32.296875 17.132812 32.292969 17.019531 32.269531 C 16.953125 32.257812 16.636719 32.230469 16.3125 32.21875 C 15.988281 32.203125 15.226562 32.160156 14.617188 32.121094 C 12.816406 32.003906 12.464844 31.992188 12.542969 32.042969 C 12.628906 32.097656 13.550781 32.222656 14.332031 32.28125 C 15.207031 32.351562 16.933594 32.386719 17.042969 32.339844 Z M 30.6875 34.164062 L 30.6875 32.230469 L 31.714844 30.972656 C 32.28125 30.28125 33.125 29.25 33.589844 28.675781 C 34.054688 28.101562 34.875 27.089844 35.414062 26.425781 C 35.953125 25.761719 36.40625 25.214844 36.414062 25.214844 C 36.460938 25.214844 36.574219 25.507812 36.675781 25.898438 C 36.777344 26.277344 36.789062 26.425781 36.789062 27.21875 C 36.789062 28.542969 36.882812 28.351562 35.234375 30.425781 C 34.921875 30.816406 33.789062 32.261719 32.714844 33.640625 C 31.640625 35.015625 30.746094 36.132812 30.726562 36.121094 C 30.703125 36.109375 30.6875 35.226562 30.6875 34.164062 Z M 31.925781 32.707031 C 32.363281 32.257812 32.742188 31.71875 32.625 31.71875 C 32.578125 31.71875 31.859375 32.519531 31.554688 32.910156 C 31.234375 33.320312 31.441406 33.210938 31.925781 32.707031 Z M 35.371094 29.871094 C 35.996094 29.167969 36.527344 28.421875 36.398438 28.421875 C 36.316406 28.421875 34.976562 30.078125 34.976562 30.175781 C 34.976562 30.269531 35.089844 30.183594 35.371094 29.871094 Z M 35.695312 27.917969 C 36.078125 27.539062 36.425781 27.074219 36.375 27.023438 C 36.332031 26.980469 36.035156 27.269531 35.640625 27.738281 C 35.183594 28.285156 35.1875 28.28125 35.265625 28.28125 C 35.304688 28.28125 35.496094 28.117188 35.695312 27.917969 Z M 9.371094 34.117188 C 9.261719 34.0625 9.121094 33.980469 9.054688 33.933594 C 8.988281 33.890625 8.449219 33.667969 7.851562 33.441406 C 7.257812 33.214844 6.75 33.011719 6.726562 32.988281 C 6.671875 32.9375 6.671875 32.9375 8.269531 32.394531 C 8.992188 32.152344 9.597656 31.964844 9.613281 31.980469 C 9.671875 32.035156 9.679688 34.21875 9.621094 34.21875 C 9.59375 34.21875 9.480469 34.171875 9.371094 34.117188 Z M 29.195312 31.863281 C 28.679688 31.8125 27.464844 31.695312 26.492188 31.601562 C 25.519531 31.507812 24.175781 31.378906 23.5 31.316406 C 22.824219 31.25 21.871094 31.15625 21.378906 31.105469 C 20.886719 31.058594 20.027344 30.972656 19.46875 30.921875 C 18.914062 30.867188 17.90625 30.769531 17.230469 30.707031 C 16.558594 30.640625 15.5625 30.546875 15.015625 30.496094 C 14.472656 30.441406 13.582031 30.359375 13.039062 30.304688 C 12.492188 30.253906 11.496094 30.15625 10.820312 30.09375 C 8.550781 29.878906 8.640625 29.894531 8.773438 29.769531 C 8.8125 29.734375 9.734375 28.96875 10.820312 28.066406 C 11.910156 27.167969 12.9375 26.308594 13.109375 26.164062 C 13.371094 25.933594 16.578125 23.269531 16.785156 23.109375 C 16.84375 23.0625 17.0625 23.070312 17.824219 23.144531 C 18.355469 23.195312 19.339844 23.289062 20.011719 23.355469 C 20.6875 23.417969 21.683594 23.511719 22.226562 23.566406 C 22.773438 23.617188 23.664062 23.703125 24.207031 23.753906 C 24.75 23.808594 25.640625 23.890625 26.1875 23.945312 C 27.523438 24.074219 29.410156 24.253906 30.640625 24.367188 C 31.195312 24.417969 32.089844 24.503906 32.621094 24.554688 C 33.152344 24.605469 34.074219 24.691406 34.667969 24.746094 C 35.882812 24.855469 35.964844 24.867188 35.964844 24.9375 C 35.964844 24.964844 35.5625 25.476562 35.074219 26.078125 C 30.128906 32.140625 30.28125 31.957031 30.195312 31.957031 C 30.160156 31.957031 29.710938 31.914062 29.195312 31.863281 Z M 29.195312 31.863281 " fill-opacity="1" fill-rule="nonzero"/></g></svg>