<svg xmlns="http://www.w3.org/2000/svg" xmlns:xlink="http://www.w3.org/1999/xlink" width="66" zoomAndPan="magnify" viewBox="0 0 49.5 70.499999" height="94" preserveAspectRatio="xMidYMid meet" version="1.0"><defs><clipPath id="71b60d1921"><path d="M 11 12.175781 L 44.253906 12.175781 L 44.253906 57.46875 L 11 57.46875 Z M 11 12.175781 " clip-rule="nonzero"/></clipPath><clipPath id="cf67cea620"><path d="M 32 12.175781 L 44.253906 12.175781 L 44.253906 24 L 32 24 Z M 32 12.175781 " clip-rule="nonzero"/></clipPath><clipPath id="fdbfae0317"><path d="M 4.902344 17 L 34 17 L 34 53 L 4.902344 53 Z M 4.902344 17 " clip-rule="nonzero"/></clipPath></defs><g clip-path="url(#71b60d1921)"><path fill="#ffffff" d="M 32.773438 12.210938 L 14.074219 12.210938 C 12.382812 12.210938 11 13.578125 11 15.25 L 11 54.394531 C 11 56.066406 12.382812 57.433594 14.074219 57.433594 L 41.179688 57.433594 C 42.871094 57.433594 44.253906 56.066406 44.253906 54.394531 L 44.253906 23.605469 Z M 32.773438 12.210938 " fill-opacity="1" fill-rule="nonzero"/></g><g clip-path="url(#cf67cea620)"><path stroke-linecap="butt" transform="matrix(0.512402, 0, 0, 0.506417, 4.9005, 12.21102)" fill="none" stroke-linejoin="miter" d="M 54.396583 -0.000163056 L 54.396583 22.50012 L 76.801766 22.50012 " stroke="#185abd" stroke-width="1" stroke-opacity="1" stroke-miterlimit="10"/></g><path fill="#41a5ee" d="M 28.828125 29.734375 L 40.359375 29.734375 L 40.359375 30.898438 L 28.828125 30.898438 Z M 28.828125 29.734375 " fill-opacity="1" fill-rule="nonzero"/><path fill="#2b7cd3" d="M 28.828125 33.023438 L 40.359375 33.023438 L 40.359375 34.191406 L 28.828125 34.191406 Z M 28.828125 33.023438 " fill-opacity="1" fill-rule="nonzero"/><path fill="#185abd" d="M 28.828125 36.316406 L 40.359375 36.316406 L 40.359375 37.480469 L 28.828125 37.480469 Z M 28.828125 36.316406 " fill-opacity="1" fill-rule="nonzero"/><path fill="#103f91" d="M 28.828125 39.609375 L 40.359375 39.609375 L 40.359375 40.773438 L 28.828125 40.773438 Z M 28.828125 39.609375 " fill-opacity="1" fill-rule="nonzero"/><path fill="#ffffff" d="M 26.371094 26.085938 L 26.371094 43.558594 C 26.371094 43.660156 26.371094 43.761719 26.371094 43.8125 C 26.214844 44.621094 25.5 45.28125 24.628906 45.28125 L 6.898438 45.28125 C 6.589844 45.28125 6.234375 45.179688 5.976562 45.027344 C 5.875 44.976562 5.824219 44.925781 5.773438 44.875 C 5.414062 44.570312 5.15625 44.066406 5.15625 43.558594 L 5.15625 26.085938 C 5.15625 25.125 5.925781 24.363281 6.898438 24.363281 L 24.578125 24.363281 C 25.5 24.363281 26.214844 25.023438 26.320312 25.832031 L 26.320312 25.882812 C 26.371094 25.933594 26.371094 26.035156 26.371094 26.085938 Z M 26.371094 26.085938 " fill-opacity="1" fill-rule="nonzero"/><g clip-path="url(#fdbfae0317)"><path stroke-linecap="butt" transform="matrix(0.512402, 0, 0, 0.506417, 4.9005, 12.21102)" fill="none" stroke-linejoin="miter" d="M 41.901824 27.398193 L 41.901824 61.900684 C 41.901824 62.101235 41.901824 62.301786 41.901824 62.402061 C 41.596888 63.998756 40.201805 65.302338 38.501786 65.302338 L 3.899158 65.302338 C 3.296909 65.302338 2.603179 65.101787 2.100035 64.80096 C 1.901826 64.700685 1.802722 64.600409 1.703618 64.500134 C 1.002265 63.89848 0.49912 62.903439 0.49912 61.900684 L 0.49912 27.398193 C 0.49912 25.500672 2.00093 23.996539 3.899158 23.996539 L 38.402682 23.996539 C 40.201805 23.996539 41.596888 25.300121 41.80272 26.896815 L 41.80272 26.997091 C 41.901824 27.097366 41.901824 27.297918 41.901824 27.398193 Z M 41.901824 27.398193 " stroke="#185abd" stroke-width="1" stroke-opacity="1" stroke-miterlimit="10"/></g><path fill="#185abd" d="M 11.101562 40.519531 L 8.332031 29.175781 L 10.640625 29.175781 C 10.640625 29.175781 12.226562 37.175781 12.433594 38.292969 L 12.484375 38.292969 C 12.6875 37.125 12.996094 35.757812 13.355469 34.289062 L 14.585938 29.175781 L 16.992188 29.175781 C 16.992188 29.175781 18.992188 37.027344 19.144531 38.242188 C 19.351562 36.976562 20.886719 29.175781 20.886719 29.175781 L 23.089844 29.175781 L 20.375 40.570312 L 17.8125 40.570312 C 17.8125 40.570312 15.816406 32.820312 15.660156 31.605469 C 15.457031 32.820312 13.714844 40.570312 13.714844 40.570312 L 11.101562 40.570312 Z M 11.101562 40.519531 " fill-opacity="1" fill-rule="nonzero"/></svg>