<svg xmlns="http://www.w3.org/2000/svg" xmlns:xlink="http://www.w3.org/1999/xlink" width="66" zoomAndPan="magnify" viewBox="0 0 49.5 70.499999" height="94" preserveAspectRatio="xMidYMid meet" version="1.0"><defs><clipPath id="1064111aa7"><path d="M 11 12.242188 L 44.253906 12.242188 L 44.253906 57.535156 L 11 57.535156 Z M 11 12.242188 " clip-rule="nonzero"/></clipPath><clipPath id="37d8c156a6"><path d="M 32 12.242188 L 44.253906 12.242188 L 44.253906 24 L 32 24 Z M 32 12.242188 " clip-rule="nonzero"/></clipPath><clipPath id="c7973be8ea"><path d="M 4.902344 17 L 34 17 L 34 53 L 4.902344 53 Z M 4.902344 17 " clip-rule="nonzero"/></clipPath></defs><g clip-path="url(#1064111aa7)"><path fill="#ffffff" d="M 32.804688 12.265625 L 14.152344 12.265625 C 12.464844 12.265625 11.085938 13.636719 11.085938 15.308594 L 11.085938 54.472656 C 11.085938 56.144531 12.464844 57.511719 14.152344 57.511719 L 41.1875 57.511719 C 42.875 57.511719 44.253906 56.144531 44.253906 54.472656 L 44.253906 23.667969 Z M 32.804688 12.265625 " fill-opacity="1" fill-rule="nonzero"/></g><g clip-path="url(#37d8c156a6)"><path stroke-linecap="butt" transform="matrix(0.511071, 0, 0, 0.506647, 4.951607, 12.267017)" fill="none" stroke-linejoin="miter" d="M 54.499384 -0.00274686 L 54.499384 22.502754 L 76.901767 22.502754 " stroke="#16864c" stroke-width="1" stroke-opacity="1" stroke-miterlimit="10"/></g><path fill="#21a365" d="M 28.152344 29.695312 L 34.03125 29.695312 L 34.03125 31.925781 L 28.152344 31.925781 Z M 28.152344 29.695312 " fill-opacity="1" fill-rule="nonzero"/><path fill="#33c481" d="M 35.515625 29.695312 L 41.390625 29.695312 L 41.390625 31.925781 L 35.515625 31.925781 Z M 35.515625 29.695312 " fill-opacity="1" fill-rule="nonzero"/><path fill="#107c42" d="M 28.152344 33.75 L 34.03125 33.75 L 34.03125 35.976562 L 28.152344 35.976562 Z M 28.152344 33.75 " fill-opacity="1" fill-rule="nonzero"/><path fill="#21a365" d="M 35.515625 33.75 L 41.390625 33.75 L 41.390625 35.976562 L 35.515625 35.976562 Z M 35.515625 33.75 " fill-opacity="1" fill-rule="nonzero"/><path fill="#195d38" d="M 28.152344 37.800781 L 34.03125 37.800781 L 34.03125 40.03125 L 28.152344 40.03125 Z M 28.152344 37.800781 " fill-opacity="1" fill-rule="nonzero"/><path fill="#195d38" d="M 35.515625 37.800781 L 41.390625 37.800781 L 41.390625 40.03125 L 35.515625 40.03125 Z M 35.515625 37.800781 " fill-opacity="1" fill-rule="nonzero"/><path fill="#ffffff" d="M 26.46875 26.148438 L 26.46875 43.730469 C 26.46875 43.832031 26.46875 43.933594 26.46875 43.984375 C 26.3125 44.792969 25.597656 45.453125 24.730469 45.453125 L 6.945312 45.453125 C 6.636719 45.453125 6.28125 45.351562 6.023438 45.199219 C 5.921875 45.148438 5.871094 45.097656 5.769531 45.046875 C 5.410156 44.742188 5.15625 44.238281 5.15625 43.730469 L 5.15625 26.148438 C 5.15625 25.1875 5.921875 24.425781 6.894531 24.425781 L 24.578125 24.425781 C 25.496094 24.425781 26.210938 25.085938 26.3125 25.945312 C 26.46875 25.996094 26.46875 26.097656 26.46875 26.148438 Z M 26.46875 26.148438 " fill-opacity="1" fill-rule="nonzero"/><g clip-path="url(#c7973be8ea)"><path stroke-linecap="butt" transform="matrix(0.511071, 0, 0, 0.506647, 4.951607, 12.267017)" fill="none" stroke-linejoin="miter" d="M 42.102024 27.398607 L 42.102024 62.101334 C 42.102024 62.301794 42.102024 62.502255 42.102024 62.602485 C 41.796293 64.198455 40.397577 65.501446 38.700775 65.501446 L 3.901031 65.501446 C 3.297214 65.501446 2.601678 65.300986 2.097223 65.000296 C 1.898498 64.900066 1.799136 64.799836 1.600411 64.699606 C 0.897231 64.098225 0.40042 63.103635 0.40042 62.101334 L 0.40042 27.398607 C 0.40042 25.501946 1.898498 23.998495 3.801669 23.998495 L 38.402688 23.998495 C 40.198853 23.998495 41.597569 25.301486 41.796293 26.997687 C 42.102024 27.097917 42.102024 27.298377 42.102024 27.398607 Z M 42.102024 27.398607 " stroke="#16864c" stroke-width="1" stroke-opacity="1" stroke-miterlimit="10"/></g><path fill="#16864c" d="M 18.289062 40.742188 C 18.289062 40.742188 16.246094 36.941406 15.835938 36.28125 L 15.785156 36.28125 C 15.480469 36.941406 15.121094 37.546875 14.609375 38.460938 L 13.332031 40.742188 L 10.625 40.742188 L 14.355469 35.015625 L 10.929688 29.1875 L 13.742188 29.1875 C 13.742188 29.1875 15.632812 32.988281 15.941406 33.597656 L 15.992188 33.597656 C 16.347656 32.886719 18.394531 29.1875 18.394531 29.1875 L 20.949219 29.1875 L 17.421875 34.914062 L 21 40.742188 Z M 18.289062 40.742188 " fill-opacity="1" fill-rule="nonzero"/></svg>