<svg xmlns="http://www.w3.org/2000/svg" xmlns:xlink="http://www.w3.org/1999/xlink" width="66" zoomAndPan="magnify" viewBox="0 0 49.5 70.499999" height="94" preserveAspectRatio="xMidYMid meet" version="1.0"><defs><clipPath id="a22aa81089"><path d="M 4.902344 14.09375 L 44.253906 14.09375 L 44.253906 55.671875 L 4.902344 55.671875 Z M 4.902344 14.09375 " clip-rule="nonzero"/></clipPath></defs><g clip-path="url(#a22aa81089)"><path fill="#dd3e00" d="M 44.25 34.882812 L 40.316406 34.882812 L 40.316406 24.488281 L 29.824219 14.09375 L 8.835938 14.09375 L 8.835938 34.882812 L 4.902344 34.882812 L 4.902344 47.878906 L 8.835938 47.878906 L 8.835938 55.671875 L 40.316406 55.671875 L 40.316406 47.878906 L 44.25 47.878906 L 44.25 34.882812 " fill-opacity="1" fill-rule="nonzero"/></g><path fill="#ffffff" d="M 10.148438 54.375 L 39.003906 54.375 L 39.003906 47.878906 L 10.148438 47.878906 Z M 29.824219 15.933594 L 29.824219 24.488281 L 38.460938 24.488281 Z M 28.511719 25.789062 L 28.511719 15.394531 L 10.148438 15.394531 L 10.148438 34.882812 L 39.003906 34.882812 L 39.003906 25.789062 Z M 24.519531 42.527344 C 25.570312 42.527344 26.464844 42.273438 27.074219 41.707031 C 27.539062 41.269531 27.796875 40.621094 27.796875 39.859375 C 27.796875 39.09375 27.457031 38.445312 26.957031 38.054688 C 26.429688 37.636719 25.648438 37.429688 24.550781 37.429688 C 23.46875 37.429688 22.699219 37.5 22.148438 37.589844 L 22.148438 45.277344 L 23.910156 45.277344 L 23.910156 42.492188 C 24.074219 42.515625 24.285156 42.527344 24.519531 42.527344 Z M 23.910156 38.828125 C 24.039062 38.792969 24.285156 38.757812 24.644531 38.757812 C 25.53125 38.757812 26.035156 39.1875 26.035156 39.902344 C 26.035156 40.699219 25.449219 41.175781 24.507812 41.175781 C 24.25 41.175781 24.0625 41.164062 23.910156 41.128906 Z M 17.445312 42.527344 C 18.492188 42.527344 19.390625 42.273438 20 41.707031 C 20.464844 41.269531 20.722656 40.621094 20.722656 39.859375 C 20.722656 39.09375 20.382812 38.445312 19.882812 38.054688 C 19.355469 37.636719 18.574219 37.429688 17.476562 37.429688 C 16.394531 37.429688 15.625 37.5 15.074219 37.589844 L 15.074219 45.277344 L 16.835938 45.277344 L 16.835938 42.492188 C 17 42.515625 17.207031 42.527344 17.445312 42.527344 Z M 16.835938 38.828125 C 16.964844 38.792969 17.207031 38.757812 17.570312 38.757812 C 18.457031 38.757812 18.960938 39.1875 18.960938 39.902344 C 18.960938 40.699219 18.375 41.175781 17.433594 41.175781 C 17.175781 41.175781 16.988281 41.164062 16.835938 41.128906 Z M 32.523438 45.277344 L 32.523438 38.96875 L 34.671875 38.96875 L 34.671875 37.488281 L 28.628906 37.488281 L 28.628906 38.96875 L 30.738281 38.96875 L 30.738281 45.277344 L 32.523438 45.277344 " fill-opacity="1" fill-rule="nonzero"/></svg>