<svg xmlns="http://www.w3.org/2000/svg" xmlns:xlink="http://www.w3.org/1999/xlink" width="66" zoomAndPan="magnify" viewBox="0 0 49.5 70.499999" height="94" preserveAspectRatio="xMidYMid meet" version="1.0"><defs><clipPath id="bdd4786d75"><path d="M 4.902344 15.402344 L 44.253906 15.402344 L 44.253906 54.753906 L 4.902344 54.753906 Z M 4.902344 15.402344 " clip-rule="nonzero"/></clipPath></defs><g clip-path="url(#bdd4786d75)"><path fill="#ffffff" d="M 18.199219 15.402344 C 16.273438 15.402344 14.699219 16.972656 14.699219 18.902344 L 14.699219 29.402344 L 7.59375 29.402344 C 6.109375 29.402344 4.902344 30.621094 4.902344 32.109375 L 4.902344 43.492188 C 4.902344 44.980469 6.109375 46.203125 7.59375 46.203125 L 14.699219 46.203125 L 14.699219 51.101562 C 14.699219 53.03125 16.273438 54.601562 18.199219 54.601562 L 40.601562 54.601562 C 42.53125 54.601562 44.101562 53.03125 44.101562 51.101562 L 44.101562 26.601562 C 44.101562 25.964844 43.84375 25.363281 43.40625 24.917969 L 34.800781 16.105469 C 34.351562 15.644531 33.738281 15.402344 33.105469 15.402344 Z M 18.199219 16.800781 L 32.902344 16.800781 L 32.902344 23.800781 C 32.902344 25.339844 34.164062 26.601562 35.703125 26.601562 L 42.703125 26.601562 L 42.703125 51.101562 C 42.703125 52.277344 41.777344 53.203125 40.601562 53.203125 L 18.199219 53.203125 C 17.027344 53.203125 16.101562 52.277344 16.101562 51.101562 L 16.101562 46.203125 L 30.207031 46.203125 C 31.691406 46.203125 32.902344 44.980469 32.902344 43.492188 L 32.902344 32.109375 C 32.902344 30.621094 31.691406 29.402344 30.207031 29.402344 L 16.101562 29.402344 L 16.101562 18.902344 C 16.101562 17.726562 17.027344 16.800781 18.199219 16.800781 Z M 34.300781 17.597656 L 41.730469 25.199219 L 35.703125 25.199219 C 34.914062 25.199219 34.300781 24.589844 34.300781 23.800781 Z M 7.59375 30.800781 L 30.207031 30.800781 C 30.933594 30.800781 31.5 31.371094 31.5 32.109375 L 31.5 43.492188 C 31.5 44.234375 30.933594 44.800781 30.207031 44.800781 L 7.59375 44.800781 C 6.871094 44.800781 6.300781 44.234375 6.300781 43.492188 L 6.300781 32.109375 C 6.300781 31.371094 6.871094 30.800781 7.59375 30.800781 Z M 7.59375 30.800781 " fill-opacity="1" fill-rule="nonzero"/></g><path fill="#ffffff" d="M 9.800781 33.601562 C 9.414062 33.601562 9.101562 33.914062 9.101562 34.300781 C 9.101562 36.632812 9.101562 38.96875 9.101562 41.300781 C 9.101562 41.6875 9.414062 42 9.800781 42 C 10.1875 42 10.5 41.6875 10.5 41.300781 L 10.5 39.203125 L 11.902344 39.203125 C 13.4375 39.203125 14.699219 37.941406 14.699219 36.402344 C 14.699219 34.863281 13.4375 33.601562 11.902344 33.601562 Z M 10.5 35 L 11.902344 35 C 12.6875 35 13.300781 35.613281 13.300781 36.402344 C 13.300781 37.1875 12.6875 37.800781 11.902344 37.800781 L 10.5 37.800781 Z M 10.5 35 " fill-opacity="1" fill-rule="nonzero"/><path fill="#ffffff" d="M 16.800781 33.601562 C 16.414062 33.601562 16.101562 33.914062 16.101562 34.300781 L 16.101562 41.300781 C 16.101562 41.6875 16.414062 42 16.800781 42 L 17.402344 42 C 19.761719 42 21.703125 40.128906 21.703125 37.800781 C 21.703125 35.476562 19.761719 33.601562 17.402344 33.601562 Z M 17.5 35.019531 C 19.078125 35.074219 20.300781 36.28125 20.300781 37.800781 C 20.300781 39.320312 19.078125 40.527344 17.5 40.582031 Z M 17.5 35.019531 " fill-opacity="1" fill-rule="nonzero"/><path fill="#ffffff" d="M 23.800781 33.601562 C 23.414062 33.601562 23.101562 33.914062 23.101562 34.300781 C 23.101562 36.632812 23.101562 38.96875 23.101562 41.300781 C 23.101562 41.6875 23.414062 42 23.800781 42 C 24.1875 42 24.5 41.6875 24.5 41.300781 L 24.5 38.410156 L 28 38.410156 C 28.386719 38.410156 28.703125 38.097656 28.703125 37.710938 C 28.703125 37.324219 28.386719 37.011719 28 37.011719 L 24.5 37.011719 L 24.5 35 L 28 35 C 28.386719 35 28.703125 34.6875 28.703125 34.300781 C 28.703125 33.914062 28.386719 33.601562 28 33.601562 Z M 23.800781 33.601562 " fill-opacity="1" fill-rule="nonzero"/></svg>