<svg xmlns="http://www.w3.org/2000/svg" xmlns:xlink="http://www.w3.org/1999/xlink" width="66" zoomAndPan="magnify" viewBox="0 0 49.5 70.499999" height="94" preserveAspectRatio="xMidYMid meet" version="1.0"><defs><clipPath id="da51cc6ad3"><path d="M 4.902344 17.65625 L 44 17.65625 L 44 52.550781 L 4.902344 52.550781 Z M 4.902344 17.65625 " clip-rule="nonzero"/></clipPath></defs><path fill="#ffffff" d="M 25.476562 44.898438 C 27.203125 44.355469 28.910156 43.730469 30.574219 43.027344 C 31.066406 42.824219 31.554688 42.613281 32.035156 42.394531 C 32.179688 42.328125 32.230469 42.109375 32.148438 41.980469 C 32.054688 41.828125 31.882812 41.804688 31.730469 41.871094 C 31.519531 41.964844 31.316406 42.058594 31.105469 42.148438 C 31.003906 42.191406 30.902344 42.242188 30.800781 42.285156 C 30.761719 42.300781 30.710938 42.328125 30.667969 42.34375 C 30.640625 42.351562 30.617188 42.371094 30.582031 42.378906 C 30.566406 42.386719 30.550781 42.394531 30.53125 42.394531 C 30.117188 42.574219 29.695312 42.742188 29.273438 42.910156 C 28.4375 43.238281 27.597656 43.554688 26.753906 43.839844 C 26.273438 44 25.789062 44.160156 25.308594 44.3125 C 25.15625 44.363281 25.046875 44.523438 25.097656 44.683594 C 25.15625 44.835938 25.316406 44.949219 25.476562 44.898438 Z M 25.476562 44.898438 " fill-opacity="1" fill-rule="nonzero"/><path fill="#ffffff" d="M 33.878906 43.65625 C 33.957031 43.621094 34.015625 43.585938 34.058594 43.519531 C 34.089844 43.453125 34.109375 43.359375 34.089844 43.28125 C 34.046875 43.140625 33.871094 43.003906 33.71875 43.070312 C 31.960938 43.804688 30.210938 44.550781 28.453125 45.285156 C 27.960938 45.488281 27.464844 45.699219 26.972656 45.902344 C 26.898438 45.9375 26.839844 45.96875 26.796875 46.039062 C 26.761719 46.105469 26.746094 46.199219 26.761719 46.273438 C 26.804688 46.417969 26.980469 46.554688 27.132812 46.484375 C 28.890625 45.75 30.640625 45.007812 32.398438 44.269531 C 32.890625 44.070312 33.378906 43.855469 33.878906 43.65625 Z M 33.878906 43.65625 " fill-opacity="1" fill-rule="nonzero"/><path fill="#ffffff" d="M 36.152344 44.863281 C 36.304688 44.8125 36.414062 44.652344 36.363281 44.492188 C 36.3125 44.347656 36.152344 44.21875 35.992188 44.28125 C 34.125 44.964844 32.257812 45.648438 30.386719 46.332031 C 29.855469 46.527344 29.324219 46.722656 28.800781 46.917969 C 28.648438 46.96875 28.539062 47.128906 28.589844 47.289062 C 28.640625 47.433594 28.800781 47.558594 28.960938 47.5 C 30.828125 46.816406 32.695312 46.132812 34.5625 45.445312 C 35.097656 45.25 35.628906 45.058594 36.152344 44.863281 Z M 36.152344 44.863281 " fill-opacity="1" fill-rule="nonzero"/><path fill="#ffffff" d="M 31.132812 48.203125 C 30.988281 48.269531 30.9375 48.488281 31.023438 48.617188 C 31.117188 48.769531 31.285156 48.792969 31.4375 48.726562 C 32.976562 48 34.511719 47.28125 36.050781 46.554688 C 36.484375 46.351562 36.921875 46.148438 37.351562 45.945312 C 37.496094 45.878906 37.546875 45.65625 37.464844 45.53125 C 37.371094 45.378906 37.199219 45.351562 37.050781 45.421875 C 35.511719 46.148438 33.972656 46.867188 32.433594 47.59375 C 32.003906 47.796875 31.570312 48 31.132812 48.203125 Z M 31.132812 48.203125 " fill-opacity="1" fill-rule="nonzero"/><path fill="#ffffff" d="M 19.585938 36.410156 C 19.492188 36.410156 19.535156 36.417969 19.585938 36.410156 Z M 19.585938 36.410156 " fill-opacity="1" fill-rule="nonzero"/><path fill="#ffffff" d="M 18.53125 36.445312 C 18.554688 36.453125 18.582031 36.453125 18.605469 36.460938 C 18.605469 36.460938 18.605469 36.460938 18.613281 36.460938 C 18.546875 36.4375 18.53125 36.4375 18.53125 36.445312 Z M 18.53125 36.445312 " fill-opacity="1" fill-rule="nonzero"/><g clip-path="url(#da51cc6ad3)"><path fill="#ffffff" d="M 43.75 44.835938 C 42.296875 44.128906 40.84375 43.425781 39.390625 42.714844 C 38.671875 42.371094 37.960938 42.023438 37.242188 41.667969 C 37.835938 41.289062 38.367188 40.832031 38.78125 40.257812 C 39.28125 39.5625 39.578125 38.71875 39.769531 37.890625 C 39.972656 37.027344 40.074219 36.140625 40.160156 35.253906 C 40.253906 34.179688 40.328125 33.105469 40.34375 32.023438 C 40.355469 31.507812 40.335938 30.992188 40.292969 30.476562 C 40.269531 30.199219 40.261719 29.902344 40.160156 29.632812 C 40 29.21875 39.710938 28.863281 39.390625 28.558594 C 38.546875 27.773438 37.488281 27.214844 36.449219 26.734375 C 35.207031 26.148438 33.914062 25.667969 32.59375 25.253906 C 31.519531 24.914062 30.414062 24.621094 29.296875 24.46875 C 28.992188 24.425781 28.679688 24.390625 28.367188 24.40625 C 28.132812 24.425781 27.902344 24.449219 27.675781 24.484375 C 27.429688 24.519531 27.195312 24.550781 26.949219 24.585938 C 26.515625 23.773438 26.128906 22.9375 25.757812 22.09375 C 25.648438 21.839844 25.535156 21.585938 25.425781 21.324219 C 25.097656 20.546875 24.785156 19.75 24.496094 18.957031 C 24.453125 18.847656 24.394531 18.738281 24.285156 18.6875 C 24.167969 18.625 24.066406 18.617188 23.9375 18.644531 C 23.550781 18.703125 23.171875 18.761719 22.78125 18.820312 C 22.671875 18.550781 22.554688 18.273438 22.441406 18 C 22.402344 17.890625 22.339844 17.789062 22.230469 17.730469 C 22.121094 17.671875 22.003906 17.65625 21.886719 17.6875 C 20.035156 18.171875 18.167969 18.59375 16.289062 18.949219 C 15.351562 19.125 14.414062 19.285156 13.464844 19.4375 C 12.992188 19.515625 12.519531 19.582031 12.039062 19.648438 C 11.921875 19.667969 11.800781 19.683594 11.683594 19.699219 C 11.65625 19.699219 11.632812 19.707031 11.597656 19.707031 C 11.53125 19.71875 11.464844 19.726562 11.394531 19.734375 C 11.160156 19.769531 10.921875 19.792969 10.6875 19.828125 C 9.621094 19.953125 8.554688 20.0625 7.480469 20.15625 C 7.320312 20.171875 7.179688 20.234375 7.09375 20.386719 C 7.007812 20.535156 7.027344 20.6875 7.09375 20.839844 C 7.1875 21.042969 7.28125 21.238281 7.371094 21.441406 C 6.875 21.527344 6.382812 21.617188 5.886719 21.703125 C 5.75 21.730469 5.640625 21.847656 5.589844 21.964844 C 5.53125 22.101562 5.539062 22.246094 5.613281 22.371094 C 6.070312 23.207031 6.492188 24.054688 6.917969 24.898438 C 7.347656 25.761719 7.777344 26.632812 8.21875 27.492188 C 8.371094 27.789062 8.523438 28.078125 8.675781 28.371094 C 8.21875 28.492188 7.761719 28.625 7.320312 28.8125 C 6.847656 29.007812 6.402344 29.234375 6.011719 29.5625 C 5.917969 29.640625 5.835938 29.734375 5.75 29.816406 C 5.734375 29.835938 5.714844 29.851562 5.699219 29.875 C 5.519531 30.097656 5.378906 30.339844 5.269531 30.613281 C 5.089844 31.042969 5.03125 31.507812 4.996094 31.972656 C 4.945312 32.589844 4.964844 33.214844 4.980469 33.832031 C 5.007812 34.703125 5.046875 35.574219 5.054688 36.453125 C 5.074219 37.382812 5.007812 38.3125 5.105469 39.234375 C 5.207031 40.214844 5.503906 41.128906 6.148438 41.894531 C 6.773438 42.648438 7.632812 43.164062 8.453125 43.671875 C 10.398438 44.878906 12.335938 46.082031 14.277344 47.289062 C 15.148438 47.828125 16.042969 48.371094 17.035156 48.667969 C 18.089844 48.980469 19.164062 48.902344 20.210938 48.597656 C 21.175781 48.320312 22.113281 47.90625 23.042969 47.535156 C 23.878906 48.066406 24.726562 48.589844 25.578125 49.105469 C 26.679688 49.78125 27.777344 50.457031 28.867188 51.132812 C 29.457031 51.507812 30.058594 51.878906 30.640625 52.25 C 30.785156 52.34375 30.964844 52.328125 31.097656 52.25 C 32.746094 51.386719 34.394531 50.527344 36.035156 49.664062 C 37.683594 48.800781 39.332031 47.941406 40.972656 47.078125 C 41.890625 46.597656 42.820312 46.105469 43.742188 45.625 C 44.039062 45.472656 44.054688 44.980469 43.75 44.835938 Z M 18.445312 47.957031 C 18.410156 47.957031 18.386719 47.957031 18.351562 47.957031 C 18.386719 47.113281 18.429688 46.273438 18.46875 45.429688 C 18.519531 44.382812 18.570312 43.332031 18.621094 42.277344 C 18.640625 41.980469 18.648438 41.683594 18.664062 41.398438 C 18.671875 41.398438 18.683594 41.398438 18.699219 41.398438 C 19.925781 41.441406 21.140625 41.101562 22.292969 40.722656 C 23.484375 40.324219 24.65625 39.875 25.832031 39.445312 C 28.097656 38.617188 30.363281 37.761719 32.59375 36.851562 C 34.84375 35.929688 37.066406 34.929688 39.246094 33.859375 C 39.289062 33.839844 39.332031 33.816406 39.363281 33.796875 C 39.339844 34.238281 39.304688 34.679688 39.261719 35.117188 C 39.1875 35.960938 39.109375 36.699219 38.925781 37.527344 C 38.746094 38.335938 38.511719 39.074219 38.046875 39.75 C 37.851562 40.027344 37.503906 40.382812 37.175781 40.628906 C 37.058594 40.722656 36.921875 40.804688 36.796875 40.890625 C 36.835938 39.96875 36.878906 39.039062 36.921875 38.117188 C 36.929688 37.839844 36.617188 37.578125 36.347656 37.679688 C 35.527344 37.984375 34.707031 38.296875 33.886719 38.601562 C 33.058594 38.914062 32.230469 39.21875 31.394531 39.53125 C 30.523438 39.851562 29.660156 40.179688 28.789062 40.5 C 27.851562 40.847656 26.921875 41.203125 25.984375 41.550781 C 24.960938 41.929688 23.9375 42.308594 22.917969 42.699219 C 22.78125 42.75 22.65625 42.800781 22.519531 42.84375 C 22.324219 42.917969 22.191406 43.070312 22.179688 43.28125 C 22.15625 44.390625 22.128906 45.496094 22.128906 46.605469 C 22.128906 46.707031 22.128906 46.808594 22.128906 46.898438 C 21.394531 47.203125 20.652344 47.5 19.882812 47.71875 C 19.425781 47.863281 18.945312 47.957031 18.445312 47.957031 Z M 11.625 44.566406 C 10.675781 43.976562 9.730469 43.390625 8.785156 42.800781 C 8.03125 42.335938 7.246094 41.855469 6.703125 41.152344 C 6.179688 40.460938 6.011719 39.613281 5.96875 38.777344 C 5.917969 37.855469 5.96875 36.925781 5.945312 36.003906 C 5.925781 35.472656 5.910156 34.941406 5.894531 34.40625 C 7.957031 35.726562 9.984375 37.105469 12.054688 38.40625 C 13.09375 39.066406 14.144531 39.722656 15.242188 40.289062 C 16.035156 40.703125 16.882812 41.09375 17.761719 41.269531 C 17.742188 41.761719 17.71875 42.242188 17.691406 42.734375 C 17.480469 42.496094 17.277344 42.269531 17.066406 42.03125 C 16.957031 41.914062 16.746094 41.914062 16.636719 42.03125 C 16.519531 42.160156 16.527344 42.335938 16.636719 42.460938 C 16.949219 42.808594 17.253906 43.15625 17.566406 43.503906 C 17.589844 43.527344 17.617188 43.542969 17.640625 43.5625 C 17.640625 43.570312 17.640625 43.578125 17.640625 43.585938 C 17.632812 43.839844 17.617188 44.085938 17.609375 44.339844 C 17.261719 43.96875 16.90625 43.585938 16.558594 43.214844 C 16.449219 43.097656 16.238281 43.097656 16.128906 43.214844 C 16.011719 43.339844 16.011719 43.519531 16.128906 43.644531 C 16.609375 44.160156 17.085938 44.675781 17.566406 45.191406 C 17.550781 45.503906 17.53125 45.828125 17.523438 46.140625 C 17.507812 46.132812 17.488281 46.113281 17.472656 46.105469 C 17.296875 45.960938 17.117188 45.808594 16.941406 45.65625 C 16.59375 45.351562 16.273438 45.023438 15.96875 44.683594 C 15.792969 44.492188 15.621094 44.289062 15.460938 44.085938 C 15.359375 43.957031 15.132812 43.976562 15.03125 44.085938 C 14.910156 44.21875 14.921875 44.382812 15.03125 44.515625 C 15.613281 45.25 16.273438 45.917969 17.007812 46.511719 C 17.167969 46.636719 17.328125 46.765625 17.488281 46.882812 C 17.472656 47.195312 17.464844 47.515625 17.449219 47.828125 C 17.3125 47.796875 17.175781 47.753906 17.035156 47.710938 C 16.113281 47.398438 15.285156 46.847656 14.464844 46.34375 C 13.515625 45.742188 12.570312 45.160156 11.625 44.566406 Z M 7.761719 22.285156 C 8.421875 23.707031 9.105469 25.117188 9.765625 26.53125 C 9.984375 26.996094 10.203125 27.46875 10.414062 27.933594 C 10.136719 28 9.859375 28.066406 9.578125 28.136719 C 9.179688 27.398438 8.808594 26.65625 8.429688 25.902344 C 7.996094 25.042969 7.566406 24.171875 7.128906 23.308594 C 6.984375 23.03125 6.839844 22.75 6.695312 22.472656 C 7.035156 22.414062 7.382812 22.355469 7.71875 22.285156 C 7.734375 22.296875 7.746094 22.296875 7.761719 22.285156 Z M 23.753906 19.589844 C 24 20.242188 24.253906 20.875 24.515625 21.515625 C 24.867188 22.363281 25.234375 23.199219 25.628906 24.019531 C 25.75 24.265625 25.867188 24.507812 25.992188 24.746094 C 25.75 24.789062 25.503906 24.832031 25.257812 24.875 C 25.25 24.875 25.242188 24.875 25.234375 24.875 C 24.515625 23.148438 23.820312 21.40625 23.121094 19.683594 C 23.332031 19.65625 23.542969 19.625 23.753906 19.589844 Z M 23.835938 23.84375 C 24 24.238281 24.167969 24.644531 24.335938 25.042969 C 23.585938 25.175781 22.832031 25.320312 22.078125 25.472656 C 20.863281 25.710938 19.644531 25.953125 18.429688 26.199219 C 17.195312 26.453125 15.96875 26.707031 14.742188 26.976562 C 13.644531 27.214844 12.546875 27.460938 11.445312 27.703125 C 11.40625 27.714844 11.371094 27.722656 11.328125 27.730469 C 11.320312 27.714844 11.320312 27.703125 11.3125 27.6875 C 10.433594 25.785156 9.519531 23.902344 8.625 22 C 8.472656 21.667969 8.3125 21.339844 8.160156 21 C 9.875 20.839844 11.582031 20.628906 13.289062 20.375 C 15.183594 20.089844 17.074219 19.734375 18.953125 19.328125 C 19.882812 19.125 20.804688 18.90625 21.726562 18.667969 C 22.441406 20.386719 23.128906 22.117188 23.835938 23.84375 Z M 9.410156 29.117188 C 9.445312 29.117188 9.46875 29.109375 9.503906 29.089844 C 9.832031 29.007812 10.171875 28.929688 10.5 28.855469 C 12.628906 28.355469 14.761719 27.890625 16.898438 27.441406 C 19.25 26.953125 21.597656 26.46875 23.957031 26.03125 C 24.867188 25.863281 25.789062 25.691406 26.710938 25.539062 C 27.050781 25.488281 27.378906 25.4375 27.71875 25.390625 C 27.71875 25.390625 27.726562 25.390625 27.726562 25.390625 C 27.757812 25.378906 27.792969 25.378906 27.828125 25.378906 C 27.894531 25.371094 27.960938 25.363281 28.023438 25.355469 C 28.125 25.347656 28.234375 25.328125 28.335938 25.328125 C 28.605469 25.3125 28.875 25.339844 29.136719 25.363281 C 29.144531 25.363281 29.164062 25.363281 29.171875 25.363281 C 29.179688 25.363281 29.1875 25.363281 29.1875 25.363281 C 29.238281 25.371094 29.289062 25.378906 29.347656 25.390625 C 29.457031 25.40625 29.570312 25.421875 29.6875 25.449219 C 29.941406 25.5 30.203125 25.550781 30.457031 25.609375 C 31.664062 25.886719 32.855469 26.269531 34.023438 26.699219 C 34.34375 26.816406 34.65625 26.933594 34.96875 27.070312 C 35.039062 27.097656 35.105469 27.121094 35.171875 27.15625 C 35.1875 27.164062 35.230469 27.179688 35.238281 27.179688 C 35.273438 27.199219 35.316406 27.214844 35.351562 27.230469 C 35.492188 27.289062 35.636719 27.359375 35.789062 27.425781 C 36.347656 27.679688 36.898438 27.949219 37.421875 28.261719 C 37.65625 28.40625 37.894531 28.550781 38.121094 28.710938 C 38.214844 28.769531 38.300781 28.835938 38.382812 28.90625 C 38.359375 28.886719 38.46875 28.972656 38.484375 28.988281 C 38.535156 29.03125 38.585938 29.074219 38.636719 29.117188 C 38.765625 29.226562 38.890625 29.34375 39 29.472656 C 38.082031 29.875 37.160156 30.28125 36.238281 30.671875 C 36.238281 30.671875 36.167969 30.695312 36.160156 30.707031 C 36.144531 30.714844 36.128906 30.722656 36.109375 30.730469 C 36.042969 30.757812 35.976562 30.789062 35.90625 30.816406 C 35.765625 30.875 35.613281 30.941406 35.46875 31 C 35.179688 31.121094 34.894531 31.238281 34.605469 31.355469 C 34.015625 31.601562 33.421875 31.835938 32.824219 32.082031 C 30.4375 33.039062 28.039062 33.949219 25.605469 34.78125 C 24.546875 35.132812 23.492188 35.480469 22.417969 35.785156 C 21.582031 36.023438 20.734375 36.242188 19.882812 36.386719 C 19.796875 36.402344 19.722656 36.410156 19.636719 36.425781 C 19.628906 36.425781 19.613281 36.425781 19.59375 36.425781 C 19.601562 36.425781 19.613281 36.425781 19.613281 36.425781 C 19.570312 36.425781 19.519531 36.4375 19.476562 36.445312 C 19.332031 36.460938 19.1875 36.46875 19.035156 36.476562 C 18.910156 36.488281 18.792969 36.488281 18.664062 36.476562 C 18.648438 36.476562 18.632812 36.476562 18.605469 36.46875 C 18.605469 36.46875 18.613281 36.46875 18.613281 36.46875 C 18.605469 36.46875 18.605469 36.46875 18.597656 36.460938 C 18.589844 36.460938 18.589844 36.460938 18.582031 36.460938 C 18.582031 36.460938 18.570312 36.460938 18.570312 36.460938 C 18.5625 36.460938 18.546875 36.453125 18.539062 36.453125 C 18.53125 36.453125 18.53125 36.445312 18.53125 36.445312 C 18.453125 36.425781 18.359375 36.417969 18.285156 36.410156 C 17.726562 36.292969 17.1875 36.105469 16.652344 35.894531 C 16.628906 35.886719 16.601562 35.871094 16.570312 35.859375 C 16.570312 35.859375 16.507812 35.835938 16.492188 35.828125 C 16.433594 35.800781 16.367188 35.777344 16.308594 35.742188 C 16.15625 35.675781 15.992188 35.597656 15.84375 35.53125 C 15.539062 35.386719 15.242188 35.234375 14.945312 35.082031 C 12.265625 33.679688 9.78125 31.921875 7.21875 30.316406 C 7.09375 30.230469 6.957031 30.15625 6.832031 30.070312 C 6.976562 29.976562 7.128906 29.894531 7.28125 29.816406 C 7.371094 29.777344 7.464844 29.734375 7.558594 29.691406 C 7.550781 29.691406 7.660156 29.648438 7.683594 29.640625 C 7.753906 29.613281 7.820312 29.589844 7.886719 29.5625 C 8.089844 29.488281 8.300781 29.421875 8.511719 29.359375 C 8.816406 29.269531 9.113281 29.191406 9.410156 29.117188 Z M 5.867188 33.316406 C 5.859375 32.816406 5.859375 32.328125 5.910156 31.828125 C 5.917969 31.769531 5.917969 31.71875 5.925781 31.660156 C 5.925781 31.636719 5.9375 31.609375 5.9375 31.585938 C 5.953125 31.472656 5.976562 31.363281 6.003906 31.253906 C 6.019531 31.171875 6.046875 31.085938 6.078125 31 C 6.097656 30.957031 6.113281 30.925781 6.121094 30.882812 C 6.128906 30.855469 6.136719 30.839844 6.15625 30.816406 C 6.171875 30.789062 6.179688 30.757812 6.199219 30.730469 C 8.699219 32.269531 11.101562 33.960938 13.660156 35.40625 C 14.820312 36.054688 16.019531 36.671875 17.289062 37.070312 C 17.507812 37.136719 17.742188 37.207031 17.972656 37.265625 C 17.914062 38.296875 17.84375 39.328125 17.785156 40.359375 C 17.304688 40.238281 16.839844 40.0625 16.390625 39.859375 C 15.292969 39.351562 14.253906 38.710938 13.222656 38.066406 C 10.949219 36.664062 8.742188 35.160156 6.492188 33.714844 C 6.28125 33.578125 6.078125 33.445312 5.867188 33.316406 Z M 18.875 37.382812 C 19.070312 37.382812 19.273438 37.367188 19.46875 37.339844 C 20.296875 37.246094 21.109375 37.0625 21.910156 36.851562 C 22.941406 36.578125 23.957031 36.265625 24.96875 35.929688 C 27.40625 35.125 29.796875 34.230469 32.179688 33.285156 C 34.480469 32.378906 36.753906 31.433594 39.019531 30.433594 C 39.136719 30.382812 39.246094 30.332031 39.363281 30.28125 C 39.363281 30.316406 39.375 30.351562 39.375 30.382812 C 39.414062 30.882812 39.433594 31.390625 39.433594 31.898438 C 39.433594 32.183594 39.425781 32.464844 39.414062 32.75 C 37.363281 33.78125 35.257812 34.761719 33.144531 35.640625 C 30.964844 36.554688 28.75 37.398438 26.527344 38.21875 C 25.351562 38.660156 24.167969 39.089844 22.992188 39.511719 C 21.902344 39.910156 20.746094 40.316406 19.601562 40.441406 C 19.300781 40.476562 18.996094 40.492188 18.691406 40.476562 C 18.75 39.453125 18.816406 38.414062 18.875 37.382812 Z M 42.40625 45.191406 C 42.238281 45.191406 42.070312 45.183594 41.910156 45.167969 C 41.765625 45.160156 41.628906 45.140625 41.488281 45.125 C 41.476562 45.125 41.417969 45.117188 41.410156 45.117188 C 41.375 45.109375 41.351562 45.109375 41.316406 45.101562 C 41.25 45.089844 41.171875 45.074219 41.105469 45.066406 C 40.539062 44.964844 39.992188 44.820312 39.449219 44.617188 C 39.296875 44.558594 39.109375 44.675781 39.078125 44.828125 C 39.035156 45 39.128906 45.140625 39.289062 45.199219 C 40.015625 45.472656 40.785156 45.648438 41.554688 45.734375 C 41.265625 45.886719 40.972656 46.039062 40.683594 46.191406 C 40.101562 46.0625 39.527344 45.9375 38.941406 45.808594 C 38.789062 45.777344 38.605469 45.851562 38.570312 46.019531 C 38.535156 46.171875 38.613281 46.359375 38.78125 46.394531 C 39.136719 46.46875 39.492188 46.546875 39.847656 46.621094 C 39.347656 46.882812 38.847656 47.144531 38.351562 47.40625 C 36.703125 48.269531 35.054688 49.132812 33.414062 49.992188 C 32.570312 50.433594 31.730469 50.871094 30.886719 51.3125 C 29.898438 50.679688 28.890625 50.0625 27.894531 49.445312 C 26.796875 48.769531 25.699219 48.09375 24.605469 47.414062 C 24.089844 47.09375 23.566406 46.765625 23.050781 46.445312 C 23.050781 45.757812 23.058594 45.066406 23.078125 44.382812 C 23.085938 44.121094 23.085938 43.855469 23.09375 43.59375 C 24.015625 43.25 24.945312 42.902344 25.867188 42.554688 C 26.804688 42.199219 27.742188 41.855469 28.679688 41.5 C 29.550781 41.167969 30.429688 40.847656 31.300781 40.519531 C 31.589844 40.410156 31.875 40.308594 32.164062 40.199219 C 33.609375 40.898438 35.046875 41.601562 36.492188 42.300781 C 37.9375 43.003906 39.382812 43.714844 40.828125 44.414062 C 41.359375 44.675781 41.882812 44.9375 42.40625 45.191406 Z M 35.875 41 C 35.605469 40.863281 35.324219 40.738281 35.054688 40.601562 C 34.480469 40.324219 33.914062 40.046875 33.339844 39.765625 C 33.5 39.707031 33.660156 39.648438 33.8125 39.589844 C 34.53125 39.316406 35.25 39.046875 35.96875 38.785156 C 35.941406 39.519531 35.90625 40.265625 35.875 41 Z M 35.875 41 " fill-opacity="1" fill-rule="nonzero"/></g><path fill="#ffffff" d="M 21.285156 39.4375 C 21.648438 39.648438 22.070312 39.648438 22.453125 39.46875 C 22.789062 39.308594 23.050781 38.980469 23.152344 38.625 C 23.203125 38.414062 23.230469 38.175781 23.160156 37.964844 C 23.085938 37.746094 22.949219 37.570312 22.757812 37.441406 C 22.453125 37.230469 22.039062 37.222656 21.691406 37.296875 C 21.34375 37.375 20.988281 37.59375 20.8125 37.914062 C 20.515625 38.464844 20.761719 39.132812 21.285156 39.4375 Z M 21.640625 38.566406 C 21.625 38.539062 21.613281 38.523438 21.605469 38.5 C 21.597656 38.480469 21.597656 38.457031 21.589844 38.4375 C 21.589844 38.421875 21.589844 38.414062 21.589844 38.398438 C 21.589844 38.386719 21.597656 38.378906 21.597656 38.371094 C 21.605469 38.355469 21.613281 38.347656 21.625 38.328125 C 21.640625 38.3125 21.65625 38.296875 21.664062 38.285156 C 21.683594 38.277344 21.691406 38.269531 21.707031 38.261719 C 21.734375 38.246094 21.757812 38.226562 21.785156 38.21875 C 21.84375 38.195312 21.910156 38.175781 21.96875 38.167969 C 22.027344 38.160156 22.078125 38.160156 22.140625 38.167969 C 22.171875 38.175781 22.199219 38.1875 22.230469 38.195312 C 22.242188 38.203125 22.257812 38.203125 22.265625 38.210938 C 22.265625 38.210938 22.273438 38.21875 22.273438 38.21875 C 22.273438 38.21875 22.28125 38.226562 22.28125 38.226562 C 22.28125 38.238281 22.28125 38.246094 22.292969 38.246094 C 22.292969 38.269531 22.292969 38.296875 22.292969 38.3125 C 22.28125 38.335938 22.28125 38.355469 22.273438 38.378906 C 22.265625 38.398438 22.257812 38.421875 22.257812 38.4375 C 22.242188 38.464844 22.230469 38.488281 22.214844 38.515625 C 22.222656 38.507812 22.222656 38.507812 22.230469 38.5 C 22.222656 38.507812 22.222656 38.507812 22.214844 38.515625 C 22.214844 38.515625 22.214844 38.515625 22.214844 38.523438 C 22.207031 38.539062 22.191406 38.558594 22.179688 38.558594 C 22.179688 38.558594 22.171875 38.566406 22.171875 38.566406 C 22.15625 38.582031 22.140625 38.589844 22.121094 38.609375 C 22.089844 38.625 22.0625 38.640625 22.027344 38.660156 C 21.996094 38.667969 21.96875 38.675781 21.9375 38.683594 C 21.910156 38.683594 21.894531 38.683594 21.867188 38.683594 C 21.84375 38.675781 21.808594 38.667969 21.785156 38.660156 C 21.765625 38.652344 21.742188 38.632812 21.726562 38.625 C 21.734375 38.632812 21.742188 38.632812 21.75 38.640625 C 21.742188 38.632812 21.734375 38.625 21.726562 38.617188 C 21.707031 38.609375 21.699219 38.589844 21.699219 38.589844 C 21.664062 38.589844 21.65625 38.582031 21.640625 38.566406 Z M 21.640625 38.566406 " fill-opacity="1" fill-rule="nonzero"/><path fill="#ffffff" d="M 21.683594 38.609375 C 21.691406 38.617188 21.699219 38.625 21.707031 38.632812 C 21.707031 38.632812 21.707031 38.632812 21.714844 38.640625 C 21.691406 38.609375 21.683594 38.601562 21.683594 38.609375 Z M 21.683594 38.609375 " fill-opacity="1" fill-rule="nonzero"/><path fill="#ffffff" d="M 22.171875 38.566406 C 22.179688 38.558594 22.199219 38.539062 22.207031 38.53125 C 22.207031 38.53125 22.207031 38.53125 22.207031 38.523438 C 22.171875 38.558594 22.164062 38.566406 22.171875 38.566406 Z M 22.171875 38.566406 " fill-opacity="1" fill-rule="nonzero"/><path fill="#ffffff" d="M 36.007812 28.761719 C 36.296875 28.945312 36.585938 29.132812 36.871094 29.3125 C 37.007812 29.394531 37.210938 29.34375 37.285156 29.199219 C 37.363281 29.046875 37.320312 28.878906 37.175781 28.785156 C 36.886719 28.601562 36.601562 28.414062 36.3125 28.238281 C 36.179688 28.152344 35.976562 28.203125 35.898438 28.347656 C 35.824219 28.5 35.867188 28.667969 36.007812 28.761719 Z M 36.007812 28.761719 " fill-opacity="1" fill-rule="nonzero"/><path fill="#ffffff" d="M 10.324219 22.429688 C 10.238281 22.296875 10.042969 22.234375 9.910156 22.320312 C 9.773438 22.414062 9.714844 22.589844 9.796875 22.734375 C 10 23.082031 10.210938 23.4375 10.414062 23.78125 C 10.5 23.917969 10.695312 23.976562 10.828125 23.894531 C 10.964844 23.800781 11.023438 23.621094 10.941406 23.476562 C 10.738281 23.132812 10.523438 22.785156 10.324219 22.429688 Z M 10.324219 22.429688 " fill-opacity="1" fill-rule="nonzero"/></svg>