<svg xmlns="http://www.w3.org/2000/svg" xmlns:xlink="http://www.w3.org/1999/xlink" width="66" zoomAndPan="magnify" viewBox="0 0 49.5 70.499999" height="94" preserveAspectRatio="xMidYMid meet" version="1.0"><defs><clipPath id="c357d5dbab"><path d="M 12 16 L 37 16 L 37 35.972656 L 12 35.972656 Z M 12 16 " clip-rule="nonzero"/></clipPath><clipPath id="a410f84b35"><path d="M 7.351562 9.242188 L 41.507812 9.242188 L 41.507812 19 L 7.351562 19 Z M 7.351562 9.242188 " clip-rule="nonzero"/></clipPath><clipPath id="f18ad8b43f"><path d="M 21 30 L 28 30 L 28 35.972656 L 21 35.972656 Z M 21 30 " clip-rule="nonzero"/></clipPath></defs><g clip-path="url(#c357d5dbab)"><path fill="#103f91" d="M 14.605469 23.605469 C 17.351562 20.941406 20.648438 19.511719 24.503906 19.511719 C 28.359375 19.511719 31.65625 20.945312 34.382812 23.597656 C 35.191406 22.792969 35.992188 21.992188 36.792969 21.195312 C 29.910156 14.226562 18.691406 14.535156 12.199219 21.210938 C 12.996094 22.003906 13.792969 22.800781 14.605469 23.605469 Z M 19.410156 28.460938 C 20.832031 27.078125 22.519531 26.332031 24.5 26.332031 C 26.484375 26.332031 28.175781 27.082031 29.554688 28.421875 C 30.371094 27.609375 31.171875 26.8125 31.96875 26.015625 C 27.617188 21.648438 20.796875 22.097656 17.007812 26.050781 C 17.019531 26.066406 17.035156 26.085938 17.046875 26.101562 C 17.828125 26.882812 18.609375 27.664062 19.410156 28.460938 Z M 27.261719 33.570312 C 27.261719 32.050781 26.035156 30.820312 24.519531 30.820312 C 23.011719 30.824219 21.777344 32.046875 21.773438 33.554688 C 21.765625 35.074219 22.996094 36.308594 24.511719 36.3125 C 26.035156 36.316406 27.261719 35.089844 27.261719 33.570312 Z M 27.261719 33.570312 " fill-opacity="1" fill-rule="nonzero"/></g><g clip-path="url(#a410f84b35)"><path fill="#103f91" d="M 41.648438 16.433594 C 41.601562 16.472656 41.546875 16.503906 41.503906 16.546875 C 40.796875 17.253906 40.089844 17.960938 39.382812 18.671875 C 39.339844 18.714844 39.308594 18.773438 39.269531 18.828125 C 35.132812 14.820312 30.238281 12.691406 24.5 12.691406 C 18.769531 12.691406 13.878906 14.816406 9.757812 18.800781 C 9.71875 18.765625 9.675781 18.722656 9.632812 18.679688 C 8.917969 17.96875 8.207031 17.257812 7.496094 16.546875 C 7.453125 16.503906 7.398438 16.472656 7.351562 16.433594 C 7.351562 16.414062 7.351562 16.390625 7.351562 16.367188 C 7.394531 16.332031 7.445312 16.300781 7.484375 16.261719 C 8.34375 15.421875 9.253906 14.640625 10.226562 13.929688 C 12.792969 12.054688 15.613281 10.726562 18.699219 9.964844 C 20.050781 9.628906 21.417969 9.410156 22.808594 9.324219 C 23.078125 9.308594 23.351562 9.28125 23.625 9.261719 C 24.207031 9.261719 24.792969 9.261719 25.375 9.261719 C 25.414062 9.269531 25.453125 9.28125 25.492188 9.285156 C 26.199219 9.34375 26.90625 9.390625 27.609375 9.46875 C 29.046875 9.632812 30.453125 9.953125 31.832031 10.398438 C 35.429688 11.554688 38.59375 13.449219 41.316406 16.074219 C 41.421875 16.175781 41.539062 16.269531 41.648438 16.367188 C 41.648438 16.390625 41.648438 16.414062 41.648438 16.433594 Z M 41.648438 16.433594 " fill-opacity="1" fill-rule="nonzero"/></g><path fill="#103f91" d="M 14.605469 23.605469 C 13.792969 22.800781 12.996094 22.003906 12.199219 21.210938 C 18.691406 14.535156 29.910156 14.226562 36.792969 21.195312 C 35.992188 21.992188 35.191406 22.792969 34.382812 23.597656 C 31.65625 20.945312 28.359375 19.511719 24.503906 19.511719 C 20.648438 19.511719 17.351562 20.941406 14.605469 23.605469 Z M 14.605469 23.605469 " fill-opacity="1" fill-rule="nonzero"/><path fill="#103f91" d="M 19.410156 28.460938 C 18.609375 27.664062 17.828125 26.882812 17.046875 26.101562 C 17.03125 26.085938 17.019531 26.070312 17.007812 26.050781 C 20.796875 22.097656 27.617188 21.648438 31.96875 26.015625 C 31.171875 26.8125 30.371094 27.609375 29.554688 28.421875 C 28.175781 27.082031 26.484375 26.332031 24.5 26.332031 C 22.519531 26.332031 20.832031 27.078125 19.410156 28.460938 Z M 19.410156 28.460938 " fill-opacity="1" fill-rule="nonzero"/><g clip-path="url(#f18ad8b43f)"><path fill="#103f91" d="M 27.261719 33.570312 C 27.261719 35.089844 26.035156 36.316406 24.511719 36.3125 C 22.996094 36.308594 21.765625 35.074219 21.773438 33.554688 C 21.777344 32.046875 23.011719 30.824219 24.519531 30.820312 C 26.035156 30.820312 27.261719 32.050781 27.261719 33.570312 Z M 27.261719 33.570312 " fill-opacity="1" fill-rule="nonzero"/></g></svg>