<svg xmlns="http://www.w3.org/2000/svg" xmlns:xlink="http://www.w3.org/1999/xlink" width="66" zoomAndPan="magnify" viewBox="0 0 49.5 70.499999" height="94" preserveAspectRatio="xMidYMid meet" version="1.0"><defs><clipPath id="5d4866835c"><path d="M 7.519531 10.578125 L 21 10.578125 L 21 22 L 7.519531 22 Z M 7.519531 10.578125 " clip-rule="nonzero"/></clipPath><clipPath id="cbf909d1de"><path d="M 23 10.578125 L 26 10.578125 L 26 22 L 23 22 Z M 23 10.578125 " clip-rule="nonzero"/></clipPath><clipPath id="97ea7fdd39"><path d="M 29 10.578125 L 37 10.578125 L 37 22 L 29 22 Z M 29 10.578125 " clip-rule="nonzero"/></clipPath><clipPath id="b846c777a9"><path d="M 39 10.578125 L 41.675781 10.578125 L 41.675781 22 L 39 22 Z M 39 10.578125 " clip-rule="nonzero"/></clipPath><clipPath id="ff2b396df9"><path d="M 30 24 L 41.675781 24 L 41.675781 52.898438 L 30 52.898438 Z M 30 24 " clip-rule="nonzero"/></clipPath><clipPath id="b621058481"><path d="M 7.519531 24 L 20 24 L 20 52.898438 L 7.519531 52.898438 Z M 7.519531 24 " clip-rule="nonzero"/></clipPath></defs><g clip-path="url(#5d4866835c)"><path fill="#ffffff" d="M 12.539062 21.011719 C 13.660156 15.632812 13.832031 14.875 14.152344 12.867188 L 14.183594 12.867188 C 14.53125 14.875 14.71875 15.894531 15.796875 21.011719 L 17.890625 21.011719 L 20.828125 10.570312 L 18.617188 10.570312 C 17.261719 16.316406 17.089844 17.214844 16.914062 18.207031 L 16.886719 18.207031 C 16.652344 16.851562 16.550781 16.300781 15.332031 10.570312 L 13.015625 10.570312 C 11.914062 16.054688 11.753906 17.113281 11.566406 18.207031 L 11.535156 18.207031 C 11.347656 17.011719 11.214844 16.285156 9.878906 10.570312 L 7.550781 10.570312 L 10.503906 21.011719 L 12.539062 21.011719 " fill-opacity="1" fill-rule="nonzero"/></g><g clip-path="url(#cbf909d1de)"><path fill="#ffffff" d="M 25.609375 10.570312 L 23.429688 10.570312 L 23.429688 21.011719 L 25.609375 21.011719 L 25.609375 10.570312 " fill-opacity="1" fill-rule="nonzero"/></g><g clip-path="url(#97ea7fdd39)"><path fill="#ffffff" d="M 31.28125 16.621094 L 35.875 16.621094 L 35.875 14.773438 L 31.28125 14.773438 L 31.28125 12.417969 L 36.53125 12.417969 L 36.53125 10.570312 L 29.101562 10.570312 L 29.101562 21.011719 L 31.28125 21.011719 L 31.28125 16.621094 " fill-opacity="1" fill-rule="nonzero"/></g><g clip-path="url(#b846c777a9)"><path fill="#ffffff" d="M 39.265625 10.570312 L 39.265625 21.011719 L 41.445312 21.011719 L 41.445312 10.570312 L 39.265625 10.570312 " fill-opacity="1" fill-rule="nonzero"/></g><path fill="#ffffff" d="M 24.695312 34.839844 C 22.703125 34.839844 21.085938 36.460938 21.085938 38.449219 C 21.085938 40.441406 22.703125 42.058594 24.695312 42.058594 C 26.683594 42.058594 28.304688 40.441406 28.304688 38.449219 C 28.304688 36.460938 26.683594 34.839844 24.695312 34.839844 " fill-opacity="1" fill-rule="nonzero"/><g clip-path="url(#ff2b396df9)"><path fill="#ffffff" d="M 31.804688 24.105469 C 31.136719 23.832031 30.378906 24.152344 30.109375 24.816406 C 29.839844 25.480469 30.15625 26.238281 30.820312 26.511719 C 35.695312 28.5 38.847656 33.1875 38.847656 38.449219 C 38.847656 43.710938 35.695312 48.398438 30.820312 50.390625 C 30.15625 50.660156 29.839844 51.417969 30.109375 52.085938 C 30.316406 52.589844 30.800781 52.894531 31.3125 52.894531 C 31.476562 52.894531 31.644531 52.863281 31.804688 52.796875 C 37.660156 50.40625 41.445312 44.773438 41.445312 38.449219 C 41.445312 32.125 37.660156 26.496094 31.804688 24.105469 " fill-opacity="1" fill-rule="nonzero"/></g><path fill="#ffffff" d="M 35.691406 38.449219 C 35.691406 34.472656 33.3125 30.933594 29.632812 29.429688 C 28.96875 29.160156 28.207031 29.480469 27.9375 30.144531 C 27.664062 30.808594 27.984375 31.566406 28.648438 31.835938 C 31.347656 32.941406 33.09375 35.535156 33.09375 38.449219 C 33.09375 41.363281 31.347656 43.960938 28.648438 45.0625 C 27.984375 45.332031 27.664062 46.09375 27.9375 46.757812 C 28.140625 47.261719 28.628906 47.566406 29.140625 47.566406 C 29.304688 47.566406 29.46875 47.535156 29.632812 47.46875 C 33.3125 45.964844 35.691406 42.425781 35.691406 38.449219 " fill-opacity="1" fill-rule="nonzero"/><g clip-path="url(#b621058481)"><path fill="#ffffff" d="M 18.570312 50.390625 C 13.695312 48.398438 10.542969 43.710938 10.542969 38.449219 C 10.542969 33.1875 13.695312 28.5 18.570312 26.511719 C 19.234375 26.238281 19.550781 25.480469 19.28125 24.816406 C 19.007812 24.152344 18.25 23.832031 17.585938 24.105469 C 11.730469 26.496094 7.945312 32.125 7.945312 38.449219 C 7.945312 44.773438 11.730469 50.40625 17.585938 52.796875 C 17.746094 52.863281 17.914062 52.894531 18.078125 52.894531 C 18.589844 52.894531 19.074219 52.585938 19.28125 52.085938 C 19.550781 51.417969 19.234375 50.660156 18.570312 50.390625 " fill-opacity="1" fill-rule="nonzero"/></g><path fill="#ffffff" d="M 20.742188 45.0625 C 18.039062 43.960938 16.296875 41.363281 16.296875 38.449219 C 16.296875 35.535156 18.039062 32.941406 20.742188 31.835938 C 21.40625 31.566406 21.722656 30.808594 21.453125 30.144531 C 21.183594 29.480469 20.421875 29.160156 19.757812 29.429688 C 16.078125 30.933594 13.695312 34.472656 13.695312 38.449219 C 13.695312 42.425781 16.078125 45.964844 19.757812 47.46875 C 19.917969 47.535156 20.085938 47.566406 20.25 47.566406 C 20.761719 47.566406 21.246094 47.261719 21.453125 46.757812 C 21.722656 46.09375 21.40625 45.332031 20.742188 45.0625 " fill-opacity="1" fill-rule="nonzero"/></svg>