<svg xmlns="http://www.w3.org/2000/svg" xmlns:xlink="http://www.w3.org/1999/xlink" width="66" zoomAndPan="magnify" viewBox="0 0 49.5 70.499999" height="94" preserveAspectRatio="xMidYMid meet" version="1.0"><defs><clipPath id="0e0d672756"><path d="M 6 11.421875 L 43 11.421875 L 43 58.941406 L 6 58.941406 Z M 6 11.421875 " clip-rule="nonzero"/></clipPath></defs><g clip-path="url(#0e0d672756)"><path fill="#ffffff" d="M 24.613281 11.421875 C 23.480469 11.421875 22.351562 11.527344 21.234375 11.734375 C 20.121094 11.945312 19.03125 12.257812 17.972656 12.667969 C 16.914062 13.082031 15.90625 13.589844 14.941406 14.191406 C 13.976562 14.792969 13.078125 15.476562 12.242188 16.246094 C 11.40625 17.015625 10.648438 17.855469 9.96875 18.765625 C 9.292969 19.675781 8.703125 20.644531 8.203125 21.664062 C 7.707031 22.683594 7.304688 23.742188 7.003906 24.835938 C 6.703125 25.933594 6.507812 27.046875 6.414062 28.179688 C 6.320312 29.308594 6.332031 30.441406 6.453125 31.570312 C 6.570312 32.699219 6.792969 33.808594 7.117188 34.898438 C 7.441406 35.988281 7.863281 37.035156 8.386719 38.042969 C 8.90625 39.054688 9.515625 40.007812 10.214844 40.902344 C 10.914062 41.796875 11.691406 42.621094 12.542969 43.371094 C 13.394531 44.121094 14.308594 44.789062 15.285156 45.367188 C 16.261719 45.945312 17.285156 46.429688 18.351562 46.820312 C 19.417969 47.210938 20.511719 47.496094 21.632812 47.679688 L 22.660156 50.964844 C 19.125 51.066406 8.644531 51.636719 8.644531 54.769531 C 8.644531 58.527344 23.960938 58.570312 24.613281 58.570312 C 25.269531 58.570312 40.585938 58.527344 40.585938 54.769531 C 40.585938 51.667969 30.105469 51.097656 26.570312 50.964844 L 27.59375 47.652344 C 28.707031 47.457031 29.792969 47.160156 30.847656 46.765625 C 31.90625 46.371094 32.917969 45.882812 33.882812 45.296875 C 34.847656 44.714844 35.753906 44.046875 36.59375 43.296875 C 37.4375 42.546875 38.203125 41.722656 38.894531 40.832031 C 39.582031 39.9375 40.183594 38.988281 40.699219 37.984375 C 41.214844 36.980469 41.628906 35.9375 41.949219 34.855469 C 42.269531 33.773438 42.488281 32.667969 42.605469 31.546875 C 42.722656 30.425781 42.734375 29.300781 42.640625 28.175781 C 42.546875 27.050781 42.351562 25.945312 42.054688 24.855469 C 41.757812 23.769531 41.363281 22.714844 40.867188 21.699219 C 40.375 20.6875 39.792969 19.726562 39.121094 18.816406 C 38.449219 17.910156 37.703125 17.074219 36.875 16.304688 C 36.050781 15.535156 35.160156 14.851562 34.203125 14.246094 C 33.25 13.644531 32.25 13.132812 31.203125 12.714844 C 30.152344 12.300781 29.074219 11.980469 27.96875 11.765625 C 26.859375 11.546875 25.742188 11.433594 24.613281 11.421875 Z M 39.0625 54.769531 C 38.730469 55.605469 33.609375 57.050781 24.613281 57.050781 C 15.617188 57.050781 10.492188 55.53125 10.164062 54.769531 C 10.46875 54.007812 15.054688 52.625 23.09375 52.488281 L 23.855469 54.964844 C 23.902344 55.128906 23.992188 55.261719 24.128906 55.363281 C 24.261719 55.464844 24.414062 55.515625 24.585938 55.515625 C 24.753906 55.515625 24.90625 55.464844 25.039062 55.363281 C 25.175781 55.261719 25.265625 55.128906 25.3125 54.964844 L 26.136719 52.488281 C 34.179688 52.664062 38.765625 54.046875 39.0625 54.769531 Z M 26.894531 46.246094 C 26.574219 46.289062 26.367188 46.464844 26.273438 46.777344 L 24.613281 52.183594 L 22.949219 46.777344 C 22.855469 46.464844 22.648438 46.289062 22.324219 46.246094 C 21.632812 46.148438 20.949219 46.011719 20.273438 45.828125 C 19.597656 45.648438 18.9375 45.425781 18.289062 45.160156 C 17.640625 44.898438 17.015625 44.59375 16.40625 44.253906 C 15.796875 43.910156 15.210938 43.53125 14.648438 43.113281 C 14.085938 42.699219 13.550781 42.246094 13.046875 41.765625 C 12.542969 41.28125 12.070312 40.769531 11.628906 40.226562 C 11.1875 39.683594 10.78125 39.117188 10.410156 38.523438 C 10.039062 37.929688 9.710938 37.316406 9.417969 36.679688 C 9.125 36.046875 8.871094 35.394531 8.660156 34.730469 C 8.449219 34.0625 8.28125 33.386719 8.152344 32.699219 C 8.027344 32.011719 7.941406 31.316406 7.902344 30.621094 C 7.863281 29.921875 7.867188 29.222656 7.914062 28.527344 C 7.964844 27.828125 8.054688 27.136719 8.1875 26.453125 C 8.324219 25.765625 8.5 25.089844 8.71875 24.425781 C 8.9375 23.761719 9.199219 23.113281 9.5 22.484375 C 9.800781 21.851562 10.136719 21.242188 10.515625 20.652344 C 10.890625 20.066406 11.304688 19.5 11.75 18.964844 C 12.199219 18.425781 12.675781 17.917969 13.1875 17.441406 C 13.699219 16.964844 14.238281 16.523438 14.804688 16.113281 C 15.371094 15.703125 15.960938 15.332031 16.574219 14.996094 C 17.1875 14.660156 17.820312 14.363281 18.46875 14.105469 C 19.121094 13.851562 19.785156 13.636719 20.460938 13.460938 C 21.136719 13.289062 21.824219 13.160156 22.519531 13.070312 C 23.210938 12.984375 23.90625 12.941406 24.605469 12.941406 C 25.304688 12.941406 26.003906 12.984375 26.695312 13.070312 C 27.390625 13.160156 28.074219 13.289062 28.753906 13.460938 C 29.429688 13.636719 30.09375 13.851562 30.742188 14.105469 C 31.394531 14.363281 32.027344 14.660156 32.640625 14.996094 C 33.253906 15.332031 33.84375 15.703125 34.410156 16.113281 C 34.976562 16.523438 35.515625 16.964844 36.027344 17.441406 C 36.535156 17.917969 37.015625 18.425781 37.464844 18.964844 C 37.910156 19.5 38.324219 20.066406 38.699219 20.652344 C 39.074219 21.242188 39.414062 21.851562 39.714844 22.484375 C 40.015625 23.113281 40.273438 23.761719 40.492188 24.425781 C 40.714844 25.089844 40.890625 25.765625 41.023438 26.453125 C 41.160156 27.136719 41.25 27.828125 41.296875 28.527344 C 41.347656 29.222656 41.351562 29.921875 41.308594 30.621094 C 41.269531 31.316406 41.1875 32.011719 41.0625 32.699219 C 40.933594 33.386719 40.765625 34.0625 40.554688 34.730469 C 40.34375 35.394531 40.089844 36.046875 39.796875 36.679688 C 39.503906 37.316406 39.171875 37.929688 38.804688 38.523438 C 38.433594 39.117188 38.027344 39.683594 37.585938 40.226562 C 37.144531 40.769531 36.671875 41.28125 36.167969 41.765625 C 35.660156 42.246094 35.128906 42.699219 34.566406 43.113281 C 34.003906 43.53125 33.417969 43.910156 32.808594 44.253906 C 32.199219 44.59375 31.570312 44.898438 30.925781 45.160156 C 30.277344 45.425781 29.617188 45.648438 28.941406 45.828125 C 28.265625 46.011719 27.582031 46.148438 26.886719 46.246094 Z M 26.894531 46.246094 " fill-opacity="1" fill-rule="nonzero"/></g><path fill="#ffffff" d="M 24.613281 15.226562 C 23.664062 15.226562 22.726562 15.316406 21.796875 15.503906 C 20.863281 15.6875 19.960938 15.960938 19.085938 16.324219 C 18.207031 16.6875 17.375 17.132812 16.585938 17.660156 C 15.796875 18.1875 15.070312 18.785156 14.398438 19.457031 C 13.726562 20.128906 13.128906 20.859375 12.601562 21.644531 C 12.074219 22.433594 11.628906 23.269531 11.265625 24.144531 C 10.902344 25.019531 10.628906 25.925781 10.441406 26.855469 C 10.257812 27.785156 10.164062 28.726562 10.164062 29.671875 C 10.164062 30.621094 10.257812 31.5625 10.441406 32.492188 C 10.628906 33.421875 10.902344 34.328125 11.265625 35.203125 C 11.628906 36.078125 12.074219 36.914062 12.601562 37.699219 C 13.128906 38.488281 13.726562 39.21875 14.398438 39.890625 C 15.070312 40.5625 15.796875 41.160156 16.585938 41.6875 C 17.375 42.214844 18.207031 42.660156 19.085938 43.023438 C 19.960938 43.386719 20.863281 43.660156 21.796875 43.84375 C 22.726562 44.03125 23.664062 44.121094 24.613281 44.121094 C 25.5625 44.121094 26.503906 44.03125 27.433594 43.84375 C 28.363281 43.660156 29.265625 43.386719 30.144531 43.023438 C 31.019531 42.660156 31.851562 42.214844 32.640625 41.6875 C 33.429688 41.160156 34.160156 40.5625 34.832031 39.890625 C 35.503906 39.21875 36.101562 38.488281 36.628906 37.699219 C 37.15625 36.914062 37.601562 36.078125 37.964844 35.203125 C 38.328125 34.328125 38.601562 33.421875 38.785156 32.492188 C 38.972656 31.5625 39.0625 30.621094 39.0625 29.671875 C 39.0625 28.726562 38.972656 27.785156 38.785156 26.855469 C 38.601562 25.925781 38.328125 25.019531 37.964844 24.144531 C 37.601562 23.269531 37.15625 22.433594 36.628906 21.644531 C 36.101562 20.859375 35.503906 20.128906 34.832031 19.457031 C 34.160156 18.785156 33.429688 18.1875 32.640625 17.660156 C 31.851562 17.132812 31.019531 16.6875 30.144531 16.324219 C 29.265625 15.960938 28.363281 15.6875 27.433594 15.503906 C 26.503906 15.316406 25.5625 15.226562 24.613281 15.226562 Z M 24.613281 42.601562 C 23.765625 42.601562 22.925781 42.519531 22.09375 42.351562 C 21.261719 42.1875 20.453125 41.941406 19.667969 41.617188 C 18.882812 41.292969 18.136719 40.894531 17.433594 40.421875 C 16.726562 39.953125 16.074219 39.414062 15.472656 38.816406 C 14.871094 38.214844 14.335938 37.5625 13.867188 36.855469 C 13.394531 36.148438 12.996094 35.40625 12.671875 34.621094 C 12.347656 33.835938 12.101562 33.027344 11.933594 32.195312 C 11.769531 31.363281 11.6875 30.523438 11.6875 29.671875 C 11.6875 28.824219 11.769531 27.984375 11.933594 27.152344 C 12.101562 26.320312 12.347656 25.511719 12.671875 24.726562 C 12.996094 23.941406 13.394531 23.195312 13.867188 22.492188 C 14.335938 21.785156 14.871094 21.132812 15.472656 20.53125 C 16.074219 19.933594 16.726562 19.394531 17.433594 18.925781 C 18.136719 18.453125 18.882812 18.054688 19.667969 17.730469 C 20.453125 17.40625 21.261719 17.160156 22.09375 16.996094 C 22.925781 16.828125 23.765625 16.746094 24.613281 16.746094 C 25.464844 16.746094 26.304688 16.828125 27.136719 16.996094 C 27.96875 17.160156 28.777344 17.40625 29.5625 17.730469 C 30.347656 18.054688 31.089844 18.453125 31.796875 18.925781 C 32.503906 19.394531 33.15625 19.933594 33.753906 20.53125 C 34.355469 21.132812 34.890625 21.785156 35.363281 22.492188 C 35.835938 23.195312 36.234375 23.941406 36.558594 24.726562 C 36.882812 25.511719 37.128906 26.320312 37.292969 27.152344 C 37.460938 27.984375 37.542969 28.824219 37.542969 29.671875 C 37.542969 30.523438 37.460938 31.363281 37.292969 32.195312 C 37.128906 33.027344 36.882812 33.835938 36.558594 34.621094 C 36.234375 35.40625 35.835938 36.148438 35.363281 36.855469 C 34.890625 37.5625 34.355469 38.214844 33.753906 38.816406 C 33.15625 39.414062 32.503906 39.953125 31.796875 40.421875 C 31.089844 40.894531 30.347656 41.292969 29.5625 41.617188 C 28.777344 41.941406 27.96875 42.1875 27.136719 42.351562 C 26.304688 42.519531 25.464844 42.601562 24.613281 42.601562 Z M 24.613281 42.601562 " fill-opacity="1" fill-rule="nonzero"/><path fill="#ffffff" d="M 14.179688 26.503906 L 15.277344 27.558594 C 15.878906 26.933594 16.542969 26.371094 17.261719 25.875 C 17.976562 25.382812 18.738281 24.964844 19.539062 24.621094 C 20.34375 24.28125 21.171875 24.023438 22.023438 23.851562 C 22.878906 23.675781 23.742188 23.589844 24.613281 23.589844 C 25.484375 23.589844 26.347656 23.675781 27.203125 23.851562 C 28.058594 24.023438 28.886719 24.28125 29.6875 24.621094 C 30.492188 24.964844 31.25 25.382812 31.96875 25.875 C 32.6875 26.371094 33.347656 26.933594 33.953125 27.558594 L 35.046875 26.503906 C 34.710938 26.152344 34.355469 25.820312 33.988281 25.507812 C 33.617188 25.191406 33.230469 24.898438 32.832031 24.621094 C 32.429688 24.347656 32.015625 24.09375 31.589844 23.859375 C 31.167969 23.625 30.730469 23.414062 30.28125 23.222656 C 29.835938 23.035156 29.378906 22.867188 28.917969 22.722656 C 28.453125 22.578125 27.984375 22.457031 27.507812 22.359375 C 27.03125 22.265625 26.550781 22.191406 26.066406 22.140625 C 25.585938 22.09375 25.101562 22.070312 24.613281 22.070312 C 24.128906 22.070312 23.644531 22.09375 23.160156 22.140625 C 22.679688 22.191406 22.199219 22.265625 21.722656 22.359375 C 21.246094 22.457031 20.777344 22.578125 20.3125 22.722656 C 19.847656 22.867188 19.394531 23.035156 18.945312 23.222656 C 18.5 23.414062 18.0625 23.625 17.636719 23.859375 C 17.210938 24.09375 16.796875 24.347656 16.398438 24.621094 C 16 24.898438 15.613281 25.191406 15.242188 25.507812 C 14.871094 25.820312 14.519531 26.152344 14.179688 26.503906 Z M 14.179688 26.503906 " fill-opacity="1" fill-rule="nonzero"/><path fill="#ffffff" d="M 22.460938 34.367188 C 22.175781 34.652344 21.957031 34.980469 21.804688 35.351562 C 21.648438 35.726562 21.574219 36.113281 21.574219 36.515625 C 21.574219 36.921875 21.648438 37.308594 21.804688 37.679688 C 21.957031 38.054688 22.179688 38.382812 22.464844 38.667969 C 22.75 38.953125 23.078125 39.171875 23.449219 39.324219 C 23.824219 39.480469 24.210938 39.558594 24.613281 39.558594 C 25.019531 39.558594 25.40625 39.480469 25.777344 39.324219 C 26.152344 39.171875 26.480469 38.953125 26.765625 38.667969 C 27.050781 38.382812 27.269531 38.054688 27.425781 37.679688 C 27.578125 37.308594 27.65625 36.921875 27.65625 36.515625 C 27.65625 36.113281 27.578125 35.726562 27.425781 35.351562 C 27.269531 34.980469 27.050781 34.652344 26.765625 34.367188 C 26.476562 34.089844 26.144531 33.875 25.773438 33.726562 C 25.402344 33.578125 25.015625 33.503906 24.613281 33.503906 C 24.214844 33.503906 23.828125 33.578125 23.457031 33.726562 C 23.082031 33.875 22.753906 34.089844 22.460938 34.367188 Z M 25.6875 37.589844 C 25.542969 37.730469 25.378906 37.839844 25.195312 37.917969 C 25.007812 37.996094 24.816406 38.03125 24.613281 38.03125 C 24.414062 38.03125 24.21875 37.996094 24.035156 37.917969 C 23.847656 37.839844 23.683594 37.730469 23.542969 37.589844 C 23.398438 37.449219 23.289062 37.285156 23.210938 37.097656 C 23.132812 36.910156 23.09375 36.714844 23.09375 36.515625 C 23.09375 36.3125 23.132812 36.117188 23.207031 35.929688 C 23.285156 35.746094 23.394531 35.582031 23.539062 35.4375 C 23.679688 35.292969 23.84375 35.183594 24.03125 35.105469 C 24.21875 35.03125 24.414062 34.992188 24.613281 34.992188 C 24.816406 34.992188 25.011719 35.03125 25.195312 35.105469 C 25.382812 35.183594 25.546875 35.292969 25.691406 35.4375 C 25.832031 35.582031 25.945312 35.746094 26.019531 35.929688 C 26.097656 36.117188 26.136719 36.3125 26.136719 36.515625 C 26.136719 36.714844 26.097656 36.910156 26.019531 37.097656 C 25.941406 37.285156 25.828125 37.449219 25.6875 37.589844 Z M 25.6875 37.589844 " fill-opacity="1" fill-rule="nonzero"/><path fill="#ffffff" d="M 19.679688 32.128906 L 20.765625 33.195312 C 21.015625 32.933594 21.285156 32.703125 21.582031 32.496094 C 21.878906 32.292969 22.191406 32.121094 22.523438 31.976562 C 22.851562 31.835938 23.195312 31.730469 23.546875 31.65625 C 23.898438 31.585938 24.253906 31.550781 24.613281 31.550781 C 24.972656 31.550781 25.328125 31.585938 25.683594 31.65625 C 26.035156 31.730469 26.375 31.835938 26.707031 31.976562 C 27.039062 32.121094 27.351562 32.292969 27.644531 32.496094 C 27.941406 32.703125 28.214844 32.933594 28.460938 33.195312 L 29.550781 32.128906 C 29.230469 31.796875 28.878906 31.5 28.5 31.234375 C 28.121094 30.972656 27.71875 30.75 27.292969 30.570312 C 26.871094 30.386719 26.429688 30.25 25.976562 30.160156 C 25.527344 30.066406 25.070312 30.019531 24.605469 30.019531 C 24.144531 30.019531 23.6875 30.066406 23.234375 30.160156 C 22.78125 30.25 22.34375 30.386719 21.917969 30.570312 C 21.496094 30.75 21.09375 30.972656 20.710938 31.234375 C 20.332031 31.5 19.984375 31.796875 19.664062 32.128906 Z M 19.679688 32.128906 " fill-opacity="1" fill-rule="nonzero"/><path fill="#ffffff" d="M 16.933594 29.316406 L 18.019531 30.375 C 18.449219 29.929688 18.914062 29.535156 19.421875 29.1875 C 19.929688 28.835938 20.464844 28.542969 21.03125 28.300781 C 21.597656 28.0625 22.183594 27.878906 22.785156 27.757812 C 23.390625 27.636719 24 27.574219 24.613281 27.574219 C 25.230469 27.574219 25.839844 27.636719 26.441406 27.757812 C 27.042969 27.878906 27.628906 28.0625 28.195312 28.300781 C 28.761719 28.542969 29.300781 28.835938 29.804688 29.1875 C 30.3125 29.535156 30.78125 29.929688 31.207031 30.375 L 32.296875 29.316406 C 31.796875 28.796875 31.253906 28.335938 30.664062 27.929688 C 30.074219 27.519531 29.449219 27.175781 28.789062 26.894531 C 28.128906 26.613281 27.449219 26.402344 26.746094 26.257812 C 26.042969 26.113281 25.332031 26.042969 24.613281 26.042969 C 23.898438 26.042969 23.1875 26.113281 22.484375 26.257812 C 21.78125 26.402344 21.101562 26.613281 20.441406 26.894531 C 19.78125 27.175781 19.15625 27.519531 18.5625 27.929688 C 17.972656 28.335938 17.429688 28.796875 16.933594 29.316406 Z M 16.933594 29.316406 " fill-opacity="1" fill-rule="nonzero"/></svg>