<svg xmlns="http://www.w3.org/2000/svg" xmlns:xlink="http://www.w3.org/1999/xlink" width="82" zoomAndPan="magnify" viewBox="0 0 61.5 70.499999" height="94" preserveAspectRatio="xMidYMid meet" version="1.0"><defs><clipPath id="733d7a7304"><path d="M 6.101562 13.40625 L 55.203125 13.40625 L 55.203125 56.554688 L 6.101562 56.554688 Z M 6.101562 13.40625 " clip-rule="nonzero"/></clipPath></defs><path fill="#000000" d="M 31.875 47.292969 C 34.035156 46.621094 36.171875 45.84375 38.257812 44.96875 C 38.871094 44.71875 39.484375 44.453125 40.089844 44.179688 C 40.269531 44.097656 40.332031 43.824219 40.226562 43.664062 C 40.109375 43.476562 39.898438 43.445312 39.707031 43.527344 C 39.445312 43.644531 39.191406 43.761719 38.925781 43.875 C 38.796875 43.929688 38.671875 43.992188 38.542969 44.042969 C 38.492188 44.066406 38.425781 44.097656 38.375 44.117188 C 38.34375 44.128906 38.3125 44.148438 38.269531 44.160156 C 38.246094 44.171875 38.226562 44.179688 38.203125 44.179688 C 37.6875 44.402344 37.15625 44.613281 36.628906 44.820312 C 35.578125 45.230469 34.53125 45.621094 33.472656 45.980469 C 32.867188 46.179688 32.265625 46.378906 31.660156 46.566406 C 31.472656 46.628906 31.332031 46.832031 31.398438 47.03125 C 31.472656 47.21875 31.671875 47.355469 31.875 47.292969 Z M 31.875 47.292969 " fill-opacity="1" fill-rule="nonzero"/><path fill="#000000" d="M 42.398438 45.746094 C 42.492188 45.707031 42.566406 45.664062 42.621094 45.578125 C 42.664062 45.496094 42.683594 45.378906 42.664062 45.285156 C 42.609375 45.105469 42.386719 44.9375 42.195312 45.023438 C 39.996094 45.9375 37.800781 46.863281 35.601562 47.777344 C 34.988281 48.027344 34.363281 48.292969 33.746094 48.542969 C 33.652344 48.585938 33.578125 48.628906 33.523438 48.710938 C 33.484375 48.796875 33.460938 48.914062 33.484375 49.007812 C 33.535156 49.183594 33.757812 49.355469 33.949219 49.269531 C 36.152344 48.355469 38.34375 47.429688 40.542969 46.515625 C 41.160156 46.261719 41.773438 46 42.398438 45.746094 Z M 42.398438 45.746094 " fill-opacity="1" fill-rule="nonzero"/><path fill="#000000" d="M 45.246094 47.25 C 45.4375 47.1875 45.574219 46.988281 45.511719 46.789062 C 45.445312 46.609375 45.246094 46.453125 45.042969 46.527344 C 42.703125 47.378906 40.363281 48.230469 38.023438 49.082031 C 37.359375 49.320312 36.691406 49.5625 36.035156 49.804688 C 35.84375 49.867188 35.707031 50.070312 35.769531 50.269531 C 35.832031 50.445312 36.035156 50.605469 36.234375 50.53125 C 38.574219 49.679688 40.914062 48.828125 43.253906 47.976562 C 43.921875 47.734375 44.589844 47.492188 45.246094 47.25 Z M 45.246094 47.25 " fill-opacity="1" fill-rule="nonzero"/><path fill="#000000" d="M 38.957031 51.402344 C 38.777344 51.488281 38.714844 51.761719 38.820312 51.917969 C 38.9375 52.109375 39.148438 52.140625 39.339844 52.054688 C 41.265625 51.152344 43.191406 50.257812 45.117188 49.355469 C 45.660156 49.101562 46.210938 48.847656 46.75 48.597656 C 46.929688 48.511719 46.992188 48.238281 46.886719 48.082031 C 46.769531 47.890625 46.558594 47.859375 46.367188 47.945312 C 44.441406 48.847656 42.515625 49.742188 40.585938 50.648438 C 40.046875 50.898438 39.507812 51.152344 38.957031 51.402344 Z M 38.957031 51.402344 " fill-opacity="1" fill-rule="nonzero"/><path fill="#000000" d="M 24.492188 36.738281 C 24.378906 36.738281 24.429688 36.746094 24.492188 36.738281 Z M 24.492188 36.738281 " fill-opacity="1" fill-rule="nonzero"/><path fill="#000000" d="M 23.171875 36.777344 C 23.203125 36.789062 23.234375 36.789062 23.265625 36.800781 C 23.265625 36.800781 23.265625 36.800781 23.277344 36.800781 C 23.191406 36.769531 23.171875 36.769531 23.171875 36.777344 Z M 23.171875 36.777344 " fill-opacity="1" fill-rule="nonzero"/><g clip-path="url(#733d7a7304)"><path fill="#000000" d="M 54.765625 47.21875 C 52.941406 46.335938 51.121094 45.464844 49.300781 44.582031 C 48.402344 44.148438 47.511719 43.71875 46.613281 43.277344 C 47.351562 42.804688 48.019531 42.234375 48.539062 41.519531 C 49.164062 40.660156 49.535156 39.605469 49.777344 38.578125 C 50.03125 37.503906 50.160156 36.402344 50.265625 35.296875 C 50.378906 33.960938 50.476562 32.625 50.496094 31.28125 C 50.507812 30.640625 50.488281 29.996094 50.433594 29.355469 C 50.402344 29.007812 50.390625 28.640625 50.265625 28.304688 C 50.0625 27.789062 49.703125 27.347656 49.300781 26.96875 C 48.242188 25.992188 46.917969 25.296875 45.617188 24.699219 C 44.058594 23.972656 42.441406 23.375 40.789062 22.859375 C 39.445312 22.4375 38.058594 22.070312 36.660156 21.878906 C 36.277344 21.828125 35.886719 21.785156 35.496094 21.808594 C 35.199219 21.828125 34.914062 21.859375 34.625 21.902344 C 34.320312 21.945312 34.023438 21.984375 33.714844 22.027344 C 33.175781 21.019531 32.6875 19.976562 32.222656 18.925781 C 32.085938 18.609375 31.949219 18.296875 31.808594 17.96875 C 31.398438 17.003906 31.003906 16.015625 30.644531 15.027344 C 30.59375 14.890625 30.519531 14.753906 30.378906 14.6875 C 30.234375 14.617188 30.105469 14.605469 29.945312 14.636719 C 29.460938 14.710938 28.984375 14.785156 28.496094 14.859375 C 28.359375 14.519531 28.210938 14.175781 28.074219 13.835938 C 28.019531 13.699219 27.945312 13.574219 27.808594 13.5 C 27.671875 13.425781 27.523438 13.40625 27.375 13.449219 C 25.054688 14.046875 22.714844 14.574219 20.363281 15.015625 C 19.191406 15.234375 18.015625 15.4375 16.828125 15.625 C 16.234375 15.71875 15.644531 15.804688 15.039062 15.886719 C 14.890625 15.910156 14.742188 15.929688 14.59375 15.949219 C 14.5625 15.949219 14.53125 15.960938 14.488281 15.960938 C 14.402344 15.972656 14.320312 15.984375 14.234375 15.992188 C 13.9375 16.035156 13.640625 16.066406 13.34375 16.109375 C 12.011719 16.265625 10.675781 16.402344 9.332031 16.519531 C 9.132812 16.539062 8.953125 16.613281 8.84375 16.800781 C 8.738281 16.992188 8.761719 17.179688 8.84375 17.371094 C 8.960938 17.621094 9.078125 17.863281 9.195312 18.117188 C 8.570312 18.222656 7.957031 18.335938 7.332031 18.441406 C 7.164062 18.472656 7.023438 18.621094 6.960938 18.769531 C 6.886719 18.9375 6.898438 19.117188 6.992188 19.273438 C 7.566406 20.3125 8.09375 21.367188 8.625 22.417969 C 9.164062 23.488281 9.703125 24.574219 10.253906 25.644531 C 10.445312 26.011719 10.636719 26.371094 10.824219 26.738281 C 10.253906 26.886719 9.683594 27.054688 9.132812 27.285156 C 8.539062 27.527344 7.976562 27.8125 7.492188 28.222656 C 7.375 28.316406 7.269531 28.429688 7.164062 28.535156 C 7.140625 28.558594 7.121094 28.578125 7.097656 28.609375 C 6.875 28.882812 6.695312 29.1875 6.558594 29.523438 C 6.335938 30.0625 6.261719 30.640625 6.21875 31.21875 C 6.15625 31.984375 6.175781 32.761719 6.199219 33.53125 C 6.230469 34.613281 6.285156 35.695312 6.292969 36.789062 C 6.316406 37.945312 6.230469 39.101562 6.359375 40.25 C 6.484375 41.46875 6.855469 42.605469 7.660156 43.5625 C 8.441406 44.496094 9.523438 45.136719 10.550781 45.769531 C 12.984375 47.273438 15.410156 48.765625 17.84375 50.269531 C 18.9375 50.941406 20.058594 51.613281 21.296875 51.980469 C 22.621094 52.371094 23.964844 52.277344 25.277344 51.898438 C 26.484375 51.550781 27.660156 51.035156 28.824219 50.574219 C 29.871094 51.234375 30.929688 51.886719 32 52.527344 C 33.378906 53.371094 34.753906 54.210938 36.121094 55.050781 C 36.859375 55.515625 37.613281 55.976562 38.34375 56.441406 C 38.523438 56.554688 38.746094 56.535156 38.914062 56.441406 C 40.980469 55.367188 43.042969 54.296875 45.097656 53.222656 C 47.164062 52.152344 49.226562 51.078125 51.28125 50.003906 C 52.433594 49.40625 53.597656 48.796875 54.753906 48.195312 C 55.125 48.007812 55.144531 47.398438 54.765625 47.21875 Z M 23.066406 51.097656 C 23.023438 51.097656 22.992188 51.097656 22.949219 51.097656 C 22.992188 50.046875 23.042969 49.007812 23.097656 47.957031 C 23.160156 46.652344 23.222656 45.347656 23.289062 44.035156 C 23.308594 43.664062 23.320312 43.296875 23.339844 42.941406 C 23.351562 42.941406 23.359375 42.941406 23.382812 42.941406 C 24.917969 42.992188 26.441406 42.570312 27.882812 42.097656 C 29.375 41.605469 30.847656 41.046875 32.316406 40.511719 C 35.15625 39.480469 37.992188 38.417969 40.789062 37.285156 C 43.605469 36.136719 46.390625 34.898438 49.121094 33.5625 C 49.171875 33.539062 49.226562 33.507812 49.269531 33.488281 C 49.238281 34.035156 49.195312 34.582031 49.140625 35.128906 C 49.046875 36.179688 48.953125 37.09375 48.71875 38.125 C 48.496094 39.132812 48.199219 40.050781 47.617188 40.890625 C 47.375 41.238281 46.941406 41.679688 46.527344 41.984375 C 46.378906 42.097656 46.210938 42.203125 46.050781 42.308594 C 46.101562 41.164062 46.15625 40.007812 46.210938 38.859375 C 46.21875 38.515625 45.828125 38.1875 45.488281 38.3125 C 44.460938 38.691406 43.433594 39.082031 42.410156 39.460938 C 41.371094 39.847656 40.332031 40.226562 39.285156 40.617188 C 38.195312 41.015625 37.113281 41.425781 36.023438 41.824219 C 34.847656 42.257812 33.683594 42.699219 32.507812 43.128906 C 31.226562 43.601562 29.945312 44.074219 28.664062 44.558594 C 28.496094 44.621094 28.335938 44.683594 28.167969 44.738281 C 27.925781 44.832031 27.753906 45.023438 27.746094 45.285156 C 27.710938 46.664062 27.679688 48.039062 27.679688 49.417969 C 27.679688 49.542969 27.679688 49.667969 27.679688 49.785156 C 26.761719 50.164062 25.828125 50.53125 24.863281 50.804688 C 24.292969 50.984375 23.691406 51.097656 23.066406 51.097656 Z M 14.519531 46.882812 C 13.335938 46.148438 12.148438 45.421875 10.964844 44.683594 C 10.019531 44.105469 9.035156 43.507812 8.359375 42.636719 C 7.703125 41.773438 7.492188 40.722656 7.4375 39.679688 C 7.375 38.535156 7.4375 37.378906 7.40625 36.230469 C 7.382812 35.570312 7.363281 34.90625 7.34375 34.246094 C 9.925781 35.886719 12.464844 37.597656 15.0625 39.21875 C 16.363281 40.039062 17.675781 40.859375 19.050781 41.5625 C 20.046875 42.078125 21.105469 42.5625 22.207031 42.78125 C 22.1875 43.390625 22.152344 43.992188 22.121094 44.601562 C 21.859375 44.308594 21.605469 44.023438 21.339844 43.730469 C 21.203125 43.582031 20.9375 43.582031 20.800781 43.730469 C 20.652344 43.886719 20.660156 44.105469 20.800781 44.265625 C 21.191406 44.695312 21.570312 45.128906 21.964844 45.558594 C 21.996094 45.589844 22.027344 45.609375 22.058594 45.632812 C 22.058594 45.640625 22.058594 45.652344 22.058594 45.664062 C 22.046875 45.980469 22.027344 46.285156 22.015625 46.597656 C 21.582031 46.136719 21.136719 45.664062 20.703125 45.199219 C 20.566406 45.054688 20.300781 45.054688 20.164062 45.199219 C 20.015625 45.359375 20.015625 45.578125 20.164062 45.738281 C 20.765625 46.378906 21.359375 47.019531 21.964844 47.660156 C 21.941406 48.050781 21.921875 48.449219 21.910156 48.839844 C 21.890625 48.828125 21.867188 48.808594 21.847656 48.796875 C 21.625 48.617188 21.402344 48.429688 21.179688 48.238281 C 20.746094 47.859375 20.34375 47.449219 19.960938 47.03125 C 19.742188 46.789062 19.527344 46.535156 19.328125 46.285156 C 19.199219 46.125 18.914062 46.148438 18.789062 46.285156 C 18.640625 46.453125 18.648438 46.652344 18.789062 46.820312 C 19.519531 47.734375 20.34375 48.566406 21.265625 49.300781 C 21.464844 49.457031 21.667969 49.617188 21.867188 49.765625 C 21.847656 50.152344 21.835938 50.550781 21.816406 50.941406 C 21.644531 50.898438 21.476562 50.847656 21.296875 50.792969 C 20.144531 50.40625 19.105469 49.722656 18.078125 49.089844 C 16.890625 48.34375 15.707031 47.617188 14.519531 46.882812 Z M 9.683594 19.167969 C 10.507812 20.933594 11.367188 22.691406 12.191406 24.445312 C 12.464844 25.023438 12.742188 25.613281 13.007812 26.191406 C 12.65625 26.277344 12.308594 26.359375 11.957031 26.445312 C 11.460938 25.527344 10.996094 24.605469 10.519531 23.667969 C 9.976562 22.597656 9.4375 21.511719 8.886719 20.441406 C 8.707031 20.09375 8.527344 19.746094 8.347656 19.398438 C 8.773438 19.324219 9.207031 19.253906 9.628906 19.167969 C 9.648438 19.179688 9.660156 19.179688 9.683594 19.167969 Z M 29.714844 15.8125 C 30.019531 16.625 30.339844 17.414062 30.667969 18.210938 C 31.113281 19.261719 31.566406 20.304688 32.0625 21.324219 C 32.210938 21.628906 32.359375 21.933594 32.519531 22.226562 C 32.210938 22.28125 31.90625 22.332031 31.597656 22.386719 C 31.585938 22.386719 31.578125 22.386719 31.566406 22.386719 C 30.667969 20.242188 29.796875 18.074219 28.917969 15.929688 C 29.183594 15.898438 29.449219 15.855469 29.714844 15.8125 Z M 29.820312 21.101562 C 30.019531 21.597656 30.234375 22.101562 30.445312 22.597656 C 29.503906 22.765625 28.558594 22.941406 27.617188 23.132812 C 26.09375 23.425781 24.566406 23.730469 23.042969 24.035156 C 21.496094 24.351562 19.960938 24.667969 18.425781 25.003906 C 17.050781 25.296875 15.675781 25.601562 14.296875 25.90625 C 14.246094 25.917969 14.203125 25.929688 14.148438 25.9375 C 14.140625 25.917969 14.140625 25.90625 14.128906 25.886719 C 13.027344 23.519531 11.882812 21.175781 10.761719 18.8125 C 10.570312 18.402344 10.371094 17.992188 10.179688 17.570312 C 12.328125 17.371094 14.46875 17.109375 16.605469 16.792969 C 18.976562 16.433594 21.347656 15.992188 23.699219 15.488281 C 24.863281 15.234375 26.019531 14.960938 27.171875 14.667969 C 28.074219 16.800781 28.929688 18.957031 29.820312 21.101562 Z M 11.746094 27.664062 C 11.789062 27.664062 11.820312 27.652344 11.863281 27.632812 C 12.277344 27.527344 12.699219 27.433594 13.113281 27.335938 C 15.78125 26.71875 18.449219 26.140625 21.128906 25.582031 C 24.070312 24.972656 27.015625 24.371094 29.96875 23.824219 C 31.113281 23.617188 32.265625 23.40625 33.417969 23.214844 C 33.84375 23.152344 34.257812 23.089844 34.679688 23.027344 C 34.679688 23.027344 34.691406 23.027344 34.691406 23.027344 C 34.730469 23.015625 34.773438 23.015625 34.816406 23.015625 C 34.902344 23.003906 34.988281 22.996094 35.058594 22.984375 C 35.1875 22.972656 35.324219 22.953125 35.453125 22.953125 C 35.792969 22.933594 36.128906 22.964844 36.457031 22.996094 C 36.46875 22.996094 36.488281 22.996094 36.5 22.996094 C 36.511719 22.996094 36.523438 22.996094 36.523438 22.996094 C 36.585938 23.003906 36.648438 23.015625 36.722656 23.027344 C 36.859375 23.046875 37 23.070312 37.144531 23.101562 C 37.464844 23.164062 37.792969 23.226562 38.109375 23.300781 C 39.625 23.648438 41.117188 24.121094 42.578125 24.65625 C 42.980469 24.804688 43.371094 24.949219 43.761719 25.117188 C 43.847656 25.152344 43.933594 25.183594 44.019531 25.222656 C 44.039062 25.234375 44.089844 25.253906 44.101562 25.253906 C 44.144531 25.277344 44.199219 25.296875 44.238281 25.320312 C 44.421875 25.390625 44.601562 25.476562 44.789062 25.5625 C 45.488281 25.875 46.175781 26.210938 46.832031 26.601562 C 47.128906 26.78125 47.425781 26.960938 47.710938 27.160156 C 47.828125 27.230469 47.933594 27.316406 48.039062 27.402344 C 48.007812 27.378906 48.148438 27.484375 48.167969 27.503906 C 48.230469 27.558594 48.296875 27.609375 48.359375 27.664062 C 48.515625 27.800781 48.675781 27.949219 48.8125 28.105469 C 47.660156 28.609375 46.503906 29.113281 45.351562 29.597656 C 45.351562 29.597656 45.265625 29.628906 45.257812 29.640625 C 45.234375 29.652344 45.214844 29.660156 45.191406 29.671875 C 45.109375 29.703125 45.023438 29.746094 44.9375 29.777344 C 44.757812 29.851562 44.566406 29.933594 44.386719 30.007812 C 44.027344 30.15625 43.667969 30.300781 43.308594 30.449219 C 42.566406 30.753906 41.824219 31.050781 41.074219 31.355469 C 38.089844 32.542969 35.082031 33.675781 32.03125 34.707031 C 30.710938 35.148438 29.386719 35.582031 28.039062 35.957031 C 26.992188 36.253906 25.933594 36.527344 24.863281 36.707031 C 24.757812 36.726562 24.664062 36.738281 24.558594 36.757812 C 24.546875 36.757812 24.527344 36.757812 24.503906 36.757812 C 24.515625 36.757812 24.527344 36.757812 24.527344 36.757812 C 24.472656 36.757812 24.410156 36.769531 24.355469 36.777344 C 24.175781 36.800781 23.996094 36.8125 23.804688 36.820312 C 23.648438 36.832031 23.5 36.832031 23.339844 36.820312 C 23.320312 36.820312 23.296875 36.820312 23.265625 36.8125 C 23.265625 36.8125 23.277344 36.8125 23.277344 36.8125 C 23.265625 36.8125 23.265625 36.8125 23.253906 36.800781 C 23.246094 36.800781 23.246094 36.800781 23.234375 36.800781 C 23.234375 36.800781 23.222656 36.800781 23.222656 36.800781 C 23.214844 36.800781 23.191406 36.789062 23.179688 36.789062 C 23.171875 36.789062 23.171875 36.777344 23.171875 36.777344 C 23.074219 36.757812 22.957031 36.746094 22.863281 36.738281 C 22.164062 36.589844 21.488281 36.359375 20.820312 36.09375 C 20.789062 36.085938 20.757812 36.0625 20.714844 36.054688 C 20.714844 36.054688 20.640625 36.023438 20.617188 36.011719 C 20.546875 35.980469 20.460938 35.949219 20.386719 35.90625 C 20.195312 35.824219 19.996094 35.726562 19.804688 35.644531 C 19.421875 35.464844 19.050781 35.277344 18.679688 35.085938 C 15.324219 33.339844 12.210938 31.152344 9.003906 29.15625 C 8.84375 29.050781 8.675781 28.957031 8.515625 28.851562 C 8.699219 28.734375 8.886719 28.628906 9.078125 28.535156 C 9.195312 28.484375 9.3125 28.429688 9.429688 28.378906 C 9.417969 28.378906 9.554688 28.324219 9.585938 28.316406 C 9.671875 28.285156 9.757812 28.253906 9.839844 28.222656 C 10.09375 28.125 10.359375 28.042969 10.625 27.96875 C 11.003906 27.851562 11.375 27.757812 11.746094 27.664062 Z M 7.308594 32.890625 C 7.300781 32.269531 7.300781 31.660156 7.363281 31.039062 C 7.375 30.964844 7.375 30.902344 7.382812 30.828125 C 7.382812 30.796875 7.394531 30.765625 7.394531 30.734375 C 7.417969 30.597656 7.449219 30.460938 7.480469 30.324219 C 7.5 30.21875 7.53125 30.113281 7.574219 30.007812 C 7.597656 29.957031 7.617188 29.914062 7.628906 29.859375 C 7.636719 29.828125 7.648438 29.808594 7.671875 29.777344 C 7.691406 29.746094 7.703125 29.703125 7.722656 29.671875 C 10.855469 31.585938 13.863281 33.6875 17.070312 35.484375 C 18.523438 36.296875 20.027344 37.0625 21.613281 37.558594 C 21.890625 37.640625 22.1875 37.726562 22.472656 37.800781 C 22.398438 39.082031 22.3125 40.363281 22.238281 41.648438 C 21.636719 41.5 21.054688 41.277344 20.492188 41.027344 C 19.117188 40.394531 17.8125 39.597656 16.523438 38.796875 C 13.671875 37.050781 10.910156 35.179688 8.09375 33.382812 C 7.828125 33.214844 7.574219 33.046875 7.308594 32.890625 Z M 23.605469 37.945312 C 23.847656 37.945312 24.101562 37.925781 24.347656 37.894531 C 25.382812 37.777344 26.398438 37.546875 27.40625 37.285156 C 28.699219 36.949219 29.96875 36.558594 31.238281 36.136719 C 34.289062 35.140625 37.285156 34.023438 40.269531 32.847656 C 43.148438 31.722656 45.996094 30.542969 48.835938 29.304688 C 48.984375 29.242188 49.121094 29.175781 49.269531 29.113281 C 49.269531 29.15625 49.28125 29.199219 49.28125 29.242188 C 49.332031 29.859375 49.355469 30.492188 49.355469 31.121094 C 49.355469 31.480469 49.34375 31.828125 49.332031 32.183594 C 46.761719 33.46875 44.125 34.6875 41.476562 35.78125 C 38.746094 36.914062 35.972656 37.96875 33.1875 38.988281 C 31.714844 39.535156 30.234375 40.070312 28.761719 40.59375 C 27.394531 41.089844 25.945312 41.59375 24.515625 41.753906 C 24.132812 41.792969 23.753906 41.816406 23.371094 41.792969 C 23.445312 40.523438 23.53125 39.230469 23.605469 37.945312 Z M 53.082031 47.660156 C 52.867188 47.660156 52.65625 47.652344 52.457031 47.628906 C 52.277344 47.617188 52.105469 47.597656 51.925781 47.578125 C 51.914062 47.578125 51.84375 47.566406 51.832031 47.566406 C 51.789062 47.554688 51.757812 47.554688 51.714844 47.546875 C 51.628906 47.535156 51.535156 47.515625 51.449219 47.503906 C 50.742188 47.378906 50.050781 47.199219 49.375 46.945312 C 49.183594 46.871094 48.953125 47.019531 48.910156 47.207031 C 48.855469 47.417969 48.972656 47.597656 49.171875 47.671875 C 50.085938 48.007812 51.046875 48.230469 52.011719 48.332031 C 51.652344 48.523438 51.28125 48.710938 50.921875 48.902344 C 50.191406 48.742188 49.46875 48.585938 48.738281 48.429688 C 48.550781 48.386719 48.316406 48.480469 48.273438 48.691406 C 48.230469 48.878906 48.328125 49.113281 48.539062 49.152344 C 48.984375 49.25 49.429688 49.34375 49.871094 49.4375 C 49.246094 49.765625 48.625 50.089844 48 50.414062 C 45.933594 51.488281 43.871094 52.558594 41.816406 53.632812 C 40.757812 54.179688 39.707031 54.726562 38.648438 55.273438 C 37.410156 54.484375 36.152344 53.71875 34.902344 52.949219 C 33.523438 52.109375 32.148438 51.265625 30.78125 50.425781 C 30.136719 50.027344 29.480469 49.617188 28.835938 49.21875 C 28.835938 48.367188 28.84375 47.503906 28.867188 46.652344 C 28.878906 46.324219 28.878906 46 28.886719 45.675781 C 30.042969 45.242188 31.207031 44.8125 32.359375 44.378906 C 33.535156 43.9375 34.710938 43.507812 35.886719 43.066406 C 36.976562 42.65625 38.078125 42.257812 39.167969 41.847656 C 39.527344 41.710938 39.886719 41.582031 40.25 41.445312 C 42.058594 42.320312 43.859375 43.191406 45.667969 44.066406 C 47.480469 44.9375 49.289062 45.820312 51.101562 46.695312 C 51.769531 47.019531 52.425781 47.34375 53.082031 47.660156 Z M 44.894531 42.445312 C 44.558594 42.277344 44.207031 42.121094 43.871094 41.953125 C 43.148438 41.605469 42.441406 41.257812 41.71875 40.910156 C 41.921875 40.835938 42.121094 40.765625 42.3125 40.691406 C 43.214844 40.355469 44.113281 40.015625 45.011719 39.691406 C 44.980469 40.605469 44.9375 41.53125 44.894531 42.445312 Z M 44.894531 42.445312 " fill-opacity="1" fill-rule="nonzero"/></g><path fill="#000000" d="M 26.621094 40.5 C 27.078125 40.765625 27.605469 40.765625 28.082031 40.542969 C 28.507812 40.34375 28.835938 39.933594 28.960938 39.492188 C 29.027344 39.230469 29.058594 38.933594 28.972656 38.671875 C 28.878906 38.398438 28.707031 38.175781 28.464844 38.019531 C 28.082031 37.757812 27.566406 37.746094 27.128906 37.839844 C 26.695312 37.9375 26.25 38.207031 26.03125 38.609375 C 25.660156 39.292969 25.964844 40.121094 26.621094 40.5 Z M 27.066406 39.417969 C 27.046875 39.386719 27.035156 39.367188 27.023438 39.332031 C 27.015625 39.3125 27.015625 39.28125 27.003906 39.261719 C 27.003906 39.238281 27.003906 39.230469 27.003906 39.207031 C 27.003906 39.199219 27.015625 39.1875 27.015625 39.175781 C 27.023438 39.15625 27.035156 39.144531 27.046875 39.125 C 27.066406 39.101562 27.089844 39.082031 27.097656 39.070312 C 27.121094 39.0625 27.128906 39.050781 27.152344 39.039062 C 27.183594 39.019531 27.214844 38.996094 27.246094 38.988281 C 27.320312 38.957031 27.40625 38.933594 27.480469 38.925781 C 27.554688 38.914062 27.617188 38.914062 27.691406 38.925781 C 27.734375 38.933594 27.765625 38.945312 27.808594 38.957031 C 27.820312 38.964844 27.839844 38.964844 27.851562 38.976562 C 27.851562 38.976562 27.859375 38.988281 27.859375 38.988281 C 27.859375 38.988281 27.871094 38.996094 27.871094 38.996094 C 27.871094 39.007812 27.871094 39.019531 27.882812 39.019531 C 27.882812 39.050781 27.882812 39.082031 27.882812 39.101562 C 27.871094 39.132812 27.871094 39.15625 27.859375 39.1875 C 27.851562 39.207031 27.839844 39.238281 27.839844 39.261719 C 27.820312 39.292969 27.808594 39.324219 27.785156 39.355469 C 27.796875 39.34375 27.796875 39.34375 27.808594 39.332031 C 27.796875 39.34375 27.796875 39.34375 27.785156 39.355469 C 27.785156 39.355469 27.785156 39.355469 27.785156 39.367188 C 27.777344 39.386719 27.753906 39.40625 27.746094 39.40625 C 27.746094 39.40625 27.734375 39.417969 27.734375 39.417969 C 27.710938 39.4375 27.691406 39.449219 27.671875 39.46875 C 27.628906 39.492188 27.597656 39.511719 27.554688 39.535156 C 27.511719 39.542969 27.480469 39.554688 27.4375 39.566406 C 27.40625 39.566406 27.382812 39.566406 27.351562 39.566406 C 27.320312 39.554688 27.277344 39.542969 27.246094 39.535156 C 27.226562 39.523438 27.195312 39.503906 27.171875 39.492188 C 27.183594 39.503906 27.195312 39.503906 27.203125 39.511719 C 27.195312 39.503906 27.183594 39.492188 27.171875 39.480469 C 27.152344 39.46875 27.140625 39.449219 27.140625 39.449219 C 27.097656 39.449219 27.089844 39.4375 27.066406 39.417969 Z M 27.066406 39.417969 " fill-opacity="1" fill-rule="nonzero"/><path fill="#000000" d="M 27.121094 39.46875 C 27.128906 39.480469 27.140625 39.492188 27.152344 39.503906 C 27.152344 39.503906 27.152344 39.503906 27.164062 39.511719 C 27.128906 39.46875 27.121094 39.460938 27.121094 39.46875 Z M 27.121094 39.46875 " fill-opacity="1" fill-rule="nonzero"/><path fill="#000000" d="M 27.734375 39.417969 C 27.746094 39.40625 27.765625 39.386719 27.777344 39.375 C 27.777344 39.375 27.777344 39.375 27.777344 39.367188 C 27.734375 39.40625 27.722656 39.417969 27.734375 39.417969 Z M 27.734375 39.417969 " fill-opacity="1" fill-rule="nonzero"/><path fill="#000000" d="M 45.066406 27.222656 C 45.425781 27.453125 45.785156 27.683594 46.144531 27.90625 C 46.316406 28.011719 46.570312 27.949219 46.664062 27.769531 C 46.761719 27.578125 46.707031 27.367188 46.527344 27.253906 C 46.167969 27.023438 45.808594 26.789062 45.445312 26.570312 C 45.277344 26.464844 45.023438 26.527344 44.929688 26.707031 C 44.832031 26.894531 44.886719 27.105469 45.066406 27.222656 Z M 45.066406 27.222656 " fill-opacity="1" fill-rule="nonzero"/><path fill="#000000" d="M 12.890625 19.347656 C 12.785156 19.179688 12.539062 19.105469 12.371094 19.210938 C 12.203125 19.324219 12.128906 19.546875 12.234375 19.726562 C 12.488281 20.15625 12.753906 20.597656 13.007812 21.027344 C 13.113281 21.199219 13.355469 21.269531 13.523438 21.164062 C 13.695312 21.050781 13.769531 20.828125 13.664062 20.652344 C 13.410156 20.21875 13.144531 19.789062 12.890625 19.347656 Z M 12.890625 19.347656 " fill-opacity="1" fill-rule="nonzero"/></svg>