<svg xmlns="http://www.w3.org/2000/svg" xmlns:xlink="http://www.w3.org/1999/xlink" width="82" zoomAndPan="magnify" viewBox="0 0 61.5 70.499999" height="94" preserveAspectRatio="xMidYMid meet" version="1.0"><defs><clipPath id="562dd312a1"><path d="M 27 61 L 34 61 L 34 62.558594 L 27 62.558594 Z M 27 61 " clip-rule="nonzero"/></clipPath><clipPath id="8348079f13"><path d="M 30 7.507812 L 32 7.507812 L 32 17 L 30 17 Z M 30 7.507812 " clip-rule="nonzero"/></clipPath><clipPath id="dcee5e445a"><path d="M 6.101562 32 L 14 32 L 14 34 L 6.101562 34 Z M 6.101562 32 " clip-rule="nonzero"/></clipPath><clipPath id="0a47637184"><path d="M 47 32 L 55.203125 32 L 55.203125 34 L 47 34 Z M 47 32 " clip-rule="nonzero"/></clipPath></defs><path fill="#141414" d="M 39.789062 21.824219 C 37.171875 19.28125 33.714844 17.929688 30.054688 18.015625 C 22.734375 18.1875 16.839844 24.257812 16.921875 31.550781 C 16.957031 35.097656 18.378906 38.425781 20.917969 40.921875 C 22.574219 42.550781 23.523438 44.839844 23.523438 47.210938 L 23.523438 50.300781 C 23.523438 50.597656 23.765625 50.839844 24.066406 50.839844 C 24.363281 50.839844 24.605469 50.597656 24.605469 50.300781 L 24.605469 47.210938 C 24.605469 44.554688 23.539062 41.984375 21.679688 40.15625 C 19.347656 37.859375 18.039062 34.800781 18.003906 31.539062 C 17.929688 24.835938 23.347656 19.253906 30.078125 19.097656 C 33.441406 19.019531 36.625 20.261719 39.027344 22.597656 C 41.433594 24.933594 42.757812 28.0625 42.757812 31.402344 C 42.757812 34.707031 41.457031 37.808594 39.097656 40.136719 C 37.226562 41.984375 36.152344 44.5625 36.152344 47.210938 L 36.152344 50.300781 C 36.152344 50.601562 36.394531 50.84375 36.695312 50.84375 C 36.996094 50.84375 37.238281 50.601562 37.238281 50.300781 L 37.238281 47.210938 C 37.238281 44.847656 38.195312 42.550781 39.863281 40.90625 C 42.429688 38.371094 43.84375 34.996094 43.84375 31.402344 C 43.84375 27.765625 42.402344 24.367188 39.789062 21.824219 Z M 39.789062 21.824219 " fill-opacity="1" fill-rule="nonzero"/><path fill="#141414" d="M 36.738281 52.148438 L 24.109375 52.148438 C 23.8125 52.148438 23.570312 52.382812 23.566406 52.675781 L 23.523438 54.957031 C 23.523438 56.636719 24.894531 58.003906 26.585938 58.003906 L 34.175781 58.003906 C 35.867188 58.003906 37.238281 56.636719 37.238281 54.96875 L 37.28125 52.699219 C 37.28125 52.554688 37.226562 52.414062 37.125 52.308594 C 37.023438 52.207031 36.882812 52.148438 36.738281 52.148438 Z M 36.152344 54.957031 C 36.152344 56.042969 35.265625 56.921875 34.175781 56.921875 L 26.585938 56.921875 C 25.496094 56.921875 24.609375 56.042969 24.609375 54.96875 L 24.640625 53.226562 L 36.1875 53.226562 Z M 36.152344 54.957031 " fill-opacity="1" fill-rule="nonzero"/><path fill="#141414" d="M 34.367188 58.78125 L 26.652344 58.78125 C 26.355469 58.78125 26.109375 59.023438 26.109375 59.320312 C 26.109375 59.617188 26.355469 59.859375 26.652344 59.859375 L 34.367188 59.859375 C 34.667969 59.859375 34.910156 59.617188 34.910156 59.320312 C 34.910156 59.023438 34.667969 58.78125 34.367188 58.78125 Z M 34.367188 58.78125 " fill-opacity="1" fill-rule="nonzero"/><g clip-path="url(#562dd312a1)"><path fill="#141414" d="M 32.765625 61.480469 L 28.167969 61.480469 C 27.867188 61.480469 27.625 61.722656 27.625 62.019531 C 27.625 62.316406 27.867188 62.558594 28.167969 62.558594 L 32.765625 62.558594 C 33.066406 62.558594 33.308594 62.316406 33.308594 62.019531 C 33.308594 61.722656 33.066406 61.480469 32.765625 61.480469 Z M 32.765625 61.480469 " fill-opacity="1" fill-rule="nonzero"/></g><path fill="#141414" d="M 28.167969 38.640625 C 28.554688 38.640625 28.921875 38.476562 29.183594 38.1875 L 37.710938 28.632812 C 38.207031 28.074219 38.15625 27.222656 37.597656 26.726562 C 37.035156 26.230469 36.179688 26.28125 35.679688 26.839844 L 28.285156 35.128906 L 24.785156 30.234375 C 24.351562 29.625 23.507812 29.484375 22.894531 29.914062 C 22.285156 30.347656 22.140625 31.1875 22.574219 31.796875 L 27.0625 38.074219 C 27.304688 38.40625 27.683594 38.617188 28.09375 38.640625 C 28.121094 38.640625 28.144531 38.640625 28.167969 38.640625 Z M 28.167969 38.640625 " fill-opacity="1" fill-rule="nonzero"/><g clip-path="url(#8348079f13)"><path fill="#141414" d="M 30.652344 16.070312 C 30.953125 16.070312 31.195312 15.828125 31.195312 15.53125 L 31.195312 8.046875 C 31.195312 7.75 30.953125 7.507812 30.652344 7.507812 C 30.351562 7.507812 30.109375 7.75 30.109375 8.046875 L 30.109375 15.53125 C 30.109375 15.828125 30.351562 16.070312 30.652344 16.070312 Z M 30.652344 16.070312 " fill-opacity="1" fill-rule="nonzero"/></g><g clip-path="url(#dcee5e445a)"><path fill="#141414" d="M 13.003906 32.542969 L 6.648438 32.542969 C 6.351562 32.542969 6.109375 32.785156 6.109375 33.082031 C 6.109375 33.378906 6.351562 33.621094 6.648438 33.621094 L 13.003906 33.621094 C 13.304688 33.621094 13.546875 33.378906 13.546875 33.082031 C 13.546875 32.785156 13.304688 32.542969 13.003906 32.542969 Z M 13.003906 32.542969 " fill-opacity="1" fill-rule="nonzero"/></g><g clip-path="url(#0a47637184)"><path fill="#141414" d="M 54.652344 32.542969 L 48.296875 32.542969 C 47.996094 32.542969 47.753906 32.785156 47.753906 33.082031 C 47.753906 33.378906 47.996094 33.621094 48.296875 33.621094 L 54.652344 33.621094 C 54.949219 33.621094 55.195312 33.378906 55.195312 33.082031 C 55.195312 32.785156 54.949219 32.542969 54.652344 32.542969 Z M 54.652344 32.542969 " fill-opacity="1" fill-rule="nonzero"/></g><path fill="#141414" d="M 17.789062 45.109375 L 13.859375 49.019531 C 13.648438 49.230469 13.648438 49.574219 13.859375 49.785156 C 13.964844 49.890625 14.101562 49.941406 14.242188 49.941406 C 14.382812 49.941406 14.519531 49.890625 14.625 49.785156 L 18.558594 45.875 C 18.769531 45.664062 18.769531 45.320312 18.558594 45.109375 C 18.34375 44.898438 18.003906 44.898438 17.789062 45.109375 Z M 17.789062 45.109375 " fill-opacity="1" fill-rule="nonzero"/><path fill="#141414" d="M 43.128906 21.210938 C 43.265625 21.210938 43.40625 21.160156 43.511719 21.054688 L 48.585938 16.003906 C 48.800781 15.792969 48.800781 15.453125 48.585938 15.242188 C 48.375 15.03125 48.03125 15.03125 47.820312 15.242188 L 42.746094 20.289062 C 42.53125 20.5 42.53125 20.839844 42.746094 21.054688 C 42.851562 21.160156 42.988281 21.210938 43.128906 21.210938 Z M 43.128906 21.210938 " fill-opacity="1" fill-rule="nonzero"/><path fill="#141414" d="M 43.511719 45.109375 C 43.300781 44.898438 42.957031 44.898438 42.746094 45.109375 C 42.53125 45.320312 42.53125 45.660156 42.746094 45.875 L 46.675781 49.785156 C 46.78125 49.890625 46.917969 49.941406 47.058594 49.941406 C 47.199219 49.941406 47.335938 49.890625 47.441406 49.785156 C 47.65625 49.574219 47.65625 49.230469 47.441406 49.019531 Z M 43.511719 45.109375 " fill-opacity="1" fill-rule="nonzero"/><path fill="#141414" d="M 17.789062 21.054688 C 17.894531 21.160156 18.035156 21.210938 18.171875 21.210938 C 18.3125 21.210938 18.453125 21.160156 18.558594 21.054688 C 18.769531 20.84375 18.769531 20.5 18.558594 20.289062 L 13.480469 15.242188 C 13.269531 15.03125 12.925781 15.03125 12.714844 15.242188 C 12.503906 15.453125 12.503906 15.792969 12.714844 16.003906 Z M 17.789062 21.054688 " fill-opacity="1" fill-rule="nonzero"/></svg>