<svg xmlns="http://www.w3.org/2000/svg" xmlns:xlink="http://www.w3.org/1999/xlink" width="82" zoomAndPan="magnify" viewBox="0 0 61.5 70.499999" height="94" preserveAspectRatio="xMidYMid meet" version="1.0"><defs><clipPath id="443d46fa5d"><path d="M 6.101562 19.507812 L 55.203125 19.507812 L 55.203125 50.753906 L 6.101562 50.753906 Z M 6.101562 19.507812 " clip-rule="nonzero"/></clipPath></defs><g clip-path="url(#443d46fa5d)"><path fill="#000000" d="M 36.570312 50.675781 C 36.644531 50.644531 38.09375 49.75 42.5 47 C 43.054688 46.65625 44.011719 46.058594 44.625 45.671875 C 45.816406 44.917969 49.476562 42.636719 52.890625 40.515625 C 54.027344 39.808594 54.992188 39.1875 55.03125 39.132812 C 55.144531 38.988281 55.121094 38.886719 54.910156 38.679688 C 54.738281 38.507812 54.667969 38.480469 54.277344 38.441406 C 53.519531 38.363281 53.601562 38.597656 53.519531 36.332031 C 53.480469 35.246094 53.433594 34.273438 53.417969 34.167969 C 53.390625 33.988281 53.40625 33.96875 53.804688 33.738281 C 54.105469 33.5625 54.230469 33.453125 54.257812 33.339844 C 54.339844 33.015625 54.089844 32.914062 51.296875 32.078125 C 48.488281 31.242188 45.28125 30.246094 45.234375 30.199219 C 45.207031 30.167969 45.566406 29.617188 46.0625 28.933594 C 46.546875 28.269531 46.96875 27.671875 47 27.609375 C 47.242188 27.136719 47.300781 25.457031 47.113281 24.421875 C 46.9375 23.429688 46.523438 22.480469 46.089844 22.0625 L 45.917969 21.902344 L 43.472656 21.664062 C 42.125 21.535156 40.320312 21.359375 39.460938 21.28125 C 38.601562 21.199219 37.378906 21.078125 36.746094 21.011719 C 36.113281 20.949219 35.023438 20.839844 34.324219 20.773438 C 31.804688 20.535156 30.023438 20.363281 28.804688 20.246094 C 28.125 20.179688 27.007812 20.074219 26.328125 20.007812 C 24.449219 19.828125 22.804688 19.667969 22.015625 19.585938 C 21.628906 19.542969 21.214844 19.507812 21.097656 19.507812 C 20.902344 19.503906 20.683594 19.667969 18.675781 21.339844 C 17.464844 22.347656 16.191406 23.402344 15.847656 23.679688 C 13.433594 25.644531 10.292969 28.3125 10.210938 28.472656 C 10.101562 28.683594 10.132812 28.941406 10.289062 29.078125 C 10.484375 29.246094 10.664062 29.304688 11.230469 29.375 L 11.804688 29.445312 L 11.855469 30.03125 C 11.882812 30.351562 11.882812 30.632812 11.855469 30.660156 C 11.828125 30.683594 10.855469 31.027344 9.695312 31.417969 C 7.628906 32.113281 7.582031 32.132812 7.242188 32.425781 C 6.835938 32.78125 6.460938 33.4375 6.304688 34.066406 C 6.152344 34.667969 6.152344 36.933594 6.304688 37.632812 C 6.4375 38.265625 6.589844 38.660156 6.832031 39.03125 L 7.023438 39.328125 L 8.972656 40.070312 C 13.453125 41.78125 16.1875 42.824219 19.832031 44.210938 C 20.417969 44.433594 21.425781 44.820312 22.078125 45.066406 C 22.726562 45.316406 24.066406 45.824219 25.058594 46.203125 C 26.046875 46.578125 27.46875 47.125 28.214844 47.417969 C 28.960938 47.714844 30.011719 48.121094 30.546875 48.320312 C 31.082031 48.523438 32.34375 49.003906 33.351562 49.382812 C 34.359375 49.765625 35.328125 50.164062 35.507812 50.273438 C 36.1875 50.683594 36.367188 50.753906 36.570312 50.675781 Z M 34.738281 49.234375 C 34.496094 49.140625 33.859375 48.894531 33.324219 48.6875 L 32.347656 48.3125 L 32.308594 48.082031 C 32.226562 47.628906 32.253906 44.628906 32.347656 44.03125 C 32.46875 43.226562 32.769531 42.375 32.929688 42.375 C 32.96875 42.375 33.269531 42.480469 33.589844 42.605469 C 33.914062 42.734375 34.640625 43.011719 35.203125 43.226562 C 35.769531 43.4375 36.242188 43.628906 36.257812 43.644531 C 36.277344 43.660156 36.195312 43.960938 36.078125 44.316406 C 35.53125 45.957031 35.328125 47.320312 35.445312 48.558594 C 35.480469 48.941406 35.523438 49.28125 35.539062 49.308594 C 35.558594 49.335938 35.554688 49.386719 35.53125 49.421875 C 35.484375 49.5 35.320312 49.460938 34.738281 49.234375 Z M 36.113281 49.136719 C 36.085938 49.046875 36.070312 48.429688 36.070312 47.761719 C 36.074219 46.65625 36.089844 46.492188 36.230469 45.921875 C 36.460938 44.996094 36.769531 44.097656 36.960938 43.789062 C 37.140625 43.492188 37.015625 43.574219 40.640625 41.460938 C 41.210938 41.128906 41.78125 40.789062 41.910156 40.707031 C 42.042969 40.621094 43.648438 39.675781 45.484375 38.601562 C 47.316406 37.53125 49.6875 36.144531 50.753906 35.519531 C 51.816406 34.898438 52.726562 34.386719 52.773438 34.386719 C 52.84375 34.386719 52.863281 34.480469 52.859375 34.847656 C 52.859375 35.097656 52.890625 36.101562 52.929688 37.074219 L 53 38.84375 L 52.859375 38.960938 C 52.777344 39.023438 51.558594 39.792969 50.144531 40.671875 C 48.734375 41.550781 46.847656 42.726562 45.953125 43.28125 C 45.0625 43.835938 43.546875 44.777344 42.589844 45.367188 C 40.441406 46.691406 38.15625 48.113281 37.101562 48.785156 C 36.660156 49.0625 36.269531 49.292969 36.230469 49.296875 C 36.191406 49.296875 36.136719 49.226562 36.113281 49.136719 Z M 40.671875 44.277344 C 43.03125 43.078125 44.6875 42.175781 45.769531 41.503906 C 46.917969 40.792969 48.574219 39.65625 48.53125 39.613281 C 48.503906 39.585938 48.097656 39.824219 46.425781 40.847656 C 44.988281 41.726562 44.25 42.144531 41.703125 43.5 C 39.828125 44.503906 38.425781 45.289062 38.3125 45.398438 C 38.167969 45.542969 38.527344 45.371094 40.671875 44.277344 Z M 41.320312 45.207031 C 42.074219 44.816406 43.96875 43.601562 44.125 43.410156 C 44.28125 43.21875 44.027344 43.335938 43.1875 43.835938 C 42.21875 44.40625 41.023438 45.183594 40.96875 45.273438 C 40.910156 45.371094 41.066406 45.339844 41.320312 45.207031 Z M 47.164062 39.199219 C 47.261719 39.144531 47.792969 38.832031 48.347656 38.5 C 48.898438 38.164062 49.695312 37.726562 50.117188 37.523438 C 50.539062 37.320312 50.855469 37.144531 50.820312 37.128906 C 50.714844 37.089844 49.746094 37.453125 49.183594 37.746094 C 48.367188 38.164062 46.726562 39.292969 46.929688 39.292969 C 46.960938 39.292969 47.066406 39.25 47.164062 39.199219 Z M 37.808594 49.097656 C 37.808594 49.085938 37.851562 49.058594 37.898438 49.039062 C 37.953125 49.019531 37.976562 49.03125 37.957031 49.0625 C 37.921875 49.121094 37.808594 49.148438 37.808594 49.097656 Z M 38.546875 48.648438 C 38.566406 48.617188 38.613281 48.589844 38.652344 48.589844 C 38.695312 48.589844 38.6875 48.613281 38.636719 48.648438 C 38.523438 48.722656 38.5 48.722656 38.546875 48.648438 Z M 39.167969 48.265625 C 39.167969 48.25 39.226562 48.210938 39.300781 48.175781 C 39.425781 48.113281 39.425781 48.113281 39.316406 48.203125 C 39.195312 48.296875 39.167969 48.3125 39.167969 48.265625 Z M 30.867188 47.757812 C 29.882812 47.386719 29.933594 47.449219 29.980469 46.734375 C 30.089844 45.121094 30.6875 41.910156 30.921875 41.6875 C 30.972656 41.636719 31.132812 41.671875 31.566406 41.839844 C 31.882812 41.957031 32.167969 42.082031 32.195312 42.113281 C 32.230469 42.148438 32.175781 42.382812 32.054688 42.734375 C 31.71875 43.699219 31.65625 44.242188 31.664062 46.238281 C 31.667969 47.683594 31.65625 47.996094 31.589844 47.996094 C 31.542969 47.996094 31.21875 47.890625 30.867188 47.757812 Z M 28.660156 46.929688 C 28.101562 46.738281 28.109375 46.75 28.152344 46.195312 C 28.238281 45.199219 28.832031 42.453125 29.132812 41.667969 C 29.390625 41 29.402344 40.992188 29.851562 41.167969 C 30.054688 41.246094 30.242188 41.335938 30.269531 41.363281 C 30.296875 41.390625 30.210938 41.847656 30.082031 42.382812 C 29.742188 43.769531 29.367188 46.128906 29.367188 46.894531 C 29.367188 47.113281 29.359375 47.121094 29.203125 47.089844 C 29.117188 47.074219 28.871094 47 28.660156 46.929688 Z M 41.230469 46.96875 C 41.230469 46.957031 41.273438 46.929688 41.324219 46.910156 C 41.375 46.890625 41.398438 46.898438 41.378906 46.933594 C 41.34375 46.988281 41.230469 47.015625 41.230469 46.96875 Z M 27.125 46.351562 L 26.917969 46.25 L 26.925781 45.289062 C 26.9375 44.246094 26.984375 43.855469 27.25 42.730469 C 27.558594 41.40625 27.90625 40.542969 28.132812 40.542969 C 28.253906 40.542969 28.714844 40.710938 28.796875 40.78125 C 28.828125 40.808594 28.753906 41.054688 28.636719 41.328125 C 28.519531 41.601562 28.34375 42.152344 28.242188 42.550781 C 28 43.542969 27.617188 45.511719 27.566406 46.03125 C 27.519531 46.507812 27.488281 46.53125 27.125 46.351562 Z M 42.589844 46.136719 C 42.589844 46.121094 42.648438 46.078125 42.722656 46.042969 C 42.851562 45.980469 42.851562 45.984375 42.742188 46.070312 C 42.621094 46.167969 42.589844 46.179688 42.589844 46.136719 Z M 25.53125 45.746094 C 25.1875 45.613281 24.207031 45.238281 23.34375 44.910156 C 22.484375 44.585938 20.507812 43.828125 18.949219 43.234375 C 17.390625 42.640625 15.503906 41.921875 14.757812 41.636719 C 11.085938 40.238281 10.339844 39.953125 10.3125 39.921875 C 10.222656 39.832031 10.113281 38.894531 10.082031 37.90625 C 10.054688 36.984375 10.066406 36.6875 10.148438 36.277344 C 10.332031 35.34375 10.734375 34.328125 10.921875 34.328125 C 11.039062 34.328125 11.460938 34.542969 11.511719 34.628906 C 11.535156 34.664062 11.351562 34.898438 11.101562 35.152344 C 10.652344 35.617188 10.589844 35.753906 10.714844 35.988281 C 10.816406 36.179688 10.980469 36.226562 11.851562 36.3125 C 12.3125 36.359375 12.941406 36.425781 13.25 36.457031 C 13.558594 36.492188 14.636719 36.597656 15.640625 36.695312 C 17.609375 36.882812 18.515625 36.976562 18.890625 37.023438 C 19.019531 37.042969 19.351562 37.144531 19.625 37.253906 C 19.902344 37.363281 20.300781 37.519531 20.511719 37.601562 C 20.910156 37.757812 25.285156 39.421875 26.613281 39.925781 C 27.03125 40.082031 27.386719 40.246094 27.402344 40.292969 C 27.421875 40.335938 27.339844 40.574219 27.222656 40.824219 C 26.757812 41.824219 26.363281 43.65625 26.3125 45.054688 C 26.289062 45.671875 26.257812 45.984375 26.214844 45.984375 C 26.179688 45.984375 25.871094 45.875 25.53125 45.746094 Z M 43.242188 45.722656 C 43.316406 45.648438 45.476562 44.285156 48.433594 42.449219 C 53.324219 39.40625 53.363281 39.382812 53.464844 39.175781 C 53.523438 39.066406 53.597656 38.976562 53.628906 38.980469 C 53.660156 38.984375 53.753906 38.988281 53.835938 38.992188 C 53.917969 39 53.984375 39.027344 53.984375 39.0625 C 53.984375 39.125 53.964844 39.136719 52.535156 40.023438 C 51.984375 40.367188 50.324219 41.398438 48.847656 42.320312 C 47.371094 43.238281 45.589844 44.339844 44.890625 44.761719 C 44.195312 45.183594 43.53125 45.59375 43.417969 45.667969 C 43.183594 45.828125 43.113281 45.847656 43.242188 45.722656 Z M 34.988281 42.460938 C 33.449219 41.871094 32.429688 41.484375 29.457031 40.363281 C 27.96875 39.804688 25.050781 38.695312 24.554688 38.503906 C 24.359375 38.425781 23.621094 38.144531 22.914062 37.875 C 22.207031 37.605469 21.648438 37.367188 21.675781 37.339844 C 21.703125 37.316406 21.933594 37.320312 22.195312 37.347656 C 22.453125 37.378906 23.515625 37.484375 24.554688 37.582031 C 25.59375 37.683594 26.671875 37.789062 26.945312 37.820312 C 27.222656 37.851562 28.140625 37.945312 28.984375 38.023438 C 29.828125 38.105469 30.757812 38.199219 31.050781 38.230469 C 31.339844 38.265625 32.019531 38.332031 32.554688 38.382812 C 33.089844 38.433594 33.769531 38.5 34.058594 38.53125 C 34.351562 38.558594 35.054688 38.628906 35.625 38.679688 C 36.191406 38.734375 37.101562 38.824219 37.644531 38.878906 C 38.1875 38.933594 38.683594 38.957031 38.746094 38.933594 C 38.839844 38.898438 40.675781 36.402344 43.996094 31.789062 C 44.539062 31.035156 44.753906 30.777344 44.847656 30.777344 C 44.957031 30.777344 49.089844 32.027344 50.324219 32.433594 C 50.597656 32.523438 51.0625 32.671875 51.355469 32.757812 C 51.648438 32.847656 52.101562 32.984375 52.359375 33.066406 C 52.621094 33.148438 52.898438 33.234375 52.980469 33.257812 C 53.0625 33.28125 53.128906 33.332031 53.128906 33.367188 C 53.128906 33.40625 52.304688 33.917969 51.296875 34.507812 C 49.277344 35.691406 42.855469 39.445312 39.226562 41.5625 C 37.941406 42.3125 36.839844 42.960938 36.777344 43.003906 C 36.714844 43.050781 36.652344 43.085938 36.644531 43.085938 C 36.636719 43.085938 35.890625 42.804688 34.988281 42.460938 Z M 9.195312 39.5 C 9.011719 39.386719 8.976562 39.035156 9.023438 37.882812 C 9.066406 36.824219 9.164062 36.023438 9.351562 35.15625 C 9.476562 34.574219 9.773438 33.855469 9.886719 33.855469 C 9.921875 33.855469 10.027344 33.894531 10.121094 33.941406 L 10.292969 34.03125 L 10.089844 34.464844 C 9.808594 35.082031 9.597656 35.839844 9.488281 36.664062 C 9.394531 37.363281 9.417969 38.078125 9.574219 39.378906 C 9.605469 39.660156 9.605469 39.667969 9.464844 39.625 C 9.390625 39.601562 9.265625 39.546875 9.195312 39.5 Z M 7.894531 39.023438 C 7.675781 38.9375 7.453125 38.828125 7.398438 38.785156 C 7.242188 38.652344 7.011719 38.066406 6.894531 37.523438 C 6.765625 36.917969 6.746094 34.875 6.863281 34.296875 C 6.9375 33.9375 7.195312 33.351562 7.398438 33.089844 L 7.511719 32.945312 L 8.359375 33.269531 C 8.949219 33.492188 9.203125 33.617188 9.195312 33.679688 C 9.191406 33.726562 9.121094 33.925781 9.039062 34.121094 C 8.703125 34.917969 8.472656 36.378906 8.429688 37.980469 C 8.410156 38.640625 8.371094 39.179688 8.34375 39.179688 C 8.316406 39.179688 8.113281 39.109375 7.894531 39.023438 Z M 36.390625 38.144531 C 35.5625 38.0625 34.515625 37.957031 34.058594 37.910156 C 32.878906 37.785156 31.667969 37.664062 30.546875 37.554688 C 30.011719 37.503906 29.335938 37.433594 29.042969 37.402344 C 28.75 37.371094 27.6875 37.265625 26.679688 37.167969 C 25.675781 37.070312 24.613281 36.96875 24.320312 36.933594 C 23.691406 36.867188 22.898438 36.789062 21.605469 36.664062 C 21.085938 36.613281 20.421875 36.546875 20.128906 36.515625 C 19.835938 36.484375 18.773438 36.378906 17.765625 36.28125 C 16.761719 36.183594 15.816406 36.09375 15.671875 36.074219 C 15.367188 36.039062 13.484375 35.851562 12.320312 35.742188 C 11.835938 35.695312 11.539062 35.640625 11.539062 35.601562 C 11.539062 35.527344 11.988281 35.082031 12.152344 34.996094 C 12.214844 34.960938 12.363281 34.957031 12.519531 34.984375 C 12.664062 35.011719 13.332031 35.089844 14.003906 35.15625 C 15.707031 35.320312 16.382812 35.390625 17 35.457031 C 17.292969 35.488281 18.355469 35.59375 19.359375 35.6875 C 20.367188 35.785156 21.429688 35.890625 21.722656 35.921875 C 22.015625 35.957031 22.691406 36.023438 23.226562 36.074219 C 23.761719 36.128906 24.585938 36.210938 25.058594 36.257812 C 25.980469 36.351562 26.90625 36.441406 28.894531 36.632812 C 30.433594 36.78125 35.789062 37.3125 37.207031 37.457031 C 38.164062 37.554688 38.242188 37.554688 38.449219 37.460938 C 38.617188 37.386719 38.882812 37.089844 39.609375 36.15625 C 44.03125 30.476562 45.007812 29.226562 45.117188 29.121094 C 45.246094 28.992188 44.683594 29.800781 43.742188 31.105469 C 41.21875 34.59375 38.660156 38.101562 38.554688 38.222656 C 38.449219 38.339844 38.390625 38.355469 38.164062 38.324219 C 38.015625 38.308594 37.21875 38.226562 36.390625 38.144531 Z M 36.21875 36.753906 C 35.164062 36.644531 33.535156 36.484375 26.828125 35.808594 C 25.546875 35.679688 23.964844 35.523438 23.316406 35.457031 C 22.667969 35.390625 20.78125 35.199219 19.125 35.035156 C 15.871094 34.714844 14.035156 34.53125 13.261719 34.453125 C 12.992188 34.425781 12.753906 34.382812 12.730469 34.359375 C 12.710938 34.335938 12.6875 33.714844 12.683594 32.976562 C 12.679688 32.238281 12.644531 31.4375 12.605469 31.191406 C 12.566406 30.949219 12.519531 30.472656 12.5 30.132812 L 12.46875 29.515625 L 12.960938 29.554688 C 13.234375 29.574219 14.015625 29.644531 14.699219 29.710938 C 15.378906 29.777344 16.628906 29.898438 17.472656 29.976562 C 18.316406 30.058594 19.566406 30.175781 20.246094 30.242188 C 22.421875 30.453125 23.902344 30.59375 26.472656 30.835938 C 27.855469 30.964844 29.675781 31.140625 30.519531 31.222656 C 31.363281 31.304688 32.742188 31.4375 33.585938 31.515625 C 36.675781 31.804688 37.664062 31.90625 37.734375 31.929688 C 37.789062 31.949219 37.800781 32.515625 37.792969 34.414062 L 37.777344 36.871094 L 37.578125 36.871094 C 37.464844 36.871094 36.855469 36.820312 36.21875 36.753906 Z M 32.070312 35.984375 C 31.984375 35.960938 31.746094 35.921875 31.539062 35.898438 C 31.335938 35.875 30.222656 35.742188 29.070312 35.597656 C 22.492188 34.78125 20.082031 34.519531 20.601562 34.679688 C 21.144531 34.847656 27.582031 35.675781 30.511719 35.957031 C 31.539062 36.050781 32.34375 36.070312 32.070312 35.984375 Z M 35.242188 34.21875 C 35.503906 34.148438 34.738281 34.101562 32.761719 34.058594 C 31.851562 34.042969 29.980469 33.988281 28.601562 33.941406 C 27.226562 33.894531 26.085938 33.871094 26.070312 33.886719 C 26.054688 33.902344 26.054688 33.925781 26.070312 33.941406 C 26.105469 33.976562 27.234375 34.078125 28.453125 34.152344 C 29.695312 34.230469 35 34.28125 35.242188 34.21875 Z M 34.109375 32.753906 C 34.527344 32.710938 34.941406 32.652344 35.027344 32.621094 C 35.238281 32.542969 34.730469 32.539062 32.644531 32.613281 C 30.816406 32.675781 30.253906 32.71875 30.253906 32.796875 C 30.253906 32.875 33.253906 32.84375 34.109375 32.753906 Z M 21.308594 31.789062 C 21.421875 31.742188 21.417969 31.734375 21.28125 31.707031 C 21.199219 31.6875 20.800781 31.65625 20.394531 31.640625 C 19.988281 31.621094 19.03125 31.566406 18.269531 31.515625 C 16.015625 31.371094 15.574219 31.355469 15.671875 31.417969 C 15.78125 31.488281 16.933594 31.644531 17.914062 31.722656 C 19.007812 31.808594 21.171875 31.851562 21.308594 31.789062 Z M 38.398438 34.082031 L 38.398438 31.65625 L 39.6875 30.078125 C 40.394531 29.210938 41.449219 27.910156 42.03125 27.191406 C 42.617188 26.472656 43.644531 25.199219 44.320312 24.367188 C 44.996094 23.53125 45.5625 22.847656 45.574219 22.847656 C 45.632812 22.847656 45.773438 23.214844 45.902344 23.707031 C 46.027344 24.179688 46.042969 24.367188 46.042969 25.363281 C 46.042969 27.023438 46.160156 26.785156 44.09375 29.386719 C 43.703125 29.878906 42.285156 31.695312 40.941406 33.421875 C 39.59375 35.152344 38.472656 36.554688 38.445312 36.539062 C 38.421875 36.523438 38.398438 35.417969 38.398438 34.082031 Z M 39.953125 32.253906 C 40.496094 31.691406 40.972656 31.015625 40.828125 31.015625 C 40.765625 31.015625 39.867188 32.019531 39.484375 32.507812 C 39.085938 33.023438 39.339844 32.882812 39.953125 32.253906 Z M 44.265625 28.691406 C 45.050781 27.8125 45.714844 26.871094 45.550781 26.871094 C 45.449219 26.871094 43.769531 28.949219 43.769531 29.074219 C 43.769531 29.195312 43.914062 29.082031 44.265625 28.691406 Z M 44.671875 26.242188 C 45.152344 25.765625 45.589844 25.183594 45.519531 25.117188 C 45.46875 25.0625 45.097656 25.425781 44.605469 26.015625 C 44.03125 26.703125 44.035156 26.695312 44.136719 26.695312 C 44.183594 26.695312 44.425781 26.492188 44.671875 26.242188 Z M 11.699219 34.023438 C 11.5625 33.957031 11.382812 33.851562 11.304688 33.796875 C 11.222656 33.738281 10.542969 33.460938 9.796875 33.175781 C 9.050781 32.890625 8.414062 32.636719 8.386719 32.609375 C 8.320312 32.542969 8.320312 32.542969 10.320312 31.863281 C 11.226562 31.554688 11.984375 31.320312 12.003906 31.339844 C 12.074219 31.414062 12.082031 34.152344 12.011719 34.152344 C 11.976562 34.152344 11.835938 34.09375 11.699219 34.023438 Z M 36.53125 31.191406 C 35.886719 31.128906 34.363281 30.980469 33.144531 30.863281 C 31.925781 30.75 30.242188 30.585938 29.394531 30.507812 C 28.550781 30.425781 27.355469 30.308594 26.738281 30.246094 C 26.125 30.179688 25.046875 30.074219 24.347656 30.011719 C 23.652344 29.945312 22.390625 29.824219 21.546875 29.742188 C 20.699219 29.660156 19.453125 29.539062 18.769531 29.476562 C 18.089844 29.410156 16.972656 29.304688 16.292969 29.238281 C 15.609375 29.171875 14.359375 29.050781 13.515625 28.972656 C 10.671875 28.703125 10.785156 28.722656 10.953125 28.5625 C 11 28.519531 12.152344 27.558594 13.515625 26.425781 C 14.878906 25.296875 16.167969 24.21875 16.378906 24.035156 C 16.710938 23.75 20.726562 20.40625 20.988281 20.203125 C 21.0625 20.144531 21.332031 20.152344 22.285156 20.246094 C 22.949219 20.3125 24.183594 20.429688 25.027344 20.507812 C 25.871094 20.589844 27.121094 20.710938 27.800781 20.777344 C 28.484375 20.839844 29.601562 20.949219 30.28125 21.011719 C 30.964844 21.078125 32.078125 21.1875 32.761719 21.25 C 34.4375 21.414062 36.800781 21.636719 38.339844 21.78125 C 39.039062 21.847656 40.152344 21.953125 40.820312 22.015625 C 41.484375 22.078125 42.640625 22.1875 43.386719 22.257812 C 44.90625 22.394531 45.011719 22.410156 45.011719 22.496094 C 45.011719 22.53125 44.507812 23.175781 43.894531 23.929688 C 37.699219 31.539062 37.890625 31.308594 37.785156 31.308594 C 37.742188 31.308594 37.179688 31.257812 36.53125 31.191406 Z M 36.53125 31.191406 " fill-opacity="1" fill-rule="nonzero"/></g></svg>